# This file uses centimeters as units for non-parametric coordinates.

g default
v -15.586446 0.979692 -0.134372
v -15.565164 0.979692 0.000000
v -15.586446 0.979692 0.134372
v -15.648211 0.979692 0.255590
v -15.744411 0.979692 0.351790
v -15.865628 0.979692 0.413554
v -16.000000 0.979692 0.434836
v -16.134373 0.979692 0.413554
v -16.255590 0.979692 0.351790
v -16.351789 0.979692 0.255590
v -16.413553 0.979692 0.134372
v -16.434835 0.979692 0.000000
v -16.413553 0.979692 -0.134372
v -16.351789 0.979692 -0.255590
v -16.255590 0.979692 -0.351790
v -16.134373 0.979692 -0.413554
v -16.000000 0.979692 -0.434836
v -15.865628 0.979692 -0.413554
v -15.744411 0.979692 -0.351790
v -15.648211 0.979692 -0.255590
v -15.407274 0.000000 -0.192588
v -15.495796 0.000000 -0.366325
v -15.633675 0.000000 -0.504203
v -15.807410 0.000000 -0.592727
v -16.000000 0.000000 -0.623230
v -16.192589 0.000000 -0.592726
v -16.366325 0.000000 -0.504203
v -16.504204 0.000000 -0.366325
v -16.592726 0.000000 -0.192588
v -16.623228 0.000000 0.000000
v -16.592726 0.000000 0.192588
v -16.504204 0.000000 0.366325
v -16.366325 0.000000 0.504203
v -16.192589 0.000000 0.592726
v -16.000000 0.000000 0.623229
v -15.807410 0.000000 0.592726
v -15.633675 0.000000 0.504203
v -15.495797 0.000000 0.366325
v -15.407274 0.000000 0.192589
v -15.376771 0.000000 0.000000
v -15.602474 0.979692 -0.288819
v -15.495796 0.849454 -0.366325
v -15.407274 0.849454 -0.192588
v -15.532681 0.979692 -0.151841
v -15.711181 0.979692 -0.397525
v -15.633675 0.849454 -0.504203
v -15.848158 0.979692 -0.467319
v -15.807410 0.849454 -0.592727
v -16.000000 0.979692 -0.491368
v -16.000000 0.849454 -0.623230
v -16.151842 0.979692 -0.467319
v -16.192589 0.849454 -0.592726
v -16.288818 0.979692 -0.397525
v -16.366325 0.849454 -0.504203
v -16.397526 0.979692 -0.288819
v -16.504204 0.849454 -0.366325
v -16.467318 0.979692 -0.151841
v -16.592726 0.849454 -0.192588
v -16.491367 0.979692 0.000000
v -16.623228 0.849454 0.000000
v -16.467318 0.979692 0.151841
v -16.592726 0.849454 0.192588
v -16.397526 0.979692 0.288819
v -16.504204 0.849454 0.366325
v -16.288818 0.979692 0.397525
v -16.366325 0.849454 0.504203
v -16.151842 0.979692 0.467319
v -16.192589 0.849454 0.592726
v -16.000000 0.979692 0.491368
v -16.000000 0.849454 0.623229
v -15.848158 0.979692 0.467319
v -15.807410 0.849454 0.592726
v -15.711181 0.979692 0.397525
v -15.633675 0.849454 0.504203
v -15.602474 0.979692 0.288819
v -15.495797 0.849454 0.366325
v -15.532681 0.979692 0.151841
v -15.407274 0.849454 0.192589
v -15.508633 0.979692 0.000000
v -15.376771 0.849454 0.000000
v -15.714219 2.216652 -0.092856
v -15.699514 2.216652 -0.000000
v -15.714219 4.293746 -0.080415
v -15.699514 4.340174 -0.000000
v -15.714219 2.216652 0.092855
v -15.714219 4.386602 0.080415
v -15.756901 2.216652 0.176622
v -15.756901 4.428485 0.152959
v -15.823380 2.216652 0.243099
v -15.823380 4.461724 0.210530
v -15.907144 2.216652 0.285780
v -15.907144 4.483064 0.247493
v -16.000000 2.216652 0.300487
v -16.000000 4.490417 0.260230
v -16.092857 2.216652 0.285780
v -16.092857 4.483064 0.247493
v -16.176622 2.216652 0.243099
v -16.176622 4.461724 0.210530
v -16.243099 2.216652 0.176622
v -16.243099 4.428485 0.152959
v -16.285780 2.216652 0.092856
v -16.285780 4.386602 0.080415
v -16.300486 2.216652 0.000000
v -16.300486 4.340174 -0.000000
v -16.285780 2.216652 -0.092856
v -16.285780 4.293746 -0.080416
v -16.243099 2.216652 -0.176622
v -16.243099 4.251863 -0.152959
v -16.176622 2.216652 -0.243100
v -16.176622 4.218624 -0.210531
v -16.092857 2.216652 -0.285781
v -16.092857 4.197284 -0.247493
v -16.000000 2.216652 -0.300487
v -16.000000 4.189930 -0.260230
v -15.907144 2.216652 -0.285781
v -15.907144 4.197284 -0.247493
v -15.823380 2.216652 -0.243099
v -15.823380 4.218625 -0.210530
v -15.756901 2.216652 -0.176622
v -15.756901 4.251863 -0.152959
v -15.586446 2.150311 -0.134372
v -15.650325 2.216652 -0.113616
v -15.565164 2.150311 0.000000
v -15.632331 2.216652 -0.000000
v -15.586446 2.150311 0.134372
v -15.650325 2.216652 0.113616
v -15.648211 2.150311 0.255590
v -15.702550 2.216652 0.216110
v -15.744411 2.150311 0.351790
v -15.783891 2.216652 0.297450
v -15.865628 2.150311 0.413554
v -15.886384 2.216652 0.349674
v -16.000000 2.150311 0.434836
v -16.000000 2.216652 0.367669
v -16.134373 2.150311 0.413554
v -16.113617 2.216652 0.349674
v -16.255590 2.150311 0.351790
v -16.216110 2.216652 0.297450
v -16.351789 2.150311 0.255590
v -16.297449 2.216652 0.216110
v -16.413553 2.150311 0.134372
v -16.349672 2.216652 0.113616
v -16.434835 2.150311 0.000000
v -16.367668 2.216652 0.000000
v -16.413553 2.150311 -0.134372
v -16.349672 2.216652 -0.113616
v -16.351789 2.150311 -0.255590
v -16.297449 2.216652 -0.216110
v -16.255590 2.150311 -0.351790
v -16.216110 2.216652 -0.297450
v -16.134373 2.150311 -0.413554
v -16.113617 2.216652 -0.349674
v -16.000000 2.150311 -0.434836
v -16.000000 2.216652 -0.367669
v -15.865628 2.150311 -0.413554
v -15.886384 2.216652 -0.349674
v -15.744411 2.150311 -0.351790
v -15.783891 2.216652 -0.297450
v -15.648211 2.150311 -0.255590
v -15.702550 2.216652 -0.216110
v -19.409252 5.342560 1.791109
v -19.442617 5.404439 1.803116
v -12.557384 5.404439 1.803116
v -12.590749 5.342560 1.791109
v -19.442617 5.486878 1.755520
v -19.409252 5.507420 1.695927
v -12.590749 5.507420 1.695927
v -12.557384 5.486878 1.755520
v -19.409252 3.565240 -1.668027
v -19.442617 3.503360 -1.680033
v -12.590749 3.565240 -1.668027
v -12.557384 3.503360 -1.680033
v -19.442617 3.420922 -1.632438
v -19.409252 3.400380 -1.572845
v -12.590749 3.400380 -1.572845
v -12.557384 3.420922 -1.632438
v -12.659591 5.392831 1.649953
v -19.340410 5.392831 1.649953
v -12.659591 3.547760 -1.545803
v -19.340410 3.547760 -1.545803
v -12.632862 5.475423 1.640508
v -12.659591 5.425852 1.630889
v -19.367140 5.475423 1.640508
v -19.340410 5.425851 1.630889
v -12.632862 3.597236 -1.612607
v -12.659591 3.580780 -1.564867
v -19.367140 3.597236 -1.612607
v -19.340410 3.580780 -1.564867
v -12.765646 3.511217 -1.380870
v -19.234356 3.511217 -1.380870
v -12.765646 5.231723 1.599134
v -19.234356 5.231723 1.599134
v -12.820832 3.409066 -1.242943
v -12.765646 3.443042 -1.341508
v -19.234356 3.443042 -1.341508
v -19.179169 3.409066 -1.242943
v -12.820832 5.061199 1.618636
v -12.765646 5.163548 1.638494
v -19.179169 5.061199 1.618636
v -19.234356 5.163548 1.638494
vt 0.386490 0.750708
vt 0.381032 0.767240
vt 0.364671 0.761958
vt 0.371558 0.745963
vt 0.401846 0.754670
vt 0.397476 0.771583
vt 0.417477 0.757956
vt 0.414001 0.775123
vt 0.348388 0.755561
vt 0.357344 0.740148
vt 0.332122 0.748001
vt 0.650678 0.732469
vt 0.646898 0.755191
vt 0.638066 0.740046
vt 0.630475 0.761615
vt 0.623731 0.745787
vt 0.614045 0.766876
vt 0.608664 0.750471
vt 0.597571 0.771212
vt 0.593212 0.754396
vt 0.581036 0.774770
vt 0.577525 0.757674
vt 0.564435 0.777636
vt 0.561677 0.760351
vt 0.547771 0.779854
vt 0.545717 0.762441
vt 0.531054 0.781443
vt 0.529677 0.763946
vt 0.514299 0.782413
vt 0.513588 0.764867
vt 0.497524 0.782766
vt 0.497474 0.765201
vt 0.480748 0.782501
vt 0.481361 0.764945
vt 0.463990 0.781614
vt 0.465273 0.764097
vt 0.447270 0.780100
vt 0.449240 0.762653
vt 0.430602 0.777946
vt 0.433294 0.760610
vt 0.380799 0.850004
vt 0.361777 0.845319
vt 0.343047 0.840019
vt 0.324673 0.834261
vt 0.306690 0.828348
vt 0.670799 0.832329
vt 0.652683 0.838279
vt 0.634133 0.843836
vt 0.615236 0.848783
vt 0.596070 0.853019
vt 0.576701 0.856508
vt 0.557182 0.859237
vt 0.537557 0.861208
vt 0.517863 0.862424
vt 0.498134 0.862888
vt 0.478400 0.862602
vt 0.458692 0.861568
vt 0.439041 0.859788
vt 0.419482 0.857262
vt 0.400053 0.853996
vt 0.049079 0.860318
vt 0.062321 0.861293
vt 0.035886 0.859204
vt 0.022770 0.857981
vt 0.274092 0.856085
vt 0.261240 0.857305
vt 0.248217 0.858570
vt 0.235081 0.859761
vt 0.221875 0.860823
vt 0.208624 0.861734
vt 0.195347 0.862485
vt 0.182052 0.863074
vt 0.168748 0.863503
vt 0.155438 0.863774
vt 0.142125 0.863888
vt 0.128810 0.863846
vt 0.115498 0.863648
vt 0.102188 0.863294
vt 0.088885 0.862784
vt 0.075594 0.862117
vt 0.082499 0.736553
vt 0.070828 0.735790
vt 0.790998 0.206871
vt 0.783195 0.211136
vt 0.094294 0.737146
vt 0.775392 0.215400
vt 0.106159 0.737590
vt 0.767371 0.219238
vt 0.118062 0.737898
vt 0.759012 0.222271
vt 0.129984 0.738077
vt 0.750334 0.224207
vt 0.141914 0.738130
vt 0.741466 0.224859
vt 0.153845 0.738058
vt 0.732601 0.224162
vt 0.165768 0.737861
vt 0.723932 0.222182
vt 0.177675 0.737539
vt 0.715589 0.219106
vt 0.189548 0.737086
vt 0.707587 0.215227
vt 0.201357 0.736491
vt 0.699806 0.210923
vt 0.213050 0.735733
vt 0.692026 0.206619
vt 0.224534 0.734762
vt 0.684018 0.202752
vt 0.235643 0.733472
vt 0.675656 0.199729
vt 0.246044 0.731602
vt 0.666960 0.197873
vt 0.028942 0.728450
vt 0.658081 0.197389
vt 0.037906 0.731649
vt 0.816108 0.198253
vt 0.048300 0.733515
vt 0.807403 0.200065
vt 0.059375 0.734810
vt 0.799025 0.203046
vt 0.069245 0.750822
vt 0.070123 0.742020
vt 0.081968 0.742812
vt 0.081369 0.751671
vt 0.057094 0.749685
vt 0.058390 0.740985
vt 0.093883 0.743419
vt 0.093478 0.752307
vt 0.105839 0.743871
vt 0.105581 0.752772
vt 0.117818 0.744183
vt 0.117680 0.753090
vt 0.129809 0.744364
vt 0.129779 0.753272
vt 0.141806 0.744418
vt 0.141879 0.753325
vt 0.153804 0.744347
vt 0.153978 0.753250
vt 0.165798 0.744150
vt 0.166078 0.753048
vt 0.177781 0.743827
vt 0.178178 0.752713
vt 0.189745 0.743370
vt 0.190283 0.752236
vt 0.201678 0.742768
vt 0.202397 0.751595
vt 0.213557 0.741993
vt 0.214531 0.750750
vt 0.225346 0.740986
vt 0.226701 0.749631
vt 0.236978 0.739626
vt 0.238931 0.748122
vt 0.248291 0.737623
vt 0.251257 0.746049
vt 0.258779 0.734243
vt 0.020307 0.743321
vt 0.035630 0.737551
vt 0.032647 0.746057
vt 0.046846 0.739590
vt 0.044900 0.748148
vt 0.558037 0.973693
vt 0.858944 0.903469
vt 0.929342 0.968174
vt 0.877414 0.657840
vt 0.210874 0.909554
vt 0.805659 0.592569
vt 0.800107 0.221265
vt 0.871546 0.009767
vt 0.554126 0.959193
vt 0.855786 0.888504
vt 0.925431 0.953674
vt 0.862448 0.660993
vt 0.207715 0.894589
vt 0.820159 0.588657
vt 0.814607 0.217353
vt 0.856580 0.012921
vt 0.567220 0.941702
vt 0.217378 0.874190
vt 0.832099 0.230445
vt 0.842053 0.651323
vt 0.214852 0.882573
vt 0.828545 0.579471
vt 0.849272 0.877676
vt 0.564088 0.949713
vt 0.824088 0.227314
vt 0.845751 0.019430
vt 0.916246 0.945287
vt 0.850435 0.653853
vt 0.009766 0.706345
vt 0.632914 0.717272
vt 0.021131 0.370045
vt 0.644279 0.380972
vt 0.026304 0.699880
vt 0.021083 0.709741
vt 0.017257 0.380884
vt 0.026348 0.387352
vt 0.627696 0.699965
vt 0.636787 0.706433
vt 0.627740 0.387437
vt 0.632961 0.377576
vt 0.263741 0.743209
vt 0.646723 0.728442
vt 0.009766 0.856716
vt 0.804252 0.010607
vt 0.795362 0.010458
vt 0.813143 0.010774
vt 0.822033 0.010978
vt 0.830921 0.011232
vt 0.653101 0.010778
vt 0.824989 0.197815
vt 0.661991 0.010569
vt 0.670881 0.010411
vt 0.679773 0.010289
vt 0.688664 0.010185
vt 0.697555 0.010086
vt 0.706447 0.009986
vt 0.715339 0.009891
vt 0.724230 0.009814
vt 0.733122 0.009767
vt 0.742014 0.009766
vt 0.750906 0.009813
vt 0.759798 0.009904
vt 0.768689 0.010028
vt 0.777580 0.010168
vt 0.786471 0.010313
vt 0.688417 0.826466
vt 0.663432 0.747304
vt 0.388224 0.745703
vt 0.403258 0.749559
vt 0.373726 0.741132
vt 0.360167 0.735627
vt 0.635282 0.735448
vt 0.621700 0.740882
vt 0.607120 0.745401
vt 0.592014 0.749230
vt 0.576596 0.752450
vt 0.560979 0.755088
vt 0.545230 0.757153
vt 0.529394 0.758643
vt 0.513503 0.759556
vt 0.497587 0.759890
vt 0.481671 0.759642
vt 0.465783 0.758809
vt 0.449953 0.757390
vt 0.434218 0.755381
vt 0.418628 0.752775
vt 0.344537 0.732357
vt 0.348573 0.728459
vt 0.255009 0.728461
vt 0.025056 0.734030
vt 0.641663 0.358791
vt 0.641659 0.009766
vt 0.009766 0.009772
vt 0.009769 0.358798
vt 0.579005 0.990234
vt 0.839251 0.930401
vt 0.632962 0.370131
vt 0.636833 0.380971
vt 0.227420 0.930517
vt 0.783616 0.567696
vt 0.009811 0.380883
vt 0.021130 0.377491
vt 0.632915 0.709826
vt 0.898383 0.641300
vt 0.904467 0.990215
vt 0.644233 0.706434
vt 0.783568 0.242234
vt 0.898472 0.029469
vt 0.021082 0.717186
vt 0.017211 0.706346
vt 0.855789 0.909431
vt 0.800162 0.588660
vt 0.925432 0.973671
vt 0.877508 0.012924
vt 0.845659 0.651324
vt 0.916245 0.941681
vt 0.828492 0.230446
vt 0.842144 0.019430
vt 0.849271 0.874070
vt 0.567220 0.945309
vt 0.217379 0.877796
vt 0.832151 0.579471
vt 0.856487 0.657837
vt 0.919378 0.949691
vt 0.820104 0.221262
vt 0.850527 0.016903
vt 0.851801 0.882452
vt 0.558036 0.953696
vt 0.210870 0.888626
vt 0.824142 0.582604
vt 0.871452 0.660995
vt 0.929341 0.959170
vt 0.862543 0.009766
vt 0.805603 0.217355
vt 0.858942 0.894465
vt 0.554127 0.968197
vt 0.207717 0.903592
vt 0.814663 0.592568
vn 0.489572 0.796117 -0.355693
vn 0.803777 0.113643 -0.583975
vn 0.583978 0.113644 -0.803775
vn 0.355695 0.796116 -0.489571
vn 0.575531 0.796113 -0.186999
vn 0.944896 0.113642 -0.307013
vn 0.605150 0.796112 -0.000000
vn 0.993522 0.113642 -0.000000
vn 0.307015 0.113644 -0.944895
vn 0.187000 0.796114 -0.575529
vn -0.000000 0.113643 -0.993522
vn -0.000000 0.796113 -0.605148
vn -0.307016 0.113644 -0.944895
vn -0.187002 0.796114 -0.575528
vn -0.583977 0.113645 -0.803776
vn -0.355695 0.796116 -0.489572
vn -0.803777 0.113643 -0.583976
vn -0.489575 0.796114 -0.355696
vn -0.944897 0.113643 -0.307011
vn -0.575529 0.796115 -0.186998
vn -0.993522 0.113643 -0.000000
vn -0.605146 0.796115 -0.000000
vn -0.944897 0.113643 0.307011
vn -0.575527 0.796116 0.186998
vn -0.803777 0.113643 0.583976
vn -0.489574 0.796115 0.355695
vn -0.583977 0.113644 0.803776
vn -0.355696 0.796115 0.489574
vn -0.307015 0.113644 0.944895
vn -0.187001 0.796114 0.575528
vn -0.000000 0.113644 0.993522
vn -0.000000 0.796114 0.605146
vn 0.307015 0.113643 0.944895
vn 0.187001 0.796114 0.575529
vn 0.583979 0.113644 0.803775
vn 0.355696 0.796115 0.489573
vn 0.803777 0.113644 0.583976
vn 0.489574 0.796114 0.355695
vn 0.944895 0.113643 0.307015
vn 0.575529 0.796114 0.186999
vn 0.951057 0.000000 -0.309015
vn 0.809019 0.000000 -0.587783
vn 0.587786 0.000000 -0.809016
vn 0.309017 0.000000 -0.951057
vn -0.000000 0.000000 -1.000000
vn -0.309018 0.000000 -0.951056
vn -0.587785 0.000000 -0.809017
vn -0.809018 0.000000 -0.587784
vn -0.951058 0.000000 -0.309013
vn -1.000000 0.000000 0.000000
vn -0.951058 0.000000 0.309013
vn -0.809018 0.000000 0.587784
vn -0.587785 -0.000000 0.809017
vn -0.309017 -0.000000 0.951057
vn -0.000000 0.000000 1.000000
vn 0.309017 0.000000 0.951056
vn 0.587787 0.000000 0.809016
vn 0.809018 0.000000 0.587784
vn 0.951057 0.000000 0.309017
vn 1.000000 0.000000 0.000000
vn 0.000000 1.000000 0.000001
vn 0.000000 1.000000 -0.000000
vn 0.000000 1.000000 0.000001
vn 0.000000 1.000000 -0.000000
vn 0.000000 1.000000 -0.000000
vn 0.000000 1.000000 -0.000001
vn 0.000000 1.000000 -0.000000
vn 0.000000 1.000000 0.000000
vn 0.000000 1.000000 0.000000
vn 0.000000 1.000000 0.000000
vn 0.000000 1.000000 0.000000
vn 0.000000 1.000000 0.000000
vn 0.000000 1.000000 -0.000000
vn 0.000000 1.000000 -0.000000
vn 0.000000 1.000000 -0.000000
vn 0.000000 1.000000 -0.000000
vn 0.000000 1.000000 -0.000000
vn 0.000000 1.000000 -0.000000
vn 0.000000 1.000000 0.000000
vn 0.000000 1.000000 -0.000000
vn 0.999998 0.000497 0.001855
vn 0.944605 0.002387 -0.328202
vn 0.960504 0.001795 -0.278261
vn 0.998354 0.000494 0.057350
vn 0.943773 0.002280 0.330587
vn 0.925536 0.002816 0.378649
vn 0.788405 0.006726 0.615120
vn 0.762156 0.007407 0.647351
vn 0.561026 0.011883 0.827713
vn 0.537131 0.012341 0.843408
vn 0.290301 0.015834 0.956804
vn 0.276461 0.015975 0.960892
vn 0.000000 0.017297 0.999850
vn -0.000000 0.017297 0.999850
vn -0.290297 0.015834 0.956806
vn -0.276458 0.015975 0.960893
vn -0.561026 0.011883 0.827713
vn -0.537130 0.012341 0.843409
vn -0.788412 0.006725 0.615110
vn -0.762164 0.007407 0.647342
vn -0.943773 0.002280 0.330586
vn -0.925538 0.002816 0.378645
vn -0.999998 0.000497 0.001856
vn -0.998354 0.000494 0.057354
vn -0.944605 0.002387 -0.328201
vn -0.960503 0.001795 -0.278263
vn -0.788422 0.007324 -0.615091
vn -0.814085 0.006515 -0.580710
vn -0.559568 0.013326 -0.828677
vn -0.583864 0.012751 -0.811752
vn -0.288741 0.018074 -0.957237
vn -0.302997 0.017892 -0.952824
vn 0.000000 0.019861 -0.999803
vn 0.000000 0.019861 -0.999803
vn 0.288745 0.018074 -0.957236
vn 0.303001 0.017892 -0.952822
vn 0.559567 0.013326 -0.828678
vn 0.583862 0.012751 -0.811753
vn 0.788415 0.007324 -0.615100
vn 0.814077 0.006515 -0.580720
vn 0.950011 0.046856 -0.308679
vn 0.477821 0.864629 -0.155254
vn 0.502401 0.864635 -0.000001
vn 0.998902 0.046857 -0.000000
vn 0.808126 0.046856 -0.587143
vn 0.406455 0.864630 -0.295311
vn 0.477814 0.864633 0.155252
vn 0.950011 0.046857 0.308680
vn 0.406452 0.864632 0.295309
vn 0.808126 0.046857 0.587143
vn 0.295307 0.864633 0.406453
vn 0.587140 0.046857 0.808128
vn 0.155253 0.864631 0.477818
vn 0.308679 0.046857 0.950012
vn -0.000000 0.864631 0.502408
vn -0.000000 0.046857 0.998902
vn -0.155253 0.864630 0.477820
vn -0.308678 0.046857 0.950012
vn -0.295310 0.864631 0.406455
vn -0.587142 0.046857 0.808127
vn -0.406455 0.864633 0.295305
vn -0.808130 0.046857 0.587138
vn -0.477816 0.864632 0.155252
vn -0.950012 0.046857 0.308676
vn -0.502410 0.864629 0.000000
vn -0.998902 0.046857 -0.000000
vn -0.477817 0.864631 -0.155252
vn -0.950012 0.046857 -0.308676
vn -0.406458 0.864631 -0.295307
vn -0.808130 0.046857 -0.587138
vn -0.295311 0.864629 -0.406457
vn -0.587142 0.046857 -0.808126
vn -0.155253 0.864630 -0.477819
vn -0.308678 0.046857 -0.950012
vn 0.000000 0.864631 -0.502408
vn 0.000000 0.046857 -0.998902
vn 0.155254 0.864630 -0.477820
vn 0.308678 0.046857 -0.950012
vn 0.295309 0.864630 -0.406458
vn 0.587140 0.046856 -0.808128
vn 1.000000 0.000000 0.000000
vn 0.951056 0.000000 -0.309019
vn 0.951056 0.000000 0.309019
vn 0.809015 0.000000 0.587788
vn 0.587786 0.000000 0.809017
vn 0.309018 0.000000 0.951056
vn 0.000000 0.000000 1.000000
vn -0.309017 0.000000 0.951057
vn -0.587787 0.000000 0.809015
vn -0.809018 0.000000 0.587784
vn -0.951057 0.000000 0.309016
vn -1.000000 0.000000 0.000000
vn -0.951057 0.000000 -0.309016
vn -0.809018 0.000000 -0.587784
vn -0.587788 0.000000 -0.809015
vn -0.309017 0.000000 -0.951057
vn 0.000000 0.000000 -1.000000
vn 0.309018 -0.000000 -0.951056
vn 0.587786 -0.000000 -0.809017
vn 0.809015 0.000000 -0.587788
vn 0.000000 1.000000 -0.000001
vn 0.000000 1.000000 -0.000001
vn 0.000000 1.000000 0.000001
vn 0.000000 1.000000 0.000001
vn 0.000000 1.000000 0.000001
vn 0.000000 1.000000 0.000001
vn 0.000000 1.000000 0.000002
vn 0.000000 1.000000 0.000001
vn 0.000000 1.000000 -0.000001
vn 0.000000 1.000000 -0.000001
vn 0.000000 1.000000 0.000001
vn 0.000000 1.000000 0.000001
vn 0.000000 1.000000 0.000000
vn 0.000000 1.000000 -0.000001
vn 0.000000 1.000000 -0.000001
vn 0.000000 1.000000 -0.000001
vn 0.000000 1.000000 -0.000002
vn 0.000000 1.000000 -0.000001
vn 0.000000 1.000000 -0.000002
vn 0.000000 1.000000 -0.000002
vn -0.149137 -0.707372 0.690929
vn -0.987163 -0.138319 0.079860
vn -0.987163 -0.138320 0.079860
vn -0.149137 -0.952047 0.267141
vn 0.000000 0.300423 0.953806
vn 0.149137 -0.707373 0.690928
vn 0.000000 0.300423 0.953806
vn 0.987162 -0.138327 0.079860
vn 0.149137 -0.952048 0.267140
vn 0.987162 -0.138328 0.079860
vn -0.987162 0.138324 -0.079860
vn -0.255842 0.964039 -0.071925
vn -0.255840 0.544305 -0.798923
vn -0.987162 0.138325 -0.079860
vn 0.000000 0.675809 0.737077
vn 0.000000 0.675809 0.737077
vn 0.255841 0.964040 -0.071924
vn 0.987163 0.138321 -0.079860
vn 0.987162 0.138322 -0.079861
vn 0.255840 0.544307 -0.798922
vn 0.000000 -0.300423 -0.953806
vn 0.000000 -0.300423 -0.953806
vn 0.000000 -0.675811 -0.737075
vn 0.000000 -0.675811 -0.737075
vn -0.000000 0.866025 -0.500000
vn -0.000000 0.866025 -0.500000
vn -0.000000 0.866025 -0.500000
vn -0.000000 0.866025 -0.500000
vn -0.079111 0.770715 -0.632250
vn -0.000000 -0.065163 -0.997875
vn -0.000000 -0.065162 -0.997875
vn 0.079112 0.770720 -0.632244
vn -0.925345 0.328332 -0.189563
vn -0.079111 0.932902 -0.351335
vn -0.925346 0.328331 -0.189563
vn 0.925341 0.328342 -0.189568
vn 0.925341 0.328340 -0.189567
vn 0.079111 0.932903 -0.351332
vn 0.000000 0.831599 0.555377
vn 0.000000 0.831600 0.555375
vn 0.000000 -0.499983 -0.866036
vn 0.000000 -0.499983 -0.866036
vn -1.000000 -0.000008 0.000000
vn -1.000000 -0.000008 0.000000
vn 0.000000 0.499996 0.866028
vn 0.000000 0.499996 0.866028
vn 1.000000 -0.000014 0.000000
vn 1.000000 -0.000014 0.000000
vn 0.000000 -0.866025 0.500001
vn 0.000000 -0.866024 0.500002
vn 0.000000 -0.866026 0.499999
vn 0.000000 -0.866025 0.500000
vn 0.016925 -0.880632 0.473499
vn 0.967502 -0.218987 0.126430
vn 0.967502 -0.218988 0.126430
vn 0.016925 -0.850378 0.525900
vn 0.000000 -0.759679 -0.650299
vn -0.016925 -0.880632 0.473499
vn 0.000000 -0.759678 -0.650299
vn -0.967501 -0.218991 0.126432
vn -0.016925 -0.850378 0.525900
vn -0.967501 -0.218991 0.126432
vn -0.000000 0.183333 0.983051
vn -0.000000 0.183334 0.983051
vn 0.000000 -0.500000 -0.866026
vn 0.000000 -0.500000 -0.866026
vn 1.000000 0.000007 0.000000
vn 1.000000 0.000007 0.000000
vn 0.000000 0.499997 0.866027
vn 0.000000 0.499997 0.866027
vn -1.000000 -0.000015 0.000000
vn -1.000000 -0.000015 0.000000
s 1
g SolarPanel
f 41/1/1 42/2/2 46/3/3 45/4/4
f 42/2/2 41/1/1 44/5/5 43/6/6
f 43/6/6 44/5/5 79/7/7 80/8/8
f 45/4/4 46/3/3 48/9/9 47/10/10
f 47/10/10 48/9/9 50/11/11 49/247/12
f 49/12/12 50/227/11 52/13/13 51/14/14
f 51/14/14 52/13/13 54/15/15 53/16/16
f 53/16/16 54/15/15 56/17/17 55/18/18
f 55/18/18 56/17/17 58/19/19 57/20/20
f 57/20/20 58/19/19 60/21/21 59/22/22
f 59/22/22 60/21/21 62/23/23 61/24/24
f 61/24/24 62/23/23 64/25/25 63/26/26
f 63/26/26 64/25/25 66/27/27 65/28/28
f 65/28/28 66/27/27 68/29/29 67/30/30
f 67/30/30 68/29/29 70/31/31 69/32/32
f 69/32/32 70/31/31 72/33/33 71/34/34
f 71/34/34 72/33/33 74/35/35 73/36/36
f 73/36/36 74/35/35 76/37/37 75/38/38
f 75/38/38 76/37/37 78/39/39 77/40/40
f 77/40/40 78/39/39 80/8/8 79/7/7
f 21/41/41 22/42/42 42/2/2 43/6/6
f 22/42/42 23/43/43 46/3/3 42/2/2
f 23/43/43 24/44/44 48/9/9 46/3/3
f 24/44/44 25/45/45 50/11/11 48/9/9
f 25/226/45 26/46/46 52/13/13 50/227/11
f 26/46/46 27/47/47 54/15/15 52/13/13
f 27/47/47 28/48/48 56/17/17 54/15/15
f 28/48/48 29/49/49 58/19/19 56/17/17
f 29/49/49 30/50/50 60/21/21 58/19/19
f 30/50/50 31/51/51 62/23/23 60/21/21
f 31/51/51 32/52/52 64/25/25 62/23/23
f 32/52/52 33/53/53 66/27/27 64/25/25
f 33/53/53 34/54/54 68/29/29 66/27/27
f 34/54/54 35/55/55 70/31/31 68/29/29
f 35/55/55 36/56/56 72/33/33 70/31/31
f 36/56/56 37/57/57 74/35/35 72/33/33
f 37/57/57 38/58/58 76/37/37 74/35/35
f 38/58/58 39/59/59 78/39/39 76/37/37
f 39/59/59 40/60/60 80/8/8 78/39/39
f 40/60/60 21/41/41 43/6/6 80/8/8
f 20/228/61 1/229/62 44/5/5 41/1/1
f 19/230/63 20/228/61 41/1/1 45/4/4
f 18/231/64 19/230/63 45/4/4 47/10/10
f 17/248/65 18/231/64 47/10/10 49/247/12
f 16/232/66 17/202/65 49/12/12 51/14/14
f 15/233/67 16/232/66 51/14/14 53/16/16
f 14/234/68 15/233/67 53/16/16 55/18/18
f 13/235/69 14/234/68 55/18/18 57/20/20
f 12/236/70 13/235/69 57/20/20 59/22/22
f 11/237/71 12/236/70 59/22/22 61/24/24
f 10/238/72 11/237/71 61/24/24 63/26/26
f 9/239/73 10/238/72 63/26/26 65/28/28
f 8/240/74 9/239/73 65/28/28 67/30/30
f 7/241/75 8/240/74 67/30/30 69/32/32
f 6/242/76 7/241/75 69/32/32 71/34/34
f 5/243/77 6/242/76 71/34/34 73/36/36
f 4/244/78 5/243/77 73/36/36 75/38/38
f 3/245/79 4/244/78 75/38/38 77/40/40
f 2/246/80 3/245/79 77/40/40 79/7/7
f 1/229/62 2/246/80 79/7/7 44/5/5
s 2
f 82/225/81 81/205/82 83/83/83 84/84/84
f 85/224/85 82/225/81 84/84/84 86/86/86
f 87/223/87 85/224/85 86/86/86 88/88/88
f 89/222/89 87/223/87 88/88/88 90/90/90
f 91/221/91 89/222/89 90/90/90 92/92/92
f 93/220/93 91/221/91 92/92/92 94/94/94
f 95/219/95 93/220/93 94/94/94 96/96/96
f 97/218/97 95/219/95 96/96/96 98/98/98
f 99/217/99 97/218/97 98/98/98 100/100/100
f 101/216/101 99/217/99 100/100/100 102/102/102
f 103/215/103 101/216/101 102/102/102 104/104/104
f 105/214/105 103/215/103 104/104/104 106/106/106
f 107/213/107 105/214/105 106/106/106 108/108/108
f 109/212/109 107/213/107 108/108/108 110/110/110
f 111/211/111 109/212/109 110/110/110 112/112/112
f 113/209/113 111/211/111 112/112/112 114/114/114
f 115/207/115 113/208/113 114/210/114 116/116/116
f 117/206/117 115/207/115 116/116/116 118/118/118
f 119/204/119 117/206/117 118/118/118 120/120/120
f 81/205/82 119/204/119 120/120/120 83/83/83
s 3
f 121/121/121 122/122/122 124/123/123 123/124/124
f 122/122/122 121/121/121 159/125/125 160/126/126
f 123/124/124 124/123/123 126/127/127 125/128/128
f 125/128/128 126/127/127 128/129/129 127/130/130
f 127/130/130 128/129/129 130/131/131 129/132/132
f 129/132/132 130/131/131 132/133/133 131/134/134
f 131/134/134 132/133/133 134/135/135 133/136/136
f 133/136/136 134/135/135 136/137/137 135/138/138
f 135/138/138 136/137/137 138/139/139 137/140/140
f 137/140/140 138/139/139 140/141/141 139/142/142
f 139/142/142 140/141/141 142/143/143 141/144/144
f 141/144/144 142/143/143 144/145/145 143/146/146
f 143/146/146 144/145/145 146/147/147 145/148/148
f 145/148/148 146/147/147 148/149/149 147/150/150
f 147/150/150 148/149/149 150/151/151 149/152/152
f 149/152/152 150/151/151 152/153/153 151/154/154
f 151/154/154 152/153/153 154/155/155 153/201/156
f 153/156/156 154/250/155 156/157/157 155/158/158
f 155/158/158 156/157/157 158/159/159 157/160/160
f 157/160/160 158/159/159 160/126/126 159/125/125
f 2/80/161 1/62/162 121/121/121 123/124/124
f 3/79/163 2/80/161 123/124/124 125/128/128
f 4/78/164 3/79/163 125/128/128 127/130/130
f 5/77/165 4/78/164 127/130/130 129/132/132
f 6/76/166 5/77/165 129/132/132 131/134/134
f 7/75/167 6/76/166 131/134/134 133/136/136
f 8/74/168 7/75/167 133/136/136 135/138/138
f 9/73/169 8/74/168 135/138/138 137/140/140
f 10/72/170 9/73/169 137/140/140 139/142/142
f 11/71/171 10/72/170 139/142/142 141/144/144
f 12/70/172 11/71/171 141/144/144 143/146/146
f 13/69/173 12/70/172 143/146/146 145/148/148
f 14/68/174 13/69/173 145/148/148 147/150/150
f 15/67/175 14/68/174 147/150/150 149/152/152
f 16/66/176 15/67/175 149/152/152 151/154/154
f 17/65/177 16/66/176 151/154/154 153/201/156
f 18/64/178 17/203/177 153/156/156 155/158/158
f 19/63/179 18/64/178 155/158/158 157/160/160
f 20/61/180 19/63/179 157/160/160 159/125/125
f 1/62/162 20/61/180 159/125/125 121/121/121
f 124/123/123 122/122/122 81/82/181 82/81/182
f 126/127/127 124/123/123 82/81/182 85/85/183
f 128/129/129 126/127/127 85/85/183 87/87/184
f 130/131/131 128/129/129 87/87/184 89/89/185
f 132/133/133 130/131/131 89/89/185 91/91/186
f 134/135/135 132/133/133 91/91/186 93/93/187
f 136/137/137 134/135/135 93/93/187 95/95/188
f 138/139/139 136/137/137 95/95/188 97/97/189
f 140/141/141 138/139/139 97/97/189 99/99/190
f 142/143/143 140/141/141 99/99/190 101/101/191
f 144/145/145 142/143/143 101/101/191 103/103/192
f 146/147/147 144/145/145 103/103/192 105/105/193
f 148/149/149 146/147/147 105/105/193 107/107/194
f 150/151/151 148/149/149 107/107/194 109/109/195
f 152/153/153 150/151/151 109/109/195 111/111/196
f 154/155/155 152/153/153 111/111/196 113/249/197
f 156/157/157 154/250/155 113/113/197 115/115/198
f 158/159/159 156/157/157 115/115/198 117/117/199
f 160/126/126 158/159/159 117/117/199 119/119/200
f 122/122/122 160/126/126 119/119/200 81/82/181
s 4
f 161/161/201 162/296/202 173/163/203 174/273/204
f 162/162/205 161/271/201 164/165/206 163/297/207
f 163/166/208 164/272/206 175/167/209 176/294/210
f 165/169/211 166/288/212 169/171/213 170/292/214
f 166/170/212 165/295/215 168/173/216 167/289/217
f 167/174/217 168/298/218 172/175/219 171/285/220
f 170/172/221 169/283/213 171/176/220 172/293/222
f 174/164/204 173/291/223 176/168/224 175/274/209
f 162/162/205 163/297/207 168/173/216 165/295/215
s off
f 178/251/225 177/254/226 179/253/227 180/252/228
s 4
f 170/172/221 172/293/222 176/168/224 173/291/223
f 163/166/208 176/294/210 172/175/219 168/298/218
f 173/163/203 162/296/202 165/169/211 170/292/214
f 181/181/229 182/281/230 184/183/231 183/287/232
f 182/182/233 181/290/229 185/185/234 186/277/235
f 183/184/232 184/280/236 188/187/237 187/284/238
f 186/186/239 185/286/234 187/188/238 188/275/240
f 166/170/212 167/289/217 181/181/229 183/287/232
f 167/174/217 171/285/220 185/185/234 181/290/229
f 171/176/220 169/283/213 187/188/238 185/286/234
f 169/171/213 166/288/212 183/184/232 187/284/238
f 184/183/231 182/281/230 177/178/241 178/279/242
f 182/182/233 186/277/235 179/179/243 177/282/244
f 186/186/239 188/275/240 180/180/245 179/278/246
f 188/187/237 184/280/236 178/177/247 180/276/248
f 174/164/204 175/274/209 189/268/249 190/264/250
f 175/167/209 164/272/206 191/260/251 189/267/249
f 164/165/206 161/271/201 192/256/252 191/259/251
f 161/161/201 174/273/204 190/265/250 192/255/252
s 11
f 193/193/253 194/270/254 198/195/255 197/196/256
f 194/194/257 193/193/253 196/197/258 195/263/259
f 195/198/260 196/197/258 199/199/261 200/258/262
f 197/196/256 198/262/263 200/200/264 199/199/261
f 196/197/258 193/193/253 197/196/256 199/199/261
f 190/190/265 189/269/266 194/194/257 195/263/259
f 189/189/267 191/261/268 198/195/255 194/270/254
f 191/191/269 192/257/270 200/200/264 198/262/263
f 192/192/271 190/266/272 195/198/260 200/258/262
