# This file uses centimeters as units for non-parametric coordinates.

mtllib PowerLinesSystem.mtl
g default
v -0.000188 5.973897 -0.142644
v 0.036262 5.963185 -0.131998
v 0.036262 4.805564 -1.275190
v -0.000188 4.816069 -1.286031
v 0.051357 5.937329 -0.106309
v 0.051357 4.780180 -1.249031
v 0.036262 5.911483 -0.080619
v 0.036262 4.754802 -1.222865
v -0.000188 5.900762 -0.069989
v -0.000188 4.744287 -1.212041
v -0.036637 5.911473 -0.080632
v -0.036637 4.754803 -1.222866
v -0.051735 5.937329 -0.106304
v -0.051735 4.780178 -1.249024
v -0.036637 5.963192 -0.131997
v -0.036637 4.805556 -1.275186
v 0.036262 2.456722 -3.551852
v -0.000188 2.467683 -3.562232
v 0.051357 2.430243 -3.526801
v 0.036262 2.403775 -3.501749
v -0.000188 2.392804 -3.491369
v -0.036637 2.403772 -3.501748
v -0.051735 2.430243 -3.526798
v -0.036637 2.456720 -3.551854
v 0.036262 1.164647 -5.025707
v -0.000188 1.176405 -5.035178
v 0.051357 1.136264 -5.002844
v 0.036262 1.107878 -4.979979
v -0.000188 1.096119 -4.970508
v -0.036637 1.107878 -4.979978
v -0.051735 1.136264 -5.002844
v -0.036637 1.164647 -5.025707
v -0.015269 1.217501 -5.065618
v 0.086783 1.184060 -5.039777
v 0.082788 0.603910 -5.830457
v -0.019261 0.637660 -5.855886
v 0.138984 1.122260 -4.992020
v 0.134986 0.541363 -5.783693
v 0.110728 1.068304 -4.950328
v 0.106728 0.486667 -5.742992
v 0.018593 1.053811 -4.939130
v 0.014590 0.471865 -5.732205
v -0.083455 1.087252 -4.964969
v -0.087457 0.505615 -5.757635
v -0.135656 1.149056 -5.012729
v -0.139654 0.568161 -5.804400
v -0.107401 1.203009 -5.054418
v -0.111397 0.622858 -5.845098
v -0.000188 0.595255 -5.824434
v 0.036262 0.583189 -5.815376
v 0.036262 0.001729 -6.605044
v -0.000188 0.014105 -6.613693
v -0.036637 0.583189 -5.815376
v -0.036637 0.001729 -6.605045
v -0.051735 0.554059 -5.793505
v -0.051735 -0.028143 -6.584162
v -0.036637 0.524928 -5.771630
v -0.036637 -0.058020 -6.563282
v -0.000188 0.512865 -5.762571
v -0.000188 -0.070395 -6.554635
v 0.036262 0.524928 -5.771631
v 0.036262 -0.058020 -6.563281
v 0.051357 0.554059 -5.793504
v 0.051357 -0.028145 -6.584164
vt 0.218927 0.932044
vt 0.213773 0.931943
vt 0.217678 0.719378
vt 0.222826 0.719436
vt 0.208622 0.931841
vt 0.212529 0.719377
vt 0.203471 0.931738
vt 0.207381 0.719377
vt 0.198316 0.931640
vt 0.202230 0.719317
vt 0.239556 0.932434
vt 0.234399 0.932338
vt 0.238264 0.719978
vt 0.243415 0.720119
vt 0.229239 0.932241
vt 0.233118 0.719778
vt 0.224082 0.932143
vt 0.227973 0.719577
vt 0.226598 0.291979
vt 0.231760 0.292094
vt 0.221438 0.291845
vt 0.216279 0.291710
vt 0.211123 0.291593
vt 0.247222 0.292314
vt 0.252376 0.292402
vt 0.242070 0.292247
vt 0.236919 0.292180
vt 0.231544 0.035865
vt 0.236689 0.036114
vt 0.226406 0.035406
vt 0.221266 0.034947
vt 0.216113 0.034698
vt 0.252170 0.035550
vt 0.257329 0.035502
vt 0.247010 0.035807
vt 0.241845 0.036065
vt 0.672695 0.258637
vt 0.659199 0.258777
vt 0.660184 0.130474
vt 0.673666 0.130654
vt 0.647970 0.258062
vt 0.648969 0.131365
vt 0.639414 0.260139
vt 0.640298 0.129495
vt 0.627355 0.258923
vt 0.628191 0.130450
vt 0.613781 0.258816
vt 0.614598 0.130224
vt 0.602645 0.257673
vt 0.603421 0.130880
vt 0.594232 0.259609
vt 0.595171 0.128506
vt 0.684516 0.259381
vt 0.685473 0.129971
vt 0.670204 0.912905
vt 0.670192 0.918058
vt 0.542057 0.917359
vt 0.542136 0.912205
vt 0.670251 0.907752
vt 0.542116 0.907049
vt 0.670324 0.902603
vt 0.542028 0.901892
vt 0.670398 0.897450
vt 0.541939 0.896739
vt 0.670445 0.892293
vt 0.541919 0.891587
vt 0.670223 0.928367
vt 0.670213 0.933521
vt 0.541687 0.932815
vt 0.541764 0.927660
vt 0.670207 0.923213
vt 0.541911 0.922509
vt 0.669499 0.264710
vt 0.662006 0.265201
vt 0.662398 0.124189
vt 0.669910 0.124520
vt 0.654182 0.266910
vt 0.654519 0.122721
vt 0.648568 0.270032
vt 0.648771 0.119806
vt 0.629118 0.267155
vt 0.623428 0.264957
vt 0.624989 0.124373
vt 0.630745 0.122416
vt 0.615898 0.265145
vt 0.617485 0.123822
vt 0.608083 0.266481
vt 0.609764 0.122032
vt 0.602387 0.269341
vt 0.604284 0.118815
vt 0.675259 0.266617
vt 0.675660 0.122522
vn 0.382683 0.649171 -0.657367
vn 0.382683 0.649170 -0.657367
vn 0.382683 0.649171 -0.657367
vn 0.382683 0.649171 -0.657367
vn 0.705896 0.497732 -0.503958
vn 0.999997 0.001618 -0.001618
vn 1.000000 0.000458 -0.000458
vn 0.706624 0.494076 -0.506529
vn 0.999997 0.001618 -0.001618
vn 0.708315 -0.496037 0.502232
vn 0.707386 -0.493506 0.506021
vn 1.000000 0.000458 -0.000458
vn 0.708315 -0.496037 0.502232
vn 0.000000 -0.702683 0.711503
vn 0.000000 -0.698185 0.715918
vn 0.707386 -0.493506 0.506021
vn 0.000000 -0.702683 0.711503
vn -0.708315 -0.496037 0.502232
vn -0.707386 -0.493506 0.506021
vn 0.000000 -0.698185 0.715918
vn -0.708315 -0.496037 0.502232
vn -0.999997 0.001618 -0.001648
vn -1.000000 0.000458 -0.000458
vn -0.707386 -0.493506 0.506021
vn -0.999997 0.001618 -0.001648
vn -0.705896 0.497732 -0.503958
vn -0.706624 0.494076 -0.506529
vn -1.000000 0.000458 -0.000458
vn -0.705896 0.497732 -0.503958
vn 0.000000 0.702683 -0.711503
vn 0.000000 0.698169 -0.715933
vn -0.706624 0.494076 -0.506529
vn 0.000000 0.698169 -0.715933
vn 0.706624 0.494076 -0.506529
vn 0.712230 0.503652 -0.488940
vn 0.000000 0.717468 -0.696592
vn 0.706624 0.494076 -0.506529
vn 1.000000 0.000458 -0.000458
vn 0.999949 -0.007233 0.007050
vn 0.712230 0.503652 -0.488940
vn 1.000000 0.000458 -0.000458
vn 0.707386 -0.493506 0.506021
vn 0.701971 -0.511058 0.496040
vn 0.999949 -0.007233 0.007050
vn 0.707386 -0.493506 0.506021
vn 0.000000 -0.698185 0.715918
vn 0.000000 -0.717529 0.696529
vn 0.701971 -0.511058 0.496040
vn 0.000000 -0.698185 0.715918
vn -0.707386 -0.493506 0.506021
vn -0.701971 -0.511058 0.496040
vn 0.000000 -0.717529 0.696529
vn -0.707386 -0.493506 0.506021
vn -1.000000 0.000458 -0.000458
vn -0.999949 -0.007233 0.007050
vn -0.701971 -0.511058 0.496040
vn -1.000000 0.000458 -0.000458
vn -0.706624 0.494076 -0.506529
vn -0.712230 0.503652 -0.488940
vn -0.999949 -0.007233 0.007050
vn -0.706624 0.494076 -0.506529
vn 0.000000 0.698169 -0.715933
vn 0.000000 0.717468 -0.696592
vn -0.712230 0.503652 -0.488940
vn 0.000000 0.717468 -0.696592
vn 0.712230 0.503652 -0.488940
vn 0.712035 0.527960 -0.462888
vn 0.000000 0.751990 -0.659174
vn 0.712230 0.503652 -0.488940
vn 0.999949 -0.007233 0.007050
vn 0.999946 -0.007782 0.006836
vn 0.712035 0.527960 -0.462888
vn 0.999949 -0.007233 0.007050
vn 0.701971 -0.511058 0.496040
vn 0.701541 -0.535861 0.469780
vn 0.999946 -0.007782 0.006836
vn 0.701971 -0.511058 0.496040
vn 0.000000 -0.717529 0.696529
vn 0.000000 -0.751990 0.659174
vn 0.701541 -0.535861 0.469780
vn 0.000000 -0.717529 0.696529
vn -0.701971 -0.511058 0.496040
vn -0.701541 -0.535861 0.469780
vn 0.000000 -0.751990 0.659174
vn -0.701971 -0.511058 0.496040
vn -0.999949 -0.007233 0.007050
vn -0.999946 -0.007782 0.006836
vn -0.701541 -0.535861 0.469780
vn -0.999949 -0.007233 0.007050
vn -0.712230 0.503652 -0.488940
vn -0.712035 0.527960 -0.462888
vn -0.999946 -0.007782 0.006836
vn -0.712230 0.503652 -0.488940
vn 0.000000 0.717468 -0.696592
vn 0.000000 0.751990 -0.659174
vn -0.712035 0.527960 -0.462888
vn 0.123521 0.799757 -0.587479
vn 0.617957 0.632425 -0.467085
vn 0.613853 0.635006 -0.468990
vn 0.121075 0.800034 -0.587611
vn 0.617957 0.632425 -0.467085
vn 0.988102 0.121563 -0.094217
vn 0.986549 0.129385 -0.099900
vn 0.613853 0.635006 -0.468990
vn 0.988102 0.121563 -0.094217
vn 0.580161 -0.658113 0.479896
vn 0.583246 -0.656316 0.478616
vn 0.986549 0.129385 -0.099900
vn 0.580161 -0.658113 0.479896
vn -0.121076 -0.800009 0.587645
vn -0.123554 -0.799743 0.587491
vn 0.583246 -0.656316 0.478616
vn -0.121076 -0.800009 0.587645
vn -0.612230 -0.636006 0.469756
vn -0.616462 -0.633341 0.467818
vn -0.123554 -0.799743 0.587491
vn -0.612230 -0.636006 0.469756
vn -0.985602 -0.133894 0.103251
vn -0.987205 -0.126117 0.097579
vn -0.616462 -0.633341 0.467818
vn -0.985602 -0.133894 0.103251
vn -0.586576 0.654366 -0.477215
vn -0.583600 0.656115 -0.478459
vn -0.987205 -0.126117 0.097579
vn -0.586576 0.654366 -0.477215
vn 0.123521 0.799757 -0.587479
vn 0.121075 0.800034 -0.587611
vn -0.583600 0.656115 -0.478459
vn 0.000000 0.805236 -0.592954
vn 0.708243 0.568456 -0.418628
vn 0.710081 0.566966 -0.417533
vn 0.000000 0.805236 -0.592954
vn -0.708243 0.568456 -0.418628
vn 0.000000 0.805236 -0.592954
vn 0.000000 0.805236 -0.592954
vn -0.710081 0.566966 -0.417533
vn -0.999997 -0.001953 0.001434
vn -0.708243 0.568456 -0.418628
vn -0.710081 0.566966 -0.417533
vn -0.999981 -0.004975 0.003662
vn -0.705697 -0.570540 0.420091
vn -0.999997 -0.001953 0.001434
vn -0.999981 -0.004975 0.003662
vn -0.703782 -0.572079 0.421207
vn 0.000000 -0.805221 0.592974
vn -0.705697 -0.570540 0.420091
vn -0.703782 -0.572079 0.421207
vn 0.000000 -0.805221 0.592974
vn 0.705697 -0.570540 0.420091
vn 0.000000 -0.805221 0.592974
vn 0.000000 -0.805221 0.592974
vn 0.703782 -0.572079 0.421207
vn 0.999997 -0.001953 0.001434
vn 0.705697 -0.570540 0.420091
vn 0.703782 -0.572079 0.421207
vn 0.999981 -0.004975 0.003662
vn 0.708243 0.568456 -0.418628
vn 0.999997 -0.001953 0.001434
vn 0.999981 -0.004975 0.003662
vn 0.710081 0.566966 -0.417533
vn -0.002350 0.598703 0.800968
vn -0.007782 0.604815 0.796328
vn -0.006623 0.609215 0.792977
vn 0.000946 0.599682 0.800238
vn 0.003906 -0.595773 -0.803144
vn 0.002258 -0.595658 -0.803235
vn 0.001556 -0.596237 -0.802807
vn 0.004059 -0.596356 -0.802710
vn -0.007782 0.604815 0.796328
vn 0.000366 0.614462 0.788946
vn 0.002533 0.614615 0.788823
vn -0.006623 0.609215 0.792977
vn 0.003021 -0.597998 -0.801492
vn 0.003906 -0.595773 -0.803144
vn 0.004059 -0.596356 -0.802710
vn 0.002564 -0.598278 -0.801284
vn 0.000366 0.614462 0.788946
vn 0.005891 0.608294 0.793690
vn 0.006043 0.610766 0.791788
vn 0.002533 0.614615 0.788823
vn 0.001221 -0.597707 -0.801714
vn 0.003021 -0.597998 -0.801492
vn 0.002564 -0.598278 -0.801284
vn 0.001404 -0.598054 -0.801454
vn 0.005891 0.608294 0.793690
vn -0.002533 0.598859 0.800850
vn 0.001251 0.600136 0.799897
vn 0.006043 0.610766 0.791788
vn 0.002289 -0.595290 -0.803508
vn 0.001221 -0.597707 -0.801714
vn 0.001404 -0.598054 -0.801454
vn 0.001618 -0.595796 -0.803134
vn -0.002533 0.598859 0.800850
vn -0.007966 0.604746 0.796378
vn -0.007051 0.608604 0.793443
vn 0.001251 0.600136 0.799897
vn 0.004090 -0.595546 -0.803311
vn 0.002289 -0.595290 -0.803508
vn 0.001618 -0.595796 -0.803134
vn 0.004273 -0.596286 -0.802760
vn -0.007966 0.604746 0.796378
vn 0.000275 0.614342 0.789040
vn 0.002472 0.614528 0.788891
vn -0.007051 0.608604 0.793443
vn 0.003205 -0.597998 -0.801491
vn 0.004090 -0.595546 -0.803311
vn 0.004273 -0.596286 -0.802760
vn 0.002747 -0.598311 -0.801259
vn 0.000275 0.614342 0.789040
vn 0.006074 0.608002 0.793912
vn 0.006196 0.610470 0.792015
vn 0.002472 0.614528 0.788891
vn 0.001373 -0.597878 -0.801586
vn 0.003205 -0.597998 -0.801491
vn 0.002747 -0.598311 -0.801259
vn 0.001587 -0.598245 -0.801312
vn 0.006074 0.608002 0.793912
vn -0.002350 0.598703 0.800968
vn 0.000946 0.599682 0.800238
vn 0.006196 0.610470 0.792015
vn 0.002258 -0.595658 -0.803235
vn 0.001373 -0.597878 -0.801586
vn 0.001587 -0.598245 -0.801312
vn 0.001556 -0.596237 -0.802807
s off
g PowerSystem:Ground_connectionPowerlines PowerLinesFixedPivot
usemtl PowerSystem:initialShadingGroup
f 1/1/1 2/2/2 3/3/3 4/4/4
f 2/2/5 5/5/6 6/6/7 3/3/8
f 5/5/9 7/7/10 8/8/11 6/6/12
f 7/7/13 9/9/14 10/10/15 8/8/16
f 9/11/17 11/12/18 12/13/19 10/14/20
f 11/12/21 13/15/22 14/16/23 12/13/24
f 13/15/25 15/17/26 16/18/27 14/16/28
f 15/17/29 1/1/30 4/4/31 16/18/32
f 4/4/33 3/3/34 17/19/35 18/20/36
f 3/3/37 6/6/38 19/21/39 17/19/40
f 6/6/41 8/8/42 20/22/43 19/21/44
f 8/8/45 10/10/46 21/23/47 20/22/48
f 10/14/49 12/13/50 22/24/51 21/25/52
f 12/13/53 14/16/54 23/26/55 22/24/56
f 14/16/57 16/18/58 24/27/59 23/26/60
f 16/18/61 4/4/62 18/20/63 24/27/64
f 18/20/65 17/19/66 25/28/67 26/29/68
f 17/19/69 19/21/70 27/30/71 25/28/72
f 19/21/73 20/22/74 28/31/75 27/30/76
f 20/22/77 21/23/78 29/32/79 28/31/80
f 21/25/81 22/24/82 30/33/83 29/34/84
f 22/24/85 23/26/86 31/35/87 30/33/88
f 23/26/89 24/27/90 32/36/91 31/35/92
f 24/27/93 18/20/94 26/29/95 32/36/96
f 33/37/97 34/38/98 35/39/99 36/40/100
f 34/38/101 37/41/102 38/42/103 35/39/104
f 37/41/105 39/43/106 40/44/107 38/42/108
f 39/43/109 41/45/110 42/46/111 40/44/112
f 41/45/113 43/47/114 44/48/115 42/46/116
f 43/47/117 45/49/118 46/50/119 44/48/120
f 45/49/121 47/51/122 48/52/123 46/50/124
f 47/53/125 33/37/126 36/40/127 48/54/128
f 49/55/129 50/56/130 51/57/131 52/58/132
f 53/59/133 49/55/134 52/58/135 54/60/136
f 55/61/137 53/59/138 54/60/139 56/62/140
f 57/63/141 55/61/142 56/62/143 58/64/144
f 59/65/145 57/63/146 58/64/147 60/66/148
f 61/67/149 59/68/150 60/69/151 62/70/152
f 63/71/153 61/67/154 62/70/155 64/72/156
f 50/56/157 63/71/158 64/72/159 51/57/160
f 26/73/161 25/74/162 34/38/163 33/37/164
f 50/75/165 49/76/166 36/40/167 35/39/168
f 25/74/169 27/77/170 37/41/171 34/38/172
f 63/78/173 50/75/174 35/39/175 38/42/176
f 27/77/177 28/79/178 39/43/179 37/41/180
f 61/80/181 63/78/182 38/42/183 40/44/184
f 28/81/185 29/82/186 41/45/187 39/43/188
f 59/83/189 61/84/190 40/44/191 42/46/192
f 29/82/193 30/85/194 43/47/195 41/45/196
f 57/86/197 59/83/198 42/46/199 44/48/200
f 30/85/201 31/87/202 45/49/203 43/47/204
f 55/88/205 57/86/206 44/48/207 46/50/208
f 31/87/209 32/89/210 47/51/211 45/49/212
f 53/90/213 55/88/214 46/50/215 48/52/216
f 32/91/217 26/73/218 33/37/219 47/53/220
f 49/76/221 53/92/222 48/54/223 36/40/224
g default
v -0.000188 3.619691 -0.134764
v 0.018034 3.614333 -0.129444
v 0.018034 2.877293 -0.857292
v -0.000188 2.882547 -0.862709
v 0.025585 3.601405 -0.116598
v 0.025585 2.864600 -0.844212
v 0.018034 3.588477 -0.103754
v 0.018034 2.851911 -0.831131
v -0.000188 3.583123 -0.098432
v -0.000188 2.846653 -0.825714
v -0.018414 3.588477 -0.103754
v -0.018414 2.851911 -0.831131
v -0.025962 3.601405 -0.116598
v -0.025962 2.864600 -0.844212
v -0.018414 3.614333 -0.129444
v -0.018414 2.877293 -0.857292
v 0.018034 -0.182110 -4.251739
v -0.000188 -0.175922 -4.256064
v 0.025585 -0.197047 -4.241299
v 0.018034 -0.211985 -4.230858
v -0.000188 -0.218172 -4.226533
v -0.018414 -0.211985 -4.230858
v -0.025962 -0.197047 -4.241299
v -0.018414 -0.182110 -4.251739
vt 0.127920 0.884141
vt 0.125354 0.884159
vt 0.124542 0.748798
vt 0.127112 0.748754
vt 0.122787 0.884195
vt 0.121975 0.748895
vt 0.120222 0.884231
vt 0.119407 0.748991
vt 0.117655 0.884254
vt 0.116842 0.749035
vt 0.115080 0.884279
vt 0.114275 0.749004
vt 0.135626 0.884157
vt 0.133054 0.884164
vt 0.132255 0.748870
vt 0.134836 0.748955
vt 0.130486 0.884146
vt 0.129680 0.748786
vt 0.125273 0.151683
vt 0.127868 0.151820
vt 0.122693 0.151344
vt 0.120111 0.151005
vt 0.117507 0.150863
vt 0.114912 0.150982
vt 0.133035 0.151326
vt 0.135591 0.151006
vt 0.130467 0.151672
vn 0.382696 0.649165 -0.657365
vn 0.382696 0.649165 -0.657365
vn 0.382696 0.649165 -0.657365
vn 0.382696 0.649165 -0.657365
vn 0.705896 0.497732 -0.503958
vn 0.999997 0.001587 -0.001618
vn 0.999916 -0.009644 0.008668
vn 0.712216 0.516330 -0.475553
vn 0.999997 0.001587 -0.001618
vn 0.708304 -0.496029 0.502256
vn 0.699172 -0.525905 0.484336
vn 0.999916 -0.009644 0.008668
vn 0.708304 -0.496029 0.502256
vn 0.000000 -0.702683 0.711503
vn 0.000000 -0.735506 0.677518
vn 0.699172 -0.525905 0.484336
vn 0.000000 -0.702683 0.711503
vn -0.708304 -0.496029 0.502256
vn -0.699172 -0.525905 0.484336
vn 0.000000 -0.735506 0.677518
vn -0.708304 -0.496029 0.502256
vn -0.999997 0.001587 -0.001618
vn -0.999916 -0.009644 0.008668
vn -0.699172 -0.525905 0.484336
vn -0.999997 0.001587 -0.001618
vn -0.705896 0.497732 -0.503958
vn -0.712216 0.516330 -0.475553
vn -0.999916 -0.009644 0.008668
vn -0.705896 0.497732 -0.503958
vn 0.000000 0.702683 -0.711503
vn 0.000000 0.735682 -0.677328
vn -0.712216 0.516330 -0.475553
vn 0.000000 0.735682 -0.677328
vn 0.712216 0.516330 -0.475553
vn 0.720042 0.515462 -0.464584
vn 0.000000 0.742798 -0.669516
vn 0.712216 0.516330 -0.475553
vn 0.999916 -0.009644 0.008668
vn 0.999540 -0.022555 0.020296
vn 0.720042 0.515462 -0.464584
vn 0.999916 -0.009644 0.008668
vn 0.699172 -0.525905 0.484336
vn 0.689738 -0.537853 0.484742
vn 0.999540 -0.022555 0.020296
vn 0.699172 -0.525905 0.484336
vn 0.000000 -0.735506 0.677518
vn 0.000000 -0.742826 0.669484
vn 0.689738 -0.537853 0.484742
vn 0.000000 -0.735506 0.677518
vn -0.699172 -0.525905 0.484336
vn -0.689738 -0.537853 0.484742
vn 0.000000 -0.742826 0.669484
vn -0.699172 -0.525905 0.484336
vn -0.999916 -0.009644 0.008668
vn -0.999540 -0.022555 0.020296
vn -0.689738 -0.537853 0.484742
vn -0.999916 -0.009644 0.008668
vn -0.712216 0.516330 -0.475553
vn -0.720042 0.515462 -0.464584
vn -0.999540 -0.022555 0.020296
vn -0.712216 0.516330 -0.475553
vn 0.000000 0.735682 -0.677328
vn 0.000000 0.742798 -0.669516
vn -0.720042 0.515462 -0.464584
s off
g PowerLinesFixedPivot PowerSystem:PowerlinesSupport
usemtl PowerSystem:initialShadingGroup
f 65/93/225 66/94/226 67/95/227 68/96/228
f 66/94/229 69/97/230 70/98/231 67/95/232
f 69/97/233 71/99/234 72/100/235 70/98/236
f 71/99/237 73/101/238 74/102/239 72/100/240
f 73/101/241 75/103/242 76/104/243 74/102/244
f 75/105/245 77/106/246 78/107/247 76/108/248
f 77/106/249 79/109/250 80/110/251 78/107/252
f 79/109/253 65/93/254 68/96/255 80/110/256
f 68/96/257 67/95/258 81/111/259 82/112/260
f 67/95/261 70/98/262 83/113/263 81/111/264
f 70/98/265 72/100/266 84/114/267 83/113/268
f 72/100/269 74/102/270 85/115/271 84/114/272
f 74/102/273 76/104/274 86/116/275 85/115/276
f 76/108/277 78/107/278 87/117/279 86/118/280
f 78/107/281 80/110/282 88/119/283 87/117/284
f 80/110/285 68/96/286 82/112/287 88/119/288
g default
v -0.073000 5.304000 0.026000
v -0.054452 5.285452 0.036864
v -0.035902 5.266904 0.026000
v -0.028219 5.259220 -0.000230
v -0.035902 5.266904 -0.026462
v -0.054452 5.285452 -0.037330
v -0.073000 5.304000 -0.026462
v -0.080683 5.311683 -0.000230
v 0.673527 6.050529 0.026000
v 0.692076 6.031979 0.036864
v 0.710625 6.013430 0.026000
v 0.718309 6.005746 -0.000230
v 0.710625 6.013430 -0.026462
v 0.692076 6.031979 -0.037330
v 0.673527 6.050529 -0.026462
v 0.665845 6.058211 -0.000230
v 1.332143 6.121646 -0.046844
v 1.378757 6.121646 -0.066153
v 1.425370 6.121646 -0.046844
v 1.444677 6.121646 -0.000230
v 1.425370 6.121646 0.046380
v 1.378757 6.121646 0.065689
v 1.332143 6.121646 0.046380
v 1.312836 6.121646 -0.000230
v 1.332143 5.928670 -0.046844
v 1.378757 5.928670 -0.066153
v 1.425370 5.928670 -0.046844
v 1.444677 5.928670 -0.000230
v 1.425370 5.928670 0.046380
v 1.378757 5.928670 0.065689
v 1.332143 5.928670 0.046380
v 1.312836 5.928670 -0.000230
v 1.378757 5.928670 -0.000230
v 1.378757 6.121646 -0.000230
v -1.425743 6.121646 -0.046844
v -1.379131 6.121646 -0.066153
v -1.332517 6.121646 -0.046844
v -1.313210 6.121646 -0.000230
v -1.332517 6.121646 0.046380
v -1.379131 6.121646 0.065689
v -1.425743 6.121646 0.046380
v -1.445049 6.121646 -0.000230
v -1.425743 5.928670 -0.046844
v -1.379131 5.928670 -0.066153
v -1.332517 5.928670 -0.046844
v -1.313210 5.928670 -0.000230
v -1.332517 5.928670 0.046380
v -1.379131 5.928670 0.065689
v -1.425743 5.928670 0.046380
v -1.445049 5.928670 -0.000230
v -1.379131 5.928670 -0.000230
v -1.379131 6.121646 -0.000230
v 0.073106 5.304000 -0.026462
v 0.054557 5.285452 -0.037330
v 0.036007 5.266904 -0.026462
v 0.028325 5.259220 -0.000230
v 0.036007 5.266904 0.026000
v 0.054557 5.285452 0.036864
v 0.073106 5.304000 0.026000
v 0.080790 5.311683 -0.000230
v -0.673420 6.050529 -0.026462
v -0.691970 6.031979 -0.037330
v -0.710519 6.013430 -0.026462
v -0.718203 6.005746 -0.000230
v -0.710519 6.013430 0.026000
v -0.691970 6.031979 0.036864
v -0.673420 6.050529 0.026000
v -0.665738 6.058211 -0.000230
v 0.128969 -0.326157 -0.129389
v -0.000188 -0.326157 -0.182887
v -0.129343 -0.326157 -0.129389
v -0.182840 -0.326157 -0.000230
v -0.129343 -0.326157 0.128923
v -0.000188 -0.326157 0.182422
v 0.128969 -0.326157 0.128923
v 0.182467 -0.326157 -0.000230
v 0.128969 6.399203 -0.129389
v -0.000188 6.399203 -0.182887
v -0.129343 6.399203 -0.129389
v -0.182840 6.399203 -0.000230
v -0.129343 6.399203 0.128923
v -0.000188 6.399203 0.182422
v 0.128969 6.399203 0.128923
v 0.182467 6.399203 -0.000230
v -0.000188 6.399203 -0.000230
v 1.378757 6.053839 -0.028913
v 1.378757 6.025158 -0.040793
v 1.378757 5.996477 -0.028913
v 1.378757 5.984597 -0.000230
v 1.378757 5.996477 0.028449
v 1.378757 6.025158 0.040329
v 1.378757 6.053839 0.028449
v 1.378757 6.065717 -0.000230
v -1.379131 6.053839 -0.028913
v -1.379131 6.025158 -0.040793
v -1.379131 5.996477 -0.028913
v -1.379131 5.984597 -0.000230
v -1.379131 5.996477 0.028449
v -1.379131 6.025158 0.040329
v -1.379131 6.053839 0.028449
v -1.379131 6.065717 -0.000230
v -1.379131 6.025158 -0.000230
v 1.378757 6.025158 -0.000230
v -0.000188 6.076386 14.052718
v 0.036262 6.062458 14.058539
v 0.051357 6.028827 14.072592
v 0.036262 5.995196 14.086646
v -0.000188 5.981266 14.092467
v -0.036637 5.995196 14.086646
v -0.051735 6.028827 14.072592
v -0.036637 6.062458 14.058539
v -0.000188 5.918263 13.699172
v 0.036262 5.904598 13.705592
v 0.051357 5.871607 13.721090
v 0.036262 5.838617 13.736586
v -0.000188 5.824953 13.743006
v -0.036637 5.838617 13.736586
v -0.051735 5.871607 13.721090
v -0.036637 5.904598 13.705592
v -0.000188 5.375700 12.377611
v 0.036262 5.361288 12.382116
v 0.051357 5.326499 12.392989
v 0.036262 5.291715 12.403864
v -0.000188 5.277304 12.408368
v -0.036637 5.291715 12.403864
v -0.051735 5.326499 12.392989
v -0.036637 5.361288 12.382116
v -0.000188 5.183878 11.688766
v 0.036262 5.169237 11.692453
v 0.051357 5.133893 11.701357
v 0.036262 5.098548 11.710264
v -0.000188 5.083910 11.713953
v -0.036637 5.098548 11.710264
v -0.051735 5.133893 11.701357
v -0.036637 5.169237 11.692453
v -0.000188 4.912112 10.285132
v 0.036262 4.897140 10.287084
v 0.051357 4.861000 10.291798
v 0.036262 4.824854 10.296511
v -0.000188 4.809884 10.298464
v -0.036637 4.824854 10.296511
v -0.051735 4.861000 10.291798
v -0.036637 4.897142 10.287084
v -0.000188 4.786944 8.875563
v 0.036262 4.771866 8.876402
v 0.051357 4.735476 8.878425
v 0.036262 4.699082 8.880450
v -0.000188 4.684010 8.881288
v -0.036637 4.699082 8.880450
v -0.051735 4.735476 8.878425
v -0.036637 4.771866 8.876402
v -0.000188 4.734674 6.750874
v 0.036262 4.719575 6.750807
v 0.051357 4.683126 6.750644
v 0.036262 4.646678 6.750482
v -0.000188 4.631580 6.750415
v -0.036637 4.646678 6.750482
v -0.051735 4.683126 6.750644
v -0.036637 4.719575 6.750807
v -0.000188 4.814665 4.627160
v 0.036262 4.799605 4.626052
v 0.051357 4.763257 4.623372
v 0.036262 4.726905 4.620693
v -0.000188 4.711848 4.619583
v -0.036637 4.726905 4.620693
v -0.051735 4.763257 4.623372
v -0.036637 4.799606 4.626052
v -0.000188 4.959957 3.218233
v 0.036262 4.945000 3.216179
v 0.051357 4.908888 3.211219
v 0.036262 4.872780 3.206258
v -0.000188 4.857823 3.204203
v -0.036637 4.872780 3.206258
v -0.051735 4.908888 3.211219
v -0.036637 4.945000 3.216179
v -0.000188 5.071920 2.520693
v 0.036262 5.057082 2.517914
v 0.051357 5.021255 2.511204
v 0.036262 4.985428 2.504495
v -0.000188 4.970590 2.501718
v -0.036637 4.985428 2.504495
v -0.051735 5.021255 2.511204
v -0.036637 5.057082 2.517914
v -0.000188 5.271524 1.650018
v 0.036262 5.256968 1.646018
v 0.051357 5.221820 1.636362
v 0.036262 5.186674 1.626705
v -0.000188 5.172114 1.622705
v -0.036637 5.186674 1.626705
v -0.051735 5.221820 1.636362
v -0.036637 5.256968 1.646018
v -0.000188 5.550354 0.803024
v 0.036262 5.536297 0.797514
v 0.051357 5.502361 0.784214
v 0.036262 5.468428 0.770913
v -0.000188 5.454370 0.765402
v -0.036637 5.468428 0.770913
v -0.051735 5.502361 0.784214
v -0.036637 5.536297 0.797514
v -0.000188 5.944499 0.009589
v 0.036262 5.931681 0.001613
v 0.051357 5.900734 -0.017645
v 0.036262 5.869787 -0.036899
v -0.000188 5.856968 -0.044876
v -0.036637 5.869787 -0.036899
v -0.051735 5.900734 -0.017645
v -0.036637 5.931681 0.001613
v -0.000188 5.973898 -0.142645
v 0.036262 5.963188 -0.132004
v 0.051357 5.937332 -0.106314
v 0.036262 5.911476 -0.080624
v -0.000188 5.900766 -0.069983
v -0.036637 5.911476 -0.080624
v -0.051735 5.937332 -0.106314
v -0.036637 5.963188 -0.132004
v -0.000188 4.816073 -1.286025
v 0.036262 4.805560 -1.275190
v 0.051357 4.780180 -1.249031
v 0.036262 4.754799 -1.222869
v -0.000188 4.744286 -1.212036
v -0.036637 4.754799 -1.222869
v -0.051735 4.780180 -1.249031
v -0.036637 4.805560 -1.275190
v -0.000188 2.467685 -3.562230
v 0.036262 2.456721 -3.551851
v 0.051357 2.430245 -3.526798
v 0.036262 2.403773 -3.501748
v -0.000188 2.392806 -3.491369
v -0.036637 2.403773 -3.501748
v -0.051735 2.430245 -3.526798
v -0.036637 2.456721 -3.551852
v -0.000188 1.176405 -5.035178
v 0.036262 1.164647 -5.025707
v 0.051357 1.136264 -5.002844
v 0.036262 1.107878 -4.979978
v -0.000188 1.096119 -4.970508
v -0.036637 1.107878 -4.979978
v -0.051735 1.136264 -5.002844
v -0.036637 1.164647 -5.025707
v -0.000188 0.014105 -6.613692
v 0.036262 0.001730 -6.605044
v 0.051357 -0.028144 -6.584163
v 0.036262 -0.058020 -6.563281
v -0.000188 -0.070394 -6.554633
v -0.036637 -0.058020 -6.563281
v -0.051735 -0.028144 -6.584163
v -0.036637 0.001730 -6.605044
v 0.036262 0.583189 -5.815376
v -0.000188 0.595255 -5.824434
v -0.036637 0.583189 -5.815376
v -0.051735 0.554059 -5.793504
v -0.036637 0.524928 -5.771631
v -0.000188 0.512865 -5.762571
v 0.036262 0.524928 -5.771631
v 0.051357 0.554059 -5.793504
v 0.086783 1.184060 -5.039777
v -0.015269 1.217501 -5.065618
v 0.082788 0.603910 -5.830456
v -0.019261 0.637660 -5.855887
v 0.138984 1.122260 -4.992020
v 0.134986 0.541363 -5.783694
v 0.110728 1.068304 -4.950329
v 0.106728 0.486667 -5.742993
v 0.018593 1.053811 -4.939130
v 0.014590 0.471865 -5.732206
v -0.083455 1.087252 -4.964969
v -0.087457 0.505615 -5.757635
v -0.135656 1.149056 -5.012728
v -0.139654 0.568161 -5.804400
v -0.107401 1.203009 -5.054418
v -0.111397 0.622858 -5.845099
v -0.000188 3.619691 -0.134764
v 0.018034 3.614333 -0.129444
v 0.025585 3.601405 -0.116598
v 0.018034 3.588477 -0.103754
v -0.000188 3.583123 -0.098432
v -0.018414 3.588477 -0.103754
v -0.025962 3.601405 -0.116598
v -0.018414 3.614333 -0.129444
v -0.000188 2.882547 -0.862709
v 0.018034 2.877293 -0.857292
v 0.025585 2.864600 -0.844212
v 0.018034 2.851911 -0.831131
v -0.000188 2.846653 -0.825714
v -0.018414 2.851911 -0.831131
v -0.025962 2.864600 -0.844212
v -0.018414 2.877293 -0.857292
v -0.000188 -0.175922 -4.256064
v 0.018034 -0.182110 -4.251739
v 0.025585 -0.197047 -4.241299
v 0.018034 -0.211985 -4.230858
v -0.000188 -0.218172 -4.226533
v -0.018414 -0.211985 -4.230858
v -0.025962 -0.197047 -4.241299
v -0.018414 -0.182110 -4.251739
vt 0.666583 0.959574
vt 0.666583 0.963283
vt 0.528633 0.963280
vt 0.528633 0.959571
vt 0.666583 0.966992
vt 0.528633 0.966990
vt 0.666583 0.970701
vt 0.528633 0.970699
vt 0.666583 0.974411
vt 0.528633 0.974410
vt 0.666583 0.978121
vt 0.528633 0.978120
vt 0.666583 0.948446
vt 0.666583 0.952155
vt 0.528633 0.952153
vt 0.528633 0.948442
vt 0.666583 0.955865
vt 0.528633 0.955862
vt 0.444492 0.222906
vt 0.444492 0.229498
vt 0.419276 0.229498
vt 0.419276 0.222906
vt 0.444492 0.236090
vt 0.419276 0.236091
vt 0.444492 0.242681
vt 0.419276 0.242682
vt 0.444492 0.249272
vt 0.419276 0.249273
vt 0.444492 0.255864
vt 0.419277 0.255864
vt 0.444492 0.262457
vt 0.419276 0.262455
vt 0.444491 0.269048
vt 0.419276 0.269047
vt 0.444491 0.275641
vt 0.419276 0.275639
vt 0.458578 0.174805
vt 0.458579 0.183419
vt 0.449966 0.183419
vt 0.452488 0.177328
vt 0.464669 0.177327
vt 0.467193 0.183417
vt 0.464671 0.189508
vt 0.458581 0.192032
vt 0.452490 0.189510
vt 0.412710 0.175347
vt 0.418801 0.177870
vt 0.421324 0.183961
vt 0.412710 0.183961
vt 0.412710 0.192574
vt 0.418801 0.190051
vt 0.404097 0.183961
vt 0.406620 0.190051
vt 0.406620 0.177870
vt 0.376346 0.174807
vt 0.376346 0.181400
vt 0.351130 0.181398
vt 0.351131 0.174805
vt 0.376345 0.187991
vt 0.351130 0.187991
vt 0.376345 0.194584
vt 0.351129 0.194583
vt 0.376344 0.201175
vt 0.351129 0.201174
vt 0.376344 0.207765
vt 0.351129 0.207767
vt 0.376345 0.214356
vt 0.351129 0.214359
vt 0.376346 0.220947
vt 0.351130 0.220951
vt 0.376346 0.227540
vt 0.351131 0.227542
vt 0.124893 0.927325
vt 0.124893 0.935939
vt 0.116279 0.935939
vt 0.118802 0.929848
vt 0.130984 0.929848
vt 0.133507 0.935939
vt 0.130984 0.942029
vt 0.124893 0.944552
vt 0.118802 0.942029
vt 0.398820 0.260696
vt 0.404911 0.263219
vt 0.407434 0.269310
vt 0.398820 0.269310
vt 0.398820 0.277923
vt 0.404911 0.275400
vt 0.390206 0.269310
vt 0.392730 0.275401
vt 0.392730 0.263219
vt 0.534370 0.841074
vt 0.534370 0.837361
vt 0.672320 0.837358
vt 0.672320 0.841065
vt 0.534371 0.867032
vt 0.534372 0.863324
vt 0.672321 0.863321
vt 0.672321 0.867032
vt 0.534371 0.859617
vt 0.672321 0.859609
vt 0.534371 0.855907
vt 0.672321 0.855901
vt 0.534371 0.852193
vt 0.672321 0.852198
vt 0.534371 0.848484
vt 0.672321 0.848489
vt 0.534371 0.844783
vt 0.672321 0.844774
vt 0.883698 0.110495
vt 0.901965 0.110496
vt 0.901947 0.989267
vt 0.883680 0.989265
vt 0.755831 0.110465
vt 0.774098 0.110466
vt 0.774080 0.989237
vt 0.755814 0.989236
vt 0.792360 0.110470
vt 0.792351 0.989240
vt 0.810607 0.110475
vt 0.810637 0.989245
vt 0.828876 0.110480
vt 0.828902 0.989250
vt 0.847155 0.110486
vt 0.847157 0.989257
vt 0.865423 0.110491
vt 0.865421 0.989262
vt 0.834566 0.024070
vt 0.834566 0.047937
vt 0.810699 0.047938
vt 0.817690 0.031061
vt 0.851443 0.031062
vt 0.858432 0.047938
vt 0.851443 0.064813
vt 0.834566 0.071804
vt 0.817690 0.064814
vt 0.161425 0.392651
vt 0.165480 0.392758
vt 0.156048 0.752994
vt 0.151993 0.752888
vt 0.169535 0.392864
vt 0.160102 0.753100
vt 0.173589 0.392970
vt 0.164156 0.753206
vt 0.177643 0.393076
vt 0.168210 0.753313
vt 0.181697 0.393182
vt 0.172263 0.753419
vt 0.185752 0.393288
vt 0.176317 0.753525
vt 0.189806 0.393394
vt 0.180372 0.753631
vt 0.193862 0.393501
vt 0.184427 0.753737
vt 0.121579 0.904070
vt 0.121579 0.909370
vt 0.116279 0.909370
vt 0.117831 0.905622
vt 0.125327 0.905622
vt 0.126879 0.909370
vt 0.125327 0.913117
vt 0.121579 0.914669
vt 0.117831 0.913117
vt 0.461080 0.203875
vt 0.464827 0.205428
vt 0.466379 0.209175
vt 0.461079 0.209175
vt 0.461080 0.214475
vt 0.464827 0.212922
vt 0.455779 0.209175
vt 0.457332 0.212922
vt 0.457332 0.205427
vn -0.270541 0.270541 0.923913
vn -0.270541 0.270541 0.923913
vn -0.270541 0.270541 0.923913
vn -0.270541 0.270541 0.923913
vn 0.270541 -0.270541 0.923913
vn 0.270541 -0.270541 0.923913
vn 0.270541 -0.270541 0.923913
vn 0.270541 -0.270541 0.923913
vn 0.653278 -0.653278 0.382694
vn 0.653278 -0.653278 0.382694
vn 0.653278 -0.653278 0.382694
vn 0.653278 -0.653278 0.382694
vn 0.653278 -0.653278 -0.382694
vn 0.653278 -0.653278 -0.382694
vn 0.653278 -0.653278 -0.382694
vn 0.653278 -0.653278 -0.382694
vn 0.270541 -0.270541 -0.923913
vn 0.270541 -0.270541 -0.923913
vn 0.270541 -0.270541 -0.923913
vn 0.270541 -0.270541 -0.923913
vn -0.270541 0.270541 -0.923913
vn -0.270541 0.270541 -0.923913
vn -0.270541 0.270541 -0.923913
vn -0.270541 0.270541 -0.923913
vn -0.653278 0.653278 -0.382694
vn -0.653278 0.653278 -0.382694
vn -0.653278 0.653278 -0.382694
vn -0.653278 0.653278 -0.382694
vn -0.653278 0.653278 0.382694
vn -0.653278 0.653278 0.382694
vn -0.653278 0.653278 0.382694
vn -0.653278 0.653278 0.382694
vn -0.382692 0.000000 -0.923876
vn -0.382692 0.000000 -0.923876
vn -0.382692 0.000000 -0.923876
vn -0.382692 0.000000 -0.923876
vn 0.382692 0.000000 -0.923876
vn 0.382692 0.000000 -0.923876
vn 0.382692 0.000000 -0.923876
vn 0.382692 0.000000 -0.923876
vn 0.923887 0.000000 -0.382666
vn 0.923887 0.000000 -0.382666
vn 0.923887 0.000000 -0.382666
vn 0.923887 0.000000 -0.382666
vn 0.923887 0.000000 0.382666
vn 0.923887 0.000000 0.382666
vn 0.923887 0.000000 0.382666
vn 0.923887 0.000000 0.382666
vn 0.382692 0.000000 0.923876
vn 0.382692 0.000000 0.923876
vn 0.382692 0.000000 0.923876
vn 0.382692 0.000000 0.923876
vn -0.382666 0.000000 0.923887
vn -0.382666 0.000000 0.923887
vn -0.382666 0.000000 0.923887
vn -0.382666 0.000000 0.923887
vn -0.923887 0.000000 0.382666
vn -0.923887 0.000000 0.382666
vn -0.923887 0.000000 0.382666
vn -0.923887 0.000000 0.382666
vn -0.923887 0.000000 -0.382666
vn -0.923887 0.000000 -0.382666
vn -0.923887 0.000000 -0.382666
vn -0.923887 0.000000 -0.382666
vn 0.000000 -1.000000 0.000000
vn 0.000000 -1.000000 0.000000
vn 0.000000 -1.000000 0.000000
vn 0.000000 -1.000000 0.000000
vn 0.000000 -1.000000 0.000000
vn 0.000000 -1.000000 0.000000
vn 0.000000 -1.000000 0.000000
vn 0.000000 -1.000000 0.000000
vn 0.000000 -1.000000 0.000000
vn 0.000000 -1.000000 0.000000
vn 0.000000 -1.000000 0.000000
vn 0.000000 -1.000000 0.000000
vn 0.000000 -1.000000 0.000000
vn 0.000000 -1.000000 0.000000
vn 0.000000 -1.000000 0.000000
vn 0.000000 -1.000000 0.000000
vn 0.000000 1.000000 0.000000
vn 0.000000 1.000000 0.000000
vn 0.000000 1.000000 0.000000
vn 0.000000 1.000000 0.000000
vn 0.000000 1.000000 0.000000
vn 0.000000 1.000000 0.000000
vn 0.000000 1.000000 0.000000
vn 0.000000 1.000000 0.000000
vn 0.000000 1.000000 0.000000
vn 0.000000 1.000000 0.000000
vn 0.000000 1.000000 0.000000
vn 0.000000 1.000000 0.000000
vn 0.000000 1.000000 0.000000
vn 0.000000 1.000000 0.000000
vn 0.000000 1.000000 0.000000
vn 0.000000 1.000000 0.000000
vn -0.382692 0.000000 -0.923876
vn -0.382692 0.000000 -0.923876
vn -0.382692 0.000000 -0.923876
vn -0.382692 0.000000 -0.923876
vn 0.382692 0.000000 -0.923876
vn 0.382692 0.000000 -0.923876
vn 0.382692 0.000000 -0.923876
vn 0.382692 0.000000 -0.923876
vn 0.923887 0.000000 -0.382666
vn 0.923887 0.000000 -0.382666
vn 0.923887 0.000000 -0.382666
vn 0.923887 0.000000 -0.382666
vn 0.923887 0.000000 0.382666
vn 0.923887 0.000000 0.382666
vn 0.923887 0.000000 0.382666
vn 0.923887 0.000000 0.382666
vn 0.382692 0.000000 0.923876
vn 0.382692 0.000000 0.923876
vn 0.382692 0.000000 0.923876
vn 0.382692 0.000000 0.923876
vn -0.382666 0.000000 0.923887
vn -0.382666 0.000000 0.923887
vn -0.382666 0.000000 0.923887
vn -0.382666 0.000000 0.923887
vn -0.923887 0.000000 0.382666
vn -0.923887 0.000000 0.382666
vn -0.923887 0.000000 0.382666
vn -0.923887 0.000000 0.382666
vn -0.923887 0.000000 -0.382666
vn -0.923887 0.000000 -0.382666
vn -0.923887 0.000000 -0.382666
vn -0.923887 0.000000 -0.382666
vn 0.000000 -1.000000 0.000000
vn 0.000000 -1.000000 0.000000
vn 0.000000 -1.000000 0.000000
vn 0.000000 -1.000000 0.000000
vn 0.000000 -1.000000 0.000000
vn 0.000000 -1.000000 0.000000
vn 0.000000 -1.000000 0.000000
vn 0.000000 -1.000000 0.000000
vn 0.000000 -1.000000 0.000000
vn 0.000000 -1.000000 0.000000
vn 0.000000 -1.000000 0.000000
vn 0.000000 -1.000000 0.000000
vn 0.000000 -1.000000 0.000000
vn 0.000000 -1.000000 0.000000
vn 0.000000 -1.000000 0.000000
vn 0.000000 -1.000000 0.000000
vn 0.000000 1.000000 0.000000
vn 0.000000 1.000000 0.000000
vn 0.000000 1.000000 0.000000
vn 0.000000 1.000000 0.000000
vn 0.000000 1.000000 0.000000
vn 0.000000 1.000000 0.000000
vn 0.000000 1.000000 0.000000
vn 0.000000 1.000000 0.000000
vn 0.000000 1.000000 0.000000
vn 0.000000 1.000000 0.000000
vn 0.000000 1.000000 0.000000
vn 0.000000 1.000000 0.000000
vn 0.000000 1.000000 0.000000
vn 0.000000 1.000000 0.000000
vn 0.000000 1.000000 0.000000
vn 0.000000 1.000000 0.000000
vn 0.270541 0.270541 -0.923913
vn 0.270541 0.270541 -0.923913
vn 0.270541 0.270541 -0.923913
vn 0.270541 0.270541 -0.923913
vn -0.270541 -0.270541 -0.923913
vn -0.270541 -0.270541 -0.923913
vn -0.270541 -0.270541 -0.923913
vn -0.270541 -0.270541 -0.923913
vn -0.653278 -0.653278 -0.382694
vn -0.653278 -0.653278 -0.382694
vn -0.653278 -0.653278 -0.382694
vn -0.653278 -0.653278 -0.382694
vn -0.653278 -0.653278 0.382694
vn -0.653278 -0.653278 0.382694
vn -0.653278 -0.653278 0.382694
vn -0.653278 -0.653278 0.382694
vn -0.270541 -0.270541 0.923913
vn -0.270541 -0.270541 0.923913
vn -0.270541 -0.270541 0.923913
vn -0.270541 -0.270541 0.923913
vn 0.270541 0.270541 0.923913
vn 0.270541 0.270541 0.923913
vn 0.270541 0.270541 0.923913
vn 0.270541 0.270541 0.923913
vn 0.653278 0.653278 0.382694
vn 0.653278 0.653278 0.382694
vn 0.653278 0.653278 0.382694
vn 0.653278 0.653278 0.382694
vn 0.653278 0.653278 -0.382694
vn 0.653278 0.653278 -0.382694
vn 0.653278 0.653278 -0.382694
vn 0.653278 0.653278 -0.382694
vn 0.382666 0.000000 -0.923887
vn 0.382666 0.000000 -0.923887
vn 0.382666 0.000000 -0.923887
vn 0.382666 0.000000 -0.923887
vn -0.382666 0.000000 -0.923887
vn -0.382666 0.000000 -0.923887
vn -0.382666 0.000000 -0.923887
vn -0.382666 0.000000 -0.923887
vn -0.923887 0.000000 -0.382666
vn -0.923887 0.000000 -0.382666
vn -0.923887 0.000000 -0.382666
vn -0.923887 0.000000 -0.382666
vn -0.923887 0.000000 0.382666
vn -0.923887 0.000000 0.382666
vn -0.923887 0.000000 0.382666
vn -0.923887 0.000000 0.382666
vn -0.382666 0.000000 0.923887
vn -0.382666 0.000000 0.923887
vn -0.382666 0.000000 0.923887
vn -0.382666 0.000000 0.923887
vn 0.382666 0.000000 0.923887
vn 0.382666 0.000000 0.923887
vn 0.382666 0.000000 0.923887
vn 0.382666 0.000000 0.923887
vn 0.923887 0.000000 0.382666
vn 0.923887 0.000000 0.382666
vn 0.923887 0.000000 0.382666
vn 0.923887 0.000000 0.382666
vn 0.923876 0.000000 -0.382692
vn 0.923876 0.000000 -0.382692
vn 0.923876 0.000000 -0.382692
vn 0.923876 0.000000 -0.382692
vn 0.000000 1.000000 0.000000
vn 0.000000 1.000000 0.000000
vn 0.000000 1.000000 0.000000
vn 0.000000 1.000000 0.000000
vn 0.000000 1.000000 0.000000
vn 0.000000 1.000000 0.000000
vn 0.000000 1.000000 0.000000
vn 0.000000 1.000000 0.000000
vn 0.000000 1.000000 0.000000
vn 0.000000 1.000000 0.000000
vn 0.000000 1.000000 0.000000
vn 0.000000 1.000000 0.000000
vn 0.000000 1.000000 0.000000
vn 0.000000 1.000000 0.000000
vn 0.000000 1.000000 0.000000
vn 0.000000 1.000000 0.000000
vn 0.000000 0.382666 -0.923887
vn 0.000000 0.382666 -0.923887
vn 0.000000 0.382666 -0.923887
vn 0.000000 0.382666 -0.923887
vn 0.000000 -0.382692 -0.923876
vn 0.000000 -0.382692 -0.923876
vn 0.000000 -0.382692 -0.923876
vn 0.000000 -0.382692 -0.923876
vn 0.000000 -0.923876 -0.382692
vn 0.000000 -0.923876 -0.382692
vn 0.000000 -0.923876 -0.382692
vn 0.000000 -0.923876 -0.382692
vn 0.000000 -0.923876 0.382692
vn 0.000000 -0.923876 0.382692
vn 0.000000 -0.923876 0.382692
vn 0.000000 -0.923876 0.382692
vn 0.000000 -0.382692 0.923876
vn 0.000000 -0.382692 0.923876
vn 0.000000 -0.382692 0.923876
vn 0.000000 -0.382692 0.923876
vn 0.000000 0.382666 0.923887
vn 0.000000 0.382666 0.923887
vn 0.000000 0.382666 0.923887
vn 0.000000 0.382666 0.923887
vn 0.000000 0.923887 0.382666
vn 0.000000 0.923887 0.382666
vn 0.000000 0.923887 0.382666
vn 0.000000 0.923887 0.382666
vn 0.000000 0.923887 -0.382666
vn 0.000000 0.923887 -0.382666
vn 0.000000 0.923887 -0.382666
vn 0.000000 0.923887 -0.382666
vn -1.000000 0.000000 0.000000
vn -1.000000 0.000000 0.000000
vn -1.000000 0.000000 0.000000
vn -1.000000 0.000000 0.000000
vn -1.000000 0.000000 0.000000
vn -1.000000 0.000000 0.000000
vn -1.000000 0.000000 0.000000
vn -1.000000 0.000000 0.000000
vn -1.000000 0.000000 0.000000
vn -1.000000 0.000000 0.000000
vn -1.000000 0.000000 0.000000
vn -1.000000 0.000000 0.000000
vn -1.000000 0.000000 0.000000
vn -1.000000 0.000000 0.000000
vn -1.000000 0.000000 0.000000
vn -1.000000 0.000000 0.000000
vn 1.000000 0.000000 0.000000
vn 1.000000 0.000000 0.000000
vn 1.000000 0.000000 0.000000
vn 1.000000 0.000000 0.000000
vn 1.000000 0.000000 0.000000
vn 1.000000 0.000000 0.000000
vn 1.000000 0.000000 0.000000
vn 1.000000 0.000000 0.000000
vn 1.000000 0.000000 0.000000
vn 1.000000 0.000000 0.000000
vn 1.000000 0.000000 0.000000
vn 1.000000 0.000000 0.000000
vn 1.000000 0.000000 0.000000
vn 1.000000 0.000000 0.000000
vn 1.000000 0.000000 0.000000
vn 1.000000 0.000000 0.000000
s off
g PowerLinesFixedPivot PowerSystem:PowerCablePolePowerlines
usemtl PowerSystem:initialShadingGroup
f 89/120/289 90/121/290 98/122/291 97/123/292
f 90/121/293 91/124/294 99/125/295 98/122/296
f 91/124/297 92/126/298 100/127/299 99/125/300
f 92/126/301 93/128/302 101/129/303 100/127/304
f 93/128/305 94/130/306 102/131/307 101/129/308
f 94/132/309 95/133/310 103/134/311 102/135/312
f 95/133/313 96/136/314 104/137/315 103/134/316
f 96/136/317 89/120/318 97/123/319 104/137/320
f 105/138/321 106/139/322 114/140/323 113/141/324
f 106/139/325 107/142/326 115/143/327 114/140/328
f 107/142/329 108/144/330 116/145/331 115/143/332
f 108/144/333 109/146/334 117/147/335 116/145/336
f 109/146/337 110/148/338 118/149/339 117/147/340
f 110/148/341 111/150/342 119/151/343 118/149/344
f 111/150/345 112/152/346 120/153/347 119/151/348
f 112/152/349 105/154/350 113/155/351 120/153/352
f 114/156/353 121/157/354 120/158/355 113/159/356
f 114/156/357 115/160/358 116/161/359 121/157/360
f 121/157/361 116/161/362 117/162/363 118/163/364
f 120/158/365 121/157/366 118/163/367 119/164/368
f 106/165/369 105/166/370 112/167/371 122/168/372
f 110/169/373 122/168/374 112/167/375 111/170/376
f 108/171/377 122/168/378 110/169/379 109/172/380
f 106/165/381 122/168/382 108/171/383 107/173/384
f 123/174/385 124/175/386 132/176/387 131/177/388
f 124/175/389 125/178/390 133/179/391 132/176/392
f 125/178/393 126/180/394 134/181/395 133/179/396
f 126/180/397 127/182/398 135/183/399 134/181/400
f 127/182/401 128/184/402 136/185/403 135/183/404
f 128/184/405 129/186/406 137/187/407 136/185/408
f 129/186/409 130/188/410 138/189/411 137/187/412
f 130/188/413 123/190/414 131/191/415 138/189/416
f 132/192/417 139/193/418 138/194/419 131/195/420
f 132/192/421 133/196/422 134/197/423 139/193/424
f 139/193/425 134/197/426 135/198/427 136/199/428
f 138/194/429 139/193/430 136/199/431 137/200/432
f 124/201/433 123/202/434 130/203/435 140/204/436
f 128/205/437 140/204/438 130/203/439 129/206/440
f 126/207/441 140/204/442 128/205/443 127/208/444
f 124/201/445 140/204/446 126/207/447 125/209/448
f 141/210/449 142/211/450 150/212/451 149/213/452
f 142/214/453 143/215/454 151/216/455 150/217/456
f 143/215/457 144/218/458 152/219/459 151/216/460
f 144/218/461 145/220/462 153/221/463 152/219/464
f 145/220/465 146/222/466 154/223/467 153/221/468
f 146/222/469 147/224/470 155/225/471 154/223/472
f 147/224/473 148/226/474 156/227/475 155/225/476
f 148/226/477 141/210/478 149/213/479 156/227/480
f 157/228/481 158/229/482 166/230/483 165/231/484
f 158/232/485 159/233/486 167/234/487 166/235/488
f 159/233/489 160/236/490 168/237/491 167/234/492
f 160/236/493 161/238/494 169/239/495 168/237/496
f 161/238/497 162/240/498 170/241/499 169/239/500
f 162/240/501 163/242/502 171/243/503 170/241/504
f 163/242/505 164/244/506 172/245/507 171/243/508
f 164/244/509 157/228/510 165/231/511 172/245/512
f 166/246/513 173/247/514 172/248/515 165/249/516
f 166/246/517 167/250/518 168/251/519 173/247/520
f 173/247/521 168/251/522 169/252/523 170/253/524
f 172/248/525 173/247/526 170/253/527 171/254/528
f 174/255/529 175/256/530 183/257/531 182/258/532
f 175/256/533 176/259/534 184/260/535 183/257/536
f 176/259/537 177/261/538 185/262/539 184/260/540
f 177/261/541 178/263/542 186/264/543 185/262/544
f 178/263/545 179/265/546 187/266/547 186/264/548
f 179/265/549 180/267/550 188/268/551 187/266/552
f 180/267/553 181/269/554 189/270/555 188/268/556
f 181/269/557 174/271/558 182/272/559 189/270/560
f 183/273/561 190/274/562 189/275/563 182/276/564
f 183/273/565 184/277/566 185/278/567 190/274/568
f 190/274/569 185/278/570 186/279/571 187/280/572
f 189/275/573 190/274/574 187/280/575 188/281/576
f 175/282/577 174/283/578 181/284/579 191/285/580
f 179/286/581 191/285/582 181/284/583 180/287/584
f 177/288/585 191/285/586 179/286/587 178/289/588
f 175/282/589 191/285/590 177/288/591 176/290/592
g default
v -0.000188 6.076386 14.052718
v 0.036262 6.062458 14.058538
v 0.036262 5.904598 13.705591
v -0.000188 5.918263 13.699171
v 0.051357 6.028827 14.072592
v 0.051357 5.871607 13.721092
v 0.036262 5.995196 14.086646
v 0.036262 5.838617 13.736585
v -0.000188 5.981266 14.092466
v -0.000188 5.824953 13.743005
v -0.036637 5.995196 14.086646
v -0.036637 5.838617 13.736585
v -0.051735 6.028827 14.072592
v -0.051735 5.871607 13.721092
v -0.036637 6.062458 14.058538
v -0.036637 5.904598 13.705591
v 0.036262 5.361288 12.382116
v -0.000188 5.375700 12.377610
v 0.051357 5.326499 12.392988
v 0.036262 5.291715 12.403865
v -0.000188 5.277304 12.408369
v -0.036637 5.291715 12.403865
v -0.051735 5.326499 12.392988
v -0.036637 5.361288 12.382116
v 0.036262 5.169237 11.692452
v -0.000188 5.183878 11.688765
v 0.051357 5.133893 11.701358
v 0.036262 5.098548 11.710265
v -0.000188 5.083910 11.713952
v -0.036637 5.098548 11.710265
v -0.051735 5.133893 11.701358
v -0.036637 5.169237 11.692452
v 0.036262 4.897140 10.287085
v -0.000188 4.912112 10.285131
v 0.051357 4.861000 10.291799
v 0.036262 4.824854 10.296512
v -0.000188 4.809884 10.298464
v -0.036637 4.824854 10.296512
v -0.051735 4.861000 10.291799
v -0.036637 4.897142 10.287085
v 0.036262 4.771866 8.876402
v -0.000188 4.786944 8.875563
v 0.051357 4.735476 8.878425
v 0.036262 4.699082 8.880450
v -0.000188 4.684010 8.881287
v -0.036637 4.699082 8.880450
v -0.051735 4.735476 8.878425
v -0.036637 4.771866 8.876402
v 0.036262 4.719575 6.750807
v -0.000188 4.734674 6.750874
v 0.051357 4.683126 6.750644
v 0.036262 4.646678 6.750482
v -0.000188 4.631580 6.750415
v -0.036637 4.646678 6.750482
v -0.051735 4.683126 6.750644
v -0.036637 4.719575 6.750807
v 0.036262 4.799605 4.626051
v -0.000188 4.814665 4.627160
v 0.051357 4.763257 4.623372
v 0.036262 4.726905 4.620693
v -0.000188 4.711848 4.619584
v -0.036637 4.726905 4.620693
v -0.051735 4.763257 4.623372
v -0.036637 4.799606 4.626052
v 0.036262 4.945000 3.216179
v -0.000188 4.959957 3.218232
v 0.051357 4.908888 3.211218
v 0.036262 4.872780 3.206258
v -0.000188 4.857823 3.204203
v -0.036637 4.872780 3.206258
v -0.051735 4.908888 3.211218
v -0.036637 4.945000 3.216179
v 0.036262 5.057082 2.517914
v -0.000188 5.071920 2.520693
v 0.051357 5.021255 2.511204
v 0.036262 4.985428 2.504495
v -0.000188 4.970590 2.501717
v -0.036637 4.985428 2.504495
v -0.051735 5.021255 2.511204
v -0.036637 5.057082 2.517914
v 0.036262 5.256968 1.646018
v -0.000188 5.271524 1.650020
v 0.051357 5.221820 1.636363
v 0.036262 5.186674 1.626704
v -0.000188 5.172114 1.622704
v -0.036637 5.186674 1.626704
v -0.051735 5.221820 1.636363
v -0.036637 5.256968 1.646018
v 0.036262 5.536297 0.797514
v -0.000188 5.550354 0.803023
v 0.051357 5.502361 0.784214
v 0.036262 5.468428 0.770914
v -0.000188 5.454370 0.765401
v -0.036637 5.468428 0.770914
v -0.051735 5.502361 0.784214
v -0.036637 5.536297 0.797514
v 0.036262 5.931681 0.001612
v -0.000188 5.944499 0.009590
v 0.051357 5.900734 -0.017644
v 0.036262 5.869787 -0.036897
v -0.000188 5.856968 -0.044877
v -0.036637 5.869787 -0.036897
v -0.051735 5.900734 -0.017644
v -0.036637 5.931681 0.001612
vt 0.026546 0.988333
vt 0.021535 0.988389
vt 0.021319 0.937796
vt 0.026521 0.937621
vt 0.016487 0.988526
vt 0.016135 0.938220
vt 0.011384 0.988670
vt 0.010971 0.938648
vt 0.006241 0.988755
vt 0.005814 0.938839
vt 0.046851 0.988746
vt 0.041709 0.988664
vt 0.042071 0.938643
vt 0.047227 0.938830
vt 0.036606 0.988523
vt 0.036906 0.938217
vt 0.031558 0.988388
vt 0.031723 0.937795
vt 0.021305 0.750626
vt 0.026475 0.750616
vt 0.016141 0.750651
vt 0.010984 0.750677
vt 0.005827 0.750688
vt 0.041967 0.750673
vt 0.047124 0.750683
vt 0.036809 0.750648
vt 0.031646 0.750625
vt 0.021328 0.656749
vt 0.026488 0.656704
vt 0.016175 0.656861
vt 0.011024 0.656971
vt 0.005869 0.657017
vt 0.041953 0.656969
vt 0.047109 0.657014
vt 0.036801 0.656859
vt 0.031649 0.656749
vt 0.021302 0.469354
vt 0.026460 0.469382
vt 0.016149 0.469286
vt 0.010998 0.469217
vt 0.005844 0.469189
vt 0.041925 0.469216
vt 0.047076 0.469188
vt 0.036775 0.469285
vt 0.031620 0.469354
vt 0.021297 0.283967
vt 0.026451 0.283990
vt 0.016146 0.283911
vt 0.010992 0.283854
vt 0.005835 0.283831
vt 0.041906 0.283854
vt 0.047061 0.283831
vt 0.036753 0.283911
vt 0.031603 0.283967
vt 0.021298 0.005844
vt 0.026450 0.005850
vt 0.016148 0.005832
vt 0.010998 0.005820
vt 0.005844 0.005814
vt 0.041903 0.005821
vt 0.047058 0.005816
vt 0.036751 0.005833
vt 0.031602 0.005845
vt 0.081669 0.990366
vt 0.076517 0.990360
vt 0.076526 0.712249
vt 0.081680 0.712260
vt 0.071367 0.990348
vt 0.071373 0.712222
vt 0.066217 0.990335
vt 0.066221 0.712195
vt 0.061063 0.990330
vt 0.061068 0.712184
vt 0.102277 0.990332
vt 0.097122 0.990337
vt 0.097142 0.712198
vt 0.102297 0.712188
vt 0.091970 0.990349
vt 0.091988 0.712224
vt 0.086821 0.990361
vt 0.086833 0.712251
vt 0.076543 0.526773
vt 0.081694 0.526781
vt 0.071396 0.526754
vt 0.066247 0.526734
vt 0.061093 0.526726
vt 0.097141 0.526739
vt 0.102296 0.526733
vt 0.091992 0.526756
vt 0.086845 0.526774
vt 0.076579 0.434078
vt 0.081737 0.434053
vt 0.071420 0.434140
vt 0.066260 0.434202
vt 0.061106 0.434228
vt 0.097215 0.434209
vt 0.102371 0.434237
vt 0.092055 0.434144
vt 0.086895 0.434080
vt 0.076607 0.316883
vt 0.081765 0.316884
vt 0.071458 0.316883
vt 0.066307 0.316882
vt 0.061149 0.316882
vt 0.097231 0.316888
vt 0.102386 0.316890
vt 0.092079 0.316887
vt 0.086924 0.316885
vt 0.076556 0.199851
vt 0.081771 0.199927
vt 0.071367 0.199671
vt 0.066203 0.199489
vt 0.061046 0.199409
vt 0.097331 0.199495
vt 0.102488 0.199417
vt 0.092168 0.199676
vt 0.086983 0.199853
vt 0.076786 0.083586
vt 0.081813 0.083959
vt 0.071745 0.082685
vt 0.066659 0.081782
vt 0.061520 0.081395
vt 0.096964 0.081788
vt 0.102102 0.081404
vt 0.091880 0.082689
vt 0.086840 0.083588
vn 0.382588 0.843406 -0.377217
vn 0.382588 0.843406 -0.377217
vn 0.382588 0.843406 -0.377217
vn 0.382588 0.843406 -0.377217
vn 0.703569 0.648718 -0.290096
vn 0.999977 0.006226 -0.002747
vn 0.999960 -0.008271 0.003296
vn 0.710885 0.648834 -0.271401
vn 0.999977 0.006226 -0.002747
vn 0.710458 -0.642428 0.287290
vn 0.701885 -0.657198 0.274679
vn 0.999960 -0.008271 0.003296
vn 0.710458 -0.642428 0.287290
vn 0.000000 -0.912862 0.408267
vn 0.000000 -0.922595 0.385770
vn 0.701885 -0.657198 0.274679
vn 0.000000 -0.912862 0.408267
vn -0.710458 -0.642428 0.287290
vn -0.701885 -0.657198 0.274679
vn 0.000000 -0.922595 0.385770
vn -0.710458 -0.642428 0.287290
vn -0.999977 0.006195 -0.002747
vn -0.999960 -0.008271 0.003296
vn -0.701885 -0.657198 0.274679
vn -0.999977 0.006195 -0.002747
vn -0.703569 0.648718 -0.290096
vn -0.710900 0.648819 -0.271395
vn -0.999960 -0.008271 0.003296
vn -0.703569 0.648718 -0.290096
vn 0.000000 0.912874 -0.408242
vn 0.000000 0.922595 -0.385770
vn -0.710900 0.648819 -0.271395
vn 0.000000 0.922595 -0.385770
vn 0.710885 0.648834 -0.271401
vn 0.715491 0.656218 -0.239687
vn 0.000000 0.939176 -0.343435
vn 0.710885 0.648834 -0.271401
vn 0.999960 -0.008271 0.003296
vn 0.999852 -0.016084 0.006165
vn 0.715491 0.656218 -0.239687
vn 0.999960 -0.008271 0.003296
vn 0.701885 -0.657198 0.274679
vn 0.698241 -0.672418 0.245587
vn 0.999852 -0.016084 0.006165
vn 0.701885 -0.657198 0.274679
vn 0.000000 -0.922595 0.385770
vn 0.000000 -0.939441 0.342711
vn 0.698241 -0.672418 0.245587
vn 0.000000 -0.922595 0.385770
vn -0.701885 -0.657198 0.274679
vn -0.698241 -0.672418 0.245587
vn 0.000000 -0.939441 0.342711
vn -0.701885 -0.657198 0.274679
vn -0.999960 -0.008271 0.003296
vn -0.999852 -0.016084 0.006165
vn -0.698241 -0.672418 0.245587
vn -0.999960 -0.008271 0.003296
vn -0.710900 0.648819 -0.271395
vn -0.715491 0.656218 -0.239687
vn -0.999852 -0.016084 0.006165
vn -0.710900 0.648819 -0.271395
vn 0.000000 0.922595 -0.385770
vn 0.000000 0.939176 -0.343435
vn -0.715491 0.656218 -0.239687
vn 0.000000 0.939176 -0.343435
vn 0.715491 0.656218 -0.239687
vn 0.712670 0.684897 -0.151714
vn 0.000000 0.976356 -0.216171
vn 0.715491 0.656218 -0.239687
vn 0.999852 -0.016084 0.006165
vn 0.999933 -0.011323 0.002319
vn 0.712670 0.684897 -0.151714
vn 0.999852 -0.016084 0.006165
vn 0.698241 -0.672418 0.245587
vn 0.701050 -0.696228 0.154256
vn 0.999933 -0.011323 0.002319
vn 0.698241 -0.672418 0.245587
vn 0.000000 -0.939441 0.342711
vn 0.000000 -0.976314 0.216358
vn 0.701050 -0.696228 0.154256
vn 0.000000 -0.939441 0.342711
vn -0.698241 -0.672418 0.245587
vn -0.701050 -0.696228 0.154256
vn 0.000000 -0.976314 0.216358
vn -0.698241 -0.672418 0.245587
vn -0.999852 -0.016084 0.006165
vn -0.999933 -0.011323 0.002319
vn -0.701050 -0.696228 0.154256
vn -0.999852 -0.016084 0.006165
vn -0.715491 0.656218 -0.239687
vn -0.712670 0.684897 -0.151714
vn -0.999933 -0.011323 0.002319
vn -0.715491 0.656218 -0.239687
vn 0.000000 0.939176 -0.343435
vn 0.000000 0.976356 -0.216171
vn -0.712670 0.684897 -0.151714
vn 0.000000 0.976356 -0.216171
vn 0.712670 0.684897 -0.151714
vn 0.713561 0.693722 -0.097887
vn 0.000000 0.990183 -0.139780
vn 0.712670 0.684897 -0.151714
vn 0.999933 -0.011323 0.002319
vn 0.999917 -0.012788 0.001862
vn 0.713561 0.693722 -0.097887
vn 0.999933 -0.011323 0.002319
vn 0.701050 -0.696228 0.154256
vn 0.700553 -0.706596 0.099739
vn 0.999917 -0.012788 0.001862
vn 0.701050 -0.696228 0.154256
vn 0.000000 -0.976314 0.216358
vn 0.000000 -0.990204 0.139630
vn 0.700553 -0.706596 0.099739
vn 0.000000 -0.976314 0.216358
vn -0.701050 -0.696228 0.154256
vn -0.700553 -0.706596 0.099739
vn 0.000000 -0.990204 0.139630
vn -0.701050 -0.696228 0.154256
vn -0.999933 -0.011323 0.002319
vn -0.999917 -0.012788 0.001862
vn -0.700553 -0.706596 0.099739
vn -0.999933 -0.011323 0.002319
vn -0.712670 0.684897 -0.151714
vn -0.713561 0.693722 -0.097887
vn -0.999917 -0.012788 0.001862
vn -0.712670 0.684897 -0.151714
vn 0.000000 0.976356 -0.216171
vn 0.000000 0.990183 -0.139780
vn -0.713561 0.693722 -0.097887
vn 0.000000 0.990183 -0.139780
vn 0.713561 0.693722 -0.097887
vn 0.711034 0.702274 -0.035253
vn 0.000000 0.998742 -0.050147
vn 0.713561 0.693722 -0.097887
vn 0.999917 -0.012788 0.001862
vn 0.999968 -0.007935 0.000336
vn 0.711034 0.702274 -0.035253
vn 0.999917 -0.012788 0.001862
vn 0.700553 -0.706596 0.099739
vn 0.703032 -0.710265 0.035617
vn 0.999968 -0.007935 0.000336
vn 0.700553 -0.706596 0.099739
vn 0.000000 -0.990204 0.139630
vn 0.000000 -0.998742 0.050147
vn 0.703032 -0.710265 0.035617
vn 0.000000 -0.990204 0.139630
vn -0.700553 -0.706596 0.099739
vn -0.703032 -0.710265 0.035617
vn 0.000000 -0.998742 0.050147
vn -0.700553 -0.706596 0.099739
vn -0.999917 -0.012788 0.001862
vn -0.999968 -0.007935 0.000336
vn -0.703032 -0.710265 0.035617
vn -0.999917 -0.012788 0.001862
vn -0.713561 0.693722 -0.097887
vn -0.711034 0.702274 -0.035253
vn -0.999968 -0.007935 0.000336
vn -0.713561 0.693722 -0.097887
vn 0.000000 0.990183 -0.139780
vn 0.000000 0.998742 -0.050147
vn -0.711034 0.702274 -0.035253
vn 0.000000 0.998742 -0.050147
vn 0.711034 0.702274 -0.035253
vn 0.710996 0.703182 0.004517
vn 0.000000 0.999979 0.006470
vn 0.711034 0.702274 -0.035253
vn 0.999968 -0.007935 0.000336
vn 0.999970 -0.007721 0.000000
vn 0.710996 0.703182 0.004517
vn 0.999968 -0.007935 0.000336
vn 0.703032 -0.710265 0.035617
vn 0.703182 -0.710995 -0.004578
vn 0.999970 -0.007721 0.000000
vn 0.703032 -0.710265 0.035617
vn 0.000000 -0.998742 0.050147
vn 0.000000 -0.999979 -0.006440
vn 0.703182 -0.710995 -0.004578
vn 0.000000 -0.998742 0.050147
vn -0.703032 -0.710265 0.035617
vn -0.703182 -0.710995 -0.004578
vn 0.000000 -0.999979 -0.006440
vn -0.703032 -0.710265 0.035617
vn -0.999968 -0.007935 0.000336
vn -0.999970 -0.007721 0.000000
vn -0.703182 -0.710995 -0.004578
vn -0.999968 -0.007935 0.000336
vn -0.711034 0.702274 -0.035253
vn -0.710996 0.703182 0.004517
vn -0.999970 -0.007721 0.000000
vn -0.711034 0.702274 -0.035253
vn 0.000000 0.998742 -0.050147
vn 0.000000 0.999979 0.006470
vn -0.710996 0.703182 0.004517
vn 0.000000 0.999979 0.006470
vn 0.710996 0.703182 0.004517
vn 0.711238 0.701532 0.044655
vn 0.000000 0.997975 0.063604
vn 0.710996 0.703182 0.004517
vn 0.999970 -0.007721 0.000000
vn 0.999966 -0.008271 -0.000427
vn 0.711238 0.701532 0.044655
vn 0.999970 -0.007721 0.000000
vn 0.703182 -0.710995 -0.004578
vn 0.702909 -0.709838 -0.045263
vn 0.999966 -0.008271 -0.000427
vn 0.703182 -0.710995 -0.004578
vn 0.000000 -0.999979 -0.006440
vn 0.000000 -0.997971 -0.063665
vn 0.702909 -0.709838 -0.045263
vn 0.000000 -0.999979 -0.006440
vn -0.703182 -0.710995 -0.004578
vn -0.702909 -0.709838 -0.045263
vn 0.000000 -0.997971 -0.063665
vn -0.703182 -0.710995 -0.004578
vn -0.999970 -0.007721 0.000000
vn -0.999966 -0.008271 -0.000427
vn -0.702909 -0.709838 -0.045263
vn -0.999970 -0.007721 0.000000
vn -0.710996 0.703182 0.004517
vn -0.711238 0.701532 0.044655
vn -0.999966 -0.008271 -0.000427
vn -0.710996 0.703182 0.004517
vn 0.000000 0.999979 0.006470
vn 0.000000 0.997975 0.063604
vn -0.711238 0.701532 0.044655
vn 0.000000 0.997975 0.063604
vn 0.711238 0.701532 0.044655
vn 0.710947 0.698067 0.085187
vn 0.000000 0.992635 0.121142
vn 0.711238 0.701532 0.044655
vn 0.999966 -0.008271 -0.000427
vn 0.999971 -0.007599 -0.000824
vn 0.710947 0.698067 0.085187
vn 0.999966 -0.008271 -0.000427
vn 0.702909 -0.709838 -0.045263
vn 0.703209 -0.705743 -0.086165
vn 0.999971 -0.007599 -0.000824
vn 0.702909 -0.709838 -0.045263
vn 0.000000 -0.997971 -0.063665
vn 0.000000 -0.992617 -0.121292
vn 0.703209 -0.705743 -0.086165
vn 0.000000 -0.997971 -0.063665
vn -0.702909 -0.709838 -0.045263
vn -0.703209 -0.705743 -0.086165
vn 0.000000 -0.992617 -0.121292
vn -0.702909 -0.709838 -0.045263
vn -0.999966 -0.008271 -0.000427
vn -0.999971 -0.007599 -0.000824
vn -0.703209 -0.705743 -0.086165
vn -0.999966 -0.008271 -0.000427
vn -0.711238 0.701532 0.044655
vn -0.710947 0.698067 0.085187
vn -0.999971 -0.007599 -0.000824
vn -0.711238 0.701532 0.044655
vn 0.000000 0.997975 0.063604
vn 0.000000 0.992635 0.121142
vn -0.710947 0.698067 0.085187
vn 0.000000 0.992635 0.121142
vn 0.710947 0.698067 0.085187
vn 0.711460 0.689271 0.136859
vn 0.000000 0.980832 0.194854
vn 0.710947 0.698067 0.085187
vn 0.999971 -0.007599 -0.000824
vn 0.999961 -0.008637 -0.001709
vn 0.711460 0.689271 0.136859
vn 0.999971 -0.007599 -0.000824
vn 0.703209 -0.705743 -0.086165
vn 0.702637 -0.697907 -0.138660
vn 0.999961 -0.008637 -0.001709
vn 0.703209 -0.705743 -0.086165
vn 0.000000 -0.992617 -0.121292
vn 0.000000 -0.980838 -0.194825
vn 0.702637 -0.697907 -0.138660
vn 0.000000 -0.992617 -0.121292
vn -0.703209 -0.705743 -0.086165
vn -0.702637 -0.697907 -0.138660
vn 0.000000 -0.980838 -0.194825
vn -0.703209 -0.705743 -0.086165
vn -0.999971 -0.007599 -0.000824
vn -0.999961 -0.008637 -0.001709
vn -0.702637 -0.697907 -0.138660
vn -0.999971 -0.007599 -0.000824
vn -0.710947 0.698067 0.085187
vn -0.711460 0.689271 0.136859
vn -0.999961 -0.008637 -0.001709
vn -0.710947 0.698067 0.085187
vn 0.000000 0.992635 0.121142
vn 0.000000 0.980832 0.194854
vn -0.711460 0.689271 0.136859
vn 0.000000 0.980832 0.194854
vn 0.711460 0.689271 0.136859
vn 0.713050 0.675417 0.188075
vn 0.000000 0.963315 0.268374
vn 0.711460 0.689271 0.136859
vn 0.999961 -0.008637 -0.001709
vn 0.999928 -0.011536 -0.003205
vn 0.713050 0.675417 0.188075
vn 0.999961 -0.008637 -0.001709
vn 0.702637 -0.697907 -0.138660
vn 0.700989 -0.687011 -0.191392
vn 0.999928 -0.011536 -0.003205
vn 0.702637 -0.697907 -0.138660
vn 0.000000 -0.980838 -0.194825
vn 0.000000 -0.963323 -0.268346
vn 0.700989 -0.687011 -0.191392
vn 0.000000 -0.980838 -0.194825
vn -0.702637 -0.697907 -0.138660
vn -0.700989 -0.687011 -0.191392
vn 0.000000 -0.963323 -0.268346
vn -0.702637 -0.697907 -0.138660
vn -0.999961 -0.008637 -0.001709
vn -0.999928 -0.011536 -0.003205
vn -0.700989 -0.687011 -0.191392
vn -0.999961 -0.008637 -0.001709
vn -0.711460 0.689271 0.136859
vn -0.713050 0.675417 0.188075
vn -0.999928 -0.011536 -0.003205
vn -0.711460 0.689271 0.136859
vn 0.000000 0.980832 0.194854
vn 0.000000 0.963315 0.268374
vn -0.713050 0.675417 0.188075
vn 0.000000 0.963315 0.268374
vn 0.713050 0.675417 0.188075
vn 0.716179 0.645705 0.264863
vn 0.000000 0.925060 0.379821
vn 0.713050 0.675417 0.188075
vn 0.999928 -0.011536 -0.003205
vn 0.999828 -0.017060 -0.007294
vn 0.716179 0.645705 0.264863
vn 0.999928 -0.011536 -0.003205
vn 0.700989 -0.687011 -0.191392
vn 0.697538 -0.662833 -0.272202
vn 0.999828 -0.017060 -0.007294
vn 0.700989 -0.687011 -0.191392
vn 0.000000 -0.963323 -0.268346
vn 0.000000 -0.925148 -0.379606
vn 0.697538 -0.662833 -0.272202
vn 0.000000 -0.963323 -0.268346
vn -0.700989 -0.687011 -0.191392
vn -0.697538 -0.662833 -0.272202
vn 0.000000 -0.925148 -0.379606
vn -0.700989 -0.687011 -0.191392
vn -0.999928 -0.011536 -0.003205
vn -0.999828 -0.017060 -0.007294
vn -0.697538 -0.662833 -0.272202
vn -0.999928 -0.011536 -0.003205
vn -0.713050 0.675417 0.188075
vn -0.716179 0.645705 0.264863
vn -0.999828 -0.017060 -0.007294
vn -0.713050 0.675417 0.188075
vn 0.000000 0.963315 0.268374
vn 0.000000 0.925060 0.379821
vn -0.716179 0.645705 0.264863
vn 0.000000 0.925060 0.379821
vn 0.716179 0.645705 0.264863
vn 0.717776 0.623582 0.309746
vn 0.000000 0.895584 0.444893
vn 0.716179 0.645705 0.264863
vn 0.999828 -0.017060 -0.007294
vn 0.999692 -0.022250 -0.011018
vn 0.717776 0.623582 0.309746
vn 0.999828 -0.017060 -0.007294
vn 0.697538 -0.662833 -0.272202
vn 0.692904 -0.645719 -0.320830
vn 0.999692 -0.022250 -0.011018
vn 0.697538 -0.662833 -0.272202
vn 0.000000 -0.925148 -0.379606
vn 0.000000 -0.895542 -0.444978
vn 0.692904 -0.645719 -0.320830
vn 0.000000 -0.925148 -0.379606
vn -0.697538 -0.662833 -0.272202
vn -0.692904 -0.645719 -0.320830
vn 0.000000 -0.895542 -0.444978
vn -0.697538 -0.662833 -0.272202
vn -0.999828 -0.017060 -0.007294
vn -0.999692 -0.022250 -0.011018
vn -0.692904 -0.645719 -0.320830
vn -0.999828 -0.017060 -0.007294
vn -0.716179 0.645705 0.264863
vn -0.717776 0.623582 0.309746
vn -0.999692 -0.022250 -0.011018
vn -0.716179 0.645705 0.264863
vn 0.000000 0.925060 0.379821
vn 0.000000 0.895584 0.444893
vn -0.717776 0.623582 0.309746
s off
g PowerLinesFixedPivot PowerSystem:AcrossPowerlines
usemtl PowerSystem:initialShadingGroup
f 384/291/593 385/292/594 386/293/595 387/294/596
f 385/292/597 388/295/598 389/296/599 386/293/600
f 388/295/601 390/297/602 391/298/603 389/296/604
f 390/297/605 392/299/606 393/300/607 391/298/608
f 392/301/609 394/302/610 395/303/611 393/304/612
f 394/302/613 396/305/614 397/306/615 395/303/616
f 396/305/617 398/307/618 399/308/619 397/306/620
f 398/307/621 384/291/622 387/294/623 399/308/624
f 387/294/625 386/293/626 400/309/627 401/310/628
f 386/293/629 389/296/630 402/311/631 400/309/632
f 389/296/633 391/298/634 403/312/635 402/311/636
f 391/298/637 393/300/638 404/313/639 403/312/640
f 393/304/641 395/303/642 405/314/643 404/315/644
f 395/303/645 397/306/646 406/316/647 405/314/648
f 397/306/649 399/308/650 407/317/651 406/316/652
f 399/308/653 387/294/654 401/310/655 407/317/656
f 401/310/657 400/309/658 408/318/659 409/319/660
f 400/309/661 402/311/662 410/320/663 408/318/664
f 402/311/665 403/312/666 411/321/667 410/320/668
f 403/312/669 404/313/670 412/322/671 411/321/672
f 404/315/673 405/314/674 413/323/675 412/324/676
f 405/314/677 406/316/678 414/325/679 413/323/680
f 406/316/681 407/317/682 415/326/683 414/325/684
f 407/317/685 401/310/686 409/319/687 415/326/688
f 409/319/689 408/318/690 416/327/691 417/328/692
f 408/318/693 410/320/694 418/329/695 416/327/696
f 410/320/697 411/321/698 419/330/699 418/329/700
f 411/321/701 412/322/702 420/331/703 419/330/704
f 412/324/705 413/323/706 421/332/707 420/333/708
f 413/323/709 414/325/710 422/334/711 421/332/712
f 414/325/713 415/326/714 423/335/715 422/334/716
f 415/326/717 409/319/718 417/328/719 423/335/720
f 417/328/721 416/327/722 424/336/723 425/337/724
f 416/327/725 418/329/726 426/338/727 424/336/728
f 418/329/729 419/330/730 427/339/731 426/338/732
f 419/330/733 420/331/734 428/340/735 427/339/736
f 420/333/737 421/332/738 429/341/739 428/342/740
f 421/332/741 422/334/742 430/343/743 429/341/744
f 422/334/745 423/335/746 431/344/747 430/343/748
f 423/335/749 417/328/750 425/337/751 431/344/752
f 425/337/753 424/336/754 432/345/755 433/346/756
f 424/336/757 426/338/758 434/347/759 432/345/760
f 426/338/761 427/339/762 435/348/763 434/347/764
f 427/339/765 428/340/766 436/349/767 435/348/768
f 428/342/769 429/341/770 437/350/771 436/351/772
f 429/341/773 430/343/774 438/352/775 437/350/776
f 430/343/777 431/344/778 439/353/779 438/352/780
f 431/344/781 425/337/782 433/346/783 439/353/784
f 433/354/785 432/355/786 440/356/787 441/357/788
f 432/355/789 434/358/790 442/359/791 440/356/792
f 434/358/793 435/360/794 443/361/795 442/359/796
f 435/360/797 436/362/798 444/363/799 443/361/800
f 436/364/801 437/365/802 445/366/803 444/367/804
f 437/365/805 438/368/806 446/369/807 445/366/808
f 438/368/809 439/370/810 447/371/811 446/369/812
f 439/370/813 433/354/814 441/357/815 447/371/816
f 441/357/817 440/356/818 448/372/819 449/373/820
f 440/356/821 442/359/822 450/374/823 448/372/824
f 442/359/825 443/361/826 451/375/827 450/374/828
f 443/361/829 444/363/830 452/376/831 451/375/832
f 444/367/833 445/366/834 453/377/835 452/378/836
f 445/366/837 446/369/838 454/379/839 453/377/840
f 446/369/841 447/371/842 455/380/843 454/379/844
f 447/371/845 441/357/846 449/373/847 455/380/848
f 449/373/849 448/372/850 456/381/851 457/382/852
f 448/372/853 450/374/854 458/383/855 456/381/856
f 450/374/857 451/375/858 459/384/859 458/383/860
f 451/375/861 452/376/862 460/385/863 459/384/864
f 452/378/865 453/377/866 461/386/867 460/387/868
f 453/377/869 454/379/870 462/388/871 461/386/872
f 454/379/873 455/380/874 463/389/875 462/388/876
f 455/380/877 449/373/878 457/382/879 463/389/880
f 457/382/881 456/381/882 464/390/883 465/391/884
f 456/381/885 458/383/886 466/392/887 464/390/888
f 458/383/889 459/384/890 467/393/891 466/392/892
f 459/384/893 460/385/894 468/394/895 467/393/896
f 460/387/897 461/386/898 469/395/899 468/396/900
f 461/386/901 462/388/902 470/397/903 469/395/904
f 462/388/905 463/389/906 471/398/907 470/397/908
f 463/389/909 457/382/910 465/391/911 471/398/912
f 465/391/913 464/390/914 472/399/915 473/400/916
f 464/390/917 466/392/918 474/401/919 472/399/920
f 466/392/921 467/393/922 475/402/923 474/401/924
f 467/393/925 468/394/926 476/403/927 475/402/928
f 468/396/929 469/395/930 477/404/931 476/405/932
f 469/395/933 470/397/934 478/406/935 477/404/936
f 470/397/937 471/398/938 479/407/939 478/406/940
f 471/398/941 465/391/942 473/400/943 479/407/944
f 473/400/945 472/399/946 480/408/947 481/409/948
f 472/399/949 474/401/950 482/410/951 480/408/952
f 474/401/953 475/402/954 483/411/955 482/410/956
f 475/402/957 476/403/958 484/412/959 483/411/960
f 476/405/961 477/404/962 485/413/963 484/414/964
f 477/404/965 478/406/966 486/415/967 485/413/968
f 478/406/969 479/407/970 487/416/971 486/415/972
f 479/407/973 473/400/974 481/409/975 487/416/976
