# This file uses centimeters as units for non-parametric coordinates.

g default
v -2.203573 0.132785 1.203571
v -2.095722 1.014382 1.203571
v -1.782728 1.809681 1.203571
v -1.295227 2.440834 1.203571
v -0.680941 2.846059 1.203571
v -0.000000 2.985690 1.203571
v 0.680941 2.846059 1.203571
v 1.295227 2.440834 1.203571
v 1.782727 1.809680 1.203571
v 2.095721 1.014382 1.203571
v 2.203572 0.132785 1.203571
v -2.203573 0.132785 -3.062972
v -2.061924 0.132785 -3.203575
v -2.095722 1.014381 -3.062973
v -1.958336 0.979544 -3.203575
v -1.782728 1.809681 -3.062973
v -1.659223 1.739570 -3.203575
v -1.295227 2.440834 -3.062973
v -1.198265 2.336360 -3.203575
v -0.680941 2.846059 -3.062973
v -0.626145 2.713769 -3.203575
v -0.000000 2.985690 -3.062973
v -0.000000 2.842164 -3.203575
v 0.680941 2.846059 -3.062973
v 0.626145 2.713769 -3.203575
v 1.295227 2.440834 -3.062973
v 1.198264 2.336360 -3.203575
v 1.782727 1.809680 -3.062972
v 1.659222 1.739570 -3.203575
v 2.095721 1.014381 -3.062973
v 1.958335 0.979544 -3.203575
v 2.061923 0.132785 -3.203575
v 2.203572 0.132785 -3.062972
v -1.731692 0.882470 -2.554927
v -1.825284 0.132785 -2.554927
v -1.463331 1.551337 -2.554927
v -1.053778 2.072139 -2.554927
v -0.549539 2.399152 -2.554927
v -0.000000 2.509974 -2.554927
v 0.549539 2.399152 -2.554927
v 1.053778 2.072139 -2.554927
v 1.463331 1.551337 -2.554927
v 1.731691 0.882470 -2.554927
v 1.825284 0.132785 -2.554927
v -0.000000 0.132785 -2.554927
v -1.846302 0.912086 -3.203575
v -1.731692 0.882470 -3.086177
v -1.943592 0.132785 -3.203575
v -1.825284 0.132785 -3.086177
v -1.566017 1.610673 -3.203575
v -1.463331 1.551337 -3.086177
v -1.134010 2.160030 -3.203575
v -1.053778 2.072139 -3.086177
v -0.594660 2.509812 -3.203574
v -0.549539 2.399152 -3.086177
v -0.000000 2.629734 -3.203575
v -0.000000 2.509974 -3.086177
v 0.594660 2.509812 -3.203575
v 0.549539 2.399152 -3.086177
v 1.134009 2.160030 -3.203575
v 1.053778 2.072139 -3.086177
v 1.566017 1.610673 -3.203575
v 1.463331 1.551337 -3.086177
v 1.846302 0.912086 -3.203575
v 1.731691 0.882470 -3.086177
v 1.825284 0.132785 -3.086177
v 1.943592 0.132785 -3.203575
v -2.203573 0.132785 -1.224614
v -2.095722 1.014381 -1.224614
v -1.782728 1.809681 -1.224614
v -1.295227 2.440834 -1.224614
v -0.680941 2.846059 -1.224614
v -0.000000 2.985690 -1.224613
v 0.680941 2.846059 -1.224614
v 1.295227 2.440834 -1.224614
v 1.782727 1.809680 -1.224614
v 2.095721 1.014381 -1.224614
v 2.203572 0.132785 -1.224614
v -2.547042 0.174804 1.203571
v -2.428452 1.098751 1.203571
v -2.080649 1.978803 1.203571
v -1.527424 2.691017 1.203571
v -0.810967 3.159969 1.203571
v -0.000000 3.324667 1.203571
v 0.810966 3.159969 1.203571
v 1.527424 2.691017 1.203571
v 2.080649 1.978802 1.203571
v 2.428452 1.098751 1.203571
v 2.547042 0.174804 1.203571
v -2.266366 1.057016 -1.224614
v -2.428452 1.098751 -1.058532
v -2.547042 0.174804 -1.058532
v -2.382187 0.154636 -1.224614
v -1.934921 1.895675 -1.224614
v -2.080649 1.978803 -1.058532
v -1.413271 2.567240 -1.224614
v -1.527424 2.691017 -1.058532
v -0.746678 3.003553 -1.224614
v -0.810967 3.159969 -1.058532
v -0.000000 3.155195 -1.224614
v -0.000000 3.324666 -1.058532
v 0.746678 3.003553 -1.224614
v 0.810966 3.159969 -1.058532
v 1.413271 2.567240 -1.224614
v 1.527424 2.691017 -1.058532
v 1.934921 1.895675 -1.224614
v 2.080649 1.978802 -1.058532
v 2.266366 1.057016 -1.224614
v 2.428452 1.098751 -1.058532
v 2.547042 0.174804 -1.058532
v 2.382187 0.154636 -1.224614
vt 0.325435 0.753211
vt 0.764606 0.689749
vt 0.646019 0.452290
vt 0.317504 0.818028
vt 0.580596 0.452292
vt 0.294607 0.876205
vt 0.519549 0.452293
vt 0.259320 0.921887
vt 0.463218 0.452294
vt 0.215525 0.950776
vt 0.410009 0.452296
vt 0.167595 0.960603
vt 0.356800 0.452297
vt 0.119666 0.950773
vt 0.300469 0.452298
vt 0.075872 0.921882
vt 0.239422 0.452299
vt 0.040588 0.876199
vt 0.173999 0.452301
vt 0.017694 0.818020
vt 0.106012 0.452302
vt 0.316238 0.683067
vt 0.714009 0.593010
vt 0.693418 0.670518
vt 0.669466 0.731399
vt 0.632155 0.779716
vt 0.585137 0.810740
vt 0.533014 0.821435
vt 0.480888 0.810752
vt 0.433863 0.779739
vt 0.396540 0.731430
vt 0.372574 0.670555
vt 0.364311 0.603072
vt 0.686224 0.603045
vt 0.689795 0.949568
vt 0.546503 0.603044
vt 0.634627 0.949568
vt 0.583911 0.949567
vt 0.537907 0.949567
vt 0.494994 0.949567
vt 0.452081 0.949566
vt 0.406077 0.949566
vt 0.355361 0.949565
vt 0.300193 0.949565
vt 0.242362 0.949565
vt 0.308929 0.812864
vt 0.689794 0.990234
vt 0.747626 0.990234
vt 0.741061 0.786777
vt 0.287472 0.866338
vt 0.634627 0.990234
vt 0.254402 0.908389
vt 0.583911 0.990233
vt 0.213116 0.935163
vt 0.537906 0.990233
vt 0.167596 0.944342
vt 0.494994 0.990232
vt 0.122076 0.935161
vt 0.452081 0.990232
vt 0.080791 0.908385
vt 0.406077 0.990232
vt 0.047723 0.866332
vt 0.355360 0.990231
vt 0.026269 0.812857
vt 0.300193 0.990231
vt 0.018824 0.753203
vt 0.346058 0.781130
vt 0.677900 0.250354
vt 0.611439 0.233162
vt 0.617738 0.208031
vt 0.685610 0.224570
vt 0.544656 0.221582
vt 0.549176 0.196054
vt 0.480928 0.213557
vt 0.484162 0.188000
vt 0.420897 0.208974
vt 0.422651 0.183458
vt 0.363186 0.208453
vt 0.363298 0.182202
vt 0.305411 0.209429
vt 0.303929 0.183920
vt 0.245223 0.214278
vt 0.242297 0.188709
vt 0.181249 0.222380
vt 0.177070 0.196830
vt 0.114043 0.233723
vt 0.108110 0.208538
vt 0.046707 0.250474
vt 0.039218 0.224655
vt 0.706481 0.673780
vt 0.645113 0.035641
vt 0.570557 0.023874
vt 0.681117 0.737980
vt 0.715339 0.604704
vt 0.715602 0.249999
vt 0.498398 0.015618
vt 0.641192 0.789391
vt 0.429229 0.011011
vt 0.590170 0.822796
vt 0.362175 0.009766
vt 0.533015 0.834410
vt 0.295180 0.011750
vt 0.475858 0.822809
vt 0.226248 0.017183
vt 0.424828 0.789416
vt 0.154461 0.026232
vt 0.384891 0.738014
vt 0.080460 0.038715
vt 0.359512 0.673820
vt 0.009766 0.052276
vt 0.205634 0.240818
vt 0.406782 0.603043
vt 0.413946 0.660429
vt 0.434488 0.711630
vt 0.465838 0.751496
vt 0.504436 0.776528
vt 0.546502 0.785012
vt 0.588567 0.776529
vt 0.627166 0.751497
vt 0.658516 0.711631
vt 0.679059 0.660432
vt 0.747627 0.949569
vt 0.350639 0.604746
vt 0.241782 0.300344
vt 0.227239 0.311034
vt 0.190228 0.250086
vt 0.287406 0.352146
vt 0.275115 0.365393
vt 0.339335 0.391394
vt 0.330188 0.407017
vt 0.395211 0.415827
vt 0.390244 0.433277
vt 0.452944 0.424107
vt 0.452947 0.442271
vt 0.510673 0.415807
vt 0.515646 0.433256
vt 0.566541 0.391356
vt 0.575694 0.406976
vt 0.618458 0.352091
vt 0.630753 0.365334
vt 0.716923 0.049293
vt 0.678610 0.310959
vt 0.664064 0.300273
vt 0.700192 0.240736
vt 0.174002 0.593022
vt 0.106015 0.593024
vt 0.239425 0.593021
vt 0.300472 0.593020
vt 0.356803 0.593018
vt 0.410012 0.593017
vt 0.463221 0.593016
vt 0.519553 0.593015
vt 0.580599 0.593013
vt 0.646022 0.593012
vt 0.701666 0.603033
vt 0.242361 0.990230
vt 0.375943 0.830642
vt 0.365663 0.838205
vt 0.334597 0.786737
vt 0.412548 0.871915
vt 0.403895 0.881312
vt 0.453131 0.902331
vt 0.446703 0.913395
vt 0.495333 0.920645
vt 0.491844 0.932984
vt 0.537816 0.926707
vt 0.537814 0.939544
vt 0.580299 0.920653
vt 0.583786 0.932994
vt 0.622505 0.902348
vt 0.628931 0.913413
vt 0.663094 0.871939
vt 0.671745 0.881338
vt 0.699708 0.830674
vt 0.709986 0.838238
vt 0.316377 0.753210
vt 0.729602 0.781168
vt 0.009766 0.753203
vt 0.349890 0.739028
vt 0.337552 0.748046
vt 0.302515 0.689782
vt 0.391159 0.785994
vt 0.380737 0.797191
vt 0.437137 0.820893
vt 0.429362 0.834100
vt 0.485151 0.842041
vt 0.480915 0.856806
vt 0.533572 0.849058
vt 0.533573 0.864438
vt 0.581992 0.842034
vt 0.586231 0.856799
vt 0.630003 0.820879
vt 0.637780 0.834085
vt 0.675976 0.785973
vt 0.686400 0.797169
vt 0.717239 0.739002
vt 0.729578 0.748018
vt 0.750883 0.683036
vt 0.714006 0.452289
vn -0.504774 0.061751 -0.861040
vn -0.990435 0.121165 -0.066020
vn -0.967788 0.242872 -0.066330
vn -0.482333 0.120969 -0.867595
vn -0.870190 0.488305 -0.065791
vn -0.415263 0.232836 -0.879400
vn -0.683737 0.726832 -0.064948
vn -0.309119 0.328228 -0.892587
vn -0.386991 0.919855 -0.064072
vn -0.167268 0.396972 -0.902460
vn 0.000000 0.997970 -0.063679
vn -0.000000 0.423104 -0.906081
vn 0.386991 0.919855 -0.064072
vn 0.167269 0.396972 -0.902460
vn 0.683737 0.726832 -0.064948
vn 0.309119 0.328228 -0.892587
vn 0.870190 0.488304 -0.065791
vn 0.415264 0.232836 -0.879399
vn 0.967788 0.242872 -0.066330
vn 0.482333 0.120969 -0.867595
vn 0.990435 0.121165 -0.066020
vn 0.504774 0.061752 -0.861040
vn -0.992600 0.121430 0.000000
vn -0.969922 0.243418 0.000000
vn -0.872067 0.489386 0.000000
vn -0.685155 0.728397 0.000000
vn -0.387753 0.921763 0.000000
vn 0.000000 1.000000 0.000000
vn 0.387753 0.921763 0.000000
vn 0.685155 0.728397 0.000000
vn 0.872068 0.489385 0.000000
vn 0.969922 0.243418 0.000000
vn 0.992600 0.121430 0.000000
vn 0.000000 -0.000000 -1.000000
vn -0.000000 -0.000000 -1.000000
vn -0.000000 -0.000000 -1.000000
vn 0.000001 0.000000 -1.000000
vn -0.000000 -0.000000 -1.000000
vn -0.000000 -0.000000 -1.000000
vn 0.000001 -0.000000 -1.000000
vn 0.000000 0.000000 -1.000000
vn -0.000001 0.000000 -1.000000
vn -0.000001 0.000000 -1.000000
vn 0.000000 -0.000000 -1.000000
vn 0.000000 -0.000000 -1.000000
vn 0.384554 -0.098186 -0.917866
vn 0.951157 -0.242725 -0.190751
vn 0.974456 -0.121654 -0.188775
vn 0.406568 -0.050757 -0.912210
vn 0.319828 -0.182403 -0.929752
vn 0.852553 -0.485893 -0.192516
vn 0.223932 -0.241646 -0.944173
vn 0.666941 -0.719012 -0.195477
vn 0.113299 -0.273126 -0.955283
vn 0.375927 -0.905071 -0.198811
vn -0.000000 -0.282221 -0.959349
vn -0.000000 -0.979715 -0.200398
vn -0.113299 -0.273126 -0.955283
vn -0.375927 -0.905071 -0.198811
vn -0.223932 -0.241646 -0.944173
vn -0.666941 -0.719012 -0.195477
vn -0.319828 -0.182402 -0.929752
vn -0.852553 -0.485893 -0.192516
vn -0.384554 -0.098186 -0.917866
vn -0.951157 -0.242725 -0.190751
vn -0.406567 -0.050757 -0.912210
vn -0.974456 -0.121654 -0.188775
vn 0.968955 -0.247236 0.000000
vn 0.992297 -0.123882 0.000000
vn 0.868839 -0.495094 0.000000
vn 0.680147 -0.733076 0.000000
vn 0.383690 -0.923462 0.000000
vn -0.000000 -1.000000 0.000000
vn -0.383690 -0.923462 0.000000
vn -0.680147 -0.733076 0.000000
vn -0.868840 -0.495094 0.000000
vn -0.968955 -0.247236 0.000000
vn -0.992297 -0.123881 0.000000
vn 0.000000 0.000000 1.000000
vn -0.000000 0.000000 1.000000
vn -0.000000 0.000000 1.000000
vn 0.000000 0.000000 1.000000
vn -0.000000 0.000000 1.000000
vn -0.000000 0.000000 1.000000
vn 0.000000 0.000000 1.000000
vn -0.000000 0.000000 1.000000
vn -0.000000 0.000000 1.000000
vn 0.000000 0.000000 1.000000
vn -0.000000 0.000000 1.000000
vn -0.000000 0.000000 1.000000
vn -0.000000 0.000000 1.000000
vn -0.000000 0.000000 1.000000
vn -0.000000 0.000000 1.000000
vn -0.000000 0.000000 1.000000
vn -0.000000 0.000000 1.000000
vn -0.000000 0.000000 1.000000
vn -0.000000 0.000000 1.000000
vn -0.000000 0.000000 1.000000
vn -0.000000 0.000000 1.000000
vn -0.000000 0.000000 1.000000
vn -0.450521 0.116112 -0.885183
vn -0.966188 0.249742 -0.064101
vn -0.868586 0.491487 -0.063238
vn -0.412227 0.233070 -0.880765
vn -0.437334 0.056132 -0.897546
vn -0.989613 0.127018 -0.067332
vn -0.679819 0.730716 -0.062453
vn -0.327727 0.351906 -0.876788
vn -0.382481 0.921902 -0.061687
vn -0.187325 0.450935 -0.872678
vn -0.000000 0.998116 -0.061359
vn -0.000000 0.491544 -0.870853
vn 0.382481 0.921902 -0.061687
vn 0.187325 0.450935 -0.872678
vn 0.679819 0.730716 -0.062453
vn 0.327727 0.351906 -0.876788
vn 0.868586 0.491487 -0.063238
vn 0.412227 0.233070 -0.880765
vn 0.966189 0.249742 -0.064101
vn 0.450521 0.116112 -0.885183
vn 0.989613 0.127018 -0.067332
vn 0.437334 0.056132 -0.897546
vn -0.991863 0.127307 -0.000000
vn -0.968168 0.250303 -0.000000
vn -0.870316 0.492493 -0.000000
vn -0.681124 0.732168 0.000000
vn -0.383184 0.923672 0.000000
vn -0.000000 1.000000 0.000000
vn 0.383184 0.923672 0.000000
vn 0.681124 0.732168 0.000000
vn 0.870316 0.492493 0.000000
vn 0.968168 0.250303 0.000000
vn 0.991863 0.127307 0.000000
vn 0.000001 -0.000000 -1.000000
vn 0.000001 0.000000 -1.000000
vn 0.000001 -0.000000 -1.000000
vn 0.000001 -0.000000 -1.000000
vn 0.000000 -0.000000 -1.000000
vn -0.000000 -0.000001 -1.000000
vn -0.000000 -0.000000 -1.000000
vn -0.000000 -0.000000 -1.000000
vn 0.000000 0.000000 -1.000000
vn 0.000000 0.000000 -1.000000
vn 0.000000 0.000000 -1.000000
s 1
g Entrance
f 13/198/1 12/2/2 14/197/3 15/196/4
f 15/196/4 14/197/3 16/195/5 17/194/6
f 17/194/6 16/195/5 18/193/7 19/192/8
f 19/192/8 18/193/7 20/191/9 21/190/10
f 21/190/10 20/191/9 22/189/11 23/188/12
f 23/188/12 22/189/11 24/187/13 25/186/14
f 25/186/14 24/187/13 26/185/15 27/184/16
f 27/184/16 26/185/15 28/183/17 29/182/18
f 29/182/18 28/183/17 30/180/19 31/179/20
f 31/179/20 30/180/19 33/181/21 32/22/22
f 68/23/23 69/154/24 14/3/3 12/199/2
f 69/154/24 70/153/25 16/5/5 14/3/3
f 70/153/25 71/152/26 18/7/7 16/5/5
f 71/152/26 72/151/27 20/9/9 18/7/7
f 72/151/27 73/150/28 22/11/11 20/9/9
f 73/150/28 74/149/29 24/13/13 22/11/11
f 74/149/29 75/148/30 26/15/15 24/13/13
f 75/148/30 76/147/31 28/17/17 26/15/15
f 76/147/31 77/145/32 30/19/19 28/17/17
f 77/145/32 78/146/33 33/21/21 30/19/19
s 2
f 35/34/34 34/121/35 45/36/36
f 34/121/35 36/120/37 45/36/36
f 36/120/37 37/119/38 45/36/36
f 37/119/38 38/118/39 45/36/36
f 38/118/39 39/117/40 45/36/36
f 39/117/40 40/116/41 45/36/36
f 40/116/41 41/115/42 45/36/36
f 41/115/42 42/114/43 45/36/36
f 42/114/43 43/113/44 45/36/36
f 43/113/44 44/112/45 45/36/36
s 1
f 46/175/46 47/174/47 49/177/48 48/49/49
f 47/174/47 46/175/46 50/173/50 51/172/51
f 51/172/51 50/173/50 52/171/52 53/170/53
f 53/170/53 52/171/52 54/169/54 55/168/55
f 55/168/55 54/169/54 56/167/56 57/166/57
f 57/166/57 56/167/56 58/165/58 59/164/59
f 59/164/59 58/165/58 60/163/60 61/162/61
f 61/162/61 60/163/60 62/161/62 63/160/63
f 63/160/63 62/161/62 64/158/64 65/157/65
f 65/157/65 64/158/64 67/159/66 66/67/67
f 13/1/1 15/4/4 46/46/46 48/176/49
f 15/4/4 17/6/6 50/50/50 46/46/46
f 17/6/6 19/8/8 52/52/52 50/50/50
f 19/8/8 21/10/10 54/54/54 52/52/52
f 21/10/10 23/12/12 56/56/56 54/54/54
f 23/12/12 25/14/14 58/58/58 56/56/56
f 25/14/14 27/16/16 60/60/60 58/58/58
f 27/16/16 29/18/18 62/62/62 60/60/60
f 29/18/18 31/20/20 64/64/64 62/62/62
f 31/20/20 32/178/22 67/66/66 64/64/64
f 49/48/48 47/47/47 34/35/68 35/122/69
f 47/47/47 51/51/51 36/37/70 34/35/68
f 51/51/51 53/53/53 37/38/71 36/37/70
f 53/53/53 55/55/55 38/39/72 37/38/71
f 55/55/55 57/57/57 39/40/73 38/39/72
f 57/57/57 59/59/59 40/41/74 39/40/73
f 59/59/59 61/61/61 41/42/75 40/41/74
f 61/61/61 63/63/63 42/43/76 41/42/75
f 63/63/63 65/65/65 43/44/77 42/43/76
f 65/65/65 66/156/67 44/45/78 43/44/77
s 4
f 1/68/79 2/69/80 80/70/81 79/71/82
f 2/69/80 3/72/83 81/73/84 80/70/81
f 3/72/83 4/74/85 82/75/86 81/73/84
f 4/74/85 5/76/87 83/77/88 82/75/86
f 5/76/87 6/78/89 84/79/90 83/77/88
f 6/78/89 7/80/91 85/81/92 84/79/90
f 7/80/91 8/82/93 86/83/94 85/81/92
f 8/82/93 9/84/95 87/85/96 86/83/94
f 9/84/95 10/86/97 88/87/98 87/85/96
f 10/86/97 11/88/99 89/89/100 88/87/98
s 5
f 90/143/101 91/142/102 95/140/103 94/139/104
f 91/142/102 90/143/101 93/144/105 92/95/106
f 94/139/104 95/140/103 97/138/107 96/137/108
f 96/137/108 97/138/107 99/136/109 98/135/110
f 98/135/110 99/136/109 101/134/111 100/133/112
f 100/133/112 101/134/111 103/132/113 102/131/114
f 102/131/114 103/132/113 105/130/115 104/129/116
f 104/129/116 105/130/115 107/128/117 106/127/118
f 106/127/118 107/128/117 109/125/119 108/124/120
f 108/124/120 109/125/119 110/126/121 111/111/122
f 79/71/123 80/70/124 91/91/102 92/141/106
f 80/70/124 81/73/125 95/92/103 91/91/102
f 81/73/125 82/75/126 97/96/107 95/92/103
f 82/75/126 83/77/127 99/98/109 97/96/107
f 83/77/127 84/79/128 101/100/111 99/98/109
f 84/79/128 85/81/129 103/102/113 101/100/111
f 85/81/129 86/83/130 105/104/115 103/102/113
f 86/83/130 87/85/131 107/106/117 105/104/115
f 87/85/131 88/87/132 109/108/119 107/106/117
f 88/87/132 89/89/133 110/110/121 109/108/119
f 69/24/134 68/155/135 93/94/105 90/90/101
f 70/25/136 69/24/134 90/90/101 94/93/104
f 71/26/137 70/25/136 94/93/104 96/97/108
f 72/27/138 71/26/137 96/97/108 98/99/110
f 73/28/139 72/27/138 98/99/110 100/101/112
f 74/29/140 73/28/139 100/101/112 102/103/114
f 75/30/141 74/29/140 102/103/114 104/105/116
f 76/31/142 75/30/141 104/105/116 106/107/118
f 77/32/143 76/31/142 106/107/118 108/109/120
f 78/33/144 77/32/143 108/109/120 111/123/122
