# This file uses centimeters as units for non-parametric coordinates.

mtllib Curved_Monolith_UV.mtl
g default
v -0.401000 5.607000 5.940000
v -0.375540 5.686041 5.939975
v -0.395196 5.609199 6.229563
v -0.416103 5.534003 6.209129
v 0.039662 5.929760 5.939889
v -0.040474 5.929482 5.939889
v 0.018069 5.873293 6.301319
v -0.062081 5.869238 6.300219
v -0.208069 5.166122 5.940153
v -0.274347 5.217208 5.940133
v -0.262915 5.148297 6.104328
v -0.195131 5.105708 6.092754
v 0.272613 5.213183 5.940137
v 0.207944 5.166122 5.940153
v 0.232623 5.127129 6.098575
v 0.295139 5.175988 6.111850
v 0.376295 5.685182 5.939975
v 0.401088 5.608594 5.940000
v 0.406260 5.575363 6.220366
v 0.377519 5.647778 6.240043
v -0.505570 4.757705 8.047661
v -0.494397 4.685817 8.012003
v -0.185587 5.207028 8.270533
v -0.257893 5.175282 8.254785
v -0.127479 4.345618 7.843263
v -0.048198 4.332994 7.837001
v 0.426746 4.540658 7.940005
v 0.464480 4.604580 7.971711
v 0.390853 5.072981 8.204041
v 0.334946 5.124935 8.229813
v -0.525995 3.519698 9.570250
v -0.483341 3.464095 9.522832
v -0.418342 4.039823 10.013787
v -0.472407 3.991524 9.972599
v 0.094070 3.278149 9.364268
v 0.172462 3.292193 9.376244
v 0.583538 3.652787 9.683741
v 0.590242 3.715146 9.736918
v 0.266949 4.123571 10.085200
v 0.193026 4.147739 10.105813
v -0.312170 1.498078 10.442810
v -0.237289 1.492179 10.411865
v -0.719699 1.638518 11.179509
v -0.725883 1.623010 11.098148
v 0.527165 1.527352 10.596373
v 0.580070 1.539343 10.659263
v 0.637381 1.685644 11.426716
v 0.594019 1.698907 11.496285
v -0.134467 1.754568 11.788252
v -0.212710 1.750881 11.768927
v -0.048340 -0.414948 10.699884
v 0.033289 -0.414823 10.698969
v -0.779815 -0.496480 11.297357
v -0.755263 -0.485704 11.218382
v 0.750326 -0.483949 11.205529
v 0.775939 -0.494490 11.282776
v 0.511570 -0.607936 12.114095
v 0.446610 -0.614500 12.162204
v -0.434717 -0.615565 12.169992
v -0.500940 -0.609103 12.122654
v 0.281602 -2.123875 10.002721
v 0.358101 -2.141444 10.027567
v -0.712282 -2.306175 10.260551
v -0.660073 -2.267777 10.206244
v 0.884978 -2.612967 10.694452
v 0.880149 -2.661445 10.763018
v 0.265641 -3.096839 11.378803
v 0.187461 -3.108995 11.395997
v -0.721220 -2.905789 11.108601
v -0.765947 -2.864901 11.050772
v 0.668194 -3.264646 8.770526
v 0.726191 -3.320186 8.794606
v -0.470031 -3.132431 8.713202
v -0.396662 -3.098371 8.698432
v 0.882458 -4.298043 9.218571
v 0.843979 -4.365919 9.248001
v -0.124121 -4.805695 9.438672
v -0.204029 -4.792971 9.433157
v -0.958729 -4.084439 9.125960
v -0.970826 -4.009117 9.093304
v 1.015507 -4.130928 6.976147
v 0.986174 -4.051498 6.967709
v -0.075474 -3.393123 6.897766
v 0.006452 -3.390803 6.897519
v 0.622016 -5.312652 7.101690
v 0.686612 -5.260804 7.096181
v -0.631721 -5.306494 7.101036
v -0.564995 -5.350906 7.105755
v -1.013342 -4.118009 6.974776
v -1.035552 -4.194516 6.982902
v -0.047571 5.553136 5.940019
v -0.046984 -4.470437 7.012217
vt 0.961513 0.029443
vt 0.940909 0.021081
vt 0.961971 0.005795
vt 0.967007 0.005781
vt 0.066071 0.867202
vt 0.067909 0.935276
vt 0.005781 0.917878
vt 0.007171 0.913044
vt 0.074929 0.009161
vt 0.079420 0.005781
vt 0.095134 0.015687
vt 0.090970 0.019530
vt 0.219152 0.054913
vt 0.214838 0.058574
vt 0.047553 0.033767
vt 0.053668 0.027459
vt 0.072809 0.041061
vt 0.066537 0.044850
vt 0.195785 0.085875
vt 0.187887 0.088313
vt 0.024429 0.137750
vt 0.026572 0.133765
vt 0.036310 0.136352
vt 0.035505 0.142064
vt 0.144544 0.192646
vt 0.145416 0.199070
vt 0.032451 0.107831
vt 0.031904 0.100553
vt 0.042382 0.102020
vt 0.043529 0.109511
vt 0.153225 0.152989
vt 0.155434 0.160907
vt 0.032389 0.070610
vt 0.034549 0.061309
vt 0.051740 0.068528
vt 0.049317 0.074675
vt 0.169027 0.116487
vt 0.165649 0.121756
vt 0.343472 0.098254
vt 0.339614 0.102399
vt 0.317205 0.132352
vt 0.309632 0.134087
vt 0.254692 0.247779
vt 0.256347 0.255819
vt 0.265806 0.202806
vt 0.267040 0.210434
vt 0.285835 0.164720
vt 0.281035 0.167970
vt 0.485898 0.141140
vt 0.484389 0.145625
vt 0.471437 0.189816
vt 0.468101 0.191706
vt 0.386360 0.313284
vt 0.388026 0.319198
vt 0.413951 0.272441
vt 0.412751 0.276765
vt 0.445498 0.231595
vt 0.441106 0.234068
vt 0.612539 0.182267
vt 0.612312 0.187868
vt 0.596876 0.239238
vt 0.597467 0.243588
vt 0.517078 0.376061
vt 0.516260 0.379301
vt 0.543723 0.332526
vt 0.541551 0.334368
vt 0.575737 0.289246
vt 0.572888 0.291501
vt 0.734690 0.207973
vt 0.735968 0.213553
vt 0.726654 0.273612
vt 0.731653 0.281400
vt 0.654176 0.435341
vt 0.648631 0.435868
vt 0.691043 0.390032
vt 0.687750 0.392258
vt 0.720136 0.338396
vt 0.719397 0.342569
vt 0.846168 0.206435
vt 0.846440 0.211386
vt 0.842323 0.279399
vt 0.849053 0.289425
vt 0.793620 0.486254
vt 0.783142 0.486127
vt 0.843735 0.432879
vt 0.840490 0.436305
vt 0.853081 0.360317
vt 0.857656 0.368783
vt 0.971167 0.188131
vt 0.969820 0.193279
vt 0.961612 0.265301
vt 0.966939 0.270020
vt 0.928144 0.550487
vt 0.912349 0.556370
vt 0.988779 0.456997
vt 0.980291 0.479455
vt 0.983020 0.348992
vt 0.991121 0.367145
vt 0.020357 0.164123
vt 0.005781 0.154655
vt 0.128543 0.226816
vt 0.235495 0.287803
vt 0.361736 0.358891
vt 0.487764 0.423645
vt 0.617789 0.483964
vt 0.738010 0.534611
vt 0.851626 0.604931
vt 0.989707 0.025975
vt 0.988152 0.021161
vt 0.977552 0.053773
vt 0.981618 0.050817
vt 0.939306 0.026046
vt 0.947250 0.050542
vt 0.951412 0.053755
vt 0.071215 0.867052
vt 0.132809 0.908753
vt 0.114042 0.985184
vt 0.134655 0.913771
vt 0.035395 0.990934
vt 0.109983 0.988463
vt 0.031197 0.988129
vn 0.000000 -0.000275 -1.000000
vn 0.000000 -0.000275 -1.000000
vn 0.000000 -0.000275 -1.000000
vn 0.000000 -0.000275 -1.000000
vn 0.000000 -0.105637 -0.994405
vn 0.000000 -0.105637 -0.994405
vn 0.000000 -0.105637 -0.994405
vn 0.000000 -0.105637 -0.994405
vn -0.958142 0.285788 0.016999
vn -0.958142 0.285788 0.016999
vn -0.995113 0.097793 -0.013704
vn -0.994523 0.103744 -0.012728
vn -0.994523 0.103744 -0.012728
vn -0.995113 0.097793 -0.013704
vn -0.986917 -0.104201 -0.123033
vn -0.990322 -0.083506 -0.110854
vn -0.027745 0.987066 0.157893
vn -0.027745 0.987066 0.157893
vn -0.219184 0.935674 0.276536
vn -0.213746 0.937882 0.273295
vn -0.213746 0.937882 0.273295
vn -0.219184 0.935674 0.276536
vn -0.454131 0.817764 0.353593
vn -0.432062 0.832045 0.347884
vn -0.566603 -0.777232 -0.273626
vn -0.566603 -0.777232 -0.273626
vn -0.380881 -0.854456 -0.353320
vn -0.386572 -0.852773 -0.351199
vn -0.386572 -0.852773 -0.351199
vn -0.380881 -0.854456 -0.353320
vn -0.163230 -0.860987 -0.481724
vn -0.189998 -0.863399 -0.467379
vn 0.598485 -0.757621 -0.260435
vn 0.598485 -0.757621 -0.260435
vn 0.759801 -0.596511 -0.258608
vn 0.757120 -0.599843 -0.258763
vn 0.757120 -0.599843 -0.258763
vn 0.759801 -0.596511 -0.258608
vn 0.892361 -0.392020 -0.223632
vn 0.879570 -0.417244 -0.228615
vn 0.941953 0.334373 0.030309
vn 0.941953 0.334373 0.030309
vn 0.856065 0.499409 0.133200
vn 0.858539 0.495774 0.130841
vn 0.858539 0.495774 0.130841
vn 0.856065 0.499409 0.133200
vn 0.709150 0.640779 0.294123
vn 0.726622 0.628435 0.277652
vn -0.990322 -0.083506 -0.110854
vn -0.986917 -0.104201 -0.123033
vn -0.942136 -0.258952 -0.212894
vn -0.942136 -0.258952 -0.212894
vn -0.432062 0.832045 0.347884
vn -0.454131 0.817764 0.353593
vn -0.611611 0.688984 0.388887
vn -0.611611 0.688984 0.388887
vn -0.189998 -0.863399 -0.467379
vn -0.163230 -0.860987 -0.481724
vn 0.027988 -0.821255 -0.569875
vn 0.027988 -0.821255 -0.569875
vn 0.879570 -0.417244 -0.228615
vn 0.892361 -0.392020 -0.223632
vn 0.959345 -0.213046 -0.185117
vn 0.959345 -0.213046 -0.185117
vn 0.726622 0.628435 0.277652
vn 0.709150 0.640779 0.294123
vn 0.565858 0.716754 0.407516
vn 0.565858 0.716754 0.407516
vn -0.641578 -0.370174 -0.671825
vn -0.641578 -0.370174 -0.671825
vn -0.641578 -0.370174 -0.671825
vn -0.641578 -0.370174 -0.671825
vn -0.913489 0.257557 0.314965
vn -0.913489 0.257557 0.314965
vn -0.979775 0.154063 0.127694
vn -0.983214 0.144706 0.111131
vn 0.511210 -0.416873 -0.751586
vn 0.511210 -0.416873 -0.751586
vn 0.511210 -0.416873 -0.751586
vn 0.511210 -0.416873 -0.751586
vn 0.967840 0.173857 0.181823
vn 0.967840 0.173857 0.181823
vn 0.967840 0.173857 0.181823
vn 0.967840 0.173857 0.181823
vn 0.082988 0.565533 0.820540
vn 0.082988 0.565533 0.820540
vn 0.082988 0.565533 0.820540
vn 0.082988 0.565533 0.820540
vn -0.202573 -0.165824 -0.965125
vn -0.202573 -0.165824 -0.965125
vn -0.202573 -0.165824 -0.965125
vn -0.202573 -0.165824 -0.965125
vn -0.983214 0.144706 0.111131
vn -0.979775 0.154063 0.127694
vn -0.952333 0.115215 -0.282467
vn -0.959357 0.103225 -0.262639
vn 0.871192 -0.058297 -0.487469
vn 0.871192 -0.058297 -0.487469
vn 0.961937 0.023532 -0.272257
vn 0.947983 0.006624 -0.318253
vn 0.731544 0.151845 0.664671
vn 0.731544 0.151845 0.664671
vn 0.582258 -0.111073 0.805381
vn 0.611043 -0.069067 0.788578
vn -0.408340 0.189580 0.892927
vn -0.408340 0.189580 0.892927
vn -0.600766 -0.034274 0.798690
vn -0.580200 -0.006867 0.814445
vn 0.179766 0.393439 -0.901604
vn 0.179766 0.393439 -0.901604
vn 0.179766 0.393439 -0.901604
vn 0.179766 0.393439 -0.901604
vn -0.959357 0.103225 -0.262639
vn -0.952333 0.115215 -0.282467
vn -0.772845 0.441482 -0.455857
vn -0.805519 0.382965 -0.452191
vn 0.947983 0.006624 -0.318253
vn 0.961937 0.023532 -0.272257
vn 0.995452 -0.069953 0.064673
vn 0.998259 -0.045875 0.037084
vn 0.611043 -0.069067 0.788578
vn 0.582258 -0.111073 0.805381
vn 0.428142 -0.300160 0.852407
vn 0.428142 -0.300160 0.852407
vn -0.580200 -0.006867 0.814445
vn -0.600766 -0.034274 0.798690
vn -0.851227 -0.246151 0.463490
vn -0.827902 -0.242272 0.505848
vn 0.547270 0.686658 -0.478536
vn 0.547270 0.686658 -0.478536
vn 0.759616 0.604048 -0.241058
vn 0.711195 0.632540 -0.306747
vn -0.805519 0.382965 -0.452191
vn -0.772845 0.441482 -0.455857
vn -0.619071 0.642846 -0.451110
vn -0.619071 0.642846 -0.451110
vn 0.998259 -0.045875 0.037084
vn 0.995452 -0.069953 0.064673
vn 0.870838 -0.447628 0.203150
vn 0.899250 -0.386901 0.204103
vn 0.045264 -0.758380 0.650240
vn 0.045264 -0.758380 0.650240
vn 0.045264 -0.758380 0.650240
vn 0.045264 -0.758380 0.650240
vn -0.827902 -0.242272 0.505848
vn -0.851227 -0.246151 0.463490
vn -0.986168 -0.089119 0.139752
vn -0.980392 -0.116434 0.158979
vn 0.711195 0.632540 -0.306747
vn 0.759616 0.604048 -0.241058
vn 0.845935 0.525630 -0.090041
vn 0.845935 0.525630 -0.090041
vn -0.241702 0.949808 -0.198606
vn -0.241702 0.949808 -0.198606
vn -0.241702 0.949808 -0.198606
vn -0.241702 0.949808 -0.198606
vn 0.899250 -0.386901 0.204103
vn 0.870838 -0.447628 0.203150
vn 0.770726 -0.606338 0.195795
vn 0.770726 -0.606338 0.195795
vn -0.365873 -0.890571 0.270223
vn -0.365873 -0.890571 0.270223
vn -0.365873 -0.890571 0.270223
vn -0.365873 -0.890571 0.270223
vn -0.980392 -0.116434 0.158979
vn -0.986168 -0.089119 0.139752
vn -0.997048 0.072885 0.024143
vn -0.997048 0.072885 0.024143
vn -0.761383 0.624440 0.174269
vn -0.605462 0.785632 0.127276
vn -0.605462 0.785632 0.127276
vn -0.764688 0.620101 0.175292
vn -0.843450 -0.492806 -0.213854
vn -0.939337 -0.323520 -0.113934
vn -0.939337 -0.323520 -0.113934
vn -0.840371 -0.496964 -0.216342
vn 0.251760 -0.898298 -0.360107
vn 0.026218 -0.951273 -0.307233
vn 0.026218 -0.951273 -0.307233
vn 0.255630 -0.896921 -0.360813
vn 0.997414 -0.049258 -0.052341
vn 0.956263 -0.274408 -0.101297
vn 0.956263 -0.274408 -0.101297
vn 0.997604 -0.046085 -0.051609
vn 0.376233 0.886362 0.269836
vn 0.562650 0.815910 0.133101
vn 0.562650 0.815910 0.133101
vn 0.372199 0.887246 0.272511
vn -0.761383 0.624440 0.174269
vn -0.764688 0.620101 0.175292
vn -0.903015 0.404077 0.145894
vn -0.894226 0.421980 0.149307
vn -0.843450 -0.492806 -0.213854
vn -0.840371 -0.496964 -0.216342
vn -0.683339 -0.625133 -0.377168
vn -0.698972 -0.615800 -0.363633
vn 0.251760 -0.898298 -0.360107
vn 0.255630 -0.896921 -0.360813
vn 0.484779 -0.765459 -0.423156
vn 0.464498 -0.780512 -0.418381
vn 0.997414 -0.049258 -0.052341
vn 0.997604 -0.046085 -0.051609
vn 0.980769 0.179806 0.075909
vn 0.984939 0.160545 0.064187
vn 0.376233 0.886362 0.269836
vn 0.372199 0.887246 0.272511
vn 0.121564 0.896269 0.426526
vn 0.142041 0.898489 0.415382
vn -0.894226 0.421980 0.149307
vn -0.903015 0.404077 0.145894
vn -0.962158 0.247064 0.114940
vn -0.962158 0.247064 0.114940
vn -0.698972 -0.615800 -0.363633
vn -0.683339 -0.625133 -0.377168
vn -0.548153 -0.687206 -0.476735
vn -0.548153 -0.687206 -0.476735
vn 0.464498 -0.780512 -0.418381
vn 0.484779 -0.765459 -0.423156
vn 0.620450 -0.642945 -0.449070
vn 0.620450 -0.642945 -0.449070
vn 0.984939 0.160545 0.064187
vn 0.980769 0.179806 0.075909
vn 0.934769 0.317389 0.159595
vn 0.934769 0.317389 0.159595
vn 0.142041 0.898489 0.415382
vn 0.121564 0.896269 0.426526
vn -0.042579 0.861498 0.505972
vn -0.042579 0.861498 0.505972
vn -0.958230 -0.111244 -0.263477
vn -0.958230 -0.111244 -0.263477
vn -0.861430 -0.111986 -0.495377
vn -0.853491 -0.111764 -0.508982
vn -0.039403 -0.500060 -0.865094
vn -0.039403 -0.500060 -0.865094
vn -0.039403 -0.500060 -0.865094
vn -0.039403 -0.500060 -0.865094
vn 0.930370 -0.154874 -0.332303
vn 0.930370 -0.154874 -0.332303
vn 0.999336 -0.017976 -0.031710
vn 0.990311 -0.060523 -0.124983
vn 0.600954 0.461010 0.652934
vn 0.600954 0.461010 0.652934
vn 0.600954 0.461010 0.652934
vn 0.600954 0.461010 0.652934
vn -0.522063 0.488948 0.698842
vn -0.522063 0.488948 0.698842
vn -0.522063 0.488948 0.698842
vn -0.522063 0.488948 0.698842
vn -0.853491 -0.111764 -0.508982
vn -0.861430 -0.111986 -0.495377
vn -0.576337 0.156575 -0.802072
vn -0.595771 0.127700 -0.792937
vn 0.414910 -0.152822 -0.896937
vn 0.414910 -0.152822 -0.896937
vn 0.620130 0.104510 -0.777506
vn 0.589158 0.059544 -0.805821
vn 0.990311 -0.060523 -0.124983
vn 0.999336 -0.017976 -0.031710
vn 0.936815 -0.072915 0.342142
vn 0.949505 -0.052803 0.309278
vn 0.185897 0.197526 0.962510
vn 0.185897 0.197526 0.962510
vn 0.185897 0.197526 0.962510
vn 0.185897 0.197526 0.962510
vn -0.868073 0.117846 0.482246
vn -0.868073 0.117846 0.482246
vn -0.954517 0.043430 0.294977
vn -0.949256 0.049535 0.310579
vn -0.595771 0.127700 -0.792937
vn -0.576337 0.156575 -0.802072
vn -0.413217 0.359375 -0.836720
vn -0.413217 0.359375 -0.836720
vn 0.589158 0.059544 -0.805821
vn 0.620130 0.104510 -0.777506
vn 0.867624 0.299728 -0.396727
vn 0.849023 0.298187 -0.436170
vn 0.949505 -0.052803 0.309278
vn 0.936815 -0.072915 0.342142
vn 0.869353 -0.153133 0.469869
vn 0.869353 -0.153133 0.469869
vn -0.182081 -0.332666 0.925300
vn -0.182081 -0.332666 0.925300
vn -0.182081 -0.332666 0.925300
vn -0.182081 -0.332666 0.925300
vn -0.949256 0.049535 0.310579
vn -0.954517 0.043430 0.294977
vn -0.991702 0.126869 -0.020784
vn -0.994954 0.100081 0.007051
vn -0.029514 0.808083 -0.588329
vn -0.029514 0.808083 -0.588329
vn -0.029514 0.808083 -0.588329
vn -0.029514 0.808083 -0.588329
vn 0.849023 0.298187 -0.436170
vn 0.867624 0.299728 -0.396727
vn 0.996972 0.068736 -0.036352
vn 0.990190 0.120493 -0.070745
vn 0.600842 -0.604443 0.523104
vn 0.600842 -0.604443 0.523104
vn 0.600842 -0.604443 0.523104
vn 0.600842 -0.604443 0.523104
vn -0.544185 -0.635447 0.547786
vn -0.544185 -0.635447 0.547786
vn -0.733209 -0.581818 0.351984
vn -0.712571 -0.591006 0.378093
vn -0.994954 0.100081 0.007051
vn -0.991702 0.126869 -0.020784
vn -0.862594 0.485974 -0.140577
vn -0.878678 0.455728 -0.142255
vn 0.379367 0.904482 -0.194918
vn 0.379367 0.904482 -0.194918
vn 0.379367 0.904482 -0.194918
vn 0.379367 0.904482 -0.194918
vn 0.990190 0.120493 -0.070745
vn 0.996972 0.068736 -0.036352
vn 0.996247 -0.067607 0.054055
vn 0.996247 -0.067607 0.054055
vn 0.231848 -0.932672 0.276349
vn 0.231848 -0.932672 0.276349
vn 0.231848 -0.932672 0.276349
vn 0.231848 -0.932672 0.276349
vn -0.712571 -0.591006 0.378093
vn -0.733209 -0.581818 0.351984
vn -0.849089 -0.501640 0.165544
vn -0.849089 -0.501640 0.165544
vn -0.878678 0.455728 -0.142255
vn -0.862594 0.485974 -0.140577
vn -0.755708 0.642296 -0.127910
vn -0.755708 0.642296 -0.127910
vn 0.000000 -0.000275 -1.000000
vn 0.000000 -0.000275 -1.000000
vn 0.000000 -0.000275 -1.000000
vn 0.000000 -0.000275 -1.000000
vn 0.000000 -0.000275 -1.000000
vn 0.000000 -0.000275 -1.000000
vn 0.000000 -0.000275 -1.000000
vn 0.000000 -0.000275 -1.000000
vn 0.000000 -0.000275 -1.000000
vn 0.000000 -0.000275 -1.000000
vn 0.000000 -0.000275 -1.000000
vn 0.000000 -0.000275 -1.000000
vn 0.000000 -0.000275 -1.000000
vn 0.000000 -0.000275 -1.000000
vn 0.000000 -0.000275 -1.000000
vn 0.000000 -0.000275 -1.000000
vn 0.000000 -0.105637 -0.994405
vn 0.000000 -0.105637 -0.994405
vn 0.000000 -0.105637 -0.994405
vn 0.000000 -0.105637 -0.994405
vn 0.000000 -0.105637 -0.994405
vn 0.000000 -0.105637 -0.994405
vn 0.000000 -0.105637 -0.994405
vn 0.000000 -0.105637 -0.994405
vn 0.000000 -0.105637 -0.994405
vn 0.000000 -0.105637 -0.994405
vn 0.000000 -0.105637 -0.994405
vn 0.000000 -0.105637 -0.994405
vn 0.000000 -0.105637 -0.994405
vn 0.000000 -0.105637 -0.994405
vn 0.000000 -0.105637 -0.994405
vn 0.000000 -0.105637 -0.994405
s off
g Curved_Monolith1:Curved_Monolith_1 Curved_Monolith_X
usemtl Maya_Lambert4SG
f 91/1/1 2/2/2 6/3/3 5/4/4
f 83/5/5 92/6/6 90/7/7 89/8/8
f 2/9/9 1/10/10 4/11/11 3/12/12
f 3/12/13 4/11/14 22/13/15 21/14/16
f 5/15/17 6/16/18 8/17/19 7/18/20
f 7/18/21 8/17/22 24/19/23 23/20/24
f 10/21/25 9/22/26 12/23/27 11/24/28
f 11/24/29 12/23/30 26/25/31 25/26/32
f 14/27/33 13/28/34 16/29/35 15/30/36
f 15/30/37 16/29/38 28/31/39 27/32/40
f 18/33/41 17/34/42 20/35/43 19/36/44
f 19/36/45 20/35/46 30/37/47 29/38/48
f 21/14/49 22/13/50 32/39/51 31/40/52
f 23/20/53 24/19/54 34/41/55 33/42/56
f 25/26/57 26/25/58 36/43/59 35/44/60
f 27/32/61 28/31/62 38/45/63 37/46/64
f 29/38/65 30/37/66 40/47/67 39/48/68
f 31/40/69 32/39/70 42/49/71 41/50/72
f 33/42/73 34/41/74 44/51/75 43/52/76
f 35/44/77 36/43/78 46/53/79 45/54/80
f 37/46/81 38/45/82 48/55/83 47/56/84
f 39/48/85 40/47/86 50/57/87 49/58/88
f 41/50/89 42/49/90 52/59/91 51/60/92
f 43/52/93 44/51/94 54/61/95 53/62/96
f 45/54/97 46/53/98 56/63/99 55/64/100
f 47/56/101 48/55/102 58/65/103 57/66/104
f 49/58/105 50/57/106 60/67/107 59/68/108
f 51/60/109 52/59/110 62/69/111 61/70/112
f 53/62/113 54/61/114 64/71/115 63/72/116
f 55/64/117 56/63/118 66/73/119 65/74/120
f 57/66/121 58/65/122 68/75/123 67/76/124
f 59/68/125 60/67/126 70/77/127 69/78/128
f 61/70/129 62/69/130 72/79/131 71/80/132
f 63/72/133 64/71/134 74/81/135 73/82/136
f 65/74/137 66/73/138 76/83/139 75/84/140
f 67/76/141 68/75/142 78/85/143 77/86/144
f 69/78/145 70/77/146 80/87/147 79/88/148
f 71/80/149 72/79/150 81/89/151 82/90/152
f 73/82/153 74/81/154 84/91/155 83/92/156
f 75/84/157 76/83/158 85/93/159 86/94/160
f 77/86/161 78/85/162 87/95/163 88/96/164
f 79/88/165 80/87/166 89/97/167 90/98/168
f 8/17/169 6/16/170 2/9/171 3/12/172
f 4/99/173 1/100/174 10/21/175 11/24/176
f 12/23/177 9/22/178 14/27/179 15/30/180
f 16/29/181 13/28/182 18/33/183 19/36/184
f 20/35/185 17/34/186 5/15/187 7/18/188
f 8/17/189 3/12/190 21/14/191 24/19/192
f 4/99/193 11/24/194 25/26/195 22/101/196
f 12/23/197 15/30/198 27/32/199 26/25/200
f 16/29/201 19/36/202 29/38/203 28/31/204
f 20/35/205 7/18/206 23/20/207 30/37/208
f 24/19/209 21/14/210 31/40/211 34/41/212
f 22/101/213 25/26/214 35/44/215 32/102/216
f 26/25/217 27/32/218 37/46/219 36/43/220
f 28/31/221 29/38/222 39/48/223 38/45/224
f 30/37/225 23/20/226 33/42/227 40/47/228
f 34/41/229 31/40/230 41/50/231 44/51/232
f 32/102/233 35/44/234 45/54/235 42/103/236
f 36/43/237 37/46/238 47/56/239 46/53/240
f 38/45/241 39/48/242 49/58/243 48/55/244
f 40/47/245 33/42/246 43/52/247 50/57/248
f 44/51/249 41/50/250 51/60/251 54/61/252
f 42/103/253 45/54/254 55/64/255 52/104/256
f 46/53/257 47/56/258 57/66/259 56/63/260
f 48/55/261 49/58/262 59/68/263 58/65/264
f 50/57/265 43/52/266 53/62/267 60/67/268
f 54/61/269 51/60/270 61/70/271 64/71/272
f 52/104/273 55/64/274 65/74/275 62/105/276
f 56/63/277 57/66/278 67/76/279 66/73/280
f 58/65/281 59/68/282 69/78/283 68/75/284
f 60/67/285 53/62/286 63/72/287 70/77/288
f 64/71/289 61/70/290 71/80/291 74/81/292
f 62/105/293 65/74/294 75/84/295 72/106/296
f 66/73/297 67/76/298 77/86/299 76/83/300
f 68/75/301 69/78/302 79/88/303 78/85/304
f 70/77/305 63/72/306 73/82/307 80/87/308
f 74/81/309 71/80/310 82/90/311 84/91/312
f 72/106/313 75/84/314 86/94/315 81/107/316
f 76/83/317 77/86/318 88/96/319 85/93/320
f 78/85/321 79/88/322 90/98/323 87/95/324
f 80/87/325 73/82/326 83/92/327 89/97/328
f 18/108/329 91/1/330 5/4/331 17/109/332
f 14/110/333 91/1/334 18/108/335 13/111/336
f 1/112/337 2/2/338 91/1/339 10/113/340
f 10/113/341 91/1/342 14/110/343 9/114/344
f 83/5/345 84/115/346 82/116/347 92/6/348
f 86/117/349 92/6/350 82/116/351 81/118/352
f 88/119/353 92/6/354 86/117/355 85/120/356
f 90/7/357 92/6/358 88/119/359 87/121/360
