# author: headus 3D tools
#  using: ply2obj v1.8
#   from: uvlayout v2.09.04
mtllib HoverRing_LP.mtl
# 720 vertices
v 3.332000 0.000000 -1.083000
v 2.834410 0.000000 -2.059598
v 2.059391 0.000000 -2.834612
v 1.082794 0.000000 -3.332205
v 0.000239 0.000000 -3.503665
v -1.082318 0.000000 -3.332205
v -2.058912 0.000000 -2.834612
v -2.833928 0.000000 -2.059595
v -3.331522 0.000000 -1.083000
v -3.502983 0.000000 -0.000444
v -3.331522 0.000000 1.082112
v -2.833931 0.000000 2.058705
v -2.058912 0.000000 2.833724
v -1.082318 0.000000 3.331318
v 0.000239 0.000000 3.502777
v 1.082794 0.000000 3.331317
v 2.059391 0.000000 2.833725
v 2.834406 0.000000 2.058705
v 3.332000 0.000000 1.082112
v 3.503458 0.000000 -0.000444
v 4.284988 0.864003 -1.392636
v 3.645056 0.864003 -2.648557
v 2.648353 0.864003 -3.645257
v 1.392432 0.864003 -4.285193
v 0.000239 0.864003 -4.505685
v -1.391954 0.864003 -4.285193
v -2.647873 0.864003 -3.645257
v -3.644580 0.864003 -2.648557
v -4.284513 0.864003 -1.392636
v -4.505004 0.864003 -0.000444
v -4.284513 0.864003 1.391745
v -3.644573 0.864003 2.647669
v -2.647872 0.864003 3.644375
v -1.391953 0.864003 4.284307
v 0.000239 0.864003 4.504798
v 1.392430 0.864003 4.284303
v 2.648351 0.864003 3.644368
v 3.645056 0.864003 2.647670
v 4.284988 0.864003 1.391746
v 4.505478 0.864003 -0.000444
v 4.558768 0.820660 -1.481594
v 3.877944 0.820660 -2.817757
v 2.817555 0.820660 -3.878147
v 1.481388 0.820660 -4.558975
v 0.000239 0.820660 -4.793557
v -1.480912 0.820660 -4.558975
v -2.817075 0.820660 -3.878149
v -3.877467 0.820660 -2.817757
v -4.558291 0.820660 -1.481594
v -4.792875 0.820660 -0.000444
v -4.558291 0.820660 1.480705
v -3.877466 0.820660 2.816869
v -2.817075 0.820660 3.877260
v -1.480912 0.820660 4.558086
v 0.000239 0.820660 4.792669
v 1.481388 0.820660 4.558086
v 2.817555 0.820660 3.877260
v 3.877943 0.820660 2.816869
v 4.558768 0.820660 1.480705
v 4.793349 0.820660 -0.000444
v 4.777416 0.710464 -1.552642
v 4.063941 0.710464 -2.952896
v 2.952691 0.710464 -4.064145
v 1.552438 0.710464 -4.777623
v 0.000239 0.710464 -5.023466
v -1.551961 0.710464 -4.777620
v -2.952215 0.710464 -4.064145
v -4.063466 0.710464 -2.952896
v -4.776940 0.710464 -1.552642
v -5.022785 0.710464 -0.000444
v -4.776940 0.710464 1.551755
v -4.063464 0.710464 2.952006
v -2.952214 0.710464 4.063259
v -1.551961 0.710464 4.776734
v 0.000239 0.710464 5.022580
v 1.552436 0.710464 4.776734
v 2.952690 0.710464 4.063259
v 4.063938 0.710464 2.952006
v 4.777414 0.710464 1.551755
v 5.023261 0.710464 -0.000444
v 4.941002 0.558691 -1.605796
v 4.203102 0.558691 -3.054002
v 3.053799 0.558691 -4.203309
v 1.605590 0.558691 -4.941209
v 0.000239 0.558691 -5.195463
v -1.605114 0.558691 -4.941209
v -3.053323 0.558691 -4.203309
v -4.202628 0.558691 -3.054002
v -4.940525 0.558691 -1.605796
v -5.194778 0.558691 -0.000444
v -4.940525 0.558691 1.604908
v -4.202627 0.558691 3.053114
v -3.053322 0.558691 4.202421
v -1.605114 0.558691 4.940321
v 0.000239 0.558691 5.194573
v 1.605590 0.558691 4.940321
v 3.053797 0.558691 4.202420
v 4.203102 0.558691 3.053114
v 4.941002 0.558691 1.604908
v 5.195254 0.558691 -0.000444
v 5.121018 0.194248 -1.664285
v 4.356234 0.194248 -3.165264
v 3.165058 0.194248 -4.356439
v 1.664081 0.194248 -5.121226
v 0.000239 0.194248 -5.384747
v -1.663601 0.194248 -5.121226
v -3.164580 0.194248 -4.356439
v -4.355757 0.194248 -3.165263
v -5.120544 0.194248 -1.664285
v -5.384063 0.194248 -0.000444
v -5.120544 0.194248 1.663397
v -4.355756 0.194248 3.164372
v -3.164579 0.194248 4.355549
v -1.663601 0.194248 5.120338
v 0.000239 0.194248 5.383859
v 1.664079 0.194248 5.120338
v 3.165056 0.194248 4.355549
v 4.356229 0.194248 3.164372
v 5.121018 0.194248 1.663397
v 5.384540 0.194248 -0.000444
v 5.137619 -0.097460 -1.669678
v 4.370355 -0.097460 -3.175520
v 3.175315 -0.097460 -4.370561
v 1.669475 -0.097460 -5.137825
v 0.000239 -0.097460 -5.402200
v -1.668997 -0.097460 -5.137825
v -3.174838 -0.097460 -4.370558
v -4.369878 -0.097460 -3.175520
v -5.137143 -0.097460 -1.669678
v -5.401518 -0.097460 -0.000444
v -5.137144 -0.097460 1.668791
v -4.369878 -0.097460 3.174630
v -3.174836 -0.097460 4.369672
v -1.668997 -0.097460 5.136937
v 0.000239 -0.097460 5.401312
v 1.669473 -0.097460 5.136937
v 3.175313 -0.097460 4.369672
v 4.370352 -0.097460 3.174630
v 5.137619 -0.097460 1.668790
v 5.401992 -0.097460 -0.000444
v 5.003640 -0.473022 -1.626149
v 4.256391 -0.473022 -3.092718
v 3.092516 -0.473022 -4.256597
v 1.625946 -0.473022 -5.003844
v 0.000239 -0.473022 -5.261323
v -1.625468 -0.473022 -5.003844
v -3.092036 -0.473022 -4.256596
v -4.255914 -0.473022 -3.092718
v -5.003164 -0.473022 -1.626149
v -5.260641 -0.473022 -0.000444
v -5.003163 -0.473022 1.625261
v -4.255914 -0.473022 3.091831
v -3.092035 -0.473022 4.255708
v -1.625468 -0.473022 5.002956
v 0.000239 -0.473022 5.260436
v 1.625943 -0.473022 5.002956
v 3.092513 -0.473022 4.255707
v 4.256389 -0.473022 3.091831
v 5.003638 -0.473022 1.625261
v 5.261117 -0.473022 -0.000444
v 4.865819 -0.638561 -1.581368
v 4.139144 -0.638561 -3.007536
v 3.007331 -0.638561 -4.139349
v 1.581164 -0.638561 -4.866026
v 0.000239 -0.638561 -5.116416
v -1.580686 -0.638561 -4.866025
v -3.006854 -0.638561 -4.139349
v -4.138669 -0.638561 -3.007533
v -4.865342 -0.638561 -1.581364
v -5.115731 -0.638561 -0.000444
v -4.865342 -0.638561 1.580478
v -4.138668 -0.638561 3.006647
v -3.006853 -0.638561 4.138462
v -1.580683 -0.638561 4.865137
v 0.000239 -0.638561 5.115527
v 1.581161 -0.638561 4.865137
v 3.007328 -0.638561 4.138462
v 4.139142 -0.638561 3.006646
v 4.865818 -0.638561 1.580478
v 5.116208 -0.638561 -0.000444
v 4.675126 -0.772230 -1.519404
v 3.976924 -0.772230 -2.889674
v 2.889470 -0.772230 -3.977129
v 1.519199 -0.772230 -4.675331
v 0.000239 -0.772230 -4.915908
v -1.518721 -0.772230 -4.675331
v -2.888990 -0.772230 -3.977130
v -3.976448 -0.772230 -2.889672
v -4.674649 -0.772230 -1.519403
v -4.915224 -0.772230 -0.000444
v -4.674649 -0.772230 1.518515
v -3.976447 -0.772230 2.888785
v -2.888989 -0.772230 3.976240
v -1.518721 -0.772230 4.674443
v 0.000239 -0.772230 4.915020
v 1.519197 -0.772230 4.674443
v 2.889467 -0.772230 3.976240
v 3.976923 -0.772230 2.888785
v 4.675125 -0.772230 1.518515
v 4.915701 -0.772230 -0.000444
v 4.284988 -0.864006 -1.392636
v 3.645056 -0.864006 -2.648555
v 2.648351 -0.864006 -3.645257
v 1.392430 -0.864006 -4.285193
v 0.000239 -0.864006 -4.505685
v -1.391954 -0.864006 -4.285192
v -2.647878 -0.864006 -3.645257
v -3.644580 -0.864006 -2.648557
v -4.284513 -0.864006 -1.392636
v -4.505003 -0.864006 -0.000444
v -4.284512 -0.864006 1.391746
v -3.644573 -0.864006 2.647672
v -2.647876 -0.864006 3.644375
v -1.391954 -0.864006 4.284303
v 0.000239 -0.864006 4.504797
v 1.392430 -0.864006 4.284303
v 2.648351 -0.864006 3.644375
v 3.645050 -0.864006 2.647668
v 4.284987 -0.864006 1.391745
v 4.505479 -0.864006 -0.000444
v 3.971123 -0.810842 -1.290664
v 3.378077 -0.810842 -2.454584
v 2.454378 -0.810842 -3.378284
v 1.290458 -0.810842 -3.971330
v 0.000239 -0.810842 -4.175681
v -1.289980 -0.810842 -3.971328
v -2.453903 -0.810842 -3.378278
v -3.377600 -0.810842 -2.454583
v -3.970648 -0.810842 -1.290662
v -4.174991 -0.810842 -0.000444
v -3.970648 -0.810842 1.289775
v -3.377600 -0.810842 2.453697
v -2.453902 -0.810842 3.377396
v -1.289980 -0.810842 3.970441
v 0.000239 -0.810842 4.174785
v 1.290458 -0.810842 3.970442
v 2.454377 -0.810842 3.377394
v 3.378072 -0.810842 2.453694
v 3.971123 -0.810842 1.289774
v 4.175475 -0.810842 -0.000444
v 3.659694 -0.639384 -1.189472
v 3.113163 -0.639384 -2.262109
v 2.261904 -0.639384 -3.113367
v 1.189266 -0.639384 -3.659900
v 0.000239 -0.639384 -3.848209
v -1.188788 -0.639384 -3.659900
v -2.261424 -0.639384 -3.113365
v -3.112682 -0.639384 -2.262106
v -3.659217 -0.639384 -1.189469
v -3.847525 -0.639384 -0.000444
v -3.659217 -0.639384 1.188584
v -3.112682 -0.639384 2.261219
v -2.261424 -0.639384 3.112478
v -1.188788 -0.639384 3.659010
v 0.000239 -0.639384 3.847318
v 1.189266 -0.639384 3.659010
v 2.261901 -0.639384 3.112477
v 3.113159 -0.639384 2.261218
v 3.659693 -0.639384 1.188584
v 3.848000 -0.639384 -0.000444
v 3.421991 -0.354761 -1.112237
v 2.910954 -0.354761 -2.115201
v 2.114998 -0.354761 -2.911158
v 1.112031 -0.354761 -3.422198
v 0.000239 -0.354761 -3.598280
v -1.111553 -0.354761 -3.422198
v -2.114518 -0.354761 -2.911156
v -2.910477 -0.354761 -2.115199
v -3.421516 -0.354761 -1.112234
v -3.597596 -0.354761 -0.000444
v -3.421516 -0.354761 1.111349
v -2.910477 -0.354761 2.114314
v -2.114518 -0.354761 2.910271
v -1.111553 -0.354761 3.421311
v 0.000239 -0.354761 3.597392
v 1.112030 -0.354761 3.421311
v 2.114995 -0.354761 2.910271
v 2.910954 -0.354761 2.114311
v 3.421991 -0.354761 1.111349
v 3.598072 -0.354761 -0.000444
v 4.812875 -0.097460 -2.452605
v 3.819567 -0.097460 -3.819774
v 2.452399 -0.097460 -4.813079
v 0.845194 -0.097460 -5.335290
v -0.844716 -0.097460 -5.335289
v -2.451922 -0.097460 -4.813079
v -3.819091 -0.097460 -3.819773
v -4.812399 -0.097460 -2.452603
v -5.334606 -0.097460 -0.845402
v -5.334606 -0.097460 0.844511
v -4.812399 -0.097460 2.451714
v -3.819090 -0.097460 3.818884
v -2.451920 -0.097460 4.812191
v -0.844716 -0.097460 5.334401
v 0.845194 -0.097460 5.334401
v 2.452398 -0.097460 4.812191
v 3.819564 -0.097460 3.818884
v 4.812872 -0.097460 2.451714
v 5.335083 -0.097460 0.844511
v 5.335083 -0.097460 -0.845402
v 4.687367 -0.473022 -2.388655
v 3.719966 -0.473022 -3.720172
v 2.388452 -0.473022 -4.687573
v 0.823162 -0.473022 -5.196157
v -0.822684 -0.473022 -5.196157
v -2.387973 -0.473022 -4.687573
v -3.719489 -0.473022 -3.720172
v -4.686889 -0.473022 -2.388655
v -5.195476 -0.473022 -0.823366
v -5.195476 -0.473022 0.822476
v -4.686889 -0.473022 2.387768
v -3.719489 -0.473022 3.719282
v -2.387972 -0.473022 4.686683
v -0.822684 -0.473022 5.195269
v 0.823162 -0.473022 5.195269
v 2.388450 -0.473022 4.686683
v 3.719964 -0.473022 3.719281
v 4.687366 -0.473022 2.387768
v 5.195950 -0.473022 0.822476
v 5.195950 -0.473022 -0.823366
v 4.558253 -0.638561 -2.322868
v 3.617496 -0.638561 -3.617702
v 2.322663 -0.638561 -4.558458
v 0.800495 -0.638561 -5.053042
v -0.800016 -0.638561 -5.053042
v -2.322187 -0.638561 -4.558458
v -3.617018 -0.638561 -3.617702
v -4.557775 -0.638561 -2.322867
v -5.052361 -0.638561 -0.800698
v -5.052361 -0.638561 0.799809
v -4.557775 -0.638561 2.321979
v -3.617017 -0.638561 3.616812
v -2.322186 -0.638561 4.557571
v -0.800016 -0.638561 5.052154
v 0.800495 -0.638561 5.052154
v 2.322663 -0.638561 4.557571
v 3.617495 -0.638561 3.616812
v 4.558251 -0.638561 2.321979
v 5.052836 -0.638561 0.799809
v 5.052836 -0.638561 -0.800698
v 4.379610 -0.772230 -2.231841
v 3.475720 -0.772230 -3.475926
v 2.231637 -0.772230 -4.379816
v 0.769126 -0.772230 -4.855019
v -0.768650 -0.772230 -4.855019
v -2.231160 -0.772230 -4.379816
v -3.475244 -0.772230 -3.475923
v -4.379135 -0.772230 -2.231841
v -4.854336 -0.772230 -0.769332
v -4.854336 -0.772230 0.768443
v -4.379134 -0.772230 2.230954
v -3.475243 -0.772230 3.475037
v -2.231160 -0.772230 4.378927
v -0.768650 -0.772230 4.854132
v 0.769126 -0.772230 4.854132
v 2.231636 -0.772230 4.378927
v 3.475717 -0.772230 3.475037
v 4.379610 -0.772230 2.230953
v 4.854814 -0.772230 0.768443
v 4.854815 -0.772230 -0.769332
v 4.014136 -0.864003 -2.045618
v 3.185680 -0.864003 -3.185880
v 2.045414 -0.864003 -4.014339
v 0.704956 -0.864003 -4.449882
v -0.704480 -0.864003 -4.449882
v -2.044939 -0.864003 -4.014338
v -3.185206 -0.864003 -3.185880
v -4.013662 -0.864003 -2.045621
v -4.449199 -0.864003 -0.705164
v -4.449198 -0.864003 0.704273
v -4.013657 -0.864003 2.044734
v -3.185200 -0.864003 3.185000
v -2.044939 -0.864003 4.013452
v -0.704480 -0.864003 4.448991
v 0.704956 -0.864003 4.448992
v 2.045416 -0.864003 4.013452
v 3.185677 -0.864003 3.184997
v 4.014131 -0.864003 2.044731
v 4.449677 -0.864003 0.704273
v 4.449677 -0.864003 -0.705164
v 3.720118 -0.810842 -1.895813
v 2.952350 -0.810842 -2.952554
v 1.895607 -0.810842 -3.720320
v 0.653339 -0.810842 -4.123959
v -0.652863 -0.810842 -4.123959
v -1.895134 -0.810842 -3.720319
v -2.951872 -0.810842 -2.952553
v -3.719640 -0.810842 -1.895813
v -4.123275 -0.810842 -0.653545
v -4.123275 -0.810842 0.652657
v -3.719639 -0.810842 1.894927
v -2.951872 -0.810842 2.951666
v -1.895132 -0.810842 3.719434
v -0.652863 -0.810842 4.123068
v 0.653339 -0.810842 4.123069
v 1.895610 -0.810842 3.719434
v 2.952346 -0.810842 2.951665
v 3.720113 -0.810842 1.894924
v 4.123753 -0.810842 0.652657
v 4.123753 -0.810842 -0.653545
v 3.428375 -0.639384 -1.747162
v 2.720822 -0.639384 -2.721026
v 1.746956 -0.639384 -3.428583
v 0.602117 -0.639384 -3.800549
v -0.601639 -0.639384 -3.800549
v -1.746478 -0.639384 -3.428579
v -2.720342 -0.639384 -2.721024
v -3.427899 -0.639384 -1.747160
v -3.799865 -0.639384 -0.602324
v -3.799865 -0.639384 0.601433
v -3.427899 -0.639384 1.746273
v -2.720343 -0.639384 2.720137
v -1.746478 -0.639384 3.427694
v -0.601639 -0.639384 3.799659
v 0.602117 -0.639384 3.799659
v 1.746956 -0.639384 3.427693
v 2.720819 -0.639384 2.720135
v 3.428373 -0.639384 1.746273
v 3.800343 -0.639384 0.601433
v 3.800343 -0.639384 -0.602324
v 3.205696 -0.354761 -1.633704
v 2.544100 -0.354761 -2.544306
v 1.633498 -0.354761 -3.205901
v 0.563021 -0.354761 -3.553715
v -0.562544 -0.354761 -3.553715
v -1.633021 -0.354761 -3.205900
v -2.543624 -0.354761 -2.544304
v -3.205219 -0.354761 -1.633701
v -3.553031 -0.354761 -0.563226
v -3.553034 -0.354761 0.562339
v -3.205219 -0.354761 1.632816
v -2.543624 -0.354761 2.543417
v -1.633021 -0.354761 3.205013
v -0.562544 -0.354761 3.552828
v 0.563020 -0.354761 3.552828
v 1.633498 -0.354761 3.205014
v 2.544100 -0.354761 2.543417
v 3.205694 -0.354761 1.632815
v 3.553507 -0.354761 0.562337
v 3.553507 -0.354761 -0.563226
v 3.121393 0.000000 -1.590758
v 3.421998 0.354761 -1.112237
v 3.205704 0.354761 -1.633701
v 2.910966 0.354761 -2.115201
v 2.477210 0.000000 -2.477414
v 2.544109 0.354761 -2.544308
v 2.114998 0.354761 -2.911161
v 1.590552 0.000000 -3.121596
v 1.633498 0.354761 -3.205903
v 1.112031 0.354761 -3.422199
v 0.548220 0.000000 -3.460267
v 0.563021 0.354761 -3.553715
v 0.000239 0.354761 -3.598280
v -0.547744 0.000000 -3.460267
v -0.562544 0.354761 -3.553715
v -1.111553 0.354761 -3.422199
v -1.590074 0.000000 -3.121596
v -1.633021 0.354761 -3.205906
v -2.114518 0.354761 -2.911168
v -2.476729 0.000000 -2.477413
v -2.543622 0.354761 -2.544311
v -2.910476 0.354761 -2.115201
v -3.120914 0.000000 -1.590754
v -3.205219 0.354761 -1.633701
v -3.421517 0.354761 -1.112237
v -3.459584 0.000000 -0.548426
v -3.553034 0.354761 -0.563226
v -3.597596 0.354761 -0.000444
v -3.459584 0.000000 0.547538
v -3.553034 0.354761 0.562337
v -3.421517 0.354761 1.111349
v -3.120915 0.000000 1.589869
v -3.205220 0.354761 1.632816
v -2.910478 0.354761 2.114314
v -2.476729 0.000000 2.476525
v -2.543624 0.354761 2.543419
v -2.114518 0.354761 2.910271
v -1.590074 0.000000 3.120711
v -1.633021 0.354761 3.205014
v -1.111552 0.354761 3.421311
v -0.547744 0.000000 3.459381
v -0.562544 0.354761 3.552829
v 0.000239 0.354761 3.597392
v 0.548220 0.000000 3.459381
v 0.563020 0.354761 3.552829
v 1.112030 0.354761 3.421311
v 1.590552 0.000000 3.120710
v 1.633498 0.354761 3.205014
v 2.114995 0.354761 2.910271
v 2.477207 0.000000 2.476525
v 2.544099 0.354761 2.543420
v 2.910952 0.354761 2.114314
v 3.121393 0.000000 1.589869
v 3.205696 0.354761 1.632816
v 3.421993 0.354761 1.111349
v 3.460062 0.000000 0.547538
v 3.553507 0.354761 0.562339
v 3.598072 0.354761 -0.000444
v 3.460062 0.000000 -0.548426
v 3.553510 0.354761 -0.563226
v 3.659694 0.639384 -1.189472
v 3.428379 0.639384 -1.747162
v 3.113164 0.639384 -2.262109
v 2.720822 0.639384 -2.721026
v 2.261904 0.639384 -3.113367
v 1.746957 0.639384 -3.428583
v 1.189267 0.639384 -3.659901
v 0.602118 0.639384 -3.800549
v 0.000239 0.639384 -3.848208
v -0.601639 0.639384 -3.800549
v -1.188789 0.639384 -3.659900
v -1.746481 0.639384 -3.428584
v -2.261427 0.639384 -3.113370
v -2.720344 0.639384 -2.721026
v -3.112682 0.639384 -2.262109
v -3.427900 0.639384 -1.747162
v -3.659219 0.639384 -1.189472
v -3.799869 0.639384 -0.602324
v -3.847526 0.639384 -0.000444
v -3.799869 0.639384 0.601433
v -3.659219 0.639384 1.188581
v -3.427900 0.639384 1.746274
v -3.112682 0.639384 2.261220
v -2.720344 0.639384 2.720140
v -2.261426 0.639384 3.112478
v -1.746478 0.639384 3.427695
v -1.188788 0.639384 3.659010
v -0.601639 0.639384 3.799662
v 0.000239 0.639384 3.847320
v 0.602117 0.639384 3.799662
v 1.189266 0.639384 3.659010
v 1.746956 0.639384 3.427694
v 2.261902 0.639384 3.112478
v 2.720820 0.639384 2.720139
v 3.113160 0.639384 2.261220
v 3.428373 0.639384 1.746274
v 3.659693 0.639384 1.188584
v 3.800343 0.639384 0.601433
v 3.848000 0.639384 -0.000444
v 3.800343 0.639384 -0.602324
v 3.971123 0.810842 -1.290664
v 3.720118 0.810842 -1.895816
v 3.378077 0.810842 -2.454586
v 2.952351 0.810842 -2.952554
v 2.454379 0.810842 -3.378283
v 1.895610 0.810842 -3.720324
v 1.290458 0.810842 -3.971331
v 0.653340 0.810842 -4.123959
v 0.000239 0.810842 -4.175676
v -0.652863 0.810842 -4.123958
v -1.289980 0.810842 -3.971330
v -1.895133 0.810842 -3.720324
v -2.453903 0.810842 -3.378284
v -2.951873 0.810842 -2.952554
v -3.377601 0.810842 -2.454586
v -3.719640 0.810842 -1.895816
v -3.970649 0.810842 -1.290664
v -4.123278 0.810842 -0.653545
v -4.174997 0.810842 -0.000444
v -4.123278 0.810842 0.652657
v -3.970649 0.810842 1.289776
v -3.719639 0.810842 1.894927
v -3.377600 0.810842 2.453697
v -2.951872 0.810842 2.951667
v -2.453903 0.810842 3.377396
v -1.895133 0.810842 3.719437
v -1.289980 0.810842 3.970444
v -0.652863 0.810842 4.123073
v 0.000239 0.810842 4.174793
v 0.653339 0.810842 4.123072
v 1.290458 0.810842 3.970442
v 1.895610 0.810842 3.719434
v 2.454379 0.810842 3.377396
v 2.952350 0.810842 2.951666
v 3.378077 0.810842 2.453694
v 3.720118 0.810842 1.894924
v 3.971122 0.810842 1.289775
v 4.123748 0.810842 0.652657
v 4.175467 0.810842 -0.000444
v 4.123751 0.810842 -0.653545
v 4.014136 0.864003 -2.045621
v 3.185684 0.864003 -3.185881
v 2.045416 0.864003 -4.014339
v 0.704958 0.864003 -4.449882
v -0.704480 0.864003 -4.449882
v -2.044938 0.864003 -4.014339
v -3.185205 0.864003 -3.185884
v -4.013663 0.864003 -2.045622
v -4.449202 0.864003 -0.705164
v -4.449202 0.864003 0.704273
v -4.013657 0.864003 2.044732
v -3.185198 0.864003 3.184998
v -2.044938 0.864003 4.013457
v -0.704480 0.864003 4.448996
v 0.704956 0.864003 4.448993
v 2.045414 0.864003 4.013450
v 3.185680 0.864003 3.184994
v 4.014136 0.864003 2.044733
v 4.449677 0.864003 0.704273
v 4.449677 0.864003 -0.705164
v 4.270608 0.820660 -2.176299
v 3.389215 0.820660 -3.389418
v 2.176097 0.820660 -4.270812
v 0.749987 0.820660 -4.734189
v -0.749511 0.820660 -4.734189
v -2.175616 0.820660 -4.270815
v -3.388737 0.820660 -3.389418
v -4.270133 0.820660 -2.176299
v -4.733504 0.820660 -0.750194
v -4.733504 0.820660 0.749304
v -4.270133 0.820660 2.175412
v -3.388737 0.820660 3.388531
v -2.175615 0.820660 4.269927
v -0.749511 0.820660 4.733299
v 0.749987 0.820660 4.733299
v 2.176093 0.820660 4.269927
v 3.389210 0.820660 3.388531
v 4.270608 0.820660 2.175412
v 4.733981 0.820660 0.749304
v 4.733981 0.820660 -0.750194
v 4.475437 0.710464 -2.280670
v 3.551771 0.710464 -3.551976
v 2.280465 0.710464 -4.475640
v 0.785952 0.710464 -4.961247
v -0.785475 0.710464 -4.961244
v -2.279989 0.710464 -4.475640
v -3.551295 0.710464 -3.551976
v -4.474958 0.710464 -2.280670
v -4.960565 0.710464 -0.786159
v -4.960565 0.710464 0.785268
v -4.474958 0.710464 2.279781
v -3.551294 0.710464 3.551088
v -2.279988 0.710464 4.474752
v -0.785475 0.710464 4.960358
v 0.785952 0.710464 4.960358
v 2.280465 0.710464 4.474752
v 3.551769 0.710464 3.551088
v 4.475434 0.710464 2.279781
v 4.961039 0.710464 0.785268
v 4.961039 0.710464 -0.786159
v 4.628686 0.558691 -2.358757
v 3.673393 0.558691 -3.673599
v 2.358551 0.558691 -4.628892
v 0.812860 0.558691 -5.131115
v -0.812380 0.558691 -5.131112
v -2.358074 0.558691 -4.628892
v -3.672919 0.558691 -3.673599
v -4.628210 0.558691 -2.358755
v -5.130430 0.558691 -0.813064
v -5.130430 0.558691 0.812174
v -4.628210 0.558691 2.357868
v -3.672919 0.558691 3.672711
v -2.358074 0.558691 4.628006
v -0.812380 0.558691 5.130225
v 0.812859 0.558691 5.130225
v 2.358551 0.558691 4.628004
v 3.673393 0.558691 3.672711
v 4.628686 0.558691 2.357868
v 5.130904 0.558691 0.812174
v 5.130907 0.558691 -0.813064
v 4.797322 0.194248 -2.444679
v 3.807227 0.194248 -3.807432
v 2.444477 0.194248 -4.797528
v 0.842464 0.194248 -5.318052
v -0.841987 0.194248 -5.318052
v -2.443999 0.194248 -4.797528
v -3.806748 0.194248 -3.807432
v -4.796847 0.194248 -2.444679
v -5.317369 0.194248 -0.842669
v -5.317369 0.194248 0.841779
v -4.796847 0.194248 2.443792
v -3.806747 0.194248 3.806542
v -2.443999 0.194248 4.796638
v -0.841987 0.194248 5.317162
v 0.842463 0.194248 5.317162
v 2.444476 0.194248 4.796638
v 3.807224 0.194248 3.806542
v 4.797320 0.194248 2.443792
v 5.317841 0.194248 0.841779
v 5.317845 0.194248 -0.842671
v 4.496731 -0.830253 -1.461436
v 4.212493 -0.830253 -2.146689
v 3.825175 -0.830253 -2.779419
v 3.343096 -0.830253 -3.343298
v 2.779214 -0.830253 -3.825376
v 2.146483 -0.830253 -4.212697
v 1.461232 -0.830253 -4.496938
v 0.739783 -0.830253 -4.669765
v 0.000239 -0.830253 -4.728326
v -0.739307 -0.830253 -4.669765
v -1.460755 -0.830253 -4.496935
v -2.146008 -0.830253 -4.212697
v -2.778738 -0.830253 -3.825376
v -3.342619 -0.830253 -3.343298
v -3.824698 -0.830253 -2.779419
v -4.212018 -0.830253 -2.146689
v -4.496257 -0.830253 -1.461436
v -4.669081 -0.830253 -0.739989
v -4.727643 -0.830253 -0.000444
v -4.669081 -0.830253 0.739101
v -4.496256 -0.830253 1.460547
v -4.212017 -0.830253 2.145802
v -3.824695 -0.830253 2.778531
v -3.342615 -0.830253 3.342414
v -2.778738 -0.830253 3.824492
v -2.146007 -0.830253 4.211813
v -1.460755 -0.830253 4.496049
v -0.739306 -0.830253 4.668875
v 0.000239 -0.830253 4.727437
v 0.739783 -0.830253 4.668875
v 1.461232 -0.830253 4.496050
v 2.146483 -0.830253 4.211813
v 2.779214 -0.830253 3.824492
v 3.343092 -0.830253 3.342413
v 3.825169 -0.830253 2.778530
v 4.212492 -0.830253 2.145799
v 4.496731 -0.830253 1.460547
v 4.669559 -0.830253 0.739101
v 4.728117 -0.830253 -0.000444
v 4.669560 -0.830253 -0.739989
# 720 normals
vn -0.808948 0.000000 0.587774
vn -0.890924 0.000000 0.453977
vn -0.781084 0.481139 0.397974
vn -0.709119 0.481170 0.515260
vn -0.951047 0.000000 0.308948
vn -0.833700 0.481170 0.270799
vn -0.587774 0.000000 0.808948
vn -0.707044 0.000000 0.707044
vn -0.619789 0.481108 0.619819
vn -0.515229 0.481170 0.709119
vn -0.308948 0.000000 0.951047
vn -0.453977 0.000000 0.890924
vn -0.397974 0.481139 0.781084
vn -0.270799 0.481170 0.833700
vn 0.000000 0.000000 1.000000
vn -0.156351 0.000000 0.987670
vn -0.137124 0.481108 0.865775
vn 0.000000 0.481170 0.876610
vn 0.308948 0.000000 0.951047
vn 0.156351 0.000000 0.987670
vn 0.137124 0.481108 0.865775
vn 0.270799 0.481170 0.833700
vn 0.587774 0.000000 0.808948
vn 0.453977 0.000000 0.890924
vn 0.397974 0.481139 0.781084
vn 0.515260 0.481170 0.709119
vn 0.808948 0.000000 0.587774
vn 0.707044 0.000000 0.707044
vn 0.619819 0.481139 0.619789
vn 0.709119 0.481170 0.515260
vn 0.951047 0.000000 0.308948
vn 0.890924 0.000000 0.453977
vn 0.781084 0.481139 0.397974
vn 0.833700 0.481170 0.270799
vn 1.000000 0.000000 0.000000
vn 0.987670 0.000000 0.156351
vn 0.865775 0.481108 0.137124
vn 0.876610 0.481170 0.000000
vn 0.951047 0.000000 -0.308948
vn 0.987670 0.000000 -0.156351
vn 0.865775 0.481108 -0.137124
vn 0.833700 0.481170 -0.270799
vn 0.808948 0.000000 -0.587774
vn 0.890924 0.000000 -0.453977
vn 0.781084 0.481139 -0.397974
vn 0.709119 0.481170 -0.515260
vn 0.587774 0.000000 -0.808948
vn 0.707044 0.000000 -0.707044
vn 0.619819 0.481139 -0.619819
vn 0.515260 0.481170 -0.709119
vn 0.308948 0.000000 -0.951047
vn 0.453977 0.000000 -0.890924
vn 0.397974 0.481139 -0.781084
vn 0.270799 0.481170 -0.833700
vn 0.000000 0.000000 -1.000000
vn 0.156351 0.000000 -0.987670
vn 0.137124 0.481108 -0.865775
vn 0.000000 0.481170 -0.876610
vn -0.308948 0.000000 -0.951047
vn -0.156351 0.000000 -0.987670
vn -0.137124 0.481108 -0.865775
vn -0.270799 0.481170 -0.833700
vn -0.587774 0.000000 -0.808948
vn -0.453977 0.000000 -0.890924
vn -0.397974 0.481139 -0.781084
vn -0.515260 0.481170 -0.709119
vn -0.808948 0.000000 -0.587774
vn -0.707044 0.000000 -0.707044
vn -0.619819 0.481139 -0.619819
vn -0.709119 0.481170 -0.515260
vn -0.951047 0.000000 -0.308948
vn -0.890924 0.000000 -0.453977
vn -0.781084 0.481139 -0.397974
vn -0.833700 0.481170 -0.270799
vn -1.000000 0.000000 0.000000
vn -0.987670 0.000000 -0.156351
vn -0.865775 0.481108 -0.137124
vn -0.876610 0.481170 0.000000
vn -0.987670 0.000000 0.156351
vn -0.865775 0.481108 0.137124
vn -0.544742 0.791247 0.277483
vn -0.494507 0.791308 0.359305
vn -0.581395 0.791308 0.188885
vn -0.432308 0.791247 0.432308
vn -0.359305 0.791308 0.494507
vn -0.277483 0.791247 0.544742
vn -0.188885 0.791308 0.581395
vn -0.095617 0.791247 0.603797
vn 0.000000 0.791308 0.611304
vn 0.095617 0.791247 0.603797
vn 0.188885 0.791308 0.581395
vn 0.277483 0.791247 0.544742
vn 0.359305 0.791308 0.494507
vn 0.432308 0.791247 0.432308
vn 0.494507 0.791308 0.359305
vn 0.544742 0.791247 0.277483
vn 0.581395 0.791308 0.188885
vn 0.603797 0.791247 0.095617
vn 0.611304 0.791308 0.000000
vn 0.603797 0.791247 -0.095617
vn 0.581395 0.791308 -0.188885
vn 0.544742 0.791247 -0.277483
vn 0.494507 0.791308 -0.359305
vn 0.432308 0.791247 -0.432308
vn 0.359305 0.791308 -0.494507
vn 0.277483 0.791247 -0.544742
vn 0.188885 0.791308 -0.581395
vn 0.095617 0.791247 -0.603797
vn 0.000000 0.791308 -0.611304
vn -0.095617 0.791247 -0.603797
vn -0.188885 0.791308 -0.581395
vn -0.277483 0.791247 -0.544742
vn -0.359305 0.791308 -0.494507
vn -0.432308 0.791247 -0.432308
vn -0.494507 0.791308 -0.359305
vn -0.544742 0.791247 -0.277483
vn -0.581395 0.791308 -0.188885
vn -0.603797 0.791247 -0.095617
vn -0.611304 0.791308 0.000000
vn -0.603797 0.791247 0.095617
vn -0.277696 0.950101 0.141519
vn -0.252060 0.950131 0.183117
vn -0.296313 0.950131 0.096228
vn -0.220350 0.950101 0.220350
vn -0.183117 0.950131 0.252060
vn -0.141519 0.950101 0.277696
vn -0.096228 0.950131 0.296313
vn -0.048679 0.950101 0.307819
vn 0.000000 0.950131 0.311573
vn 0.048679 0.950101 0.307819
vn 0.096228 0.950131 0.296313
vn 0.141519 0.950101 0.277696
vn 0.183117 0.950131 0.252060
vn 0.220350 0.950101 0.220350
vn 0.252060 0.950131 0.183117
vn 0.277696 0.950101 0.141519
vn 0.296313 0.950131 0.096228
vn 0.307819 0.950101 0.048679
vn 0.311573 0.950131 0.000000
vn 0.307819 0.950101 -0.048679
vn 0.296313 0.950131 -0.096228
vn 0.277696 0.950101 -0.141519
vn 0.252060 0.950131 -0.183117
vn 0.220350 0.950101 -0.220350
vn 0.183117 0.950131 -0.252060
vn 0.141519 0.950101 -0.277696
vn 0.096228 0.950131 -0.296313
vn 0.048679 0.950101 -0.307819
vn 0.000000 0.950131 -0.311573
vn -0.048679 0.950101 -0.307819
vn -0.096228 0.950131 -0.296313
vn -0.141519 0.950101 -0.277696
vn -0.183117 0.950131 -0.252060
vn -0.220350 0.950101 -0.220350
vn -0.252060 0.950131 -0.183117
vn -0.277696 0.950101 -0.141519
vn -0.296313 0.950131 -0.096228
vn -0.307819 0.950101 -0.048679
vn -0.311573 0.950131 0.000000
vn -0.307819 0.950101 0.048679
vn -0.003052 0.999969 0.001526
vn -0.002686 0.999969 0.001923
vn -0.003174 0.999969 0.000977
vn -0.002411 0.999969 0.002411
vn -0.001923 0.999969 0.002686
vn -0.001526 0.999969 0.003052
vn -0.000977 0.999969 0.003174
vn -0.000458 0.999969 0.003388
vn 0.000000 0.999969 0.003357
vn 0.000458 0.999969 0.003388
vn 0.000977 0.999969 0.003174
vn 0.001526 0.999969 0.003052
vn 0.001923 0.999969 0.002686
vn 0.002411 0.999969 0.002411
vn 0.002686 0.999969 0.001923
vn 0.003052 0.999969 0.001526
vn 0.003174 0.999969 0.000977
vn 0.003388 0.999969 0.000458
vn 0.003357 0.999969 0.000000
vn 0.003388 0.999969 -0.000458
vn 0.003174 0.999969 -0.000977
vn 0.003052 0.999969 -0.001526
vn 0.002686 0.999969 -0.001923
vn 0.002411 0.999969 -0.002411
vn 0.001923 0.999969 -0.002686
vn 0.001526 0.999969 -0.003052
vn 0.000977 0.999969 -0.003174
vn 0.000458 0.999969 -0.003388
vn 0.000000 0.999969 -0.003357
vn -0.000458 0.999969 -0.003388
vn -0.000977 0.999969 -0.003174
vn -0.001526 0.999969 -0.003052
vn -0.001923 0.999969 -0.002686
vn -0.002411 0.999969 -0.002411
vn -0.002686 0.999969 -0.001923
vn -0.003052 0.999969 -0.001526
vn -0.003174 0.999969 -0.000977
vn -0.003388 0.999969 -0.000458
vn -0.003357 0.999969 0.000000
vn -0.003388 0.999969 0.000458
vn 0.279222 0.955838 -0.090704
vn 0.261552 0.955869 -0.133278
vn 0.237472 0.955838 -0.172496
vn 0.207502 0.955869 -0.207502
vn 0.172496 0.955838 -0.237472
vn 0.133278 0.955869 -0.261552
vn 0.090704 0.955838 -0.279222
vn 0.045871 0.955869 -0.289935
vn 0.000000 0.955838 -0.293597
vn -0.045871 0.955869 -0.289935
vn -0.090704 0.955838 -0.279222
vn -0.133278 0.955869 -0.261552
vn -0.172496 0.955838 -0.237472
vn -0.207502 0.955869 -0.207502
vn -0.237472 0.955838 -0.172496
vn -0.261552 0.955869 -0.133278
vn -0.279222 0.955838 -0.090704
vn -0.289935 0.955869 -0.045871
vn -0.293597 0.955838 0.000000
vn -0.289935 0.955869 0.045871
vn -0.279222 0.955838 0.090704
vn -0.261552 0.955869 0.133278
vn -0.237472 0.955838 0.172496
vn -0.207502 0.955869 0.207502
vn -0.172496 0.955838 0.237472
vn -0.133278 0.955869 0.261552
vn -0.090704 0.955838 0.279222
vn -0.045871 0.955869 0.289935
vn 0.000000 0.955838 0.293597
vn 0.045871 0.955869 0.289935
vn 0.090704 0.955838 0.279222
vn 0.133278 0.955869 0.261552
vn 0.172496 0.955838 0.237472
vn 0.207502 0.955869 0.207502
vn 0.237472 0.955838 0.172496
vn 0.261552 0.955869 0.133278
vn 0.279222 0.955838 0.090704
vn 0.289935 0.955869 0.045871
vn 0.293597 0.955838 0.000000
vn 0.289935 0.955869 -0.045871
vn 0.524080 0.834340 -0.170298
vn 0.491058 0.834340 -0.250137
vn 0.445859 0.834340 -0.323933
vn 0.389642 0.834340 -0.389642
vn 0.323933 0.834340 -0.445859
vn 0.250137 0.834340 -0.491027
vn 0.170298 0.834340 -0.524080
vn 0.086156 0.834340 -0.544345
vn 0.000000 0.834340 -0.551059
vn -0.086156 0.834340 -0.544345
vn -0.170298 0.834340 -0.524080
vn -0.250137 0.834340 -0.491058
vn -0.323933 0.834340 -0.445859
vn -0.389642 0.834340 -0.389642
vn -0.445859 0.834340 -0.323933
vn -0.491058 0.834340 -0.250137
vn -0.524080 0.834340 -0.170298
vn -0.544345 0.834340 -0.086156
vn -0.551059 0.834340 0.000000
vn -0.544345 0.834340 0.086156
vn -0.524080 0.834340 0.170298
vn -0.491058 0.834340 0.250137
vn -0.445859 0.834340 0.323933
vn -0.389642 0.834340 0.389642
vn -0.323933 0.834340 0.445859
vn -0.250137 0.834340 0.491058
vn -0.170298 0.834340 0.524080
vn -0.086156 0.834340 0.544345
vn 0.000000 0.834340 0.551059
vn 0.086156 0.834340 0.544345
vn 0.170298 0.834340 0.524080
vn 0.250137 0.834340 0.491058
vn 0.323933 0.834340 0.445859
vn 0.389642 0.834340 0.389642
vn 0.445859 0.834340 0.323933
vn 0.491058 0.834340 0.250137
vn 0.524080 0.834340 0.170298
vn 0.544345 0.834340 0.086156
vn 0.551059 0.834340 0.000000
vn 0.544345 0.834340 -0.086156
vn 0.781939 0.569004 -0.254013
vn 0.732589 0.569004 -0.373222
vn 0.665202 0.569035 -0.483306
vn 0.581426 0.569035 -0.581426
vn 0.483306 0.569035 -0.665202
vn 0.373222 0.569004 -0.732558
vn 0.254013 0.569035 -0.781939
vn 0.128548 0.569004 -0.812153
vn 0.000000 0.569004 -0.822255
vn -0.128548 0.569004 -0.812153
vn -0.254013 0.569035 -0.781939
vn -0.373222 0.569004 -0.732558
vn -0.483306 0.569035 -0.665202
vn -0.581426 0.569035 -0.581426
vn -0.665202 0.569035 -0.483306
vn -0.732589 0.569004 -0.373222
vn -0.781939 0.569004 -0.254013
vn -0.812153 0.569004 -0.128548
vn -0.822255 0.569004 0.000000
vn -0.812153 0.569004 0.128548
vn -0.781939 0.569004 0.254013
vn -0.732589 0.569004 0.373222
vn -0.665202 0.569035 0.483306
vn -0.581426 0.569035 0.581426
vn -0.483306 0.569035 0.665202
vn -0.373222 0.569004 0.732589
vn -0.254013 0.569004 0.781939
vn -0.128548 0.569004 0.812153
vn 0.000000 0.569004 0.822255
vn 0.128548 0.569004 0.812153
vn 0.254013 0.569004 0.781939
vn 0.373222 0.569004 0.732589
vn 0.483306 0.569035 0.665202
vn 0.581426 0.569035 0.581426
vn 0.665202 0.569035 0.483306
vn 0.732589 0.569004 0.373222
vn 0.781939 0.569004 0.254013
vn 0.812153 0.569004 0.128548
vn 0.822255 0.569004 0.000000
vn 0.812153 0.569004 -0.128548
vn 0.907953 0.297626 -0.294940
vn 0.850546 0.297595 -0.433407
vn 0.772264 0.297626 -0.561069
vn 0.675060 0.297595 -0.675060
vn 0.561069 0.297626 -0.772264
vn 0.433407 0.297595 -0.850546
vn 0.294940 0.297626 -0.907953
vn 0.149332 0.297595 -0.942929
vn 0.000000 0.297626 -0.954679
vn -0.149332 0.297595 -0.942929
vn -0.294940 0.297626 -0.907953
vn -0.433407 0.297595 -0.850546
vn -0.561069 0.297595 -0.772264
vn -0.675060 0.297595 -0.675060
vn -0.772264 0.297595 -0.561069
vn -0.850546 0.297595 -0.433407
vn -0.907953 0.297626 -0.294940
vn -0.942929 0.297595 -0.149332
vn -0.954679 0.297626 0.000000
vn -0.942929 0.297595 0.149332
vn -0.907953 0.297626 0.294940
vn -0.850546 0.297595 0.433407
vn -0.772264 0.297595 0.561069
vn -0.675060 0.297595 0.675060
vn -0.561069 0.297595 0.772264
vn -0.433407 0.297595 0.850546
vn -0.294940 0.297595 0.907953
vn -0.149332 0.297595 0.942929
vn 0.000000 0.297626 0.954679
vn 0.149332 0.297595 0.942929
vn 0.294940 0.297626 0.907953
vn 0.433407 0.297595 0.850546
vn 0.561069 0.297595 0.772264
vn 0.675060 0.297595 0.675060
vn 0.772264 0.297595 0.561069
vn 0.850546 0.297595 0.433407
vn 0.907953 0.297595 0.294940
vn 0.942929 0.297595 0.149332
vn 0.954679 0.297626 0.000000
vn 0.942929 0.297595 -0.149332
vn 0.935482 -0.180156 -0.303882
vn 0.876427 -0.180126 -0.446499
vn 0.795703 -0.180126 -0.578130
vn 0.695477 -0.180126 -0.695477
vn 0.578130 -0.180126 -0.795703
vn 0.446499 -0.180126 -0.876427
vn 0.303882 -0.180156 -0.935482
vn 0.153787 -0.180126 -0.971464
vn 0.000000 -0.180156 -0.983611
vn -0.153787 -0.180126 -0.971464
vn -0.303882 -0.180156 -0.935482
vn -0.446499 -0.180126 -0.876427
vn -0.578130 -0.180126 -0.795703
vn -0.695477 -0.180126 -0.695477
vn -0.795703 -0.180126 -0.578130
vn -0.876427 -0.180126 -0.446499
vn -0.935482 -0.180126 -0.303882
vn -0.971464 -0.180126 -0.153787
vn -0.983611 -0.180156 0.000000
vn -0.971464 -0.180126 0.153787
vn -0.935482 -0.180126 0.303882
vn -0.876427 -0.180126 0.446499
vn -0.795703 -0.180126 0.578130
vn -0.695477 -0.180126 0.695477
vn -0.578130 -0.180126 0.795703
vn -0.446499 -0.180126 0.876427
vn -0.303882 -0.180126 0.935482
vn -0.153787 -0.180126 0.971464
vn 0.000000 -0.180156 0.983611
vn 0.153787 -0.180126 0.971464
vn 0.303882 -0.180156 0.935482
vn 0.446499 -0.180126 0.876427
vn 0.578130 -0.180126 0.795703
vn 0.695477 -0.180126 0.695477
vn 0.795703 -0.180126 0.578130
vn 0.876427 -0.180126 0.446499
vn 0.935482 -0.180126 0.303882
vn 0.971464 -0.180126 0.153787
vn 0.983611 -0.180156 0.000000
vn 0.971464 -0.180126 -0.153787
vn 0.842642 -0.463499 -0.273729
vn 0.789446 -0.463499 -0.402246
vn 0.716810 -0.463499 -0.520814
vn 0.626534 -0.463499 -0.626534
vn 0.520814 -0.463499 -0.716810
vn 0.402246 -0.463499 -0.789446
vn 0.273729 -0.463499 -0.842642
vn 0.138589 -0.463499 -0.875114
vn 0.000000 -0.463499 -0.886071
vn -0.138589 -0.463499 -0.875114
vn -0.273729 -0.463499 -0.842642
vn -0.402277 -0.463499 -0.789446
vn -0.520814 -0.463499 -0.716810
vn -0.626534 -0.463499 -0.626534
vn -0.716810 -0.463499 -0.520814
vn -0.789446 -0.463499 -0.402277
vn -0.842642 -0.463499 -0.273729
vn -0.875114 -0.463499 -0.138589
vn -0.886071 -0.463499 0.000000
vn -0.875114 -0.463499 0.138589
vn -0.842642 -0.463499 0.273729
vn -0.789446 -0.463499 0.402277
vn -0.716810 -0.463499 0.520814
vn -0.626534 -0.463499 0.626534
vn -0.520814 -0.463499 0.716810
vn -0.402277 -0.463499 0.789446
vn -0.273729 -0.463499 0.842642
vn -0.138589 -0.463499 0.875114
vn 0.000000 -0.463499 0.886071
vn 0.138589 -0.463499 0.875114
vn 0.273729 -0.463499 0.842642
vn 0.402277 -0.463499 0.789446
vn 0.520814 -0.463499 0.716810
vn 0.626534 -0.463499 0.626534
vn 0.716810 -0.463499 0.520814
vn 0.789446 -0.463499 0.402277
vn 0.842642 -0.463499 0.273729
vn 0.875114 -0.463499 0.138589
vn 0.886071 -0.463499 0.000000
vn 0.875114 -0.463499 -0.138589
vn 0.626076 -0.752670 -0.203412
vn 0.586462 -0.752670 -0.298816
vn 0.532534 -0.752701 -0.386864
vn 0.465452 -0.752701 -0.465452
vn 0.386864 -0.752701 -0.532534
vn 0.298816 -0.752670 -0.586462
vn 0.203412 -0.752670 -0.626076
vn 0.102973 -0.752670 -0.650186
vn 0.000000 -0.752670 -0.658213
vn -0.102973 -0.752670 -0.650186
vn -0.203412 -0.752670 -0.626076
vn -0.298816 -0.752670 -0.586462
vn -0.386864 -0.752701 -0.532534
vn -0.465452 -0.752701 -0.465452
vn -0.532534 -0.752701 -0.386864
vn -0.586462 -0.752670 -0.298816
vn -0.626076 -0.752670 -0.203412
vn -0.650186 -0.752670 -0.102973
vn -0.658213 -0.752670 0.000000
vn -0.650186 -0.752670 0.102973
vn -0.626076 -0.752670 0.203412
vn -0.586462 -0.752670 0.298816
vn -0.532534 -0.752701 0.386864
vn -0.465452 -0.752701 0.465452
vn -0.386864 -0.752701 0.532534
vn -0.298816 -0.752670 0.586462
vn -0.203412 -0.752670 0.626076
vn -0.102973 -0.752670 0.650186
vn 0.000000 -0.752670 0.658243
vn 0.102973 -0.752670 0.650186
vn 0.203412 -0.752670 0.626076
vn 0.298816 -0.752670 0.586462
vn 0.386864 -0.752701 0.532534
vn 0.465452 -0.752701 0.465452
vn 0.532534 -0.752701 0.386864
vn 0.586462 -0.752670 0.298816
vn 0.626076 -0.752670 0.203412
vn 0.650186 -0.752670 0.102973
vn 0.658243 -0.752670 0.000000
vn 0.650186 -0.752670 -0.102973
vn 0.427181 -0.893335 -0.138741
vn 0.400232 -0.893335 -0.203931
vn 0.363364 -0.893335 -0.263993
vn 0.317555 -0.893335 -0.317555
vn 0.263993 -0.893335 -0.363364
vn 0.203931 -0.893335 -0.400232
vn 0.138741 -0.893335 -0.427181
vn 0.070256 -0.893335 -0.443631
vn 0.000000 -0.893335 -0.449216
vn -0.070256 -0.893335 -0.443631
vn -0.138741 -0.893335 -0.427181
vn -0.203931 -0.893335 -0.400232
vn -0.263993 -0.893335 -0.363364
vn -0.317555 -0.893335 -0.317555
vn -0.363364 -0.893335 -0.263993
vn -0.400232 -0.893335 -0.203931
vn -0.427181 -0.893335 -0.138741
vn -0.443631 -0.893335 -0.070256
vn -0.449216 -0.893335 0.000000
vn -0.443631 -0.893335 0.070256
vn -0.427181 -0.893335 0.138741
vn -0.400232 -0.893335 0.203931
vn -0.363364 -0.893335 0.263993
vn -0.317585 -0.893335 0.317555
vn -0.263993 -0.893335 0.363364
vn -0.203931 -0.893335 0.400232
vn -0.138741 -0.893335 0.427181
vn -0.070256 -0.893335 0.443631
vn 0.000000 -0.893335 0.449216
vn 0.070256 -0.893335 0.443631
vn 0.138741 -0.893335 0.427181
vn 0.203931 -0.893335 0.400232
vn 0.263993 -0.893335 0.363364
vn 0.317555 -0.893335 0.317555
vn 0.363364 -0.893335 0.263993
vn 0.400232 -0.893335 0.203931
vn 0.427181 -0.893335 0.138741
vn 0.443631 -0.893335 0.070256
vn 0.449216 -0.893335 0.000000
vn 0.443631 -0.893335 -0.070256
vn -0.020906 -0.999695 0.010621
vn -0.022249 -0.999695 0.007172
vn -0.296313 -0.950131 0.096228
vn -0.277696 -0.950101 0.141519
vn -0.018953 -0.999695 0.013703
vn -0.252060 -0.950131 0.183117
vn -0.016633 -0.999695 0.016633
vn -0.220350 -0.950101 0.220350
vn -0.013703 -0.999695 0.018953
vn -0.183117 -0.950131 0.252060
vn -0.010621 -0.999695 0.020906
vn -0.141519 -0.950101 0.277696
vn -0.007172 -0.999695 0.022249
vn -0.096228 -0.950131 0.296313
vn -0.003601 -0.999695 0.023225
vn -0.048679 -0.950101 0.307819
vn 0.000000 -0.999695 0.023408
vn 0.000000 -0.950131 0.311573
vn 0.003601 -0.999695 0.023225
vn 0.048679 -0.950101 0.307819
vn 0.007172 -0.999695 0.022249
vn 0.096228 -0.950131 0.296313
vn 0.010621 -0.999695 0.020906
vn 0.141519 -0.950101 0.277696
vn 0.013703 -0.999695 0.018953
vn 0.183117 -0.950131 0.252060
vn 0.016633 -0.999695 0.016633
vn 0.220350 -0.950101 0.220350
vn 0.018953 -0.999695 0.013703
vn 0.252060 -0.950131 0.183117
vn 0.020906 -0.999695 0.010621
vn 0.277696 -0.950101 0.141519
vn 0.022249 -0.999695 0.007172
vn 0.296313 -0.950131 0.096228
vn 0.023225 -0.999695 0.003601
vn 0.307819 -0.950101 0.048679
vn 0.023408 -0.999695 0.000000
vn 0.311573 -0.950131 0.000000
vn 0.023225 -0.999695 -0.003601
vn 0.307819 -0.950101 -0.048679
vn 0.022249 -0.999695 -0.007172
vn 0.296313 -0.950131 -0.096228
vn 0.020906 -0.999695 -0.010621
vn 0.277696 -0.950101 -0.141519
vn 0.018953 -0.999695 -0.013703
vn 0.252060 -0.950131 -0.183117
vn 0.016633 -0.999695 -0.016633
vn 0.220350 -0.950101 -0.220350
vn 0.013703 -0.999695 -0.018953
vn 0.183117 -0.950131 -0.252060
vn 0.010621 -0.999695 -0.020906
vn 0.141519 -0.950101 -0.277696
vn 0.007172 -0.999695 -0.022249
vn 0.096228 -0.950131 -0.296313
vn 0.003601 -0.999695 -0.023225
vn 0.048679 -0.950101 -0.307819
vn 0.000000 -0.999695 -0.023408
vn 0.000000 -0.950131 -0.311573
vn -0.003601 -0.999695 -0.023225
vn -0.048679 -0.950101 -0.307819
vn -0.007172 -0.999695 -0.022249
vn -0.096228 -0.950131 -0.296313
vn -0.010621 -0.999695 -0.020906
vn -0.141519 -0.950101 -0.277696
vn -0.013703 -0.999695 -0.018953
vn -0.183117 -0.950131 -0.252060
vn -0.016633 -0.999695 -0.016633
vn -0.220350 -0.950101 -0.220350
vn -0.018953 -0.999695 -0.013703
vn -0.252060 -0.950131 -0.183117
vn -0.020906 -0.999695 -0.010621
vn -0.277696 -0.950101 -0.141519
vn -0.022249 -0.999695 -0.007172
vn -0.296313 -0.950131 -0.096228
vn -0.023225 -0.999695 -0.003601
vn -0.307819 -0.950101 -0.048679
vn -0.023408 -0.999695 0.000000
vn -0.311573 -0.950131 0.000000
vn -0.023225 -0.999695 0.003601
vn -0.307819 -0.950101 0.048679
vn -0.581395 -0.791308 0.188885
vn -0.544742 -0.791247 0.277483
vn -0.494507 -0.791308 0.359305
vn -0.432308 -0.791247 0.432308
vn -0.359305 -0.791308 0.494507
vn -0.277483 -0.791247 0.544742
vn -0.188885 -0.791308 0.581395
vn -0.095617 -0.791247 0.603797
vn 0.000000 -0.791308 0.611304
vn 0.095617 -0.791247 0.603797
vn 0.188885 -0.791308 0.581395
vn 0.277483 -0.791247 0.544742
vn 0.359305 -0.791308 0.494507
vn 0.432308 -0.791247 0.432308
vn 0.494507 -0.791308 0.359305
vn 0.544742 -0.791247 0.277483
vn 0.581395 -0.791308 0.188885
vn 0.603797 -0.791247 0.095617
vn 0.611304 -0.791308 0.000000
vn 0.603797 -0.791247 -0.095617
vn 0.581395 -0.791308 -0.188885
vn 0.544742 -0.791247 -0.277483
vn 0.494507 -0.791308 -0.359305
vn 0.432308 -0.791247 -0.432308
vn 0.359305 -0.791308 -0.494507
vn 0.277483 -0.791247 -0.544742
vn 0.188885 -0.791308 -0.581395
vn 0.095617 -0.791247 -0.603797
vn 0.000000 -0.791308 -0.611304
vn -0.095617 -0.791247 -0.603797
vn -0.188885 -0.791308 -0.581395
vn -0.277483 -0.791247 -0.544742
vn -0.359305 -0.791308 -0.494507
vn -0.432308 -0.791247 -0.432308
vn -0.494507 -0.791308 -0.359305
vn -0.544742 -0.791247 -0.277483
vn -0.581395 -0.791308 -0.188885
vn -0.603797 -0.791247 -0.095617
vn -0.611304 -0.791308 0.000000
vn -0.603797 -0.791247 0.095617
vn -0.833700 -0.481170 0.270799
vn -0.781084 -0.481139 0.397974
vn -0.709119 -0.481170 0.515260
vn -0.619819 -0.481108 0.619819
vn -0.515260 -0.481170 0.709119
vn -0.397974 -0.481139 0.781084
vn -0.270799 -0.481170 0.833700
vn -0.137124 -0.481108 0.865775
vn 0.000000 -0.481170 0.876610
vn 0.137124 -0.481108 0.865775
vn 0.270799 -0.481170 0.833700
vn 0.397974 -0.481139 0.781084
vn 0.515260 -0.481170 0.709119
vn 0.619819 -0.481108 0.619819
vn 0.709119 -0.481170 0.515260
vn 0.781084 -0.481139 0.397974
vn 0.833700 -0.481170 0.270799
vn 0.865775 -0.481108 0.137124
vn 0.876610 -0.481170 0.000000
vn 0.865775 -0.481108 -0.137124
vn 0.833700 -0.481170 -0.270799
vn 0.781084 -0.481139 -0.397974
vn 0.709119 -0.481170 -0.515260
vn 0.619819 -0.481108 -0.619819
vn 0.515260 -0.481170 -0.709119
vn 0.397974 -0.481139 -0.781084
vn 0.270799 -0.481170 -0.833700
vn 0.137124 -0.481108 -0.865775
vn 0.000000 -0.481170 -0.876610
vn -0.137124 -0.481108 -0.865775
vn -0.270799 -0.481170 -0.833700
vn -0.397974 -0.481139 -0.781084
vn -0.515260 -0.481170 -0.709119
vn -0.619819 -0.481108 -0.619819
vn -0.709119 -0.481170 -0.515260
vn -0.781084 -0.481139 -0.397974
vn -0.833700 -0.481170 -0.270799
vn -0.865775 -0.481108 -0.137124
vn -0.876610 -0.481170 0.000000
vn -0.865775 -0.481108 0.137124
vn 0.198621 -0.974760 -0.101202
vn 0.211958 -0.974760 -0.068821
vn 0.220167 -0.974760 -0.034853
vn 0.180309 -0.974760 -0.130989
vn 0.157633 -0.974760 -0.157633
vn 0.130989 -0.974760 -0.180309
vn 0.101202 -0.974760 -0.198621
vn 0.068821 -0.974760 -0.211958
vn 0.034853 -0.974760 -0.220167
vn 0.000000 -0.974760 -0.222945
vn -0.034853 -0.974760 -0.220167
vn -0.068821 -0.974760 -0.211958
vn -0.101202 -0.974760 -0.198621
vn -0.130989 -0.974760 -0.180309
vn -0.157633 -0.974760 -0.157633
vn -0.180309 -0.974760 -0.130989
vn -0.198621 -0.974760 -0.101202
vn -0.211958 -0.974760 -0.068821
vn -0.220167 -0.974760 -0.034853
vn -0.222945 -0.974760 0.000000
vn -0.220167 -0.974760 0.034853
vn -0.211958 -0.974760 0.068821
vn -0.198621 -0.974760 0.101202
vn -0.180309 -0.974760 0.130989
vn -0.157633 -0.974760 0.157633
vn -0.130989 -0.974760 0.180309
vn -0.101202 -0.974760 0.198621
vn -0.068821 -0.974760 0.211958
vn -0.034853 -0.974760 0.220167
vn 0.000000 -0.974760 0.222945
vn 0.034853 -0.974760 0.220167
vn 0.068821 -0.974760 0.211958
vn 0.101202 -0.974760 0.198621
vn 0.130989 -0.974760 0.180309
vn 0.157633 -0.974760 0.157633
vn 0.180309 -0.974760 0.130989
vn 0.198621 -0.974760 0.101202
vn 0.211958 -0.974760 0.068821
vn 0.220167 -0.974760 0.034853
vn 0.222945 -0.974760 0.000000
# 840 uv coords
vt 0.129368 0.311612
vt 0.122229 0.344185
vt 0.102466 0.341111
vt 0.110129 0.306134
vt 0.149010 0.317208
vt 0.142405 0.347324
vt 0.119137 0.377388
vt 0.099143 0.376764
vt 0.092678 0.301168
vt 0.084541 0.338324
vt 0.140488 0.280172
vt 0.122070 0.272375
vt 0.139550 0.378024
vt 0.159291 0.288136
vt 0.120182 0.410721
vt 0.100265 0.412555
vt 0.081008 0.376195
vt 0.105362 0.265308
vt 0.068925 0.335894
vt 0.077477 0.296843
vt 0.155376 0.250324
vt 0.138050 0.240326
vt 0.140515 0.408845
vt 0.173063 0.260538
vt 0.125298 0.443680
vt 0.105753 0.447943
vt 0.082199 0.414213
vt 0.065212 0.375698
vt 0.090806 0.259153
vt 0.122335 0.231263
vt 0.055301 0.333774
vt 0.064216 0.293071
vt 0.173836 0.222536
vt 0.157870 0.210492
vt 0.145252 0.439322
vt 0.190134 0.234839
vt 0.134444 0.475761
vt 0.115574 0.482386
vt 0.088027 0.451803
vt 0.066461 0.415655
vt 0.051432 0.375263
vt 0.078106 0.253786
vt 0.108644 0.223374
vt 0.143389 0.199575
vt 0.043134 0.331881
vt 0.052374 0.289702
vt 0.195542 0.197195
vt 0.181172 0.183283
vt 0.153711 0.468991
vt 0.210215 0.211406
vt 0.147427 0.506496
vt 0.129510 0.515385
vt 0.098459 0.488388
vt 0.072585 0.455160
vt 0.039128 0.374875
vt 0.066762 0.248992
vt 0.096697 0.216495
vt 0.130771 0.190071
vt 0.168144 0.170672
vt 0.021371 0.328496
vt 0.031195 0.283672
vt 0.220187 0.174705
vt 0.207635 0.159131
vt 0.165726 0.497416
vt 0.233019 0.190604
vt 0.164076 0.535410
vt 0.147385 0.546434
vt 0.113266 0.523441
vt 0.083550 0.493609
vt 0.040468 0.418031
vt 0.017117 0.374186
vt 0.046480 0.240406
vt 0.086026 0.210352
vt 0.119756 0.181786
vt 0.156793 0.159701
vt 0.196269 0.145017
vt 0.247346 0.155361
vt 0.236797 0.138337
vt 0.181133 0.524162
vt 0.258177 0.172726
vt 0.184073 0.562093
vt 0.168848 0.575106
vt 0.132267 0.556427
vt 0.099117 0.530446
vt 0.047082 0.460695
vt 0.018536 0.420049
vt 0.066951 0.199346
vt 0.109913 0.174390
vt 0.146879 0.150143
vt 0.186368 0.132744
vt 0.227287 0.122912
vt 0.276572 0.139473
vt 0.268206 0.121226
vt 0.199669 0.548841
vt 0.285307 0.158050
vt 0.207087 0.586114
vt 0.193571 0.600955
vt 0.155102 0.586911
vt 0.119105 0.565110
vt 0.058915 0.502211
vt 0.025565 0.465385
vt 0.092323 0.161134
vt 0.138011 0.141616
vt 0.177706 0.122066
vt 0.219013 0.109521
vt 0.260768 0.104696
vt 0.307280 0.127199
vt 0.301318 0.108022
vt 0.221055 0.571070
vt 0.313897 0.146660
vt 0.232611 0.607144
vt 0.221103 0.623600
vt 0.181461 0.614443
vt 0.143149 0.597153
vt 0.075728 0.541970
vt 0.038129 0.509497
vt 0.122167 0.126324
vt 0.169933 0.112548
vt 0.211743 0.097895
vt 0.254306 0.090371
vt 0.296209 0.090600
vt 0.244831 0.590614
vt 0.210940 0.638646
vt 0.170951 0.626126
vt 0.097309 0.579358
vt 0.055986 0.551724
vt 0.156041 0.095466
vt 0.205165 0.087558
vt 0.248555 0.077967
vt 0.291757 0.075467
vt 0.213699 0.392099
vt 0.225305 0.375712
vt 0.201382 0.408555
vt 0.136441 0.871922
vt 0.142319 0.891124
vt 0.202099 0.651710
vt 0.123281 0.613870
vt 0.078884 0.591412
vt 0.193374 0.068981
vt 0.243223 0.066973
vt 0.287629 0.062356
vt 0.235556 0.360727
vt 0.239098 0.413278
vt 0.252702 0.398517
vt 0.129909 0.852433
vt 0.225041 0.428238
vt 0.167202 0.859779
vt 0.175486 0.878063
vt 0.147350 0.908569
vt 0.153280 0.645050
vt 0.106403 0.627985
vt 0.233550 0.047218
vt 0.283545 0.050759
vt 0.244474 0.347716
vt 0.264892 0.385103
vt 0.261968 0.437436
vt 0.277269 0.424514
vt 0.158548 0.841165
vt 0.246293 0.450594
vt 0.196495 0.844016
vt 0.206969 0.861087
vt 0.182851 0.894627
vt 0.151734 0.923721
vt 0.186765 0.672755
vt 0.138060 0.660931
vt 0.275804 0.030110
vt 0.252457 0.336528
vt 0.275471 0.373481
vt 0.291086 0.412791
vt 0.281801 0.464241
vt 0.298558 0.453318
vt 0.185740 0.826604
vt 0.264676 0.475387
vt 0.223737 0.824788
vt 0.236220 0.840419
vt 0.216408 0.876554
vt 0.189249 0.908981
vt 0.173113 0.690075
vt 0.259929 0.326764
vt 0.284778 0.363466
vt 0.303098 0.402619
vt 0.313734 0.443414
vt 0.298268 0.493260
vt 0.316239 0.484477
vt 0.210976 0.808831
vt 0.279916 0.502230
vt 0.248482 0.802407
vt 0.262789 0.816387
vt 0.247522 0.854587
vt 0.224621 0.889983
vt 0.159833 0.948466
vt 0.273682 0.309525
vt 0.293253 0.354662
vt 0.313609 0.393812
vt 0.326947 0.434807
vt 0.332532 0.476517
vt 0.311058 0.524079
vt 0.329967 0.517566
vt 0.233871 0.788129
vt 0.291751 0.530734
vt 0.270302 0.777163
vt 0.286212 0.789283
vt 0.275760 0.829059
vt 0.257367 0.866906
vt 0.200225 0.932428
vt 0.167481 0.969149
vt 0.308565 0.338871
vt 0.323065 0.386019
vt 0.338490 0.427332
vt 0.346721 0.469595
vt 0.347117 0.511663
vt 0.320006 0.556220
vt 0.339575 0.552071
vt 0.254058 0.764783
vt 0.300025 0.560461
vt 0.288889 0.749458
vt 0.306168 0.759541
vt 0.300643 0.800271
vt 0.287061 0.840086
vt 0.238369 0.912010
vt 0.209808 0.952226
vt 0.340028 0.372003
vt 0.348826 0.420687
vt 0.359106 0.463573
vt 0.362056 0.506529
vt 0.357324 0.548313
vt 0.324924 0.589214
vt 0.344852 0.587494
vt 0.271249 0.739159
vt 0.304578 0.590974
vt 0.303917 0.719679
vt 0.322299 0.727568
vt 0.321841 0.768682
vt 0.313218 0.809836
vt 0.273710 0.887181
vt 0.250076 0.930640
vt 0.367323 0.408744
vt 0.370177 0.458208
vt 0.375094 0.502058
vt 0.372785 0.545044
vt 0.362927 0.585938
vt 0.325777 0.622557
vt 0.345769 0.623293
vt 0.285153 0.711621
vt 0.305366 0.621808
vt 0.315195 0.688290
vt 0.334408 0.693868
vt 0.338973 0.734720
vt 0.335495 0.776639
vt 0.305760 0.858262
vt 0.287524 0.904327
vt 0.389976 0.448571
vt 0.386742 0.498068
vt 0.386275 0.542196
vt 0.378673 0.584584
vt 0.363901 0.623962
vt 0.322503 0.655749
vt 0.342252 0.658929
vt 0.295580 0.682593
vt 0.302342 0.652502
vt 0.351834 0.698924
vt 0.353500 0.740948
vt 0.334004 0.825621
vt 0.321535 0.873627
vt 0.407572 0.490906
vt 0.398322 0.539653
vt 0.392413 0.583405
vt 0.379696 0.624545
vt 0.360163 0.661813
vt 0.367015 0.703329
vt 0.358052 0.789774
vt 0.351533 0.838961
vt 0.419867 0.535088
vt 0.404684 0.582352
vt 0.375768 0.664325
vt 0.377496 0.751232
vt 0.377076 0.800872
vt 0.426630 0.580458
vt 0.405781 0.625511
vt 0.392085 0.710600
vt 0.397737 0.759920
vt 0.427790 0.626320
vt 0.401542 0.668476
vt 0.413235 0.716741
vt 0.423290 0.671977
vt 0.633917 0.480056
vt 0.651676 0.519016
vt 0.639515 0.523599
vt 0.622450 0.486168
vt 0.644338 0.474498
vt 0.662728 0.514846
vt 0.664270 0.559945
vt 0.651623 0.562915
vt 0.629556 0.527343
vt 0.613058 0.491167
vt 0.611255 0.443728
vt 0.600672 0.451258
vt 0.675763 0.557240
vt 0.620881 0.436884
vt 0.671409 0.602173
vt 0.658484 0.603479
vt 0.641268 0.565339
vt 0.618114 0.531647
vt 0.602266 0.496916
vt 0.592012 0.457428
vt 0.584142 0.410575
vt 0.574623 0.419381
vt 0.683157 0.600981
vt 0.592819 0.402589
vt 0.673010 0.644974
vt 0.660027 0.644592
vt 0.647904 0.604543
vt 0.629368 0.568127
vt 0.601179 0.538035
vt 0.586289 0.505441
vt 0.582061 0.464529
vt 0.566859 0.426613
vt 0.552983 0.381129
vt 0.544682 0.391040
vt 0.684810 0.645318
vt 0.560611 0.372172
vt 0.668971 0.687616
vt 0.656147 0.685551
vt 0.649400 0.644277
vt 0.635748 0.605766
vt 0.611753 0.572270
vt 0.582515 0.545085
vt 0.568675 0.514843
vt 0.567313 0.475047
vt 0.557938 0.434951
vt 0.537976 0.399210
vt 0.518336 0.355682
vt 0.511355 0.366561
vt 0.680628 0.689492
vt 0.524905 0.345918
vt 0.659420 0.729370
vt 0.646975 0.725657
vt 0.645650 0.683862
vt 0.637189 0.643915
vt 0.617750 0.607590
vt 0.592337 0.576846
vt 0.563460 0.552302
vt 0.550694 0.524460
vt 0.551035 0.486636
vt 0.544672 0.447299
vt 0.530287 0.408656
vt 0.505845 0.375572
vt 0.670732 0.732745
vt 0.644466 0.769504
vt 0.632604 0.764207
vt 0.636785 0.722622
vt 0.633591 0.681920
vt 0.619107 0.643385
vt 0.597911 0.609607
vt 0.572510 0.581534
vt 0.534415 0.498476
vt 0.529977 0.460894
vt 0.518775 0.422650
vt 0.499592 0.386002
vt 0.939553 0.043702
vt 0.942860 0.056198
vt 0.655247 0.774322
vt 0.936296 0.032395
vt 0.624434 0.807357
vt 0.613358 0.800567
vt 0.622891 0.759877
vt 0.625077 0.719133
vt 0.615733 0.679045
vt 0.599174 0.642805
vt 0.577651 0.611678
vt 0.514937 0.474749
vt 0.505905 0.438033
vt 0.490157 0.401430
vt 0.945338 0.066466
vt 0.898776 0.057301
vt 0.903636 0.069281
vt 0.634498 0.813532
vt 0.894263 0.046436
vt 0.599631 0.842265
vt 0.589521 0.834097
vt 0.604285 0.795016
vt 0.611732 0.754900
vt 0.607741 0.713961
vt 0.596050 0.675876
vt 0.578816 0.642219
vt 0.492603 0.453647
vt 0.479407 0.418321
vt 0.948091 0.078311
vt 0.907511 0.079115
vt 0.860094 0.075772
vt 0.866452 0.087075
vt 0.608817 0.849693
vt 0.854287 0.065508
vt 0.570543 0.873685
vt 0.561572 0.864283
vt 0.581239 0.827417
vt 0.593860 0.788634
vt 0.595215 0.747520
vt 0.588634 0.708255
vt 0.575947 0.672639
vt 0.467945 0.435343
vt 0.952339 0.095890
vt 0.911931 0.090467
vt 0.871621 0.096343
vt 0.824128 0.099007
vt 0.831889 0.109426
vt 0.578694 0.882232
vt 0.817068 0.089538
vt 0.537629 0.901068
vt 0.529942 0.890596
vt 0.554223 0.856589
vt 0.571725 0.819740
vt 0.578434 0.779172
vt 0.577012 0.739379
vt 0.569120 0.702421
vt 0.957391 0.115266
vt 0.918596 0.107319
vt 0.877553 0.107020
vt 0.838237 0.117961
vt 0.791426 0.126627
vt 0.800463 0.135970
vt 0.544621 0.910585
vt 0.783215 0.118134
vt 0.501481 0.924035
vt 0.495205 0.912689
vt 0.523653 0.882020
vt 0.545779 0.847742
vt 0.557650 0.808359
vt 0.561434 0.768734
vt 0.558427 0.731052
vt 0.963083 0.134982
vt 0.926129 0.125910
vt 0.886392 0.122846
vt 0.845529 0.127778
vt 0.807866 0.143617
vt 0.762573 0.158244
vt 0.772738 0.166348
vt 0.507215 0.934341
vt 0.753336 0.150876
vt 0.462657 0.942218
vt 0.457883 0.930204
vt 0.490101 0.903386
vt 0.516431 0.872154
vt 0.533282 0.834635
vt 0.542139 0.795808
vt 0.544081 0.758059
vt 0.934003 0.144850
vt 0.896210 0.140295
vt 0.856339 0.142320
vt 0.816371 0.152409
vt 0.781065 0.172977
vt 0.738015 0.193306
vt 0.749138 0.200030
vt 0.467091 0.953117
vt 0.727909 0.187193
vt 0.421776 0.955515
vt 0.418559 0.942994
vt 0.454078 0.920343
vt 0.484246 0.892669
vt 0.505727 0.857540
vt 0.519507 0.820180
vt 0.526312 0.782975
vt 0.906277 0.158096
vt 0.868276 0.158348
vt 0.828959 0.165433
vt 0.790632 0.180596
vt 0.758249 0.205529
vt 0.718234 0.231272
vt 0.730133 0.236503
vt 0.424951 0.966846
vt 0.707421 0.226516
vt 0.416154 0.932708
vt 0.449741 0.908961
vt 0.475522 0.876781
vt 0.493907 0.841428
vt 0.505453 0.805406
vt 0.880463 0.174717
vt 0.842838 0.179793
vt 0.804786 0.191885
vt 0.768717 0.211849
vt 0.739875 0.240779
vt 0.703525 0.271479
vt 0.715996 0.275126
vt 0.692192 0.268164
vt 0.845865 0.644722
vt 0.852818 0.633825
vt 0.413488 0.920843
vt 0.443199 0.892061
vt 0.465834 0.859263
vt 0.481841 0.824971
vt 0.856998 0.194467
vt 0.820384 0.204334
vt 0.784207 0.221217
vt 0.751068 0.245694
vt 0.726207 0.278108
vt 0.694199 0.313266
vt 0.707039 0.315267
vt 0.839320 0.654502
vt 0.682529 0.311447
vt 0.811162 0.619356
vt 0.819439 0.609422
vt 0.858305 0.624798
vt 0.409369 0.903232
vt 0.435805 0.873415
vt 0.455900 0.841388
vt 0.836301 0.217061
vt 0.801277 0.231549
vt 0.767635 0.252979
vt 0.737940 0.281535
vt 0.717550 0.316906
vt 0.690365 0.355909
vt 0.703353 0.356231
vt 0.803556 0.628333
vt 0.678560 0.355617
vt 0.779939 0.589985
vt 0.789436 0.581153
vt 0.826123 0.601234
vt 0.864532 0.614350
vt 0.404460 0.883820
vt 0.428073 0.854416
vt 0.818703 0.242112
vt 0.785891 0.261014
vt 0.755310 0.286615
vt 0.729626 0.318788
vt 0.713987 0.356498
vt 0.692136 0.398685
vt 0.705060 0.397324
vt 0.771282 0.597996
vt 0.680390 0.399925
vt 0.752752 0.556905
vt 0.763315 0.549342
vt 0.797181 0.573898
vt 0.833788 0.591765
vt 0.873929 0.598897
vt 0.398918 0.864060
vt 0.804531 0.269229
vt 0.774455 0.292217
vt 0.747505 0.321574
vt 0.726207 0.356804
vt 0.715642 0.396215
vt 0.699422 0.440871
vt 0.712062 0.437851
vt 0.743144 0.563777
vt 0.687935 0.443619
vt 0.730004 0.520644
vt 0.741455 0.514495
vt 0.771960 0.543145
vt 0.806081 0.565533
vt 0.845266 0.577741
vt 0.884638 0.581979
vt 0.794005 0.297943
vt 0.767211 0.324646
vt 0.744298 0.357251
vt 0.727801 0.394940
vt 0.722414 0.435386
vt 0.712140 0.481745
vt 0.724289 0.477120
vt 0.719597 0.526235
vt 0.701100 0.485953
vt 0.750834 0.509463
vt 0.781893 0.536013
vt 0.819316 0.553148
vt 0.858098 0.562325
vt 0.896060 0.564930
vt 0.787335 0.327783
vt 0.764240 0.357742
vt 0.745799 0.393043
vt 0.734309 0.432551
vt 0.734240 0.473339
vt 0.761612 0.503678
vt 0.796614 0.525453
vt 0.833978 0.539516
vt 0.871364 0.546679
vt 0.784606 0.358237
vt 0.765636 0.390945
vt 0.751917 0.428343
vt 0.745673 0.468993
vt 0.777567 0.495103
vt 0.812863 0.513817
vt 0.848984 0.525624
vt 0.785892 0.388793
vt 0.771322 0.423697
vt 0.762591 0.462547
vt 0.795157 0.485648
vt 0.829454 0.501935
vt 0.791136 0.418937
vt 0.781238 0.455436
vt 0.813112 0.475980
vt 0.800274 0.448158
vt 0.052731 0.416910
vt 0.059113 0.458085
vt 0.070539 0.498155
vt 0.086767 0.536540
vt 0.107607 0.572652
vt 0.132691 0.606020
vt 0.161702 0.636196
vt 0.194181 0.662946
vt 0.155803 0.936850
vt 0.194943 0.921411
vt 0.231838 0.901642
vt 0.265981 0.877626
vt 0.296932 0.849692
vt 0.324195 0.818175
vt 0.347411 0.783578
vt 0.366174 0.746381
vt 0.380258 0.707170
vt 0.393475 0.625055
vt 0.389383 0.666518
vt 0.107884 0.899553
vt 0.110263 0.917488
vt 0.104755 0.880219
vt 0.112447 0.933516
vt 0.100464 0.860748
vt 0.114866 0.947787
vt 0.095204 0.841881
vt 0.123357 0.833688
vt 0.117758 0.960614
vt 0.150160 0.823203
vt 0.123906 0.982467
vt 0.175339 0.809766
vt 0.172956 0.983871
vt 0.128814 0.997632
vt 0.198626 0.793385
vt 0.216584 0.966369
vt 0.219733 0.774304
vt 0.258372 0.943941
vt 0.238338 0.752791
vt 0.297334 0.916555
vt 0.254179 0.729181
vt 0.332748 0.884579
vt 0.266989 0.703813
vt 0.364000 0.848463
vt 0.276594 0.677075
vt 0.390610 0.808776
vt 0.282824 0.649359
vt 0.412139 0.766105
vt 0.285607 0.621088
vt 0.428285 0.721112
vt 0.284882 0.592684
vt 0.438764 0.674469
vt 0.280685 0.564574
vt 0.443451 0.626893
vt 0.273060 0.537183
vt 0.442246 0.579106
vt 0.262152 0.510916
vt 0.435197 0.531833
vt 0.248103 0.486176
vt 0.422391 0.485798
vt 0.231134 0.463318
vt 0.195253 0.356904
vt 0.203140 0.340622
vt 0.404060 0.441695
vt 0.211442 0.442662
vt 0.186216 0.374280
vt 0.210243 0.326090
vt 0.380476 0.400214
vt 0.189279 0.424297
vt 0.176032 0.391421
vt 0.217018 0.313300
vt 0.352080 0.361979
vt 0.165118 0.407686
vt 0.223790 0.302028
vt 0.319437 0.327568
vt 0.236484 0.283208
vt 0.283499 0.297264
vt 0.245903 0.270349
vt 0.260200 0.624800
vt 0.251265 0.642230
vt 0.270282 0.607598
vt 0.243474 0.658561
vt 0.256840 0.574801
vt 0.281099 0.591269
vt 0.236455 0.673137
vt 0.234569 0.556566
vt 0.229753 0.685969
vt 0.214751 0.536026
vt 0.223047 0.697281
vt 0.197640 0.513270
vt 0.210463 0.716176
vt 0.183435 0.488619
vt 0.201119 0.729090
vt 0.163367 0.702394
vt 0.172360 0.462426
vt 0.127255 0.672297
vt 0.164566 0.435091
vt 0.094411 0.638082
vt 0.160200 0.407019
vt 0.065783 0.600021
vt 0.159311 0.378635
vt 0.041944 0.558686
vt 0.161940 0.350363
vt 0.023341 0.514694
vt 0.168023 0.322629
vt 0.010254 0.468731
vt 0.177492 0.295854
vt 0.002929 0.421490
vt 0.190179 0.270434
vt 0.001453 0.373700
vt 0.205908 0.246758
vt 0.005884 0.326087
vt 0.224415 0.225166
vt 0.016124 0.279377
vt 0.245436 0.205997
vt 0.032048 0.234292
vt 0.268651 0.189518
vt 0.053380 0.191508
vt 0.293772 0.175975
vt 0.079812 0.151690
vt 0.335715 0.099443
vt 0.338929 0.118764
vt 0.320530 0.165375
vt 0.343305 0.138216
vt 0.110903 0.115426
vt 0.333257 0.081516
vt 0.348647 0.157061
vt 0.146176 0.083284
vt 0.331001 0.065497
vt 0.185018 0.055719
vt 0.328517 0.051236
vt 0.226711 0.033105
vt 0.325567 0.038422
vt 0.270264 0.015412
vt 0.319320 0.016596
vt 0.314343 0.001453
vt 0.898120 0.632425
vt 0.905012 0.615929
vt 0.893475 0.643815
vt 0.913067 0.598220
vt 0.889190 0.653861
vt 0.922309 0.580614
vt 0.883463 0.665989
vt 0.907277 0.548557
vt 0.932314 0.563786
vt 0.877752 0.676830
vt 0.884158 0.531546
vt 0.867059 0.695848
vt 0.827327 0.672450
vt 0.863461 0.512143
vt 0.789688 0.644865
vt 0.845491 0.490388
vt 0.755490 0.612713
vt 0.830488 0.466580
vt 0.725610 0.576377
vt 0.818710 0.441076
vt 0.700593 0.536485
vt 0.810333 0.414302
vt 0.680933 0.493670
vt 0.805525 0.386691
vt 0.666942 0.448663
vt 0.804347 0.358709
vt 0.658920 0.402206
vt 0.806845 0.330824
vt 0.656977 0.355093
vt 0.812953 0.303502
vt 0.661196 0.308122
vt 0.822593 0.277207
vt 0.671473 0.262095
vt 0.835578 0.252371
vt 0.687664 0.217808
vt 0.851707 0.229418
vt 0.709448 0.175997
vt 0.870688 0.208710
vt 0.736474 0.137386
vt 0.892225 0.190597
vt 0.768232 0.102586
vt 0.985587 0.071316
vt 0.987131 0.089126
vt 0.915964 0.175343
vt 0.804202 0.072198
vt 0.984628 0.059054
vt 0.989414 0.108447
vt 0.941584 0.163160
vt 0.843724 0.046682
vt 0.983604 0.048181
vt 0.992860 0.128032
vt 0.968785 0.153992
vt 0.886086 0.026467
vt 0.981840 0.034887
vt 0.997269 0.147106
vt 0.930334 0.011648
vt 0.979700 0.022823
vt 0.975303 0.001453
vt 0.375940 0.927558
vt 0.374527 0.909735
vt 0.376810 0.939829
vt 0.372387 0.890397
vt 0.377756 0.950711
vt 0.369089 0.870785
vt 0.379423 0.964018
vt 0.364826 0.851676
vt 0.393362 0.845008
vt 0.381475 0.976098
vt 0.420632 0.836049
vt 0.430759 0.987637
vt 0.385714 0.997499
vt 0.446346 0.824067
vt 0.475120 0.973145
vt 0.470200 0.809002
vt 0.517638 0.953244
vt 0.491870 0.791063
vt 0.557359 0.928018
vt 0.510996 0.770508
vt 0.593565 0.897885
vt 0.527278 0.747687
vt 0.625585 0.863297
vt 0.540417 0.722962
vt 0.652884 0.824845
vt 0.550207 0.696756
vt 0.674950 0.783151
vt 0.556457 0.669500
vt 0.691416 0.738929
vt 0.559080 0.641661
vt 0.701943 0.692923
vt 0.558013 0.613706
vt 0.706388 0.645939
vt 0.553300 0.586108
vt 0.704635 0.598782
vt 0.545005 0.559332
vt 0.696772 0.552268
vt 0.533296 0.533816
vt 0.682918 0.507192
vt 0.518352 0.509985
vt 0.663369 0.464302
vt 0.500430 0.488197
vt 0.459114 0.384325
vt 0.466046 0.367846
vt 0.638447 0.424329
vt 0.470720 0.356469
vt 0.479776 0.468753
vt 0.451015 0.402016
vt 0.608647 0.387912
vt 0.475032 0.346435
vt 0.456693 0.451691
vt 0.441732 0.419601
vt 0.574519 0.355674
vt 0.480788 0.334323
vt 0.431689 0.436407
vt 0.536940 0.327999
vt 0.486525 0.323497
vt 0.497263 0.304506
# 720 polygons
usemtl initialShadingGroup
s 1
g HoverRing_LP
f 2/697/1 441/695/2 443/14/3 444/24/4
f 441/695/2 1/693/5 442/5/6 443/14/3
f 3/701/7 445/699/8 446/36/9 447/50/10
f 445/699/8 2/697/1 444/24/4 446/36/9
f 4/705/11 448/703/12 449/65/13 450/80/14
f 448/703/12 3/701/7 447/50/10 449/65/13
f 5/711/15 451/707/16 452/95/17 453/110/18
f 451/707/16 4/705/11 450/80/14 452/95/17
f 6/657/19 454/661/20 455/658/21 456/133/22
f 454/715/20 5/711/15 453/110/18 455/712/21
f 7/649/23 457/653/24 458/146/25 459/159/26
f 457/653/24 6/657/19 456/133/22 458/146/25
f 8/645/27 460/647/28 461/173/29 462/186/30
f 460/647/28 7/649/23 459/159/26 461/173/29
f 9/641/31 463/643/32 464/200/33 465/215/34
f 463/643/32 8/645/27 462/186/30 464/200/33
f 10/637/35 466/639/36 467/230/37 468/245/38
f 466/639/36 9/641/31 465/215/34 467/230/37
f 11/633/39 469/635/40 470/260/41 471/259/42
f 469/635/40 10/637/35 468/245/38 470/260/41
f 12/629/43 472/631/44 473/244/45 474/229/46
f 472/631/44 11/633/39 471/259/42 473/244/45
f 13/625/47 475/627/48 476/214/49 477/199/50
f 475/627/48 12/629/43 474/229/46 476/214/49
f 14/620/51 478/623/52 479/185/53 480/172/54
f 478/623/52 13/625/47 477/199/50 479/185/53
f 15/616/55 481/618/56 482/158/57 483/145/58
f 481/618/56 14/620/51 480/172/54 482/158/57
f 16/671/59 484/672/60 485/669/61 486/122/62
f 484/615/60 15/616/55 483/145/58 485/613/61
f 17/676/63 487/674/64 488/109/65 489/94/66
f 487/674/64 16/671/59 486/122/62 488/109/65
f 18/680/67 490/678/68 491/79/69 492/64/70
f 490/678/68 17/676/63 489/94/66 491/79/69
f 19/685/71 493/683/72 494/49/73 495/35/74
f 493/683/72 18/680/67 492/64/70 494/49/73
f 20/689/75 496/687/76 497/23/77 498/13/78
f 496/687/76 19/685/71 495/35/74 497/23/77
f 1/693/5 499/691/79 500/6/80 442/5/6
f 499/691/79 20/689/75 498/13/78 500/6/80
f 444/24/4 443/14/3 502/11/81 503/21/82
f 443/14/3 442/5/6 501/1/83 502/11/81
f 447/50/10 446/36/9 504/33/84 505/47/85
f 446/36/9 444/24/4 503/21/82 504/33/84
f 450/80/14 449/65/13 506/62/86 507/77/87
f 449/65/13 447/50/10 505/47/85 506/62/86
f 453/110/18 452/95/17 508/92/88 509/107/89
f 452/95/17 450/80/14 507/77/87 508/92/88
f 456/133/22 455/658/21 510/654/90 511/131/91
f 455/712/21 453/110/18 509/107/89 510/710/90
f 459/159/26 458/146/25 512/143/92 513/156/93
f 458/146/25 456/133/22 511/131/91 512/143/92
f 462/186/30 461/173/29 514/170/94 515/183/95
f 461/173/29 459/159/26 513/156/93 514/170/94
f 465/215/34 464/200/33 516/197/96 517/212/97
f 464/200/33 462/186/30 515/183/95 516/197/96
f 468/245/38 467/230/37 518/227/98 519/242/99
f 467/230/37 465/215/34 517/212/97 518/227/98
f 471/259/42 470/260/41 520/257/100 521/246/101
f 470/260/41 468/245/38 519/242/99 520/257/100
f 474/229/46 473/244/45 522/231/102 523/216/103
f 473/244/45 471/259/42 521/246/101 522/231/102
f 477/199/50 476/214/49 524/201/104 525/187/105
f 476/214/49 474/229/46 523/216/103 524/201/104
f 480/172/54 479/185/53 526/174/106 527/160/107
f 479/185/53 477/199/50 525/187/105 526/174/106
f 483/145/58 482/158/57 528/147/108 529/134/109
f 482/158/57 480/172/54 527/160/107 528/147/108
f 486/122/62 485/669/61 530/667/110 531/111/111
f 485/613/61 483/145/58 529/134/109 530/611/110
f 489/94/66 488/109/65 532/96/112 533/81/113
f 488/109/65 486/122/62 531/111/111 532/96/112
f 492/64/70 491/79/69 534/66/114 535/51/115
f 491/79/69 489/94/66 533/81/113 534/66/114
f 495/35/74 494/49/73 536/37/116 537/25/117
f 494/49/73 492/64/70 535/51/115 536/37/116
f 498/13/78 497/23/77 538/15/118 539/7/119
f 497/23/77 495/35/74 537/25/117 538/15/118
f 442/5/6 500/6/80 540/2/120 501/1/83
f 500/6/80 498/13/78 539/7/119 540/2/120
f 503/21/82 502/11/81 542/12/121 543/22/122
f 502/11/81 501/1/83 541/4/123 542/12/121
f 505/47/85 504/33/84 544/34/124 545/48/125
f 504/33/84 503/21/82 543/22/122 544/34/124
f 507/77/87 506/62/86 546/63/126 547/78/127
f 506/62/86 505/47/85 545/48/125 546/63/126
f 509/107/89 508/92/88 548/93/128 549/108/129
f 508/92/88 507/77/87 547/78/127 548/93/128
f 511/131/91 510/654/90 550/650/130 551/132/131
f 510/710/90 509/107/89 549/108/129 550/709/130
f 513/156/93 512/143/92 552/144/132 553/157/133
f 512/143/92 511/131/91 551/132/131 552/144/132
f 515/183/95 514/170/94 554/171/134 555/184/135
f 514/170/94 513/156/93 553/157/133 554/171/134
f 517/212/97 516/197/96 556/198/136 557/213/137
f 516/197/96 515/183/95 555/184/135 556/198/136
f 519/242/99 518/227/98 558/228/138 559/243/139
f 518/227/98 517/212/97 557/213/137 558/228/138
f 521/246/101 520/257/100 560/258/140 561/247/141
f 520/257/100 519/242/99 559/243/139 560/258/140
f 523/216/103 522/231/102 562/232/142 563/217/143
f 522/231/102 521/246/101 561/247/141 562/232/142
f 525/187/105 524/201/104 564/202/144 565/188/145
f 524/201/104 523/216/103 563/217/143 564/202/144
f 527/160/107 526/174/106 566/175/146 567/161/147
f 526/174/106 525/187/105 565/188/145 566/175/146
f 529/134/109 528/147/108 568/148/148 569/135/149
f 528/147/108 527/160/107 567/161/147 568/148/148
f 531/111/111 530/667/110 570/668/150 571/112/151
f 530/611/110 529/134/109 569/135/149 570/609/150
f 533/81/113 532/96/112 572/97/152 573/82/153
f 532/96/112 531/111/111 571/112/151 572/97/152
f 535/51/115 534/66/114 574/67/154 575/52/155
f 534/66/114 533/81/113 573/82/153 574/67/154
f 537/25/117 536/37/116 576/38/156 577/26/157
f 536/37/116 535/51/115 575/52/155 576/38/156
f 539/7/119 538/15/118 578/16/158 579/8/159
f 538/15/118 537/25/117 577/26/157 578/16/158
f 501/1/83 540/2/120 580/3/160 541/4/123
f 540/2/120 539/7/119 579/8/159 580/3/160
f 543/22/122 542/12/121 581/18/161 22/30/162
f 542/12/121 541/4/123 21/9/163 581/18/161
f 545/48/125 544/34/124 582/44/164 23/59/165
f 544/34/124 543/22/122 22/30/162 582/44/164
f 547/78/127 546/63/126 583/76/166 24/91/167
f 546/63/126 545/48/125 23/59/165 583/76/166
f 549/108/129 548/93/128 584/106/168 25/121/169
f 548/93/128 547/78/127 24/91/167 584/106/168
f 551/132/131 550/650/130 585/651/170 26/142/171
f 550/709/130 549/108/129 25/121/169 585/714/170
f 553/157/133 552/144/132 586/155/172 27/169/173
f 552/144/132 551/132/131 26/142/171 586/155/172
f 555/184/135 554/171/134 587/182/174 28/196/175
f 554/171/134 553/157/133 27/169/173 587/182/174
f 557/213/137 556/198/136 588/211/176 29/226/177
f 556/198/136 555/184/135 28/196/175 588/211/176
f 559/243/139 558/228/138 589/241/178 30/256/179
f 558/228/138 557/213/137 29/226/177 589/241/178
f 561/247/141 560/258/140 590/269/180 31/261/181
f 560/258/140 559/243/139 30/256/179 590/269/180
f 563/217/143 562/232/142 591/248/182 32/233/183
f 562/232/142 561/247/141 31/261/181 591/248/182
f 565/188/145 564/202/144 592/218/184 33/203/185
f 564/202/144 563/217/143 32/233/183 592/218/184
f 567/161/147 566/175/146 593/189/186 34/176/187
f 566/175/146 565/188/145 33/203/185 593/189/186
f 569/135/149 568/148/148 594/162/188 35/149/189
f 568/148/148 567/161/147 34/176/187 594/162/188
f 571/112/151 570/668/150 595/670/190 36/123/191
f 570/609/150 569/135/149 35/149/189 595/610/190
f 573/82/153 572/97/152 596/113/192 37/98/193
f 572/97/152 571/112/151 36/123/191 596/113/192
f 575/52/155 574/67/154 597/83/194 38/68/195
f 574/67/154 573/82/153 37/98/193 597/83/194
f 577/26/157 576/38/156 598/53/196 39/39/197
f 576/38/156 575/52/155 38/68/195 598/53/196
f 579/8/159 578/16/158 599/27/198 40/17/199
f 578/16/158 577/26/157 39/39/197 599/27/198
f 21/9/163 541/4/123 580/3/160 600/10/200
f 580/3/160 579/8/159 40/17/199 600/10/200
f 581/18/161 21/9/163 41/20/201 601/29/202
f 22/30/162 581/18/161 601/29/202 42/43/203
f 582/44/164 22/30/162 42/43/203 602/58/204
f 23/59/165 582/44/164 602/58/204 43/75/205
f 583/76/166 23/59/165 43/75/205 603/90/206
f 24/91/167 583/76/166 603/90/206 44/105/207
f 584/106/168 24/91/167 44/105/207 604/120/208
f 25/121/169 584/106/168 604/120/208 45/130/209
f 585/714/170 25/121/169 45/130/209 605/717/210
f 26/142/171 585/651/170 605/655/210 46/154/211
f 586/155/172 26/142/171 46/154/211 606/168/212
f 27/169/173 586/155/172 606/168/212 47/181/213
f 587/182/174 27/169/173 47/181/213 607/195/214
f 28/196/175 587/182/174 607/195/214 48/210/215
f 588/211/176 28/196/175 48/210/215 608/225/216
f 29/226/177 588/211/176 608/225/216 49/240/217
f 589/241/178 29/226/177 49/240/217 609/255/218
f 30/256/179 589/241/178 609/255/218 50/268/219
f 590/269/180 30/256/179 50/268/219 610/275/220
f 31/261/181 590/269/180 610/275/220 51/270/221
f 591/248/182 31/261/181 51/270/221 611/262/222
f 32/233/183 591/248/182 611/262/222 52/249/223
f 592/218/184 32/233/183 52/249/223 612/234/224
f 33/203/185 592/218/184 612/234/224 53/219/225
f 593/189/186 33/203/185 53/219/225 613/204/226
f 34/176/187 593/189/186 613/204/226 54/190/227
f 594/162/188 34/176/187 54/190/227 614/177/228
f 35/149/189 594/162/188 614/177/228 55/163/229
f 595/610/190 35/149/189 55/163/229 615/612/230
f 36/123/191 595/670/190 615/673/230 56/136/231
f 596/113/192 36/123/191 56/136/231 616/124/232
f 37/98/193 596/113/192 616/124/232 57/114/233
f 597/83/194 37/98/193 57/114/233 617/99/234
f 38/68/195 597/83/194 617/99/234 58/84/235
f 598/53/196 38/68/195 58/84/235 618/69/236
f 39/39/197 598/53/196 618/69/236 59/54/237
f 599/27/198 39/39/197 59/54/237 619/40/238
f 40/17/199 599/27/198 619/40/238 60/28/239
f 600/10/200 40/17/199 60/28/239 620/19/240
f 21/9/163 600/10/200 620/19/240 41/20/201
f 601/29/202 41/20/201 61/32/241 621/42/242
f 42/43/203 601/29/202 621/42/242 62/57/243
f 602/58/204 42/43/203 62/57/243 622/74/244
f 43/75/205 602/58/204 622/74/244 63/89/245
f 603/90/206 43/75/205 63/89/245 623/104/246
f 44/105/207 603/90/206 623/104/246 64/119/247
f 604/120/208 44/105/207 64/119/247 624/129/248
f 45/130/209 604/120/208 624/129/248 65/141/249
f 605/717/210 45/130/209 65/141/249 625/719/250
f 46/154/211 605/655/210 625/659/250 66/167/251
f 606/168/212 46/154/211 66/167/251 626/180/252
f 47/181/213 606/168/212 626/180/252 67/194/253
f 607/195/214 47/181/213 67/194/253 627/209/254
f 48/210/215 607/195/214 627/209/254 68/224/255
f 608/225/216 48/210/215 68/224/255 628/239/256
f 49/240/217 608/225/216 628/239/256 69/254/257
f 609/255/218 49/240/217 69/254/257 629/267/258
f 50/268/219 609/255/218 629/267/258 70/607/259
f 610/275/220 50/268/219 70/607/259 630/608/260
f 51/270/221 610/275/220 630/608/260 71/606/261
f 611/262/222 51/270/221 71/606/261 631/605/262
f 52/249/223 611/262/222 631/605/262 72/604/263
f 612/234/224 52/249/223 72/604/263 632/603/264
f 53/219/225 612/234/224 632/603/264 73/602/265
f 613/204/226 53/219/225 73/602/265 633/601/266
f 54/190/227 613/204/226 633/601/266 74/600/267
f 614/177/228 54/190/227 74/600/267 634/599/268
f 55/163/229 614/177/228 634/599/268 75/598/269
f 615/612/230 55/163/229 75/598/269 635/614/270
f 56/136/231 615/673/230 635/675/270 76/597/271
f 616/124/232 56/136/231 76/597/271 636/596/272
f 57/114/233 616/124/232 636/596/272 77/595/273
f 617/99/234 57/114/233 77/595/273 637/594/274
f 58/84/235 617/99/234 637/594/274 78/593/275
f 618/69/236 58/84/235 78/593/275 638/592/276
f 59/54/237 618/69/236 638/592/276 79/591/277
f 619/40/238 59/54/237 79/591/277 639/590/278
f 60/28/239 619/40/238 639/590/278 80/41/279
f 620/19/240 60/28/239 80/41/279 640/31/280
f 41/20/201 620/19/240 640/31/280 61/32/241
f 621/42/242 61/32/241 81/46/281 641/56/282
f 62/57/243 621/42/242 641/56/282 82/73/283
f 622/74/244 62/57/243 82/73/283 642/88/284
f 63/89/245 622/74/244 642/88/284 83/103/285
f 623/104/246 63/89/245 83/103/285 643/118/286
f 64/119/247 623/104/246 643/118/286 84/128/287
f 624/129/248 64/119/247 84/128/287 644/140/288
f 65/141/249 624/129/248 644/140/288 85/153/289
f 625/719/250 65/141/249 85/153/289 645/721/290
f 66/167/251 625/659/250 645/662/290 86/179/291
f 626/180/252 66/167/251 86/179/291 646/193/292
f 67/194/253 626/180/252 646/193/292 87/208/293
f 627/209/254 67/194/253 87/208/293 647/223/294
f 68/224/255 627/209/254 647/223/294 88/238/295
f 628/239/256 68/224/255 88/238/295 648/253/296
f 69/254/257 628/239/256 648/253/296 89/266/297
f 629/267/258 69/254/257 89/266/297 649/274/298
f 70/607/259 629/267/258 649/274/298 90/279/299
f 630/608/260 70/607/259 90/279/299 650/283/300
f 71/606/261 630/608/260 650/283/300 91/280/301
f 631/605/262 71/606/261 91/280/301 651/276/302
f 72/604/263 631/605/262 651/276/302 92/271/303
f 632/603/264 72/604/263 92/271/303 652/263/304
f 73/602/265 632/603/264 652/263/304 93/250/305
f 633/601/266 73/602/265 93/250/305 653/235/306
f 74/600/267 633/601/266 653/235/306 94/220/307
f 634/599/268 74/600/267 94/220/307 654/205/308
f 75/598/269 634/599/268 654/205/308 95/191/309
f 635/614/270 75/598/269 95/191/309 655/617/310
f 76/597/271 635/675/270 655/677/310 96/164/311
f 636/596/272 76/597/271 96/164/311 656/150/312
f 77/595/273 636/596/272 656/150/312 97/137/313
f 637/594/274 77/595/273 97/137/313 657/125/314
f 78/593/275 637/594/274 657/125/314 98/115/315
f 638/592/276 78/593/275 98/115/315 658/100/316
f 79/591/277 638/592/276 658/100/316 99/85/317
f 639/590/278 79/591/277 99/85/317 659/70/318
f 80/41/279 639/590/278 659/70/318 100/55/319
f 640/31/280 80/41/279 100/55/319 660/45/320
f 61/32/241 640/31/280 660/45/320 81/46/281
f 641/56/282 81/46/281 101/61/321 661/72/322
f 82/73/283 641/56/282 661/72/322 102/87/323
f 642/88/284 82/73/283 102/87/323 662/102/324
f 83/103/285 642/88/284 662/102/324 103/117/325
f 643/118/286 83/103/285 103/117/325 663/127/326
f 84/128/287 643/118/286 663/127/326 104/139/327
f 644/140/288 84/128/287 104/139/327 664/152/328
f 85/153/289 644/140/288 664/152/328 105/166/329
f 645/721/290 85/153/289 105/166/329 665/723/330
f 86/179/291 645/662/290 665/664/330 106/192/331
f 646/193/292 86/179/291 106/192/331 666/207/332
f 87/208/293 646/193/292 666/207/332 107/222/333
f 647/223/294 87/208/293 107/222/333 667/237/334
f 88/238/295 647/223/294 667/237/334 108/252/335
f 648/253/296 88/238/295 108/252/335 668/265/336
f 89/266/297 648/253/296 668/265/336 109/273/337
f 649/274/298 89/266/297 109/273/337 669/278/338
f 90/279/299 649/274/298 669/278/338 110/282/339
f 650/283/300 90/279/299 110/282/339 670/285/340
f 91/280/301 650/283/300 670/285/340 111/284/341
f 651/276/302 91/280/301 111/284/341 671/281/342
f 92/271/303 651/276/302 671/281/342 112/277/343
f 652/263/304 92/271/303 112/277/343 672/272/344
f 93/250/305 652/263/304 672/272/344 113/264/345
f 653/235/306 93/250/305 113/264/345 673/251/346
f 94/220/307 653/235/306 673/251/346 114/236/347
f 654/205/308 94/220/307 114/236/347 674/221/348
f 95/191/309 654/205/308 674/221/348 115/206/349
f 655/617/310 95/191/309 115/206/349 675/619/350
f 96/164/311 655/677/310 675/679/350 116/178/351
f 656/150/312 96/164/311 116/178/351 676/165/352
f 97/137/313 656/150/312 676/165/352 117/151/353
f 657/125/314 97/137/313 117/151/353 677/138/354
f 98/115/315 657/125/314 677/138/354 118/126/355
f 658/100/316 98/115/315 118/126/355 678/116/356
f 99/85/317 658/100/316 678/116/356 119/101/357
f 659/70/318 99/85/317 119/101/357 679/86/358
f 100/55/319 659/70/318 679/86/358 120/71/359
f 660/45/320 100/55/319 120/71/359 680/60/360
f 81/46/281 660/45/320 680/60/360 101/61/321
f 661/72/322 101/61/321 121/702/361 281/704/362
f 102/87/323 661/72/322 281/704/362 122/706/363
f 662/102/324 102/87/323 122/706/363 282/708/364
f 103/117/325 662/102/324 282/708/364 123/713/365
f 663/127/326 103/117/325 123/713/365 283/716/366
f 104/139/327 663/127/326 283/716/366 124/718/367
f 664/152/328 104/139/327 124/718/367 284/720/368
f 105/166/329 664/152/328 284/720/368 125/722/369
f 665/723/330 105/166/329 125/722/369 285/724/370
f 106/192/331 665/664/330 285/666/370 126/665/371
f 666/207/332 106/192/331 126/665/371 286/663/372
f 107/222/333 666/207/332 286/663/372 127/660/373
f 667/237/334 107/222/333 127/660/373 287/656/374
f 108/252/335 667/237/334 287/656/374 128/652/375
f 668/265/336 108/252/335 128/652/375 288/648/376
f 109/273/337 668/265/336 288/648/376 129/646/377
f 669/278/338 109/273/337 129/646/377 289/644/378
f 110/282/339 669/278/338 289/644/378 130/642/379
f 670/285/340 110/282/339 130/642/379 290/640/380
f 111/284/341 670/285/340 290/640/380 131/638/381
f 671/281/342 111/284/341 131/638/381 291/636/382
f 112/277/343 671/281/342 291/636/382 132/634/383
f 672/272/344 112/277/343 132/634/383 292/632/384
f 113/264/345 672/272/344 292/632/384 133/630/385
f 673/251/346 113/264/345 133/630/385 293/628/386
f 114/236/347 673/251/346 293/628/386 134/626/387
f 674/221/348 114/236/347 134/626/387 294/624/388
f 115/206/349 674/221/348 294/624/388 135/621/389
f 675/619/350 115/206/349 135/621/389 295/622/390
f 116/178/351 675/679/350 295/681/390 136/682/391
f 676/165/352 116/178/351 136/682/391 296/684/392
f 117/151/353 676/165/352 296/684/392 137/686/393
f 677/138/354 117/151/353 137/686/393 297/688/394
f 118/126/355 677/138/354 297/688/394 138/690/395
f 678/116/356 118/126/355 138/690/395 298/692/396
f 119/101/357 678/116/356 298/692/396 139/694/397
f 679/86/358 119/101/357 139/694/397 299/696/398
f 120/71/359 679/86/358 299/696/398 140/698/399
f 680/60/360 120/71/359 140/698/399 300/700/400
f 101/61/321 680/60/360 300/700/400 121/702/361
f 281/821/362 121/819/361 141/298/401 301/291/402
f 122/823/363 281/821/362 301/291/402 142/290/403
f 282/827/364 122/823/363 142/290/403 302/299/404
f 123/831/365 282/827/364 302/299/404 143/309/405
f 283/835/366 123/831/365 143/309/405 303/321/406
f 124/838/367 283/835/366 303/321/406 144/335/407
f 284/840/368 124/838/367 144/335/407 304/839/408
f 125/780/369 284/782/368 304/781/408 145/363/409
f 285/777/370 125/780/369 145/363/409 305/378/410
f 126/773/371 285/777/370 305/378/410 146/393/411
f 286/769/372 126/773/371 146/393/411 306/408/412
f 127/765/373 286/769/372 306/408/412 147/423/413
f 287/763/374 127/765/373 147/423/413 307/439/414
f 128/761/375 287/763/374 307/439/414 148/455/415
f 288/759/376 128/761/375 148/455/415 308/471/416
f 129/757/377 288/759/376 308/471/416 149/484/417
f 289/755/378 129/757/377 149/484/417 309/499/418
f 130/753/379 289/755/378 309/499/418 150/514/419
f 290/751/380 130/753/379 150/514/419 310/529/420
f 131/749/381 290/751/380 310/529/420 151/544/421
f 291/747/382 131/749/381 151/544/421 311/559/422
f 132/745/383 291/747/382 311/559/422 152/558/423
f 292/743/384 132/745/383 152/558/423 312/543/424
f 133/741/385 292/743/384 312/543/424 153/528/425
f 293/739/386 133/741/385 153/528/425 313/513/426
f 134/737/387 293/739/386 313/513/426 154/498/427
f 294/736/388 134/737/387 154/498/427 314/734/428
f 135/794/389 294/795/388 314/792/428 155/470/429
f 295/797/390 135/794/389 155/470/429 315/454/430
f 136/799/391 295/797/390 315/454/430 156/438/431
f 296/801/392 136/799/391 156/438/431 316/422/432
f 137/803/393 296/801/392 316/422/432 157/407/433
f 297/805/394 137/803/393 157/407/433 317/392/434
f 138/807/395 297/805/394 317/392/434 158/377/435
f 298/809/396 138/807/395 158/377/435 318/362/436
f 139/811/397 298/809/396 318/362/436 159/348/437
f 299/813/398 139/811/397 159/348/437 319/334/438
f 140/815/399 299/813/398 319/334/438 160/320/439
f 300/817/400 140/815/399 160/320/439 320/308/440
f 121/819/361 300/817/400 320/308/440 141/298/401
f 301/291/402 141/298/401 161/292/441 321/287/442
f 142/290/403 301/291/402 321/287/442 162/286/443
f 302/299/404 142/290/403 162/286/443 322/296/444
f 143/309/405 302/299/404 322/296/444 163/306/445
f 303/321/406 143/309/405 163/306/445 323/318/446
f 144/335/407 303/321/406 323/318/446 164/332/447
f 304/839/408 144/335/407 164/332/447 324/836/448
f 145/363/409 304/781/408 324/778/448 165/360/449
f 305/378/410 145/363/409 165/360/449 325/375/450
f 146/393/411 305/378/410 325/375/450 166/390/451
f 306/408/412 146/393/411 166/390/451 326/405/452
f 147/423/413 306/408/412 326/405/452 167/420/453
f 307/439/414 147/423/413 167/420/453 327/436/454
f 148/455/415 307/439/414 327/436/454 168/452/455
f 308/471/416 148/455/415 168/452/455 328/468/456
f 149/484/417 308/471/416 328/468/456 169/482/457
f 309/499/418 149/484/417 169/482/457 329/496/458
f 150/514/419 309/499/418 329/496/458 170/511/459
f 310/529/420 150/514/419 170/511/459 330/526/460
f 151/544/421 310/529/420 330/526/460 171/541/461
f 311/559/422 151/544/421 171/541/461 331/556/462
f 152/558/423 311/559/422 331/556/462 172/545/463
f 312/543/424 152/558/423 172/545/463 332/530/464
f 153/528/425 312/543/424 332/530/464 173/515/465
f 313/513/426 153/528/425 173/515/465 333/500/466
f 154/498/427 313/513/426 333/500/466 174/485/467
f 314/734/428 154/498/427 174/485/467 334/731/468
f 155/470/429 314/792/428 334/789/468 175/456/469
f 315/454/430 155/470/429 175/456/469 335/440/470
f 156/438/431 315/454/430 335/440/470 176/424/471
f 316/422/432 156/438/431 176/424/471 336/409/472
f 157/407/433 316/422/432 336/409/472 177/394/473
f 317/392/434 157/407/433 177/394/473 337/379/474
f 158/377/435 317/392/434 337/379/474 178/364/475
f 318/362/436 158/377/435 178/364/475 338/349/476
f 159/348/437 318/362/436 338/349/476 179/336/477
f 319/334/438 159/348/437 179/336/477 339/322/478
f 160/320/439 319/334/438 339/322/478 180/310/479
f 320/308/440 160/320/439 180/310/479 340/300/480
f 141/298/401 320/308/440 340/300/480 161/292/441
f 321/287/442 161/292/441 181/293/481 341/288/482
f 162/286/443 321/287/442 341/288/482 182/289/483
f 322/296/444 162/286/443 182/289/483 342/297/484
f 163/306/445 322/296/444 342/297/484 183/307/485
f 323/318/446 163/306/445 183/307/485 343/319/486
f 164/332/447 323/318/446 343/319/486 184/333/487
f 324/836/448 164/332/447 184/333/487 344/832/488
f 165/360/449 324/778/448 344/774/488 185/361/489
f 325/375/450 165/360/449 185/361/489 345/376/490
f 166/390/451 325/375/450 345/376/490 186/391/491
f 326/405/452 166/390/451 186/391/491 346/406/492
f 167/420/453 326/405/452 346/406/492 187/421/493
f 327/436/454 167/420/453 187/421/493 347/437/494
f 168/452/455 327/436/454 347/437/494 188/453/495
f 328/468/456 168/452/455 188/453/495 348/469/496
f 169/482/457 328/468/456 348/469/496 189/483/497
f 329/496/458 169/482/457 189/483/497 349/497/498
f 170/511/459 329/496/458 349/497/498 190/512/499
f 330/526/460 170/511/459 190/512/499 350/527/500
f 171/541/461 330/526/460 350/527/500 191/542/501
f 331/556/462 171/541/461 191/542/501 351/557/502
f 172/545/463 331/556/462 351/557/502 192/546/503
f 332/530/464 172/545/463 192/546/503 352/531/504
f 173/515/465 332/530/464 352/531/504 193/516/505
f 333/500/466 173/515/465 193/516/505 353/501/506
f 174/485/467 333/500/466 353/501/506 194/486/507
f 334/731/468 174/485/467 194/486/507 354/729/508
f 175/456/469 334/789/468 354/787/508 195/457/509
f 335/440/470 175/456/469 195/457/509 355/441/510
f 176/424/471 335/440/470 355/441/510 196/425/511
f 336/409/472 176/424/471 196/425/511 356/410/512
f 177/394/473 336/409/472 356/410/512 197/395/513
f 337/379/474 177/394/473 197/395/513 357/380/514
f 178/364/475 337/379/474 357/380/514 198/365/515
f 338/349/476 178/364/475 198/365/515 358/350/516
f 179/336/477 338/349/476 358/350/516 199/337/517
f 339/322/478 179/336/477 199/337/517 359/323/518
f 180/310/479 339/322/478 359/323/518 200/311/519
f 340/300/480 180/310/479 200/311/519 360/301/520
f 161/292/441 340/300/480 360/301/520 181/293/481
f 361/303/521 201/313/522 221/326/523 381/314/524
f 202/304/525 361/303/521 381/314/524 222/315/526
f 362/316/527 202/304/525 222/315/526 382/329/528
f 203/330/529 362/316/527 382/329/528 223/345/530
f 363/346/531 203/330/529 223/345/530 383/358/532
f 204/359/533 363/346/531 383/358/532 224/373/534
f 364/826/535 204/359/533 224/373/534 384/825/536
f 205/388/537 364/766/535 384/767/536 225/402/538
f 365/403/539 205/388/537 225/402/538 385/417/540
f 206/418/541 365/403/539 385/417/540 226/433/542
f 366/434/543 206/418/541 226/433/542 386/449/544
f 207/450/545 366/434/543 386/449/544 227/465/546
f 367/466/547 207/450/545 227/465/546 387/479/548
f 208/480/549 367/466/547 387/479/548 228/493/550
f 368/494/551 208/480/549 228/493/550 388/508/552
f 209/509/553 368/494/551 388/508/552 229/523/554
f 369/524/555 209/509/553 229/523/554 389/538/556
f 210/539/557 369/524/555 389/538/556 230/553/558
f 370/554/559 210/539/557 230/553/558 390/567/560
f 211/568/561 370/554/559 390/567/560 231/576/562
f 371/577/563 211/568/561 231/576/562 391/583/564
f 212/570/565 371/577/563 391/583/564 232/578/566
f 372/561/567 212/570/565 232/578/566 392/571/568
f 213/548/569 372/561/567 392/571/568 233/562/570
f 373/533/571 213/548/569 233/562/570 393/549/572
f 214/518/573 373/533/571 393/549/572 234/534/574
f 374/725/575 214/518/573 234/534/574 394/726/576
f 215/487/577 374/783/575 394/784/576 235/503/578
f 375/473/579 215/487/577 235/503/578 395/488/580
f 216/459/581 375/473/579 395/488/580 236/474/582
f 376/443/583 216/459/581 236/474/582 396/460/584
f 217/427/585 376/443/583 396/460/584 237/444/586
f 377/412/587 217/427/585 237/444/586 397/428/588
f 218/397/589 377/412/587 397/428/588 238/413/590
f 378/382/591 218/397/589 238/413/590 398/398/592
f 219/367/593 378/382/591 398/398/592 239/383/594
f 379/352/595 219/367/593 239/383/594 399/368/596
f 220/339/597 379/352/595 399/368/596 240/353/598
f 380/325/599 220/339/597 240/353/598 400/340/600
f 201/313/522 380/325/599 400/340/600 221/326/523
f 381/314/524 221/326/523 241/341/601 401/327/602
f 222/315/526 381/314/524 401/327/602 242/328/603
f 382/329/528 222/315/526 242/328/603 402/344/604
f 223/345/530 382/329/528 402/344/604 243/357/605
f 383/358/532 223/345/530 243/357/605 403/372/606
f 224/373/534 383/358/532 403/372/606 244/387/607
f 384/825/536 224/373/534 244/387/607 404/830/608
f 225/402/538 384/767/536 404/771/608 245/416/609
f 385/417/540 225/402/538 245/416/609 405/432/610
f 226/433/542 385/417/540 405/432/610 246/448/611
f 386/449/544 226/433/542 246/448/611 406/464/612
f 227/465/546 386/449/544 406/464/612 247/478/613
f 387/479/548 227/465/546 247/478/613 407/492/614
f 228/493/550 387/479/548 407/492/614 248/507/615
f 388/508/552 228/493/550 248/507/615 408/522/616
f 229/523/554 388/508/552 408/522/616 249/537/617
f 389/538/556 229/523/554 249/537/617 409/552/618
f 230/553/558 389/538/556 409/552/618 250/566/619
f 390/567/560 230/553/558 250/566/619 410/575/620
f 231/576/562 390/567/560 410/575/620 251/582/621
f 391/583/564 231/576/562 251/582/621 411/587/622
f 232/578/566 391/583/564 411/587/622 252/584/623
f 392/571/568 232/578/566 252/584/623 412/579/624
f 233/562/570 392/571/568 412/579/624 253/572/625
f 393/549/572 233/562/570 253/572/625 413/563/626
f 234/534/574 393/549/572 413/563/626 254/550/627
f 394/726/576 234/534/574 254/550/627 414/728/628
f 235/503/578 394/784/576 414/786/628 255/519/629
f 395/488/580 235/503/578 255/519/629 415/504/630
f 236/474/582 395/488/580 415/504/630 256/489/631
f 396/460/584 236/474/582 256/489/631 416/475/632
f 237/444/586 396/460/584 416/475/632 257/461/633
f 397/428/588 237/444/586 257/461/633 417/445/634
f 238/413/590 397/428/588 417/445/634 258/429/635
f 398/398/592 238/413/590 258/429/635 418/414/636
f 239/383/594 398/398/592 418/414/636 259/399/637
f 399/368/596 239/383/594 259/399/637 419/384/638
f 240/353/598 399/368/596 419/384/638 260/369/639
f 400/340/600 240/353/598 260/369/639 420/354/640
f 221/326/523 400/340/600 420/354/640 241/341/601
f 401/327/602 241/341/601 261/355/641 421/342/642
f 242/328/603 401/327/602 421/342/642 262/343/643
f 402/344/604 242/328/603 262/343/643 422/356/644
f 243/357/605 402/344/604 422/356/644 263/371/645
f 403/372/606 243/357/605 263/371/645 423/386/646
f 244/387/607 403/372/606 423/386/646 264/401/647
f 404/830/608 244/387/607 264/401/647 424/834/648
f 245/416/609 404/771/608 424/775/648 265/431/649
f 405/432/610 245/416/609 265/431/649 425/447/650
f 246/448/611 405/432/610 425/447/650 266/463/651
f 406/464/612 246/448/611 266/463/651 426/477/652
f 247/478/613 406/464/612 426/477/652 267/491/653
f 407/492/614 247/478/613 267/491/653 427/506/654
f 248/507/615 407/492/614 427/506/654 268/521/655
f 408/522/616 248/507/615 268/521/655 428/536/656
f 249/537/617 408/522/616 428/536/656 269/551/657
f 409/552/618 249/537/617 269/551/657 429/565/658
f 250/566/619 409/552/618 429/565/658 270/574/659
f 410/575/620 250/566/619 270/574/659 430/581/660
f 251/582/621 410/575/620 430/581/660 271/586/661
f 411/587/622 251/582/621 271/586/661 431/589/662
f 252/584/623 411/587/622 431/589/662 272/588/663
f 412/579/624 252/584/623 272/588/663 432/585/664
f 253/572/625 412/579/624 432/585/664 273/580/665
f 413/563/626 253/572/625 273/580/665 433/573/666
f 254/550/627 413/563/626 433/573/666 274/564/667
f 414/728/628 254/550/627 274/564/667 434/730/668
f 255/519/629 414/786/628 434/788/668 275/535/669
f 415/504/630 255/519/629 275/535/669 435/520/670
f 256/489/631 415/504/630 435/520/670 276/505/671
f 416/475/632 256/489/631 276/505/671 436/490/672
f 257/461/633 416/475/632 436/490/672 277/476/673
f 417/445/634 257/461/633 277/476/673 437/462/674
f 258/429/635 417/445/634 437/462/674 278/446/675
f 418/414/636 258/429/635 278/446/675 438/430/676
f 259/399/637 418/414/636 438/430/676 279/415/677
f 419/384/638 259/399/637 279/415/677 439/400/678
f 260/369/639 419/384/638 439/400/678 280/385/679
f 420/354/640 260/369/639 280/385/679 440/370/680
f 241/341/601 420/354/640 440/370/680 261/355/641
f 262/343/643 421/342/642 441/818/2 2/820/1
f 421/342/642 261/355/641 1/816/5 441/818/2
f 263/371/645 422/356/644 445/822/8 3/824/7
f 422/356/644 262/343/643 2/820/1 445/822/8
f 264/401/647 423/386/646 448/829/12 4/833/11
f 423/386/646 263/371/645 3/824/7 448/829/12
f 265/431/649 424/775/648 451/779/16 5/776/15
f 424/834/648 264/401/647 4/833/11 451/837/16
f 266/463/651 425/447/650 454/772/20 6/768/19
f 425/447/650 265/431/649 5/776/15 454/772/20
f 267/491/653 426/477/652 457/764/24 7/762/23
f 426/477/652 266/463/651 6/768/19 457/764/24
f 268/521/655 427/506/654 460/760/28 8/758/27
f 427/506/654 267/491/653 7/762/23 460/760/28
f 269/551/657 428/536/656 463/756/32 9/754/31
f 428/536/656 268/521/655 8/758/27 463/756/32
f 270/574/659 429/565/658 466/752/36 10/750/35
f 429/565/658 269/551/657 9/754/31 466/752/36
f 271/586/661 430/581/660 469/748/40 11/746/39
f 430/581/660 270/574/659 10/750/35 469/748/40
f 272/588/663 431/589/662 472/744/44 12/742/43
f 431/589/662 271/586/661 11/746/39 472/744/44
f 273/580/665 432/585/664 475/740/48 13/738/47
f 432/585/664 272/588/663 12/742/43 475/740/48
f 274/564/667 433/573/666 478/735/52 14/732/51
f 433/573/666 273/580/665 13/738/47 478/735/52
f 275/535/669 434/788/668 481/790/56 15/791/55
f 434/730/668 274/564/667 14/732/51 481/733/56
f 276/505/671 435/520/670 484/793/60 16/796/59
f 435/520/670 275/535/669 15/791/55 484/793/60
f 277/476/673 436/490/672 487/798/64 17/800/63
f 436/490/672 276/505/671 16/796/59 487/798/64
f 278/446/675 437/462/674 490/802/68 18/804/67
f 437/462/674 277/476/673 17/800/63 490/802/68
f 279/415/677 438/430/676 493/806/72 19/808/71
f 438/430/676 278/446/675 18/804/67 493/806/72
f 280/385/679 439/400/678 496/810/76 20/812/75
f 439/400/678 279/415/677 19/808/71 496/810/76
f 1/816/5 261/355/641 440/370/680 499/814/79
f 440/370/680 280/385/679 20/812/75 499/814/79
f 682/294/681 681/302/682 201/313/522 361/303/521
f 681/302/682 720/312/683 380/325/599 201/313/522
f 683/295/684 682/294/681 361/303/521 202/304/525
f 684/305/685 683/295/684 202/304/525 362/316/527
f 685/317/686 684/305/685 362/316/527 203/330/529
f 686/331/687 685/317/686 203/330/529 363/346/531
f 687/347/688 686/331/687 363/346/531 204/359/533
f 688/828/689 687/347/688 204/359/533 364/826/535
f 689/374/690 688/770/689 364/766/535 205/388/537
f 690/389/691 689/374/690 205/388/537 365/403/539
f 691/404/692 690/389/691 365/403/539 206/418/541
f 692/419/693 691/404/692 206/418/541 366/434/543
f 693/435/694 692/419/693 366/434/543 207/450/545
f 694/451/695 693/435/694 207/450/545 367/466/547
f 695/467/696 694/451/695 367/466/547 208/480/549
f 696/481/697 695/467/696 208/480/549 368/494/551
f 697/495/698 696/481/697 368/494/551 209/509/553
f 698/510/699 697/495/698 209/509/553 369/524/555
f 699/525/700 698/510/699 369/524/555 210/539/557
f 700/540/701 699/525/700 210/539/557 370/554/559
f 701/555/702 700/540/701 370/554/559 211/568/561
f 702/569/703 701/555/702 211/568/561 371/577/563
f 703/560/704 702/569/703 371/577/563 212/570/565
f 704/547/705 703/560/704 212/570/565 372/561/567
f 705/532/706 704/547/705 372/561/567 213/548/569
f 706/517/707 705/532/706 213/548/569 373/533/571
f 707/502/708 706/517/707 373/533/571 214/518/573
f 708/727/709 707/502/708 214/518/573 374/725/575
f 709/472/710 708/785/709 374/783/575 215/487/577
f 710/458/711 709/472/710 215/487/577 375/473/579
f 711/442/712 710/458/711 375/473/579 216/459/581
f 712/426/713 711/442/712 216/459/581 376/443/583
f 713/411/714 712/426/713 376/443/583 217/427/585
f 714/396/715 713/411/714 217/427/585 377/412/587
f 715/381/716 714/396/715 377/412/587 218/397/589
f 716/366/717 715/381/716 218/397/589 378/382/591
f 717/351/718 716/366/717 378/382/591 219/367/593
f 718/338/719 717/351/718 219/367/593 379/352/595
f 719/324/720 718/338/719 379/352/595 220/339/597
f 720/312/683 719/324/720 220/339/597 380/325/599
f 341/288/482 181/293/481 681/302/682 682/294/681
f 182/289/483 341/288/482 682/294/681 683/295/684
f 342/297/484 182/289/483 683/295/684 684/305/685
f 183/307/485 342/297/484 684/305/685 685/317/686
f 343/319/486 183/307/485 685/317/686 686/331/687
f 184/333/487 343/319/486 686/331/687 687/347/688
f 344/832/488 184/333/487 687/347/688 688/828/689
f 185/361/489 344/774/488 688/770/689 689/374/690
f 345/376/490 185/361/489 689/374/690 690/389/691
f 186/391/491 345/376/490 690/389/691 691/404/692
f 346/406/492 186/391/491 691/404/692 692/419/693
f 187/421/493 346/406/492 692/419/693 693/435/694
f 347/437/494 187/421/493 693/435/694 694/451/695
f 188/453/495 347/437/494 694/451/695 695/467/696
f 348/469/496 188/453/495 695/467/696 696/481/697
f 189/483/497 348/469/496 696/481/697 697/495/698
f 349/497/498 189/483/497 697/495/698 698/510/699
f 190/512/499 349/497/498 698/510/699 699/525/700
f 350/527/500 190/512/499 699/525/700 700/540/701
f 191/542/501 350/527/500 700/540/701 701/555/702
f 351/557/502 191/542/501 701/555/702 702/569/703
f 192/546/503 351/557/502 702/569/703 703/560/704
f 352/531/504 192/546/503 703/560/704 704/547/705
f 193/516/505 352/531/504 704/547/705 705/532/706
f 353/501/506 193/516/505 705/532/706 706/517/707
f 194/486/507 353/501/506 706/517/707 707/502/708
f 354/729/508 194/486/507 707/502/708 708/727/709
f 195/457/509 354/787/508 708/785/709 709/472/710
f 355/441/510 195/457/509 709/472/710 710/458/711
f 196/425/511 355/441/510 710/458/711 711/442/712
f 356/410/512 196/425/511 711/442/712 712/426/713
f 197/395/513 356/410/512 712/426/713 713/411/714
f 357/380/514 197/395/513 713/411/714 714/396/715
f 198/365/515 357/380/514 714/396/715 715/381/716
f 358/350/516 198/365/515 715/381/716 716/366/717
f 199/337/517 358/350/516 716/366/717 717/351/718
f 359/323/518 199/337/517 717/351/718 718/338/719
f 200/311/519 359/323/518 718/338/719 719/324/720
f 360/301/520 200/311/519 719/324/720 720/312/683
f 181/293/481 360/301/520 720/312/683 681/302/682
# totals: 720 840 720 720
