# This file uses centimeters as units for non-parametric coordinates.

mtllib Monolith_Group.mtl
g default
v 0.500000 -9.877000 -3.614000
v -0.499999 -9.877000 -3.614000
v 0.500000 5.013552 -3.614000
v -0.499999 5.013552 -3.614000
v 0.500000 7.679210 -3.606534
v -0.499999 7.679210 -3.606534
v 0.500000 10.344876 -3.614000
v -0.499999 10.344876 -3.614000
v 0.500000 13.391342 -3.614000
v -0.499999 13.391342 -3.614000
v 0.500000 13.411848 -0.386852
v -0.499999 13.411848 -0.386852
v 0.500000 9.703624 -0.386852
v -0.499999 9.703624 -0.386852
v 0.500000 9.457074 -1.186237
v -0.499999 9.457074 -1.186237
v 0.500000 8.847868 -1.817676
v -0.499999 8.847868 -1.817676
v 0.500000 8.191362 -2.131613
v -0.499999 8.191362 -2.131613
v 0.500000 7.167056 -2.131613
v -0.499999 7.167056 -2.131613
v 0.500000 6.510555 -1.817676
v -0.499999 6.510555 -1.817676
v 0.500000 5.903242 -1.186237
v -0.499999 5.903242 -1.186237
v 0.500000 5.607745 -0.386852
v -0.499999 5.607745 -0.386852
v 0.500000 -9.877000 -0.386852
v -0.499999 -9.877000 -0.386852
v 0.500000 7.679208 -2.200018
v -0.499999 7.679208 -2.200018
v -0.499999 11.868108 -3.614000
v 0.500000 11.868108 -3.614000
v 0.500000 11.458626 -0.967178
v -0.499999 11.458626 -0.967178
v 0.500000 10.810920 -0.646236
v -0.499999 10.810920 -0.646236
v 0.500000 12.123338 -0.646236
v -0.499999 12.123338 -0.646236
v -0.499999 12.212418 -0.399671
v 0.500000 12.212418 -0.399671
v 0.500000 12.439322 -3.614000
v -0.499999 12.439322 -3.614000
v 0.500000 11.802274 -0.878348
v -0.499999 11.802274 -0.878348
v 0.500000 11.114822 -0.878348
v -0.499999 11.114822 -0.878348
v -0.499999 11.296896 -3.614000
v 0.500000 11.296896 -3.614000
v 0.500000 10.735512 -0.399742
v -0.499999 10.735512 -0.399742
v -0.499999 0.824654 -2.685674
v 0.500000 0.824654 -2.685674
v 0.500000 1.165024 -0.386852
v -0.499999 1.165024 -0.386852
v 0.500000 2.919103 -3.614000
v -0.499999 2.919103 -3.614000
v -0.499999 -1.269793 -3.614000
v 0.500000 -1.269793 -3.614000
v -0.499999 2.186955 -3.057362
v 0.500000 2.186955 -3.057362
v 0.500000 -0.537646 -3.057362
v -0.499999 -0.537646 -3.057362
v 0.500000 2.688820 -3.407700
v -0.499999 2.688820 -3.407700
v -0.499999 1.515934 -2.768719
v 0.500000 1.515934 -2.768719
v 0.500000 0.133374 -2.768719
v -0.499999 0.133374 -2.768719
v -0.499999 -1.039514 -3.407700
v 0.500000 -1.039514 -3.407700
vt 0.548573 0.005525
vt 0.549902 0.062233
vt 0.062162 0.074704
vt 0.060637 0.018054
vt 0.428483 0.372680
vt 0.437678 0.317680
vt 0.583951 0.344121
vt 0.578115 0.401004
vt 0.731328 0.348739
vt 0.730661 0.405183
vt 0.783146 0.347953
vt 0.785191 0.404024
vt 0.904192 0.388785
vt 0.960016 0.379240
vt 0.990378 0.559717
vt 0.934528 0.568961
vt 0.703748 0.644488
vt 0.701294 0.587877
vt 0.758602 0.584791
vt 0.762186 0.641361
vt 0.659153 0.618711
vt 0.635943 0.581720
vt 0.679451 0.544025
vt 0.608598 0.552251
vt 0.641507 0.506235
vt 0.582142 0.537811
vt 0.601901 0.485549
vt 0.570002 0.478546
vt 0.564032 0.533782
vt 0.545255 0.534133
vt 0.537272 0.478763
vt 0.515665 0.542814
vt 0.493970 0.490433
vt 0.481272 0.565439
vt 0.448314 0.518497
vt 0.448157 0.596011
vt 0.414364 0.555120
vt 0.067079 0.257553
vt 0.010443 0.259125
vt 0.005525 0.076187
vt 0.883570 0.986868
vt 0.394788 0.805716
vt 0.882877 0.803867
vt 0.639160 0.607735
vt 0.605777 0.790795
vt 0.588938 0.745491
vt 0.554432 0.709739
vt 0.488010 0.608395
vt 0.517172 0.691993
vt 0.488119 0.688156
vt 0.459078 0.692071
vt 0.421869 0.709919
vt 0.387353 0.745763
vt 0.336864 0.608145
vt 0.373397 0.791112
vt 0.282907 0.608177
vt 0.314855 0.790429
vt 0.895654 0.333356
vt 0.850676 0.397821
vt 0.843010 0.342072
vt 0.867368 0.577418
vt 0.941609 0.625250
vt 0.874105 0.633628
vt 0.231009 0.790456
vt 0.162984 0.791166
vt 0.164192 0.608163
vt 0.218168 0.608179
vt 0.814016 0.616562
vt 0.810189 0.558755
vt 0.833065 0.560655
vt 0.827988 0.618080
vt 0.817976 0.403986
vt 0.254293 0.763312
vt 0.250540 0.608182
vt 0.273789 0.758271
vt 0.787938 0.564111
vt 0.800323 0.620430
vt 0.293295 0.763303
vt 0.845852 0.624471
vt 0.856031 0.568430
vt 0.858972 0.629085
vt 0.813034 0.346472
vt 0.236077 0.776475
vt 0.767518 0.574848
vt 0.310548 0.776457
vt 0.783991 0.629226
vt 0.771588 0.635276
vt 0.937625 0.025799
vt 0.931765 0.082205
vt 0.813797 0.070079
vt 0.819474 0.013667
vt 0.945721 0.267365
vt 0.038184 0.807487
vt 0.156960 0.806813
vt 0.005525 0.990672
vt 0.694057 0.239610
vt 0.680352 0.108145
vt 0.723002 0.105347
vt 0.714560 0.048976
vt 0.682158 0.051550
vt 0.257433 0.989268
vt 0.236866 0.854303
vt 0.276123 0.858824
vt 0.638017 0.102636
vt 0.649986 0.046892
vt 0.315335 0.853944
vt 0.794084 0.018708
vt 0.798287 0.078637
vt 0.778621 0.025817
vt 0.691861 0.296429
vt 0.940171 0.323300
vt 0.170104 0.818436
vt 0.564815 0.071477
vt 0.587348 0.019857
vt 0.572261 0.011928
vt 0.381757 0.817460
vt 0.068129 0.314065
vt 0.765391 0.093336
vt 0.749143 0.038781
vt 0.198698 0.838137
vt 0.596617 0.088013
vt 0.616078 0.034532
vt 0.353347 0.837426
vn 0.000000 0.023286 -0.999729
vn 0.000000 0.023286 -0.999729
vn 0.000000 0.000000 -1.000000
vn 0.000000 0.000000 -1.000000
vn 0.000000 0.001495 -0.999999
vn 0.000000 0.001495 -0.999999
vn 0.000000 0.000000 -1.000000
vn 0.000000 0.000000 -1.000000
vn 0.000000 0.000000 -1.000000
vn 0.000000 0.000000 -1.000000
vn 0.000000 -0.001984 -0.999998
vn 0.000000 -0.001984 -0.999998
vn 0.000000 -0.001984 -0.999998
vn 0.000000 -0.001984 -0.999998
vn 0.000000 0.000000 -1.000000
vn 0.000000 0.000000 -1.000000
vn 0.000000 0.999980 -0.006287
vn 0.000000 0.999980 -0.006287
vn 0.000000 0.999980 -0.006287
vn 0.000000 0.999980 -0.006287
vn 0.000000 -0.523958 0.851744
vn 0.000000 -0.523958 0.851744
vn 0.000000 0.228031 0.973654
vn 0.000000 0.228031 0.973654
vn 0.000000 -0.523958 0.851744
vn 0.000000 -0.523958 0.851744
vn 0.000000 -0.858203 0.513310
vn 0.000000 -0.858203 0.513310
vn 0.000000 -0.858203 0.513310
vn 0.000000 -0.858203 0.513310
vn 0.000000 -0.598402 0.801196
vn 0.000000 -0.598402 0.801196
vn 0.000000 -0.598402 0.801196
vn 0.000000 -0.598402 0.801196
vn 0.000000 -0.310885 0.950448
vn 0.000000 -0.310885 0.950448
vn 0.000000 0.000000 1.000000
vn 0.000000 0.000000 1.000000
vn 0.000000 0.310885 0.950448
vn 0.000000 0.310885 0.950448
vn 0.000000 0.310885 0.950448
vn 0.000000 0.310885 0.950448
vn 0.000000 0.598989 0.800758
vn 0.000000 0.598989 0.800758
vn 0.000000 0.598989 0.800758
vn 0.000000 0.598989 0.800758
vn 0.000000 0.845751 0.533577
vn 0.000000 0.845751 0.533577
vn 0.000000 0.845751 0.533577
vn 0.000000 0.845751 0.533577
vn 0.000000 0.166334 0.986070
vn 0.000000 0.166334 0.986070
vn 0.000000 -1.000000 0.000000
vn 0.000000 -1.000000 0.000000
vn 0.000000 -1.000000 0.000000
vn 0.000000 -1.000000 0.000000
vn -1.000000 0.000000 0.000000
vn -1.000000 0.000000 0.000000
vn -1.000000 0.000000 0.000000
vn -1.000000 0.000000 0.000000
vn -1.000000 0.000000 0.000000
vn -1.000000 0.000000 0.000000
vn -1.000000 0.000000 0.000000
vn -1.000000 0.000000 0.000000
vn -1.000000 0.000000 0.000000
vn -1.000000 0.000000 0.000000
vn -1.000000 0.000000 0.000000
vn -1.000000 0.000000 0.000000
vn -1.000000 0.000000 0.000000
vn -1.000000 0.000000 0.000000
vn -1.000000 0.000000 0.000000
vn -1.000000 0.000000 0.000000
vn -1.000000 0.000000 0.000000
vn -1.000000 0.000000 0.000000
vn -1.000000 0.000000 0.000000
vn -1.000000 0.000000 0.000000
vn -1.000000 0.000000 0.000000
vn -1.000000 0.000000 0.000000
vn -1.000000 0.000000 0.000000
vn -1.000000 0.000000 0.000000
vn -1.000000 0.000000 0.000000
vn -1.000000 0.000000 0.000000
vn -1.000000 0.000000 0.000000
vn -1.000000 0.000000 0.000000
vn -1.000000 0.000000 0.000000
vn -1.000000 0.000000 0.000000
vn 1.000000 0.000000 0.000000
vn 1.000000 0.000000 0.000000
vn 1.000000 0.000000 0.000000
vn 1.000000 0.000000 0.000000
vn 1.000000 0.000000 0.000000
vn 1.000000 0.000000 0.000000
vn 1.000000 0.000000 0.000000
vn 1.000000 0.000000 0.000000
vn 1.000000 0.000000 0.000000
vn 1.000000 0.000000 0.000000
vn 1.000000 0.000000 0.000000
vn 1.000000 0.000000 0.000000
vn 1.000000 0.000000 0.000000
vn 1.000000 0.000000 0.000000
vn 1.000000 0.000000 0.000000
vn 1.000000 0.000000 0.000000
vn 1.000000 0.000000 0.000000
vn 1.000000 0.000000 0.000000
vn 1.000000 0.000000 0.000000
vn 1.000000 0.000000 0.000000
vn 1.000000 0.000000 0.000000
vn 1.000000 0.000000 0.000000
vn 1.000000 0.000000 0.000000
vn 1.000000 0.000000 0.000000
vn 1.000000 0.000000 0.000000
vn 1.000000 0.000000 0.000000
vn 1.000000 0.000000 0.000000
vn 1.000000 0.000000 0.000000
vn 1.000000 0.000000 0.000000
vn 1.000000 0.000000 0.000000
vn 1.000000 0.000000 0.000000
vn 1.000000 0.000000 0.000000
vn 1.000000 0.000000 0.000000
vn 0.000000 -0.310885 0.950448
vn 0.000000 -0.310885 0.950448
vn 0.000000 0.000000 1.000000
vn 0.000000 0.000000 1.000000
vn -1.000000 0.000000 0.000000
vn -1.000000 0.000000 0.000000
vn -1.000000 0.000000 0.000000
vn 0.000000 0.000000 -1.000000
vn 0.000000 0.000000 -1.000000
vn 0.000000 0.000000 -1.000000
vn 0.000000 0.000000 -1.000000
vn 1.000000 0.000000 0.000000
vn 1.000000 0.000000 0.000000
vn 1.000000 0.000000 0.000000
vn 1.000000 0.000000 0.000000
vn 0.000000 -0.010621 0.999944
vn 0.000000 -0.010621 0.999944
vn 0.000000 -0.197284 0.980346
vn 0.000000 -0.197284 0.980346
vn -1.000000 0.000000 0.000000
vn -1.000000 0.000000 0.000000
vn -1.000000 0.000000 0.000000
vn -1.000000 0.000000 0.000000
vn 0.000000 0.000000 1.000000
vn 0.000000 0.000000 1.000000
vn 0.000000 -0.434766 0.900543
vn 0.000000 -0.434766 0.900543
vn 1.000000 0.000000 0.000000
vn 1.000000 0.000000 0.000000
vn 1.000000 0.000000 0.000000
vn -1.000000 0.000000 0.000000
vn -1.000000 0.000000 0.000000
vn -1.000000 0.000000 0.000000
vn 1.000000 0.000000 0.000000
vn 1.000000 0.000000 0.000000
vn 1.000000 0.000000 0.000000
vn 0.000000 0.443975 0.896039
vn 0.000000 0.443975 0.896039
vn 0.000000 0.000000 1.000000
vn 0.000000 0.000000 1.000000
vn -1.000000 0.000000 0.000000
vn -1.000000 0.000000 0.000000
vn -1.000000 0.000000 0.000000
vn 0.000000 -0.759401 0.650623
vn 0.000000 -0.759401 0.650623
vn 0.000000 -0.197284 0.980346
vn 0.000000 -0.197284 0.980346
vn 1.000000 0.000000 0.000000
vn 1.000000 0.000000 0.000000
vn 1.000000 0.000000 0.000000
vn 1.000000 0.000000 0.000000
vn 0.000000 0.000000 -1.000000
vn 0.000000 0.000000 -1.000000
vn 0.000000 0.000000 -1.000000
vn 0.000000 0.000000 -1.000000
vn -1.000000 0.000000 0.000000
vn -1.000000 0.000000 0.000000
vn -1.000000 0.000000 0.000000
vn -1.000000 0.000000 0.000000
vn 1.000000 0.000000 0.000000
vn 1.000000 0.000000 0.000000
vn 1.000000 0.000000 0.000000
vn 0.000000 -0.434766 0.900543
vn 0.000000 -0.434766 0.900543
vn 0.000000 -0.759401 0.650623
vn 0.000000 -0.759401 0.650623
vn -1.000000 0.000000 0.000000
vn -1.000000 0.000000 0.000000
vn -1.000000 0.000000 0.000000
vn 1.000000 0.000000 0.000000
vn 1.000000 0.000000 0.000000
vn 1.000000 0.000000 0.000000
vn -1.000000 0.000000 0.000000
vn -1.000000 0.000000 0.000000
vn -1.000000 0.000000 0.000000
vn 0.000000 0.783699 0.621141
vn 0.000000 0.783699 0.621141
vn 0.000000 0.443975 0.896039
vn 0.000000 0.443975 0.896039
vn 0.000000 0.000000 -1.000000
vn 0.000000 0.000000 -1.000000
vn 0.000000 0.000000 -1.000000
vn 0.000000 0.000000 -1.000000
vn 1.000000 0.000000 0.000000
vn 1.000000 0.000000 0.000000
vn 1.000000 0.000000 0.000000
vn 1.000000 0.000000 0.000000
vn 0.000000 0.228031 0.973654
vn 0.000000 0.228031 0.973654
vn 0.000000 0.783699 0.621141
vn 0.000000 0.783699 0.621141
vn -1.000000 0.000000 0.000000
vn -1.000000 0.000000 0.000000
vn -1.000000 0.000000 0.000000
vn -1.000000 0.000000 0.000000
vn 0.000000 0.001495 -0.999999
vn 0.000000 0.001495 -0.999999
vn 0.000000 -0.088356 -0.996089
vn 0.000000 -0.088356 -0.996089
vn 1.000000 0.000000 0.000000
vn 1.000000 0.000000 0.000000
vn 1.000000 0.000000 0.000000
vn -1.000000 0.000000 0.000000
vn -1.000000 0.000000 0.000000
vn -1.000000 0.000000 0.000000
vn 1.000000 0.000000 0.000000
vn 1.000000 0.000000 0.000000
vn 1.000000 0.000000 0.000000
vn 0.000000 -0.263205 -0.964740
vn 0.000000 -0.263205 -0.964740
vn 0.000000 0.000000 -1.000000
vn 0.000000 0.000000 -1.000000
vn -1.000000 0.000000 0.000000
vn -1.000000 0.000000 0.000000
vn -1.000000 0.000000 0.000000
vn 0.000000 0.000000 -1.000000
vn 0.000000 0.000000 -1.000000
vn 0.000000 0.263205 -0.964740
vn 0.000000 0.263205 -0.964740
vn 1.000000 0.000000 0.000000
vn 1.000000 0.000000 0.000000
vn 1.000000 0.000000 0.000000
vn -1.000000 0.000000 0.000000
vn -1.000000 0.000000 0.000000
vn -1.000000 0.000000 0.000000
vn 0.000000 -0.088356 -0.996089
vn 0.000000 -0.088356 -0.996089
vn 0.000000 -0.605217 -0.796060
vn 0.000000 -0.605217 -0.796060
vn 1.000000 0.000000 0.000000
vn 1.000000 0.000000 0.000000
vn 1.000000 0.000000 0.000000
vn 1.000000 0.000000 0.000000
vn 0.000000 0.000000 1.000000
vn 0.000000 0.000000 1.000000
vn 0.000000 0.166334 0.986070
vn 0.000000 0.166334 0.986070
vn -1.000000 0.000000 0.000000
vn -1.000000 0.000000 0.000000
vn -1.000000 0.000000 0.000000
vn -1.000000 0.000000 0.000000
vn 1.000000 0.000000 0.000000
vn 1.000000 0.000000 0.000000
vn 1.000000 0.000000 0.000000
vn 1.000000 0.000000 0.000000
vn 0.000000 0.605217 -0.796060
vn 0.000000 0.605217 -0.796060
vn 0.000000 0.023286 -0.999729
vn 0.000000 0.023286 -0.999729
vn -1.000000 0.000000 0.000000
vn -1.000000 0.000000 0.000000
vn -1.000000 0.000000 0.000000
vn -1.000000 0.000000 0.000000
vn 0.000000 0.000000 1.000000
vn 0.000000 0.000000 1.000000
vn 0.000000 0.000000 1.000000
vn 0.000000 0.000000 1.000000
vn 1.000000 0.000000 0.000000
vn 1.000000 0.000000 0.000000
vn 1.000000 0.000000 0.000000
vn 0.000000 -0.605217 -0.796060
vn 0.000000 -0.605217 -0.796060
vn 0.000000 -0.478396 -0.878144
vn 0.000000 -0.478396 -0.878144
vn -1.000000 0.000000 0.000000
vn -1.000000 0.000000 0.000000
vn -1.000000 0.000000 0.000000
vn 0.000000 -0.478396 -0.878144
vn 0.000000 -0.478396 -0.878144
vn 0.000000 -0.263205 -0.964740
vn 0.000000 -0.263205 -0.964740
vn 1.000000 0.000000 0.000000
vn 1.000000 0.000000 0.000000
vn 1.000000 0.000000 0.000000
vn -1.000000 0.000000 0.000000
vn -1.000000 0.000000 0.000000
vn -1.000000 0.000000 0.000000
vn 1.000000 0.000000 0.000000
vn 1.000000 0.000000 0.000000
vn 1.000000 0.000000 0.000000
vn 0.000000 0.263205 -0.964740
vn 0.000000 0.263205 -0.964740
vn 0.000000 0.478396 -0.878144
vn 0.000000 0.478396 -0.878144
vn -1.000000 0.000000 0.000000
vn -1.000000 0.000000 0.000000
vn -1.000000 0.000000 0.000000
vn 0.000000 0.478396 -0.878144
vn 0.000000 0.478396 -0.878144
vn 0.000000 0.605217 -0.796060
vn 0.000000 0.605217 -0.796060
vn 1.000000 0.000000 0.000000
vn 1.000000 0.000000 0.000000
vn 1.000000 0.000000 0.000000
vn -1.000000 0.000000 0.000000
vn -1.000000 0.000000 0.000000
vn -1.000000 0.000000 0.000000
s off
g Right_Monolith:Right_Monolith Monolith
usemtl Maya_Lambert6SG
f 59/1/1 60/2/2 1/3/3 2/4/4
f 3/5/5 4/6/6 6/7/7 5/8/8
f 5/8/9 6/7/10 8/9/11 7/10/12
f 7/10/13 8/9/14 49/11/15 50/12/16
f 9/13/17 10/14/18 12/15/19 11/16/20
f 14/17/21 13/18/22 51/19/23 52/20/24
f 13/18/25 14/21/26 16/22/27 15/23/28
f 15/23/29 16/22/30 18/24/31 17/25/32
f 17/25/33 18/24/34 20/26/35 19/27/36
f 31/28/37 32/29/38 22/30/39 21/31/40
f 21/31/41 22/30/42 24/32/43 23/33/44
f 23/33/45 24/32/46 26/34/47 25/35/48
f 25/35/49 26/34/50 28/36/51 27/37/52
f 29/38/53 30/39/54 2/40/55 1/3/56
f 30/41/57 59/42/58 2/43/59
f 4/44/60 28/45/61 26/46/62
f 4/44/63 26/46/64 24/47/65 6/48/66
f 6/48/67 24/47/68 22/49/69
f 6/48/70 22/49/71 32/50/72
f 6/48/73 20/51/74 18/52/75
f 6/48/76 18/52/77 16/53/78 8/54/79
f 8/54/80 16/53/81 14/55/82
f 49/56/83 8/54/84 14/55/85 52/57/86
f 1/3/87 60/2/88 29/38/89
f 27/37/90 3/5/91 25/35/92
f 25/35/93 3/5/94 5/8/95 23/33/96
f 23/33/97 5/8/98 21/31/99
f 21/31/100 5/8/101 31/28/102
f 19/27/103 5/8/104 17/25/105
f 17/25/106 5/8/107 7/10/108 15/23/109
f 15/23/110 7/10/111 13/18/112
f 13/18/113 7/10/114 50/12/115 51/19/116
f 31/28/117 5/8/118 19/27/119
f 19/27/120 20/26/121 32/29/122 31/28/123
f 6/48/124 32/50/125 20/51/126
f 10/58/127 9/13/128 43/59/129 44/60/130
f 9/13/131 11/16/132 42/61/133 43/59/134
f 11/16/135 12/62/136 41/63/137 42/61/138
f 41/64/139 12/65/140 10/66/141 44/67/142
f 36/68/143 35/69/144 45/70/145 46/71/146
f 35/69/147 34/72/148 45/70/149
f 46/73/150 33/74/151 36/75/152
f 47/76/153 34/72/154 35/69/155
f 48/77/156 47/76/157 35/69/158 36/68/159
f 36/75/160 33/74/161 48/78/162
f 40/79/163 39/80/164 42/61/165 41/81/166
f 39/80/167 34/72/168 43/59/169 42/61/170
f 44/60/171 43/59/172 34/72/173 33/82/174
f 41/64/175 44/67/176 33/74/177 40/83/178
f 45/70/179 34/72/180 39/80/181
f 46/71/182 45/70/183 39/80/184 40/79/185
f 40/83/186 33/74/187 46/73/188
f 37/84/189 34/72/190 47/76/191
f 48/78/192 33/74/193 38/85/194
f 38/86/195 37/84/196 47/76/197 48/77/198
f 33/82/199 34/72/200 50/12/201 49/11/202
f 51/19/203 50/12/204 34/72/205 37/84/206
f 52/87/207 51/19/208 37/84/209 38/86/210
f 38/85/211 33/74/212 49/56/213 52/57/214
f 4/88/215 3/89/216 57/90/217 58/91/218
f 27/92/219 57/90/220 3/89/221
f 4/93/222 58/94/223 28/95/224
f 55/96/225 54/97/226 68/98/227
f 67/99/228 68/98/229 54/97/230 53/100/231
f 56/101/232 67/102/233 53/103/234
f 53/100/235 54/97/236 69/104/237 70/105/238
f 55/96/239 69/104/240 54/97/241
f 56/101/242 53/103/243 70/106/244
f 58/107/245 57/90/246 65/108/247 66/109/248
f 55/96/249 65/108/250 57/90/251 27/92/252
f 56/110/253 55/96/254 27/92/255 28/111/256
f 28/95/257 58/94/258 66/112/259 56/101/260
f 29/38/261 60/2/262 72/113/263 55/96/264
f 71/114/265 72/113/266 60/2/267 59/115/268
f 56/101/269 71/116/270 59/42/271 30/41/272
f 30/117/273 29/38/274 55/96/275 56/110/276
f 55/96/277 62/118/278 65/108/279
f 66/109/280 65/108/281 62/118/282 61/119/283
f 56/101/284 66/112/285 61/120/286
f 61/119/287 62/118/288 68/98/289 67/99/290
f 55/96/291 68/98/292 62/118/293
f 56/101/294 61/120/295 67/102/296
f 55/96/297 63/121/298 69/104/299
f 70/105/300 69/104/301 63/121/302 64/122/303
f 56/101/304 70/106/305 64/123/306
f 64/122/307 63/121/308 72/113/309 71/114/310
f 55/96/311 72/113/312 63/121/313
f 56/101/314 64/123/315 71/116/316
g default
v -0.500000 -9.877000 3.614000
v 0.499999 -9.877000 3.614000
v -0.500000 5.013552 3.614000
v 0.499999 5.013552 3.614000
v -0.500000 7.679210 3.606534
v 0.499999 7.679210 3.606534
v -0.500000 10.344876 3.614000
v 0.499999 10.344876 3.614000
v -0.500000 13.391342 3.614000
v 0.499999 13.391342 3.614000
v -0.500000 13.411848 0.386852
v 0.499999 13.411848 0.386852
v -0.500000 9.703624 0.386852
v 0.499999 9.703624 0.386852
v -0.500000 9.457074 1.186237
v 0.499999 9.457074 1.186237
v -0.500000 8.847868 1.817676
v 0.499999 8.847868 1.817676
v -0.500000 8.191362 2.131613
v 0.499999 8.191362 2.131613
v -0.500000 7.167056 2.131613
v 0.499999 7.167056 2.131613
v -0.500000 6.510555 1.817676
v 0.499999 6.510555 1.817676
v -0.500000 5.903242 1.186237
v 0.499999 5.903242 1.186237
v -0.500000 5.607745 0.386852
v 0.499999 5.607745 0.386852
v -0.500000 -9.877000 0.386852
v 0.499999 -9.877000 0.386852
v -0.500000 7.679208 2.200018
v 0.499999 7.679208 2.200018
v 0.499999 11.868108 3.614000
v -0.500000 11.868108 3.614000
v -0.500000 11.458626 0.967178
v 0.499999 11.458626 0.967178
v -0.500000 10.810920 0.646236
v 0.499999 10.810920 0.646236
v -0.500000 12.123338 0.646236
v 0.499999 12.123338 0.646236
v 0.499999 12.212418 0.399671
v -0.500000 12.212418 0.399671
v -0.500000 12.439322 3.614000
v 0.499999 12.439322 3.614000
v -0.500000 11.802274 0.878348
v 0.499999 11.802274 0.878348
v -0.500000 11.114822 0.878348
v 0.499999 11.114822 0.878348
v 0.499999 11.296896 3.614000
v -0.500000 11.296896 3.614000
v -0.500000 10.735512 0.399742
v 0.499999 10.735512 0.399742
v 0.499999 0.824654 2.685674
v -0.500000 0.824654 2.685674
v -0.500000 1.165024 0.386852
v 0.499999 1.165024 0.386852
v -0.500000 2.919103 3.614000
v 0.499999 2.919103 3.614000
v 0.499999 -1.269793 3.614000
v -0.500000 -1.269793 3.614000
v 0.499999 2.186955 3.057362
v -0.500000 2.186955 3.057362
v -0.500000 -0.537646 3.057362
v 0.499999 -0.537646 3.057362
v -0.500000 2.688820 3.407700
v 0.499999 2.688820 3.407700
v 0.499999 1.515934 2.768719
v -0.500000 1.515934 2.768719
v -0.500000 0.133374 2.768719
v 0.499999 0.133374 2.768719
v 0.499999 -1.039514 3.407700
v -0.500000 -1.039514 3.407700
vt 0.545723 0.262761
vt 0.543568 0.318987
vt 0.059362 0.299339
vt 0.061716 0.243077
vt 0.407713 0.597618
vt 0.408899 0.542265
vt 0.560090 0.542275
vt 0.555295 0.598841
vt 0.709670 0.566262
vt 0.699940 0.621455
vt 0.762643 0.577405
vt 0.750353 0.631740
vt 0.928662 0.633602
vt 0.875938 0.614070
vt 0.938523 0.443802
vt 0.991328 0.463045
vt 0.714579 0.382608
vt 0.727369 0.327824
vt 0.783810 0.341626
vt 0.769888 0.396155
vt 0.679142 0.344783
vt 0.685245 0.421381
vt 0.649714 0.376613
vt 0.641305 0.451281
vt 0.617650 0.400340
vt 0.598877 0.464181
vt 0.589218 0.409559
vt 0.570842 0.410151
vt 0.566482 0.465135
vt 0.534604 0.458880
vt 0.552617 0.406343
vt 0.494529 0.439495
vt 0.525375 0.392411
vt 0.455187 0.403681
vt 0.496019 0.363985
vt 0.428844 0.361681
vt 0.469370 0.328041
vt 0.013171 0.059191
vt 0.069367 0.061600
vt 0.005510 0.240725
vt 0.876495 0.989799
vt 0.391901 0.987472
vt 0.877368 0.808107
vt 0.480528 0.608815
vt 0.514641 0.790386
vt 0.464057 0.653881
vt 0.364556 0.790497
vt 0.429997 0.689553
vt 0.393101 0.707358
vt 0.364283 0.711309
vt 0.335439 0.707554
vt 0.298424 0.689998
vt 0.214466 0.791391
vt 0.264024 0.654551
vt 0.250026 0.609586
vt 0.160845 0.791533
vt 0.191950 0.610479
vt 0.857458 0.666596
vt 0.807684 0.648451
vt 0.825378 0.595456
vt 0.042899 0.791804
vt 0.041323 0.610113
vt 0.108855 0.610679
vt 0.096499 0.791681
vt 0.955732 0.390168
vt 0.874541 0.423261
vt 0.891391 0.369643
vt 0.815372 0.431000
vt 0.829695 0.375289
vt 0.843598 0.376370
vt 0.838025 0.433336
vt 0.151356 0.642531
vt 0.128667 0.791609
vt 0.132000 0.637577
vt 0.794609 0.583454
vt 0.170692 0.637481
vt 0.794662 0.421698
vt 0.817053 0.369004
vt 0.861845 0.429954
vt 0.862196 0.373406
vt 0.875843 0.371312
vt 0.113897 0.624551
vt 0.779241 0.638666
vt 0.187758 0.624369
vt 0.776732 0.407483
vt 0.802730 0.357422
vt 0.791732 0.349251
vt 0.925041 0.248905
vt 0.929973 0.304994
vt 0.812493 0.315184
vt 0.807742 0.259091
vt 0.005510 0.804408
vt 0.156357 0.986539
vt 0.038446 0.986204
vt 0.941791 0.065307
vt 0.255667 0.805150
vt 0.274332 0.934656
vt 0.235429 0.939186
vt 0.718174 0.222654
vt 0.708915 0.278484
vt 0.676801 0.275426
vt 0.675885 0.219213
vt 0.691524 0.088913
vt 0.644802 0.279555
vt 0.633781 0.224032
vt 0.313199 0.939495
vt 0.787372 0.309780
vt 0.772135 0.302480
vt 0.792482 0.250350
vt 0.169335 0.974961
vt 0.690218 0.032473
vt 0.937153 0.009691
vt 0.379009 0.975791
vt 0.560657 0.253835
vt 0.582211 0.305432
vt 0.567105 0.313063
vt 0.071277 0.005510
vt 0.197626 0.955316
vt 0.743078 0.289147
vt 0.760060 0.235241
vt 0.350875 0.955922
vt 0.610960 0.291305
vt 0.592468 0.237913
vn 0.000000 0.023286 0.999729
vn 0.000000 0.023286 0.999729
vn 0.000000 0.000000 1.000000
vn 0.000000 0.000000 1.000000
vn 0.000000 0.001495 0.999999
vn 0.000000 0.001495 0.999999
vn 0.000000 0.000000 1.000000
vn 0.000000 0.000000 1.000000
vn 0.000000 0.000000 1.000000
vn 0.000000 0.000000 1.000000
vn 0.000000 -0.001984 0.999998
vn 0.000000 -0.001984 0.999998
vn 0.000000 -0.001984 0.999998
vn 0.000000 -0.001984 0.999998
vn 0.000000 0.000000 1.000000
vn 0.000000 0.000000 1.000000
vn 0.000000 0.999980 0.006287
vn 0.000000 0.999980 0.006287
vn 0.000000 0.999980 0.006287
vn 0.000000 0.999980 0.006287
vn 0.000000 -0.523958 -0.851744
vn 0.000000 -0.523958 -0.851744
vn 0.000000 0.228031 -0.973654
vn 0.000000 0.228031 -0.973654
vn 0.000000 -0.523958 -0.851744
vn 0.000000 -0.523958 -0.851744
vn 0.000000 -0.858203 -0.513310
vn 0.000000 -0.858203 -0.513310
vn 0.000000 -0.858203 -0.513310
vn 0.000000 -0.858203 -0.513310
vn 0.000000 -0.598402 -0.801196
vn 0.000000 -0.598402 -0.801196
vn 0.000000 -0.598402 -0.801196
vn 0.000000 -0.598402 -0.801196
vn 0.000000 -0.310885 -0.950448
vn 0.000000 -0.310885 -0.950448
vn 0.000000 0.000000 -1.000000
vn 0.000000 0.000000 -1.000000
vn 0.000000 0.310885 -0.950448
vn 0.000000 0.310885 -0.950448
vn 0.000000 0.310885 -0.950448
vn 0.000000 0.310885 -0.950448
vn 0.000000 0.598989 -0.800758
vn 0.000000 0.598989 -0.800758
vn 0.000000 0.598989 -0.800758
vn 0.000000 0.598989 -0.800758
vn 0.000000 0.845751 -0.533577
vn 0.000000 0.845751 -0.533577
vn 0.000000 0.845751 -0.533577
vn 0.000000 0.845751 -0.533577
vn 0.000000 0.166334 -0.986070
vn 0.000000 0.166334 -0.986070
vn 0.000000 -1.000000 0.000000
vn 0.000000 -1.000000 0.000000
vn 0.000000 -1.000000 0.000000
vn 0.000000 -1.000000 0.000000
vn 1.000000 0.000000 0.000000
vn 1.000000 0.000000 0.000000
vn 1.000000 0.000000 0.000000
vn 1.000000 0.000000 0.000000
vn 1.000000 0.000000 0.000000
vn 1.000000 0.000000 0.000000
vn 1.000000 0.000000 0.000000
vn 1.000000 0.000000 0.000000
vn 1.000000 0.000000 0.000000
vn 1.000000 0.000000 0.000000
vn 1.000000 0.000000 0.000000
vn 1.000000 0.000000 0.000000
vn 1.000000 0.000000 0.000000
vn 1.000000 0.000000 0.000000
vn 1.000000 0.000000 0.000000
vn 1.000000 0.000000 0.000000
vn 1.000000 0.000000 0.000000
vn 1.000000 0.000000 0.000000
vn 1.000000 0.000000 0.000000
vn 1.000000 0.000000 0.000000
vn 1.000000 0.000000 0.000000
vn 1.000000 0.000000 0.000000
vn 1.000000 0.000000 0.000000
vn 1.000000 0.000000 0.000000
vn 1.000000 0.000000 0.000000
vn 1.000000 0.000000 0.000000
vn 1.000000 0.000000 0.000000
vn 1.000000 0.000000 0.000000
vn 1.000000 0.000000 0.000000
vn 1.000000 0.000000 0.000000
vn -1.000000 0.000000 0.000000
vn -1.000000 0.000000 0.000000
vn -1.000000 0.000000 0.000000
vn -1.000000 0.000000 0.000000
vn -1.000000 0.000000 0.000000
vn -1.000000 0.000000 0.000000
vn -1.000000 0.000000 0.000000
vn -1.000000 0.000000 0.000000
vn -1.000000 0.000000 0.000000
vn -1.000000 0.000000 0.000000
vn -1.000000 0.000000 0.000000
vn -1.000000 0.000000 0.000000
vn -1.000000 0.000000 0.000000
vn -1.000000 0.000000 0.000000
vn -1.000000 0.000000 0.000000
vn -1.000000 0.000000 0.000000
vn -1.000000 0.000000 0.000000
vn -1.000000 0.000000 0.000000
vn -1.000000 0.000000 0.000000
vn -1.000000 0.000000 0.000000
vn -1.000000 0.000000 0.000000
vn -1.000000 0.000000 0.000000
vn -1.000000 0.000000 0.000000
vn -1.000000 0.000000 0.000000
vn -1.000000 0.000000 0.000000
vn -1.000000 0.000000 0.000000
vn -1.000000 0.000000 0.000000
vn -1.000000 0.000000 0.000000
vn -1.000000 0.000000 0.000000
vn -1.000000 0.000000 0.000000
vn -1.000000 0.000000 0.000000
vn -1.000000 0.000000 0.000000
vn -1.000000 0.000000 0.000000
vn 0.000000 -0.310885 -0.950448
vn 0.000000 -0.310885 -0.950448
vn 0.000000 0.000000 -1.000000
vn 0.000000 0.000000 -1.000000
vn 1.000000 0.000000 0.000000
vn 1.000000 0.000000 0.000000
vn 1.000000 0.000000 0.000000
vn 0.000000 0.000000 1.000000
vn 0.000000 0.000000 1.000000
vn 0.000000 0.000000 1.000000
vn 0.000000 0.000000 1.000000
vn -1.000000 0.000000 0.000000
vn -1.000000 0.000000 0.000000
vn -1.000000 0.000000 0.000000
vn -1.000000 0.000000 0.000000
vn 0.000000 -0.010621 -0.999944
vn 0.000000 -0.010621 -0.999944
vn 0.000000 -0.197284 -0.980346
vn 0.000000 -0.197284 -0.980346
vn 1.000000 0.000000 0.000000
vn 1.000000 0.000000 0.000000
vn 1.000000 0.000000 0.000000
vn 1.000000 0.000000 0.000000
vn 0.000000 0.000000 -1.000000
vn 0.000000 0.000000 -1.000000
vn 0.000000 -0.434766 -0.900543
vn 0.000000 -0.434766 -0.900543
vn -1.000000 0.000000 0.000000
vn -1.000000 0.000000 0.000000
vn -1.000000 0.000000 0.000000
vn 1.000000 0.000000 0.000000
vn 1.000000 0.000000 0.000000
vn 1.000000 0.000000 0.000000
vn -1.000000 0.000000 0.000000
vn -1.000000 0.000000 0.000000
vn -1.000000 0.000000 0.000000
vn 0.000000 0.443975 -0.896039
vn 0.000000 0.443975 -0.896039
vn 0.000000 0.000000 -1.000000
vn 0.000000 0.000000 -1.000000
vn 1.000000 0.000000 0.000000
vn 1.000000 0.000000 0.000000
vn 1.000000 0.000000 0.000000
vn 0.000000 -0.759401 -0.650623
vn 0.000000 -0.759401 -0.650623
vn 0.000000 -0.197284 -0.980346
vn 0.000000 -0.197284 -0.980346
vn -1.000000 0.000000 0.000000
vn -1.000000 0.000000 0.000000
vn -1.000000 0.000000 0.000000
vn -1.000000 0.000000 0.000000
vn 0.000000 0.000000 1.000000
vn 0.000000 0.000000 1.000000
vn 0.000000 0.000000 1.000000
vn 0.000000 0.000000 1.000000
vn 1.000000 0.000000 0.000000
vn 1.000000 0.000000 0.000000
vn 1.000000 0.000000 0.000000
vn 1.000000 0.000000 0.000000
vn -1.000000 0.000000 0.000000
vn -1.000000 0.000000 0.000000
vn -1.000000 0.000000 0.000000
vn 0.000000 -0.434766 -0.900543
vn 0.000000 -0.434766 -0.900543
vn 0.000000 -0.759401 -0.650623
vn 0.000000 -0.759401 -0.650623
vn 1.000000 0.000000 0.000000
vn 1.000000 0.000000 0.000000
vn 1.000000 0.000000 0.000000
vn -1.000000 0.000000 0.000000
vn -1.000000 0.000000 0.000000
vn -1.000000 0.000000 0.000000
vn 1.000000 0.000000 0.000000
vn 1.000000 0.000000 0.000000
vn 1.000000 0.000000 0.000000
vn 0.000000 0.783699 -0.621141
vn 0.000000 0.783699 -0.621141
vn 0.000000 0.443975 -0.896039
vn 0.000000 0.443975 -0.896039
vn 0.000000 0.000000 1.000000
vn 0.000000 0.000000 1.000000
vn 0.000000 0.000000 1.000000
vn 0.000000 0.000000 1.000000
vn -1.000000 0.000000 0.000000
vn -1.000000 0.000000 0.000000
vn -1.000000 0.000000 0.000000
vn -1.000000 0.000000 0.000000
vn 0.000000 0.228031 -0.973654
vn 0.000000 0.228031 -0.973654
vn 0.000000 0.783699 -0.621141
vn 0.000000 0.783699 -0.621141
vn 1.000000 0.000000 0.000000
vn 1.000000 0.000000 0.000000
vn 1.000000 0.000000 0.000000
vn 1.000000 0.000000 0.000000
vn 0.000000 0.001495 0.999999
vn 0.000000 0.001495 0.999999
vn 0.000000 -0.088356 0.996089
vn 0.000000 -0.088356 0.996089
vn -1.000000 0.000000 0.000000
vn -1.000000 0.000000 0.000000
vn -1.000000 0.000000 0.000000
vn 1.000000 0.000000 0.000000
vn 1.000000 0.000000 0.000000
vn 1.000000 0.000000 0.000000
vn -1.000000 0.000000 0.000000
vn -1.000000 0.000000 0.000000
vn -1.000000 0.000000 0.000000
vn 0.000000 -0.263205 0.964740
vn 0.000000 -0.263205 0.964740
vn 0.000000 0.000000 1.000000
vn 0.000000 0.000000 1.000000
vn 1.000000 0.000000 0.000000
vn 1.000000 0.000000 0.000000
vn 1.000000 0.000000 0.000000
vn 0.000000 0.000000 1.000000
vn 0.000000 0.000000 1.000000
vn 0.000000 0.263205 0.964740
vn 0.000000 0.263205 0.964740
vn -1.000000 0.000000 0.000000
vn -1.000000 0.000000 0.000000
vn -1.000000 0.000000 0.000000
vn 1.000000 0.000000 0.000000
vn 1.000000 0.000000 0.000000
vn 1.000000 0.000000 0.000000
vn 0.000000 -0.088356 0.996089
vn 0.000000 -0.088356 0.996089
vn 0.000000 -0.605217 0.796060
vn 0.000000 -0.605217 0.796060
vn -1.000000 0.000000 0.000000
vn -1.000000 0.000000 0.000000
vn -1.000000 0.000000 0.000000
vn -1.000000 0.000000 0.000000
vn 0.000000 0.000000 -1.000000
vn 0.000000 0.000000 -1.000000
vn 0.000000 0.166334 -0.986070
vn 0.000000 0.166334 -0.986070
vn 1.000000 0.000000 0.000000
vn 1.000000 0.000000 0.000000
vn 1.000000 0.000000 0.000000
vn 1.000000 0.000000 0.000000
vn -1.000000 0.000000 0.000000
vn -1.000000 0.000000 0.000000
vn -1.000000 0.000000 0.000000
vn -1.000000 0.000000 0.000000
vn 0.000000 0.605217 0.796060
vn 0.000000 0.605217 0.796060
vn 0.000000 0.023286 0.999729
vn 0.000000 0.023286 0.999729
vn 1.000000 0.000000 0.000000
vn 1.000000 0.000000 0.000000
vn 1.000000 0.000000 0.000000
vn 1.000000 0.000000 0.000000
vn 0.000000 0.000000 -1.000000
vn 0.000000 0.000000 -1.000000
vn 0.000000 0.000000 -1.000000
vn 0.000000 0.000000 -1.000000
vn -1.000000 0.000000 0.000000
vn -1.000000 0.000000 0.000000
vn -1.000000 0.000000 0.000000
vn 0.000000 -0.605217 0.796060
vn 0.000000 -0.605217 0.796060
vn 0.000000 -0.478396 0.878144
vn 0.000000 -0.478396 0.878144
vn 1.000000 0.000000 0.000000
vn 1.000000 0.000000 0.000000
vn 1.000000 0.000000 0.000000
vn 0.000000 -0.478396 0.878144
vn 0.000000 -0.478396 0.878144
vn 0.000000 -0.263205 0.964740
vn 0.000000 -0.263205 0.964740
vn -1.000000 0.000000 0.000000
vn -1.000000 0.000000 0.000000
vn -1.000000 0.000000 0.000000
vn 1.000000 0.000000 0.000000
vn 1.000000 0.000000 0.000000
vn 1.000000 0.000000 0.000000
vn -1.000000 0.000000 0.000000
vn -1.000000 0.000000 0.000000
vn -1.000000 0.000000 0.000000
vn 0.000000 0.263205 0.964740
vn 0.000000 0.263205 0.964740
vn 0.000000 0.478396 0.878144
vn 0.000000 0.478396 0.878144
vn 1.000000 0.000000 0.000000
vn 1.000000 0.000000 0.000000
vn 1.000000 0.000000 0.000000
vn 0.000000 0.478396 0.878144
vn 0.000000 0.478396 0.878144
vn 0.000000 0.605217 0.796060
vn 0.000000 0.605217 0.796060
vn -1.000000 0.000000 0.000000
vn -1.000000 0.000000 0.000000
vn -1.000000 0.000000 0.000000
vn 1.000000 0.000000 0.000000
vn 1.000000 0.000000 0.000000
vn 1.000000 0.000000 0.000000
s off
g Monolith Left_Monolith:Left_Monolith
usemtl Maya_Lambert5SG
f 131/124/317 132/125/318 73/126/319 74/127/320
f 75/128/321 76/129/322 78/130/323 77/131/324
f 77/131/325 78/130/326 80/132/327 79/133/328
f 79/133/329 80/132/330 121/134/331 122/135/332
f 81/136/333 82/137/334 84/138/335 83/139/336
f 86/140/337 85/141/338 123/142/339 124/143/340
f 85/144/341 86/140/342 88/145/343 87/146/344
f 87/146/345 88/145/346 90/147/347 89/148/348
f 89/148/349 90/147/350 92/149/351 91/150/352
f 103/151/353 104/152/354 94/153/355 93/154/356
f 93/154/357 94/153/358 96/155/359 95/156/360
f 95/156/361 96/155/362 98/157/363 97/158/364
f 97/158/365 98/157/366 100/159/367 99/160/368
f 101/161/369 102/162/370 74/127/371 73/163/372
f 102/162/373 131/124/374 74/127/375
f 76/129/376 100/159/377 98/157/378
f 76/129/379 98/157/380 96/155/381 78/130/382
f 78/130/383 96/155/384 94/153/385
f 78/130/386 94/153/387 104/152/388
f 78/130/389 92/149/390 90/147/391
f 78/130/392 90/147/393 88/145/394 80/132/395
f 80/132/396 88/145/397 86/140/398
f 121/134/399 80/132/400 86/140/401 124/143/402
f 73/164/403 132/165/404 101/166/405
f 99/167/406 75/168/407 97/169/408
f 97/169/409 75/168/410 77/170/411 95/171/412
f 95/171/413 77/170/414 93/172/415
f 93/172/416 77/170/417 103/173/418
f 91/174/419 77/170/420 89/175/421
f 89/175/422 77/170/423 79/176/424 87/177/425
f 87/177/426 79/176/427 85/178/428
f 85/178/429 79/176/430 122/179/431 123/180/432
f 103/173/433 77/170/434 91/174/435
f 91/150/436 92/149/437 104/152/438 103/151/439
f 78/130/440 104/152/441 92/149/442
f 82/137/443 81/181/444 115/182/445 116/183/446
f 81/184/447 83/185/448 114/186/449 115/187/450
f 83/188/451 84/138/452 113/189/453 114/190/454
f 113/189/455 84/138/456 82/137/457 116/183/458
f 108/191/459 107/192/460 117/193/461 118/194/462
f 107/195/463 106/196/464 117/197/465
f 118/194/466 105/198/467 108/191/468
f 119/199/469 106/196/470 107/195/471
f 120/200/472 119/201/473 107/192/474 108/191/475
f 108/191/476 105/198/477 120/200/478
f 112/202/479 111/203/480 114/204/481 113/189/482
f 111/205/483 106/196/484 115/187/485 114/186/486
f 116/183/487 115/182/488 106/206/489 105/198/490
f 113/189/491 116/183/492 105/198/493 112/202/494
f 117/197/495 106/196/496 111/205/497
f 118/194/498 117/193/499 111/203/500 112/202/501
f 112/202/502 105/198/503 118/194/504
f 109/207/505 106/196/506 119/199/507
f 120/200/508 105/198/509 110/208/510
f 110/208/511 109/209/512 119/201/513 120/200/514
f 105/198/515 106/206/516 122/135/517 121/134/518
f 123/180/519 122/179/520 106/196/521 109/207/522
f 124/143/523 123/210/524 109/209/525 110/208/526
f 110/208/527 105/198/528 121/134/529 124/143/530
f 76/211/531 75/212/532 129/213/533 130/214/534
f 99/215/535 129/216/536 75/217/537
f 76/211/538 130/214/539 100/218/540
f 127/219/541 126/220/542 140/221/543
f 139/222/544 140/223/545 126/224/546 125/225/547
f 128/226/548 139/222/549 125/225/550
f 125/225/551 126/224/552 141/227/553 142/228/554
f 127/219/555 141/229/556 126/220/557
f 128/226/558 125/225/559 142/228/560
f 130/214/561 129/230/562 137/231/563 138/232/564
f 127/219/565 137/233/566 129/216/567 99/215/568
f 128/226/569 127/234/570 99/235/571 100/218/572
f 100/218/573 130/214/574 138/232/575 128/226/576
f 101/166/577 132/165/578 144/236/579 127/219/580
f 143/237/581 144/238/582 132/239/583 131/124/584
f 128/226/585 143/237/586 131/124/587 102/162/588
f 102/162/589 101/240/590 127/234/591 128/226/592
f 127/219/593 134/241/594 137/233/595
f 138/232/596 137/231/597 134/242/598 133/243/599
f 128/226/600 138/232/601 133/243/602
f 133/243/603 134/242/604 140/223/605 139/222/606
f 127/219/607 140/221/608 134/241/609
f 128/226/610 133/243/611 139/222/612
f 127/219/613 135/244/614 141/229/615
f 142/228/616 141/227/617 135/245/618 136/246/619
f 128/226/620 142/228/621 136/246/622
f 136/246/623 135/245/624 144/238/625 143/237/626
f 127/219/627 144/236/628 135/244/629
f 128/226/630 136/246/631 143/237/632
g default
v 0.000000 11.459000 -0.693000
v 0.501387 11.823279 -0.309974
v -0.191513 12.048415 -0.309974
v -0.619749 11.459000 -0.309974
v -0.191513 10.869583 -0.309974
v 0.501387 11.094720 -0.309974
v 0.619749 11.459000 0.309774
v 0.191513 12.048416 0.309774
v -0.501387 11.823279 0.309774
v -0.501387 11.094720 0.309774
v 0.191513 10.869583 0.309774
v 0.000000 11.459000 0.692800
vt 0.781282 0.768150
vt 0.637641 0.608395
vt 0.888831 0.582173
vt 0.584958 0.855394
vt 0.803589 0.981825
vt 0.991392 0.812965
vt 0.207158 0.640553
vt 0.403043 0.760275
vt 0.201430 0.870034
vt 0.598880 0.880062
vt 0.397254 0.989756
vt 0.207124 0.005571
vt 0.403054 0.125207
vt 0.201490 0.235044
vt 0.598947 0.244864
vt 0.397375 0.354695
vt 0.011250 0.520891
vt 0.005571 0.750362
vt 0.005571 0.115429
vt 0.593278 0.474344
vt 0.683129 0.404622
vt 0.582173 0.173124
vt 0.791966 0.219396
vt 0.771143 0.005571
vt 0.988891 0.133517
vt 0.934495 0.380144
vn 0.187518 0.577359 -0.794666
vn 0.187518 0.577359 -0.794666
vn 0.187518 0.577359 -0.794666
vn -0.491142 0.356759 -0.794672
vn -0.491142 0.356759 -0.794672
vn -0.491142 0.356759 -0.794672
vn -0.491142 -0.356759 -0.794672
vn -0.491142 -0.356759 -0.794672
vn -0.491142 -0.356759 -0.794672
vn 0.187518 -0.577359 -0.794666
vn 0.187518 -0.577359 -0.794666
vn 0.187518 -0.577359 -0.794666
vn 0.607052 0.000000 -0.794662
vn 0.607052 0.000000 -0.794662
vn 0.607052 0.000000 -0.794662
vn 0.303540 0.934183 -0.187526
vn 0.303540 0.934183 -0.187526
vn 0.303540 0.934183 -0.187526
vn -0.794666 0.577359 -0.187518
vn -0.794666 0.577359 -0.187518
vn -0.794666 0.577359 -0.187518
vn -0.794666 -0.577359 -0.187518
vn -0.794666 -0.577359 -0.187518
vn -0.794666 -0.577359 -0.187518
vn 0.303540 -0.934183 -0.187526
vn 0.303540 -0.934183 -0.187526
vn 0.303540 -0.934183 -0.187526
vn 0.982262 0.000000 -0.187516
vn 0.982262 0.000000 -0.187516
vn 0.982262 0.000000 -0.187516
vn 0.794666 0.577359 0.187518
vn 0.794666 0.577359 0.187518
vn 0.794666 0.577359 0.187518
vn -0.303540 0.934183 0.187526
vn -0.303540 0.934183 0.187526
vn -0.303540 0.934183 0.187526
vn -0.982262 0.000000 0.187516
vn -0.982262 0.000000 0.187516
vn -0.982262 0.000000 0.187516
vn -0.303540 -0.934183 0.187526
vn -0.303540 -0.934183 0.187526
vn -0.303540 -0.934183 0.187526
vn 0.794666 -0.577359 0.187518
vn 0.794666 -0.577359 0.187518
vn 0.794666 -0.577359 0.187518
vn 0.491142 0.356759 0.794672
vn 0.491142 0.356759 0.794672
vn 0.491142 0.356759 0.794672
vn -0.187518 0.577359 0.794666
vn -0.187518 0.577359 0.794666
vn -0.187518 0.577359 0.794666
vn -0.607052 0.000000 0.794662
vn -0.607052 0.000000 0.794662
vn -0.607052 0.000000 0.794662
vn -0.187518 -0.577359 0.794666
vn -0.187518 -0.577359 0.794666
vn -0.187518 -0.577359 0.794666
vn 0.491142 -0.356759 0.794672
vn 0.491142 -0.356759 0.794672
vn 0.491142 -0.356759 0.794672
s off
g Monolith Cube_Monolith:TopCube
usemtl Maya_Lambert8SG
f 145/247/633 147/248/634 146/249/635
f 145/247/636 148/250/637 147/248/638
f 145/247/639 149/251/640 148/250/641
f 145/247/642 150/252/643 149/251/644
f 145/247/645 146/249/646 150/252/647
f 146/253/648 147/254/649 152/255/650
f 147/254/651 148/256/652 153/257/653
f 148/258/654 149/259/655 154/260/656
f 149/259/657 150/261/658 155/262/659
f 150/263/660 146/253/661 151/264/662
f 146/253/663 152/255/664 151/264/665
f 147/254/666 153/257/667 152/255/668
f 148/258/669 154/260/670 153/265/671
f 149/259/672 155/262/673 154/260/674
f 150/261/675 151/266/676 155/262/677
f 151/267/678 152/268/679 156/269/680
f 152/268/681 153/270/682 156/269/683
f 153/270/684 154/271/685 156/269/686
f 154/271/687 155/272/688 156/269/689
f 155/272/690 151/267/691 156/269/692
g default
v 0.000000 7.679000 -1.726000
v 1.249211 8.586604 -0.771688
v -0.477156 9.147535 -0.771688
v -1.544110 7.679000 -0.771688
v -0.477156 6.210464 -0.771688
v 1.249211 6.771395 -0.771688
v 1.544110 7.679000 0.772422
v 0.477156 9.147535 0.772422
v -1.249211 8.586604 0.772422
v -1.249211 6.771395 0.772422
v 0.477156 6.210464 0.772422
v 0.000000 7.679000 1.726734
v -0.280465 8.542183 -1.468169
v 0.453802 9.075660 -0.907238
v 0.734268 8.212477 -1.468169
v 0.323853 8.675718 -1.371499
v -0.907605 7.679000 -1.468169
v -1.188070 8.542183 -0.907238
v -0.847860 8.295006 -1.371499
v -0.280465 6.815816 -1.468169
v -1.188070 6.815816 -0.907238
v -0.847860 7.062994 -1.371499
v 0.734268 7.145522 -1.468169
v 0.453802 6.282339 -0.907238
v 0.323853 6.682281 -1.371499
v 1.468536 7.679000 -0.907238
v 1.048012 7.679000 -1.371499
v 0.000000 9.405367 0.000367
v 1.014733 9.075660 0.000367
v 0.524006 9.291724 -0.323487
v -1.641873 8.212477 0.000367
v -1.014733 9.075660 0.000367
v -1.371866 8.675718 -0.323487
v -1.014733 6.282339 0.000367
v -1.641873 7.145522 0.000367
v -1.371866 6.682281 -0.323487
v 1.014733 6.282339 0.000367
v 0.000000 5.952633 0.000367
v 0.524006 6.066275 -0.323487
v 1.641873 8.212477 0.000367
v 1.641873 7.145522 0.000367
v 1.695719 7.679000 -0.323487
v 1.188070 8.542183 0.907972
v 1.371866 8.675718 0.324221
v -0.453803 9.075660 0.907972
v -0.524006 9.291724 0.324221
v -1.468536 7.679000 0.907972
v -1.695719 7.679000 0.324221
v -0.453802 6.282339 0.907972
v -0.524006 6.066275 0.324221
v 1.188070 6.815816 0.907972
v 1.371866 6.682281 0.324221
v 0.280465 8.542183 1.468903
v 0.907605 7.679000 1.468903
v 0.847859 8.295006 1.372233
v -0.734268 8.212477 1.468903
v -0.323853 8.675718 1.372233
v -0.734268 7.145522 1.468903
v -1.048012 7.679000 1.372233
v 0.280465 6.815816 1.468903
v -0.323853 6.682281 1.372233
v 0.847860 7.062994 1.372233
v 0.350768 7.933847 -1.670668
v -0.133981 8.091352 -1.670668
v 0.011603 8.622314 -1.445443
v 0.545080 8.448977 -1.445443
v 0.194581 8.277860 -1.607068
v -0.401944 8.916058 -1.134742
v -0.051176 9.170906 -0.866779
v 0.397630 8.902780 -1.150545
v -0.021883 8.944067 -1.174140
v 0.918323 8.855895 -0.866779
v 1.052304 8.443542 -1.134742
v 0.761292 8.689599 -1.174140
v -0.433573 7.679000 -1.670668
v -0.893560 7.981535 -1.445443
v -0.563853 8.435337 -1.445443
v -0.509421 8.049115 -1.607068
v -1.300719 7.679000 -1.134742
v -1.434701 8.091352 -0.866779
v -1.041009 8.435337 -1.150545
v -1.209914 8.049115 -1.174140
v -0.835518 8.916058 -0.866779
v -0.725885 8.715323 -1.174140
v -0.133982 7.266647 -1.670668
v -0.563853 6.922662 -1.445443
v -0.893560 7.376464 -1.445443
v -0.509421 7.308884 -1.607068
v -0.401945 6.441942 -1.134742
v -0.835518 6.441942 -0.866779
v -1.041009 6.922662 -1.150545
v -0.725885 6.642675 -1.174140
v -1.434701 7.266647 -0.866779
v -1.209914 7.308883 -1.174140
v 0.350768 7.424152 -1.670668
v 0.545079 6.909022 -1.445443
v 0.011603 6.735685 -1.445443
v 0.194581 7.080139 -1.607068
v 1.052304 6.914457 -1.134742
v 0.918323 6.502103 -0.866779
v 0.397630 6.455220 -1.150545
v 0.761292 6.668400 -1.174140
v -0.051177 6.187094 -0.866779
v -0.021883 6.413931 -1.174140
v 0.900731 7.959465 -1.445443
v 0.900731 7.398534 -1.445443
v 0.629679 7.679000 -1.607068
v 1.403072 8.188695 -0.866779
v 1.286758 7.679000 -1.150545
v 1.196390 8.090738 -1.174140
v 1.403072 7.169304 -0.866779
v 1.196390 7.267260 -1.174140
v 1.186286 8.855895 -0.433206
v 0.495930 9.205315 -0.635841
v 0.790828 9.205315 -0.158685
v 0.881550 9.059714 -0.544461
v -0.267963 9.328409 -0.433206
v 0.257352 9.378651 -0.158685
v 0.098375 9.314184 -0.544461
v 0.267963 9.328409 0.433940
v 0.752712 9.170906 0.433940
v 0.531304 9.314184 0.156032
v -0.752712 9.170906 -0.433206
v -1.298361 8.622313 -0.635841
v -1.207232 8.902780 -0.158685
v -1.040725 8.944067 -0.544461
v -1.651487 7.933847 -0.433206
v -1.536939 8.448977 -0.158685
v -1.524753 8.277860 -0.544461
v -1.485877 8.443542 0.433940
v -1.186286 8.855895 0.433940
v -1.390971 8.689599 0.156032
v -1.651487 7.424152 -0.433206
v -1.298361 6.735685 -0.635841
v -1.536939 6.909022 -0.158685
v -1.524753 7.080139 -0.544461
v -0.752712 6.187094 -0.433206
v -1.207232 6.455220 -0.158685
v -1.040725 6.413931 -0.544461
v -1.186285 6.502103 0.433940
v -1.485877 6.914456 0.433940
v -1.390971 6.668400 0.156032
v -0.267963 6.029590 -0.433206
v 0.495930 6.152685 -0.635841
v 0.257352 5.979347 -0.158685
v 0.098375 6.043815 -0.544461
v 1.186286 6.502103 -0.433206
v 0.790828 6.152685 -0.158685
v 0.881550 6.298284 -0.544461
v 0.752713 6.187094 0.433940
v 0.267963 6.029590 0.433940
v 0.531304 6.043815 0.156032
v 1.485877 6.914457 -0.433206
v 1.604862 7.679000 -0.635841
v 1.695991 7.398534 -0.158685
v 1.585552 7.267260 -0.544461
v 1.485877 8.443542 -0.433206
v 1.695991 7.959465 -0.158685
v 1.585553 8.090738 -0.544461
v 1.651487 7.933847 0.433940
v 1.651487 7.424152 0.433940
v 1.719335 7.679000 0.156032
v 1.207232 8.902780 0.159419
v 1.536939 8.448977 0.159419
v 1.390971 8.689599 -0.155298
v 0.835518 8.916058 0.867513
v 1.298361 8.622314 0.636575
v 1.040725 8.944067 0.545195
v 1.434701 8.091352 0.867513
v 1.524753 8.277860 0.545195
v -0.790828 9.205315 0.159419
v -0.257352 9.378651 0.159419
v -0.531304 9.314184 -0.155298
v -0.918323 8.855895 0.867513
v -0.495930 9.205315 0.636575
v -0.881550 9.059714 0.545195
v 0.051176 9.170906 0.867513
v -0.098375 9.314184 0.545195
v -1.695991 7.398534 0.159419
v -1.695991 7.959465 0.159419
v -1.719335 7.679000 -0.155298
v -1.403072 7.169304 0.867513
v -1.604862 7.679000 0.636575
v -1.585552 7.267260 0.545195
v -1.403072 8.188695 0.867513
v -1.585553 8.090738 0.545195
v -0.257352 5.979347 0.159419
v -0.790828 6.152685 0.159419
v -0.531304 6.043815 -0.155298
v 0.051177 6.187094 0.867513
v -0.495930 6.152685 0.636575
v -0.098375 6.043815 0.545195
v -0.918323 6.502103 0.867513
v -0.881550 6.298284 0.545195
v 1.536939 6.909022 0.159419
v 1.207232 6.455220 0.159419
v 1.390971 6.668400 -0.155298
v 1.434701 7.266647 0.867513
v 1.298361 6.735685 0.636575
v 1.524753 7.080139 0.545195
v 0.835518 6.441942 0.867513
v 1.040725 6.413931 0.545195
v 1.300719 7.679000 1.135476
v 1.041009 8.435337 1.151279
v 0.893560 7.981535 1.446177
v 1.209914 8.049115 1.174874
v 0.401944 8.916058 1.135476
v 0.563853 8.435337 1.446177
v 0.725885 8.715323 1.174874
v 0.133981 8.091352 1.671402
v 0.433573 7.679000 1.671402
v 0.509421 8.049115 1.607802
v -0.397630 8.902780 1.151279
v -0.011603 8.622314 1.446177
v 0.021883 8.944067 1.174874
v -1.052304 8.443542 1.135476
v -0.545080 8.448977 1.446177
v -0.761292 8.689599 1.174874
v -0.350768 7.933847 1.671402
v -0.194581 8.277860 1.607802
v -1.286758 7.679000 1.151279
v -0.900731 7.959465 1.446177
v -1.196390 8.090738 1.174874
v -1.052304 6.914456 1.135476
v -0.900731 7.398534 1.446177
v -1.196390 7.267260 1.174874
v -0.350768 7.424152 1.671402
v -0.629679 7.679000 1.607802
v -0.397630 6.455220 1.151278
v -0.545079 6.909022 1.446177
v -0.761292 6.668400 1.174874
v 0.401945 6.441942 1.135476
v -0.011603 6.735685 1.446177
v 0.021883 6.413931 1.174874
v 0.133982 7.266647 1.671402
v -0.194581 7.080139 1.607802
v 1.041009 6.922662 1.151279
v 0.563853 6.922662 1.446177
v 0.725885 6.642675 1.174874
v 0.893560 7.376464 1.446177
v 1.209914 7.308884 1.174874
v 0.509421 7.308884 1.607802
vt 0.313875 0.076409
vt 0.340081 0.053037
vt 0.374940 0.089796
vt 0.340484 0.108183
vt 0.406363 0.120523
vt 0.366787 0.135370
vt 0.321287 0.156148
vt 0.303577 0.132127
vt 0.285939 0.105639
vt 0.280474 0.184315
vt 0.263162 0.152522
vt 0.250472 0.212560
vt 0.229915 0.178082
vt 0.204486 0.135731
vt 0.243407 0.116987
vt 0.906959 0.019252
vt 0.935557 0.034070
vt 0.910666 0.077312
vt 0.881833 0.052017
vt 0.890287 0.112637
vt 0.859250 0.081939
vt 0.824419 0.045251
vt 0.850259 0.024952
vt 0.877002 0.005797
vt 0.338473 0.179743
vt 0.377156 0.169688
vt 0.413163 0.161498
vt 0.417300 0.210145
vt 0.387349 0.207239
vt 0.355789 0.205535
vt 0.411939 0.258116
vt 0.378902 0.243794
vt 0.403270 0.297165
vt 0.370204 0.276010
vt 0.328980 0.252041
vt 0.341399 0.230168
vt 0.286631 0.229686
vt 0.310088 0.205370
vt 0.448465 0.214064
vt 0.450855 0.171200
vt 0.449033 0.132196
vt 0.498520 0.143592
vt 0.492192 0.178608
vt 0.483394 0.220231
vt 0.519564 0.212054
vt 0.551729 0.201453
vt 0.565643 0.250522
vt 0.527707 0.254136
vt 0.577379 0.293641
vt 0.536716 0.294146
vt 0.488882 0.294988
vt 0.487337 0.259004
vt 0.441898 0.296129
vt 0.447735 0.257017
vt 0.502602 0.110881
vt 0.463166 0.097465
vt 0.426603 0.085274
vt 0.451339 0.041971
vt 0.478615 0.059161
vt 0.505441 0.078110
vt 0.655209 0.151243
vt 0.690109 0.126615
vt 0.714872 0.169436
vt 0.676541 0.185956
vt 0.735127 0.204283
vt 0.695934 0.216770
vt 0.651295 0.238247
vt 0.638928 0.210870
vt 0.624691 0.182310
vt 0.610366 0.266958
vt 0.599491 0.230480
vt 0.585535 0.191339
vt 0.422686 0.027168
vt 0.397584 0.059939
vt 0.365983 0.032831
vt 0.392720 0.013702
vt 0.798450 0.068718
vt 0.825054 0.100481
vt 0.851201 0.127821
vt 0.806116 0.148749
vt 0.788519 0.124489
vt 0.770971 0.097877
vt 0.765391 0.176617
vt 0.748266 0.144499
vt 0.728857 0.108688
vt 0.986330 0.103181
vt 0.981741 0.135649
vt 0.932501 0.123968
vt 0.947055 0.089485
vt 0.962767 0.051318
vt 0.989464 0.070454
vt 0.169813 0.161331
vt 0.191897 0.195526
vt 0.211813 0.225974
vt 0.168002 0.248608
vt 0.155083 0.221506
vt 0.140038 0.193392
vt 0.128279 0.278470
vt 0.116620 0.242397
vt 0.096445 0.305741
vt 0.084098 0.263773
vt 0.068275 0.215697
vt 0.101253 0.203894
vt 0.273965 0.300758
vt 0.248820 0.301461
vt 0.248638 0.253034
vt 0.280569 0.263021
vt 0.316703 0.274311
vt 0.302877 0.299952
vt 0.345586 0.298762
vt 0.371362 0.320119
vt 0.331512 0.346343
vt 0.318069 0.324785
vt 0.290478 0.371027
vt 0.282615 0.338075
vt 0.255342 0.390143
vt 0.251294 0.349827
vt 0.452461 0.377789
vt 0.421742 0.383368
vt 0.413879 0.335717
vt 0.449557 0.334918
vt 0.488818 0.330973
vt 0.486696 0.369804
vt 0.529039 0.334410
vt 0.566720 0.337031
vt 0.553963 0.386415
vt 0.522234 0.376716
vt 0.498149 0.410608
vt 0.506559 0.445143
vt 0.457829 0.459400
vt 0.457358 0.420409
vt 0.415925 0.473456
vt 0.420355 0.432180
vt 0.664107 0.321080
vt 0.652078 0.347974
vt 0.610828 0.319779
vt 0.635762 0.293204
vt 0.663731 0.265017
vt 0.678009 0.292976
vt 0.700055 0.253118
vt 0.732732 0.244504
vt 0.731998 0.292723
vt 0.706697 0.292835
vt 0.733261 0.340938
vt 0.700537 0.332623
vt 0.736065 0.381151
vt 0.696853 0.369019
vt 0.826432 0.223457
vt 0.813912 0.245217
vt 0.771449 0.222106
vt 0.795032 0.198149
vt 0.823275 0.172668
vt 0.840655 0.198743
vt 0.861526 0.162502
vt 0.896790 0.153915
vt 0.901376 0.203251
vt 0.872001 0.200539
vt 0.897811 0.252279
vt 0.864200 0.237646
vt 0.889159 0.292104
vt 0.855397 0.269988
vt 0.931237 0.206198
vt 0.933638 0.162719
vt 0.974487 0.169756
vt 0.963081 0.207955
vt 0.038161 0.228849
vt 0.047050 0.269487
vt 0.055676 0.306895
vt 0.005797 0.308301
vt 0.006289 0.276087
vt 0.008625 0.243326
vt 0.974965 0.249521
vt 0.979012 0.291742
vt 0.929523 0.291949
vt 0.934234 0.250825
vt 0.180858 0.275183
vt 0.216549 0.262391
vt 0.223930 0.302157
vt 0.195555 0.302952
vt 0.218751 0.342275
vt 0.216035 0.378905
vt 0.171056 0.358756
vt 0.182418 0.331500
vt 0.129743 0.331172
vt 0.153906 0.304121
vt 0.345070 0.367507
vt 0.381729 0.351823
vt 0.392114 0.387896
vt 0.360756 0.391329
vt 0.384024 0.425977
vt 0.375612 0.460827
vt 0.329073 0.442578
vt 0.344904 0.418054
vt 0.286813 0.416690
vt 0.315201 0.394017
vt 0.587397 0.395803
vt 0.600657 0.356425
vt 0.640137 0.375488
vt 0.626267 0.404215
vt 0.677819 0.400032
vt 0.716169 0.416190
vt 0.691769 0.459219
vt 0.656810 0.434932
vt 0.491580 0.530574
vt 0.465320 0.549299
vt 0.438150 0.507484
vt 0.473953 0.493230
vt 0.512545 0.477554
vt 0.517274 0.510107
vt 0.757558 0.292617
vt 0.764912 0.255181
vt 0.801262 0.267234
vt 0.786780 0.292496
vt 0.830118 0.292326
vt 0.855612 0.314471
vt 0.814367 0.339569
vt 0.801508 0.317641
vt 0.772149 0.363024
vt 0.765298 0.329988
vt 0.931985 0.377702
vt 0.902159 0.380880
vt 0.898172 0.331870
vt 0.934596 0.333038
vt 0.975335 0.334002
vt 0.963810 0.375689
vt 0.008095 0.340437
vt 0.049161 0.344730
vt 0.086463 0.348341
vt 0.073365 0.397232
vt 0.042571 0.385804
vt 0.012271 0.373016
vt 0.975527 0.413826
vt 0.983044 0.447904
vt 0.933899 0.459956
vt 0.934738 0.421178
vt 0.891788 0.471608
vt 0.897974 0.430264
vt 0.106930 0.407153
vt 0.120116 0.367846
vt 0.159664 0.386539
vt 0.146209 0.415450
vt 0.197836 0.410420
vt 0.236727 0.425720
vt 0.213675 0.469416
vt 0.177680 0.445790
vt 0.964696 0.532397
vt 0.937616 0.549851
vt 0.912413 0.506790
vt 0.948705 0.494343
vt 0.987875 0.480354
vt 0.991250 0.513061
vt 0.253530 0.485979
vt 0.271295 0.449405
vt 0.312740 0.467550
vt 0.296598 0.494973
vt 0.350891 0.489435
vt 0.386317 0.505881
vt 0.353584 0.544530
vt 0.326099 0.522634
vt 0.852388 0.559591
vt 0.826418 0.539479
vt 0.860987 0.502544
vt 0.883768 0.532301
vt 0.909125 0.564883
vt 0.879263 0.578554
vt 0.380601 0.563258
vt 0.410620 0.534414
vt 0.437546 0.565706
vt 0.408387 0.580846
vt 0.730555 0.476801
vt 0.749675 0.440836
vt 0.766510 0.408573
vt 0.807412 0.436123
vt 0.790021 0.460521
vt 0.772676 0.487264
vt 0.852619 0.456714
vt 0.826686 0.484256
vt 0.800310 0.516208
vt 0.824359 0.412067
vt 0.795930 0.386801
vt 0.827080 0.361241
vt 0.841507 0.385852
vt 0.864703 0.346759
vt 0.872822 0.383816
vt 0.862665 0.421945
vn 0.321407 0.439500 -0.838771
vn 0.425334 0.308959 -0.850668
vn 0.206716 0.150223 -0.966800
vn 0.108840 0.334976 -0.935919
vn 0.206716 0.150223 -0.966800
vn 0.000000 0.000000 -1.000000
vn -0.078896 0.243065 -0.966796
vn 0.108840 0.334976 -0.935919
vn -0.078896 0.243065 -0.966796
vn -0.162457 0.500006 -0.850648
vn -0.001648 0.544537 -0.838735
vn 0.108840 0.334976 -0.935919
vn -0.001648 0.544537 -0.838735
vn 0.187518 0.577359 -0.794666
vn 0.321407 0.439500 -0.838771
vn 0.108840 0.334976 -0.935919
vn -0.001648 0.544537 -0.838735
vn -0.162457 0.500006 -0.850648
vn -0.231911 0.713681 -0.660967
vn -0.022372 0.738891 -0.673453
vn -0.231911 0.713681 -0.660967
vn -0.276362 0.850661 -0.447213
vn -0.025058 0.863909 -0.503024
vn -0.022372 0.738891 -0.673453
vn -0.025058 0.863909 -0.503024
vn 0.262831 0.809034 -0.525723
vn 0.232045 0.714418 -0.660123
vn -0.022372 0.738891 -0.673453
vn 0.232045 0.714418 -0.660123
vn 0.187518 0.577359 -0.794666
vn -0.001648 0.544537 -0.838735
vn -0.022372 0.738891 -0.673453
vn 0.232045 0.714418 -0.660123
vn 0.262831 0.809034 -0.525723
vn 0.528095 0.684156 -0.503037
vn 0.452430 0.584590 -0.673470
vn 0.528095 0.684156 -0.503037
vn 0.723596 0.525719 -0.447245
vn 0.607127 0.441092 -0.660935
vn 0.452430 0.584590 -0.673470
vn 0.607127 0.441092 -0.660935
vn 0.425334 0.308959 -0.850668
vn 0.321407 0.439500 -0.838771
vn 0.452430 0.584590 -0.673470
vn 0.321407 0.439500 -0.838771
vn 0.187518 0.577359 -0.794666
vn 0.232045 0.714418 -0.660123
vn 0.452430 0.584590 -0.673470
vn -0.318607 0.441495 -0.838792
vn -0.162457 0.500006 -0.850648
vn -0.078896 0.243065 -0.966796
vn -0.284951 0.207028 -0.935918
vn -0.078896 0.243065 -0.966796
vn 0.000000 0.000000 -1.000000
vn -0.255577 0.000000 -0.966789
vn -0.284951 0.207028 -0.935918
vn -0.255577 0.000000 -0.966789
vn -0.525690 0.000000 -0.850676
vn -0.518375 0.166565 -0.838775
vn -0.284951 0.207028 -0.935918
vn -0.518375 0.166565 -0.838775
vn -0.491142 0.356759 -0.794672
vn -0.318607 0.441495 -0.838792
vn -0.284951 0.207028 -0.935918
vn -0.518375 0.166565 -0.838775
vn -0.525690 0.000000 -0.850676
vn -0.750408 0.000000 -0.660975
vn -0.709651 0.207025 -0.673451
vn -0.750408 0.000000 -0.660975
vn -0.894427 0.000000 -0.447213
vn -0.829397 0.243066 -0.503010
vn -0.709651 0.207025 -0.673451
vn -0.829397 0.243066 -0.503010
vn -0.688178 0.500041 -0.525710
vn -0.607693 0.441470 -0.660161
vn -0.709651 0.207025 -0.673451
vn -0.607693 0.441470 -0.660161
vn -0.491142 0.356759 -0.794672
vn -0.518375 0.166565 -0.838775
vn -0.709651 0.207025 -0.673451
vn -0.607693 0.441470 -0.660161
vn -0.688178 0.500041 -0.525710
vn -0.487447 0.713682 -0.503044
vn -0.416147 0.610990 -0.673434
vn -0.487447 0.713682 -0.503044
vn -0.276362 0.850661 -0.447213
vn -0.231911 0.713681 -0.660967
vn -0.416147 0.610990 -0.673434
vn -0.231911 0.713681 -0.660967
vn -0.162457 0.500006 -0.850648
vn -0.318607 0.441495 -0.838792
vn -0.416147 0.610990 -0.673434
vn -0.318607 0.441495 -0.838792
vn -0.491142 0.356759 -0.794672
vn -0.607693 0.441470 -0.660161
vn -0.416147 0.610990 -0.673434
vn -0.518375 -0.166565 -0.838775
vn -0.525690 0.000000 -0.850676
vn -0.255577 0.000000 -0.966789
vn -0.284951 -0.207028 -0.935918
vn -0.255577 0.000000 -0.966789
vn 0.000000 0.000000 -1.000000
vn -0.078896 -0.243065 -0.966796
vn -0.284951 -0.207028 -0.935918
vn -0.078896 -0.243065 -0.966796
vn -0.162457 -0.500006 -0.850648
vn -0.318607 -0.441495 -0.838792
vn -0.284951 -0.207028 -0.935918
vn -0.318607 -0.441495 -0.838792
vn -0.491142 -0.356759 -0.794672
vn -0.518375 -0.166565 -0.838775
vn -0.284951 -0.207028 -0.935918
vn -0.318607 -0.441495 -0.838792
vn -0.162457 -0.500006 -0.850648
vn -0.231911 -0.713681 -0.660967
vn -0.416147 -0.610990 -0.673434
vn -0.231911 -0.713681 -0.660967
vn -0.276362 -0.850661 -0.447213
vn -0.487447 -0.713682 -0.503044
vn -0.416147 -0.610990 -0.673434
vn -0.487447 -0.713682 -0.503044
vn -0.688178 -0.500041 -0.525710
vn -0.607693 -0.441470 -0.660161
vn -0.416147 -0.610990 -0.673434
vn -0.607693 -0.441470 -0.660161
vn -0.491142 -0.356759 -0.794672
vn -0.318607 -0.441495 -0.838792
vn -0.416147 -0.610990 -0.673434
vn -0.607693 -0.441470 -0.660161
vn -0.688178 -0.500041 -0.525710
vn -0.829397 -0.243066 -0.503010
vn -0.709651 -0.207025 -0.673451
vn -0.829397 -0.243066 -0.503010
vn -0.894427 0.000000 -0.447213
vn -0.750408 0.000000 -0.660975
vn -0.709651 -0.207025 -0.673451
vn -0.750408 0.000000 -0.660975
vn -0.525690 0.000000 -0.850676
vn -0.518375 -0.166565 -0.838775
vn -0.709651 -0.207025 -0.673451
vn -0.518375 -0.166565 -0.838775
vn -0.491142 -0.356759 -0.794672
vn -0.607693 -0.441470 -0.660161
vn -0.709651 -0.207025 -0.673451
vn -0.001648 -0.544537 -0.838735
vn -0.162457 -0.500006 -0.850648
vn -0.078896 -0.243065 -0.966796
vn 0.108840 -0.334976 -0.935919
vn -0.078896 -0.243065 -0.966796
vn 0.000000 0.000000 -1.000000
vn 0.206716 -0.150223 -0.966800
vn 0.108840 -0.334976 -0.935919
vn 0.206716 -0.150223 -0.966800
vn 0.425334 -0.308959 -0.850668
vn 0.321407 -0.439500 -0.838771
vn 0.108840 -0.334976 -0.935919
vn 0.321407 -0.439500 -0.838771
vn 0.187518 -0.577359 -0.794666
vn -0.001648 -0.544537 -0.838735
vn 0.108840 -0.334976 -0.935919
vn 0.321407 -0.439500 -0.838771
vn 0.425334 -0.308959 -0.850668
vn 0.607127 -0.441092 -0.660935
vn 0.452430 -0.584590 -0.673470
vn 0.607127 -0.441092 -0.660935
vn 0.723596 -0.525719 -0.447245
vn 0.528095 -0.684156 -0.503037
vn 0.452430 -0.584590 -0.673470
vn 0.528095 -0.684156 -0.503037
vn 0.262831 -0.809034 -0.525723
vn 0.232045 -0.714418 -0.660123
vn 0.452430 -0.584590 -0.673470
vn 0.232045 -0.714418 -0.660123
vn 0.187518 -0.577359 -0.794666
vn 0.321407 -0.439500 -0.838771
vn 0.452430 -0.584590 -0.673470
vn 0.232045 -0.714418 -0.660123
vn 0.262831 -0.809034 -0.525723
vn -0.025058 -0.863909 -0.503024
vn -0.022372 -0.738891 -0.673453
vn -0.025058 -0.863909 -0.503024
vn -0.276362 -0.850661 -0.447213
vn -0.231911 -0.713681 -0.660967
vn -0.022372 -0.738891 -0.673453
vn -0.231911 -0.713681 -0.660967
vn -0.162457 -0.500006 -0.850648
vn -0.001648 -0.544537 -0.838735
vn -0.022372 -0.738891 -0.673453
vn -0.001648 -0.544537 -0.838735
vn 0.187518 -0.577359 -0.794666
vn 0.232045 -0.714418 -0.660123
vn -0.022372 -0.738891 -0.673453
vn 0.517345 -0.169915 -0.838739
vn 0.425334 -0.308959 -0.850668
vn 0.206716 -0.150223 -0.966800
vn 0.352220 0.000000 -0.935917
vn 0.206716 -0.150223 -0.966800
vn 0.000000 0.000000 -1.000000
vn 0.206716 0.150223 -0.966800
vn 0.352220 0.000000 -0.935917
vn 0.206716 0.150223 -0.966800
vn 0.425334 0.308959 -0.850668
vn 0.517345 0.169915 -0.838739
vn 0.352220 0.000000 -0.935917
vn 0.517345 0.169915 -0.838739
vn 0.607071 0.000000 -0.794647
vn 0.517345 -0.169915 -0.838739
vn 0.352220 0.000000 -0.935917
vn 0.517345 0.169915 -0.838739
vn 0.425334 0.308959 -0.850668
vn 0.607127 0.441092 -0.660935
vn 0.695805 0.249607 -0.673462
vn 0.607127 0.441092 -0.660935
vn 0.723596 0.525719 -0.447245
vn 0.813883 0.290828 -0.503004
vn 0.695805 0.249607 -0.673462
vn 0.813883 0.290828 -0.503004
vn 0.850676 0.000000 -0.525690
vn 0.751161 0.000000 -0.660120
vn 0.695805 0.249607 -0.673462
vn 0.751161 0.000000 -0.660120
vn 0.607071 0.000000 -0.794647
vn 0.517345 0.169915 -0.838739
vn 0.695805 0.249607 -0.673462
vn 0.751161 0.000000 -0.660120
vn 0.850676 0.000000 -0.525690
vn 0.813883 -0.290828 -0.503004
vn 0.695805 -0.249607 -0.673462
vn 0.813883 -0.290828 -0.503004
vn 0.723596 -0.525719 -0.447245
vn 0.607127 -0.441092 -0.660935
vn 0.695805 -0.249607 -0.673462
vn 0.607127 -0.441092 -0.660935
vn 0.425334 -0.308959 -0.850668
vn 0.517345 -0.169915 -0.838739
vn 0.695805 -0.249607 -0.673462
vn 0.517345 -0.169915 -0.838739
vn 0.607071 0.000000 -0.794647
vn 0.751161 0.000000 -0.660120
vn 0.695805 -0.249607 -0.673462
vn 0.464886 0.881027 -0.087599
vn 0.587811 0.808999 0.000000
vn 0.686083 0.684160 -0.247415
vn 0.519705 0.791660 -0.321218
vn 0.686083 0.684160 -0.247415
vn 0.723596 0.525719 -0.447245
vn 0.528095 0.684156 -0.503037
vn 0.519705 0.791660 -0.321218
vn 0.528095 0.684156 -0.503037
vn 0.262831 0.809034 -0.525723
vn 0.286207 0.881024 -0.376674
vn 0.519705 0.791660 -0.321218
vn 0.286207 0.881024 -0.376674
vn 0.303540 0.934183 -0.187526
vn 0.464886 0.881027 -0.087599
vn 0.519705 0.791660 -0.321218
vn 0.286207 0.881024 -0.376674
vn 0.262831 0.809034 -0.525723
vn -0.025058 0.863909 -0.503024
vn 0.044776 0.945947 -0.321217
vn -0.025058 0.863909 -0.503024
vn -0.276362 0.850661 -0.447213
vn -0.152846 0.956782 -0.247398
vn 0.044776 0.945947 -0.321217
vn -0.152846 0.956782 -0.247398
vn 0.000000 1.000000 0.000000
vn 0.141647 0.986034 -0.087595
vn 0.044776 0.945947 -0.321217
vn 0.141647 0.986034 -0.087595
vn 0.303540 0.934183 -0.187526
vn 0.286207 0.881024 -0.376674
vn 0.044776 0.945947 -0.321217
vn 0.141647 0.986034 -0.087595
vn 0.000000 1.000000 0.000000
vn 0.152846 0.956782 0.247398
vn 0.307360 0.945948 0.103501
vn 0.152846 0.956782 0.247398
vn 0.276362 0.850661 0.447213
vn 0.438637 0.863935 0.247415
vn 0.307360 0.945948 0.103501
vn 0.438637 0.863935 0.247415
vn 0.587811 0.808999 0.000000
vn 0.464886 0.881027 -0.087599
vn 0.307360 0.945948 0.103501
vn 0.464886 0.881027 -0.087599
vn 0.303540 0.934183 -0.187526
vn 0.141647 0.986034 -0.087595
vn 0.307360 0.945948 0.103501
vn -0.694199 0.714434 -0.087595
vn -0.587811 0.808999 0.000000
vn -0.438637 0.863935 -0.247415
vn -0.592292 0.738923 -0.321221
vn -0.438637 0.863935 -0.247415
vn -0.276362 0.850661 -0.447213
vn -0.487447 0.713682 -0.503044
vn -0.592292 0.738923 -0.321221
vn -0.487447 0.713682 -0.503044
vn -0.688178 0.500041 -0.525710
vn -0.749440 0.544500 -0.376642
vn -0.592292 0.738923 -0.321221
vn -0.749440 0.544500 -0.376642
vn -0.794666 0.577359 -0.187518
vn -0.694199 0.714434 -0.087595
vn -0.592292 0.738923 -0.321221
vn -0.749440 0.544500 -0.376642
vn -0.688178 0.500041 -0.525710
vn -0.829397 0.243066 -0.503010
vn -0.885782 0.334980 -0.321215
vn -0.829397 0.243066 -0.503010
vn -0.894427 0.000000 -0.447213
vn -0.957194 0.150229 -0.247410
vn -0.885782 0.334980 -0.321215
vn -0.957194 0.150229 -0.247410
vn -0.951076 0.308957 0.000000
vn -0.893978 0.439465 -0.087594
vn -0.885782 0.334980 -0.321215
vn -0.893978 0.439465 -0.087594
vn -0.794666 0.577359 -0.187518
vn -0.749440 0.544500 -0.376642
vn -0.885782 0.334980 -0.321215
vn -0.893978 0.439465 -0.087594
vn -0.951076 0.308957 0.000000
vn -0.862693 0.441083 0.247400
vn -0.804705 0.584583 0.103499
vn -0.862693 0.441083 0.247400
vn -0.723596 0.525719 0.447245
vn -0.686083 0.684160 0.247415
vn -0.804705 0.584583 0.103499
vn -0.686083 0.684160 0.247415
vn -0.587811 0.808999 0.000000
vn -0.694199 0.714434 -0.087595
vn -0.804705 0.584583 0.103499
vn -0.694199 0.714434 -0.087595
vn -0.794666 0.577359 -0.187518
vn -0.893978 0.439465 -0.087594
vn -0.804705 0.584583 0.103499
vn -0.893978 -0.439465 -0.087594
vn -0.951076 -0.308957 0.000000
vn -0.957194 -0.150229 -0.247410
vn -0.885782 -0.334980 -0.321215
vn -0.957194 -0.150229 -0.247410
vn -0.894427 0.000000 -0.447213
vn -0.829397 -0.243066 -0.503010
vn -0.885782 -0.334980 -0.321215
vn -0.829397 -0.243066 -0.503010
vn -0.688178 -0.500041 -0.525710
vn -0.749440 -0.544500 -0.376642
vn -0.885782 -0.334980 -0.321215
vn -0.749440 -0.544500 -0.376642
vn -0.794666 -0.577359 -0.187518
vn -0.893978 -0.439465 -0.087594
vn -0.885782 -0.334980 -0.321215
vn -0.749440 -0.544500 -0.376642
vn -0.688178 -0.500041 -0.525710
vn -0.487447 -0.713682 -0.503044
vn -0.592292 -0.738923 -0.321221
vn -0.487447 -0.713682 -0.503044
vn -0.276362 -0.850661 -0.447213
vn -0.438637 -0.863935 -0.247415
vn -0.592292 -0.738923 -0.321221
vn -0.438637 -0.863935 -0.247415
vn -0.587811 -0.808999 0.000000
vn -0.694199 -0.714434 -0.087595
vn -0.592292 -0.738923 -0.321221
vn -0.694199 -0.714434 -0.087595
vn -0.794666 -0.577359 -0.187518
vn -0.749440 -0.544500 -0.376642
vn -0.592292 -0.738923 -0.321221
vn -0.694199 -0.714434 -0.087595
vn -0.587811 -0.808999 0.000000
vn -0.686083 -0.684160 0.247415
vn -0.804705 -0.584583 0.103499
vn -0.686083 -0.684160 0.247415
vn -0.723596 -0.525719 0.447245
vn -0.862693 -0.441083 0.247400
vn -0.804705 -0.584583 0.103499
vn -0.862693 -0.441083 0.247400
vn -0.951076 -0.308957 0.000000
vn -0.893978 -0.439465 -0.087594
vn -0.804705 -0.584583 0.103499
vn -0.893978 -0.439465 -0.087594
vn -0.794666 -0.577359 -0.187518
vn -0.694199 -0.714434 -0.087595
vn -0.804705 -0.584583 0.103499
vn 0.141647 -0.986034 -0.087595
vn 0.000000 -1.000000 0.000000
vn -0.152846 -0.956782 -0.247398
vn 0.044776 -0.945947 -0.321217
vn -0.152846 -0.956782 -0.247398
vn -0.276362 -0.850661 -0.447213
vn -0.025058 -0.863909 -0.503024
vn 0.044776 -0.945947 -0.321217
vn -0.025058 -0.863909 -0.503024
vn 0.262831 -0.809034 -0.525723
vn 0.286207 -0.881024 -0.376674
vn 0.044776 -0.945947 -0.321217
vn 0.286207 -0.881024 -0.376674
vn 0.303540 -0.934183 -0.187526
vn 0.141647 -0.986034 -0.087595
vn 0.044776 -0.945947 -0.321217
vn 0.286207 -0.881024 -0.376674
vn 0.262831 -0.809034 -0.525723
vn 0.528095 -0.684156 -0.503037
vn 0.519705 -0.791660 -0.321218
vn 0.528095 -0.684156 -0.503037
vn 0.723596 -0.525719 -0.447245
vn 0.686083 -0.684160 -0.247415
vn 0.519705 -0.791660 -0.321218
vn 0.686083 -0.684160 -0.247415
vn 0.587811 -0.808999 0.000000
vn 0.464886 -0.881027 -0.087599
vn 0.519705 -0.791660 -0.321218
vn 0.464886 -0.881027 -0.087599
vn 0.303540 -0.934183 -0.187526
vn 0.286207 -0.881024 -0.376674
vn 0.519705 -0.791660 -0.321218
vn 0.464886 -0.881027 -0.087599
vn 0.587811 -0.808999 0.000000
vn 0.438637 -0.863935 0.247415
vn 0.307360 -0.945948 0.103501
vn 0.438637 -0.863935 0.247415
vn 0.276362 -0.850661 0.447213
vn 0.152846 -0.956782 0.247398
vn 0.307360 -0.945948 0.103501
vn 0.152846 -0.956782 0.247398
vn 0.000000 -1.000000 0.000000
vn 0.141647 -0.986034 -0.087595
vn 0.307360 -0.945948 0.103501
vn 0.141647 -0.986034 -0.087595
vn 0.303540 -0.934183 -0.187526
vn 0.464886 -0.881027 -0.087599
vn 0.307360 -0.945948 0.103501
vn 0.981560 -0.169906 -0.087593
vn 0.951076 -0.308957 0.000000
vn 0.862693 -0.441083 -0.247400
vn 0.913530 -0.249594 -0.321195
vn 0.862693 -0.441083 -0.247400
vn 0.723596 -0.525719 -0.447245
vn 0.813883 -0.290828 -0.503004
vn 0.913530 -0.249594 -0.321195
vn 0.813883 -0.290828 -0.503004
vn 0.850676 0.000000 -0.525690
vn 0.926346 0.000000 -0.376673
vn 0.913530 -0.249594 -0.321195
vn 0.926346 0.000000 -0.376673
vn 0.982262 0.000000 -0.187516
vn 0.981560 -0.169906 -0.087593
vn 0.913530 -0.249594 -0.321195
vn 0.926346 0.000000 -0.376673
vn 0.850676 0.000000 -0.525690
vn 0.813883 0.290828 -0.503004
vn 0.913530 0.249594 -0.321195
vn 0.813883 0.290828 -0.503004
vn 0.723596 0.525719 -0.447245
vn 0.862693 0.441083 -0.247400
vn 0.913530 0.249594 -0.321195
vn 0.862693 0.441083 -0.247400
vn 0.951076 0.308957 0.000000
vn 0.981560 0.169906 -0.087593
vn 0.913530 0.249594 -0.321195
vn 0.981560 0.169906 -0.087593
vn 0.982262 0.000000 -0.187516
vn 0.926346 0.000000 -0.376673
vn 0.913530 0.249594 -0.321195
vn 0.981560 0.169906 -0.087593
vn 0.951076 0.308957 0.000000
vn 0.957194 0.150229 0.247410
vn 0.994629 0.000000 0.103501
vn 0.957194 0.150229 0.247410
vn 0.894427 0.000000 0.447213
vn 0.957194 -0.150229 0.247410
vn 0.994629 0.000000 0.103501
vn 0.957194 -0.150229 0.247410
vn 0.951076 -0.308957 0.000000
vn 0.981560 -0.169906 -0.087593
vn 0.994629 0.000000 0.103501
vn 0.981560 -0.169906 -0.087593
vn 0.982262 0.000000 -0.187516
vn 0.981560 0.169906 -0.087593
vn 0.994629 0.000000 0.103501
vn 0.893978 0.439465 0.087594
vn 0.951076 0.308957 0.000000
vn 0.862693 0.441083 -0.247400
vn 0.804705 0.584583 -0.103499
vn 0.862693 0.441083 -0.247400
vn 0.723596 0.525719 -0.447245
vn 0.686083 0.684160 -0.247415
vn 0.804705 0.584583 -0.103499
vn 0.686083 0.684160 -0.247415
vn 0.587811 0.808999 0.000000
vn 0.694199 0.714434 0.087595
vn 0.804705 0.584583 -0.103499
vn 0.694199 0.714434 0.087595
vn 0.794666 0.577359 0.187518
vn 0.893978 0.439465 0.087594
vn 0.804705 0.584583 -0.103499
vn 0.694199 0.714434 0.087595
vn 0.587811 0.808999 0.000000
vn 0.438637 0.863935 0.247415
vn 0.592292 0.738923 0.321221
vn 0.438637 0.863935 0.247415
vn 0.276362 0.850661 0.447213
vn 0.487447 0.713682 0.503044
vn 0.592292 0.738923 0.321221
vn 0.487447 0.713682 0.503044
vn 0.688178 0.500041 0.525710
vn 0.749440 0.544500 0.376642
vn 0.592292 0.738923 0.321221
vn 0.749440 0.544500 0.376642
vn 0.794666 0.577359 0.187518
vn 0.694199 0.714434 0.087595
vn 0.592292 0.738923 0.321221
vn 0.749440 0.544500 0.376642
vn 0.688178 0.500041 0.525710
vn 0.829397 0.243066 0.503010
vn 0.885782 0.334980 0.321215
vn 0.829397 0.243066 0.503010
vn 0.894427 0.000000 0.447213
vn 0.957194 0.150229 0.247410
vn 0.885782 0.334980 0.321215
vn 0.957194 0.150229 0.247410
vn 0.951076 0.308957 0.000000
vn 0.893978 0.439465 0.087594
vn 0.885782 0.334980 0.321215
vn 0.893978 0.439465 0.087594
vn 0.794666 0.577359 0.187518
vn 0.749440 0.544500 0.376642
vn 0.885782 0.334980 0.321215
vn -0.141647 0.986034 0.087595
vn 0.000000 1.000000 0.000000
vn -0.152846 0.956782 -0.247398
vn -0.307360 0.945948 -0.103501
vn -0.152846 0.956782 -0.247398
vn -0.276362 0.850661 -0.447213
vn -0.438637 0.863935 -0.247415
vn -0.307360 0.945948 -0.103501
vn -0.438637 0.863935 -0.247415
vn -0.587811 0.808999 0.000000
vn -0.464886 0.881027 0.087599
vn -0.307360 0.945948 -0.103501
vn -0.464886 0.881027 0.087599
vn -0.303540 0.934183 0.187526
vn -0.141647 0.986034 0.087595
vn -0.307360 0.945948 -0.103501
vn -0.464886 0.881027 0.087599
vn -0.587811 0.808999 0.000000
vn -0.686083 0.684160 0.247415
vn -0.519705 0.791660 0.321218
vn -0.686083 0.684160 0.247415
vn -0.723596 0.525719 0.447245
vn -0.528095 0.684156 0.503037
vn -0.519705 0.791660 0.321218
vn -0.528095 0.684156 0.503037
vn -0.262831 0.809034 0.525723
vn -0.286207 0.881024 0.376674
vn -0.519705 0.791660 0.321218
vn -0.286207 0.881024 0.376674
vn -0.303540 0.934183 0.187526
vn -0.464886 0.881027 0.087599
vn -0.519705 0.791660 0.321218
vn -0.286207 0.881024 0.376674
vn -0.262831 0.809034 0.525723
vn 0.025058 0.863909 0.503024
vn -0.044776 0.945947 0.321217
vn 0.025058 0.863909 0.503024
vn 0.276362 0.850661 0.447213
vn 0.152846 0.956782 0.247398
vn -0.044776 0.945947 0.321217
vn 0.152846 0.956782 0.247398
vn 0.000000 1.000000 0.000000
vn -0.141647 0.986034 0.087595
vn -0.044776 0.945947 0.321217
vn -0.141647 0.986034 0.087595
vn -0.303540 0.934183 0.187526
vn -0.286207 0.881024 0.376674
vn -0.044776 0.945947 0.321217
vn -0.981560 0.169906 0.087593
vn -0.951076 0.308957 0.000000
vn -0.957194 0.150229 -0.247410
vn -0.994629 0.000000 -0.103501
vn -0.957194 0.150229 -0.247410
vn -0.894427 0.000000 -0.447213
vn -0.957194 -0.150229 -0.247410
vn -0.994629 0.000000 -0.103501
vn -0.957194 -0.150229 -0.247410
vn -0.951076 -0.308957 0.000000
vn -0.981560 -0.169906 0.087593
vn -0.994629 0.000000 -0.103501
vn -0.981560 -0.169906 0.087593
vn -0.982262 0.000000 0.187516
vn -0.981560 0.169906 0.087593
vn -0.994629 0.000000 -0.103501
vn -0.981560 -0.169906 0.087593
vn -0.951076 -0.308957 0.000000
vn -0.862693 -0.441083 0.247400
vn -0.913530 -0.249594 0.321195
vn -0.862693 -0.441083 0.247400
vn -0.723596 -0.525719 0.447245
vn -0.813883 -0.290828 0.503004
vn -0.913530 -0.249594 0.321195
vn -0.813883 -0.290828 0.503004
vn -0.850676 0.000000 0.525690
vn -0.926346 0.000000 0.376673
vn -0.913530 -0.249594 0.321195
vn -0.926346 0.000000 0.376673
vn -0.982262 0.000000 0.187516
vn -0.981560 -0.169906 0.087593
vn -0.913530 -0.249594 0.321195
vn -0.926346 0.000000 0.376673
vn -0.850676 0.000000 0.525690
vn -0.813883 0.290828 0.503004
vn -0.913530 0.249594 0.321195
vn -0.813883 0.290828 0.503004
vn -0.723596 0.525719 0.447245
vn -0.862693 0.441083 0.247400
vn -0.913530 0.249594 0.321195
vn -0.862693 0.441083 0.247400
vn -0.951076 0.308957 0.000000
vn -0.981560 0.169906 0.087593
vn -0.913530 0.249594 0.321195
vn -0.981560 0.169906 0.087593
vn -0.982262 0.000000 0.187516
vn -0.926346 0.000000 0.376673
vn -0.913530 0.249594 0.321195
vn -0.464886 -0.881027 0.087599
vn -0.587811 -0.808999 0.000000
vn -0.438637 -0.863935 -0.247415
vn -0.307360 -0.945948 -0.103501
vn -0.438637 -0.863935 -0.247415
vn -0.276362 -0.850661 -0.447213
vn -0.152846 -0.956782 -0.247398
vn -0.307360 -0.945948 -0.103501
vn -0.152846 -0.956782 -0.247398
vn 0.000000 -1.000000 0.000000
vn -0.141647 -0.986034 0.087595
vn -0.307360 -0.945948 -0.103501
vn -0.141647 -0.986034 0.087595
vn -0.303540 -0.934183 0.187526
vn -0.464886 -0.881027 0.087599
vn -0.307360 -0.945948 -0.103501
vn -0.141647 -0.986034 0.087595
vn 0.000000 -1.000000 0.000000
vn 0.152846 -0.956782 0.247398
vn -0.044776 -0.945947 0.321217
vn 0.152846 -0.956782 0.247398
vn 0.276362 -0.850661 0.447213
vn 0.025058 -0.863909 0.503024
vn -0.044776 -0.945947 0.321217
vn 0.025058 -0.863909 0.503024
vn -0.262831 -0.809034 0.525723
vn -0.286207 -0.881024 0.376674
vn -0.044776 -0.945947 0.321217
vn -0.286207 -0.881024 0.376674
vn -0.303540 -0.934183 0.187526
vn -0.141647 -0.986034 0.087595
vn -0.044776 -0.945947 0.321217
vn -0.286207 -0.881024 0.376674
vn -0.262831 -0.809034 0.525723
vn -0.528095 -0.684156 0.503037
vn -0.519705 -0.791660 0.321218
vn -0.528095 -0.684156 0.503037
vn -0.723596 -0.525719 0.447245
vn -0.686083 -0.684160 0.247415
vn -0.519705 -0.791660 0.321218
vn -0.686083 -0.684160 0.247415
vn -0.587811 -0.808999 0.000000
vn -0.464886 -0.881027 0.087599
vn -0.519705 -0.791660 0.321218
vn -0.464886 -0.881027 0.087599
vn -0.303540 -0.934183 0.187526
vn -0.286207 -0.881024 0.376674
vn -0.519705 -0.791660 0.321218
vn 0.694199 -0.714434 0.087595
vn 0.587811 -0.808999 0.000000
vn 0.686083 -0.684160 -0.247415
vn 0.804705 -0.584583 -0.103499
vn 0.686083 -0.684160 -0.247415
vn 0.723596 -0.525719 -0.447245
vn 0.862693 -0.441083 -0.247400
vn 0.804705 -0.584583 -0.103499
vn 0.862693 -0.441083 -0.247400
vn 0.951076 -0.308957 0.000000
vn 0.893978 -0.439465 0.087594
vn 0.804705 -0.584583 -0.103499
vn 0.893978 -0.439465 0.087594
vn 0.794666 -0.577359 0.187518
vn 0.694199 -0.714434 0.087595
vn 0.804705 -0.584583 -0.103499
vn 0.893978 -0.439465 0.087594
vn 0.951076 -0.308957 0.000000
vn 0.957194 -0.150229 0.247410
vn 0.885782 -0.334980 0.321215
vn 0.957194 -0.150229 0.247410
vn 0.894427 0.000000 0.447213
vn 0.829397 -0.243066 0.503010
vn 0.885782 -0.334980 0.321215
vn 0.829397 -0.243066 0.503010
vn 0.688178 -0.500041 0.525710
vn 0.749440 -0.544500 0.376642
vn 0.885782 -0.334980 0.321215
vn 0.749440 -0.544500 0.376642
vn 0.794666 -0.577359 0.187518
vn 0.893978 -0.439465 0.087594
vn 0.885782 -0.334980 0.321215
vn 0.749440 -0.544500 0.376642
vn 0.688178 -0.500041 0.525710
vn 0.487447 -0.713682 0.503044
vn 0.592292 -0.738923 0.321221
vn 0.487447 -0.713682 0.503044
vn 0.276362 -0.850661 0.447213
vn 0.438637 -0.863935 0.247415
vn 0.592292 -0.738923 0.321221
vn 0.438637 -0.863935 0.247415
vn 0.587811 -0.808999 0.000000
vn 0.694199 -0.714434 0.087595
vn 0.592292 -0.738923 0.321221
vn 0.694199 -0.714434 0.087595
vn 0.794666 -0.577359 0.187518
vn 0.749440 -0.544500 0.376642
vn 0.592292 -0.738923 0.321221
vn 0.518375 0.166565 0.838775
vn 0.525690 0.000000 0.850676
vn 0.750408 0.000000 0.660975
vn 0.709651 0.207025 0.673451
vn 0.750408 0.000000 0.660975
vn 0.894427 0.000000 0.447213
vn 0.829397 0.243066 0.503010
vn 0.709651 0.207025 0.673451
vn 0.829397 0.243066 0.503010
vn 0.688178 0.500041 0.525710
vn 0.607693 0.441470 0.660161
vn 0.709651 0.207025 0.673451
vn 0.607693 0.441470 0.660161
vn 0.491142 0.356759 0.794672
vn 0.518375 0.166565 0.838775
vn 0.709651 0.207025 0.673451
vn 0.607693 0.441470 0.660161
vn 0.688178 0.500041 0.525710
vn 0.487447 0.713682 0.503044
vn 0.416147 0.610990 0.673434
vn 0.487447 0.713682 0.503044
vn 0.276362 0.850661 0.447213
vn 0.231911 0.713681 0.660967
vn 0.416147 0.610990 0.673434
vn 0.231911 0.713681 0.660967
vn 0.162457 0.500006 0.850648
vn 0.318607 0.441495 0.838792
vn 0.416147 0.610990 0.673434
vn 0.318607 0.441495 0.838792
vn 0.491142 0.356759 0.794672
vn 0.607693 0.441470 0.660161
vn 0.416147 0.610990 0.673434
vn 0.318607 0.441495 0.838792
vn 0.162457 0.500006 0.850648
vn 0.078896 0.243065 0.966796
vn 0.284951 0.207028 0.935918
vn 0.078896 0.243065 0.966796
vn 0.000000 0.000000 1.000000
vn 0.255577 0.000000 0.966789
vn 0.284951 0.207028 0.935918
vn 0.255577 0.000000 0.966789
vn 0.525690 0.000000 0.850676
vn 0.518375 0.166565 0.838775
vn 0.284951 0.207028 0.935918
vn 0.518375 0.166565 0.838775
vn 0.491142 0.356759 0.794672
vn 0.318607 0.441495 0.838792
vn 0.284951 0.207028 0.935918
vn 0.001648 0.544537 0.838735
vn 0.162457 0.500006 0.850648
vn 0.231911 0.713681 0.660967
vn 0.022372 0.738891 0.673453
vn 0.231911 0.713681 0.660967
vn 0.276362 0.850661 0.447213
vn 0.025058 0.863909 0.503024
vn 0.022372 0.738891 0.673453
vn 0.025058 0.863909 0.503024
vn -0.262831 0.809034 0.525723
vn -0.232045 0.714418 0.660123
vn 0.022372 0.738891 0.673453
vn -0.232045 0.714418 0.660123
vn -0.187518 0.577359 0.794666
vn 0.001648 0.544537 0.838735
vn 0.022372 0.738891 0.673453
vn -0.232045 0.714418 0.660123
vn -0.262831 0.809034 0.525723
vn -0.528095 0.684156 0.503037
vn -0.452430 0.584590 0.673470
vn -0.528095 0.684156 0.503037
vn -0.723596 0.525719 0.447245
vn -0.607127 0.441092 0.660935
vn -0.452430 0.584590 0.673470
vn -0.607127 0.441092 0.660935
vn -0.425334 0.308959 0.850668
vn -0.321407 0.439500 0.838771
vn -0.452430 0.584590 0.673470
vn -0.321407 0.439500 0.838771
vn -0.187518 0.577359 0.794666
vn -0.232045 0.714418 0.660123
vn -0.452430 0.584590 0.673470
vn -0.321407 0.439500 0.838771
vn -0.425334 0.308959 0.850668
vn -0.206716 0.150223 0.966800
vn -0.108840 0.334976 0.935919
vn -0.206716 0.150223 0.966800
vn 0.000000 0.000000 1.000000
vn 0.078896 0.243065 0.966796
vn -0.108840 0.334976 0.935919
vn 0.078896 0.243065 0.966796
vn 0.162457 0.500006 0.850648
vn 0.001648 0.544537 0.838735
vn -0.108840 0.334976 0.935919
vn 0.001648 0.544537 0.838735
vn -0.187518 0.577359 0.794666
vn -0.321407 0.439500 0.838771
vn -0.108840 0.334976 0.935919
vn -0.517345 0.169915 0.838739
vn -0.425334 0.308959 0.850668
vn -0.607127 0.441092 0.660935
vn -0.695805 0.249607 0.673462
vn -0.607127 0.441092 0.660935
vn -0.723596 0.525719 0.447245
vn -0.813883 0.290828 0.503004
vn -0.695805 0.249607 0.673462
vn -0.813883 0.290828 0.503004
vn -0.850676 0.000000 0.525690
vn -0.751161 0.000000 0.660120
vn -0.695805 0.249607 0.673462
vn -0.751161 0.000000 0.660120
vn -0.607052 0.000000 0.794662
vn -0.517345 0.169915 0.838739
vn -0.695805 0.249607 0.673462
vn -0.751161 0.000000 0.660120
vn -0.850676 0.000000 0.525690
vn -0.813883 -0.290828 0.503004
vn -0.695805 -0.249607 0.673462
vn -0.813883 -0.290828 0.503004
vn -0.723596 -0.525719 0.447245
vn -0.607127 -0.441092 0.660935
vn -0.695805 -0.249607 0.673462
vn -0.607127 -0.441092 0.660935
vn -0.425334 -0.308959 0.850668
vn -0.517345 -0.169915 0.838739
vn -0.695805 -0.249607 0.673462
vn -0.517345 -0.169915 0.838739
vn -0.607052 0.000000 0.794662
vn -0.751161 0.000000 0.660120
vn -0.695805 -0.249607 0.673462
vn -0.517345 -0.169915 0.838739
vn -0.425334 -0.308959 0.850668
vn -0.206716 -0.150223 0.966800
vn -0.352220 0.000000 0.935917
vn -0.206716 -0.150223 0.966800
vn 0.000000 0.000000 1.000000
vn -0.206716 0.150223 0.966800
vn -0.352220 0.000000 0.935917
vn -0.206716 0.150223 0.966800
vn -0.425334 0.308959 0.850668
vn -0.517345 0.169915 0.838739
vn -0.352220 0.000000 0.935917
vn -0.517345 0.169915 0.838739
vn -0.607052 0.000000 0.794662
vn -0.517345 -0.169915 0.838739
vn -0.352220 0.000000 0.935917
vn -0.321407 -0.439500 0.838771
vn -0.425334 -0.308959 0.850668
vn -0.607127 -0.441092 0.660935
vn -0.452430 -0.584590 0.673470
vn -0.607127 -0.441092 0.660935
vn -0.723596 -0.525719 0.447245
vn -0.528095 -0.684156 0.503037
vn -0.452430 -0.584590 0.673470
vn -0.528095 -0.684156 0.503037
vn -0.262831 -0.809034 0.525723
vn -0.232045 -0.714418 0.660123
vn -0.452430 -0.584590 0.673470
vn -0.232045 -0.714418 0.660123
vn -0.187518 -0.577359 0.794666
vn -0.321407 -0.439500 0.838771
vn -0.452430 -0.584590 0.673470
vn -0.232045 -0.714418 0.660123
vn -0.262831 -0.809034 0.525723
vn 0.025058 -0.863909 0.503024
vn 0.022372 -0.738891 0.673453
vn 0.025058 -0.863909 0.503024
vn 0.276362 -0.850661 0.447213
vn 0.231911 -0.713681 0.660967
vn 0.022372 -0.738891 0.673453
vn 0.231911 -0.713681 0.660967
vn 0.162457 -0.500006 0.850648
vn 0.001648 -0.544516 0.838749
vn 0.022372 -0.738891 0.673453
vn 0.001648 -0.544516 0.838749
vn -0.187518 -0.577359 0.794666
vn -0.232045 -0.714418 0.660123
vn 0.022372 -0.738891 0.673453
vn 0.001648 -0.544516 0.838749
vn 0.162457 -0.500006 0.850648
vn 0.078896 -0.243065 0.966796
vn -0.108840 -0.334976 0.935919
vn 0.078896 -0.243065 0.966796
vn 0.000000 0.000000 1.000000
vn -0.206716 -0.150223 0.966800
vn -0.108840 -0.334976 0.935919
vn -0.206716 -0.150223 0.966800
vn -0.425334 -0.308959 0.850668
vn -0.321407 -0.439500 0.838771
vn -0.108840 -0.334976 0.935919
vn -0.321407 -0.439500 0.838771
vn -0.187518 -0.577359 0.794666
vn 0.001648 -0.544516 0.838749
vn -0.108840 -0.334976 0.935919
vn 0.318607 -0.441495 0.838792
vn 0.162457 -0.500006 0.850648
vn 0.231911 -0.713681 0.660967
vn 0.416147 -0.610990 0.673434
vn 0.231911 -0.713681 0.660967
vn 0.276362 -0.850661 0.447213
vn 0.487447 -0.713682 0.503044
vn 0.416147 -0.610990 0.673434
vn 0.487447 -0.713682 0.503044
vn 0.688178 -0.500041 0.525710
vn 0.607693 -0.441470 0.660161
vn 0.416147 -0.610990 0.673434
vn 0.607693 -0.441470 0.660161
vn 0.491142 -0.356759 0.794672
vn 0.318607 -0.441495 0.838792
vn 0.416147 -0.610990 0.673434
vn 0.607693 -0.441470 0.660161
vn 0.688178 -0.500041 0.525710
vn 0.829397 -0.243066 0.503010
vn 0.709651 -0.207025 0.673451
vn 0.829397 -0.243066 0.503010
vn 0.894427 0.000000 0.447213
vn 0.750408 0.000000 0.660975
vn 0.709651 -0.207025 0.673451
vn 0.750408 0.000000 0.660975
vn 0.525690 0.000000 0.850676
vn 0.518375 -0.166565 0.838775
vn 0.709651 -0.207025 0.673451
vn 0.518375 -0.166565 0.838775
vn 0.491142 -0.356759 0.794672
vn 0.607693 -0.441470 0.660161
vn 0.709651 -0.207025 0.673451
vn 0.518375 -0.166565 0.838775
vn 0.525690 0.000000 0.850676
vn 0.255577 0.000000 0.966789
vn 0.284951 -0.207028 0.935918
vn 0.255577 0.000000 0.966789
vn 0.000000 0.000000 1.000000
vn 0.078896 -0.243065 0.966796
vn 0.284951 -0.207028 0.935918
vn 0.078896 -0.243065 0.966796
vn 0.162457 -0.500006 0.850648
vn 0.318607 -0.441495 0.838792
vn 0.284951 -0.207028 0.935918
vn 0.318607 -0.441495 0.838792
vn 0.491142 -0.356759 0.794672
vn 0.518375 -0.166565 0.838775
vn 0.284951 -0.207028 0.935918
s off
g Monolith Ball_Monolith:Ball
usemtl Maya_Lambert7SG
f 222/273/693 171/274/694 219/275/695 223/276/696
f 219/275/697 157/277/698 220/278/699 223/276/700
f 220/278/701 169/279/702 221/280/703 223/276/704
f 221/280/705 172/281/706 222/273/707 223/276/708
f 221/280/709 169/279/710 224/282/711 227/283/712
f 224/282/713 159/284/714 225/285/715 227/283/716
f 225/285/717 170/286/718 226/287/719 227/283/720
f 226/287/721 172/281/722 221/280/723 227/283/724
f 226/288/725 170/289/726 228/290/727 230/291/728
f 228/290/729 158/292/730 229/293/731 230/291/732
f 229/293/733 171/294/734 222/295/735 230/291/736
f 222/295/737 172/296/738 226/288/739 230/291/740
f 233/297/741 169/279/742 220/278/743 234/298/744
f 220/278/745 157/277/746 231/299/747 234/298/748
f 231/299/749 173/300/750 232/301/751 234/298/752
f 232/301/753 175/302/754 233/297/755 234/298/756
f 232/301/757 173/300/758 235/303/759 238/304/760
f 235/303/761 160/305/762 236/306/763 238/304/764
f 236/306/765 174/307/766 237/308/767 238/304/768
f 237/308/769 175/302/770 232/301/771 238/304/772
f 237/308/773 174/307/774 239/309/775 240/310/776
f 239/309/777 159/284/778 224/282/779 240/310/780
f 224/282/781 169/279/782 233/297/783 240/310/784
f 233/297/785 175/302/786 237/308/787 240/310/788
f 243/311/789 173/300/790 231/299/791 244/312/792
f 231/299/793 157/277/794 241/313/795 244/312/796
f 241/313/797 176/314/798 242/315/799 244/312/800
f 242/315/801 178/316/802 243/311/803 244/312/804
f 242/317/805 176/318/806 245/319/807 248/320/808
f 245/319/809 161/321/810 246/322/811 248/320/812
f 246/322/813 177/323/814 247/324/815 248/320/816
f 247/324/817 178/316/818 242/317/819 248/320/820
f 247/324/821 177/323/822 249/325/823 250/326/824
f 249/325/825 160/305/826 235/303/827 250/326/828
f 235/303/829 173/300/830 243/311/831 250/326/832
f 243/311/833 178/316/834 247/324/835 250/326/836
f 253/327/837 176/314/838 241/313/839 254/328/840
f 241/313/841 157/277/842 251/329/843 254/328/844
f 251/329/845 179/330/846 252/331/847 254/328/848
f 252/331/849 181/332/850 253/327/851 254/328/852
f 252/333/853 179/334/854 255/335/855 258/336/856
f 255/335/857 162/337/858 256/338/859 258/336/860
f 256/338/861 180/339/862 257/340/863 258/336/864
f 257/340/865 181/341/866 252/333/867 258/336/868
f 257/340/869 180/339/870 259/342/871 260/343/872
f 259/342/873 161/321/874 245/319/875 260/343/876
f 245/319/877 176/318/878 253/344/879 260/343/880
f 253/344/881 181/341/882 257/340/883 260/343/884
f 262/345/885 179/330/886 251/329/887 263/346/888
f 251/329/889 157/277/890 219/275/891 263/346/892
f 219/275/893 171/274/894 261/347/895 263/346/896
f 261/347/897 183/348/898 262/345/899 263/346/900
f 261/349/901 171/294/902 229/293/903 266/350/904
f 229/293/905 158/292/906 264/351/907 266/350/908
f 264/351/909 182/352/910 265/353/911 266/350/912
f 265/353/913 183/354/914 261/349/915 266/350/916
f 265/353/917 182/352/918 267/355/919 268/356/920
f 267/355/921 162/337/922 255/335/923 268/356/924
f 255/335/925 179/334/926 262/357/927 268/356/928
f 262/357/929 183/354/930 265/353/931 268/356/932
f 271/358/933 185/359/934 269/360/935 272/361/936
f 269/360/937 158/292/938 228/290/939 272/361/940
f 228/290/941 170/289/942 270/362/943 272/361/944
f 270/362/945 186/363/946 271/358/947 272/361/948
f 270/364/949 170/286/950 225/285/951 275/365/952
f 225/285/953 159/284/954 273/366/955 275/365/956
f 273/366/957 184/367/958 274/368/959 275/365/960
f 274/368/961 186/369/962 270/364/963 275/365/964
f 274/368/965 184/367/966 276/370/967 278/371/968
f 276/370/969 164/372/970 277/373/971 278/371/972
f 277/373/973 185/374/974 271/375/975 278/371/976
f 271/375/977 186/369/978 274/368/979 278/371/980
f 281/376/981 188/377/982 279/378/983 282/379/984
f 279/378/985 159/284/986 239/309/987 282/379/988
f 239/309/989 174/307/990 280/380/991 282/379/992
f 280/380/993 189/381/994 281/376/995 282/379/996
f 280/380/997 174/307/998 236/306/999 285/382/1000
f 236/306/1001 160/305/1002 283/383/1003 285/382/1004
f 283/383/1005 187/384/1006 284/385/1007 285/382/1008
f 284/385/1009 189/381/1010 280/380/1011 285/382/1012
f 284/385/1013 187/384/1014 286/386/1015 288/387/1016
f 286/386/1017 165/388/1018 287/389/1019 288/387/1020
f 287/389/1021 188/377/1022 281/376/1023 288/387/1024
f 281/376/1025 189/381/1026 284/385/1027 288/387/1028
f 291/390/1029 191/391/1030 289/392/1031 292/393/1032
f 289/392/1033 160/305/1034 249/325/1035 292/393/1036
f 249/325/1037 177/323/1038 290/394/1039 292/393/1040
f 290/394/1041 192/395/1042 291/390/1043 292/393/1044
f 290/394/1045 177/323/1046 246/322/1047 295/396/1048
f 246/322/1049 161/321/1050 293/397/1051 295/396/1052
f 293/397/1053 190/398/1054 294/399/1055 295/396/1056
f 294/399/1057 192/395/1058 290/394/1059 295/396/1060
f 294/400/1061 190/401/1062 296/402/1063 298/403/1064
f 296/402/1065 166/404/1066 297/405/1067 298/403/1068
f 297/405/1069 191/391/1070 291/390/1071 298/403/1072
f 291/390/1073 192/395/1074 294/400/1075 298/403/1076
f 301/406/1077 194/407/1078 299/408/1079 302/409/1080
f 299/408/1081 161/321/1082 259/342/1083 302/409/1084
f 259/342/1085 180/339/1086 300/410/1087 302/409/1088
f 300/410/1089 195/411/1090 301/406/1091 302/409/1092
f 300/410/1093 180/339/1094 256/338/1095 305/412/1096
f 256/338/1097 162/337/1098 303/413/1099 305/412/1100
f 303/413/1101 193/414/1102 304/415/1103 305/412/1104
f 304/415/1105 195/411/1106 300/410/1107 305/412/1108
f 304/415/1109 193/414/1110 306/416/1111 308/417/1112
f 306/416/1113 167/418/1114 307/419/1115 308/417/1116
f 307/419/1117 194/407/1118 301/406/1119 308/417/1120
f 301/406/1121 195/411/1122 304/415/1123 308/417/1124
f 311/420/1125 197/421/1126 309/422/1127 312/423/1128
f 309/422/1129 162/337/1130 267/355/1131 312/423/1132
f 267/355/1133 182/352/1134 310/424/1135 312/423/1136
f 310/424/1137 198/425/1138 311/420/1139 312/423/1140
f 310/424/1141 182/352/1142 264/351/1143 315/426/1144
f 264/351/1145 158/292/1146 313/427/1147 315/426/1148
f 313/427/1149 196/428/1150 314/429/1151 315/426/1152
f 314/429/1153 198/425/1154 310/424/1155 315/426/1156
f 314/429/1157 196/428/1158 316/430/1159 318/431/1160
f 316/430/1161 163/432/1162 317/433/1163 318/431/1164
f 317/433/1165 197/421/1166 311/420/1167 318/431/1168
f 311/420/1169 198/425/1170 314/429/1171 318/431/1172
f 320/434/1173 196/428/1174 313/427/1175 321/435/1176
f 313/427/1177 158/292/1178 269/360/1179 321/435/1180
f 269/360/1181 185/359/1182 319/436/1183 321/435/1184
f 319/436/1185 200/437/1186 320/434/1187 321/435/1188
f 319/438/1189 185/374/1190 277/373/1191 324/439/1192
f 277/373/1193 164/372/1194 322/440/1195 324/439/1196
f 322/440/1197 199/441/1198 323/442/1199 324/439/1200
f 323/442/1201 200/443/1202 319/438/1203 324/439/1204
f 323/444/1205 199/445/1206 325/446/1207 326/447/1208
f 325/446/1209 163/432/1210 316/430/1211 326/447/1212
f 316/430/1213 196/428/1214 320/434/1215 326/447/1216
f 320/434/1217 200/437/1218 323/444/1219 326/447/1220
f 328/448/1221 184/367/1222 273/366/1223 329/449/1224
f 273/366/1225 159/284/1226 279/378/1227 329/449/1228
f 279/378/1229 188/377/1230 327/450/1231 329/449/1232
f 327/450/1233 202/451/1234 328/448/1235 329/449/1236
f 327/450/1237 188/377/1238 287/389/1239 332/452/1240
f 287/389/1241 165/388/1242 330/453/1243 332/452/1244
f 330/453/1245 201/454/1246 331/455/1247 332/452/1248
f 331/455/1249 202/451/1250 327/450/1251 332/452/1252
f 331/455/1253 201/454/1254 333/456/1255 334/457/1256
f 333/456/1257 164/372/1258 276/370/1259 334/457/1260
f 276/370/1261 184/367/1262 328/448/1263 334/457/1264
f 328/448/1265 202/451/1266 331/455/1267 334/457/1268
f 336/458/1269 187/384/1270 283/383/1271 337/459/1272
f 283/383/1273 160/305/1274 289/392/1275 337/459/1276
f 289/392/1277 191/391/1278 335/460/1279 337/459/1280
f 335/460/1281 204/461/1282 336/458/1283 337/459/1284
f 335/460/1285 191/391/1286 297/405/1287 340/462/1288
f 297/405/1289 166/404/1290 338/463/1291 340/462/1292
f 338/463/1293 203/464/1294 339/465/1295 340/462/1296
f 339/465/1297 204/461/1298 335/460/1299 340/462/1300
f 339/465/1301 203/464/1302 341/466/1303 342/467/1304
f 341/466/1305 165/388/1306 286/386/1307 342/467/1308
f 286/386/1309 187/384/1310 336/458/1311 342/467/1312
f 336/458/1313 204/461/1314 339/465/1315 342/467/1316
f 344/468/1317 190/398/1318 293/397/1319 345/469/1320
f 293/397/1321 161/321/1322 299/408/1323 345/469/1324
f 299/408/1325 194/407/1326 343/470/1327 345/469/1328
f 343/470/1329 206/471/1330 344/468/1331 345/469/1332
f 343/470/1333 194/407/1334 307/419/1335 348/472/1336
f 307/419/1337 167/418/1338 346/473/1339 348/472/1340
f 346/473/1341 205/474/1342 347/475/1343 348/472/1344
f 347/475/1345 206/471/1346 343/470/1347 348/472/1348
f 347/476/1349 205/477/1350 349/478/1351 350/479/1352
f 349/478/1353 166/404/1354 296/402/1355 350/479/1356
f 296/402/1357 190/401/1358 344/480/1359 350/479/1360
f 344/480/1361 206/481/1362 347/476/1363 350/479/1364
f 352/482/1365 193/414/1366 303/413/1367 353/483/1368
f 303/413/1369 162/337/1370 309/422/1371 353/483/1372
f 309/422/1373 197/421/1374 351/484/1375 353/483/1376
f 351/484/1377 208/485/1378 352/482/1379 353/483/1380
f 351/484/1381 197/421/1382 317/433/1383 356/486/1384
f 317/433/1385 163/432/1386 354/487/1387 356/486/1388
f 354/487/1389 207/488/1390 355/489/1391 356/486/1392
f 355/489/1393 208/485/1394 351/484/1395 356/486/1396
f 355/489/1397 207/488/1398 357/490/1399 358/491/1400
f 357/490/1401 167/418/1402 306/416/1403 358/491/1404
f 306/416/1405 193/414/1406 352/482/1407 358/491/1408
f 352/482/1409 208/485/1410 355/489/1411 358/491/1412
f 361/492/1413 210/493/1414 359/494/1415 362/495/1416
f 359/494/1417 163/432/1418 325/446/1419 362/495/1420
f 325/446/1421 199/445/1422 360/496/1423 362/495/1424
f 360/496/1425 211/497/1426 361/492/1427 362/495/1428
f 360/498/1429 199/441/1430 322/440/1431 365/499/1432
f 322/440/1433 164/372/1434 363/500/1435 365/499/1436
f 363/500/1437 209/501/1438 364/502/1439 365/499/1440
f 364/502/1441 211/503/1442 360/498/1443 365/499/1444
f 364/504/1445 209/505/1446 366/506/1447 368/507/1448
f 366/506/1449 168/508/1450 367/509/1451 368/507/1452
f 367/509/1453 210/493/1454 361/492/1455 368/507/1456
f 361/492/1457 211/497/1458 364/504/1459 368/507/1460
f 370/510/1461 209/501/1462 363/500/1463 371/511/1464
f 363/500/1465 164/372/1466 333/456/1467 371/511/1468
f 333/456/1469 201/454/1470 369/512/1471 371/511/1472
f 369/512/1473 213/513/1474 370/510/1475 371/511/1476
f 369/512/1477 201/454/1478 330/453/1479 374/514/1480
f 330/453/1481 165/388/1482 372/515/1483 374/514/1484
f 372/515/1485 212/516/1486 373/517/1487 374/514/1488
f 373/517/1489 213/513/1490 369/512/1491 374/514/1492
f 373/518/1493 212/519/1494 375/520/1495 376/521/1496
f 375/520/1497 168/508/1498 366/506/1499 376/521/1500
f 366/506/1501 209/505/1502 370/522/1503 376/521/1504
f 370/522/1505 213/523/1506 373/518/1507 376/521/1508
f 378/524/1509 212/516/1510 372/515/1511 379/525/1512
f 372/515/1513 165/388/1514 341/466/1515 379/525/1516
f 341/466/1517 203/464/1518 377/526/1519 379/525/1520
f 377/526/1521 215/527/1522 378/524/1523 379/525/1524
f 377/526/1525 203/464/1526 338/463/1527 382/528/1528
f 338/463/1529 166/404/1530 380/529/1531 382/528/1532
f 380/529/1533 214/530/1534 381/531/1535 382/528/1536
f 381/531/1537 215/527/1538 377/526/1539 382/528/1540
f 381/532/1541 214/533/1542 383/534/1543 384/535/1544
f 383/534/1545 168/508/1546 375/520/1547 384/535/1548
f 375/520/1549 212/519/1550 378/536/1551 384/535/1552
f 378/536/1553 215/537/1554 381/532/1555 384/535/1556
f 386/538/1557 214/530/1558 380/529/1559 387/539/1560
f 380/529/1561 166/404/1562 349/478/1563 387/539/1564
f 349/478/1565 205/477/1566 385/540/1567 387/539/1568
f 385/540/1569 217/541/1570 386/538/1571 387/539/1572
f 385/542/1573 205/474/1574 346/473/1575 390/543/1576
f 346/473/1577 167/418/1578 388/544/1579 390/543/1580
f 388/544/1581 216/545/1582 389/546/1583 390/543/1584
f 389/546/1585 217/547/1586 385/542/1587 390/543/1588
f 389/546/1589 216/545/1590 391/548/1591 392/549/1592
f 391/548/1593 168/508/1594 383/534/1595 392/549/1596
f 383/534/1597 214/533/1598 386/550/1599 392/549/1600
f 386/550/1601 217/547/1602 389/546/1603 392/549/1604
f 394/551/1605 216/545/1606 388/544/1607 395/552/1608
f 388/544/1609 167/418/1610 357/490/1611 395/552/1612
f 357/490/1613 207/488/1614 393/553/1615 395/552/1616
f 393/553/1617 218/554/1618 394/551/1619 395/552/1620
f 393/553/1621 207/488/1622 354/487/1623 397/555/1624
f 354/487/1625 163/432/1626 359/494/1627 397/555/1628
f 359/494/1629 210/493/1630 396/556/1631 397/555/1632
f 396/556/1633 218/554/1634 393/553/1635 397/555/1636
f 396/556/1637 210/493/1638 367/509/1639 398/557/1640
f 367/509/1641 168/508/1642 391/548/1643 398/557/1644
f 391/548/1645 216/545/1646 394/551/1647 398/557/1648
f 394/551/1649 218/554/1650 396/556/1651 398/557/1652
