#  
#  
#  Created in TopoGun 3
#  www.topogun.com
#  

v -0.579905 0.256865 0.669378
v 0.579905 0.256865 0.669378
v -0.590623 0.286427 0.632110
v 0.590560 0.286382 0.632075
v -0.641179 0.304132 0.390459
v 0.639877 0.303649 0.390596
v -0.666710 0.276701 0.187720
v 0.666923 0.276716 0.187732
v -0.678006 0.230443 0.031163
v 0.677782 0.230398 0.031153
v -0.674175 0.174675 -0.088044
v 0.674053 0.174677 -0.088040
v -0.652210 0.095473 -0.236412
v 0.652118 0.095459 -0.236380
v -0.610910 0.016844 -0.360912
v 0.610827 0.016773 -0.360853
v -0.574650 -0.039640 -0.437029
v 0.574650 -0.039640 -0.437029
v -0.536430 -0.095371 -0.488592
v 0.536430 -0.095371 -0.488592
v -0.457520 -0.158452 -0.561663
v 0.457458 -0.158429 -0.561613
v -0.350945 -0.211155 -0.610959
v 0.350945 -0.211155 -0.610959
v -0.283614 -0.234028 -0.623592
v 0.283620 -0.234036 -0.623646
v -0.150664 -0.269280 -0.621997
v 0.150664 -0.269280 -0.621997
v -0.217581 -0.254550 -0.624995
v 0.217581 -0.254550 -0.624995
v -0.416534 -0.182439 -0.584859
v 0.416534 -0.182439 -0.584859
v -0.501710 -0.129349 -0.528518
v 0.501710 -0.129349 -0.528518
v -0.606208 0.301279 0.573316
v 0.606208 0.301279 0.573316
v -0.654727 0.294512 0.283908
v 0.654727 0.294512 0.283908
v -0.587348 0.223414 0.639429
v 0.587348 0.223414 0.639429
v -0.596099 0.192421 0.597648
v 0.596002 0.192494 0.597600
v -0.612058 0.152643 0.523776
v 0.612058 0.152643 0.523776
v -0.599694 0.256838 0.601289
v 0.599614 0.256839 0.601267
v -0.611627 0.252337 0.556112
v 0.611627 0.252337 0.556112
v -0.638855 0.229721 0.398450
v 0.638855 0.229721 0.398450
v -0.650699 0.219680 0.293055
v 0.650699 0.219680 0.293055
v -0.660124 0.198247 0.178502
v 0.660124 0.198247 0.178502
v -0.666206 0.163410 0.067225
v 0.666206 0.163410 0.067225
v -0.664116 0.120000 -0.058108
v 0.664048 0.120014 -0.058108
v -0.638278 0.034261 -0.197913
v 0.638278 0.034261 -0.197913
v -0.599449 -0.038212 -0.307492
v 0.599350 -0.038175 -0.307476
v -0.565099 -0.091705 -0.381276
v 0.565004 -0.091664 -0.381257
v -0.533259 -0.134896 -0.431134
v 0.533259 -0.134896 -0.431134
v -0.484225 -0.180311 -0.484665
v 0.484225 -0.180311 -0.484665
v -0.443477 -0.208527 -0.512370
v 0.443477 -0.208527 -0.512370
v -0.386889 -0.238862 -0.539974
v 0.386889 -0.238862 -0.539974
v -0.329025 -0.262254 -0.561933
v 0.329025 -0.262254 -0.561933
v -0.273926 -0.284631 -0.570705
v 0.273926 -0.284631 -0.570705
v -0.210316 -0.298897 -0.572254
v 0.210316 -0.298897 -0.572254
v -0.508219 -0.160836 -0.461396
v 0.508219 -0.160836 -0.461396
v -0.625808 0.235997 0.482909
v 0.625808 0.235997 0.482909
v -0.624278 0.302916 0.491559
v 0.624278 0.302916 0.491559
v -0.623084 0.114189 0.450600
v 0.623031 0.114202 0.450586
v -0.629804 0.066624 0.359206
v 0.629804 0.066624 0.359206
v -0.630421 0.015127 0.273023
v 0.630421 0.015127 0.273023
v -0.628124 -0.044632 0.172039
v 0.627932 -0.044582 0.172006
v -0.618284 -0.110987 0.054439
v 0.618132 -0.110934 0.054423
v -0.591326 -0.181121 -0.074887
v 0.591326 -0.181121 -0.074887
v -0.552623 -0.237993 -0.182697
v 0.552548 -0.237947 -0.182682
v -0.520443 -0.271707 -0.241730
v 0.520443 -0.271707 -0.241730
v -0.488316 -0.296849 -0.282803
v 0.488316 -0.296849 -0.282803
v -0.458516 -0.317889 -0.312761
v 0.458516 -0.317889 -0.312761
v -0.431694 -0.332455 -0.338046
v 0.431694 -0.332455 -0.338046
v -0.397867 -0.349888 -0.361276
v 0.397867 -0.349888 -0.361276
v -0.369935 -0.358069 -0.385384
v 0.369935 -0.358069 -0.385384
v -0.338998 -0.368357 -0.403605
v 0.338998 -0.368357 -0.403605
v -0.323521 -0.370981 -0.414327
v 0.323521 -0.370981 -0.414327
v -0.264904 -0.333415 -0.502056
v 0.264918 -0.333308 -0.502023
v -0.294691 -0.330987 -0.492102
v 0.294654 -0.330914 -0.492049
v -0.333265 -0.317827 -0.477112
v 0.333213 -0.317753 -0.477059
v -0.375731 -0.301726 -0.455062
v 0.375676 -0.301657 -0.455015
v -0.416648 -0.282805 -0.430159
v 0.416620 -0.282776 -0.430140
v -0.305963 -0.368988 -0.421959
v 0.305963 -0.368988 -0.421959
v -0.452508 -0.263420 -0.402665
v 0.452438 -0.263357 -0.402627
v -0.480878 -0.243254 -0.378907
v 0.480793 -0.243190 -0.378869
v -0.505849 -0.221541 -0.354567
v 0.505752 -0.221480 -0.354532
v -0.545567 -0.183774 -0.293240
v 0.545469 -0.183732 -0.293215
v -0.581218 -0.133114 -0.217540
v 0.581119 -0.133080 -0.217522
v -0.610719 -0.080864 -0.127659
v 0.610604 -0.080832 -0.127646
v -0.637809 -0.006116 0.011474
v 0.637696 -0.006093 0.011476
v -0.644842 0.052154 0.126061
v 0.644810 0.052159 0.126059
v -0.643930 0.090459 0.227726
v 0.643912 0.090461 0.227725
v -0.640241 0.134295 0.330065
v 0.640187 0.134300 0.330060
v -0.631036 0.163007 0.427617
v 0.630985 0.163010 0.427610
v -0.623527 0.179356 0.480037
v 0.623470 0.179359 0.480027
v -0.616401 0.198293 0.525357
v 0.616401 0.198293 0.525357
v -0.605083 0.218781 0.578035
v 0.605083 0.218781 0.578035
v -0.594298 0.239906 0.621202
v 0.594212 0.239907 0.621180
v -0.585084 0.272402 0.652398
v 0.585084 0.272402 0.652398
v -0.575516 0.257112 0.670093
v 0.575493 0.257109 0.670094
v -0.587062 0.289600 0.632600
v 0.587036 0.289593 0.632593
v -0.638066 0.307796 0.389869
v 0.636921 0.307403 0.390053
v -0.665890 0.281379 0.186548
v 0.665922 0.281301 0.186542
v -0.676905 0.234877 0.029460
v 0.676822 0.234911 0.029448
v -0.671448 0.178035 -0.089484
v 0.671294 0.178049 -0.089482
v -0.650133 0.099324 -0.238155
v 0.650042 0.099312 -0.238125
v -0.607676 0.020453 -0.362088
v 0.607500 0.020361 -0.361976
v -0.570699 -0.036431 -0.437554
v 0.570639 -0.036436 -0.437517
v -0.535066 -0.091526 -0.491206
v 0.535175 -0.091533 -0.491282
v -0.454766 -0.154462 -0.561297
v 0.454717 -0.154443 -0.561259
v -0.349455 -0.206686 -0.611809
v 0.349516 -0.206771 -0.611894
v -0.282108 -0.229505 -0.623421
v 0.282115 -0.229505 -0.623523
v -0.147761 -0.266390 -0.620352
v 0.147848 -0.266239 -0.620201
v -0.216357 -0.249950 -0.625892
v 0.216356 -0.249858 -0.625929
v -0.414509 -0.178333 -0.585007
v 0.414577 -0.178349 -0.585122
v -0.500026 -0.125125 -0.530362
v 0.499808 -0.125022 -0.530256
v -0.602701 0.304622 0.572906
v 0.602614 0.304607 0.572882
v -0.651154 0.297745 0.283010
v 0.651148 0.297744 0.283006
v -0.583462 0.220958 0.640756
v 0.583351 0.220941 0.640731
v -0.591925 0.189993 0.598292
v 0.591904 0.190027 0.598296
v -0.608863 0.149183 0.525029
v 0.608723 0.149308 0.524940
v -0.206630 -0.299759 -0.569104
v 0.206733 -0.299594 -0.569204
v -0.621204 0.306588 0.491022
v 0.621145 0.306577 0.491024
v -0.620722 0.110316 0.452359
v 0.620220 0.110613 0.452142
v -0.627800 0.062712 0.361309
v 0.627595 0.062778 0.361260
v -0.628114 0.011451 0.275227
v 0.627915 0.011441 0.275220
v -0.626091 -0.048411 0.174335
v 0.625672 -0.048230 0.174221
v -0.615898 -0.114513 0.056738
v 0.615552 -0.114305 0.056656
v -0.589646 -0.184943 -0.072364
v 0.589172 -0.184706 -0.072358
v -0.550660 -0.241485 -0.179894
v 0.550327 -0.241254 -0.179862
v -0.518507 -0.274842 -0.238605
v 0.518391 -0.274788 -0.238559
v -0.486114 -0.299344 -0.279224
v 0.485999 -0.299240 -0.279192
v -0.456362 -0.320171 -0.309093
v 0.456195 -0.320173 -0.308949
v -0.429837 -0.334782 -0.334216
v 0.429729 -0.334704 -0.334162
v -0.395648 -0.351778 -0.357440
v 0.395816 -0.352143 -0.357450
v -0.368014 -0.360496 -0.381649
v 0.368037 -0.360592 -0.381642
v -0.336864 -0.369723 -0.399718
v 0.336840 -0.369726 -0.399695
v -0.321416 -0.371955 -0.410483
v 0.321320 -0.372086 -0.410374
v -0.260757 -0.333472 -0.499453
v 0.260771 -0.333368 -0.499421
v -0.303417 -0.366795 -0.418352
v 0.303537 -0.370683 -0.419696
v -0.581462 0.274997 0.653406
v 0.581385 0.275022 0.653394
v -0.563641 0.257547 0.666006
v 0.563615 0.257545 0.666014
v -0.575018 0.289633 0.629439
v 0.575002 0.289607 0.629420
v -0.626056 0.310026 0.388045
v 0.624799 0.309147 0.388275
v -0.655322 0.286188 0.184255
v 0.655348 0.286175 0.184247
v -0.665334 0.239053 0.027732
v 0.665250 0.239053 0.027732
v -0.659525 0.181276 -0.089984
v 0.659352 0.181275 -0.089987
v -0.638444 0.103816 -0.237979
v 0.638359 0.103807 -0.237952
v -0.596325 0.025356 -0.360801
v 0.596236 0.025356 -0.360790
v -0.559620 -0.030962 -0.436050
v 0.559558 -0.030976 -0.436025
v -0.524946 -0.084377 -0.490064
v 0.525232 -0.084209 -0.490414
v -0.446622 -0.146439 -0.556378
v 0.446547 -0.146452 -0.556343
v -0.344162 -0.198356 -0.604539
v 0.344223 -0.198397 -0.604655
v -0.278713 -0.221886 -0.614489
v 0.278739 -0.221895 -0.614605
v -0.146427 -0.257151 -0.612145
v 0.146556 -0.257027 -0.611976
v -0.214200 -0.241324 -0.617915
v 0.214228 -0.241248 -0.617935
v -0.407467 -0.170092 -0.579270
v 0.407531 -0.170194 -0.579324
v -0.491212 -0.116696 -0.527877
v 0.490984 -0.116627 -0.527700
v -0.590616 0.304954 0.569994
v 0.590547 0.304937 0.569975
v -0.638994 0.299892 0.281046
v 0.638991 0.299894 0.280996
v -0.571376 0.221057 0.637869
v 0.571258 0.221042 0.637843
v -0.579818 0.190711 0.595255
v 0.579765 0.190722 0.595254
v -0.597102 0.147383 0.523689
v 0.597048 0.147381 0.523723
v -0.201841 -0.292979 -0.560773
v 0.201981 -0.292808 -0.560895
v -0.609235 0.308448 0.488725
v 0.609175 0.308443 0.488785
v -0.609573 0.106204 0.453189
v 0.609442 0.106196 0.453165
v -0.617683 0.057231 0.363961
v 0.617578 0.057210 0.363952
v -0.616776 0.008176 0.277243
v 0.616653 0.008174 0.277258
v -0.614774 -0.051505 0.176746
v 0.614603 -0.051510 0.176731
v -0.604235 -0.115694 0.059094
v 0.604101 -0.115701 0.059087
v -0.578901 -0.187150 -0.068157
v 0.578742 -0.187133 -0.068138
v -0.540099 -0.242349 -0.174656
v 0.540002 -0.242382 -0.174624
v -0.508422 -0.273639 -0.232607
v 0.508310 -0.273669 -0.232560
v -0.476246 -0.295328 -0.273005
v 0.476031 -0.295310 -0.272820
v -0.447160 -0.315824 -0.302440
v 0.446904 -0.315741 -0.302259
v -0.421581 -0.330340 -0.326834
v 0.421546 -0.330713 -0.326684
v -0.387464 -0.345533 -0.350314
v 0.387633 -0.345843 -0.350245
v -0.360776 -0.355797 -0.373569
v 0.361111 -0.358125 -0.372953
v -0.330221 -0.363099 -0.391640
v 0.330244 -0.363045 -0.391645
v -0.316865 -0.365033 -0.401404
v 0.315944 -0.365039 -0.401825
v -0.255012 -0.325914 -0.492394
v 0.255147 -0.325868 -0.492204
v -0.299329 -0.358449 -0.409861
v 0.298699 -0.362334 -0.411768
v -0.569481 0.275291 0.649964
v 0.569416 0.275275 0.649923
v -0.552558 0.257834 0.659949
v 0.552432 0.257787 0.659828
v -0.563677 0.286304 0.624902
v 0.563698 0.286296 0.624893
v -0.614289 0.306452 0.386495
v 0.613407 0.304648 0.386868
v -0.642748 0.286015 0.182888
v 0.642776 0.286011 0.182874
v -0.652722 0.239815 0.027354
v 0.652633 0.239787 0.027371
v -0.646947 0.183213 -0.089762
v 0.646768 0.183181 -0.089752
v -0.626111 0.106340 -0.236507
v 0.626025 0.106328 -0.236482
v -0.584630 0.028814 -0.358384
v 0.584464 0.029043 -0.358498
v -0.548070 -0.027864 -0.432332
v 0.548086 -0.027895 -0.432348
v -0.513958 -0.079557 -0.486115
v 0.514137 -0.079320 -0.486500
v -0.439054 -0.143365 -0.547087
v 0.438902 -0.143395 -0.547139
v -0.339948 -0.195567 -0.593101
v 0.340022 -0.195590 -0.593289
v -0.277095 -0.220816 -0.602040
v 0.277089 -0.220693 -0.602174
v -0.152787 -0.251855 -0.604092
v 0.153034 -0.251920 -0.603982
v -0.214424 -0.240780 -0.605234
v 0.214476 -0.240677 -0.605251
v -0.400932 -0.166934 -0.569182
v 0.401053 -0.167077 -0.569364
v -0.481632 -0.110936 -0.522011
v 0.481447 -0.110891 -0.521800
v -0.579591 0.300181 0.566571
v 0.579516 0.300170 0.566552
v -0.627402 0.296037 0.279813
v 0.627421 0.296029 0.279691
v -0.561403 0.224846 0.631875
v 0.561298 0.224872 0.631827
v -0.571541 0.197428 0.588989
v 0.571461 0.197414 0.589001
v -0.586923 0.152325 0.518651
v 0.586773 0.152224 0.518699
v -0.206450 -0.281837 -0.558251
v 0.206727 -0.281785 -0.558627
v -0.597535 0.304652 0.486308
v 0.597452 0.304646 0.486453
v -0.597906 0.110022 0.449500
v 0.597835 0.110000 0.449426
v -0.605461 0.059898 0.362004
v 0.605388 0.059871 0.361980
v -0.604524 0.011731 0.275353
v 0.604418 0.011759 0.275396
v -0.602618 -0.047880 0.175376
v 0.602443 -0.047874 0.175409
v -0.592133 -0.111597 0.058621
v 0.591972 -0.111638 0.058659
v -0.566888 -0.182848 -0.067099
v 0.566684 -0.182807 -0.067123
v -0.528772 -0.236835 -0.172511
v 0.528588 -0.236857 -0.172530
v -0.498003 -0.266967 -0.229355
v 0.497832 -0.266973 -0.229318
v -0.466787 -0.287597 -0.269351
v 0.466492 -0.287645 -0.269055
v -0.438172 -0.307646 -0.298561
v 0.437878 -0.307533 -0.298448
v -0.413368 -0.321891 -0.321982
v 0.413269 -0.322320 -0.321784
v -0.380109 -0.336275 -0.345904
v 0.380022 -0.336780 -0.345665
v -0.353857 -0.346732 -0.367891
v 0.354101 -0.349302 -0.366859
v -0.324772 -0.353117 -0.386326
v 0.325144 -0.352991 -0.386210
v -0.314053 -0.354889 -0.394685
v 0.312249 -0.354725 -0.395881
v -0.256688 -0.314349 -0.488446
v 0.256956 -0.314307 -0.488122
v -0.301356 -0.347270 -0.406236
v 0.297344 -0.351363 -0.406400
v -0.558414 0.272916 0.644473
v 0.558400 0.272868 0.644419
v -0.553781 0.257272 0.647615
v 0.553746 0.257228 0.647489
v -0.561253 0.275578 0.619499
v 0.561167 0.275661 0.619482
v -0.609986 0.294907 0.386331
v 0.609759 0.292677 0.386836
v -0.634552 0.278136 0.183559
v 0.634532 0.278097 0.183615
v -0.644545 0.232581 0.030085
v 0.644501 0.232503 0.030169
v -0.640304 0.175173 -0.085132
v 0.640264 0.175233 -0.085143
v -0.619459 0.099069 -0.230691
v 0.619341 0.099067 -0.230730
v -0.578722 0.021977 -0.351212
v 0.578619 0.022061 -0.351244
v -0.543680 -0.034968 -0.423801
v 0.543543 -0.034957 -0.423850
v -0.507729 -0.084262 -0.477074
v 0.507940 -0.083883 -0.477542
v -0.436567 -0.149040 -0.536194
v 0.436373 -0.149081 -0.536254
v -0.338408 -0.199216 -0.581201
v 0.338396 -0.199071 -0.581367
v -0.277566 -0.225289 -0.590235
v 0.277578 -0.225182 -0.590383
v -0.164131 -0.251901 -0.598869
v 0.164390 -0.252038 -0.598882
v -0.215579 -0.246040 -0.593806
v 0.215657 -0.245934 -0.593823
v -0.398156 -0.171847 -0.557876
v 0.398093 -0.171728 -0.558030
v -0.476708 -0.115234 -0.511628
v 0.476723 -0.115349 -0.511441
v -0.576556 0.288393 0.564102
v 0.576479 0.288382 0.564082
v -0.623452 0.284309 0.280446
v 0.623460 0.284319 0.280208
v -0.560650 0.232801 0.622640
v 0.560650 0.232801 0.622640
v -0.570942 0.208021 0.582047
v 0.570753 0.207962 0.582047
v -0.584081 0.162344 0.511835
v 0.584046 0.162338 0.511854
v -0.214745 -0.272696 -0.560807
v 0.215027 -0.272660 -0.561210
v -0.593382 0.293150 0.485077
v 0.593265 0.293150 0.485335
v -0.593505 0.119828 0.443170
v 0.593442 0.119768 0.443132
v -0.599045 0.068726 0.356789
v 0.598889 0.068641 0.356792
v -0.599470 0.021210 0.269975
v 0.599077 0.021215 0.270028
v -0.596404 -0.038984 0.170660
v 0.596210 -0.038955 0.170679
v -0.586999 -0.101998 0.054083
v 0.586836 -0.102061 0.054116
v -0.559951 -0.173979 -0.069943
v 0.559713 -0.173949 -0.069986
v -0.521855 -0.226826 -0.177114
v 0.521855 -0.226826 -0.177114
v -0.492878 -0.256774 -0.231370
v 0.492731 -0.256827 -0.231326
v -0.462551 -0.275502 -0.275745
v 0.462551 -0.275502 -0.275745
v -0.434547 -0.297126 -0.301768
v 0.434255 -0.297049 -0.301690
v -0.409903 -0.311227 -0.324197
v 0.409442 -0.311700 -0.323721
v -0.378230 -0.325419 -0.349389
v 0.377739 -0.326011 -0.349077
v -0.351372 -0.335429 -0.369208
v 0.351121 -0.338029 -0.367289
v -0.324660 -0.341821 -0.389283
v 0.325297 -0.341562 -0.388574
v -0.316733 -0.343561 -0.395197
v 0.313966 -0.343188 -0.397546
v -0.264374 -0.304301 -0.488866
v 0.264374 -0.304301 -0.488866
v -0.309679 -0.337805 -0.407898
v 0.304426 -0.341040 -0.408462
v -0.556809 0.266629 0.636295
v 0.556809 0.266629 0.636295
v 0.271992 -0.262310 -0.538752
v -0.272018 -0.262365 -0.538790
v 0.315355 -0.296447 -0.455779
v -0.315355 -0.296447 -0.455779
v 0.365715 -0.286204 -0.416460
v -0.365757 -0.286252 -0.416494
v 0.439961 -0.251518 -0.353488
v -0.440059 -0.251594 -0.353539
v 0.511444 -0.198412 -0.254668
v -0.511444 -0.198412 -0.254668
v 0.552089 -0.144727 -0.159441
v -0.552197 -0.144758 -0.159461
v 0.578715 -0.093959 -0.068909
v -0.578715 -0.093959 -0.068909
v 0.600444 -0.023342 0.055466
v -0.600558 -0.023362 0.055466
v 0.607617 0.050356 0.180235
v -0.607642 0.050353 0.180236
v 0.607778 0.111428 0.287705
v -0.607778 0.111428 0.287705
v 0.603443 0.153912 0.371262
v -0.603497 0.153908 0.371268
v 0.594193 0.200788 0.458607
v -0.594245 0.200785 0.458615
v 0.583459 0.233093 0.528749
v -0.583459 0.233093 0.528749
v 0.570235 0.257281 0.585033
v -0.570322 0.257280 0.585056
v 0.477384 -0.165692 -0.415830
v -0.477384 -0.165692 -0.415830
v 0.530489 -0.115762 -0.316817
v -0.530583 -0.115800 -0.316838
v 0.573469 -0.050188 -0.210341
v -0.573583 -0.050226 -0.210358
v 0.604304 0.021104 -0.116570
v -0.604419 0.021074 -0.116576
v 0.622721 0.092632 0.005560
v -0.622721 0.092632 0.005560
v 0.627495 0.156595 0.104108
v -0.627509 0.156593 0.104110
v 0.619946 0.189242 0.234494
v -0.619958 0.189240 0.234495
v 0.611132 0.214786 0.340896
v -0.611170 0.214784 0.340900
f 121 71 73 119
f 120 74 72 122
f 119 73 75 117
f 118 76 74 120
f 69 71 121 123
f 124 122 72 70
f 127 67 69 123
f 124 70 68 128
f 129 79 67 127
f 128 68 80 130
f 65 79 129 131
f 132 130 80 66
f 47 81 151 153
f 154 152 82 48
f 47 153 155 45
f 46 156 154 48
f 57 59 137 139
f 140 138 60 58
f 55 57 139 141
f 142 140 58 56
f 53 55 141 143
f 144 142 56 54
f 51 53 143 145
f 146 144 54 52
f 49 51 145 147
f 147 149 81 49
f 148 146 52 50
f 50 82 150 148
f 63 65 131 133
f 134 132 66 64
f 61 63 133 135
f 135 137 59 61
f 136 134 64 62
f 62 60 138 136
f 55 53 7 9
f 10 8 54 56
f 57 55 9 11
f 12 10 56 58
f 59 57 11 13
f 14 12 58 60
f 61 59 13 15
f 16 14 60 62
f 63 61 15 17
f 18 16 62 64
f 65 63 17 19
f 20 18 64 66
f 22 34 80 68
f 73 71 23 25
f 26 24 72 74
f 75 73 25 29
f 30 26 74 76
f 69 67 21 31
f 31 23 71 69
f 32 22 68 70
f 70 72 24 32
f 79 65 19 33
f 33 21 67 79
f 34 20 66 80
f 47 45 3 35
f 36 4 46 48
f 51 49 5 37
f 37 7 53 51
f 38 6 50 52
f 52 54 8 38
f 41 39 155 153
f 154 156 40 42
f 43 41 153 151
f 43 151 81 149
f 152 154 42 44
f 150 82 152 44
f 75 29 27 77
f 78 28 30 76
f 81 47 35 83
f 5 49 81 83
f 84 36 48 82
f 84 82 50 6
f 85 43 149 147
f 148 150 44 86
f 87 85 147 145
f 146 148 86 88
f 89 87 145 143
f 144 146 88 90
f 91 89 143 141
f 142 144 90 92
f 93 91 141 139
f 140 142 92 94
f 95 93 139 137
f 138 140 94 96
f 97 95 137 135
f 136 138 96 98
f 99 97 135 133
f 134 136 98 100
f 101 99 133 131
f 132 134 100 102
f 103 101 131 129
f 130 132 102 104
f 105 103 129 127
f 128 130 104 106
f 107 105 127 123
f 124 128 106 108
f 109 107 123 121
f 122 124 108 110
f 111 109 121 119
f 120 122 110 112
f 113 111 119 117
f 118 120 112 114
f 117 75 77 115
f 116 78 76 118
f 113 117 115 125
f 126 116 118 114
f 3 45 155 157
f 157 155 39 1
f 158 2 40 156
f 158 156 46 4
f 242 158 4 162
f 167 9 7 165
f 166 8 10 168
f 169 11 9 167
f 168 10 12 170
f 171 13 11 169
f 170 12 14 172
f 173 15 13 171
f 172 14 16 174
f 175 17 15 173
f 174 16 18 176
f 177 19 17 175
f 176 18 20 178
f 192 34 22 180
f 183 25 23 181
f 182 24 26 184
f 187 29 25 183
f 185 27 29 187
f 184 26 30 188
f 188 30 28 186
f 189 31 21 179
f 181 23 31 189
f 180 22 32 190
f 190 32 24 182
f 191 33 19 177
f 179 21 33 191
f 178 20 34 192
f 193 35 3 161
f 162 4 36 194
f 195 37 5 163
f 165 7 37 195
f 164 6 38 196
f 196 38 8 166
f 159 1 39 197
f 198 40 2 160
f 197 39 41 199
f 200 42 40 198
f 199 41 43 201
f 202 44 42 200
f 203 77 27 185
f 186 28 78 204
f 205 83 35 193
f 163 5 83 205
f 194 36 84 206
f 206 84 6 164
f 201 43 85 207
f 208 86 44 202
f 207 85 87 209
f 210 88 86 208
f 209 87 89 211
f 212 90 88 210
f 211 89 91 213
f 214 92 90 212
f 213 91 93 215
f 216 94 92 214
f 215 93 95 217
f 218 96 94 216
f 217 95 97 219
f 220 98 96 218
f 219 97 99 221
f 222 100 98 220
f 221 99 101 223
f 224 102 100 222
f 223 101 103 225
f 226 104 102 224
f 225 103 105 227
f 228 106 104 226
f 227 105 107 229
f 230 108 106 228
f 229 107 109 231
f 232 110 108 230
f 231 109 111 233
f 234 112 110 232
f 233 111 113 235
f 236 114 112 234
f 237 115 77 203
f 204 78 116 238
f 239 125 115 237
f 235 113 125 239
f 238 116 126 240
f 240 126 114 236
f 241 157 1 159
f 161 3 157 241
f 160 2 158 242
f 326 242 162 246
f 251 167 165 249
f 250 166 168 252
f 253 169 167 251
f 252 168 170 254
f 255 171 169 253
f 254 170 172 256
f 257 173 171 255
f 256 172 174 258
f 259 175 173 257
f 258 174 176 260
f 261 177 175 259
f 260 176 178 262
f 276 192 180 264
f 267 183 181 265
f 266 182 184 268
f 271 187 183 267
f 269 185 187 271
f 268 184 188 272
f 272 188 186 270
f 273 189 179 263
f 265 181 189 273
f 264 180 190 274
f 274 190 182 266
f 275 191 177 261
f 263 179 191 275
f 262 178 192 276
f 277 193 161 245
f 246 162 194 278
f 279 195 163 247
f 249 165 195 279
f 248 164 196 280
f 280 196 166 250
f 243 159 197 281
f 282 198 160 244
f 281 197 199 283
f 284 200 198 282
f 283 199 201 285
f 286 202 200 284
f 287 203 185 269
f 270 186 204 288
f 247 163 205 289
f 289 205 193 277
f 290 206 164 248
f 278 194 206 290
f 285 201 207 291
f 292 208 202 286
f 291 207 209 293
f 294 210 208 292
f 293 209 211 295
f 296 212 210 294
f 295 211 213 297
f 298 214 212 296
f 297 213 215 299
f 300 216 214 298
f 299 215 217 301
f 302 218 216 300
f 301 217 219 303
f 304 220 218 302
f 303 219 221 305
f 306 222 220 304
f 305 221 223 307
f 308 224 222 306
f 307 223 225 309
f 310 226 224 308
f 309 225 227 311
f 312 228 226 310
f 311 227 229 313
f 314 230 228 312
f 313 229 231 315
f 316 232 230 314
f 315 231 233 317
f 318 234 232 316
f 317 233 235 319
f 320 236 234 318
f 321 237 203 287
f 288 204 238 322
f 319 235 239 323
f 323 239 237 321
f 324 240 236 320
f 322 238 240 324
f 325 241 159 243
f 245 161 241 325
f 244 160 242 326
f 410 326 246 330
f 335 251 249 333
f 334 250 252 336
f 337 253 251 335
f 336 252 254 338
f 339 255 253 337
f 338 254 256 340
f 341 257 255 339
f 340 256 258 342
f 343 259 257 341
f 342 258 260 344
f 345 261 259 343
f 344 260 262 346
f 360 276 264 348
f 351 267 265 349
f 350 266 268 352
f 355 271 267 351
f 353 269 271 355
f 352 268 272 356
f 356 272 270 354
f 357 273 263 347
f 349 265 273 357
f 348 264 274 358
f 358 274 266 350
f 359 275 261 345
f 347 263 275 359
f 346 262 276 360
f 361 277 245 329
f 330 246 278 362
f 363 279 247 331
f 333 249 279 363
f 332 248 280 364
f 364 280 250 334
f 327 243 281 365
f 366 282 244 328
f 365 281 283 367
f 368 284 282 366
f 367 283 285 369
f 370 286 284 368
f 371 287 269 353
f 354 270 288 372
f 331 247 289 373
f 373 289 277 361
f 374 290 248 332
f 362 278 290 374
f 369 285 291 375
f 376 292 286 370
f 375 291 293 377
f 378 294 292 376
f 377 293 295 379
f 380 296 294 378
f 379 295 297 381
f 382 298 296 380
f 381 297 299 383
f 384 300 298 382
f 383 299 301 385
f 386 302 300 384
f 385 301 303 387
f 388 304 302 386
f 387 303 305 389
f 390 306 304 388
f 389 305 307 391
f 392 308 306 390
f 391 307 309 393
f 394 310 308 392
f 393 309 311 395
f 396 312 310 394
f 395 311 313 397
f 398 314 312 396
f 397 313 315 399
f 400 316 314 398
f 399 315 317 401
f 402 318 316 400
f 401 317 319 403
f 404 320 318 402
f 405 321 287 371
f 372 288 322 406
f 403 319 323 407
f 407 323 321 405
f 408 324 320 404
f 406 322 324 408
f 409 325 243 327
f 329 245 325 409
f 328 244 326 410
f 493 409 327 411
f 412 328 410 494
f 443 359 345 429
f 437 353 355 439
f 440 356 354 438
f 475 391 393 477
f 481 397 399 483
f 487 403 407 491
f 436 352 356 440
f 439 355 351 435
f 438 354 372 456
f 455 371 353 437
f 495 440 438 456
f 455 437 439 496
f 456 372 406 490
f 490 406 408 492
f 489 405 371 455
f 491 407 405 489
f 492 408 404 488
f 497 495 456 490
f 489 455 496 498
f 497 490 492 488
f 487 491 489 498
f 486 402 400 484
f 488 404 402 486
f 483 399 401 485
f 485 401 403 487
f 484 400 398 482
f 481 483 485 500
f 480 396 394 478
f 482 398 396 480
f 477 393 395 479
f 479 395 397 481
f 478 394 392 476
f 476 392 390 474
f 473 389 391 475
f 474 390 388 472
f 471 387 389 473
f 472 388 386 470
f 469 385 387 471
f 470 386 384 468
f 467 383 385 469
f 468 384 382 466
f 465 381 383 467
f 466 382 380 464
f 463 379 381 465
f 464 380 378 462
f 461 377 379 463
f 462 378 376 460
f 459 375 377 461
f 494 410 330 414
f 450 366 328 412
f 413 329 409 493
f 411 327 365 449
f 460 376 370 454
f 453 369 375 459
f 452 368 366 450
f 454 370 368 452
f 449 365 367 451
f 451 367 369 453
f 450 412 494 414
f 521 452 450 414
f 413 493 411 449
f 413 449 451 522
f 414 330 362 446
f 519 521 414 446
f 519 454 452 521
f 445 361 329 413
f 445 413 522 520
f 522 451 453 520
f 446 362 374 458
f 517 460 454 519
f 457 373 361 445
f 520 453 459 518
f 434 350 352 436
f 434 436 440 495
f 434 495 497 499
f 499 497 488 486
f 499 486 484 482
f 435 351 349 433
f 496 439 435 433
f 500 498 496 433
f 485 487 498 500
f 442 358 350 434
f 501 499 482 480
f 433 349 357 441
f 479 481 500 502
f 432 348 358 442
f 444 360 348 432
f 441 357 347 431
f 431 347 359 443
f 442 434 499 501
f 501 480 478 476
f 502 500 433 441
f 475 477 479 502
f 430 346 360 444
f 523 432 442 501
f 502 441 431 524
f 430 444 432 523
f 524 431 443 429
f 503 501 476 474
f 473 475 502 504
f 428 344 346 430
f 525 523 501 503
f 429 345 343 427
f 504 502 524 526
f 428 430 523 525
f 526 524 429 427
f 426 342 344 428
f 427 343 341 425
f 505 503 474 472
f 527 525 503 505
f 426 428 525 527
f 471 473 504 506
f 506 504 526 528
f 528 526 427 425
f 507 505 472 470
f 469 471 506 508
f 424 340 342 426
f 424 426 527 529
f 529 527 505 507
f 425 341 339 423
f 530 528 425 423
f 508 506 528 530
f 422 338 340 424
f 423 339 337 421
f 509 507 470 468
f 531 529 507 509
f 422 424 529 531
f 467 469 508 510
f 510 508 530 532
f 532 530 423 421
f 511 509 468 466
f 511 466 464 513
f 465 467 510 512
f 514 463 465 512
f 418 334 336 420
f 420 336 338 422
f 533 535 418 420
f 420 422 531 533
f 533 531 509 511
f 511 513 535 533
f 419 335 333 417
f 421 337 335 419
f 419 417 536 534
f 534 532 421 419
f 512 510 532 534
f 534 536 514 512
f 416 332 364 448
f 448 364 334 418
f 447 363 331 415
f 417 333 363 447
f 515 513 464 462
f 515 462 460 517
f 461 463 514 516
f 518 459 461 516
f 458 374 332 416
f 458 416 448 537
f 517 519 446 458
f 537 515 517 458
f 448 418 535 537
f 537 535 513 515
f 415 331 373 457
f 538 447 415 457
f 457 445 520 518
f 457 518 516 538
f 538 536 417 447
f 516 514 536 538

