#  
#  
#  Created in TopoGun 3
#  www.topogun.com
#  

v -0.608757 0.295530 0.524092
v 0.608757 0.295530 0.524092
v -0.640719 0.289525 0.356149
v 0.640719 0.289525 0.356149
v -0.667990 0.280899 0.162066
v 0.665154 0.285951 0.195691
v -0.672596 0.212525 -0.025225
v 0.672535 0.224206 0.001425
v -0.666199 0.160870 -0.217367
v 0.666997 0.159700 -0.150624
v 0.650232 0.102297 -0.234149
v -0.620660 0.038726 -0.314709
v 0.624059 0.043069 -0.328154
v -0.595433 -0.004416 -0.396800
v 0.591416 -0.010568 -0.400384
v -0.559757 -0.051660 -0.461281
v 0.552174 -0.062387 -0.464537
v -0.510593 -0.106120 -0.511067
v 0.509929 -0.106152 -0.512934
v -0.449846 -0.156714 -0.550180
v 0.451412 -0.154987 -0.553354
v -0.375265 -0.200544 -0.578085
v 0.375265 -0.200544 -0.578085
v -0.310434 -0.228965 -0.601978
v 0.310405 -0.228894 -0.601963
v -0.237695 -0.249735 -0.617250
v 0.237673 -0.249658 -0.617218
v -0.184311 -0.265844 -0.615441
v 0.184311 -0.265844 -0.615441
v -0.175956 -0.294241 -0.581507
v 0.175956 -0.294241 -0.581507
v -0.209856 -0.304592 -0.556479
v 0.209821 -0.304525 -0.556403
v -0.247252 -0.319279 -0.521946
v 0.247295 -0.319332 -0.522006
v -0.276458 -0.346328 -0.472755
v 0.276458 -0.346328 -0.472755
v -0.288390 -0.367235 -0.439528
v 0.288390 -0.367235 -0.439528
v -0.582148 0.282821 0.632222
v 0.582067 0.282837 0.632204
v -0.573099 0.258901 0.662346
v 0.573099 0.258901 0.662346
v -0.578533 0.224200 0.652726
v 0.578440 0.224190 0.652704
v -0.602563 0.162560 0.541582
v 0.602432 0.162515 0.541592
v -0.617253 0.091456 0.421136
v 0.617251 0.091455 0.421136
v -0.622550 0.018834 0.294122
v 0.622474 0.018839 0.294118
v -0.619237 -0.067714 0.137838
v 0.619037 -0.067724 0.137846
v -0.605154 -0.133201 0.016032
v 0.605013 -0.133197 0.016058
v -0.582786 -0.184123 -0.076521
v 0.582639 -0.184113 -0.076487
v -0.555249 -0.224109 -0.152482
v 0.555160 -0.224092 -0.152452
v -0.523562 -0.260138 -0.215838
v 0.523659 -0.260169 -0.215874
v -0.473682 -0.302469 -0.287542
v 0.473467 -0.302367 -0.287411
v -0.415712 -0.334149 -0.347680
v 0.415651 -0.334111 -0.347627
v -0.365965 -0.355410 -0.382759
v 0.365754 -0.355246 -0.382544
v -0.317933 -0.369393 -0.412873
v 0.317734 -0.369183 -0.412636
v 0.094979 -0.258576 -0.644875
v -0.086695 -0.262397 -0.640931
v 0.005086 -0.247147 -0.665686
v 0.091586 -0.296578 -0.596854
v -0.082600 -0.298377 -0.595772
v 0.005128 -0.294260 -0.605241
v 0.103257 -0.323758 -0.562254
v -0.093467 -0.325573 -0.561559
v 0.005554 -0.327523 -0.565286
v 0.120646 -0.350061 -0.528171
v -0.106551 -0.353246 -0.526989
v 0.006334 -0.358036 -0.529890
v 0.136781 -0.380952 -0.488550
v -0.116924 -0.384719 -0.488447
v 0.007577 -0.391532 -0.491682
v 0.152922 -0.413300 -0.445930
v -0.134358 -0.414862 -0.449079
v 0.006385 -0.429051 -0.448774
v 0.198189 -0.452580 -0.378963
v -0.193100 -0.452275 -0.381852
v 0.002228 -0.476770 -0.391536
v 0.003810 -0.156769 -0.803222
v 0.000000 -0.047023 -1.030703
v 0.000000 0.084790 -1.391075
v 0.000000 0.205940 -1.708216
v 0.000000 0.321091 -1.939548
v 0.000000 0.398005 -2.056228
v 0.000000 0.449446 -2.115545
v 0.000000 0.503477 -2.164188
v 0.000000 0.521536 -2.199875
v 0.000000 0.603328 -2.249114
v 0.000000 0.714281 -2.295664
v 0.000000 0.812124 -2.329262
v 0.040815 0.843199 -2.315805
v -0.040804 0.843199 -2.315782
v -0.153818 -0.171532 -0.762484
v 0.163056 -0.166976 -0.767669
v -0.162865 -0.037991 -1.025403
v 0.161954 -0.034946 -1.032690
v -0.160695 0.097336 -1.385653
v 0.160768 0.096915 -1.385805
v -0.163754 0.225082 -1.696554
v 0.164171 0.225780 -1.697463
v -0.128778 0.338631 -1.914849
v 0.128579 0.338386 -1.914373
v -0.061746 0.404262 -2.043810
v 0.061644 0.404452 -2.043648
v -0.046775 0.457657 -2.108315
v 0.046664 0.457819 -2.108135
v -0.044961 0.504682 -2.148039
v 0.044905 0.504786 -2.147950
v -0.058192 0.525371 -2.167805
v 0.058158 0.525411 -2.167767
v -0.062684 0.623974 -2.222875
v 0.062684 0.623973 -2.222875
v -0.065977 0.740458 -2.269238
v 0.065977 0.740458 -2.269238
v -0.301529 -0.130568 -0.772064
v 0.313099 -0.129805 -0.765552
v -0.318803 -0.012016 -0.995944
v 0.313299 -0.014165 -1.015317
v -0.310218 0.128050 -1.346492
v 0.310410 0.122985 -1.345556
v -0.293737 0.249463 -1.627874
v 0.299674 0.265417 -1.651135
v -0.240383 0.382571 -1.870062
v 0.240139 0.382742 -1.870381
v -0.145638 0.441021 -2.013947
v 0.145524 0.441119 -2.013824
v -0.099157 0.470175 -2.078283
v 0.099018 0.470291 -2.078125
v -0.087592 0.499537 -2.109851
v 0.087592 0.499537 -2.109851
v -0.161639 0.504040 -2.043944
v 0.161639 0.504040 -2.043944
v -0.242166 0.499228 -1.952949
v 0.242166 0.499228 -1.952949
v -0.410127 -0.093294 -0.737577
v 0.422184 -0.093916 -0.719997
v -0.426348 0.027350 -0.966858
v 0.424661 0.021335 -0.973721
v -0.411264 0.150467 -1.261699
v 0.416430 0.152713 -1.276310
v -0.406786 0.272754 -1.502301
v 0.391284 0.299715 -1.571311
v -0.333882 0.405886 -1.776335
v 0.337099 0.403926 -1.769827
v -0.324202 0.490863 -1.842181
v 0.325517 0.489365 -1.839104
v -0.422955 0.477898 -1.657495
v 0.422955 0.477898 -1.657495
v -0.427388 0.403784 -1.609155
v 0.417020 0.408936 -1.634673
v -0.524302 0.388739 -1.359616
v 0.524449 0.388711 -1.359671
v -0.522351 0.456335 -1.383623
v 0.522445 0.456311 -1.383651
v -0.633134 0.442953 -0.992288
v 0.633063 0.442968 -0.992271
v -0.691134 0.436399 -0.561952
v 0.691078 0.436415 -0.561949
v -0.712094 0.444245 -0.157015
v 0.712471 0.444150 -0.157012
v -0.681786 0.439268 0.145905
v 0.681748 0.439276 0.145900
v -0.649440 0.372548 -0.927264
v 0.649440 0.372548 -0.927264
v -0.682317 0.368676 -0.612557
v 0.682274 0.368594 -0.612125
v -0.705011 0.375217 -0.141773
v 0.704870 0.373575 -0.147146
v -0.676401 0.366965 0.171498
v 0.673343 0.369090 0.194944
v -0.458973 0.320994 -1.465361
v 0.473002 0.300363 -1.413876
v -0.535836 0.290949 -1.249967
v 0.560295 0.282074 -1.185055
v -0.633158 0.253728 -0.919358
v 0.638780 0.267173 -0.914187
v -0.669897 0.247654 -0.606858
v 0.671052 0.234627 -0.511582
v -0.688965 0.279944 -0.127377
v 0.689136 0.274932 -0.165932
v -0.606423 0.192470 -0.916989
v -0.570570 0.135485 -0.914134
v -0.530794 0.085020 -0.907324
v -0.651476 0.184885 -0.606443
v -0.627106 0.123487 -0.605770
v -0.595900 0.061883 -0.601766
v -0.549025 0.077214 -0.909785
v -0.610437 0.057813 -0.608750
v -0.643074 0.242698 -0.917213
v -0.702840 0.227231 -0.616009
v -0.612897 0.187547 -0.913193
v -0.580427 0.129329 -0.911593
v -0.673235 0.172178 -0.616138
v -0.641070 0.114777 -0.615214
v -0.507043 0.229203 -1.230448
v -0.487928 0.155066 -1.134184
v -0.488839 0.053147 -0.924196
v -0.504041 -0.049607 -0.652892
v -0.551990 -0.029253 -0.547423
v -0.589798 0.037741 -0.559050
v -0.680727 0.228973 -0.181031
v -0.634797 0.119693 -0.519739
v -0.592356 0.017493 -0.483984
v -0.647458 0.136253 -0.442352
v -0.620652 0.055120 -0.409081
v -0.644359 0.093792 -0.303643
v -0.653614 0.113825 -0.201646
v -0.662358 0.157046 -0.105075
v -0.670539 0.253691 0.081119
v 0.678423 0.217317 -0.155532
v 0.669915 0.183031 -0.257905
v 0.654836 0.144756 -0.372166
v 0.621078 0.073845 -0.470624
v 0.572815 0.009931 -0.562002
v 0.544105 -0.050197 -0.526521
v 0.504995 -0.081072 -0.580357
v 0.460259 -0.115540 -0.613450
v 0.497960 0.171655 -1.152412
v 0.515799 0.056262 -0.894508
v 0.508516 -0.031151 -0.685005
v 0.585684 0.093067 -0.773286
v 0.574188 0.182715 -1.005085
v 0.632532 0.148894 -0.658048
v 0.622606 0.200274 -0.878569
v 0.674830 0.217449 -0.333205
v 0.681798 0.236026 -0.222356
v -0.106654 0.528008 -2.127185
v 0.106633 0.528032 -2.127162
v -0.179666 0.531529 -2.065030
v 0.179628 0.531572 -2.064990
v -0.262582 0.528797 -1.978918
v 0.262535 0.528857 -1.978873
v -0.349243 0.524942 -1.865670
v 0.349243 0.524942 -1.865670
v -0.451345 0.514083 -1.672206
v 0.451345 0.514083 -1.672206
v -0.560378 0.496343 -1.395635
v 0.560432 0.496290 -1.395654
v -0.661815 0.493718 -1.006116
v 0.661815 0.493718 -1.006116
v -0.718220 0.481180 -0.545189
v 0.718220 0.481180 -0.545189
v -0.736295 0.489139 -0.165477
v 0.736295 0.489139 -0.165477
v -0.706968 0.486019 0.148811
v 0.706915 0.486054 0.148804
v -0.137331 0.626658 -2.167841
v 0.137332 0.626658 -2.167842
v -0.211594 0.619064 -2.101594
v 0.211594 0.619064 -2.101594
v -0.309853 0.617596 -2.005448
v 0.309853 0.617597 -2.005447
v -0.407460 0.619233 -1.883981
v 0.407459 0.619234 -1.883980
v -0.514955 0.613380 -1.691136
v 0.514955 0.613380 -1.691136
v -0.623326 0.600999 -1.415759
v 0.623327 0.600999 -1.415759
v -0.719716 0.594243 -1.024390
v 0.719717 0.594243 -1.024390
v -0.773592 0.580396 -0.536715
v 0.773592 0.580396 -0.536715
v -0.780031 0.581052 -0.167444
v 0.780031 0.581051 -0.167444
v -0.756021 0.585987 0.151096
v 0.756020 0.585988 0.151095
v -0.158689 0.736915 -2.201595
v 0.158689 0.736915 -2.201595
v -0.245433 0.732216 -2.132874
v 0.245434 0.732216 -2.132876
v -0.352055 0.732290 -2.038022
v 0.352053 0.732291 -2.038020
v -0.459070 0.723956 -1.904124
v 0.459071 0.723956 -1.904125
v -0.581155 0.715884 -1.693252
v 0.581155 0.715883 -1.693252
v -0.701523 0.715836 -1.411746
v 0.701524 0.715836 -1.411746
v -0.772953 0.686896 -1.043658
v 0.772953 0.686896 -1.043658
v -0.827843 0.684696 -0.533932
v 0.827843 0.684696 -0.533933
v -0.833245 0.693427 -0.154513
v 0.833244 0.693428 -0.154514
v -0.804396 0.689387 0.164470
v 0.804396 0.689387 0.164470
v -0.863103 0.810752 0.162810
v 0.863091 0.810756 0.162809
v -0.895008 0.811132 -0.165047
v 0.894996 0.811137 -0.165048
v -0.894717 0.807315 -0.542282
v 0.894695 0.807326 -0.542281
v -0.846276 0.801505 -1.052591
v 0.846268 0.801509 -1.052590
v -0.760139 0.810240 -1.427213
v 0.760107 0.810254 -1.427202
v -0.635637 0.820766 -1.713972
v 0.635623 0.820771 -1.713964
v -0.497958 0.825652 -1.931417
v 0.497929 0.825661 -1.931395
v -0.376242 0.831666 -2.074123
v 0.376232 0.831670 -2.074113
v -0.267358 0.844215 -2.165429
v 0.267330 0.844222 -2.165388
v -0.162275 0.833142 -2.237453
v 0.162275 0.833142 -2.237453
v -0.640475 0.448866 0.356705
v 0.640348 0.448903 0.356669
v -0.588365 0.456967 0.523645
v 0.588361 0.456968 0.523643
v -0.543567 0.459597 0.636092
v 0.543496 0.459590 0.636063
v -0.570476 0.374770 0.633823
v 0.570383 0.374750 0.633790
v -0.603204 0.376610 0.526121
v 0.603106 0.376593 0.526094
v -0.645680 0.370346 0.357073
v 0.645604 0.370342 0.357056
v -0.666980 0.488703 0.364326
v 0.666978 0.488705 0.364325
v -0.618706 0.495215 0.535275
v 0.618715 0.495207 0.535278
v -0.569977 0.504079 0.658178
v 0.569945 0.504110 0.658161
v -0.492109 0.513157 0.789323
v 0.492132 0.513127 0.789342
v -0.424230 0.516700 0.867245
v 0.424214 0.516726 0.867229
v -0.295876 0.521509 0.960433
v 0.295866 0.521543 0.960411
v -0.186553 0.525292 1.008307
v 0.186546 0.525332 1.008285
v -0.061780 0.532529 1.049903
v 0.061779 0.532538 1.049899
v 0.000000 0.532463 1.052983
v -0.465497 0.476440 0.771226
v 0.465428 0.476461 0.771174
v -0.402387 0.480620 0.836308
v 0.402373 0.480631 0.836289
v -0.277283 0.481709 0.911719
v 0.277290 0.481700 0.911733
v -0.170326 0.490493 0.964363
v 0.170326 0.490493 0.964363
v -0.048039 0.500310 0.999534
v 0.047984 0.500849 0.998975
v 0.000000 0.503563 1.003748
v -0.487116 0.378045 0.793149
v 0.487046 0.378022 0.793091
v -0.412273 0.386524 0.860453
v 0.412211 0.386496 0.860369
v -0.281727 0.392687 0.942996
v 0.281767 0.392704 0.943071
v -0.166691 0.415846 0.975439
v 0.166968 0.415960 0.977236
v -0.042388 0.413746 0.986662
v 0.042504 0.413864 0.985685
v 0.000000 0.414542 0.986097
v -0.501753 0.278509 0.801129
v 0.501664 0.278500 0.801056
v -0.427030 0.281444 0.870474
v 0.426971 0.281436 0.870395
v -0.320424 0.285699 0.935004
v 0.320410 0.285701 0.934959
v -0.254424 0.284974 0.940056
v 0.254411 0.284940 0.940067
v -0.229804 0.354433 0.950784
v 0.229796 0.354379 0.950967
v -0.164517 0.375231 0.964244
v 0.164607 0.374674 0.965019
v -0.070193 0.376392 0.974025
v 0.070092 0.376443 0.973930
v 0.000041 0.376117 0.976439
v -0.712072 0.582755 0.383729
v 0.712075 0.582754 0.383729
v -0.665071 0.580471 0.568671
v 0.665159 0.580418 0.568699
v -0.612246 0.582537 0.695774
v 0.612260 0.582527 0.695781
v -0.517756 0.584623 0.848236
v 0.517755 0.584624 0.848235
v -0.457000 0.590211 0.921318
v 0.456961 0.590247 0.921278
v -0.333731 0.599687 1.023875
v 0.333703 0.599723 1.023830
v -0.214230 0.605419 1.090888
v 0.214212 0.605451 1.090848
v -0.075820 0.600148 1.131073
v 0.075817 0.600161 1.131056
v 0.000000 0.606819 1.143177
v -0.763884 0.691301 0.414895
v 0.763882 0.691302 0.414895
v -0.716954 0.680864 0.594545
v 0.717037 0.680815 0.594571
v -0.666698 0.683025 0.721704
v 0.666702 0.683022 0.721706
v -0.573721 0.678624 0.869757
v 0.573708 0.678634 0.869747
v -0.475632 0.677948 0.971315
v 0.475603 0.677969 0.971282
v -0.352016 0.683670 1.066236
v 0.352016 0.683670 1.066236
v -0.225240 0.688554 1.132797
v 0.225206 0.688582 1.132716
v -0.069759 0.691029 1.175903
v 0.069753 0.691038 1.175865
v 0.000000 0.700693 1.182862
v -0.818007 0.812223 0.445724
v 0.817931 0.812231 0.445707
v -0.760114 0.799036 0.630954
v 0.760033 0.799048 0.630921
v -0.704279 0.794666 0.749095
v 0.704279 0.794666 0.749095
v -0.591879 0.795730 0.906931
v 0.591793 0.795728 0.906848
v -0.514967 0.794968 0.977031
v 0.514967 0.794968 0.977031
v -0.367570 0.795816 1.079767
v 0.367570 0.795816 1.079767
v -0.223885 0.803463 1.147115
v 0.223885 0.803463 1.147115
v -0.079826 0.796684 1.181221
v 0.079820 0.796678 1.181166
v 0.000000 0.799680 1.185465
v -0.509461 0.241139 0.794853
v 0.509461 0.241139 0.794853
v -0.424847 0.234715 0.875250
v 0.424786 0.234712 0.875167
v -0.347172 0.237291 0.923881
v 0.347143 0.237294 0.923816
v -0.263195 0.227367 0.936727
v 0.263180 0.227344 0.936707
v -0.520267 0.193517 0.780591
v 0.520184 0.193518 0.780536
v -0.425745 0.175583 0.874207
v 0.425677 0.175588 0.874109
v -0.340991 0.175506 0.920894
v 0.340967 0.175516 0.920825
v -0.250621 0.163032 0.933280
v 0.250570 0.163023 0.933253
v -0.557908 0.088560 0.697667
v 0.557801 0.088569 0.697623
v -0.443120 0.044857 0.846536
v 0.443066 0.044872 0.846463
v -0.329969 0.044738 0.902362
v 0.329938 0.044758 0.902275
v -0.207955 0.079709 0.932504
v 0.207977 0.079699 0.932476
v -0.583631 0.000415 0.586605
v 0.583526 0.000428 0.586580
v -0.507869 -0.058754 0.742483
v 0.509372 -0.059188 0.743475
v -0.502215 -0.006678 0.773465
v 0.502112 -0.006653 0.773390
v -0.419003 -0.044954 0.839156
v 0.419003 -0.044954 0.839156
v -0.295973 -0.044410 0.887399
v 0.295945 -0.044374 0.887293
v -0.142387 0.025535 0.930117
v 0.142386 0.025537 0.930092
v -0.056950 0.012596 0.930284
v 0.056958 0.012594 0.930273
v 0.000000 0.009018 0.930562
v -0.393983 -0.091415 0.835532
v 0.393983 -0.091415 0.835532
v -0.240668 -0.089336 0.883005
v 0.240668 -0.089336 0.883005
v -0.101661 -0.053046 0.912868
v 0.101659 -0.053033 0.912831
v -0.048123 -0.040552 0.919114
v 0.048123 -0.040552 0.919114
v 0.000000 -0.049305 0.917008
v -0.068302 0.353213 0.948187
v 0.068242 0.352669 0.948657
v 0.000036 0.349544 0.948090
v -0.136737 0.353173 0.937855
v 0.136797 0.352796 0.938228
v -0.183781 0.330847 0.924353
v 0.183782 0.330699 0.924484
v -0.199596 0.280881 0.917128
v 0.199579 0.280792 0.917172
v -0.199674 0.228081 0.910712
v 0.199672 0.228022 0.910713
v -0.184774 0.172198 0.910718
v 0.184765 0.172161 0.910716
v -0.152139 0.119450 0.918257
v 0.152131 0.119425 0.918246
v -0.101017 0.083334 0.923016
v 0.100978 0.083304 0.923012
v -0.052598 0.058174 0.927755
v 0.052613 0.058155 0.927754
v 0.000001 0.077226 0.922375
v -0.104378 0.350324 0.903214
v 0.104345 0.350324 0.903371
v -0.058745 0.350912 0.916478
v 0.058684 0.350640 0.916604
v -0.000022 0.359162 0.896232
v -0.146286 0.327386 0.884739
v 0.146396 0.327330 0.884652
v -0.160002 0.282337 0.877384
v 0.160024 0.282276 0.877369
v -0.150256 0.232082 0.869906
v 0.150237 0.231947 0.869897
v -0.131788 0.179785 0.882867
v 0.131754 0.179699 0.882883
v -0.114262 0.141116 0.899393
v 0.114245 0.141080 0.899395
v -0.057242 0.125906 0.899297
v 0.057224 0.125892 0.899297
v -0.000007 0.144701 0.883665
v -0.000010 0.349022 0.833421
v -0.000014 0.305391 0.810769
v -0.000010 0.239438 0.819224
v -0.000008 0.184155 0.854074
v -0.070028 0.181085 0.863163
v 0.070015 0.181070 0.863161
v -0.086891 0.244264 0.829802
v 0.086900 0.244224 0.829763
v -0.125960 0.285858 0.843248
v 0.125963 0.285779 0.843203
v -0.107385 0.327052 0.846163
v 0.107424 0.326998 0.846041
v -0.067947 0.356626 0.869515
v 0.067813 0.356673 0.869456
v -0.045872 0.344368 0.835400
v 0.045792 0.344353 0.835408
v -0.063355 0.309432 0.819436
v 0.063333 0.309391 0.819399
v -0.598150 -0.100575 0.393355
v 0.599187 -0.100717 0.393436
v -0.601264 -0.171417 0.218370
v 0.601192 -0.171405 0.218367
v -0.591468 -0.220680 0.087195
v 0.591359 -0.220659 0.087340
v -0.567865 -0.260398 -0.023049
v 0.565712 -0.264168 -0.027210
v -0.535467 -0.297892 -0.109869
v 0.534527 -0.299110 -0.110832
v -0.498059 -0.331732 -0.177380
v 0.492037 -0.337251 -0.184414
v -0.450887 -0.367194 -0.234065
v 0.436221 -0.375182 -0.250125
v -0.392958 -0.400726 -0.282520
v 0.380344 -0.405017 -0.293900
v -0.319094 -0.428763 -0.329422
v 0.318068 -0.430889 -0.326905
v -0.597471 0.279660 0.520973
v 0.597397 0.279668 0.520948
v -0.627200 0.275131 0.354458
v 0.627219 0.275115 0.354224
v -0.656881 0.264838 0.164103
v 0.653486 0.270247 0.197210
v -0.657547 0.200279 -0.004169
v 0.662214 0.208749 0.007516
v 0.657645 0.144707 -0.123858
v 0.638142 0.090529 -0.224367
v -0.603365 0.033432 -0.306496
v 0.612776 0.032068 -0.316539
v -0.577909 -0.018164 -0.387707
v 0.578520 -0.017881 -0.387729
v -0.541580 -0.069070 -0.447811
v 0.541434 -0.069137 -0.447904
v -0.500818 -0.110786 -0.494839
v 0.500409 -0.110837 -0.495090
v -0.440976 -0.156592 -0.532582
v 0.443619 -0.156793 -0.535253
v -0.367642 -0.199039 -0.559680
v 0.367914 -0.198812 -0.559537
v -0.305199 -0.229608 -0.582847
v 0.305175 -0.229539 -0.582833
v -0.236739 -0.252239 -0.597632
v 0.236711 -0.252149 -0.597600
v -0.196036 -0.266998 -0.599807
v 0.195997 -0.266924 -0.599775
v -0.192221 -0.283276 -0.581606
v 0.192207 -0.283259 -0.581572
v -0.218893 -0.287275 -0.560100
v 0.218951 -0.287291 -0.560172
v -0.257761 -0.302441 -0.522172
v 0.257687 -0.302417 -0.522096
v -0.288982 -0.331208 -0.469745
v 0.288995 -0.331172 -0.469728
v -0.300375 -0.351759 -0.441991
v 0.299998 -0.351358 -0.441554
v -0.572759 0.268318 0.623610
v 0.572701 0.268332 0.623583
v -0.567889 0.253498 0.644450
v 0.567708 0.253543 0.644456
v -0.571839 0.234240 0.637860
v 0.571687 0.234236 0.637820
v -0.590539 0.175195 0.532224
v 0.590398 0.175167 0.532253
v -0.608275 0.106132 0.411852
v 0.608207 0.106125 0.411855
v -0.616586 0.034741 0.285099
v 0.616470 0.034752 0.285102
v -0.610787 -0.052105 0.129896
v 0.610646 -0.052060 0.129843
v -0.595637 -0.117575 0.009226
v 0.595483 -0.117551 0.009250
v -0.574823 -0.167685 -0.082972
v 0.574723 -0.167659 -0.082952
v -0.546823 -0.207434 -0.157947
v 0.546671 -0.207451 -0.157893
v -0.516344 -0.242984 -0.221448
v 0.517025 -0.242929 -0.221886
v -0.470151 -0.284584 -0.294631
v 0.469947 -0.284494 -0.294484
v -0.412493 -0.315924 -0.354112
v 0.412633 -0.315938 -0.354262
v -0.364481 -0.337152 -0.390250
v 0.364033 -0.336968 -0.389697
v -0.321261 -0.351239 -0.420066
v 0.320881 -0.350888 -0.419625
v -0.637599 0.104278 -0.192758
v -0.647925 0.151264 -0.097570
v -0.658066 0.239668 0.086339
v -0.587289 0.273679 0.518605
v 0.587213 0.273694 0.518553
v -0.616368 0.269926 0.352838
v 0.616426 0.269898 0.352475
v -0.646227 0.259328 0.164202
v 0.642733 0.264881 0.197005
v -0.641872 0.196430 -0.001522
v 0.651177 0.204112 0.009277
v 0.645126 0.140073 -0.120076
v 0.626792 0.088405 -0.220461
v -0.591646 0.033749 -0.303056
v 0.601866 0.030576 -0.311472
v -0.567152 -0.018822 -0.383463
v 0.567712 -0.017693 -0.382037
v -0.531415 -0.068362 -0.441238
v 0.531375 -0.068366 -0.441190
v -0.492048 -0.108625 -0.486803
v 0.491417 -0.108743 -0.487245
v -0.434046 -0.152904 -0.523401
v 0.436884 -0.153723 -0.525792
v -0.362171 -0.195829 -0.549465
v 0.362614 -0.195476 -0.549254
v -0.300921 -0.226769 -0.571987
v 0.300874 -0.226685 -0.571989
v -0.235170 -0.250021 -0.585691
v 0.235143 -0.249932 -0.585678
v -0.201865 -0.266009 -0.589856
v 0.201797 -0.266060 -0.589829
v -0.213568 -0.264509 -0.573288
v 0.213568 -0.264509 -0.573288
v -0.227489 -0.272425 -0.554761
v 0.227489 -0.272425 -0.554761
v -0.261073 -0.291217 -0.519427
v 0.261009 -0.291208 -0.519353
v -0.293003 -0.320832 -0.465158
v 0.293009 -0.320788 -0.465177
v -0.304466 -0.340788 -0.440738
v 0.303981 -0.340306 -0.440231
v -0.562484 0.263330 0.619052
v 0.562450 0.263438 0.619032
v -0.560139 0.251072 0.636031
v 0.559981 0.251052 0.636028
v -0.562588 0.237529 0.630869
v 0.562281 0.237468 0.630894
v -0.580395 0.180199 0.527775
v 0.580280 0.180200 0.527798
v -0.598520 0.111934 0.407516
v 0.598460 0.111931 0.407535
v -0.606672 0.040814 0.281520
v 0.606564 0.040826 0.281525
v -0.601082 -0.045441 0.126980
v 0.600909 -0.045406 0.126944
v -0.585734 -0.110773 0.007260
v 0.585571 -0.110731 0.007292
v -0.565300 -0.160261 -0.084114
v 0.565180 -0.160240 -0.084077
v -0.537381 -0.199648 -0.158127
v 0.537214 -0.199663 -0.158141
v -0.507631 -0.234393 -0.221374
v 0.508450 -0.234237 -0.221987
v -0.463162 -0.274652 -0.294507
v 0.463001 -0.274524 -0.294382
v -0.406869 -0.305125 -0.353663
v 0.407149 -0.305133 -0.353933
v -0.360518 -0.325779 -0.390766
v 0.360071 -0.325584 -0.390136
v -0.320244 -0.339391 -0.421442
v 0.319820 -0.339019 -0.420845
v -0.624791 0.103676 -0.188773
v -0.626614 0.148850 -0.094229
v -0.646751 0.235540 0.087841
v -0.529723 0.248106 0.603462
v 0.529665 0.248133 0.603483
v -0.544334 0.252900 0.511282
v 0.544314 0.252923 0.511277
v -0.566142 0.242791 0.353237
v 0.566122 0.242803 0.353233
v -0.585816 0.235870 0.174931
v 0.585802 0.235881 0.174929
v -0.589548 0.214870 0.091431
v 0.589548 0.214870 0.091431
v -0.586535 0.175009 0.007004
v 0.586539 0.175007 0.007005
v -0.583423 0.134841 -0.085220
v 0.583376 0.134872 -0.085230
v -0.572932 0.093367 -0.179336
v 0.572897 0.093399 -0.179344
v -0.541156 0.024880 -0.293912
v 0.541156 0.024880 -0.293912
v -0.513084 -0.023120 -0.369085
v 0.513028 -0.023047 -0.369118
v -0.482328 -0.066901 -0.423411
v 0.482303 -0.066841 -0.423445
v -0.448073 -0.103130 -0.465608
v 0.448004 -0.102967 -0.465695
v -0.407461 -0.146284 -0.502696
v 0.407446 -0.146255 -0.502718
v -0.343271 -0.190783 -0.527080
v 0.343241 -0.190706 -0.527115
v -0.279077 -0.221071 -0.546311
v 0.279047 -0.220978 -0.546346
v -0.232880 -0.247173 -0.562499
v 0.232928 -0.247218 -0.562500
v -0.261997 -0.236526 -0.516859
v 0.261997 -0.236526 -0.516859
v -0.542101 0.198129 0.501819
v 0.542051 0.198093 0.501829
v -0.555561 0.140702 0.395236
v 0.555561 0.140702 0.395236
v -0.557314 0.067380 0.267054
v 0.557492 0.067475 0.267001
v -0.555177 -0.014820 0.117807
v 0.555113 -0.014855 0.117833
v -0.546403 -0.073011 0.015852
v 0.546314 -0.073061 0.015903
v -0.524856 -0.122888 -0.076509
v 0.524856 -0.122888 -0.076509
v -0.499109 -0.161520 -0.153021
v 0.499063 -0.161539 -0.152995
v -0.469871 -0.196351 -0.220405
v 0.470349 -0.196244 -0.220703
v -0.429850 -0.234154 -0.291883
v 0.429759 -0.234183 -0.291808
v -0.378554 -0.258244 -0.352563
v 0.378999 -0.258249 -0.353028
v -0.334997 -0.276807 -0.393310
v 0.335080 -0.276814 -0.393408
v -0.313300 -0.279605 -0.414007
v 0.313215 -0.279589 -0.413937
v -0.285563 -0.261992 -0.473300
v 0.285567 -0.261993 -0.473303
v -0.301899 -0.215155 -0.489584
v 0.301899 -0.215155 -0.489584
v -0.318874 -0.237465 -0.440492
v 0.318828 -0.237421 -0.440456
v -0.393724 -0.204945 -0.378654
v 0.393667 -0.204900 -0.378624
v -0.447536 -0.169586 -0.306953
v 0.447428 -0.169529 -0.306916
v -0.483217 -0.132025 -0.242112
v 0.483117 -0.131985 -0.242089
v -0.509584 -0.098422 -0.168240
v 0.509474 -0.098387 -0.168222
v -0.531425 -0.060730 -0.087608
v 0.531425 -0.060730 -0.087608
v -0.548885 -0.013307 -0.000595
v 0.548755 -0.013280 -0.000591
v -0.556926 0.038877 0.105816
v 0.556864 0.038886 0.105813
v -0.560431 0.123623 0.233543
v 0.560404 0.123627 0.233540
v -0.553400 0.186504 0.367712
v 0.553353 0.186508 0.367705
v -0.539829 0.222062 0.473048
v 0.539748 0.222068 0.473035
v -0.405547 -0.156970 -0.427070
v 0.405547 -0.156970 -0.427070
v -0.469467 -0.102407 -0.347271
v 0.469467 -0.102407 -0.347271
v -0.507686 -0.053123 -0.273734
v 0.507686 -0.053123 -0.273734
v -0.536482 -0.004371 -0.192382
v 0.536482 -0.004371 -0.192382
v -0.557516 0.044648 -0.115831
v 0.557401 0.044679 -0.115825
v -0.568227 0.080833 -0.015595
v 0.568144 0.080849 -0.015596
v -0.571758 0.125093 0.077327
v 0.571736 0.125096 0.077326
v 0.681697 0.245407 -0.091448
v 0.669155 0.251684 0.084817
v 0.652599 0.240376 0.096068
v 0.640458 0.236021 0.094017
v 0.000000 0.850801 -2.318326
v 0.000000 -0.208494 0.846317
v 0.006284 -0.342385 0.755973
v 0.001802 -0.437608 0.661039
v 0.000000 -0.524528 0.537662
v -0.001236 -0.579101 0.392905
v 0.000000 -0.601649 0.209152
v 0.000000 -0.600485 -0.038786
v 0.000000 -0.578732 -0.179797
v 0.000308 -0.539938 -0.292195
v -0.178386 -0.519916 -0.278855
v 0.181328 -0.520493 -0.275379
v -0.192872 -0.551964 -0.172560
v 0.192790 -0.551883 -0.172489
v -0.179304 -0.578508 -0.018433
v 0.179260 -0.578338 -0.018421
v -0.155420 -0.583041 0.212731
v 0.155608 -0.584318 0.212794
v -0.137832 -0.562023 0.391308
v 0.159695 -0.557164 0.403023
v -0.309199 -0.482164 -0.238447
v 0.312045 -0.483191 -0.231555
v -0.314652 -0.511476 -0.131809
v 0.316166 -0.510217 -0.133425
v -0.301392 -0.536478 0.007830
v 0.301392 -0.536478 0.007830
v -0.282723 -0.539889 0.222500
v 0.286716 -0.537355 0.237218
v -0.392927 -0.444882 -0.190142
v 0.397229 -0.444281 -0.181498
v -0.395843 -0.470963 -0.086407
v 0.394999 -0.471966 -0.083985
v -0.389929 -0.489991 0.034428
v 0.390730 -0.489687 0.040150
v -0.380361 -0.493314 0.192514
v 0.389567 -0.487372 0.199447
v -0.451745 -0.405182 -0.149580
v 0.451204 -0.405523 -0.149955
v -0.455464 -0.427917 -0.052831
v 0.458778 -0.425615 -0.047933
v -0.452738 -0.444637 0.059890
v 0.464928 -0.433836 0.066380
v -0.442589 -0.451625 0.188818
v 0.474412 -0.424944 0.193906
v -0.497225 -0.364468 -0.107039
v 0.497708 -0.363793 -0.106536
v -0.505261 -0.378501 -0.018134
v 0.508678 -0.373806 -0.018098
v -0.510135 -0.387059 0.088702
v 0.520092 -0.373575 0.083353
v -0.502071 -0.395341 0.202384
v 0.527619 -0.366883 0.174459
v -0.527835 -0.330170 -0.068253
v 0.527688 -0.329314 -0.070749
v -0.544972 -0.321569 0.005543
v 0.544964 -0.320201 0.001037
v -0.561951 -0.307751 0.118067
v 0.563222 -0.304101 0.111305
v -0.566109 -0.288341 0.256058
v 0.571065 -0.285503 0.248416
v -0.563602 -0.186357 0.408730
v 0.586760 -0.178097 0.404382
v 0.185953 -0.216909 0.830599
v -0.190470 -0.220844 0.825380
v 0.353867 -0.220406 0.783660
v -0.346272 -0.189285 0.770418
v 0.497324 -0.183198 0.689328
v -0.465117 -0.153783 0.678428
v 0.568245 -0.130098 0.564990
v -0.540076 -0.133089 0.556647
v -0.225688 -0.541529 0.328909
v -0.057811 -0.524488 0.530832
v -0.045412 -0.441749 0.652444
v -0.085755 -0.347512 0.743972
v -0.182802 -0.516832 0.435605
v -0.309057 -0.500900 0.298719
v -0.374952 -0.468497 0.272098
v -0.426841 -0.435237 0.262560
v -0.474729 -0.387700 0.275596
v -0.519568 -0.313214 0.320114
v -0.511632 -0.238630 0.428094
v -0.235471 -0.263930 0.750056
v -0.327108 -0.228766 0.712205
v -0.422295 -0.203433 0.631079
v -0.488138 -0.195378 0.537785
v -0.249267 -0.506077 0.366404
v -0.114140 -0.498263 0.536661
v -0.110985 -0.431365 0.629097
v -0.147672 -0.355850 0.696308
v -0.221808 -0.466411 0.455676
v -0.314764 -0.457268 0.354993
v -0.354032 -0.419265 0.359609
v -0.400322 -0.405171 0.331100
v -0.415696 -0.365355 0.364479
v -0.461905 -0.320324 0.375934
v -0.437826 -0.282170 0.453783
v -0.267898 -0.295993 0.643871
v -0.322803 -0.259248 0.643910
v -0.378750 -0.256578 0.571556
v -0.439634 -0.240358 0.522279
v -0.275866 -0.445549 0.414798
v -0.206452 -0.429999 0.519477
v -0.177102 -0.404773 0.590933
v -0.214990 -0.353830 0.614854
v -0.315662 -0.349036 0.489965
v -0.220762 -0.316931 0.671203
v -0.179510 -0.301969 0.743422
v -0.120841 -0.279368 0.796783
v -0.001637 -0.263716 0.814729
v 0.304994 -0.512367 0.366670
v 0.400047 -0.464200 0.327570
v 0.497500 -0.384537 0.338284
v 0.187153 -0.289586 0.781112
v 0.345551 -0.290133 0.730212
v 0.491725 -0.254333 0.633621
v 0.548678 -0.215978 0.548149
v 0.546735 -0.279010 0.456326
v 0.176872 -0.362391 0.718601
v 0.347075 -0.354771 0.660036
v 0.473974 -0.336095 0.552574
v 0.139135 -0.451335 0.625722
v 0.315354 -0.439503 0.555414
v 0.432979 -0.411763 0.459522
v 0.161897 -0.523704 0.500923
v 0.312359 -0.484959 0.455197
v 0.388784 -0.454760 0.409793
v 0.044910 0.865755 -2.298572
v -0.044024 0.866026 -2.298893
v -0.866047 0.839634 0.163128
v 0.865944 0.839648 0.163114
v -0.897504 0.839842 -0.165060
v 0.897377 0.839861 -0.165068
v -0.900758 0.835632 -0.542879
v 0.900489 0.835673 -0.542867
v -0.852878 0.829539 -1.053496
v 0.852786 0.829564 -1.053483
v -0.762231 0.838970 -1.427038
v 0.762112 0.838998 -1.426999
v -0.637112 0.849714 -1.713881
v 0.637034 0.849717 -1.713842
v -0.499389 0.854737 -1.931548
v 0.499350 0.854742 -1.931518
v -0.376927 0.860480 -2.072345
v 0.376939 0.860506 -2.072356
v -0.262663 0.871714 -2.159228
v 0.262655 0.871691 -2.159197
v -0.161031 0.861698 -2.236035
v 0.161058 0.861747 -2.236078
v -0.815773 0.841288 0.446139
v 0.815667 0.841294 0.446113
v -0.758214 0.828104 0.631802
v 0.758165 0.828124 0.631783
v -0.701993 0.823777 0.748244
v 0.701859 0.823797 0.748169
v -0.588967 0.824781 0.904395
v 0.588893 0.824773 0.904322
v -0.512835 0.824087 0.974440
v 0.512733 0.824116 0.974316
v -0.366436 0.824895 1.076270
v 0.366354 0.824920 1.076129
v -0.222554 0.832475 1.143206
v 0.222510 0.832491 1.143082
v -0.079078 0.825645 1.176868
v 0.079072 0.825639 1.176814
v -0.000000 0.828555 1.180508
v 0.000000 0.869621 -2.302309
v 0.038683 0.877659 -2.275019
v -0.037749 0.877393 -2.275128
v -0.858786 0.865841 0.162063
v 0.858661 0.865852 0.162046
v -0.885493 0.863984 -0.090860
v 0.885493 0.863984 -0.090860
v -0.886520 0.854801 -0.619623
v 0.886520 0.854801 -0.619623
v -0.841084 0.852935 -1.051365
v 0.840979 0.852939 -1.051371
v -0.750952 0.863139 -1.422475
v 0.750863 0.863203 -1.422437
v -0.628838 0.875192 -1.708707
v 0.628681 0.875162 -1.708629
v -0.492538 0.880319 -1.925636
v 0.492529 0.880348 -1.925626
v -0.368674 0.884036 -2.061625
v 0.368767 0.884190 -2.061718
v -0.248372 0.885344 -2.140302
v 0.248037 0.884289 -2.139825
v -0.150587 0.881119 -2.220567
v 0.150590 0.881251 -2.220599
v -0.804071 0.865668 0.444068
v 0.804019 0.865709 0.444060
v -0.742315 0.848371 0.626639
v 0.742437 0.848551 0.626687
v -0.686957 0.843177 0.739611
v 0.686796 0.843116 0.739505
v -0.578184 0.846653 0.894796
v 0.577958 0.846646 0.894652
v -0.506580 0.849078 0.966703
v 0.506427 0.849071 0.966510
v -0.363398 0.851068 1.069594
v 0.363300 0.851084 1.069430
v -0.219137 0.856470 1.133290
v 0.219084 0.856654 1.133122
v -0.078065 0.852121 1.170484
v 0.078051 0.852110 1.170410
v -0.000001 0.854758 1.173177
v -0.000046 0.878396 -2.276703
v 0.033613 0.878787 -2.255111
v -0.032703 0.877950 -2.255177
v -0.843187 0.877137 0.159841
v 0.843031 0.877177 0.159815
v -0.866376 0.876544 -0.050623
v 0.866376 0.876544 -0.050623
v -0.860288 0.857227 -0.693809
v 0.860288 0.857227 -0.693809
v -0.820690 0.855414 -1.047827
v 0.820605 0.855407 -1.047853
v -0.732584 0.868909 -1.416159
v 0.732478 0.868918 -1.416119
v -0.614227 0.885757 -1.700749
v 0.614041 0.885685 -1.700652
v -0.478656 0.889482 -1.914844
v 0.478642 0.889509 -1.914835
v -0.357013 0.892305 -2.047720
v 0.357014 0.892170 -2.047713
v -0.236223 0.888034 -2.123755
v 0.235787 0.886205 -2.123151
v -0.139648 0.883493 -2.203593
v 0.139705 0.884748 -2.203854
v -0.785929 0.872690 0.439601
v 0.785974 0.872966 0.439644
v -0.723448 0.852037 0.619151
v 0.723517 0.852013 0.619150
v -0.669301 0.846177 0.729207
v 0.669177 0.846199 0.729099
v -0.562581 0.849504 0.881612
v 0.562331 0.849491 0.881454
v -0.493708 0.853182 0.951476
v 0.493552 0.853162 0.951286
v -0.354370 0.857183 1.053513
v 0.354239 0.857175 1.053340
v -0.212397 0.858506 1.113917
v 0.212274 0.858497 1.113690
v -0.075513 0.859266 1.152986
v 0.075480 0.859262 1.152821
v -0.000007 0.859400 1.154073
v -0.000065 0.878971 -2.256129
v 0.025538 0.880075 -2.222267
v -0.024690 0.879981 -2.222357
v -0.809744 0.876133 0.154912
v 0.809583 0.876131 0.154887
v -0.847231 0.876264 -0.028002
v 0.847231 0.876264 -0.028002
v -0.834123 0.856454 -0.756230
v 0.834123 0.856454 -0.756230
v -0.787383 0.856762 -1.041950
v 0.787286 0.856753 -1.042033
v -0.536548 0.870406 -1.378520
v 0.700299 0.869124 -1.405629
v -0.584161 0.884467 -1.685287
v 0.583978 0.884412 -1.685200
v -0.451775 0.889091 -1.894292
v 0.451756 0.889104 -1.894301
v -0.335337 0.891323 -2.021755
v 0.335405 0.891114 -2.021693
v -0.216455 0.887096 -2.096319
v 0.215908 0.886647 -2.095766
v -0.121405 0.882851 -2.175088
v 0.121387 0.882890 -2.175455
v -0.753398 0.870512 0.430528
v 0.753467 0.870479 0.430570
v -0.692205 0.853738 0.606236
v 0.692290 0.853729 0.606204
v -0.640230 0.848734 0.712060
v 0.640130 0.848754 0.711909
v -0.536607 0.850641 0.859937
v 0.536363 0.850627 0.859772
v -0.471592 0.853516 0.925854
v 0.471432 0.853499 0.925667
v -0.337630 0.857041 1.024094
v 0.337507 0.857027 1.023916
v -0.201100 0.858386 1.082009
v 0.200978 0.858378 1.081782
v -0.070579 0.859073 1.119499
v 0.070504 0.859070 1.119341
v -0.000042 0.859164 1.120224
v -0.000101 0.879998 -2.222296
v -0.746494 0.873990 -0.026531
v 0.746495 0.873963 -0.026531
v -0.753725 0.860021 -0.756151
v 0.753725 0.860021 -0.756151
v -0.843704 0.908008 -0.031439
v 0.843704 0.908008 -0.031439
v -0.821468 0.934527 -0.031369
v 0.821468 0.934527 -0.031369
v -0.792828 0.940935 -0.029055
v 0.792828 0.940935 -0.029055
v -0.758738 0.925807 -0.029285
v 0.758738 0.925807 -0.029285
v -0.746987 0.901436 -0.029054
v 0.746987 0.901436 -0.029055
v -0.797559 0.875144 -0.029055
v 0.797559 0.875144 -0.029055
v -0.768916 0.874420 -0.027729
v 0.768917 0.874396 -0.027729
v -0.823950 0.876651 -0.029054
v 0.823950 0.876651 -0.029054
v -0.845657 0.887708 -0.752429
v 0.845657 0.887708 -0.752429
v -0.829858 0.924759 -0.752429
v 0.829858 0.924759 -0.752429
v -0.799199 0.940963 -0.752429
v 0.799199 0.940963 -0.752429
v -0.762516 0.929054 -0.752429
v 0.762516 0.929054 -0.752429
v -0.745072 0.894729 -0.750958
v 0.745072 0.894729 -0.750958
v -0.795923 0.858340 -0.755749
v 0.795923 0.858340 -0.755749
v -0.774746 0.859294 -0.755071
v 0.774746 0.859294 -0.755071
v -0.816555 0.857378 -0.754361
v 0.816551 0.857282 -0.754359
v 0.000000 0.862664 0.413588
v -0.176561 0.864340 0.317285
v 0.176561 0.864340 0.317285
v -0.259164 0.867764 0.067974
v 0.259164 0.867764 0.067974
v -0.226292 0.868205 -0.135545
v 0.226300 0.868306 -0.135547
v -0.101038 0.867676 -0.292058
v 0.101038 0.867673 -0.292057
v 0.000000 0.867640 -0.315399
v 0.000010 0.914842 0.104598
v 0.000004 0.907088 -0.130802
v 0.000000 0.875210 -1.425283
v -0.153208 0.874067 -1.377685
v 0.151053 0.875238 -1.435442
v -0.535840 0.864794 -0.770674
v -0.157526 0.867733 -0.768822
v -0.533647 0.953238 -0.771993
v -0.533927 0.955948 -1.373563
v -0.156971 0.956790 -1.373585
v -0.157772 0.957386 -0.772732
f 87 86 83 84
f 84 83 80 81
f 84 82 85 87
f 81 80 77 78
f 81 79 82 84
f 78 77 74 75
f 78 76 79 81
f 75 73 76 78
f 71 72 75 74
f 73 75 72 70
f 98 97 117 119
f 120 118 97 98
f 105 91 72 71
f 70 72 91 106
f 92 91 105 107
f 107 105 127 129
f 108 106 91 92
f 130 128 106 108
f 93 92 107 109
f 110 108 92 93
f 109 107 129 131
f 132 130 108 110
f 94 93 109 111
f 111 109 131 133
f 112 110 93 94
f 134 132 110 112
f 95 94 111 113
f 113 111 133 135
f 114 112 94 95
f 136 134 112 114
f 96 95 113 115
f 115 113 135 137
f 115 117 97 96
f 137 139 117 115
f 116 114 95 96
f 138 136 114 116
f 96 97 118 116
f 116 118 140 138
f 153 155 135 133
f 134 136 156 154
f 204 199 200 206
f 203 204 206 205
f 177 175 187 189
f 189 187 201 202
f 202 201 203 205
f 203 201 187 193
f 163 161 183 185
f 185 187 175 163
f 183 161 155 153
f 207 193 187 185
f 207 185 183 153
f 151 153 133 131
f 204 203 193 194
f 194 193 207 208
f 208 207 153 151
f 149 151 131 129
f 199 204 194 195
f 200 199 195 198
f 147 149 129 127
f 209 195 194 208
f 209 208 151 149
f 209 149 147 210
f 198 195 209 210
f 206 200 198 197
f 212 198 210 211
f 214 212 211 215
f 197 198 212 214
f 196 189 202 205
f 205 206 197 196
f 196 197 214 216
f 216 214 215 217
f 213 196 216 9
f 9 216 217 218
f 191 189 196 213
f 191 213 9 7
f 179 177 189 191
f 184 154 156 162
f 132 134 154 152
f 130 132 152 150
f 128 130 150 148
f 226 227 228 232
f 228 229 148 232
f 232 148 150 231
f 152 154 184 230
f 231 150 152 230
f 186 184 162 164
f 233 226 232 231
f 234 233 231 230
f 234 230 184 186
f 188 186 164 176
f 236 234 186 188
f 235 225 226 233
f 235 233 234 236
f 190 188 176 178
f 235 236 188 190
f 224 225 235 190
f 223 224 190 237
f 99 98 119 121
f 122 120 98 99
f 145 135 155 157
f 158 156 136 146
f 159 157 155 161
f 162 156 158 160
f 159 161 163 165
f 166 164 162 160
f 100 99 121 123
f 124 122 99 100
f 101 100 123 125
f 126 124 100 101
f 276 278 258 256
f 177 179 171 169
f 170 172 180 178
f 253 255 275 273
f 169 171 255 253
f 273 275 295 293
f 274 276 256 254
f 254 256 172 170
f 294 296 276 274
f 271 273 293 291
f 292 294 274 272
f 167 165 163 175
f 175 177 169 167
f 167 169 253 251
f 251 253 273 271
f 176 164 166 168
f 168 170 178 176
f 252 254 170 168
f 272 274 254 252
f 249 165 167 251
f 252 168 166 250
f 269 271 291 289
f 249 251 271 269
f 290 292 272 270
f 270 272 252 250
f 247 159 165 249
f 247 249 269 267
f 267 269 289 287
f 250 166 160 248
f 268 270 250 248
f 288 290 270 268
f 245 157 159 247
f 245 247 267 265
f 265 267 287 285
f 248 160 158 246
f 266 268 248 246
f 286 288 268 266
f 243 145 157 245
f 246 158 146 244
f 263 265 285 283
f 243 245 265 263
f 284 286 266 264
f 264 266 246 244
f 279 125 123 259
f 260 124 126 280
f 241 243 263 261
f 281 279 259 261
f 261 263 283 281
f 262 264 244 242
f 262 260 280 282
f 282 284 264 262
f 143 137 135 145
f 143 145 243 241
f 146 136 138 144
f 242 244 146 144
f 141 139 137 143
f 119 117 139 141
f 239 121 119 141
f 141 143 241 239
f 259 123 121 239
f 239 241 261 259
f 144 138 140 142
f 142 140 118 120
f 142 120 122 240
f 240 242 144 142
f 240 122 124 260
f 260 262 242 240
f 181 173 171 179
f 180 172 174 182
f 257 255 171 173
f 174 172 256 258
f 319 173 181 329
f 330 182 174 320
f 321 319 329 327
f 328 330 320 322
f 323 321 327 325
f 323 325 359 348
f 326 328 322 324
f 349 360 326 324
f 350 348 359 361
f 362 360 349 351
f 352 350 361 363
f 364 362 351 353
f 354 352 363 365
f 366 364 353 355
f 356 354 365 367
f 367 369 358 356
f 368 366 355 357
f 357 358 369 368
f 277 275 255 257
f 297 295 275 277
f 278 276 296 298
f 331 257 173 319
f 385 277 257 331
f 402 297 277 385
f 320 174 258 332
f 332 258 278 386
f 386 278 298 403
f 333 331 319 321
f 322 320 332 334
f 404 402 385 387
f 387 385 331 333
f 388 386 403 405
f 334 332 386 388
f 335 333 321 323
f 389 387 333 335
f 406 404 387 389
f 324 322 334 336
f 336 334 388 390
f 390 388 405 407
f 337 335 323 348
f 349 324 336 338
f 408 406 389 391
f 391 389 335 337
f 392 390 407 409
f 338 336 390 392
f 339 337 348 350
f 393 391 337 339
f 410 408 391 393
f 351 349 338 340
f 340 338 392 394
f 394 392 409 411
f 341 339 350 352
f 353 351 340 342
f 412 410 393 395
f 395 393 339 341
f 396 394 411 413
f 342 340 394 396
f 343 341 352 354
f 397 395 341 343
f 414 412 395 397
f 355 353 342 344
f 344 342 396 398
f 398 396 413 415
f 345 343 354 356
f 357 355 344 346
f 416 414 397 399
f 399 397 343 345
f 400 398 415 417
f 346 344 398 400
f 347 345 356 358
f 358 357 346 347
f 401 399 345 347
f 418 416 399 401
f 347 346 400 401
f 401 400 417 418
f 361 359 370 372
f 372 374 363 361
f 373 371 360 362
f 362 364 375 373
f 374 372 438 440
f 441 439 373 375
f 438 372 370 436
f 437 371 373 439
f 446 448 440 438
f 439 441 449 447
f 444 446 438 436
f 437 439 447 445
f 454 456 448 446
f 447 449 457 455
f 466 468 456 454
f 455 457 469 467
f 452 454 446 444
f 464 466 454 452
f 445 447 455 453
f 453 455 467 465
f 368 369 384 383
f 365 363 378 380
f 382 367 365 380
f 381 379 364 366
f 381 366 368 383
f 378 363 374 376
f 377 375 364 379
f 376 374 440 442
f 443 441 375 377
f 442 440 448 450
f 451 449 441 443
f 450 448 456 458
f 459 457 449 451
f 458 456 468 470
f 471 469 457 459
f 369 367 382 384
f 484 382 380 487
f 488 381 383 485
f 486 485 383 384
f 384 382 484 486
f 489 487 380 378
f 379 381 488 490
f 377 379 490 492
f 491 489 378 376
f 443 377 492 494
f 493 491 376 442
f 451 443 494 496
f 495 493 442 450
f 459 451 496 498
f 497 495 450 458
f 471 459 498 500
f 500 502 473 471
f 499 497 458 470
f 470 472 501 499
f 503 501 472 474
f 474 473 502 503
f 519 499 501 503
f 519 517 497 499
f 500 498 518 520
f 503 502 500 520
f 521 519 503 520
f 495 497 517 515
f 516 518 498 496
f 493 495 515 513
f 514 516 496 494
f 519 521 525 526
f 515 517 519 526
f 527 525 521 520
f 527 520 518 516
f 491 493 513 511
f 512 514 494 492
f 509 489 491 511
f 512 492 490 510
f 506 484 487 504
f 504 487 489 509
f 505 488 485 507
f 510 490 488 505
f 508 507 485 486
f 508 506 504 534
f 486 484 506 508
f 535 505 507 508
f 522 508 534 536
f 537 535 508 522
f 534 504 509 532
f 523 522 536 538
f 533 510 505 535
f 539 537 522 523
f 532 509 511 530
f 531 512 510 533
f 528 526 525 524
f 529 514 512 531
f 530 511 513 528
f 528 513 515 526
f 538 532 530 528
f 528 524 523 538
f 538 536 534 532
f 527 516 514 529
f 524 525 527 529
f 529 531 533 539
f 539 523 524 529
f 533 535 537 539
f 1 327 329 3
f 330 328 2 4
f 5 3 329 181
f 5 181 179 191
f 224 223 10 11
f 225 224 11 13
f 14 12 218 217
f 226 225 13 15
f 16 14 217 215
f 227 226 15 17
f 18 16 215 211
f 228 227 17 19
f 20 18 211 210
f 229 228 19 21
f 22 20 210 147
f 148 229 21 23
f 24 22 147 127
f 128 148 23 25
f 26 24 127 105
f 106 128 25 27
f 28 26 105 71
f 70 106 27 29
f 30 28 71 74
f 73 70 29 31
f 32 30 74 77
f 76 73 31 33
f 34 32 77 80
f 79 76 33 35
f 36 34 80 83
f 82 79 35 37
f 38 36 83 86
f 85 82 37 39
f 40 370 359 325
f 40 325 327 1
f 41 2 328 326
f 326 360 371 41
f 436 370 40 42
f 43 41 371 437
f 444 436 42 44
f 45 43 437 445
f 452 444 44 46
f 47 45 445 453
f 68 38 86 89
f 88 85 39 69
f 219 9 218 12
f 7 9 219 220
f 221 5 191 7
f 558 1 3 560
f 561 4 2 559
f 560 3 5 562
f 567 11 10 566
f 569 13 11 567
f 568 12 14 570
f 571 15 13 569
f 570 14 16 572
f 573 17 15 571
f 572 16 18 574
f 575 19 17 573
f 574 18 20 576
f 577 21 19 575
f 576 20 22 578
f 579 23 21 577
f 578 22 24 580
f 581 25 23 579
f 580 24 26 582
f 583 27 25 581
f 582 26 28 584
f 585 29 27 583
f 584 28 30 586
f 587 31 29 585
f 586 30 32 588
f 589 33 31 587
f 588 32 34 590
f 591 35 33 589
f 590 34 36 592
f 593 37 35 591
f 592 36 38 594
f 595 39 37 593
f 596 40 1 558
f 559 2 41 597
f 598 42 40 596
f 597 41 43 599
f 600 44 42 598
f 599 43 45 601
f 602 46 44 600
f 601 45 47 603
f 604 48 46 602
f 603 47 49 605
f 606 50 48 604
f 605 49 51 607
f 608 52 50 606
f 607 51 53 609
f 610 54 52 608
f 609 53 55 611
f 612 56 54 610
f 611 55 57 613
f 614 58 56 612
f 613 57 59 615
f 616 60 58 614
f 615 59 61 617
f 618 62 60 616
f 617 61 63 619
f 620 64 62 618
f 619 63 65 621
f 622 66 64 620
f 621 65 67 623
f 624 68 66 622
f 594 38 68 624
f 623 67 69 625
f 625 69 39 595
f 626 219 12 568
f 627 220 219 626
f 564 7 220 627
f 562 5 221 628
f 628 221 7 564
f 656 585 583 654
f 666 595 593 664
f 668 597 599 670
f 665 594 624 695
f 696 625 595 666
f 669 598 596 667
f 671 600 598 669
f 670 599 601 672
f 653 582 584 655
f 655 584 586 657
f 658 587 585 656
f 657 586 588 659
f 660 589 587 658
f 730 653 655 657
f 658 656 654 731
f 651 580 582 653
f 654 583 581 652
f 649 578 580 651
f 652 581 579 650
f 647 576 578 649
f 650 579 577 648
f 645 574 576 647
f 648 577 575 646
f 643 572 574 645
f 646 575 573 644
f 641 570 572 643
f 644 573 571 642
f 639 568 570 641
f 642 571 569 640
f 697 626 568 639
f 698 627 626 697
f 635 564 627 698
f 699 628 564 635
f 633 562 628 699
f 631 560 562 633
f 629 558 560 631
f 667 596 558 629
f 632 561 559 630
f 630 559 597 668
f 671 669 667 700
f 701 668 670 672
f 663 592 594 665
f 659 588 590 661
f 661 590 592 663
f 662 591 589 660
f 664 593 591 662
f 663 665 695 756
f 757 696 666 664
f 695 624 622 693
f 694 623 625 696
f 693 622 620 691
f 692 621 623 694
f 691 620 618 689
f 690 619 621 692
f 689 618 616 687
f 688 617 619 690
f 687 616 614 685
f 686 615 617 688
f 685 614 612 683
f 684 613 615 686
f 683 612 610 681
f 682 611 613 684
f 681 610 608 679
f 680 609 611 682
f 679 608 606 677
f 678 607 609 680
f 677 606 604 675
f 676 605 607 678
f 673 602 600 671
f 675 604 602 673
f 672 601 603 674
f 674 603 605 676
f 730 657 659 732
f 733 660 658 731
f 651 653 730 728
f 729 731 654 652
f 758 732 659 661
f 758 661 663 756
f 662 660 733 759
f 757 664 662 759
f 754 756 695 693
f 694 696 757 755
f 762 758 756 754
f 755 757 759 763
f 673 671 700 734
f 734 736 675 673
f 735 701 672 674
f 674 676 737 735
f 702 700 667 629
f 630 668 701 703
f 782 734 700 702
f 703 701 735 783
f 677 675 736 738
f 739 737 676 678
f 679 677 738 740
f 741 739 678 680
f 681 679 740 742
f 743 741 680 682
f 683 681 742 744
f 745 743 682 684
f 685 683 744 746
f 747 745 684 686
f 687 685 746 748
f 749 747 686 688
f 689 687 748 750
f 751 749 688 690
f 691 689 750 752
f 752 754 693 691
f 753 751 690 692
f 692 694 755 753
f 728 730 732 760
f 760 732 758 762
f 761 733 731 729
f 763 759 733 761
f 726 724 647 649
f 649 651 728 726
f 650 648 725 727
f 727 729 652 650
f 645 647 724 722
f 723 725 648 646
f 722 724 726 784
f 785 727 725 723
f 643 645 722 720
f 721 723 646 644
f 641 643 720 718
f 719 721 644 642
f 639 641 718 716
f 717 719 642 640
f 784 760 762 764
f 764 762 754 752
f 726 728 760 784
f 765 763 761 785
f 753 755 763 765
f 785 761 729 727
f 766 764 752 750
f 786 784 764 766
f 720 722 784 786
f 751 753 765 767
f 767 765 785 787
f 787 785 723 721
f 768 766 750 748
f 788 786 766 768
f 718 720 786 788
f 749 751 767 769
f 769 767 787 789
f 789 787 721 719
f 770 768 748 746
f 747 749 769 771
f 716 718 788 790
f 790 788 768 770
f 791 789 719 717
f 771 769 789 791
f 633 699 708 706
f 697 639 716 714
f 698 697 714 712
f 710 708 699 635
f 635 698 712 710
f 772 770 746 744
f 792 790 770 772
f 714 716 790 792
f 745 747 771 773
f 773 771 791 793
f 774 772 744 742
f 794 792 772 774
f 712 714 792 794
f 743 745 773 775
f 775 773 793 795
f 776 774 742 740
f 796 794 774 776
f 710 712 794 796
f 741 743 775 777
f 777 775 795 797
f 797 795 713 711
f 706 708 710 796
f 706 796 776 778
f 778 776 740 738
f 779 777 797 707
f 739 741 777 779
f 704 702 629 631
f 780 782 702 704
f 631 633 706 704
f 704 706 778 780
f 780 778 738 736
f 780 736 734 782
f 632 630 703 705
f 705 703 783 781
f 781 779 707 705
f 737 739 779 781
f 783 735 737 781
f 638 567 566 637
f 640 569 567 638
f 638 637 713 715
f 715 717 640 638
f 715 713 795 793
f 793 791 717 715
f 192 180 182 6
f 192 190 178 180
f 238 237 190 192
f 222 223 237 238
f 798 222 238 192
f 182 330 4 6
f 8 10 223 222
f 798 192 6 799
f 8 222 798 799
f 563 6 4 561
f 566 10 8 565
f 799 6 563 800
f 565 8 799 800
f 634 563 561 632
f 634 632 705 707
f 637 566 565 636
f 711 713 637 636
f 801 634 707 709
f 709 707 797 711
f 709 711 636 801
f 800 563 634 801
f 636 565 800 801
f 483 482 473 474
f 474 472 481 483
f 86 87 90 89
f 88 90 87 85
f 556 66 68 89
f 88 69 67 557
f 64 66 556 554
f 555 557 67 65
f 552 62 64 554
f 555 65 63 553
f 60 62 552 550
f 551 553 63 61
f 58 60 550 548
f 549 551 61 59
f 56 58 548 546
f 547 549 59 57
f 546 548 854 856
f 857 855 549 547
f 811 810 814 812
f 822 556 89 812
f 830 554 556 822
f 823 557 555 831
f 846 550 552 838
f 838 552 554 830
f 854 548 550 846
f 839 553 551 847
f 831 555 553 839
f 847 551 549 855
f 856 854 846 848
f 849 847 855 857
f 848 846 838 840
f 841 839 847 849
f 824 822 812 814
f 832 830 822 824
f 840 838 830 832
f 825 823 831 833
f 833 831 839 841
f 826 824 814 816
f 834 832 824 826
f 842 840 832 834
f 827 825 833 835
f 835 833 841 843
f 850 848 840 842
f 843 841 849 851
f 54 56 546 544
f 544 546 856 858
f 858 856 848 850
f 545 547 57 55
f 859 857 547 545
f 851 849 857 859
f 52 54 544 542
f 543 545 55 53
f 50 52 542 540
f 541 543 53 51
f 811 90 88 813
f 812 89 90 811
f 813 88 557 823
f 810 811 813 815
f 815 813 823 825
f 816 814 810 809
f 809 810 815 817
f 817 815 825 827
f 818 816 809 808
f 808 809 817 819
f 480 471 473 482
f 481 472 470 479
f 461 49 47 453
f 541 51 49 461
f 452 46 48 460
f 460 48 50 540
f 469 471 480 478
f 477 479 470 468
f 467 469 478 476
f 475 477 468 466
f 463 461 453 465
f 463 465 467 476
f 464 452 460 462
f 475 466 464 462
f 861 859 545 543
f 820 818 808 807
f 828 826 816 818
f 836 834 826 828
f 844 842 834 836
f 852 850 842 844
f 860 858 850 852
f 542 544 858 860
f 540 542 860 862
f 869 867 475 462
f 871 869 462 460
f 871 460 540 862
f 872 828 818 820
f 878 836 828 877
f 879 844 836 878
f 880 852 844 879
f 881 860 852 880
f 882 862 860 881
f 884 867 869 885
f 885 869 871 886
f 886 871 862 882
f 877 828 872 887
f 887 872 820 876
f 876 820 873 888
f 888 873 874 889
f 902 887 876 891
f 894 879 878 893
f 896 881 880 895
f 900 885 886 901
f 903 888 889 904
f 895 880 879 894
f 893 878 877 892
f 892 877 887 902
f 891 876 888 903
f 897 882 881 896
f 901 886 882 897
f 899 884 885 900
f 900 901 897 906
f 897 896 895 906
f 898 899 900 906
f 906 903 904 905
f 906 895 894 893
f 906 893 892 902
f 906 902 891 903
f 907 898 906 905
f 890 889 874 875
f 883 884 899 898
f 905 904 889 890
f 477 475 867 865
f 865 867 884 883
f 803 483 481 479
f 480 482 483 803
f 803 479 477 865
f 909 865 883 908
f 908 883 898 907
f 908 907 905 890
f 908 890 875 909
f 910 803 865 909
f 819 817 827 829
f 829 827 835 837
f 845 843 851 853
f 837 835 843 845
f 853 851 859 861
f 863 861 543 541
f 863 541 461 870
f 863 870 917 918
f 910 909 875 804
f 805 804 875 874
f 913 845 853 861
f 913 861 863 918
f 806 805 874 873
f 873 820 807 806
f 837 845 913 912
f 829 837 912 911
f 821 819 829 911
f 807 808 819 821
f 925 806 807 821
f 926 925 821 911
f 911 912 927 926
f 924 913 918 921
f 924 923 926 927
f 927 912 913 924
f 868 870 461 463
f 916 917 870 868
f 921 918 917 916
f 866 868 463 476
f 920 921 916 915
f 915 916 868 866
f 923 924 921 920
f 478 480 803 864
f 864 866 476 478
f 864 803 910 914
f 914 915 866 864
f 919 804 805 922
f 914 910 804 919
f 922 923 920 919
f 919 920 915 914
f 922 805 806 925
f 925 926 923 922
f 126 101 102 103
f 104 102 101 125
f 295 297 299 301
f 302 300 298 296
f 293 295 301 303
f 304 302 296 294
f 291 293 303 305
f 306 304 294 292
f 289 291 305 307
f 308 306 292 290
f 287 289 307 309
f 310 308 290 288
f 285 287 309 311
f 312 310 288 286
f 283 285 311 313
f 314 312 286 284
f 281 283 313 315
f 316 314 284 282
f 279 281 315 317
f 317 104 125 279
f 318 316 282 280
f 280 126 103 318
f 419 299 297 402
f 403 298 300 420
f 421 419 402 404
f 405 403 420 422
f 423 421 404 406
f 407 405 422 424
f 425 423 406 408
f 409 407 424 426
f 427 425 408 410
f 411 409 426 428
f 429 427 410 412
f 413 411 428 430
f 431 429 412 414
f 415 413 430 432
f 433 431 414 416
f 417 415 432 434
f 435 433 416 418
f 418 417 434 435
f 802 103 102 104
f 967 802 104 929
f 932 301 299 930
f 931 300 302 933
f 934 303 301 932
f 933 302 304 935
f 936 305 303 934
f 935 304 306 937
f 938 307 305 936
f 937 306 308 939
f 940 309 307 938
f 939 308 310 941
f 942 311 309 940
f 941 310 312 943
f 944 313 311 942
f 943 312 314 945
f 946 315 313 944
f 945 314 316 947
f 948 317 315 946
f 929 104 317 948
f 947 316 318 949
f 949 318 103 928
f 930 299 419 950
f 951 420 300 931
f 950 419 421 952
f 953 422 420 951
f 952 421 423 954
f 955 424 422 953
f 954 423 425 956
f 957 426 424 955
f 956 425 427 958
f 959 428 426 957
f 958 427 429 960
f 961 430 428 959
f 960 429 431 962
f 963 432 430 961
f 962 431 433 964
f 965 434 432 963
f 964 433 435 966
f 966 435 434 965
f 928 103 802 967
f 1007 967 929 969
f 972 932 930 970
f 971 931 933 973
f 974 934 932 972
f 973 933 935 975
f 976 936 934 974
f 975 935 937 977
f 978 938 936 976
f 977 937 939 979
f 980 940 938 978
f 979 939 941 981
f 982 942 940 980
f 981 941 943 983
f 984 944 942 982
f 983 943 945 985
f 986 946 944 984
f 985 945 947 987
f 969 929 948 988
f 988 948 946 986
f 989 949 928 968
f 987 947 949 989
f 970 930 950 990
f 991 951 931 971
f 990 950 952 992
f 993 953 951 991
f 992 952 954 994
f 995 955 953 993
f 994 954 956 996
f 997 957 955 995
f 996 956 958 998
f 999 959 957 997
f 998 958 960 1000
f 1001 961 959 999
f 1000 960 962 1002
f 1003 963 961 1001
f 1002 962 964 1004
f 1005 965 963 1003
f 1004 964 966 1006
f 1006 966 965 1005
f 968 928 967 1007
f 1047 1007 969 1009
f 1012 972 970 1010
f 1011 971 973 1013
f 1014 974 972 1012
f 1013 973 975 1015
f 1016 976 974 1014
f 1015 975 977 1017
f 1018 978 976 1016
f 1017 977 979 1019
f 1020 980 978 1018
f 1019 979 981 1021
f 1022 982 980 1020
f 1021 981 983 1023
f 1024 984 982 1022
f 1023 983 985 1025
f 1026 986 984 1024
f 1025 985 987 1027
f 1009 969 988 1028
f 1028 988 986 1026
f 1029 989 968 1008
f 1027 987 989 1029
f 1010 970 990 1030
f 1031 991 971 1011
f 1030 990 992 1032
f 1033 993 991 1031
f 1032 992 994 1034
f 1035 995 993 1033
f 1034 994 996 1036
f 1037 997 995 1035
f 1036 996 998 1038
f 1039 999 997 1037
f 1038 998 1000 1040
f 1041 1001 999 1039
f 1040 1000 1002 1042
f 1043 1003 1001 1041
f 1042 1002 1004 1044
f 1045 1005 1003 1043
f 1044 1004 1006 1046
f 1046 1006 1005 1045
f 1008 968 1007 1047
f 1063 1023 1025 1065
f 1049 1009 1028 1068
f 1069 1029 1008 1048
f 1077 1037 1035 1075
f 1081 1041 1039 1079
f 1085 1045 1043 1083
f 1054 1014 1012 1052
f 1053 1013 1015 1055
f 1108 1054 1052 1092
f 1093 1053 1055 1109
f 1094 1092 1052 1106
f 1110 1108 1092 1094
f 1122 1054 1108 1110
f 1107 1053 1093 1095
f 1095 1093 1109 1111
f 1111 1109 1055 1123
f 1112 1110 1094 1096
f 1097 1095 1111 1113
f 1114 1112 1096 1098
f 1116 1114 1098 1100
f 1099 1097 1113 1115
f 1115 1117 1101 1099
f 1102 1096 1094 1106
f 1104 1098 1096 1102
f 1107 1095 1097 1103
f 1103 1097 1099 1105
f 1102 1106 1052 1050
f 1051 1053 1107 1103
f 1122 1110 1112 1118
f 1118 1112 1114 1120
f 1119 1113 1111 1123
f 1121 1115 1113 1119
f 1119 1123 1055 1057
f 1091 1117 1115 1121
f 1086 1046 1045 1085
f 1084 1044 1046 1086
f 1080 1040 1042 1082
f 1082 1042 1044 1084
f 1083 1043 1041 1081
f 1076 1036 1038 1078
f 1078 1038 1040 1080
f 1079 1039 1037 1077
f 1072 1032 1034 1074
f 1074 1034 1036 1076
f 1075 1035 1033 1073
f 1070 1030 1032 1072
f 1073 1033 1031 1071
f 1124 1075 1073 1071
f 1052 1012 1010 1050
f 1050 1010 1030 1070
f 1051 1011 1013 1053
f 1071 1031 1011 1051
f 1088 1100 1098 1104
f 1088 1104 1102 1050
f 1105 1099 1101 1089
f 1051 1103 1105 1089
f 1091 1089 1101 1117
f 1055 1015 1017 1057
f 1091 1121 1119 1057
f 1070 1072 1074 1124
f 1078 1080 1082 1124
f 1124 1079 1077 1075
f 1124 1071 1051 1126
f 1082 1084 1086 1124
f 1124 1086 1085 1083
f 1124 1083 1081 1079
f 1074 1076 1078 1124
f 1125 1050 1070 1124
f 1088 1050 1125 1127
f 1134 1124 1126 1128
f 1128 1126 1051 1089
f 1128 1089 1091 1130
f 1128 1130 1135 1134
f 1127 1125 1124 1134
f 1087 1047 1009 1049
f 1048 1008 1047 1087
f 1136 1087 1049 1068
f 1066 1026 1024 1064
f 1068 1028 1026 1066
f 1065 1025 1027 1067
f 1067 1027 1029 1069
f 1062 1022 1020 1060
f 1064 1024 1022 1062
f 1061 1021 1023 1063
f 1057 1017 1019 1059
f 1059 1019 1021 1061
f 1063 1065 1067 1138
f 1132 1130 1091 1057
f 1132 1057 1059 1138
f 1059 1061 1063 1138
f 1133 1132 1138 1136
f 1069 1048 1087 1136
f 1138 1067 1069 1136
f 1129 1127 1134 1135
f 1116 1100 1088 1090
f 1090 1088 1127 1129
f 1120 1114 1116 1090
f 1056 1016 1014 1054
f 1056 1118 1120 1090
f 1056 1054 1122 1118
f 1133 1131 1129 1135
f 1135 1130 1132 1133
f 1090 1129 1131 1139
f 1058 1018 1016 1056
f 1060 1020 1018 1058
f 1058 1056 1090 1139
f 1137 1066 1064 1062
f 1142 1058 1139 1141
f 1143 1142 1141 1144
f 1137 1136 1068 1066
f 1140 1133 1136 1137
f 1137 1062 1060 1058
f 1137 1058 1142 1143
f 1137 1143 1144 1140
f 1140 1139 1131 1133
f 1144 1141 1139 1140

