#  
#  
#  Created in TopoGun 3
#  www.topogun.com
#  

v 0.007565 0.218060 0.942686
v -0.002921 0.086433 0.881094
v -0.067501 0.112435 0.887798
v -0.109543 0.168167 0.898277
v -0.120920 0.236308 0.908357
v -0.098935 0.300788 0.917922
v -0.050090 0.348449 0.924688
v 0.016330 0.365247 0.926354
v 0.081726 0.342503 0.924217
v 0.127931 0.288751 0.917809
v 0.141944 0.218209 0.906913
v 0.118597 0.149399 0.894609
v 0.065671 0.100898 0.884410
v 0.001140 0.133796 0.914883
v -0.039612 0.148438 0.916408
v -0.065117 0.184434 0.922624
v -0.073767 0.227706 0.928522
v -0.058578 0.268286 0.935470
v -0.028503 0.299102 0.940202
v 0.013144 0.307033 0.942637
v 0.054233 0.294666 0.940982
v 0.081671 0.259821 0.937144
v 0.091948 0.215746 0.930386
v 0.076267 0.172574 0.923651
v 0.044240 0.140835 0.916658
v 0.004054 0.171305 0.930921
v -0.022976 0.171798 0.928553
v -0.032088 0.198689 0.934704
v -0.045343 0.223521 0.936434
v -0.028559 0.244883 0.942076
v -0.015767 0.270050 0.944375
v 0.010602 0.265652 0.946182
v 0.037660 0.266901 0.944972
v 0.047583 0.239952 0.943064
v 0.061848 0.215694 0.937878
v 0.044636 0.192438 0.935592
v 0.031169 0.167054 0.929064
v -0.008882 0.039956 0.803608
v -0.103603 0.074667 0.822199
v -0.166694 0.153038 0.843991
v -0.184249 0.251855 0.860867
v -0.151355 0.345360 0.874019
v -0.079060 0.415014 0.880013
v 0.019353 0.442966 0.873980
v 0.115289 0.404545 0.872722
v 0.180650 0.327263 0.861534
v 0.199382 0.228022 0.846369
v 0.166010 0.130756 0.829599
v 0.089852 0.062844 0.814182
v -0.012160 0.028901 0.737256
v -0.121700 0.064411 0.752979
v -0.199530 0.150435 0.771695
v -0.224932 0.265829 0.785111
v -0.187680 0.379522 0.796990
v -0.095333 0.456482 0.811803
v 0.020260 0.476586 0.814294
v 0.130203 0.438080 0.805513
v 0.205786 0.352184 0.787867
v 0.227601 0.238905 0.771942
v 0.188415 0.127685 0.757775
v 0.101001 0.051893 0.743173
v -0.014258 0.039857 0.662257
v -0.126190 0.073357 0.679192
v -0.206155 0.160156 0.697065
v -0.230282 0.277519 0.710581
v -0.189686 0.393668 0.723125
v -0.096005 0.471553 0.739005
v 0.019442 0.491507 0.741454
v 0.129775 0.452809 0.732623
v 0.205321 0.367091 0.715232
v 0.229164 0.252696 0.697254
v 0.190990 0.138496 0.682835
v 0.100691 0.061364 0.669434
v -0.014949 0.056265 0.623431
v -0.120824 0.091219 0.629825
v -0.196530 0.174275 0.644434
v -0.220881 0.283397 0.665312
v -0.181919 0.395351 0.682374
v -0.091995 0.470541 0.697707
v 0.018102 0.489457 0.700016
v 0.123703 0.452426 0.691564
v 0.195872 0.370755 0.674985
v 0.217597 0.263024 0.652110
v 0.179469 0.154223 0.631123
v 0.092995 0.078727 0.622497
v -0.015111 0.086268 0.580038
v -0.109626 0.117084 0.587125
v -0.178206 0.191262 0.601063
v -0.199362 0.289705 0.617578
v -0.163701 0.391302 0.633041
v -0.082591 0.459618 0.646987
v 0.015560 0.476351 0.648997
v 0.110308 0.443031 0.641431
v 0.174813 0.370317 0.626628
v 0.194063 0.273556 0.606105
v 0.159998 0.174061 0.588534
v 0.081325 0.106564 0.579256
v -0.014353 0.130293 0.541052
v -0.090453 0.155174 0.546658
v -0.146140 0.215505 0.558140
v -0.163368 0.294824 0.571353
v -0.133327 0.378773 0.584269
v -0.066981 0.435437 0.595708
v 0.011739 0.448577 0.597310
v 0.088762 0.421497 0.591133
v 0.140655 0.363156 0.579298
v 0.156084 0.284598 0.562579
v 0.128042 0.202290 0.548029
v 0.063281 0.146885 0.540421
f 16 15 27 28
f 18 17 29 30
f 20 19 31 32
f 22 21 33 34
f 24 23 35 36
f 37 26 14 25
f 17 16 28 29
f 19 18 30 31
f 21 20 32 33
f 23 22 34 35
f 32 31 30 1
f 36 35 34 1
f 15 14 26 27
f 28 27 26 1
f 1 26 37 36
f 30 29 28 1
f 34 33 32 1
f 25 24 36 37
f 3 2 14 15
f 4 3 15 16
f 5 4 16 17
f 6 5 17 18
f 7 6 18 19
f 8 7 19 20
f 9 8 20 21
f 10 9 21 22
f 11 10 22 23
f 12 11 23 24
f 13 12 24 25
f 25 14 2 13
f 38 2 3 39
f 39 3 4 40
f 40 4 5 41
f 41 5 6 42
f 42 6 7 43
f 43 7 8 44
f 44 8 9 45
f 45 9 10 46
f 46 10 11 47
f 47 11 12 48
f 48 12 13 49
f 49 13 2 38
f 50 38 39 51
f 51 39 40 52
f 52 40 41 53
f 53 41 42 54
f 54 42 43 55
f 55 43 44 56
f 56 44 45 57
f 57 45 46 58
f 58 46 47 59
f 59 47 48 60
f 61 49 38 50
f 60 48 49 61
f 62 50 51 63
f 63 51 52 64
f 64 52 53 65
f 65 53 54 66
f 66 54 55 67
f 67 55 56 68
f 68 56 57 69
f 69 57 58 70
f 70 58 59 71
f 71 59 60 72
f 73 61 50 62
f 72 60 61 73
f 74 62 63 75
f 75 63 64 76
f 76 64 65 77
f 77 65 66 78
f 78 66 67 79
f 79 67 68 80
f 80 68 69 81
f 81 69 70 82
f 82 70 71 83
f 83 71 72 84
f 85 73 62 74
f 84 72 73 85
f 86 74 75 87
f 87 75 76 88
f 88 76 77 89
f 89 77 78 90
f 90 78 79 91
f 91 79 80 92
f 92 80 81 93
f 93 81 82 94
f 94 82 83 95
f 95 83 84 96
f 97 85 74 86
f 96 84 85 97
f 98 86 87 99
f 99 87 88 100
f 100 88 89 101
f 101 89 90 102
f 102 90 91 103
f 103 91 92 104
f 104 92 93 105
f 105 93 94 106
f 106 94 95 107
f 107 95 96 108
f 108 96 97 109
f 109 97 86 98

