#  
#  
#  Created in TopoGun 3
#  www.topogun.com
#  

v -0.115458 2.181976 -1.375163
v -0.103270 2.225315 -1.375013
v -0.075721 2.260941 -1.375242
v -0.036682 2.283417 -1.375822
v 0.007936 2.289235 -1.376666
v 0.051266 2.277050 -1.377648
v 0.086812 2.249425 -1.378615
v 0.109291 2.210381 -1.379423
v 0.115126 2.165751 -1.379948
v 0.103091 2.122357 -1.380102
v 0.075400 2.086861 -1.379869
v 0.036366 2.064359 -1.379289
v -0.008266 2.058553 -1.378445
v -0.051576 2.070759 -1.377462
v -0.087177 2.098335 -1.376495
v -0.109641 2.137346 -1.375687
v -0.208401 2.180983 -0.785200
v -0.189052 2.260711 -0.784392
v -0.140841 2.327119 -0.782946
v -0.071545 2.370989 -0.781088
v 0.009329 2.384564 -0.779081
v 0.089145 2.365777 -0.777239
v 0.155621 2.317650 -0.775843
v 0.199660 2.248391 -0.775078
v 0.213835 2.167574 -0.775082
v 0.195025 2.087767 -0.775878
v 0.146599 2.021575 -0.777328
v 0.076861 1.978250 -0.779194
v -0.004118 1.964696 -0.781203
v -0.084079 1.983244 -0.783050
v -0.150849 2.030986 -0.784455
v -0.194912 2.100140 -0.785221
v -0.227563 2.175819 -0.753743
v -0.211269 2.263958 -0.753507
v -0.160957 2.338132 -0.752943
v -0.085592 2.386767 -0.752149
v 0.002300 2.404246 -0.751256
v 0.089932 2.385437 -0.750395
v 0.164464 2.335585 -0.749691
v 0.213621 2.260652 -0.749262
v 0.229050 2.172356 -0.749180
v 0.210900 2.084528 -0.749435
v 0.161943 2.009475 -0.749986
v 0.086990 1.960373 -0.750776
v -0.001028 1.943604 -0.751670
v -0.088808 1.961593 -0.752533
v -0.163031 2.011793 -0.753233
v -0.210649 2.087721 -0.753647
v -0.230956 2.175619 -0.319865
v -0.213197 2.264043 -0.320747
v -0.162439 2.338621 -0.321973
v -0.086756 2.387771 -0.323350
v 0.001767 2.404990 -0.324667
v 0.090054 2.386559 -0.325721
v 0.165002 2.336298 -0.326365
v 0.214656 2.260974 -0.326486
v 0.231401 2.172348 -0.326067
v 0.213209 2.084005 -0.325180
v 0.162770 2.009276 -0.323957
v 0.087189 1.959980 -0.322581
v -0.001366 1.943059 -0.321266
v -0.089656 1.961331 -0.320210
v -0.164647 2.011563 -0.319565
v -0.214010 2.087013 -0.319449
v -0.209511 2.175575 -0.291574
v -0.191988 2.255959 -0.291797
v -0.145715 2.324040 -0.292257
v -0.077494 2.369984 -0.292887
v 0.003398 2.385383 -0.293599
v 0.083949 2.368347 -0.294279
v 0.151106 2.320873 -0.294817
v 0.196349 2.252105 -0.295146
v 0.212423 2.171434 -0.295213
v 0.195040 2.091098 -0.294992
v 0.148214 2.023367 -0.294527
v 0.080071 1.977372 -0.293898
v -0.000729 1.962015 -0.293186
v -0.081253 1.978837 -0.292506
v -0.148545 2.026114 -0.291967
v -0.193947 2.094819 -0.291636
v -0.210597 2.167847 -0.194519
v -0.195916 2.249847 -0.193141
v -0.151049 2.320052 -0.191710
v -0.083433 2.368539 -0.190437
v -0.001945 2.385765 -0.189538
v 0.079991 2.370804 -0.189133
v 0.148917 2.324147 -0.189317
v 0.195528 2.255006 -0.190021
v 0.212524 2.173423 -0.191147
v 0.197753 2.091390 -0.192526
v 0.152750 2.021308 -0.193957
v 0.085365 1.972426 -0.195234
v 0.004075 1.954430 -0.196143
v -0.077604 1.970626 -0.196527
v -0.146415 2.017528 -0.196339
v -0.193475 2.086290 -0.195644
v -0.242049 2.172595 -0.166907
v -0.224398 2.265548 -0.165174
v -0.172199 2.344247 -0.164015
v -0.093754 2.397071 -0.163596
v -0.001560 2.417413 -0.163949
v 0.090778 2.397848 -0.165109
v 0.169365 2.345248 -0.166823
v 0.222120 2.266983 -0.168843
v 0.239836 2.174010 -0.170870
v 0.222621 2.080983 -0.172608
v 0.170850 2.001809 -0.173780
v 0.092411 1.949139 -0.174196
v -0.000192 1.930132 -0.173813
v -0.092866 1.948737 -0.172669
v -0.171536 2.001029 -0.170960
v -0.223921 2.079753 -0.168935
v -0.244982 2.172791 0.169737
v -0.227219 2.263607 0.169031
v -0.172174 2.347410 0.170945
v -0.097071 2.397189 0.172498
v -0.002184 2.418231 0.174683
v 0.092576 2.398876 0.172301
v 0.172518 2.346370 0.172501
v 0.224434 2.270355 0.168716
v 0.244553 2.178087 0.172322
v 0.228005 2.081471 0.172184
v 0.170745 1.997723 0.174426
v 0.088978 1.945878 0.174574
v 0.000257 1.927126 0.176129
v -0.094933 1.947757 0.174390
v -0.173381 2.000305 0.173509
v -0.225631 2.078238 0.174800
v -0.112826 2.185410 -1.859947
v -0.099702 2.227426 -1.859904
v -0.071610 2.261377 -1.860250
v -0.033235 2.282995 -1.860916
v 0.010512 2.287618 -1.861832
v 0.052436 2.274358 -1.862848
v 0.086315 2.246192 -1.863806
v 0.107578 2.207644 -1.864570
v 0.112333 2.163878 -1.865016
v 0.099289 2.121831 -1.865062
v 0.071383 2.087768 -1.864721
v 0.032651 2.066849 -1.864042
v -0.011135 2.062374 -1.863124
v -0.053268 2.075089 -1.862107
v -0.087350 2.102970 -1.861147
v -0.108418 2.141639 -1.860386
v 0.008412 2.267858 -1.910257
v 0.005003 2.230568 -1.932428
v -0.000569 2.173575 -1.938311
v -0.005441 2.119752 -1.929909
v -0.008689 2.085994 -1.909109
v 0.053197 2.168205 -1.931517
v 0.087384 2.164790 -1.911966
v 0.042990 2.210724 -1.931722
v 0.062891 2.193873 -1.927189
v 0.031306 2.235334 -1.927383
v 0.070885 2.234778 -1.908257
v 0.088003 2.201770 -1.908708
v 0.043367 2.260041 -1.906736
v 0.034721 2.130794 -1.929888
v -0.043355 2.138683 -1.929920
v 0.056317 2.142188 -1.926278
v -0.055416 2.175785 -1.931013
v 0.019858 2.111428 -1.924871
v -0.031843 2.116874 -1.925181
v 0.078117 2.129920 -1.908907
v 0.057725 2.103484 -1.906591
v 0.028748 2.087782 -1.906368
v -0.044848 2.095495 -1.907080
v -0.071013 2.117539 -1.907375
v -0.063250 2.152577 -1.925556
v -0.036282 2.215312 -1.932477
v -0.020369 2.238045 -1.928378
v -0.059638 2.201774 -1.927512
v -0.028471 2.264366 -1.909276
v -0.059920 2.243416 -1.910640
v -0.083457 2.213458 -1.909035
v -0.090468 2.176056 -1.909944
v -0.087381 2.144770 -1.906898
v -0.060428 2.170410 0.453545
v -0.056715 2.194000 0.453567
v -0.044337 2.214219 0.453173
v -0.024948 2.228377 0.452208
v -0.001912 2.234128 0.451490
v 0.022023 2.229675 0.450298
v 0.040875 2.217792 0.449496
v 0.054709 2.198699 0.448765
v 0.060392 2.175522 0.448208
v 0.056288 2.151946 0.448489
v 0.043822 2.131872 0.448839
v 0.024379 2.118322 0.449782
v 0.000661 2.112864 0.450834
v -0.024619 2.118300 0.451809
v -0.041539 2.129343 0.453036
v -0.054209 2.146609 0.453281
v -0.062836 2.172618 0.180318
v -0.058358 2.196695 0.180220
v -0.045137 2.217305 0.180155
v -0.025028 2.231244 0.180135
v -0.001122 2.236520 0.180160
v 0.022941 2.232069 0.180230
v 0.042731 2.219438 0.182860
v 0.057482 2.198714 0.180449
v 0.062704 2.174784 0.180566
v 0.058354 2.150692 0.180664
v 0.044939 2.130206 0.180728
v 0.024942 2.116123 0.180750
v 0.001047 2.110874 0.180724
v -0.023027 2.115295 0.180655
v -0.043502 2.128666 0.180553
v -0.057583 2.148700 0.180435
v -0.002520 2.274996 -0.057763
v 0.030379 2.270415 -0.057647
v 0.061068 2.252284 -0.059585
v 0.081615 2.230605 -0.059065
v 0.098240 2.185595 -0.059168
v 0.091030 2.136851 -0.060565
v 0.074499 2.110163 -0.060763
v 0.045722 2.085072 -0.061466
v 0.004052 2.074011 -0.061020
v -0.034827 2.080102 -0.061730
v -0.067568 2.097698 -0.061621
v -0.088647 2.131863 -0.061048
v -0.099079 2.174645 -0.061080
v -0.094141 2.210691 -0.061335
v -0.072247 2.244129 -0.062074
v -0.042058 2.265425 -0.059557
v -0.002450 2.411449 0.165748
v -0.096111 2.390830 0.165259
v -0.168741 2.341079 0.166749
v -0.220361 2.261587 0.164844
v -0.238182 2.174728 0.165915
v -0.219985 2.080212 0.168108
v -0.167647 2.003504 0.168379
v -0.092066 1.952958 0.168195
v -0.000795 1.934588 0.168313
v 0.084693 1.950871 0.167060
v 0.167185 2.003555 0.167956
v 0.219595 2.082946 0.166059
v 0.238991 2.181742 0.167867
v 0.218394 2.266309 0.164953
v 0.169249 2.340034 0.166328
v 0.089580 2.392378 0.163491
v 0.002683 2.098532 0.058653
v 0.032052 2.106250 0.059639
v 0.054870 2.124042 0.060680
v 0.069342 2.147825 0.060494
v 0.073662 2.179560 0.060588
v 0.064108 2.209781 0.060210
v 0.047003 2.230315 0.059248
v 0.023943 2.243650 0.059585
v -0.002311 2.247710 0.059504
v -0.030079 2.241259 0.058577
v -0.053353 2.225279 0.055783
v -0.068980 2.201009 0.057847
v -0.074310 2.172940 0.059428
v -0.067632 2.143123 0.060174
v -0.050418 2.118857 0.058566
v -0.026345 2.103391 0.058015
v -0.063003 2.170208 0.466746
v -0.058442 2.194755 0.466906
v -0.045013 2.215379 0.466594
v -0.024791 2.229192 0.465679
v -0.001372 2.234485 0.464974
v 0.022748 2.229916 0.463774
v 0.041703 2.217993 0.462964
v 0.055712 2.198748 0.462222
v 0.061663 2.175480 0.461636
v 0.057901 2.151524 0.461866
v 0.045688 2.130608 0.462116
v 0.025955 2.116138 0.462944
v 0.001219 2.109768 0.463875
v -0.025323 2.114944 0.464788
v -0.043624 2.126456 0.465997
v -0.056993 2.145127 0.466351
v -0.074193 2.169735 0.482633
v -0.067889 2.198581 0.483369
v -0.051267 2.222079 0.483604
v -0.027450 2.236764 0.483133
v -0.000787 2.241521 0.482759
v 0.025968 2.236002 0.481699
v 0.047046 2.222819 0.480823
v 0.063017 2.201640 0.479858
v 0.070452 2.175769 0.478857
v 0.067468 2.148311 0.478360
v 0.054224 2.123420 0.477925
v 0.031701 2.105276 0.477899
v 0.002126 2.096919 0.478398
v -0.029507 2.102597 0.479178
v -0.052049 2.116732 0.480604
v -0.067926 2.139856 0.481585
v -0.090485 2.169224 0.501639
v -0.082693 2.204751 0.502602
v -0.062044 2.233676 0.503016
v -0.032882 2.251836 0.502400
v -0.000061 2.257731 0.501858
v 0.032655 2.250755 0.500833
v 0.058402 2.234170 0.500062
v 0.077901 2.208271 0.498902
v 0.086991 2.176657 0.497663
v 0.083747 2.142971 0.496644
v 0.067567 2.112190 0.495900
v 0.039959 2.089583 0.495580
v 0.003356 2.079328 0.496159
v -0.035162 2.085990 0.497035
v -0.063142 2.103962 0.499026
v -0.083069 2.132662 0.500165
v -0.103407 2.168527 0.525379
v -0.094489 2.209483 0.526465
v -0.070581 2.242877 0.526947
v -0.036981 2.263648 0.526369
v 0.000714 2.270237 0.525812
v 0.038189 2.262407 0.524589
v 0.068018 2.243447 0.523559
v 0.090586 2.213626 0.522169
v 0.100924 2.177138 0.520832
v 0.097150 2.138340 0.519671
v 0.078337 2.102942 0.518924
v 0.046647 2.076879 0.518498
v 0.004523 2.065115 0.519126
v -0.039339 2.072579 0.520127
v -0.071779 2.093430 0.522363
v -0.094884 2.126675 0.523744
v -0.110035 2.167709 0.551758
v -0.100480 2.211591 0.552933
v -0.074750 2.247404 0.553463
v -0.038785 2.269524 0.552886
v 0.001450 2.276532 0.552281
v 0.041453 2.268251 0.550968
v 0.073410 2.247982 0.549847
v 0.097699 2.216083 0.548326
v 0.108795 2.176971 0.546872
v 0.104641 2.135408 0.545662
v 0.084529 2.097379 0.544835
v 0.050552 2.069484 0.544399
v 0.005430 2.056983 0.545077
v -0.041226 2.064771 0.546125
v -0.076076 2.087219 0.548510
v -0.100965 2.123026 0.550020
v -0.109784 2.166813 0.578945
v -0.100109 2.210845 0.580125
v -0.074178 2.246829 0.580651
v -0.038204 2.269110 0.580080
v 0.002095 2.276103 0.579470
v 0.042202 2.267829 0.578153
v 0.074202 2.247464 0.577016
v 0.098642 2.215412 0.575502
v 0.109878 2.176168 0.574038
v 0.105717 2.134387 0.572813
v 0.085484 2.096077 0.571981
v 0.051360 2.068060 0.571546
v 0.006013 2.055576 0.572230
v -0.040623 2.063262 0.573276
v -0.075563 2.085913 0.575668
v -0.100737 2.122026 0.577200
v -0.101795 2.165804 0.607652
v -0.092685 2.206920 0.608721
v -0.068301 2.240563 0.609179
v -0.034838 2.261426 0.608681
v 0.002653 2.267879 0.608124
v 0.040084 2.260190 0.606889
v 0.069787 2.241193 0.605804
v 0.092739 2.211240 0.604416
v 0.103286 2.174608 0.603077
v 0.099429 2.135528 0.601916
v 0.080475 2.099605 0.601158
v 0.048638 2.073458 0.600735
v 0.006234 2.061764 0.601387
v -0.037192 2.068856 0.602356
v -0.069611 2.090119 0.604568
v -0.093391 2.124001 0.606011
v -0.087800 2.164898 0.631055
v -0.079864 2.200678 0.631975
v -0.058593 2.230178 0.632451
v -0.029455 2.248191 0.631917
v 0.002977 2.253690 0.631428
v 0.035550 2.247042 0.630352
v 0.061321 2.230782 0.629559
v 0.081297 2.204501 0.628247
v 0.090488 2.172649 0.627090
v 0.087255 2.138568 0.626130
v 0.070718 2.107105 0.625525
v 0.043053 2.084361 0.625110
v 0.006031 2.074182 0.625676
v -0.031691 2.080294 0.626502
v -0.059684 2.098749 0.628473
v -0.080622 2.128505 0.629697
v -0.067641 2.164031 0.651144
v -0.061439 2.191994 0.651865
v -0.044596 2.215188 0.652210
v -0.021958 2.229202 0.651767
v 0.003122 2.233380 0.651378
v 0.028636 2.228220 0.650575
v 0.048379 2.215647 0.649928
v 0.064164 2.195014 0.648908
v 0.071357 2.170183 0.648028
v 0.068822 2.143545 0.647246
v 0.055816 2.118838 0.646756
v 0.034453 2.101023 0.646547
v 0.005406 2.093120 0.646921
v -0.023941 2.097802 0.647569
v -0.045369 2.112116 0.649149
v -0.062047 2.135656 0.650053
v -0.043225 2.163761 0.665483
v -0.040295 2.182652 0.665281
v -0.028904 2.197782 0.665575
v -0.014139 2.208369 0.664860
v 0.003309 2.210658 0.664837
v 0.020461 2.208047 0.663879
v 0.034247 2.198384 0.663696
v 0.045342 2.184957 0.662763
v 0.049279 2.167656 0.662757
v 0.048019 2.149495 0.661952
v 0.038348 2.133631 0.662293
v 0.023899 2.121356 0.662142
v 0.004934 2.117484 0.663135
v -0.013904 2.120048 0.663471
v -0.028353 2.130190 0.664505
v -0.039884 2.144859 0.664653
v -0.023101 2.164047 0.671850
v -0.026207 2.176759 0.670587
v -0.015045 2.183649 0.671823
v -0.008559 2.194600 0.670144
v 0.003613 2.191505 0.671177
v 0.015391 2.194741 0.669295
v 0.021893 2.184328 0.670499
v 0.032749 2.178556 0.668549
v 0.030477 2.166226 0.669978
v 0.034271 2.154014 0.668152
v 0.023808 2.146595 0.669992
v 0.017491 2.134944 0.668393
v 0.004647 2.137347 0.670440
v -0.008071 2.133830 0.669263
v -0.014764 2.144633 0.671235
v -0.026004 2.151067 0.670176
v 0.004074 2.164769 0.674167
f 33 34 18 17
f 17 32 48 33
f 34 35 19 18
f 35 36 20 19
f 36 37 21 20
f 37 38 22 21
f 38 39 23 22
f 39 40 24 23
f 40 41 25 24
f 41 42 26 25
f 42 43 27 26
f 43 44 28 27
f 44 45 29 28
f 45 46 30 29
f 46 47 31 30
f 47 48 32 31
f 49 50 34 33
f 33 48 64 49
f 50 51 35 34
f 51 52 36 35
f 52 53 37 36
f 53 54 38 37
f 54 55 39 38
f 55 56 40 39
f 56 57 41 40
f 57 58 42 41
f 58 59 43 42
f 59 60 44 43
f 60 61 45 44
f 61 62 46 45
f 62 63 47 46
f 63 64 48 47
f 65 66 50 49
f 49 64 80 65
f 66 67 51 50
f 67 68 52 51
f 68 69 53 52
f 69 70 54 53
f 70 71 55 54
f 71 72 56 55
f 72 73 57 56
f 73 74 58 57
f 74 75 59 58
f 75 76 60 59
f 76 77 61 60
f 77 78 62 61
f 78 79 63 62
f 79 80 64 63
f 81 82 66 65
f 65 80 96 81
f 82 83 67 66
f 83 84 68 67
f 84 85 69 68
f 85 86 70 69
f 86 87 71 70
f 87 88 72 71
f 88 89 73 72
f 89 90 74 73
f 90 91 75 74
f 91 92 76 75
f 92 93 77 76
f 93 94 78 77
f 94 95 79 78
f 95 96 80 79
f 97 98 82 81
f 81 96 112 97
f 98 99 83 82
f 99 100 84 83
f 100 101 85 84
f 101 102 86 85
f 102 103 87 86
f 103 104 88 87
f 104 105 89 88
f 105 106 90 89
f 106 107 91 90
f 107 108 92 91
f 108 109 93 92
f 109 110 94 93
f 110 111 95 94
f 111 112 96 95
f 16 32 17 1
f 31 32 16 15
f 30 31 15 14
f 29 30 14 13
f 28 29 13 12
f 27 28 12 11
f 26 27 11 10
f 25 26 10 9
f 24 25 9 8
f 23 24 8 7
f 22 23 7 6
f 21 22 6 5
f 20 21 5 4
f 19 20 4 3
f 18 19 3 2
f 1 17 18 2
f 136 135 7 8
f 8 9 137 136
f 134 133 5 6
f 6 7 135 134
f 157 134 135 155
f 155 152 154 157
f 156 153 152 155
f 155 135 136 156
f 162 148 147 158
f 151 150 153 156
f 156 136 137 151
f 138 137 9 10
f 164 151 137 138
f 164 160 150 151
f 139 138 10 11
f 158 160 164 165
f 140 139 11 12
f 12 13 141 140
f 165 164 138 139
f 165 139 140 166
f 166 140 141 149
f 166 162 158 165
f 149 148 162 166
f 147 148 163 159
f 152 153 150 147
f 147 150 160 158
f 154 152 147 146
f 145 133 134 157
f 157 154 146 145
f 161 147 159 169
f 142 141 13 14
f 167 149 141 142
f 163 148 149 167
f 143 142 14 15
f 159 163 167 168
f 168 167 142 143
f 144 143 15 16
f 177 168 143 144
f 177 169 159 168
f 129 144 16 1
f 176 177 144 129
f 176 161 169 177
f 130 129 1 2
f 175 176 129 130
f 175 172 161 176
f 131 130 2 3
f 132 131 3 4
f 4 5 133 132
f 173 145 146 171
f 132 133 145 173
f 171 146 147 170
f 170 147 161 172
f 174 173 171 170
f 170 172 175 174
f 131 132 173 174
f 174 175 130 131
f 99 98 114 115
f 100 99 115 116
f 116 117 101 100
f 113 114 98 97
f 128 113 97 112
f 127 128 112 111
f 126 127 111 110
f 125 126 110 109
f 124 125 109 108
f 123 124 108 107
f 122 123 107 106
f 121 122 106 105
f 120 121 105 104
f 119 120 104 103
f 102 101 117 118
f 118 119 103 102
f 231 230 113 128
f 232 231 128 127
f 233 232 127 126
f 234 233 126 125
f 235 234 125 124
f 236 235 124 123
f 237 236 123 122
f 238 237 122 121
f 239 238 121 120
f 240 239 120 119
f 241 240 119 118
f 241 118 117 226
f 227 226 117 116
f 228 227 116 115
f 229 228 115 114
f 229 114 113 230
f 217 218 234 235
f 216 217 235 236
f 215 216 236 237
f 214 215 237 238
f 213 214 238 239
f 212 213 239 240
f 211 212 240 241
f 210 211 241 226
f 225 210 226 227
f 224 225 227 228
f 223 224 228 229
f 222 223 229 230
f 221 222 230 231
f 220 221 231 232
f 233 234 218 219
f 219 220 232 233
f 243 205 206 242
f 242 206 207 257
f 242 218 217 243
f 257 219 218 242
f 244 204 205 243
f 243 217 216 244
f 245 203 204 244
f 244 216 215 245
f 246 202 203 245
f 245 215 214 246
f 247 201 202 246
f 246 214 213 247
f 248 200 201 247
f 247 213 212 248
f 249 199 200 248
f 248 212 211 249
f 250 198 199 249
f 249 211 210 250
f 251 197 198 250
f 250 210 225 251
f 252 196 197 251
f 251 225 224 252
f 253 195 196 252
f 252 224 223 253
f 254 194 195 253
f 253 223 222 254
f 255 209 194 254
f 254 222 221 255
f 256 208 209 255
f 255 221 220 256
f 257 207 208 256
f 256 220 219 257
f 195 194 178 179
f 196 195 179 180
f 197 196 180 181
f 198 197 181 182
f 199 198 182 183
f 200 199 183 184
f 201 200 184 185
f 202 201 185 186
f 203 202 186 187
f 204 203 187 188
f 205 204 188 189
f 206 205 189 190
f 207 206 190 191
f 208 207 191 192
f 209 208 192 193
f 193 178 194 209
f 259 179 178 258
f 260 180 179 259
f 261 181 180 260
f 262 182 181 261
f 263 183 182 262
f 264 184 183 263
f 265 185 184 264
f 266 186 185 265
f 267 187 186 266
f 268 188 187 267
f 269 189 188 268
f 270 190 189 269
f 271 191 190 270
f 272 192 191 271
f 273 193 192 272
f 258 178 193 273
f 275 259 258 274
f 276 260 259 275
f 277 261 260 276
f 278 262 261 277
f 279 263 262 278
f 280 264 263 279
f 281 265 264 280
f 282 266 265 281
f 283 267 266 282
f 284 268 267 283
f 285 269 268 284
f 286 270 269 285
f 287 271 270 286
f 288 272 271 287
f 274 258 273 289
f 289 273 272 288
f 291 275 274 290
f 292 276 275 291
f 293 277 276 292
f 294 278 277 293
f 295 279 278 294
f 296 280 279 295
f 297 281 280 296
f 298 282 281 297
f 299 283 282 298
f 300 284 283 299
f 301 285 284 300
f 302 286 285 301
f 303 287 286 302
f 304 288 287 303
f 290 274 289 305
f 305 289 288 304
f 307 291 290 306
f 308 292 291 307
f 309 293 292 308
f 310 294 293 309
f 311 295 294 310
f 312 296 295 311
f 313 297 296 312
f 314 298 297 313
f 315 299 298 314
f 316 300 299 315
f 317 301 300 316
f 318 302 301 317
f 319 303 302 318
f 320 304 303 319
f 306 290 305 321
f 321 305 304 320
f 323 307 306 322
f 324 308 307 323
f 325 309 308 324
f 326 310 309 325
f 327 311 310 326
f 328 312 311 327
f 329 313 312 328
f 330 314 313 329
f 331 315 314 330
f 332 316 315 331
f 333 317 316 332
f 334 318 317 333
f 335 319 318 334
f 336 320 319 335
f 322 306 321 337
f 337 321 320 336
f 339 323 322 338
f 340 324 323 339
f 341 325 324 340
f 342 326 325 341
f 343 327 326 342
f 344 328 327 343
f 345 329 328 344
f 346 330 329 345
f 347 331 330 346
f 348 332 331 347
f 349 333 332 348
f 350 334 333 349
f 351 335 334 350
f 352 336 335 351
f 338 322 337 353
f 353 337 336 352
f 355 339 338 354
f 356 340 339 355
f 357 341 340 356
f 358 342 341 357
f 359 343 342 358
f 360 344 343 359
f 361 345 344 360
f 362 346 345 361
f 363 347 346 362
f 364 348 347 363
f 365 349 348 364
f 366 350 349 365
f 367 351 350 366
f 368 352 351 367
f 354 338 353 369
f 369 353 352 368
f 371 355 354 370
f 372 356 355 371
f 373 357 356 372
f 374 358 357 373
f 375 359 358 374
f 376 360 359 375
f 377 361 360 376
f 378 362 361 377
f 379 363 362 378
f 380 364 363 379
f 381 365 364 380
f 382 366 365 381
f 383 367 366 382
f 384 368 367 383
f 370 354 369 385
f 385 369 368 384
f 387 371 370 386
f 388 372 371 387
f 389 373 372 388
f 390 374 373 389
f 391 375 374 390
f 392 376 375 391
f 393 377 376 392
f 394 378 377 393
f 395 379 378 394
f 396 380 379 395
f 397 381 380 396
f 398 382 381 397
f 399 383 382 398
f 400 384 383 399
f 386 370 385 401
f 401 385 384 400
f 403 387 386 402
f 404 388 387 403
f 405 389 388 404
f 406 390 389 405
f 407 391 390 406
f 408 392 391 407
f 409 393 392 408
f 410 394 393 409
f 411 395 394 410
f 412 396 395 411
f 413 397 396 412
f 414 398 397 413
f 415 399 398 414
f 416 400 399 415
f 402 386 401 417
f 417 401 400 416
f 421 405 404 420
f 423 407 406 422
f 425 409 408 424
f 427 411 410 426
f 429 413 412 428
f 431 415 414 430
f 433 417 416 432
f 422 406 405 421
f 419 403 402 418
f 418 402 417 433
f 420 404 403 419
f 424 408 407 423
f 426 410 409 425
f 430 414 413 429
f 432 416 415 431
f 434 418 433 432
f 424 423 422 434
f 428 412 411 427
f 428 427 426 434
f 434 430 429 428
f 434 422 421 420
f 420 419 418 434
f 426 425 424 434
f 432 431 430 434

