#  
#  
#  Created in TopoGun 3
#  www.topogun.com
#  

v 0.280217 1.558448 1.169611
v 0.356727 1.632667 1.109504
v 0.449934 1.694203 1.001776
v 0.505299 1.748063 0.867067
v 0.548744 1.785498 0.690522
v 0.585229 1.815076 0.468519
v 0.611629 1.843694 0.209662
v 0.628191 1.869688 -0.093007
v 0.608021 1.891348 -0.131213
v 0.614206 1.880522 -0.648327
v 0.631845 1.857509 -0.707840
v 0.612068 1.845698 -0.990677
v 0.596671 1.829973 -1.178701
v 0.557506 1.797499 -1.452340
v 0.521856 1.763720 -1.628296
v 0.493467 1.741139 -1.735721
v 0.463696 1.715693 -1.835731
v 0.436918 1.692073 -1.920912
v 0.401042 1.655549 -2.022393
v 0.368189 1.620762 -2.113323
v 0.336921 1.601951 -2.177785
v 0.321899 1.571030 -2.238275
v 0.293709 1.556040 -2.293323
v 0.316208 1.518795 -2.299002
v 0.379466 1.472775 -2.245542
v 0.449868 1.407309 -2.165902
v 0.514261 1.338054 -2.104296
v 0.569530 1.281459 -2.022302
v 0.632633 1.203372 -1.909058
v 0.684600 1.139843 -1.797570
v 0.724651 1.059572 -1.658267
v 0.761837 1.013374 -1.518618
v 0.810180 0.965278 -1.298120
v 0.812344 0.941383 -1.252702
v 0.853742 0.903243 -0.908111
v 0.871770 0.879401 -0.614825
v 0.881116 0.896109 -0.550549
v 0.882810 0.888711 -0.319995
v 0.879817 0.897232 -0.147788
v 0.868111 0.906671 0.042165
v 0.852775 0.928160 0.237568
v 0.835348 0.938694 0.355077
v 0.815756 0.957645 0.461633
v 0.798956 0.951999 0.510761
v 0.763273 0.990498 0.639166
v 0.715834 1.044206 0.770218
v 0.657994 1.110775 0.889911
v 0.580786 1.205427 0.997573
v 0.496677 1.303277 1.078928
v 0.388619 1.433251 1.144710
v 0.454271 1.532703 1.086675
v 0.450596 1.598519 1.063490
v 0.530172 1.616312 0.972500
v 0.597938 1.650180 0.825192
v 0.642726 1.682452 0.643158
v 0.673987 1.712592 0.433780
v 0.695214 1.743129 0.199306
v 0.705286 1.763486 -0.047729
v 0.702326 1.782070 -0.245544
v 0.706086 1.776922 -0.536436
v 0.706981 1.761419 -0.734846
v 0.696774 1.745351 -0.957864
v 0.679710 1.727594 -1.160595
v 0.654980 1.702473 -1.363299
v 0.622000 1.677500 -1.532732
v 0.586704 1.657380 -1.666124
v 0.548083 1.641165 -1.780672
v 0.513082 1.627729 -1.870723
v 0.484367 1.599768 -1.956631
v 0.441937 1.575073 -2.052835
v 0.398240 1.558011 -2.139296
v 0.364054 1.534536 -2.218688
v 0.429614 1.494801 -2.147845
v 0.443142 1.523418 -2.099728
v 0.493460 1.520825 -2.015746
v 0.546518 1.537017 -1.906146
v 0.559800 1.574036 -1.841185
v 0.603787 1.557637 -1.764482
v 0.654733 1.561590 -1.631919
v 0.696227 1.574701 -1.482289
v 0.730223 1.591893 -1.316192
v 0.756345 1.609017 -1.132249
v 0.775011 1.622505 -0.935456
v 0.787147 1.633935 -0.726085
v 0.792558 1.641082 -0.510968
v 0.793999 1.637641 -0.271095
v 0.791183 1.622902 -0.046089
v 0.779961 1.604135 0.187095
v 0.756424 1.581865 0.409737
v 0.722245 1.557444 0.610490
v 0.676252 1.525333 0.796628
v 0.589948 1.498017 0.969266
v 0.470458 1.454636 1.095668
v 0.557449 1.391852 1.033801
v 0.639653 1.306757 0.950534
v 0.717154 1.235586 0.838975
v 0.771252 1.157371 0.720042
v 0.806218 1.096796 0.603762
v 0.829272 1.055165 0.506040
v 0.850308 1.046272 0.420353
v 0.868791 1.032350 0.309592
v 0.882990 1.016825 0.192895
v 0.898947 1.017592 0.044222
v 0.912236 1.021327 -0.132617
v 0.919016 1.021884 -0.319684
v 0.916880 1.023190 -0.518322
v 0.907402 1.029861 -0.691302
v 0.889788 1.048125 -0.916786
v 0.863839 1.070993 -1.147746
v 0.839312 1.093239 -1.299020
v 0.799202 1.122908 -1.459086
v 0.761549 1.159515 -1.581585
v 0.725126 1.224782 -1.695890
v 0.671280 1.281403 -1.811194
v 0.608948 1.347687 -1.914028
v 0.551892 1.378022 -2.009650
v 0.516412 1.450005 -2.027725
v 0.622013 1.450164 -1.826308
v 0.686266 1.350864 -1.744306
v 0.743713 1.320325 -1.605843
v 0.778021 1.235793 -1.535575
v 0.810882 1.229284 -1.428928
v 0.847974 1.219573 -1.281958
v 0.876253 1.208791 -1.114100
v 0.899795 1.196865 -0.914628
v 0.917452 1.185724 -0.708419
v 0.927914 1.177141 -0.510730
v 0.928344 1.169441 -0.307404
v 0.920962 1.155848 -0.108982
v 0.907826 1.130678 0.072054
v 0.895191 1.092738 0.177239
v 0.886405 1.131493 0.265308
v 0.866533 1.144180 0.397009
v 0.846975 1.129171 0.481994
v 0.835145 1.189149 0.538658
v 0.800883 1.260317 0.644842
v 0.742041 1.370939 0.757946
v 0.668332 1.394313 0.900074
v 0.783688 1.423261 0.581430
v 0.820388 1.433652 0.397906
v 0.848292 1.444289 0.177573
v 0.860550 1.466283 -0.053919
v 0.864339 1.482892 -0.279886
v 0.861898 1.491030 -0.504153
v 0.853691 1.491322 -0.716770
v 0.838545 1.487628 -0.921237
v 0.816913 1.481251 -1.114097
v 0.787809 1.471624 -1.292329
v 0.751347 1.460109 -1.458101
v 0.702704 1.449815 -1.627922
v 0.790078 1.339313 -1.441167
v 0.828355 1.345668 -1.281052
v 0.858331 1.346680 -1.107048
v 0.881501 1.344510 -0.914820
v 0.898888 1.340811 -0.712287
v 0.908083 1.334909 -0.505097
v 0.909653 1.323993 -0.290406
v 0.904700 1.302472 -0.069505
v 0.891350 1.257307 0.173080
v 0.856262 1.270371 0.413379
v 0.818846 1.319265 0.548536
v 0.269751 1.558970 1.171039
v 0.348338 1.639566 1.106788
v 0.441058 1.700690 0.999536
v 0.495480 1.752988 0.865291
v 0.539103 1.790927 0.689431
v 0.575621 1.820688 0.468005
v 0.601410 1.846940 0.209238
v 0.618565 1.873968 -0.089679
v 0.599950 1.891721 -0.129417
v 0.605126 1.880700 -0.649868
v 0.622828 1.863791 -0.710053
v 0.601955 1.848494 -0.990144
v 0.587687 1.835966 -1.178336
v 0.547716 1.798762 -1.450818
v 0.512072 1.764781 -1.626582
v 0.485190 1.739830 -1.732994
v 0.457112 1.712129 -1.832697
v 0.428702 1.694360 -1.919008
v 0.394235 1.654825 -2.019715
v 0.360621 1.622616 -2.110830
v 0.327738 1.607950 -2.176793
v 0.316110 1.575724 -2.237861
v 0.318743 1.509273 -2.300774
v 0.376692 1.463164 -2.250764
v 0.447040 1.398207 -2.171943
v 0.510597 1.328703 -2.109437
v 0.566371 1.271727 -2.027067
v 0.629015 1.193550 -1.913354
v 0.679889 1.130476 -1.801348
v 0.719579 1.050013 -1.661067
v 0.756555 1.003444 -1.519985
v 0.804552 0.955900 -1.300776
v 0.806651 0.931970 -1.255053
v 0.847786 0.893686 -0.908481
v 0.865056 0.870677 -0.613361
v 0.876032 0.886157 -0.549069
v 0.877573 0.878693 -0.319937
v 0.873498 0.887850 -0.147576
v 0.861003 0.897922 0.042260
v 0.847540 0.918171 0.237998
v 0.829425 0.929082 0.355297
v 0.810349 0.947815 0.460531
v 0.792861 0.942578 0.509742
v 0.756557 0.981522 0.640197
v 0.709200 1.035169 0.771780
v 0.651016 1.102095 0.891897
v 0.573241 1.197230 0.999466
v 0.488326 1.295925 1.079466
v 0.380423 1.425709 1.146457
v 0.268747 1.558295 1.167407
v 0.344084 1.639366 1.102402
v 0.436125 1.699689 0.996091
v 0.491448 1.748502 0.862621
v 0.534786 1.786712 0.687813
v 0.571559 1.816179 0.466956
v 0.598269 1.840868 0.208398
v 0.612902 1.871544 -0.089227
v 0.593771 1.890787 -0.128253
v 0.598858 1.880279 -0.650768
v 0.616653 1.864854 -0.710827
v 0.595813 1.850260 -0.989790
v 0.583682 1.831597 -1.177464
v 0.546439 1.790939 -1.449375
v 0.511499 1.757763 -1.624976
v 0.485669 1.732448 -1.731225
v 0.458449 1.704052 -1.831032
v 0.429646 1.686829 -1.917083
v 0.396562 1.646366 -2.017510
v 0.360336 1.616359 -2.114127
v 0.328411 1.605109 -2.178997
v 0.282862 1.560993 -2.300252
v 0.318688 1.506567 -2.300799
v 0.372843 1.460390 -2.249256
v 0.444026 1.392961 -2.173862
v 0.506571 1.324023 -2.110060
v 0.563038 1.266620 -2.028547
v 0.625445 1.188412 -1.914711
v 0.674449 1.127862 -1.801030
v 0.714269 1.048470 -1.660216
v 0.751006 1.000639 -1.519305
v 0.799418 0.952275 -1.301371
v 0.801109 0.929618 -1.255280
v 0.842592 0.889953 -0.908296
v 0.858888 0.870496 -0.612631
v 0.871950 0.881300 -0.548266
v 0.872226 0.876518 -0.319948
v 0.867370 0.886897 -0.147769
v 0.855091 0.899200 0.041720
v 0.842418 0.914706 0.237837
v 0.823753 0.928020 0.354439
v 0.805285 0.944349 0.459305
v 0.787206 0.941397 0.508045
v 0.750950 0.978568 0.639458
v 0.704356 1.031049 0.771729
v 0.646209 1.097881 0.892028
v 0.568035 1.193863 0.998391
v 0.483778 1.294661 1.075522
v 0.375443 1.422233 1.144737
v 0.284669 1.557168 1.153261
v 0.346223 1.624840 1.091976
v 0.434517 1.683888 0.987871
v 0.490583 1.730968 0.857239
v 0.534167 1.768681 0.684539
v 0.571466 1.798063 0.464884
v 0.598768 1.822724 0.206600
v 0.612173 1.854403 -0.093743
v 0.605360 1.863934 -0.133616
v 0.608848 1.848618 -0.646548
v 0.611552 1.849025 -0.708921
v 0.603810 1.806318 -0.986106
v 0.584275 1.813602 -1.175331
v 0.549142 1.781430 -1.438699
v 0.514458 1.740375 -1.621918
v 0.490751 1.709594 -1.728222
v 0.461884 1.694893 -1.826240
v 0.434760 1.670009 -1.913748
v 0.402263 1.623183 -2.020806
v 0.364316 1.612743 -2.108652
v 0.325660 1.597784 -2.189589
v 0.287232 1.560176 -2.292319
v 0.294268 1.541198 -2.301620
v 0.320417 1.511997 -2.287665
v 0.409722 1.435573 -2.198662
v 0.458212 1.378603 -2.142224
v 0.511459 1.318843 -2.085133
v 0.554217 1.273845 -2.018057
v 0.615545 1.196124 -1.905194
v 0.665481 1.141623 -1.790300
v 0.706898 1.064096 -1.651049
v 0.741112 1.014316 -1.512899
v 0.787908 0.963048 -1.296031
v 0.792165 0.946191 -1.249590
v 0.829256 0.899354 -0.906236
v 0.849235 0.886957 -0.612180
v 0.861308 0.887268 -0.532971
v 0.862773 0.893825 -0.320450
v 0.858109 0.902442 -0.149153
v 0.846545 0.916654 0.039868
v 0.832293 0.929066 0.235369
v 0.814009 0.944847 0.350590
v 0.793781 0.956851 0.450081
v 0.777554 0.957111 0.503192
v 0.738171 0.987261 0.632574
v 0.690767 1.034901 0.764287
v 0.633688 1.100265 0.882832
v 0.561937 1.201533 0.984652
v 0.482532 1.304058 1.059501
v 0.374526 1.427068 1.128551
v 0.314133 1.572838 -2.237700
v 0.314164 1.576096 -2.237631
v 0.293711 1.539224 -2.307598
v 0.306360 1.521207 -2.307042
v 0.310109 1.520995 -2.296441
v 0.342974 1.535559 -2.219393
v 0.425254 1.462689 -2.121589
v 0.396207 1.549748 -2.099729
v 0.480912 1.457069 -1.983467
v 0.592378 1.338297 -1.766831
v 0.674450 1.208252 -1.567049
v 0.504915 1.544216 -1.826683
v 0.597903 1.559540 -1.430804
v 0.719105 1.236784 -1.181367
v 0.661877 1.532350 -0.979658
v 0.675925 1.546783 -0.656946
v 0.681591 1.535206 -0.355002
v 0.759149 1.231441 -0.517848
v 0.754319 1.210726 0.024637
v 0.732139 1.238199 0.205320
v 0.687987 1.281960 0.439338
v 0.574692 1.404080 0.766352
v 0.485827 1.478714 0.943263
v 0.413297 1.556275 1.024610
v 0.487746 1.601534 0.888713
v 0.515708 1.660321 0.795589
v 0.560576 1.650942 0.635639
v 0.599565 1.669759 0.418341
v 0.641652 1.622640 0.149771
v 0.552892 1.541339 0.736280
v 0.635725 1.445157 0.483811
v 0.679542 1.396298 0.282130
v 0.706492 1.377807 0.047907
f 74 73 72 71
f 75 74 71 70
f 76 75 70 69
f 77 76 69 68
f 78 77 68 67
f 117 73 74 75
f 115 116 117 118
f 92 53 52 51
f 92 51 93 94
f 92 94 95 138
f 54 53 92 91
f 138 95 96 137
f 91 92 138 137
f 118 117 75 76
f 118 76 77 78
f 119 114 115 118
f 55 54 91 90
f 56 55 90 89
f 57 56 89 88
f 58 57 88 87
f 59 58 87 86
f 60 59 86 85
f 61 60 85 84
f 62 61 84 83
f 63 62 83 82
f 64 63 82 81
f 65 64 81 80
f 79 78 67 66
f 66 65 80 79
f 113 114 119 120
f 150 118 78 79
f 120 119 118 150
f 120 121 112 113
f 90 91 137 139
f 137 96 97 136
f 161 139 137 136
f 89 90 139 140
f 88 89 140 141
f 87 88 141 142
f 86 87 142 143
f 85 86 143 144
f 84 85 144 145
f 83 84 145 146
f 82 83 146 147
f 81 82 147 148
f 80 81 148 149
f 149 150 79 80
f 122 121 120 151
f 111 112 121 122
f 151 120 150 149
f 110 111 122 123
f 123 122 151 152
f 152 151 149 148
f 109 110 123 124
f 124 123 152 153
f 153 152 148 147
f 108 109 124 125
f 125 124 153 154
f 154 153 147 146
f 107 108 125 126
f 126 125 154 155
f 155 154 146 145
f 106 107 126 127
f 127 126 155 156
f 156 155 145 144
f 105 106 127 128
f 128 127 156 157
f 157 156 144 143
f 104 105 128 129
f 129 128 157 158
f 158 157 143 142
f 103 104 129 130
f 130 131 102 103
f 132 131 130 159
f 101 102 131 132
f 159 158 142 141
f 130 129 158 159
f 100 101 132 133
f 133 134 99 100
f 140 139 161 160
f 135 134 133 160
f 98 99 134 135
f 135 136 97 98
f 160 161 136 135
f 160 159 141 140
f 133 132 159 160
f 1 51 52 2
f 3 2 52 53
f 4 3 53 54
f 5 4 54 55
f 6 5 55 56
f 7 6 56 57
f 8 7 57 58
f 9 8 58 59
f 10 9 59 60
f 11 10 60 61
f 12 11 61 62
f 13 12 62 63
f 14 13 63 64
f 15 14 64 65
f 16 15 65 66
f 17 16 66 67
f 18 17 67 68
f 19 18 68 69
f 20 19 69 70
f 21 20 70 71
f 22 21 71 72
f 26 25 73 117
f 27 26 117 116
f 28 27 116 115
f 29 28 115 114
f 30 29 114 113
f 31 30 113 112
f 32 31 112 111
f 33 32 111 110
f 34 33 110 109
f 35 34 109 108
f 36 35 108 107
f 37 36 107 106
f 38 37 106 105
f 39 38 105 104
f 40 39 104 103
f 41 40 103 102
f 42 41 102 101
f 43 42 101 100
f 44 43 100 99
f 45 44 99 98
f 46 45 98 97
f 47 46 97 96
f 48 47 96 95
f 49 48 95 94
f 50 49 94 93
f 50 93 51 1
f 162 1 2 163
f 163 2 3 164
f 164 3 4 165
f 165 4 5 166
f 166 5 6 167
f 167 6 7 168
f 168 7 8 169
f 169 8 9 170
f 170 9 10 171
f 171 10 11 172
f 172 11 12 173
f 173 12 13 174
f 174 13 14 175
f 175 14 15 176
f 176 15 16 177
f 177 16 17 178
f 178 17 18 179
f 179 18 19 180
f 180 19 20 181
f 185 25 26 186
f 186 26 27 187
f 187 27 28 188
f 188 28 29 189
f 189 29 30 190
f 190 30 31 191
f 191 31 32 192
f 192 32 33 193
f 193 33 34 194
f 194 34 35 195
f 195 35 36 196
f 196 36 37 197
f 197 37 38 198
f 198 38 39 199
f 199 39 40 200
f 200 40 41 201
f 201 41 42 202
f 202 42 43 203
f 203 43 44 204
f 204 44 45 205
f 205 45 46 206
f 206 46 47 207
f 207 47 48 208
f 208 48 49 209
f 209 49 50 210
f 210 50 1 162
f 211 162 163 212
f 212 163 164 213
f 213 164 165 214
f 214 165 166 215
f 215 166 167 216
f 216 167 168 217
f 217 168 169 218
f 218 169 170 219
f 219 170 171 220
f 220 171 172 221
f 221 172 173 222
f 222 173 174 223
f 223 174 175 224
f 224 175 176 225
f 225 176 177 226
f 226 177 178 227
f 227 178 179 228
f 228 179 180 229
f 229 180 181 230
f 234 185 186 235
f 235 186 187 236
f 236 187 188 237
f 237 188 189 238
f 238 189 190 239
f 239 190 191 240
f 240 191 192 241
f 241 192 193 242
f 242 193 194 243
f 243 194 195 244
f 244 195 196 245
f 245 196 197 246
f 246 197 198 247
f 247 198 199 248
f 248 199 200 249
f 249 200 201 250
f 250 201 202 251
f 251 202 203 252
f 252 203 204 253
f 253 204 205 254
f 254 205 206 255
f 255 206 207 256
f 256 207 208 257
f 257 208 209 258
f 259 210 162 211
f 258 209 210 259
f 267 218 219 268
f 272 223 224 273
f 275 226 227 276
f 278 229 230 279
f 289 239 240 290
f 292 242 243 293
f 295 245 246 296
f 299 249 250 300
f 302 252 253 303
f 304 254 255 305
f 309 259 211 260
f 181 20 21 182
f 231 230 181 182
f 311 231 182 183
f 182 21 22 183
f 311 183 232
f 232 183 22 23
f 312 232 23 24
f 24 25 185 184
f 184 185 234 233
f 24 23 22 72
f 72 73 25 24
f 313 312 24
f 24 184 233 313
f 312 313 314 282
f 314 313 233 283
f 282 281 232 312
f 311 232 281 310
f 283 233 234 284
f 279 230 231 280
f 280 231 311 310
f 310 281 282 315
f 315 282 314 283
f 278 279 280 317
f 315 283 284 316
f 284 234 235 285
f 285 235 236 286
f 286 236 237 287
f 318 316 284 285
f 318 285 286 287
f 287 237 238 288
f 288 238 239 289
f 290 240 241 291
f 317 280 310 315
f 317 315 316 318
f 276 227 228 277
f 277 228 229 278
f 319 318 287 288
f 277 278 317 321
f 321 317 318 319
f 275 276 277 321
f 273 224 225 274
f 274 225 226 275
f 322 321 319 320
f 320 319 288 289
f 320 289 290 291
f 291 241 242 292
f 293 243 244 294
f 323 292 293 294
f 274 275 321 322
f 272 273 274 322
f 271 222 223 272
f 271 272 322 324
f 270 221 222 271
f 268 219 220 269
f 269 220 221 270
f 323 320 291 292
f 324 322 320 323
f 270 271 324 325
f 294 244 245 295
f 296 246 247 297
f 327 323 294 295
f 325 324 323 327
f 327 295 296 297
f 297 247 248 298
f 328 327 297 298
f 298 248 249 299
f 300 250 251 301
f 329 299 300 301
f 301 251 252 302
f 303 253 254 304
f 305 255 256 306
f 306 256 257 307
f 260 211 212 261
f 307 257 258 308
f 308 258 259 309
f 333 332 308 309
f 309 260 261 333
f 261 212 213 262
f 326 325 327 328
f 266 217 218 267
f 265 216 217 266
f 264 215 216 265
f 262 213 214 263
f 263 214 215 264
f 334 333 261 262
f 334 262 263 335
f 336 335 263 264
f 339 332 333 334
f 339 334 335 336
f 331 307 308 332
f 337 336 264 265
f 331 332 339 340
f 340 339 336 337
f 330 302 303 304
f 330 304 305 306
f 330 306 307 331
f 329 328 298 299
f 329 301 302 330
f 269 270 325 326
f 267 268 269 326
f 326 328 329 342
f 338 337 265 266
f 341 340 337 338
f 266 267 326 338
f 338 326 342 341
f 330 331 340 341
f 342 329 330 341

