#  
#  
#  Created in TopoGun 3
#  www.topogun.com
#  

v -0.103292 1.543337 0.115624
v -0.093697 1.431062 0.044956
v -0.098376 1.417883 0.001225
v -0.100828 1.534104 -0.115383
v -0.101540 1.578797 -0.108548
v -0.102332 1.617429 -0.085035
v -0.103083 1.644063 -0.048476
v -0.103679 1.654661 -0.004519
v -0.104029 1.647618 0.040152
v -0.104079 1.624014 0.078752
v -0.103820 1.587348 0.105236
v -0.142824 1.543423 0.114212
v -0.143075 1.499052 0.105722
v -0.143178 1.460508 0.079245
v -0.142991 1.432530 0.035907
v -0.142252 1.425855 0.003456
v -0.143009 1.431888 -0.038914
v -0.142231 1.455717 -0.077193
v -0.142001 1.492389 -0.103172
v -0.141442 1.536061 -0.113599
v -0.140911 1.580447 -0.107071
v -0.140721 1.618636 -0.084013
v -0.140854 1.644535 -0.045497
v -0.140299 1.653331 -0.003760
v -0.141141 1.647054 0.038185
v -0.141914 1.623799 0.078146
v -0.142323 1.587151 0.104232
v 0.101864 1.539139 0.115703
v 0.101958 1.583547 0.106946
v 0.101786 1.621156 0.081747
v 0.101377 1.646140 0.043992
v 0.100794 1.654761 -0.000431
v 0.100126 1.645703 -0.044762
v 0.099474 1.620347 -0.082261
v 0.098940 1.582521 -0.107107
v 0.098605 1.538064 -0.115499
v 0.098376 1.417883 0.001225
v 0.093697 1.431062 0.044956
v 0.142791 1.543597 0.114223
v 0.142336 1.587221 0.104147
v 0.141888 1.623733 0.077754
v 0.141802 1.647051 0.036965
v 0.140322 1.653328 -0.003760
v 0.140267 1.644260 -0.047027
v 0.140312 1.618715 -0.084030
v 0.140419 1.580389 -0.107260
v 0.140684 1.536146 -0.113968
v 0.141219 1.492310 -0.103479
v 0.141776 1.455767 -0.077630
v 0.142219 1.431769 -0.039416
v 0.141468 1.425758 0.009073
v 0.142455 1.436288 0.046414
v 0.142466 1.462219 0.082326
v 0.143427 1.498932 0.105051
v -0.102781 0.891230 0.115697
v -0.099063 1.007739 -0.006335
v -0.098770 0.886477 -0.115583
v -0.099210 0.842313 -0.105924
v -0.099889 0.805192 -0.080118
v -0.100704 0.780702 -0.042099
v -0.101530 0.772702 0.002395
v -0.102241 0.782540 0.046519
v -0.102727 0.808591 0.083496
v -0.102917 0.846708 0.107825
v -0.139924 0.891163 0.115512
v -0.139836 0.934955 0.105564
v -0.139611 0.971393 0.079358
v -0.139285 0.995018 0.041166
v -0.138911 1.002973 -0.002988
v -0.138540 0.993522 -0.046866
v -0.138232 0.967687 -0.083537
v -0.138031 0.929888 -0.107709
v -0.137970 0.885630 -0.115368
v -0.138060 0.841868 -0.105326
v -0.138283 0.805223 -0.079349
v -0.138607 0.781206 -0.041397
v -0.138981 0.773251 0.002778
v -0.139351 0.783262 0.046562
v -0.139660 0.809155 0.083304
v -0.139862 0.846942 0.107632
v 0.099133 0.891225 0.115681
v 0.096060 0.886142 -0.115558
v 0.094363 0.842072 -0.105781
v 0.093156 0.805044 -0.079923
v 0.092621 0.780642 -0.041885
v 0.092845 0.772728 0.002593
v 0.093799 0.782638 0.046658
v 0.095332 0.808714 0.083548
v 0.097202 0.846779 0.107821
v 0.137000 0.891158 0.115715
v 0.137384 0.935074 0.105742
v 0.137623 0.971655 0.079510
v 0.137681 0.995412 0.041244
v 0.137556 1.003215 -0.003073
v 0.137263 0.993658 -0.047059
v 0.136842 0.967680 -0.083803
v 0.136361 0.929712 -0.107963
v 0.135893 0.885321 -0.115560
v 0.135510 0.841455 -0.105446
v 0.135269 0.804688 -0.079434
v 0.135206 0.780631 -0.041351
v 0.135331 0.772811 0.002985
v 0.135629 0.782816 0.046895
v 0.136050 0.808829 0.083691
v 0.136531 0.846799 0.107933
v 0.001484 1.467154 0.095911
v 0.040177 1.464510 0.090362
v 0.070580 1.448208 0.073560
v 0.088657 1.428637 -0.044909
v 0.068343 1.444364 -0.071830
v 0.040208 1.462335 -0.089671
v -0.001982 1.476762 -0.098419
v -0.040208 1.462335 -0.089671
v -0.071154 1.444563 -0.070771
v -0.088657 1.428637 -0.044909
v -0.070580 1.448208 0.073560
v -0.040177 1.464510 0.090362
v 0.001758 0.955561 0.096904
v 0.041818 0.966086 0.088802
v 0.072438 0.985018 0.068442
v 0.093478 1.000564 0.037865
v 0.099063 1.007739 -0.006335
v 0.089063 0.997880 -0.044059
v 0.070517 0.983208 -0.069802
v 0.044268 0.962275 -0.090022
v -0.001388 0.950470 -0.098698
v -0.044268 0.962275 -0.090022
v -0.070517 0.983208 -0.069802
v -0.089063 0.997880 -0.044059
v -0.093478 1.000564 0.037865
v -0.072438 0.985018 0.068442
v -0.041818 0.966086 0.088802
v 0.000000 1.545443 0.115265
v 0.000000 1.539259 -0.115524
v 0.000000 1.581926 -0.107225
v 0.000000 1.621383 -0.080682
v 0.000000 1.644735 -0.046164
v 0.000000 1.654354 -0.006962
v 0.000000 1.645752 0.044653
v 0.000000 1.621244 0.081373
v 0.000000 1.581616 0.107352
v 0.000000 0.897488 0.115102
v 0.000000 0.845542 0.107050
v 0.000000 0.805236 0.079753
v 0.000000 0.783308 0.047851
v 0.000000 0.772825 -0.005279
v 0.000000 0.781654 -0.044378
v 0.000000 0.806342 -0.081064
v 0.000000 0.841656 -0.105312
v 0.000000 0.891603 -0.115249
v -0.145394 0.891042 0.110523
v -0.145275 0.932895 0.100992
v -0.145033 0.967489 0.075714
v -0.144711 0.989782 0.039107
v -0.144702 0.997797 -0.002945
v -0.144857 0.989329 -0.045141
v -0.144745 0.964896 -0.080682
v -0.144833 0.928545 -0.104313
v -0.144844 0.885742 -0.111578
v -0.144606 0.843531 -0.101683
v -0.144429 0.808668 -0.076151
v -0.144701 0.785740 -0.039687
v -0.144855 0.778208 0.002610
v -0.144957 0.788010 0.044407
v -0.145063 0.812910 0.079337
v -0.145303 0.848813 0.102771
v 0.144462 0.891021 0.113124
v 0.144694 0.933856 0.103211
v 0.144467 0.968949 0.077057
v 0.144231 0.991319 0.039682
v 0.144032 0.998937 -0.002996
v 0.144171 0.990353 -0.045697
v 0.144097 0.965547 -0.081672
v 0.143968 0.928744 -0.105672
v 0.143578 0.885313 -0.113267
v 0.143343 0.842331 -0.103447
v 0.143003 0.806423 -0.077753
v 0.142924 0.782909 -0.040478
v 0.143094 0.775070 0.002885
v 0.143264 0.785020 0.045850
v 0.143527 0.810644 0.081642
v 0.144012 0.847620 0.105558
v 0.145691 0.884272 0.000043
v -0.145690 0.884272 0.000043
v -0.145085 1.543401 0.111210
v -0.144891 1.500389 0.102524
v -0.144843 1.463028 0.076774
v -0.144741 1.435690 0.034579
v -0.144537 1.428909 0.003352
v -0.145005 1.434886 -0.037843
v -0.144734 1.457771 -0.075314
v -0.144340 1.493653 -0.100488
v -0.144226 1.536221 -0.110955
v -0.144044 1.579771 -0.105093
v -0.144355 1.617875 -0.083203
v -0.144050 1.642659 -0.044698
v -0.143304 1.650955 -0.003698
v -0.144102 1.644876 0.037375
v -0.144696 1.622126 0.076580
v -0.144892 1.586145 0.101970
v 0.145074 1.543599 0.111274
v 0.145130 1.586251 0.101982
v 0.144815 1.622225 0.076399
v 0.144529 1.644545 0.036053
v 0.143307 1.650927 -0.003754
v 0.143690 1.642546 -0.046335
v 0.144127 1.618084 -0.083326
v 0.143758 1.579775 -0.105497
v 0.143679 1.536275 -0.111622
v 0.144101 1.493382 -0.101275
v 0.144514 1.457683 -0.075878
v 0.144862 1.434280 -0.038553
v 0.144107 1.428478 0.008854
v 0.144403 1.439253 0.044949
v 0.144402 1.464516 0.079809
v 0.144968 1.500236 0.101700
v 0.145691 1.539517 0.003118
v -0.145690 1.539517 0.003118
f 133 106 107 28
f 1 117 106 133
f 139 138 8 9
f 31 32 138 139
f 140 139 9 10
f 30 31 139 140
f 141 140 10 11
f 1 133 141 11
f 29 30 140 141
f 141 133 28 29
f 36 111 112 134
f 134 112 113 4
f 35 36 134 135
f 135 134 4 5
f 34 35 135 136
f 136 135 5 6
f 137 138 32 33
f 33 34 136 137
f 137 136 6 7
f 7 8 138 137
f 120 121 38 108
f 116 2 130 131
f 119 120 108 107
f 117 116 131 132
f 118 119 107 106
f 106 117 132 118
f 81 119 118 142
f 142 118 132 55
f 56 130 2 3
f 37 38 121 122
f 56 3 115 129
f 109 37 122 123
f 128 129 115 114
f 110 109 123 124
f 111 110 124 125
f 127 128 114 113
f 126 127 113 112
f 112 111 125 126
f 150 126 125 82
f 57 127 126 150
f 149 150 82 83
f 58 57 150 149
f 59 58 149 148
f 148 149 83 84
f 147 148 84 85
f 60 59 148 147
f 61 60 147 146
f 146 147 85 86
f 89 81 142 143
f 143 142 55 64
f 88 89 143 144
f 144 143 64 63
f 145 146 86 87
f 87 88 144 145
f 145 144 63 62
f 62 61 146 145
f 66 65 55 132
f 67 66 132 131
f 68 67 131 130
f 69 68 130 56
f 70 69 56 129
f 71 70 129 128
f 72 71 128 127
f 73 72 127 57
f 74 73 57 58
f 75 74 58 59
f 76 75 59 60
f 77 76 60 61
f 78 77 61 62
f 79 78 62 63
f 80 79 63 64
f 64 55 65 80
f 119 81 90 91
f 120 119 91 92
f 121 120 92 93
f 122 121 93 94
f 123 122 94 95
f 124 123 95 96
f 125 124 96 97
f 82 125 97 98
f 83 82 98 99
f 84 83 99 100
f 85 84 100 101
f 86 85 101 102
f 87 86 102 103
f 88 87 103 104
f 89 88 104 105
f 105 90 81 89
f 153 67 68 154
f 157 71 72 158
f 159 73 74 160
f 161 75 76 162
f 165 79 80 166
f 170 93 92 169
f 174 97 96 173
f 176 99 98 175
f 178 101 100 177
f 182 105 104 181
f 175 98 97 174
f 158 72 73 159
f 171 94 93 170
f 172 95 94 171
f 179 102 101 178
f 180 103 102 179
f 154 68 69 155
f 155 69 70 156
f 162 76 77 163
f 163 77 78 164
f 168 91 90 167
f 167 90 105 182
f 151 65 66 152
f 166 80 65 151
f 181 104 103 180
f 164 78 79 165
f 173 96 95 172
f 156 70 71 157
f 177 100 99 176
f 183 179 178 177
f 173 172 171 183
f 160 74 75 161
f 161 162 163 184
f 184 155 156 157
f 169 92 91 168
f 169 168 167 183
f 183 171 170 169
f 181 180 179 183
f 183 175 174 173
f 177 176 175 183
f 183 167 182 181
f 152 66 67 153
f 184 151 152 153
f 153 154 155 184
f 184 163 164 165
f 157 158 159 184
f 184 159 160 161
f 165 166 151 184
f 117 1 12 13
f 116 117 13 14
f 2 116 14 15
f 3 2 15 16
f 115 3 16 17
f 114 115 17 18
f 113 114 18 19
f 4 113 19 20
f 5 4 20 21
f 6 5 21 22
f 7 6 22 23
f 8 7 23 24
f 9 8 24 25
f 10 9 25 26
f 11 10 26 27
f 27 12 1 11
f 29 28 39 40
f 30 29 40 41
f 31 30 41 42
f 32 31 42 43
f 33 32 43 44
f 34 33 44 45
f 35 34 45 46
f 36 35 46 47
f 111 36 47 48
f 110 111 48 49
f 109 110 49 50
f 37 109 50 51
f 38 37 51 52
f 108 38 52 53
f 107 108 53 54
f 54 39 28 107
f 188 15 14 187
f 192 19 18 191
f 194 21 20 193
f 196 23 22 195
f 200 27 26 199
f 204 42 41 203
f 208 46 45 207
f 210 48 47 209
f 212 50 49 211
f 216 54 53 215
f 209 47 46 208
f 193 20 19 192
f 205 43 42 204
f 206 44 43 205
f 213 51 50 212
f 214 52 51 213
f 189 16 15 188
f 190 17 16 189
f 197 24 23 196
f 198 25 24 197
f 202 40 39 201
f 201 39 54 216
f 186 13 12 185
f 185 12 27 200
f 215 53 52 214
f 187 14 13 186
f 207 45 44 206
f 195 22 21 194
f 211 49 48 210
f 217 213 212 211
f 207 206 205 217
f 191 18 17 190
f 218 193 192 191
f 195 194 193 218
f 203 41 40 202
f 203 202 201 217
f 217 205 204 203
f 215 214 213 217
f 217 209 208 207
f 211 210 209 217
f 217 201 216 215
f 199 26 25 198
f 199 198 197 218
f 218 185 200 199
f 218 189 188 187
f 191 190 189 218
f 218 197 196 195
f 187 186 185 218

