#  
#  
#  Created in TopoGun 3
#  www.topogun.com
#  

v -0.233184 1.525758 -2.292820
v -0.347494 1.628450 -2.012535
v -0.443247 1.726351 -1.697183
v -0.506551 1.792055 -1.359258
v -0.543306 1.818381 -1.057184
v -0.559511 1.833179 -0.704388
v -0.584363 1.814285 -0.662112
v -0.586082 1.821517 -0.122702
v -0.564091 1.842267 -0.080121
v -0.557009 1.835073 0.029120
v -0.528975 1.801612 0.398427
v -0.481361 1.764692 0.684440
v -0.412842 1.690122 0.950589
v -0.341902 1.611703 1.079309
v -0.280754 1.549092 1.142820
v -0.239981 1.503718 1.171336
v -0.453470 1.733439 0.823240
v -0.378074 1.649111 1.024445
v -0.294308 1.579895 -2.149501
v -0.405797 1.690898 -1.836246
v -0.314046 1.439782 -2.262349
v -0.429166 1.337744 -2.154106
v -0.512916 1.264769 -2.062172
v -0.608322 1.169059 -1.910354
v -0.669127 1.122930 -1.780955
v -0.703308 1.051636 -1.674359
v -0.799082 0.967054 -1.320446
v -0.756331 1.008431 -1.497921
v -0.395904 1.352410 -2.194828
v -0.798484 0.948898 -1.302920
v -0.872907 0.872476 -0.573585
v -0.849751 0.901225 -0.948749
v -0.884228 0.903252 -0.538814
v -0.877020 0.895793 -0.137299
v -0.858532 0.922044 0.144431
v -0.811028 0.959101 0.464353
v -0.799165 0.947176 0.497415
v -0.716303 1.005350 0.744044
v -0.765383 0.972978 0.621633
v -0.668050 1.058393 0.849816
v -0.586576 1.150928 0.970931
v -0.514731 1.228418 1.045465
v -0.426014 1.312523 1.109904
v -0.338312 1.404199 1.153264
v -0.373174 1.499312 -2.119542
v -0.433825 1.548820 -1.973727
v -0.496213 1.598762 -1.802540
v -0.550825 1.638909 -1.609540
v -0.604505 1.677668 -1.347001
v -0.642928 1.699430 -1.065437
v -0.666378 1.710509 -0.769891
v -0.678580 1.715095 -0.508158
v -0.656841 1.735781 -0.104002
v -0.651522 1.697222 0.226820
v -0.623929 1.666126 0.486567
v -0.594606 1.639372 0.666548
v -0.563530 1.611411 0.805703
v -0.523520 1.577275 0.920175
v -0.467689 1.532161 1.019207
v -0.391561 1.468765 1.111876
v -0.439297 1.421881 -2.083906
v -0.475920 1.372609 -2.064481
v -0.501916 1.457646 -1.948408
v -0.568755 1.497768 -1.777070
v -0.629695 1.529962 -1.579273
v -0.683776 1.554001 -1.344336
v -0.727050 1.566832 -1.082891
v -0.757017 1.570673 -0.799951
v -0.772768 1.570098 -0.500498
v -0.768181 1.571384 -0.168649
v -0.754805 1.555114 0.127917
v -0.728732 1.536332 0.378075
v -0.695042 1.520938 0.570610
v -0.659667 1.504745 0.720168
v -0.621596 1.483995 0.840168
v -0.571456 1.452251 0.946038
v -0.515277 1.389703 1.033366
v -0.548576 1.353037 -1.947757
v -0.621609 1.390528 -1.765088
v -0.684869 1.411581 -1.574958
v -0.742481 1.422325 -1.359655
v -0.790768 1.422454 -1.116773
v -0.826839 1.413212 -0.844283
v -0.850357 1.398769 -0.534074
v -0.848444 1.400345 -0.206440
v -0.831966 1.394288 0.082531
v -0.803543 1.383876 0.337946
v -0.763307 1.387531 0.535719
v -0.719410 1.386565 0.688905
v -0.674443 1.381530 0.810471
v -0.627197 1.385857 0.897465
v -0.601116 1.317478 0.955061
v -0.634316 1.213934 -1.850794
v -0.677555 1.200796 -1.751284
v -0.727550 1.173744 -1.616471
v -0.782024 1.147691 -1.444309
v -0.830211 1.119511 -1.256742
v -0.861275 1.088618 -1.075880
v -0.890423 1.039533 -0.810867
v -0.897075 0.980243 -0.622298
v -0.907436 1.030750 -0.482381
v -0.905024 1.052114 -0.179326
v -0.885599 1.064838 0.092739
v -0.853211 1.063967 0.335448
v -0.829387 1.030824 0.443751
v -0.817831 1.081771 0.510286
v -0.780279 1.122010 0.635261
v -0.733714 1.153796 0.748846
v -0.676857 1.258361 0.852012
v -0.564131 1.218103 -1.985355
v -0.606133 1.269941 -1.885443
v -0.660652 1.289836 -1.749061
v -0.718817 1.292305 -1.585964
v -0.776755 1.285835 -1.393630
v -0.827655 1.270728 -1.174447
v -0.866884 1.243542 -0.923058
v -0.899646 1.188816 -0.593368
v -0.896615 1.218459 -0.219784
v -0.877020 1.221928 0.078414
v -0.843338 1.201248 0.363825
v -0.794608 1.245432 0.559007
v -0.744739 1.263044 0.706671
v -0.693173 1.171250 0.829616
v -0.628298 1.101034 0.914382
v -0.228237 1.525886 -2.295444
v -0.341558 1.633088 -2.012047
v -0.437603 1.731397 -1.697026
v -0.500801 1.796973 -1.359061
v -0.537470 1.823197 -1.057006
v -0.554560 1.837989 -0.702118
v -0.578887 1.818906 -0.659782
v -0.577386 1.825472 -0.126200
v -0.556954 1.846061 -0.080814
v -0.550217 1.838337 0.028894
v -0.522284 1.805041 0.397993
v -0.474985 1.763032 0.682975
v -0.406058 1.691108 0.948393
v -0.335675 1.614955 1.077026
v -0.275342 1.551403 1.139394
v -0.232955 1.503808 1.173452
v -0.446664 1.733283 0.821492
v -0.371466 1.651914 1.022483
v -0.288082 1.582247 -2.148002
v -0.399657 1.695206 -1.835719
v -0.310590 1.434428 -2.266127
v -0.425662 1.332251 -2.153932
v -0.509929 1.258209 -2.064401
v -0.604191 1.162998 -1.911176
v -0.666095 1.116361 -1.783081
v -0.698728 1.046114 -1.675379
v -0.795850 0.960977 -1.323517
v -0.752799 1.001789 -1.498549
v -0.392213 1.351152 -2.192547
v -0.795018 0.942845 -1.305743
v -0.868670 0.867245 -0.571113
v -0.846753 0.894281 -0.949172
v -0.881940 0.896615 -0.536121
v -0.874138 0.888788 -0.137159
v -0.855493 0.915121 0.144831
v -0.808537 0.952113 0.462961
v -0.796362 0.940309 0.496071
v -0.711964 0.999211 0.744516
v -0.761660 0.966410 0.621937
v -0.663571 1.052405 0.850890
v -0.581730 1.145266 0.972265
v -0.510306 1.222521 1.047218
v -0.420894 1.306993 1.110551
v -0.333199 1.398780 1.154608
v -0.561574 1.211518 -1.987901
v -0.623162 1.095562 0.915115
v -0.230267 1.524483 -2.291705
v -0.339686 1.627637 -2.009454
v -0.432472 1.729739 -1.695437
v -0.495271 1.795588 -1.357925
v -0.530398 1.824008 -1.056451
v -0.556905 1.833845 -0.703763
v -0.572030 1.821297 -0.657524
v -0.572566 1.822573 -0.127124
v -0.557027 1.839495 -0.082665
v -0.546253 1.833512 0.028164
v -0.516738 1.800789 0.396824
v -0.474135 1.754044 0.681151
v -0.403793 1.684354 0.944643
v -0.333097 1.610779 1.071421
v -0.268944 1.554263 1.135828
v -0.225430 1.503481 1.174482
v -0.444587 1.725904 0.818923
v -0.367965 1.647271 1.017753
v -0.280812 1.582374 -2.145144
v -0.397675 1.689240 -1.833316
v -0.308250 1.436570 -2.257765
v -0.420127 1.326899 -2.152437
v -0.503344 1.261752 -2.056823
v -0.598739 1.166796 -1.906335
v -0.659943 1.114541 -1.781576
v -0.693412 1.040383 -1.676275
v -0.789868 0.958223 -1.324340
v -0.746219 1.000650 -1.496993
v -0.386531 1.345946 -2.191068
v -0.790577 0.947641 -1.302526
v -0.863998 0.861600 -0.568419
v -0.841025 0.889412 -0.949128
v -0.878346 0.890269 -0.533399
v -0.868427 0.886232 -0.137304
v -0.849563 0.910911 0.144659
v -0.802823 0.948560 0.461133
v -0.790873 0.941186 0.494312
v -0.706135 1.000358 0.741521
v -0.754969 0.964621 0.620127
v -0.657192 1.050896 0.848263
v -0.575477 1.142004 0.970174
v -0.504623 1.217258 1.046745
v -0.415324 1.303657 1.106788
v -0.327743 1.394470 1.151847
v -0.556077 1.209601 -1.985716
v -0.617455 1.096005 0.910920
v -0.245082 1.518738 -2.270404
v -0.345585 1.612367 -2.006785
v -0.436867 1.712884 -1.691952
v -0.500251 1.771705 -1.354586
v -0.530479 1.811524 -1.056188
v -0.556698 1.830079 -0.706269
v -0.568763 1.809633 -0.656418
v -0.572362 1.806414 -0.126954
v -0.562239 1.816743 -0.083528
v -0.549071 1.816137 0.025615
v -0.517084 1.789201 0.395313
v -0.475330 1.742953 0.679333
v -0.404492 1.673764 0.940543
v -0.335388 1.600587 1.064921
v -0.293025 1.548640 1.117980
v -0.250350 1.500771 1.162327
v -0.445999 1.709103 0.814349
v -0.368899 1.629047 1.012488
v -0.293932 1.565312 -2.145509
v -0.403087 1.673516 -1.829839
v -0.311259 1.444124 -2.239845
v -0.424027 1.340237 -2.135545
v -0.499984 1.272607 -2.045978
v -0.594347 1.177400 -1.898337
v -0.648911 1.130165 -1.773911
v -0.688200 1.069241 -1.669495
v -0.782767 0.969561 -1.318166
v -0.738687 1.013345 -1.490834
v -0.390793 1.368350 -2.169140
v -0.782668 0.969160 -1.288337
v -0.862154 0.883732 -0.571773
v -0.832711 0.899300 -0.947131
v -0.866635 0.893220 -0.530167
v -0.861545 0.899975 -0.138265
v -0.841288 0.921150 0.143071
v -0.794265 0.960079 0.459565
v -0.781869 0.956010 0.503531
v -0.701399 1.012563 0.734478
v -0.748529 0.975001 0.615611
v -0.652488 1.059672 0.840292
v -0.568044 1.155996 0.959495
v -0.500346 1.221465 1.036422
v -0.423523 1.305490 1.082446
v -0.335048 1.395270 1.133303
v -0.551919 1.220045 -1.973196
v -0.613634 1.105485 0.901109
v -0.388492 1.480134 1.018267
v -0.494803 1.353290 0.914244
v -0.617077 1.206421 0.735322
v -0.695257 1.163470 0.480930
v -0.760885 1.125035 0.105415
v -0.786517 1.100626 -0.219529
v -0.804553 1.040138 -0.572683
v -0.795291 1.051131 -0.669579
v -0.766743 1.075055 -0.976938
v -0.712067 1.126587 -1.350682
v -0.643831 1.194853 -1.622121
v -0.577964 1.259320 -1.806969
v -0.469125 1.370911 -1.983181
v -0.383412 1.441422 -2.089994
v -0.430256 1.487956 -1.936898
v -0.472784 1.526132 -1.775867
v -0.503827 1.544753 -1.641502
v -0.563274 1.559156 -1.331786
v -0.598325 1.562727 -1.067347
v -0.623257 1.576296 -0.749572
v -0.517845 1.539602 0.683655
v -0.574206 1.577201 0.372127
v -0.603647 1.630737 0.013205
v -0.566455 1.376014 -1.639463
v -0.646946 1.322569 -1.293462
v -0.684270 1.311888 -0.996419
v -0.702712 1.318157 -0.723383
v -0.695112 1.370261 -0.510975
v -0.711433 1.317986 -0.236507
v -0.673598 1.354509 0.152541
v -0.627186 1.357284 0.456818
v -0.620270 1.635790 -0.399560
f 76 77 60 59
f 75 76 59 58
f 57 56 73 74
f 74 75 58 57
f 72 73 56 55
f 71 72 55 54
f 70 71 54 53
f 69 70 53 52
f 68 69 52 51
f 67 68 51 50
f 66 67 50 49
f 65 66 49 48
f 64 65 48 47
f 46 45 61 63
f 63 64 47 46
f 77 76 91 92
f 90 91 76 75
f 63 61 62 78
f 64 63 78 79
f 111 93 94 112
f 79 78 111 112
f 74 73 88 89
f 89 90 75 74
f 87 88 73 72
f 86 87 72 71
f 85 86 71 70
f 69 68 83 84
f 84 85 70 69
f 82 83 68 67
f 81 82 67 66
f 65 64 79 80
f 80 81 66 65
f 113 112 94 95
f 80 79 112 113
f 114 113 95 96
f 81 80 113 114
f 115 114 96 97
f 82 81 114 115
f 116 115 97 98
f 83 82 115 116
f 117 99 100 101
f 84 83 116 117
f 117 116 98 99
f 118 117 101 102
f 85 84 117 118
f 119 118 102 103
f 86 85 118 119
f 120 104 105 106
f 87 86 119 120
f 120 119 103 104
f 121 120 106 107
f 88 87 120 121
f 122 121 107 108
f 109 92 91 90
f 109 90 89 122
f 89 88 121 122
f 109 122 108 123
f 4 3 48 49
f 5 4 49 50
f 6 5 50 51
f 7 6 51 52
f 8 7 52 53
f 10 9 8 53
f 11 10 53 54
f 12 11 54 55
f 15 14 59 60
f 17 12 55 56
f 56 57 13 17
f 18 13 57 58
f 58 59 14 18
f 45 46 2 19
f 20 2 46 47
f 47 48 3 20
f 21 45 19 1
f 78 62 22 23
f 24 93 111 110
f 94 93 24 25
f 95 94 25 26
f 97 96 28 27
f 96 95 26 28
f 61 45 21 29
f 29 22 62 61
f 98 97 27 30
f 100 99 32 31
f 99 98 30 32
f 101 100 31 33
f 102 101 33 34
f 103 102 34 35
f 104 103 35 36
f 105 104 36 37
f 107 106 39 38
f 106 105 37 39
f 108 107 38 40
f 92 109 41 42
f 77 92 42 43
f 60 77 43 44
f 44 16 15 60
f 111 78 23 110
f 123 108 40 124
f 41 109 123 124
f 144 20 3 127
f 127 3 4 128
f 128 4 5 129
f 129 5 6 130
f 130 6 7 131
f 131 7 8 132
f 132 8 9 133
f 133 9 10 134
f 134 10 11 135
f 135 11 12 136
f 142 18 14 138
f 138 14 15 139
f 139 15 16 140
f 136 12 17 141
f 141 17 13 137
f 137 13 18 142
f 125 1 19 143
f 143 19 2 126
f 126 2 20 144
f 145 21 1 125
f 146 22 29 153
f 147 23 22 146
f 148 24 110 169
f 149 25 24 148
f 150 26 25 149
f 152 28 26 150
f 151 27 28 152
f 153 29 21 145
f 154 30 27 151
f 156 32 30 154
f 155 31 32 156
f 157 33 31 155
f 158 34 33 157
f 159 35 34 158
f 160 36 35 159
f 161 37 36 160
f 163 39 37 161
f 162 38 39 163
f 164 40 38 162
f 165 41 124 170
f 166 42 41 165
f 167 43 42 166
f 168 44 43 167
f 140 16 44 168
f 169 110 23 147
f 170 124 40 164
f 190 144 127 173
f 173 127 128 174
f 174 128 129 175
f 175 129 130 176
f 176 130 131 177
f 177 131 132 178
f 178 132 133 179
f 179 133 134 180
f 180 134 135 181
f 181 135 136 182
f 188 142 138 184
f 184 138 139 185
f 185 139 140 186
f 182 136 141 187
f 187 141 137 183
f 183 137 142 188
f 171 125 143 189
f 189 143 126 172
f 172 126 144 190
f 191 145 125 171
f 192 146 153 199
f 193 147 146 192
f 194 148 169 215
f 195 149 148 194
f 196 150 149 195
f 198 152 150 196
f 197 151 152 198
f 199 153 145 191
f 200 154 151 197
f 202 156 154 200
f 201 155 156 202
f 203 157 155 201
f 204 158 157 203
f 205 159 158 204
f 206 160 159 205
f 207 161 160 206
f 209 163 161 207
f 208 162 163 209
f 210 164 162 208
f 211 165 170 216
f 212 166 165 211
f 213 167 166 212
f 186 140 168 214
f 214 168 167 213
f 215 169 147 193
f 216 170 164 210
f 217 171 189 235
f 224 178 179 225
f 228 182 187 233
f 229 183 188 234
f 231 185 186 232
f 245 199 191 237
f 261 215 193 239
f 243 197 198 244
f 253 207 206 252
f 256 210 208 254
f 232 186 214 260
f 230 184 185 231
f 234 188 184 230
f 233 187 183 229
f 231 232 260 263
f 259 213 212 258
f 260 214 213 259
f 258 212 211 257
f 262 216 210 256
f 257 211 216 262
f 265 262 256 254
f 255 209 207 253
f 254 208 209 255
f 266 255 253 252
f 252 206 205 251
f 251 205 204 250
f 250 204 203 249
f 249 203 201 247
f 247 201 202 248
f 246 200 197 243
f 248 202 200 246
f 244 198 196 242
f 241 195 194 240
f 242 196 195 241
f 240 194 215 261
f 274 241 240 261
f 239 193 192 238
f 238 192 199 245
f 237 191 171 217
f 276 238 245 237
f 276 237 217 235
f 234 230 231 263
f 233 229 234 263
f 221 175 176 222
f 225 179 180 226
f 226 180 181 227
f 227 181 182 228
f 220 174 175 221
f 219 173 174 220
f 236 190 173 219
f 218 172 190 236
f 235 189 172 218
f 277 276 235 218
f 275 239 238 276
f 278 277 218 236
f 275 274 261 239
f 275 276 277 278
f 279 278 236 219
f 273 242 241 274
f 286 275 278 279
f 273 274 275 286
f 269 249 247 270
f 264 263 260 259
f 264 259 258 257
f 264 257 262 265
f 228 233 263 283
f 227 228 283 284
f 293 264 265 266
f 266 265 254 255
f 283 263 264 293
f 267 266 252 251
f 292 293 266 267
f 284 283 293 292
f 268 267 251 250
f 268 250 249 269
f 271 270 247 248
f 272 271 248 246
f 272 246 243 244
f 272 244 242 273
f 280 279 219 220
f 287 286 279 280
f 272 273 286 287
f 281 280 220 221
f 288 287 280 281
f 271 272 287 288
f 289 288 281 282
f 270 271 288 289
f 285 284 292 291
f 291 292 267 268
f 269 270 289 290
f 291 268 269 290
f 226 227 284 285
f 285 224 225 226
f 222 176 177 223
f 223 177 178 224
f 285 291 290 294
f 282 281 221 222
f 282 222 223 294
f 294 290 289 282
f 223 224 285 294

