#  
#  
#  Created in TopoGun 3
#  www.topogun.com
#  

v -0.094154 1.531349 -0.031055
v -0.081109 1.504500 -0.052865
v -0.055495 1.483918 -0.069782
v -0.021700 1.472315 -0.079566
v 0.015249 1.471537 -0.080662
v 0.049963 1.481753 -0.072867
v 0.077380 1.501211 -0.057529
v 0.092882 1.527436 -0.036585
v 0.093962 1.556231 -0.013384
v 0.080783 1.583066 0.008416
v 0.055423 1.603887 0.025523
v 0.021733 1.615581 0.035378
v -0.015228 1.616353 0.036470
v -0.049899 1.606091 0.028637
v -0.077062 1.586364 0.013079
v -0.092610 1.560133 -0.007870
v -0.104255 1.854784 -0.414213
v -0.093678 1.828890 -0.439377
v -0.074680 1.814832 -0.473814
v -0.046263 1.810867 -0.501774
v 0.000901 1.811775 -0.518253
v 0.046263 1.810867 -0.501774
v 0.074680 1.814832 -0.473814
v 0.096193 1.829341 -0.442483
v 0.104255 1.854784 -0.414213
v 0.093574 1.886181 -0.393926
v 0.071806 1.919348 -0.386785
v 0.045655 1.945906 -0.388717
v 0.000598 1.962251 -0.392614
v -0.045655 1.945906 -0.388717
v -0.070041 1.916598 -0.384029
v -0.090884 1.883971 -0.391367
v -0.093336 1.525037 -0.023019
v -0.079293 1.499141 -0.044485
v -0.053585 1.479893 -0.060649
v -0.020805 1.469001 -0.070013
v 0.014801 1.468167 -0.071082
v 0.048396 1.477847 -0.063612
v 0.076157 1.495643 -0.049070
v 0.092339 1.521098 -0.028524
v 0.093694 1.549710 -0.005419
v 0.080602 1.576482 0.016313
v 0.054773 1.596784 0.032747
v 0.021664 1.608527 0.042883
v -0.014975 1.609235 0.043804
v -0.049162 1.598917 0.035881
v -0.076181 1.579554 0.020589
v -0.091947 1.553626 0.000005
v -0.087162 1.523784 -0.019701
v -0.073932 1.499683 -0.039440
v -0.049877 1.481923 -0.054442
v -0.019331 1.471484 -0.063072
v 0.013852 1.470513 -0.063997
v 0.045347 1.479337 -0.056941
v 0.071630 1.495527 -0.043237
v 0.087396 1.519016 -0.023940
v 0.089161 1.546007 -0.002045
v 0.076294 1.571385 0.018166
v 0.051550 1.590327 0.033206
v 0.020279 1.601463 0.042153
v -0.013951 1.602291 0.042989
v -0.045724 1.592398 0.035117
v -0.070961 1.574442 0.020781
v -0.085744 1.550377 0.001622
v -0.000285 1.533689 -0.011461
v -0.139851 2.014016 -0.428901
v -0.139884 1.978405 -0.401773
v -0.139785 1.934955 -0.391333
v -0.139581 1.890671 -0.397386
v -0.139297 1.851949 -0.419816
v -0.138975 1.824498 -0.455213
v -0.138665 1.813007 -0.498475
v -0.138415 1.819097 -0.542824
v -0.138264 1.842094 -0.581239
v -0.138233 1.877918 -0.608173
v -0.138324 1.921161 -0.619762
v -0.138529 1.965526 -0.613623
v -0.138814 2.004103 -0.590914
v -0.139136 2.030930 -0.555092
v -0.139446 2.042554 -0.511890
v -0.139697 2.036479 -0.467577
v -0.103171 2.011816 -0.425778
v -0.098833 1.844341 -0.584330
v -0.098179 1.881040 -0.610627
v -0.097956 1.924992 -0.620832
v -0.098200 1.969489 -0.613276
v -0.098877 2.007533 -0.589019
v -0.099869 2.033750 -0.552286
v -0.101035 2.043717 -0.508285
v -0.102195 2.036035 -0.463836
v 0.137298 2.014230 -0.428614
v 0.137256 1.978469 -0.401478
v 0.137225 1.934947 -0.390654
v 0.137208 1.890507 -0.396780
v 0.137209 1.851679 -0.419293
v 0.137227 1.824354 -0.454931
v 0.137259 1.812883 -0.498336
v 0.137301 1.818887 -0.542836
v 0.137347 1.841962 -0.581362
v 0.137388 1.877861 -0.608430
v 0.137420 1.921254 -0.619980
v 0.137437 1.965742 -0.613816
v 0.137436 2.004422 -0.591029
v 0.137418 2.031420 -0.555159
v 0.137385 2.042988 -0.511801
v 0.137343 2.036889 -0.467349
v 0.105270 2.014486 -0.428614
v 0.103035 1.841861 -0.581727
v 0.102454 1.877736 -0.609097
v 0.102131 1.921309 -0.620691
v 0.102118 1.965989 -0.614555
v 0.102418 2.004787 -0.591593
v 0.102977 2.032148 -0.555727
v 0.103716 2.043551 -0.512108
v 0.104522 2.037378 -0.467454
v 0.000000 2.017654 -0.432168
v 0.000000 2.037879 -0.468667
v 0.000000 2.043575 -0.513386
v 0.000000 2.031716 -0.557123
v 0.000000 2.004393 -0.592447
v 0.000000 1.963545 -0.615620
v 0.000000 1.923129 -0.620849
v 0.000000 1.873989 -0.607079
v 0.000000 1.842595 -0.582205
v -0.144582 2.011438 -0.431196
v -0.144840 1.976982 -0.404831
v -0.144155 1.934762 -0.395550
v -0.144386 1.891879 -0.400935
v -0.144514 1.854017 -0.422252
v -0.144493 1.826793 -0.456454
v -0.144185 1.815475 -0.498698
v -0.144016 1.821268 -0.542096
v -0.143852 1.843959 -0.579569
v -0.143369 1.879321 -0.605260
v -0.143397 1.921348 -0.616405
v -0.143666 1.964389 -0.610479
v -0.144060 2.001974 -0.588593
v -0.143920 2.027440 -0.553445
v -0.144175 2.038586 -0.511673
v -0.144401 2.032930 -0.468829
v 0.143270 2.012954 -0.429749
v 0.143298 1.977848 -0.402847
v 0.142826 1.934899 -0.393293
v 0.143094 1.891290 -0.398832
v 0.143232 1.852874 -0.420625
v 0.143348 1.825672 -0.455616
v 0.143336 1.814274 -0.498461
v 0.143367 1.820288 -0.542367
v 0.143254 1.843410 -0.580047
v 0.142935 1.879030 -0.606005
v 0.142845 1.921418 -0.617151
v 0.142967 1.964853 -0.611288
v 0.143138 2.002868 -0.589288
v 0.142934 2.028878 -0.553932
v 0.142928 2.040382 -0.511633
v 0.143158 2.034865 -0.468044
v -0.145690 1.992375 -0.447874
v -0.145690 1.966259 -0.427919
v -0.145690 1.933610 -0.420797
v -0.145690 1.899849 -0.425021
v -0.145690 1.870456 -0.441539
v -0.145690 1.849398 -0.467859
v -0.145690 1.840653 -0.500328
v -0.145690 1.845007 -0.533745
v -0.145690 1.862510 -0.562518
v -0.145689 1.890096 -0.582604
v -0.145689 1.922867 -0.591340
v -0.145689 1.956148 -0.586632
v -0.145690 1.985002 -0.569846
v -0.145690 2.004643 -0.542602
v -0.145690 2.013341 -0.510049
v -0.145690 2.008915 -0.476941
v 0.145690 1.994305 -0.446064
v 0.145690 1.967330 -0.425384
v 0.145690 1.933747 -0.418184
v 0.145690 1.899176 -0.422485
v 0.145690 1.869116 -0.439389
v 0.145690 1.847976 -0.466695
v 0.145690 1.839124 -0.499998
v 0.145690 1.843767 -0.533982
v 0.145690 1.861755 -0.563107
v 0.145690 1.889754 -0.583462
v 0.145690 1.922943 -0.592277
v 0.145690 1.956773 -0.587659
v 0.145690 1.986182 -0.570679
v 0.145690 2.006373 -0.543065
v 0.145690 2.015497 -0.509901
v 0.145690 2.011211 -0.475980
v 0.145690 1.926374 -0.507607
v -0.145690 1.926374 -0.507607
f 33 1 2 34
f 34 2 3 35
f 35 3 4 36
f 36 4 5 37
f 37 5 6 38
f 38 6 7 39
f 39 7 8 40
f 40 8 9 41
f 41 9 10 42
f 42 10 11 43
f 43 11 12 44
f 44 12 13 45
f 45 13 14 46
f 46 14 15 47
f 47 15 16 48
f 48 16 1 33
f 51 35 36 52
f 55 39 40 56
f 57 41 42 58
f 59 43 44 60
f 63 47 48 64
f 56 40 41 57
f 52 36 37 53
f 53 37 38 54
f 60 44 45 61
f 61 45 46 62
f 49 33 34 50
f 64 48 33 49
f 50 34 35 51
f 58 42 43 59
f 54 38 39 55
f 55 56 57 65
f 65 57 58 59
f 62 46 47 63
f 65 61 62 63
f 63 64 49 65
f 51 52 53 65
f 65 53 54 55
f 59 60 61 65
f 65 49 50 51
f 23 24 8 7
f 3 2 18 19
f 4 3 19 20
f 22 23 7 6
f 9 8 24 25
f 17 18 2 1
f 32 17 1 16
f 10 9 25 26
f 31 32 16 15
f 11 10 26 27
f 12 11 27 28
f 30 31 15 14
f 13 12 28 29
f 29 30 14 13
f 21 22 6 5
f 5 4 20 21
f 116 117 90 82
f 82 30 29 116
f 116 29 28 107
f 107 115 117 116
f 118 117 115 114
f 89 90 117 118
f 88 89 118 119
f 119 118 114 113
f 120 119 113 112
f 87 88 119 120
f 121 120 112 111
f 86 87 120 121
f 85 86 121 122
f 122 121 111 110
f 108 22 21 124
f 124 21 20 83
f 109 108 124 123
f 123 122 110 109
f 84 85 122 123
f 123 124 83 84
f 30 82 66 67
f 31 30 67 68
f 32 31 68 69
f 17 32 69 70
f 18 17 70 71
f 19 18 71 72
f 20 19 72 73
f 83 20 73 74
f 84 83 74 75
f 85 84 75 76
f 86 85 76 77
f 87 86 77 78
f 88 87 78 79
f 89 88 79 80
f 90 89 80 81
f 81 66 82 90
f 92 91 107 28
f 93 92 28 27
f 94 93 27 26
f 95 94 26 25
f 96 95 25 24
f 97 96 24 23
f 98 97 23 22
f 99 98 22 108
f 100 99 108 109
f 101 100 109 110
f 102 101 110 111
f 103 102 111 112
f 104 103 112 113
f 105 104 113 114
f 106 105 114 115
f 115 107 91 106
f 126 67 66 125
f 127 68 67 126
f 128 69 68 127
f 129 70 69 128
f 130 71 70 129
f 131 72 71 130
f 132 73 72 131
f 133 74 73 132
f 134 75 74 133
f 135 76 75 134
f 136 77 76 135
f 137 78 77 136
f 138 79 78 137
f 139 80 79 138
f 140 81 80 139
f 125 66 81 140
f 141 91 92 142
f 142 92 93 143
f 143 93 94 144
f 144 94 95 145
f 145 95 96 146
f 146 96 97 147
f 147 97 98 148
f 148 98 99 149
f 149 99 100 150
f 150 100 101 151
f 151 101 102 152
f 152 102 103 153
f 153 103 104 154
f 154 104 105 155
f 155 105 106 156
f 156 106 91 141
f 160 128 127 159
f 162 130 129 161
f 164 132 131 163
f 168 136 135 167
f 170 138 137 169
f 172 140 139 171
f 175 143 144 176
f 177 145 146 178
f 179 147 148 180
f 183 151 152 184
f 185 153 154 186
f 187 155 156 188
f 188 156 141 173
f 157 125 140 172
f 176 144 145 177
f 161 129 128 160
f 173 141 142 174
f 180 148 149 181
f 181 149 150 182
f 158 126 125 157
f 165 133 132 164
f 166 134 133 165
f 184 152 153 185
f 169 137 136 168
f 186 154 155 187
f 171 139 138 170
f 178 146 147 179
f 163 131 130 162
f 174 142 143 175
f 175 176 177 189
f 189 177 178 179
f 159 127 126 158
f 190 161 160 159
f 163 162 161 190
f 182 150 151 183
f 189 181 182 183
f 183 184 185 189
f 189 173 174 175
f 187 188 173 189
f 179 180 181 189
f 189 185 186 187
f 167 135 134 166
f 167 166 165 190
f 190 169 168 167
f 159 158 157 190
f 190 157 172 171
f 190 165 164 163
f 171 170 169 190

