# This file uses centimeters as units for non-parametric coordinates.

g default
v -5.234526 2.142019 -3.999999
v -5.489787 2.642998 -3.999999
v -5.887366 3.040576 -3.999999
v -6.388344 3.295838 -3.999999
v -6.943683 3.383795 -3.999999
v -7.499022 3.295837 -3.999999
v -8.000000 3.040576 -3.999999
v -8.397579 2.642998 -3.999999
v -8.652840 2.142019 -3.999999
v -8.740797 1.586680 -3.999999
v -8.652840 1.031342 -3.999999
v -8.397579 0.530363 -3.999999
v -8.000000 0.132785 -3.999999
v -5.887367 0.132785 -3.999999
v -5.489788 0.530363 -3.999999
v -5.234527 1.031342 -3.999999
v -5.146570 1.586680 -3.999999
v -5.234526 2.142019 2.000000
v -5.489787 2.642998 2.000000
v -5.887366 3.040576 2.000000
v -6.388344 3.295838 2.000000
v -6.943683 3.383795 2.000000
v -7.499022 3.295837 2.000000
v -8.000000 3.040576 2.000000
v -8.397579 2.642998 2.000000
v -8.652840 2.142019 2.000000
v -8.740797 1.586680 2.000000
v -8.652840 1.031342 2.000000
v -8.397579 0.530363 2.000000
v -8.000000 0.132785 2.000000
v -5.887367 0.132785 2.000000
v -5.489788 0.530363 2.000000
v -5.234527 1.031342 2.000000
v -5.146570 1.586680 2.000000
v -8.000000 0.132785 -0.260595
v -8.397579 0.530363 -0.260595
v -8.652840 1.031342 -0.260595
v -8.740797 1.586680 -0.260595
v -8.652840 2.142019 -0.260595
v -8.397579 2.642998 -0.260595
v -8.000000 3.040576 -0.260595
v -7.499022 3.295837 -0.260595
v -6.943683 3.383795 -0.260595
v -6.388344 3.295838 -0.260595
v -5.887366 3.040576 -0.260595
v -5.489787 2.642998 -0.260595
v -5.234526 2.142019 -0.260595
v -5.146570 1.586680 -0.260595
v -5.234527 1.031342 -0.260595
v -5.489788 0.530363 -0.260595
v -5.887367 0.132785 -0.260595
v -8.000000 0.132785 -1.739403
v -8.397579 0.530363 -1.739403
v -8.652840 1.031342 -1.739403
v -8.740797 1.586680 -1.739403
v -8.652840 2.142019 -1.739403
v -8.397579 2.642998 -1.739403
v -8.000000 3.040576 -1.739403
v -7.499022 3.295837 -1.739403
v -6.943683 3.383795 -1.739403
v -6.388344 3.295838 -1.739403
v -5.887366 3.040576 -1.739403
v -5.489787 2.642998 -1.739403
v -5.234526 2.142019 -1.739403
v -5.146570 1.586680 -1.739403
v -5.234527 1.031342 -1.739403
v -5.489788 0.530363 -1.739403
v -5.887367 0.132785 -1.739403
v -8.000000 0.132785 -2.744112
v -8.397579 0.530363 -2.744112
v -8.652840 1.031342 -2.744113
v -8.740797 1.586680 -2.744113
v -8.652840 2.142019 -2.744113
v -8.397579 2.642998 -2.744113
v -8.000000 3.040576 -2.744113
v -7.499022 3.295837 -2.744113
v -6.943683 3.383795 -2.744113
v -6.388344 3.295838 -2.744113
v -5.887366 3.040576 -2.744113
v -5.489787 2.642998 -2.744113
v -5.234526 2.142019 -2.744113
v -5.146570 1.586680 -2.744113
v -5.234527 1.031342 -2.744113
v -5.489788 0.530363 -2.744112
v -5.887367 0.132785 -2.744113
v -8.000000 0.132785 -2.995290
v -8.397579 0.530363 -2.995290
v -8.652840 1.031342 -2.995290
v -8.740797 1.586680 -2.995290
v -8.652840 2.142019 -2.995290
v -8.397579 2.642998 -2.995290
v -8.000000 3.040576 -2.995290
v -7.499022 3.295837 -2.995290
v -6.943683 3.383795 -2.995290
v -6.388344 3.295838 -2.995290
v -5.887366 3.040576 -2.995290
v -5.489787 2.642998 -2.995290
v -5.234526 2.142019 -2.995290
v -5.146570 1.586680 -2.995290
v -5.234527 1.031342 -2.995290
v -5.489788 0.530363 -2.995290
v -5.887367 0.132785 -2.995290
v -8.000000 0.132785 0.995290
v -8.397579 0.530363 0.995290
v -8.652840 1.031342 0.995290
v -8.740797 1.586680 0.995290
v -8.652840 2.142019 0.995290
v -8.397579 2.642998 0.995290
v -8.000000 3.040576 0.995290
v -7.499022 3.295837 0.995290
v -6.943683 3.383795 0.995290
v -6.388344 3.295838 0.995290
v -5.887366 3.040576 0.995290
v -5.489787 2.642998 0.995290
v -5.234526 2.142019 0.995290
v -5.146570 1.586680 0.995290
v -5.234527 1.031342 0.995290
v -5.489788 0.530363 0.995290
v -5.887367 0.132785 0.995290
v -8.000000 0.132785 0.744113
v -8.397579 0.530363 0.744113
v -8.652840 1.031342 0.744113
v -8.740797 1.586680 0.744113
v -8.652840 2.142019 0.744113
v -8.397579 2.642998 0.744113
v -8.000000 3.040576 0.744113
v -7.499022 3.295837 0.744113
v -6.943683 3.383795 0.744113
v -6.388344 3.295838 0.744113
v -5.887366 3.040576 0.744113
v -5.489787 2.642998 0.744113
v -5.234526 2.142019 0.744113
v -5.146570 1.586680 0.744113
v -5.234527 1.031342 0.744113
v -5.489788 0.530363 0.744113
v -5.887367 0.132785 0.744113
v -8.097811 0.132785 -2.953411
v -8.029350 0.132785 -2.995290
v -8.475060 0.477441 -2.995290
v -8.508109 0.450059 -2.953411
v -8.029350 0.132785 -2.744112
v -8.097811 0.132785 -2.785991
v -8.508109 0.450059 -2.785991
v -8.475060 0.477441 -2.744113
v -8.742451 1.002226 -2.995290
v -8.782776 0.989123 -2.953411
v -8.782776 0.989123 -2.785991
v -8.742451 1.002226 -2.744113
v -8.835019 1.586680 -2.995290
v -8.877419 1.586680 -2.953411
v -8.877419 1.586680 -2.785991
v -8.835019 1.586680 -2.744113
v -8.742451 2.171135 -2.995290
v -8.782776 2.184237 -2.953411
v -8.782776 2.184237 -2.785991
v -8.742451 2.171135 -2.744113
v -8.473806 2.698380 -2.995290
v -8.508109 2.723302 -2.953411
v -8.508109 2.723302 -2.785991
v -8.473806 2.698380 -2.744113
v -8.055383 3.116804 -2.995290
v -8.080305 3.151107 -2.953411
v -8.080305 3.151107 -2.785991
v -8.055383 3.116804 -2.744113
v -7.528138 3.385448 -2.995290
v -7.541241 3.425774 -2.953411
v -7.541241 3.425774 -2.785991
v -7.528138 3.385448 -2.744113
v -6.943683 3.478017 -2.995290
v -6.943683 3.520418 -2.953411
v -6.943683 3.520418 -2.785991
v -6.943683 3.478017 -2.744113
v -6.359228 3.385448 -2.995290
v -6.346126 3.425774 -2.953411
v -6.346126 3.425774 -2.785991
v -6.359228 3.385448 -2.744113
v -5.831984 3.116803 -2.995290
v -5.807061 3.151106 -2.953411
v -5.807061 3.151106 -2.785991
v -5.831984 3.116803 -2.744113
v -5.413560 2.698380 -2.995290
v -5.379257 2.723302 -2.953411
v -5.379257 2.723302 -2.785991
v -5.413560 2.698380 -2.744113
v -5.144916 2.171135 -2.995290
v -5.104590 2.184237 -2.953411
v -5.104590 2.184237 -2.785991
v -5.144916 2.171135 -2.744113
v -5.052348 1.586680 -2.995290
v -5.009947 1.586680 -2.953411
v -5.009947 1.586680 -2.785991
v -5.052348 1.586680 -2.744113
v -5.144917 1.002226 -2.995290
v -5.104591 0.989123 -2.953411
v -5.104591 0.989123 -2.785991
v -5.144917 1.002226 -2.744113
v -5.412308 0.477441 -2.995290
v -5.379258 0.450059 -2.953411
v -5.379258 0.450059 -2.785991
v -5.412308 0.477441 -2.744113
v -5.858016 0.132785 -2.995290
v -5.789556 0.132785 -2.953411
v -5.789556 0.132785 -2.785991
v -5.858016 0.132785 -2.744113
v -8.097811 0.132784 0.785992
v -8.029350 0.132784 0.744113
v -8.475060 0.477441 0.744113
v -8.508109 0.450059 0.785992
v -8.029350 0.132784 0.995290
v -8.097811 0.132784 0.953411
v -8.508109 0.450059 0.953411
v -8.475060 0.477441 0.995290
v -8.742451 1.002226 0.744113
v -8.782776 0.989123 0.785992
v -8.782776 0.989123 0.953411
v -8.742451 1.002226 0.995290
v -8.835019 1.586680 0.744113
v -8.877419 1.586680 0.785992
v -8.877419 1.586680 0.953411
v -8.835019 1.586680 0.995290
v -8.742451 2.171135 0.744113
v -8.782776 2.184237 0.785992
v -8.782776 2.184237 0.953411
v -8.742451 2.171135 0.995290
v -8.473806 2.698380 0.744113
v -8.508109 2.723302 0.785992
v -8.508109 2.723302 0.953411
v -8.473806 2.698380 0.995290
v -8.055383 3.116804 0.744113
v -8.080305 3.151107 0.785992
v -8.080305 3.151107 0.953411
v -8.055383 3.116804 0.995290
v -7.528138 3.385448 0.744113
v -7.541241 3.425774 0.785992
v -7.541241 3.425774 0.953411
v -7.528138 3.385448 0.995290
v -6.943683 3.478017 0.744113
v -6.943683 3.520418 0.785992
v -6.943683 3.520418 0.953411
v -6.943683 3.478017 0.995290
v -6.359228 3.385448 0.744113
v -6.346126 3.425774 0.785992
v -6.346126 3.425774 0.953411
v -6.359228 3.385448 0.995290
v -5.831984 3.116803 0.744113
v -5.807061 3.151106 0.785992
v -5.807061 3.151106 0.953411
v -5.831984 3.116803 0.995290
v -5.413560 2.698380 0.744113
v -5.379257 2.723302 0.785992
v -5.379257 2.723302 0.953411
v -5.413560 2.698380 0.995290
v -5.144916 2.171135 0.744113
v -5.104590 2.184237 0.785992
v -5.104590 2.184237 0.953411
v -5.144916 2.171135 0.995290
v -5.052348 1.586680 0.744113
v -5.009947 1.586680 0.785992
v -5.009947 1.586680 0.953411
v -5.052348 1.586680 0.995290
v -5.144917 1.002226 0.744113
v -5.104591 0.989123 0.785992
v -5.104591 0.989123 0.953411
v -5.144917 1.002226 0.995290
v -5.412308 0.477441 0.744113
v -5.379258 0.450059 0.785992
v -5.379258 0.450059 0.953411
v -5.412308 0.477441 0.995290
v -5.858016 0.132785 0.744113
v -5.789556 0.132785 0.785992
v -5.789556 0.132785 0.953411
v -5.858016 0.132785 0.995290
v -8.133814 0.132785 -1.693661
v -8.053534 0.132785 -1.739403
v -8.513267 0.451527 -1.739403
v -8.548794 0.420499 -1.693661
v -8.053534 0.132785 -0.260595
v -8.133814 0.132785 -0.306337
v -8.548794 0.420499 -0.306337
v -8.513267 0.451527 -0.260595
v -8.786558 0.987894 -1.739403
v -8.830604 0.973583 -1.693661
v -8.830604 0.973583 -0.306337
v -8.786558 0.987894 -0.260595
v -8.881397 1.586680 -1.739403
v -8.927709 1.586680 -1.693661
v -8.927709 1.586680 -0.306337
v -8.881397 1.586680 -0.260595
v -8.786558 2.185467 -1.739403
v -8.830604 2.199778 -1.693661
v -8.830604 2.199778 -0.306337
v -8.786558 2.185467 -0.260595
v -8.511327 2.725640 -1.739403
v -8.548794 2.752861 -1.693661
v -8.548794 2.752861 -0.306337
v -8.511327 2.725640 -0.260595
v -8.082644 3.154324 -1.739403
v -8.109864 3.191791 -1.693661
v -8.109864 3.191791 -0.306337
v -8.082644 3.154324 -0.260595
v -7.542470 3.429555 -1.739403
v -7.556781 3.473600 -1.693661
v -7.556781 3.473600 -0.306337
v -7.542470 3.429555 -0.260595
v -6.943683 3.524394 -1.739403
v -6.943683 3.570706 -1.693661
v -6.943683 3.570706 -0.306337
v -6.943683 3.524394 -0.260595
v -6.344896 3.429556 -1.739403
v -6.330585 3.473601 -1.693661
v -6.330585 3.473601 -0.306337
v -6.344896 3.429556 -0.260595
v -5.804723 3.154324 -1.739403
v -5.777502 3.191791 -1.693661
v -5.777502 3.191791 -0.306337
v -5.804723 3.154324 -0.260595
v -5.376040 2.725640 -1.739403
v -5.338573 2.752861 -1.693661
v -5.338573 2.752861 -0.306337
v -5.376040 2.725640 -0.260595
v -5.100808 2.185467 -1.739403
v -5.056763 2.199778 -1.693661
v -5.056763 2.199778 -0.306337
v -5.100808 2.185467 -0.260595
v -5.005971 1.586680 -1.739403
v -4.959659 1.586680 -1.693661
v -4.959659 1.586680 -0.306337
v -5.005971 1.586680 -0.260595
v -5.100809 0.987894 -1.739403
v -5.056764 0.973583 -1.693661
v -5.056764 0.973583 -0.306337
v -5.100809 0.987894 -0.260595
v -5.374101 0.451527 -1.739403
v -5.338574 0.420499 -1.693661
v -5.338574 0.420499 -0.306337
v -5.374101 0.451527 -0.260595
v -5.833833 0.132785 -1.739403
v -5.753553 0.132785 -1.693661
v -5.753553 0.132785 -0.306337
v -5.833833 0.132785 -0.260595
vt 0.234459 0.200288
vt 0.290629 0.200296
vt 0.339002 0.704047
vt 0.280031 0.704050
vt 0.346799 0.200304
vt 0.397973 0.704043
vt 0.402969 0.200312
vt 0.456944 0.704040
vt 0.459139 0.200319
vt 0.515915 0.704037
vt 0.515309 0.200327
vt 0.574887 0.704033
vt 0.571479 0.200335
vt 0.633858 0.704030
vt 0.627649 0.200343
vt 0.692829 0.704027
vt 0.683818 0.200351
vt 0.751800 0.704023
vt 0.739988 0.200359
vt 0.810775 0.704016
vt 0.796158 0.200367
vt 0.869803 0.703938
vt 0.852328 0.200375
vt 0.929057 0.704710
vt 0.908498 0.200383
vt 0.908484 0.300753
vt 0.045102 0.710559
vt 0.009780 0.200256
vt 0.065950 0.200264
vt 0.102776 0.704428
vt 0.122120 0.200272
vt 0.162102 0.703989
vt 0.178289 0.200280
vt 0.221065 0.704045
vt 0.928042 0.188693
vt 0.986029 0.186437
vt 0.908484 0.634653
vt 0.894178 0.646319
vt 0.867384 0.188914
vt 0.834924 0.645550
vt 0.806388 0.189040
vt 0.775896 0.645630
vt 0.745200 0.189187
vt 0.716921 0.645640
vt 0.683930 0.189289
vt 0.657950 0.645645
vt 0.622625 0.189351
vt 0.598979 0.645651
vt 0.561303 0.189388
vt 0.540008 0.645657
vt 0.499973 0.189409
vt 0.481036 0.645662
vt 0.438635 0.189416
vt 0.422065 0.645668
vt 0.377290 0.189404
vt 0.363094 0.645674
vt 0.315933 0.189358
vt 0.304123 0.645680
vt 0.254560 0.189243
vt 0.245152 0.645685
vt 0.193181 0.189006
vt 0.186186 0.645683
vt 0.131807 0.188699
vt 0.127223 0.645629
vt 0.070602 0.187174
vt 0.067898 0.646070
vt 0.010224 0.652204
vt 0.009769 0.534249
vt 0.929398 0.012007
vt 0.929027 0.750991
vt 0.986701 0.744860
vt 0.986965 0.523289
vt 0.868193 0.010482
vt 0.869702 0.751430
vt 0.806819 0.010176
vt 0.810739 0.751373
vt 0.745440 0.009938
vt 0.751772 0.751368
vt 0.684067 0.009823
vt 0.692802 0.751371
vt 0.622710 0.009777
vt 0.633830 0.751375
vt 0.561365 0.009766
vt 0.574859 0.751378
vt 0.500027 0.009773
vt 0.515888 0.751381
vt 0.438696 0.009793
vt 0.456917 0.751384
vt 0.377375 0.009830
vt 0.397946 0.751388
vt 0.316070 0.009892
vt 0.338975 0.751391
vt 0.254800 0.009995
vt 0.280003 0.751395
vt 0.193612 0.010142
vt 0.221029 0.751403
vt 0.132616 0.010267
vt 0.162000 0.751480
vt 0.071957 0.010488
vt 0.102747 0.750709
vt 0.013971 0.012744
vt 0.088240 0.422982
vt 0.852314 0.412019
vt 0.894150 0.692600
vt 0.951824 0.686467
vt 0.908484 0.412024
vt 0.796144 0.412013
vt 0.834825 0.693041
vt 0.739974 0.412008
vt 0.775862 0.692987
vt 0.683804 0.412002
vt 0.716895 0.692985
vt 0.627634 0.411996
vt 0.657924 0.692990
vt 0.571465 0.411991
vt 0.598953 0.692996
vt 0.515295 0.411985
vt 0.539982 0.693001
vt 0.459125 0.411980
vt 0.481011 0.693007
vt 0.402955 0.411974
vt 0.422040 0.693013
vt 0.346785 0.411969
vt 0.363069 0.693018
vt 0.290615 0.411963
vt 0.304098 0.693024
vt 0.234445 0.411958
vt 0.245126 0.693030
vt 0.178275 0.411952
vt 0.186152 0.693040
vt 0.122105 0.411947
vt 0.127123 0.693120
vt 0.065936 0.411941
vt 0.067870 0.692351
vt 0.009766 0.411936
vt 0.009776 0.311565
vt 0.984823 0.713185
vt 0.979566 0.719333
vt 0.928403 0.719608
vt 0.928324 0.713741
vt 0.869719 0.719297
vt 0.869749 0.713385
vt 0.979223 0.736814
vt 0.984397 0.743007
vt 0.928379 0.741951
vt 0.928520 0.736080
vt 0.869712 0.742099
vt 0.869687 0.736151
vt 0.810749 0.719281
vt 0.810739 0.713338
vt 0.810776 0.742050
vt 0.810767 0.736107
vt 0.751775 0.719285
vt 0.751764 0.713344
vt 0.751809 0.742047
vt 0.751798 0.736106
vt 0.692803 0.719289
vt 0.692793 0.713347
vt 0.692838 0.742050
vt 0.692827 0.736109
vt 0.633832 0.719292
vt 0.633821 0.713351
vt 0.633867 0.742054
vt 0.633856 0.736113
vt 0.574861 0.719295
vt 0.574850 0.713354
vt 0.574896 0.742057
vt 0.574885 0.736116
vt 0.515890 0.719298
vt 0.515879 0.713357
vt 0.515924 0.742060
vt 0.515914 0.736119
vt 0.456919 0.719302
vt 0.456908 0.713361
vt 0.456953 0.742064
vt 0.456943 0.736123
vt 0.397948 0.719305
vt 0.397937 0.713364
vt 0.397982 0.742067
vt 0.397971 0.736126
vt 0.338976 0.719309
vt 0.338966 0.713368
vt 0.339011 0.742070
vt 0.339000 0.736129
vt 0.280005 0.719312
vt 0.279995 0.713371
vt 0.280040 0.742074
vt 0.280029 0.736133
vt 0.221036 0.719312
vt 0.221027 0.713369
vt 0.221064 0.742080
vt 0.221055 0.736137
vt 0.162116 0.719267
vt 0.162091 0.713320
vt 0.162054 0.742034
vt 0.162084 0.736122
vt 0.103283 0.719339
vt 0.103425 0.713468
vt 0.103479 0.741678
vt 0.103400 0.735811
vt 0.052580 0.718606
vt 0.047407 0.712412
vt 0.046981 0.742234
vt 0.052237 0.736086
vt 0.949944 0.654792
vt 0.944688 0.660940
vt 0.893525 0.661218
vt 0.893446 0.655350
vt 0.834841 0.660909
vt 0.834871 0.654997
vt 0.944346 0.678421
vt 0.949519 0.684614
vt 0.893501 0.683560
vt 0.893643 0.677689
vt 0.834835 0.683710
vt 0.834810 0.677763
vt 0.775870 0.660895
vt 0.775861 0.654952
vt 0.775899 0.683664
vt 0.775889 0.677721
vt 0.716897 0.660902
vt 0.716885 0.654960
vt 0.716931 0.683664
vt 0.716921 0.677722
vt 0.657925 0.660907
vt 0.657914 0.654966
vt 0.657960 0.683669
vt 0.657949 0.677728
vt 0.598954 0.660913
vt 0.598943 0.654972
vt 0.598989 0.683675
vt 0.598978 0.677734
vt 0.539983 0.660919
vt 0.539972 0.654977
vt 0.540018 0.683680
vt 0.540007 0.677739
vt 0.481012 0.660924
vt 0.481000 0.654983
vt 0.481047 0.683686
vt 0.481036 0.677745
vt 0.422040 0.660930
vt 0.422029 0.654989
vt 0.422076 0.683692
vt 0.422065 0.677751
vt 0.363069 0.660936
vt 0.363058 0.654995
vt 0.363105 0.683698
vt 0.363094 0.677756
vt 0.304098 0.660942
vt 0.304087 0.655000
vt 0.304134 0.683703
vt 0.304122 0.677762
vt 0.245127 0.660947
vt 0.245116 0.655006
vt 0.245162 0.683709
vt 0.245151 0.677768
vt 0.186158 0.660949
vt 0.186149 0.655006
vt 0.186187 0.683718
vt 0.186177 0.677775
vt 0.127238 0.660907
vt 0.127213 0.654960
vt 0.127177 0.683674
vt 0.127207 0.677761
vt 0.068405 0.660981
vt 0.068546 0.655110
vt 0.068602 0.683320
vt 0.068522 0.677453
vt 0.017702 0.660250
vt 0.012528 0.654056
vt 0.012103 0.683878
vt 0.017360 0.677730
vt 0.986256 0.019280
vt 0.980985 0.026779
vt 0.929784 0.031744
vt 0.929175 0.025417
vt 0.868263 0.030950
vt 0.868240 0.024551
vt 0.977461 0.175149
vt 0.982338 0.182776
vt 0.928285 0.175284
vt 0.929154 0.168977
vt 0.867714 0.175078
vt 0.867823 0.168631
vt 0.806783 0.030492
vt 0.806772 0.024034
vt 0.806553 0.175184
vt 0.806581 0.168722
vt 0.745360 0.030265
vt 0.745354 0.023800
vt 0.745314 0.175323
vt 0.745318 0.168857
vt 0.683979 0.030158
vt 0.683974 0.023689
vt 0.684030 0.175423
vt 0.684026 0.168954
vt 0.622621 0.030115
vt 0.622616 0.023645
vt 0.622720 0.175483
vt 0.622714 0.169013
vt 0.561277 0.030105
vt 0.561270 0.023634
vt 0.561398 0.175519
vt 0.561391 0.169049
vt 0.499940 0.030113
vt 0.499933 0.023642
vt 0.500067 0.175539
vt 0.500060 0.169069
vt 0.438609 0.030133
vt 0.438602 0.023662
vt 0.438730 0.175547
vt 0.438723 0.169076
vt 0.377286 0.030168
vt 0.377279 0.023698
vt 0.377384 0.175536
vt 0.377378 0.169066
vt 0.315974 0.030227
vt 0.315970 0.023759
vt 0.316026 0.175492
vt 0.316021 0.169024
vt 0.254682 0.030324
vt 0.254685 0.023858
vt 0.254646 0.175381
vt 0.254640 0.168916
vt 0.193419 0.030459
vt 0.193447 0.023998
vt 0.193228 0.175147
vt 0.193217 0.168689
vt 0.132177 0.030551
vt 0.132286 0.024104
vt 0.131760 0.174630
vt 0.131737 0.168231
vt 0.070846 0.030204
vt 0.071715 0.023897
vt 0.070825 0.173765
vt 0.070216 0.167437
vt 0.022539 0.024032
vt 0.017662 0.016405
vt 0.013744 0.179901
vt 0.019015 0.172402
vt 0.065935 0.634622
vt 0.009766 0.634619
vt 0.122105 0.634624
vt 0.178275 0.634626
vt 0.234445 0.634628
vt 0.290615 0.634630
vt 0.346785 0.634632
vt 0.402955 0.634634
vt 0.459125 0.634636
vt 0.515295 0.634639
vt 0.571465 0.634641
vt 0.627634 0.634643
vt 0.683804 0.634645
vt 0.739974 0.634647
vt 0.796144 0.634649
vt 0.852314 0.634651
vt 0.952282 0.652960
vt 0.065945 0.311571
vt 0.009766 0.685711
vt 0.122115 0.311576
vt 0.178285 0.311582
vt 0.234455 0.311587
vt 0.290625 0.311593
vt 0.346795 0.311598
vt 0.402965 0.311604
vt 0.459135 0.311609
vt 0.515305 0.311615
vt 0.571474 0.311620
vt 0.627644 0.311626
vt 0.683814 0.311631
vt 0.739984 0.311637
vt 0.796154 0.311643
vt 0.852324 0.311648
vt 0.908494 0.311654
vt 0.065936 0.300635
vt 0.009766 0.300627
vt 0.122105 0.300642
vt 0.178275 0.300650
vt 0.234445 0.300658
vt 0.290615 0.300666
vt 0.346785 0.300674
vt 0.402955 0.300682
vt 0.459125 0.300690
vt 0.515295 0.300698
vt 0.571465 0.300706
vt 0.627635 0.300714
vt 0.683804 0.300722
vt 0.739974 0.300730
vt 0.796144 0.300737
vt 0.852314 0.300745
vt 0.987161 0.711353
vt 0.144410 0.422978
vt 0.044643 0.744066
vt 0.200579 0.422974
vt 0.256749 0.422970
vt 0.312919 0.422966
vt 0.369089 0.422962
vt 0.425259 0.422958
vt 0.481429 0.422954
vt 0.537599 0.422950
vt 0.593769 0.422946
vt 0.649939 0.422942
vt 0.706109 0.422938
vt 0.762278 0.422934
vt 0.818448 0.422931
vt 0.874618 0.422927
vt 0.930788 0.422923
vt 0.986958 0.422919
vt 0.144417 0.523349
vt 0.088247 0.523353
vt 0.200587 0.523345
vt 0.256756 0.523341
vt 0.312926 0.523337
vt 0.369096 0.523333
vt 0.425266 0.523329
vt 0.481436 0.523325
vt 0.537606 0.523321
vt 0.593776 0.523317
vt 0.649946 0.523313
vt 0.706116 0.523309
vt 0.762286 0.523305
vt 0.818455 0.523301
vt 0.874625 0.523297
vt 0.930795 0.523293
vt 0.990234 0.015713
vt 0.065939 0.534251
vt 0.009766 0.183468
vt 0.122109 0.534253
vt 0.178279 0.534255
vt 0.234449 0.534258
vt 0.290619 0.534260
vt 0.346789 0.534262
vt 0.402959 0.534264
vt 0.459129 0.534266
vt 0.515298 0.534268
vt 0.571468 0.534270
vt 0.627638 0.534272
vt 0.683808 0.534275
vt 0.739978 0.534277
vt 0.796148 0.534279
vt 0.852318 0.534281
vt 0.908488 0.534283
vn 0.951057 0.309016 0.000000
vn 0.809017 0.587785 0.000000
vn 0.809017 0.587785 0.000000
vn 0.951057 0.309016 0.000000
vn 0.587786 0.809017 0.000000
vn 0.587785 0.809017 0.000000
vn 0.309017 0.951056 0.000000
vn 0.309017 0.951056 0.000000
vn -0.000000 1.000000 0.000000
vn -0.000000 1.000000 0.000000
vn -0.309017 0.951056 0.000000
vn -0.309017 0.951056 0.000000
vn -0.587785 0.809017 0.000000
vn -0.587785 0.809017 0.000000
vn -0.809017 0.587785 0.000000
vn -0.809017 0.587785 0.000000
vn -0.951057 0.309017 0.000000
vn -0.951057 0.309017 0.000000
vn -1.000000 0.000000 0.000000
vn -1.000000 0.000000 0.000000
vn -0.951057 -0.309017 0.000000
vn -0.951057 -0.309017 0.000000
vn -0.809017 -0.587785 0.000000
vn -0.809017 -0.587785 0.000000
vn -0.707106 -0.707107 0.000000
vn -0.707106 -0.707107 0.000000
vn 0.707107 -0.707107 0.000000
vn 0.707107 -0.707107 0.000000
vn 0.809017 -0.587786 0.000000
vn 0.809017 -0.587786 0.000000
vn 0.951057 -0.309017 0.000000
vn 0.951057 -0.309017 0.000000
vn 1.000000 -0.000001 0.000000
vn 1.000000 -0.000001 0.000000
vn -0.809017 -0.587785 0.000000
vn -0.707106 -0.707107 0.000000
vn -0.707106 -0.707107 0.000000
vn -0.809017 -0.587785 0.000000
vn -0.951057 -0.309017 0.000000
vn -0.951057 -0.309017 0.000000
vn -1.000000 0.000000 0.000000
vn -1.000000 0.000000 0.000000
vn -0.951057 0.309016 0.000000
vn -0.951057 0.309016 0.000000
vn -0.809017 0.587785 0.000000
vn -0.809017 0.587785 0.000000
vn -0.587785 0.809017 0.000000
vn -0.587785 0.809017 0.000000
vn -0.309017 0.951057 0.000000
vn -0.309017 0.951057 0.000000
vn -0.000000 1.000000 0.000000
vn -0.000000 1.000000 0.000000
vn 0.309017 0.951057 0.000000
vn 0.309017 0.951057 0.000000
vn 0.587785 0.809017 0.000000
vn 0.587785 0.809017 0.000000
vn 0.809017 0.587785 0.000000
vn 0.809017 0.587785 0.000000
vn 0.951057 0.309016 0.000000
vn 0.951057 0.309016 0.000000
vn 1.000000 -0.000001 0.000000
vn 1.000000 -0.000001 0.000000
vn 0.951057 -0.309017 0.000000
vn 0.951057 -0.309017 0.000000
vn 0.809017 -0.587785 0.000000
vn 0.809017 -0.587785 0.000000
vn 0.707107 -0.707107 0.000000
vn 0.707107 -0.707107 0.000000
vn -0.809017 -0.587785 0.000000
vn -0.809017 -0.587785 0.000000
vn -0.707107 -0.707107 0.000000
vn -0.707107 -0.707107 0.000000
vn -0.951057 -0.309017 0.000000
vn -0.951057 -0.309017 0.000000
vn -1.000000 0.000000 0.000000
vn -1.000000 0.000000 0.000000
vn -0.951057 0.309017 0.000000
vn -0.951057 0.309017 0.000000
vn -0.809017 0.587785 0.000000
vn -0.809017 0.587785 0.000000
vn -0.587785 0.809017 0.000000
vn -0.587785 0.809017 0.000000
vn -0.309017 0.951056 0.000000
vn -0.309017 0.951056 0.000000
vn -0.000000 1.000000 0.000000
vn -0.000000 1.000000 0.000000
vn 0.309017 0.951057 0.000000
vn 0.309017 0.951057 0.000000
vn 0.587786 0.809017 0.000000
vn 0.587786 0.809017 0.000000
vn 0.809017 0.587785 0.000000
vn 0.809017 0.587785 0.000000
vn 0.951057 0.309016 0.000000
vn 0.951057 0.309016 0.000000
vn 1.000000 -0.000001 0.000000
vn 1.000000 -0.000001 0.000000
vn 0.951057 -0.309017 0.000000
vn 0.951057 -0.309017 0.000000
vn 0.809017 -0.587786 0.000000
vn 0.809017 -0.587786 0.000000
vn 0.707106 -0.707107 0.000000
vn 0.707106 -0.707107 0.000000
vn -0.809017 -0.587785 0.000000
vn -0.809017 -0.587785 0.000000
vn -0.707106 -0.707107 0.000000
vn -0.707106 -0.707107 0.000000
vn -0.951057 -0.309016 0.000000
vn -0.951057 -0.309016 0.000000
vn -1.000000 0.000000 0.000000
vn -1.000000 0.000000 0.000000
vn -0.951057 0.309016 0.000000
vn -0.951057 0.309016 0.000000
vn -0.809017 0.587785 0.000000
vn -0.809017 0.587785 0.000000
vn -0.587785 0.809017 0.000000
vn -0.587785 0.809017 0.000000
vn -0.309017 0.951057 0.000000
vn -0.309017 0.951057 0.000000
vn -0.000000 1.000000 0.000000
vn -0.000000 1.000000 0.000000
vn 0.309017 0.951057 0.000000
vn 0.309017 0.951057 0.000000
vn 0.587786 0.809017 0.000000
vn 0.587785 0.809017 0.000000
vn 0.809017 0.587785 0.000000
vn 0.809017 0.587785 0.000000
vn 0.951057 0.309016 0.000000
vn 0.951057 0.309016 0.000000
vn 1.000000 -0.000001 0.000000
vn 1.000000 -0.000001 0.000000
vn 0.951057 -0.309017 0.000000
vn 0.951057 -0.309017 0.000000
vn 0.809017 -0.587785 0.000000
vn 0.809017 -0.587785 0.000000
vn 0.707107 -0.707107 0.000000
vn 0.707107 -0.707107 0.000000
vn -0.117912 -0.152484 -0.981247
vn -0.589452 -0.762280 -0.267349
vn -0.766450 -0.614515 -0.186885
vn -0.291471 -0.236123 -0.926979
vn -0.934517 -0.303607 -0.185743
vn -0.316333 -0.102718 -0.943071
vn -0.589452 -0.762280 0.267349
vn -0.117911 -0.152483 0.981247
vn -0.291470 -0.236122 0.926980
vn -0.766450 -0.614515 0.186885
vn -0.316332 -0.102718 0.943071
vn -0.934517 -0.303607 0.185744
vn -0.982567 -0.000000 -0.185911
vn -0.332584 -0.000000 -0.943074
vn -0.332581 0.000000 0.943075
vn -0.982567 0.000000 0.185911
vn -0.934477 0.303629 -0.185911
vn -0.316308 0.102774 -0.943073
vn -0.316304 0.102774 0.943075
vn -0.934477 0.303629 0.185911
vn -0.794913 0.577538 -0.185911
vn -0.269067 0.195488 -0.943073
vn -0.269064 0.195486 0.943075
vn -0.794913 0.577538 0.185911
vn -0.577538 0.794913 -0.185912
vn -0.195488 0.269066 -0.943074
vn -0.195485 0.269064 0.943075
vn -0.577538 0.794913 0.185913
vn -0.303630 0.934476 -0.185914
vn -0.102774 0.316305 -0.943074
vn -0.102773 0.316302 0.943075
vn -0.303630 0.934476 0.185915
vn 0.000000 0.982566 -0.185915
vn 0.000000 0.332584 -0.943074
vn 0.000000 0.332579 0.943075
vn 0.000000 0.982566 0.185915
vn 0.303630 0.934476 -0.185914
vn 0.102775 0.316306 -0.943074
vn 0.102774 0.316303 0.943075
vn 0.303630 0.934476 0.185915
vn 0.577538 0.794913 -0.185914
vn 0.195488 0.269067 -0.943073
vn 0.195486 0.269064 0.943075
vn 0.577537 0.794913 0.185914
vn 0.794913 0.577538 -0.185914
vn 0.269067 0.195488 -0.943074
vn 0.269064 0.195487 0.943075
vn 0.794913 0.577538 0.185914
vn 0.934476 0.303629 -0.185913
vn 0.316307 0.102774 -0.943074
vn 0.316304 0.102773 0.943074
vn 0.934476 0.303629 0.185913
vn 0.982566 -0.000001 -0.185913
vn 0.332584 -0.000000 -0.943074
vn 0.332579 -0.000000 0.943076
vn 0.982566 -0.000001 0.185913
vn 0.934517 -0.303608 -0.185744
vn 0.316332 -0.102719 -0.943071
vn 0.316329 -0.102718 0.943072
vn 0.934517 -0.303608 0.185745
vn 0.766450 -0.614515 -0.186885
vn 0.291470 -0.236122 -0.926980
vn 0.291468 -0.236120 0.926981
vn 0.766450 -0.614515 0.186885
vn 0.589453 -0.762279 -0.267349
vn 0.117913 -0.152484 -0.981247
vn 0.117911 -0.152482 0.981247
vn 0.589453 -0.762279 0.267350
vn -0.117913 -0.152485 -0.981247
vn -0.589453 -0.762279 -0.267349
vn -0.766450 -0.614515 -0.186885
vn -0.291474 -0.236125 -0.926978
vn -0.934517 -0.303608 -0.185744
vn -0.316336 -0.102720 -0.943070
vn -0.589453 -0.762279 0.267351
vn -0.117910 -0.152481 0.981247
vn -0.291469 -0.236121 0.926980
vn -0.766450 -0.614515 0.186886
vn -0.316330 -0.102718 0.943072
vn -0.934517 -0.303608 0.185744
vn -0.982567 -0.000000 -0.185911
vn -0.332587 -0.000000 -0.943073
vn -0.332581 0.000000 0.943075
vn -0.982566 0.000000 0.185912
vn -0.934476 0.303630 -0.185912
vn -0.316309 0.102775 -0.943072
vn -0.316304 0.102774 0.943074
vn -0.934476 0.303630 0.185912
vn -0.794913 0.577537 -0.185912
vn -0.269069 0.195490 -0.943072
vn -0.269065 0.195486 0.943074
vn -0.794913 0.577537 0.185912
vn -0.577538 0.794913 -0.185913
vn -0.195490 0.269069 -0.943072
vn -0.195486 0.269064 0.943075
vn -0.577538 0.794913 0.185914
vn -0.303629 0.934476 -0.185915
vn -0.102775 0.316309 -0.943073
vn -0.102773 0.316303 0.943075
vn -0.303629 0.934476 0.185915
vn 0.000000 0.982566 -0.185916
vn 0.000000 0.332587 -0.943073
vn 0.000000 0.332581 0.943075
vn -0.000000 0.982566 0.185916
vn 0.303630 0.934476 -0.185915
vn 0.102776 0.316309 -0.943072
vn 0.102774 0.316304 0.943075
vn 0.303630 0.934476 0.185915
vn 0.577538 0.794913 -0.185913
vn 0.195490 0.269070 -0.943072
vn 0.195487 0.269065 0.943074
vn 0.577537 0.794913 0.185914
vn 0.794913 0.577538 -0.185913
vn 0.269069 0.195490 -0.943072
vn 0.269064 0.195487 0.943075
vn 0.794913 0.577538 0.185914
vn 0.934476 0.303628 -0.185913
vn 0.316309 0.102775 -0.943073
vn 0.316303 0.102773 0.943075
vn 0.934476 0.303628 0.185914
vn 0.982566 -0.000001 -0.185913
vn 0.332586 -0.000000 -0.943073
vn 0.332580 -0.000000 0.943075
vn 0.982566 -0.000001 0.185914
vn 0.934516 -0.303608 -0.185745
vn 0.316336 -0.102719 -0.943070
vn 0.316330 -0.102718 0.943072
vn 0.934516 -0.303608 0.185746
vn 0.766450 -0.614515 -0.186886
vn 0.291474 -0.236125 -0.926978
vn 0.291469 -0.236121 0.926981
vn 0.766450 -0.614515 0.186886
vn 0.589453 -0.762279 -0.267350
vn 0.117912 -0.152484 -0.981247
vn 0.117910 -0.152480 0.981248
vn 0.589453 -0.762279 0.267351
vn -0.000001 -0.000001 -1.000000
vn -0.000000 -0.000001 -1.000000
vn -0.000002 -0.000001 1.000000
vn -0.000004 -0.000001 1.000000
vn 0.000001 -0.000000 -1.000000
vn -0.000002 -0.000000 1.000000
vn 0.000002 -0.000000 -1.000000
vn 0.000002 0.000000 1.000000
vn 0.000001 0.000000 -1.000000
vn 0.000002 0.000000 1.000000
vn 0.000000 0.000000 -1.000000
vn 0.000002 0.000000 1.000000
vn 0.000000 0.000001 -1.000000
vn 0.000001 0.000000 1.000000
vn 0.000000 -0.000001 -1.000000
vn 0.000000 0.000000 1.000000
vn 0.000000 -0.000001 -1.000000
vn 0.000000 0.000000 1.000000
vn -0.000000 -0.000001 -1.000000
vn 0.000000 0.000000 1.000000
vn -0.000000 -0.000001 -1.000000
vn 0.000000 0.000000 1.000000
vn -0.000000 -0.000000 -1.000000
vn 0.000000 0.000000 1.000000
vn -0.000002 0.000000 -1.000000
vn -0.000000 0.000000 1.000000
vn -0.000002 -0.000000 -1.000000
vn -0.000002 0.000000 1.000000
vn -0.000001 -0.000000 -1.000000
vn 0.000001 -0.000000 1.000000
vn 0.000001 -0.000001 -1.000000
vn 0.000003 -0.000001 1.000000
vn 0.000004 -0.000002 -1.000000
vn 0.000002 -0.000002 1.000000
vn 0.000000 0.000000 -1.000000
vn -0.000000 0.000000 -1.000000
vn 0.000000 0.000000 1.000000
vn 0.000000 0.000000 1.000000
vn 0.000000 0.000000 -1.000000
vn 0.000000 0.000000 1.000000
vn 0.000000 -0.000000 -1.000000
vn -0.000000 0.000000 1.000000
vn 0.000000 -0.000000 -1.000000
vn 0.000000 0.000000 1.000000
vn 0.000000 0.000000 -1.000000
vn -0.000000 0.000000 1.000000
vn 0.000000 0.000000 -1.000000
vn -0.000000 0.000000 1.000000
vn 0.000000 0.000000 -1.000000
vn -0.000000 0.000000 1.000000
vn 0.000000 0.000000 -1.000000
vn 0.000000 0.000000 1.000000
vn 0.000000 0.000000 -1.000000
vn 0.000000 0.000000 1.000000
vn -0.000000 0.000000 -1.000000
vn 0.000000 0.000000 1.000000
vn -0.000000 0.000000 -1.000000
vn 0.000000 0.000000 1.000000
vn -0.000000 -0.000000 -1.000000
vn 0.000000 0.000000 1.000000
vn -0.000000 -0.000000 -1.000000
vn 0.000000 0.000000 1.000000
vn 0.000000 0.000000 -1.000000
vn -0.000000 0.000000 1.000000
vn -0.000000 0.000000 -1.000000
vn -0.000000 0.000000 1.000000
vn -0.000001 0.000000 -1.000000
vn -0.000000 0.000000 1.000000
vn -0.076930 -0.110959 -0.990843
vn -0.569070 -0.820787 -0.049676
vn -0.769467 -0.637993 -0.029756
vn -0.242540 -0.204485 -0.948346
vn -0.950640 -0.308873 -0.029686
vn -0.263238 -0.085450 -0.960939
vn -0.569070 -0.820787 0.049676
vn -0.076930 -0.110959 0.990843
vn -0.242540 -0.204485 0.948346
vn -0.769467 -0.637993 0.029756
vn -0.263237 -0.085450 0.960939
vn -0.950640 -0.308873 0.029686
vn -0.999558 0.000000 -0.029736
vn -0.276743 -0.000000 -0.960944
vn -0.276743 -0.000000 0.960944
vn -0.999558 0.000000 0.029736
vn -0.950636 0.308880 -0.029736
vn -0.263198 0.085518 -0.960944
vn -0.263198 0.085518 0.960944
vn -0.950636 0.308880 0.029736
vn -0.808659 0.587525 -0.029736
vn -0.223889 0.162665 -0.960944
vn -0.223890 0.162665 0.960944
vn -0.808659 0.587525 0.029736
vn -0.587525 0.808659 -0.029736
vn -0.162665 0.223890 -0.960944
vn -0.162666 0.223890 0.960944
vn -0.587525 0.808660 0.029736
vn -0.308880 0.950636 -0.029736
vn -0.085518 0.263199 -0.960944
vn -0.085519 0.263199 0.960944
vn -0.308880 0.950636 0.029736
vn -0.000001 0.999558 -0.029736
vn -0.000000 0.276744 -0.960944
vn -0.000000 0.276744 0.960944
vn -0.000001 0.999558 0.029736
vn 0.308880 0.950636 -0.029736
vn 0.085518 0.263198 -0.960944
vn 0.085519 0.263199 0.960944
vn 0.308880 0.950636 0.029736
vn 0.587526 0.808659 -0.029736
vn 0.162666 0.223890 -0.960944
vn 0.162666 0.223890 0.960944
vn 0.587526 0.808659 0.029736
vn 0.808659 0.587525 -0.029736
vn 0.223890 0.162666 -0.960944
vn 0.223890 0.162666 0.960944
vn 0.808659 0.587525 0.029736
vn 0.950636 0.308879 -0.029736
vn 0.263199 0.085518 -0.960944
vn 0.263199 0.085518 0.960944
vn 0.950636 0.308879 0.029736
vn 0.999558 -0.000001 -0.029736
vn 0.276743 -0.000000 -0.960944
vn 0.276743 -0.000000 0.960944
vn 0.999558 -0.000001 0.029736
vn 0.950640 -0.308873 -0.029686
vn 0.263238 -0.085451 -0.960939
vn 0.263238 -0.085451 0.960939
vn 0.950640 -0.308873 0.029686
vn 0.769467 -0.637993 -0.029756
vn 0.242541 -0.204485 -0.948346
vn 0.242540 -0.204485 0.948346
vn 0.769467 -0.637993 0.029756
vn 0.569070 -0.820787 -0.049676
vn 0.076930 -0.110958 -0.990843
vn 0.076930 -0.110959 0.990843
vn 0.569070 -0.820787 0.049676
vn -0.000000 0.000000 -1.000000
vn 0.000001 0.000000 -1.000000
vn 0.000000 0.000000 1.000000
vn -0.000000 0.000000 1.000000
vn -0.000000 0.000000 -1.000000
vn -0.000000 0.000000 1.000000
vn 0.000000 0.000000 -1.000000
vn 0.000000 0.000000 1.000000
vn 0.000000 0.000000 -1.000000
vn 0.000000 0.000000 1.000000
vn -0.000000 0.000000 -1.000000
vn 0.000000 0.000000 1.000000
vn 0.000000 0.000000 -1.000000
vn -0.000000 0.000000 1.000000
vn 0.000000 0.000000 -1.000000
vn -0.000000 0.000000 1.000000
vn -0.000000 0.000000 -1.000000
vn 0.000000 0.000000 1.000000
vn -0.000000 0.000000 -1.000000
vn 0.000000 0.000000 1.000000
vn -0.000000 0.000000 -1.000000
vn 0.000000 0.000000 1.000000
vn 0.000000 0.000000 -1.000000
vn 0.000000 0.000000 1.000000
vn 0.000000 0.000000 -1.000000
vn -0.000000 0.000000 1.000000
vn -0.000000 0.000000 -1.000000
vn -0.000000 0.000000 1.000000
vn -0.000000 0.000000 -1.000000
vn 0.000000 0.000000 1.000000
vn 0.000000 0.000000 -1.000000
vn 0.000000 0.000000 1.000000
vn 0.000000 0.000001 -1.000000
vn -0.000000 0.000000 1.000000
s 1
g Walkway
f 1/1/1 2/2/2 97/380/3 98/379/4
f 2/2/2 3/5/5 96/381/6 97/380/3
f 3/5/5 4/7/7 95/382/8 96/381/6
f 4/7/7 5/9/9 94/383/10 95/382/8
f 5/9/9 6/11/11 93/384/12 94/383/10
f 6/11/11 7/13/13 92/385/14 93/384/12
f 7/13/13 8/15/15 91/386/16 92/385/14
f 8/15/15 9/17/17 90/387/18 91/386/16
f 9/17/17 10/19/19 89/388/20 90/387/18
f 10/19/19 11/21/21 88/389/22 89/388/20
f 11/21/21 12/23/23 87/390/24 88/389/22
f 12/23/23 13/25/25 86/26/26 87/390/24
f 102/376/27 14/28/28 15/29/29 101/375/30
f 15/29/29 16/31/31 100/377/32 101/375/30
f 16/31/31 17/33/33 99/378/34 100/377/32
f 17/33/33 1/1/1 98/379/4 99/378/34
s 3
f 36/441/35 35/442/36 120/37/37 121/356/38
f 37/440/39 36/441/35 121/356/38 122/355/40
f 38/439/41 37/440/39 122/355/40 123/354/42
f 39/438/43 38/439/41 123/354/42 124/353/44
f 40/437/45 39/438/43 124/353/44 125/352/46
f 41/436/47 40/437/45 125/352/46 126/351/48
f 42/435/49 41/436/47 126/351/48 127/350/50
f 43/434/51 42/435/49 127/350/50 128/349/52
f 44/433/53 43/434/51 128/349/52 129/348/54
f 45/432/55 44/433/53 129/348/54 130/347/56
f 46/431/57 45/432/55 130/347/56 131/346/58
f 47/430/59 46/431/57 131/346/58 132/345/60
f 48/429/61 47/430/59 132/345/60 133/344/62
f 49/428/63 48/429/61 133/344/62 134/343/64
f 50/426/65 49/428/63 134/343/64 135/341/66
f 136/342/67 51/68/68 50/426/65 135/341/66
s 4
f 53/424/69 70/407/70 69/408/71 52/72/72
f 54/423/73 71/406/74 70/407/70 53/424/69
f 55/422/75 72/405/76 71/406/74 54/423/73
f 56/421/77 73/404/78 72/405/76 55/422/75
f 57/420/79 74/403/80 73/404/78 56/421/77
f 58/419/81 75/402/82 74/403/80 57/420/79
f 59/418/83 76/401/84 75/402/82 58/419/81
f 60/417/85 77/400/86 76/401/84 59/418/83
f 61/416/87 78/399/88 77/400/86 60/417/85
f 62/415/89 79/398/90 78/399/88 61/416/87
f 63/414/91 80/397/92 79/398/90 62/415/89
f 64/413/93 81/396/94 80/397/92 63/414/91
f 65/412/95 82/395/96 81/396/94 64/413/93
f 66/411/97 83/394/98 82/395/96 65/412/95
f 67/409/99 84/392/100 83/394/98 66/411/97
f 68/410/101 85/102/102 84/392/100 67/409/99
s 5
f 29/103/103 104/373/104 103/374/105 30/106/106
f 28/107/107 105/372/108 104/373/104 29/103/103
f 27/109/109 106/371/110 105/372/108 28/107/107
f 26/111/111 107/370/112 106/371/110 27/109/109
f 25/113/113 108/369/114 107/370/112 26/111/111
f 24/115/115 109/368/116 108/369/114 25/113/113
f 23/117/117 110/367/118 109/368/116 24/115/115
f 22/119/119 111/366/120 110/367/118 23/117/117
f 21/121/121 112/365/122 111/366/120 22/119/119
f 20/123/123 113/364/124 112/365/122 21/121/121
f 19/125/125 114/363/126 113/364/124 20/123/123
f 18/127/127 115/362/128 114/363/126 19/125/125
f 34/129/129 116/361/130 115/362/128 18/127/127
f 33/131/131 117/360/132 116/361/130 34/129/129
f 32/133/133 118/358/134 117/360/132 33/131/131
f 31/135/135 119/136/136 118/358/134 32/133/133
s 6
f 138/137/137 137/138/138 140/139/139 139/140/140
f 139/140/140 140/139/139 146/141/141 145/142/142
f 142/143/143 141/144/144 144/145/145 143/146/146
f 143/146/146 144/145/145 148/147/147 147/148/148
f 145/142/142 146/141/141 150/149/149 149/150/150
f 147/148/148 148/147/147 152/151/151 151/152/152
f 149/150/150 150/149/149 154/153/153 153/154/154
f 151/152/152 152/151/151 156/155/155 155/156/156
f 153/154/154 154/153/153 158/157/157 157/158/158
f 155/156/156 156/155/155 160/159/159 159/160/160
f 157/158/158 158/157/157 162/161/161 161/162/162
f 159/160/160 160/159/159 164/163/163 163/164/164
f 161/162/162 162/161/161 166/165/165 165/166/166
f 163/164/164 164/163/163 168/167/167 167/168/168
f 165/166/166 166/165/165 170/169/169 169/170/170
f 167/168/168 168/167/167 172/171/171 171/172/172
f 169/170/170 170/169/169 174/173/173 173/174/174
f 171/172/172 172/171/171 176/175/175 175/176/176
f 173/174/174 174/173/173 178/177/177 177/178/178
f 175/176/176 176/175/175 180/179/179 179/180/180
f 177/178/178 178/177/177 182/181/181 181/182/182
f 179/180/180 180/179/179 184/183/183 183/184/184
f 181/182/182 182/181/181 186/185/185 185/186/186
f 183/184/184 184/183/183 188/187/187 187/188/188
f 185/186/186 186/185/185 190/189/189 189/190/190
f 187/188/188 188/187/187 192/191/191 191/192/192
f 189/190/190 190/189/189 194/193/193 193/194/194
f 191/192/192 192/191/191 196/195/195 195/196/196
f 193/194/194 194/193/193 198/197/197 197/198/198
f 195/196/196 196/195/195 200/199/199 199/200/200
f 197/198/198 198/197/197 202/201/201 201/202/202
f 199/200/200 200/199/199 204/203/203 203/204/204
s 8
f 206/205/205 205/206/206 208/207/207 207/208/208
f 207/208/208 208/207/207 214/209/209 213/210/210
f 210/211/211 209/212/212 212/213/213 211/214/214
f 211/214/214 212/213/213 216/215/215 215/216/216
f 213/210/210 214/209/209 218/217/217 217/218/218
f 215/216/216 216/215/215 220/219/219 219/220/220
f 217/218/218 218/217/217 222/221/221 221/222/222
f 219/220/220 220/219/219 224/223/223 223/224/224
f 221/222/222 222/221/221 226/225/225 225/226/226
f 223/224/224 224/223/223 228/227/227 227/228/228
f 225/226/226 226/225/225 230/229/229 229/230/230
f 227/228/228 228/227/227 232/231/231 231/232/232
f 229/230/230 230/229/229 234/233/233 233/234/234
f 231/232/232 232/231/231 236/235/235 235/236/236
f 233/234/234 234/233/233 238/237/237 237/238/238
f 235/236/236 236/235/235 240/239/239 239/240/240
f 237/238/238 238/237/237 242/241/241 241/242/242
f 239/240/240 240/239/239 244/243/243 243/244/244
f 241/242/242 242/241/241 246/245/245 245/246/246
f 243/244/244 244/243/243 248/247/247 247/248/248
f 245/246/246 246/245/245 250/249/249 249/250/250
f 247/248/248 248/247/247 252/251/251 251/252/252
f 249/250/250 250/249/249 254/253/253 253/254/254
f 251/252/252 252/251/251 256/255/255 255/256/256
f 253/254/254 254/253/253 258/257/257 257/258/258
f 255/256/256 256/255/255 260/259/259 259/260/260
f 257/258/258 258/257/257 262/261/261 261/262/262
f 259/260/260 260/259/259 264/263/263 263/264/264
f 261/262/262 262/261/261 266/265/265 265/266/266
f 263/264/264 264/263/263 268/267/267 267/268/268
f 265/266/266 266/265/265 270/269/269 269/270/270
f 267/268/268 268/267/267 272/271/271 271/272/272
s 6
f 140/139/139 137/138/138 142/143/143 143/146/146
f 146/141/141 140/139/139 143/146/146 147/148/148
f 150/149/149 146/141/141 147/148/148 151/152/152
f 154/153/153 150/149/149 151/152/152 155/156/156
f 158/157/157 154/153/153 155/156/156 159/160/160
f 162/161/161 158/157/157 159/160/160 163/164/164
f 166/165/165 162/161/161 163/164/164 167/168/168
f 170/169/169 166/165/165 167/168/168 171/172/172
f 174/173/173 170/169/169 171/172/172 175/176/176
f 178/177/177 174/173/173 175/176/176 179/180/180
f 182/181/181 178/177/177 179/180/180 183/184/184
f 186/185/185 182/181/181 183/184/184 187/188/188
f 190/189/189 186/185/185 187/188/188 191/192/192
f 194/193/193 190/189/189 191/192/192 195/196/196
f 198/197/197 194/193/193 195/196/196 199/200/200
f 202/201/201 198/197/197 199/200/200 203/204/204
s 8
f 208/207/207 205/206/206 210/211/211 211/214/214
f 214/209/209 208/207/207 211/214/214 215/216/216
f 218/217/217 214/209/209 215/216/216 219/220/220
f 222/221/221 218/217/217 219/220/220 223/224/224
f 226/225/225 222/221/221 223/224/224 227/228/228
f 230/229/229 226/225/225 227/228/228 231/232/232
f 234/233/233 230/229/229 231/232/232 235/236/236
f 238/237/237 234/233/233 235/236/236 239/240/240
f 242/241/241 238/237/237 239/240/240 243/244/244
f 246/245/245 242/241/241 243/244/244 247/248/248
f 250/249/249 246/245/245 247/248/248 251/252/252
f 254/253/253 250/249/249 251/252/252 255/256/256
f 258/257/257 254/253/253 255/256/256 259/260/260
f 262/261/261 258/257/257 259/260/260 263/264/264
f 266/265/265 262/261/261 263/264/264 267/268/268
f 270/269/269 266/265/265 267/268/268 271/272/272
s 6
f 87/24/273 86/391/274 138/137/137 139/140/140
f 69/71/275 70/70/276 144/145/145 141/144/144
f 88/22/277 87/24/273 139/140/140 145/142/142
f 70/70/276 71/74/278 148/147/147 144/145/145
f 89/20/279 88/22/277 145/142/142 149/150/150
f 71/74/278 72/76/280 152/151/151 148/147/147
f 90/18/281 89/20/279 149/150/150 153/154/154
f 72/76/280 73/78/282 156/155/155 152/151/151
f 91/16/283 90/18/281 153/154/154 157/158/158
f 73/78/282 74/80/284 160/159/159 156/155/155
f 92/14/285 91/16/283 157/158/158 161/162/162
f 74/80/284 75/82/286 164/163/163 160/159/159
f 93/12/287 92/14/285 161/162/162 165/166/166
f 75/82/286 76/84/288 168/167/167 164/163/163
f 94/10/289 93/12/287 165/166/166 169/170/170
f 76/84/288 77/86/290 172/171/171 168/167/167
f 95/8/291 94/10/289 169/170/170 173/174/174
f 77/86/290 78/88/292 176/175/175 172/171/171
f 96/6/293 95/8/291 173/174/174 177/178/178
f 78/88/292 79/90/294 180/179/179 176/175/175
f 97/3/295 96/6/293 177/178/178 181/182/182
f 79/90/294 80/92/296 184/183/183 180/179/179
f 98/4/297 97/3/295 181/182/182 185/186/186
f 80/92/296 81/94/298 188/187/187 184/183/183
f 99/34/299 98/4/297 185/186/186 189/190/190
f 81/94/298 82/96/300 192/191/191 188/187/187
f 100/32/301 99/34/299 189/190/190 193/194/194
f 82/96/300 83/98/302 196/195/195 192/191/191
f 101/30/303 100/32/301 193/194/194 197/198/198
f 83/98/302 84/100/304 200/199/199 196/195/195
f 102/27/305 101/30/303 197/198/198 201/202/202
f 84/100/304 85/393/306 204/203/203 200/199/199
s 8
f 121/38/307 120/357/308 206/205/205 207/208/208
f 103/105/309 104/104/310 212/213/213 209/212/212
f 122/40/311 121/38/307 207/208/208 213/210/210
f 104/104/310 105/108/312 216/215/215 212/213/213
f 123/42/313 122/40/311 213/210/210 217/218/218
f 105/108/312 106/110/314 220/219/219 216/215/215
f 124/44/315 123/42/313 217/218/218 221/222/222
f 106/110/314 107/112/316 224/223/223 220/219/219
f 125/46/317 124/44/315 221/222/222 225/226/226
f 107/112/316 108/114/318 228/227/227 224/223/223
f 126/48/319 125/46/317 225/226/226 229/230/230
f 108/114/318 109/116/320 232/231/231 228/227/227
f 127/50/321 126/48/319 229/230/230 233/234/234
f 109/116/320 110/118/322 236/235/235 232/231/231
f 128/52/323 127/50/321 233/234/234 237/238/238
f 110/118/322 111/120/324 240/239/239 236/235/235
f 129/54/325 128/52/323 237/238/238 241/242/242
f 111/120/324 112/122/326 244/243/243 240/239/239
f 130/56/327 129/54/325 241/242/242 245/246/246
f 112/122/326 113/124/328 248/247/247 244/243/243
f 131/58/329 130/56/327 245/246/246 249/250/250
f 113/124/328 114/126/330 252/251/251 248/247/247
f 132/60/331 131/58/329 249/250/250 253/254/254
f 114/126/330 115/128/332 256/255/255 252/251/251
f 133/62/333 132/60/331 253/254/254 257/258/258
f 115/128/332 116/130/334 260/259/259 256/255/255
f 134/64/335 133/62/333 257/258/258 261/262/262
f 116/130/334 117/132/336 264/263/263 260/259/259
f 135/66/337 134/64/335 261/262/262 265/266/266
f 117/132/336 118/134/338 268/267/267 264/263/263
f 136/67/339 135/66/337 265/266/266 269/270/270
f 118/134/338 119/359/340 272/271/271 268/267/267
s 10
f 274/273/341 273/274/342 276/275/343 275/276/344
f 275/276/344 276/275/343 282/277/345 281/278/346
f 278/279/347 277/280/348 280/281/349 279/282/350
f 279/282/350 280/281/349 284/283/351 283/284/352
f 281/278/346 282/277/345 286/285/353 285/286/354
f 283/284/352 284/283/351 288/287/355 287/288/356
f 285/286/354 286/285/353 290/289/357 289/290/358
f 287/288/356 288/287/355 292/291/359 291/292/360
f 289/290/358 290/289/357 294/293/361 293/294/362
f 291/292/360 292/291/359 296/295/363 295/296/364
f 293/294/362 294/293/361 298/297/365 297/298/366
f 295/296/364 296/295/363 300/299/367 299/300/368
f 297/298/366 298/297/365 302/301/369 301/302/370
f 299/300/368 300/299/367 304/303/371 303/304/372
f 301/302/370 302/301/369 306/305/373 305/306/374
f 303/304/372 304/303/371 308/307/375 307/308/376
f 305/306/374 306/305/373 310/309/377 309/310/378
f 307/308/376 308/307/375 312/311/379 311/312/380
f 309/310/378 310/309/377 314/313/381 313/314/382
f 311/312/380 312/311/379 316/315/383 315/316/384
f 313/314/382 314/313/381 318/317/385 317/318/386
f 315/316/384 316/315/383 320/319/387 319/320/388
f 317/318/386 318/317/385 322/321/389 321/322/390
f 319/320/388 320/319/387 324/323/391 323/324/392
f 321/322/390 322/321/389 326/325/393 325/326/394
f 323/324/392 324/323/391 328/327/395 327/328/396
f 325/326/394 326/325/393 330/329/397 329/330/398
f 327/328/396 328/327/395 332/331/399 331/332/400
f 329/330/398 330/329/397 334/333/401 333/334/402
f 331/332/400 332/331/399 336/335/403 335/336/404
f 333/334/402 334/333/401 338/337/405 337/338/406
f 335/336/404 336/335/403 340/339/407 339/340/408
f 276/275/343 273/274/342 278/279/347 279/282/350
f 282/277/345 276/275/343 279/282/350 283/284/352
f 286/285/353 282/277/345 283/284/352 287/288/356
f 290/289/357 286/285/353 287/288/356 291/292/360
f 294/293/361 290/289/357 291/292/360 295/296/364
f 298/297/365 294/293/361 295/296/364 299/300/368
f 302/301/369 298/297/365 299/300/368 303/304/372
f 306/305/373 302/301/369 303/304/372 307/308/376
f 310/309/377 306/305/373 307/308/376 311/312/380
f 314/313/381 310/309/377 311/312/380 315/316/384
f 318/317/385 314/313/381 315/316/384 319/320/388
f 322/321/389 318/317/385 319/320/388 323/324/392
f 326/325/393 322/321/389 323/324/392 327/328/396
f 330/329/397 326/325/393 327/328/396 331/332/400
f 334/333/401 330/329/397 331/332/400 335/336/404
f 338/337/405 334/333/401 335/336/404 339/340/408
f 53/69/409 52/425/410 274/273/341 275/276/344
f 35/36/411 36/35/412 280/281/349 277/280/348
f 54/73/413 53/69/409 275/276/344 281/278/346
f 36/35/412 37/39/414 284/283/351 280/281/349
f 55/75/415 54/73/413 281/278/346 285/286/354
f 37/39/414 38/41/416 288/287/355 284/283/351
f 56/77/417 55/75/415 285/286/354 289/290/358
f 38/41/416 39/43/418 292/291/359 288/287/355
f 57/79/419 56/77/417 289/290/358 293/294/362
f 39/43/418 40/45/420 296/295/363 292/291/359
f 58/81/421 57/79/419 293/294/362 297/298/366
f 40/45/420 41/47/422 300/299/367 296/295/363
f 59/83/423 58/81/421 297/298/366 301/302/370
f 41/47/422 42/49/424 304/303/371 300/299/367
f 60/85/425 59/83/423 301/302/370 305/306/374
f 42/49/424 43/51/426 308/307/375 304/303/371
f 61/87/427 60/85/425 305/306/374 309/310/378
f 43/51/426 44/53/428 312/311/379 308/307/375
f 62/89/429 61/87/427 309/310/378 313/314/382
f 44/53/428 45/55/430 316/315/383 312/311/379
f 63/91/431 62/89/429 313/314/382 317/318/386
f 45/55/430 46/57/432 320/319/387 316/315/383
f 64/93/433 63/91/431 317/318/386 321/322/390
f 46/57/432 47/59/434 324/323/391 320/319/387
f 65/95/435 64/93/433 321/322/390 325/326/394
f 47/59/434 48/61/436 328/327/395 324/323/391
f 66/97/437 65/95/435 325/326/394 329/330/398
f 48/61/436 49/63/438 332/331/399 328/327/395
f 67/99/439 66/97/437 329/330/398 333/334/402
f 49/63/438 50/65/440 336/335/403 332/331/399
f 68/101/441 67/99/439 333/334/402 337/338/406
f 50/65/440 51/427/442 340/339/407 336/335/403
