# This file uses centimeters as units for non-parametric coordinates.

mtllib landPadStylized.mtl
g default
v 0.857248 1.714003 -0.383855
v 0.841611 1.705871 -0.387835
v 0.856875 1.703688 -0.398002
v 0.642654 1.703049 -0.691322
v 0.629151 1.705819 -0.680330
v 0.630132 1.713516 -0.696387
v 0.694448 1.930389 -0.318322
v 0.693247 1.913603 -0.316924
v 0.707928 1.921182 -0.311986
v 0.520006 1.921245 -0.570239
v 0.520108 1.913793 -0.554978
v 0.522057 1.930304 -0.555396
v 0.910365 1.759641 -0.422337
v 0.909200 1.749652 -0.436018
v 0.911189 1.766841 -0.438283
v 0.698639 1.766832 -0.730845
v 0.695661 1.749852 -0.730409
v 0.683224 1.759605 -0.735044
v 0.585766 1.972172 -0.603121
v 0.570594 1.964848 -0.607120
v 0.572663 1.974545 -0.591653
v 0.759331 1.971916 -0.364582
v 0.744559 1.974545 -0.355058
v 0.758446 1.964799 -0.348607
v 0.808624 1.778831 -0.680371
v 0.811272 1.795881 -0.681417
v 0.685404 2.001133 -0.571701
v 0.671745 2.003591 -0.560881
v 0.621304 1.959378 -0.524464
v 0.619604 1.942776 -0.523719
v 0.741754 1.734882 -0.630924
v 0.755844 1.732308 -0.641642
v 0.879804 1.778765 -0.582241
v 0.882122 1.795884 -0.583896
v 0.743259 2.001047 -0.492188
v 0.729043 2.003591 -0.482016
v 0.678768 1.959406 -0.445440
v 0.677317 1.942712 -0.444368
v 0.812574 1.734900 -0.533426
v 0.827251 1.732521 -0.543868
vt 0.000000 0.669687
vt 0.000014 0.669555
vt 0.002630 0.669535
vt 0.064534 0.669520
vt 0.066654 0.730560
vt 0.002473 0.733333
vt 0.000000 0.730634
vt 0.002485 0.733215
vt 0.064521 0.730463
vt 0.064225 0.733333
vt 0.000000 0.730497
vt 0.002247 0.666667
vt 0.064479 0.666667
vt 0.066667 0.669491
vt 0.066667 0.730510
vt 0.064138 0.733333
vt 0.002529 0.733333
vt 0.002614 0.730485
vt 0.002614 0.669515
vt 0.064537 0.669513
vt 0.064592 0.730561
vt 0.002683 0.730407
vt 0.002247 0.666667
vt 0.064399 0.666667
vt 0.066667 0.669601
vt 0.066667 0.730677
vt 0.000000 0.669503
vt 0.002361 0.666667
vt 0.066653 0.669471
vt 0.000012 0.730515
vt 0.064237 0.733216
vt 0.043735 0.666667
vt 0.043896 0.669514
vt 0.043933 0.730535
vt 0.043602 0.733333
vt 0.043653 0.733216
vt 0.043641 0.733333
vt 0.043908 0.730444
vt 0.043899 0.669525
vt 0.043720 0.666667
vt 0.043682 0.666667
vt 0.022991 0.666667
vt 0.023255 0.669515
vt 0.023274 0.730510
vt 0.023065 0.733333
vt 0.023069 0.733216
vt 0.023057 0.733333
vt 0.023296 0.730426
vt 0.023265 0.669530
vt 0.023040 0.666667
vt 0.022965 0.666667
vn 0.747201 -0.555866 0.364286
vn 0.747201 -0.555866 0.364286
vn 0.747201 -0.555866 0.364286
vn 0.747201 -0.555866 0.364286
vn -0.078031 -0.374000 0.924140
vn -0.078031 -0.374000 0.924140
vn -0.078031 -0.374000 0.924140
vn -0.078031 -0.374000 0.924140
vn -0.243548 -0.959516 -0.141470
vn -0.243547 -0.959516 -0.141470
vn -0.191242 -0.980189 -0.051536
vn -0.175346 -0.984194 -0.024803
vn -0.124172 -0.549594 -0.826153
vn -0.124172 -0.549594 -0.826153
vn -0.124172 -0.549594 -0.826153
vn -0.124172 -0.549594 -0.826153
vn -0.911440 -0.359772 -0.199605
vn -0.911440 -0.359772 -0.199605
vn -0.911440 -0.359772 -0.199605
vn -0.911440 -0.359772 -0.199605
vn 0.049316 0.606612 0.793467
vn 0.049316 0.606612 0.793467
vn 0.049316 0.606612 0.793467
vn 0.049316 0.606612 0.793467
vn -0.985798 0.088625 0.142647
vn -0.985798 0.088625 0.142647
vn -0.924754 0.100903 0.366946
vn -0.939860 0.099041 0.326886
vn -0.736781 0.615197 -0.280511
vn -0.736782 0.615197 -0.280511
vn -0.736781 0.615197 -0.280511
vn -0.736781 0.615197 -0.280511
vn 0.817555 0.507822 0.271517
vn 0.817555 0.507822 0.271517
vn 0.817555 0.507822 0.271517
vn 0.817555 0.507822 0.271517
vn 0.963929 -0.146404 -0.222277
vn 0.963929 -0.146404 -0.222277
vn 0.912710 -0.155790 -0.377744
vn 0.899458 -0.157171 -0.407765
vn -0.019066 0.520897 -0.853406
vn -0.019066 0.520897 -0.853406
vn -0.019066 0.520897 -0.853406
vn -0.019066 0.520897 -0.853406
vn 0.199717 0.979000 0.040904
vn 0.224393 0.971360 0.078151
vn 0.289390 0.940327 0.178991
vn 0.289390 0.940327 0.178991
vn 0.813804 0.581040 -0.010731
vn 0.753595 0.620976 -0.215602
vn 0.757131 0.619787 -0.206438
vn 0.813804 0.581040 -0.010731
vn -0.823216 -0.567537 0.014728
vn -0.823216 -0.567537 0.014728
vn -0.767052 -0.605356 0.212546
vn -0.764034 -0.606342 0.220458
vn 0.519875 -0.811745 -0.266084
vn 0.499387 -0.813934 -0.296855
vn 0.491685 -0.814459 -0.308063
vn 0.519875 -0.811745 -0.266084
vn -0.647626 0.114158 -0.753358
vn -0.647626 0.114158 -0.753358
vn -0.647626 0.114158 -0.753358
vn -0.647626 0.114158 -0.753358
vn -0.506739 0.813250 0.286076
vn -0.530168 0.810127 0.250234
vn -0.530168 0.810127 0.250234
vn -0.495847 0.814170 0.302098
vn 0.531708 0.091126 0.842011
vn 0.531708 0.091126 0.842011
vn 0.531708 0.091126 0.842011
vn 0.531708 0.091126 0.842011
vn 0.263565 -0.782751 0.563768
vn 0.263565 -0.782751 0.563768
vn 0.263565 -0.782751 0.563768
vn -0.486226 -0.776027 -0.401704
vn -0.486226 -0.776027 -0.401704
vn -0.486226 -0.776027 -0.401704
vn -0.364577 0.103184 0.925439
vn -0.364577 0.103184 0.925439
vn -0.364577 0.103184 0.925439
vn -0.990841 0.118615 0.064529
vn -0.990841 0.118615 0.064529
vn -0.990841 0.118615 0.064529
vn 0.993364 -0.115015 -0.000594
vn 0.993364 -0.115015 -0.000594
vn 0.993364 -0.115015 -0.000594
vn 0.295183 -0.076216 -0.952396
vn 0.295183 -0.076216 -0.952396
vn 0.295183 -0.076216 -0.952396
vn -0.273460 0.831008 -0.484402
vn -0.273460 0.831008 -0.484402
vn -0.273460 0.831008 -0.484402
vn 0.399837 0.828824 0.391385
vn 0.399837 0.828823 0.391385
vn 0.399837 0.828823 0.391385
vn 0.659207 -0.143847 -0.738075
vn 0.611546 -0.137167 -0.779229
vn 0.424415 -0.109288 -0.898848
vn 0.424415 -0.109288 -0.898848
vn 0.398004 0.621591 -0.674698
vn 0.404446 0.622583 -0.669936
vn 0.156312 0.560995 -0.812928
vn 0.156312 0.560995 -0.812928
vn -0.148889 0.914195 -0.376935
vn -0.148889 0.914195 -0.376935
vn -0.032517 0.967256 -0.251711
vn 0.010068 0.978884 -0.204169
vn -0.377928 0.806012 0.455539
vn -0.419668 0.812260 0.405108
vn -0.439951 0.814074 0.379113
vn -0.377928 0.806012 0.455539
vn -0.556376 0.089781 0.826066
vn -0.618809 0.094889 0.779789
vn -0.315997 0.068046 0.946317
vn -0.315997 0.068046 0.946317
vn -0.411500 -0.608302 0.678702
vn -0.407024 -0.607646 0.681980
vn -0.161803 -0.548643 0.820251
vn -0.161803 -0.548643 0.820251
vn -0.029809 -0.981232 0.190515
vn -0.001482 -0.973721 0.227739
vn 0.090138 -0.934415 0.344591
vn 0.090138 -0.934415 0.344591
vn 0.443476 -0.814527 -0.373999
vn 0.430775 -0.813705 -0.390279
vn 0.398295 -0.810139 -0.430158
vn 0.398295 -0.810139 -0.430158
s off
g pSphere1
usemtl initialShadingGroup
f 1/1/1 3/23/2 14/12/3 13/27/4
f 2/3/5 1/2/6 9/30/7 8/22/8
s 1
f 3/28/9 2/3/10 39/49/11 40/50/12
s off
f 4/24/13 6/25/14 18/14/15 17/13/16
f 6/29/17 5/4/18 11/9/19 10/5/20
f 7/6/21 9/7/22 24/11/23 23/17/24
s 2
f 8/22/25 7/8/26 37/46/27 38/48/28
s off
f 10/26/29 12/10/30 21/16/31 20/15/32
f 13/27/33 15/19/34 22/18/35 24/11/36
s 3
f 15/19/37 14/12/38 33/42/39 34/43/40
s off
f 16/20/41 18/14/42 20/15/43 19/21/44
s 4
f 35/44/45 36/45/46 23/17/47 22/18/48
s 5
f 15/19/49 34/43/50 35/44/51 22/18/52
s 6
f 2/3/53 8/22/54 38/48/55 39/49/56
s 7
f 3/23/57 40/51/58 33/42/59 14/12/60
s off
f 6/25/61 10/26/62 20/15/63 18/14/64
s 8
f 37/47/65 7/6/66 23/17/67 36/45/68
s off
f 9/7/69 1/1/70 13/27/71 24/11/72
f 1/2/73 2/3/74 3/28/75
f 4/24/76 5/4/77 6/29/78
f 7/8/79 8/22/80 9/30/81
f 10/5/82 11/9/83 12/31/84
f 13/27/85 14/12/86 15/19/87
f 16/20/88 17/13/89 18/14/90
f 19/21/91 20/15/92 21/16/93
f 22/18/94 23/17/95 24/11/96
s 3
f 26/33/97 25/32/98 17/13/99 16/20/100
s 5
f 27/34/101 26/33/102 16/20/103 19/21/104
s 4
f 19/21/105 21/16/106 28/35/107 27/34/108
s 8
f 12/10/109 29/37/110 28/35/111 21/16/112
s 2
f 30/38/113 29/36/114 12/31/115 11/9/116
s 6
f 31/39/117 30/38/118 11/9/119 5/4/120
s 1
f 32/40/121 31/39/122 5/4/123 4/24/124
s 7
f 25/32/125 32/41/126 4/24/127 17/13/128
s 3
f 34/43/40 33/42/39 25/32/98 26/33/97
s 5
f 35/44/51 34/43/50 26/33/102 27/34/101
s 4
f 27/34/108 28/35/107 36/45/46 35/44/45
s 8
f 29/37/110 37/47/65 36/45/68 28/35/111
s 2
f 38/48/28 37/46/27 29/36/114 30/38/113
s 6
f 39/49/56 38/48/55 30/38/118 31/39/117
s 1
f 40/50/12 39/49/11 31/39/122 32/40/121
s 7
f 33/42/59 40/51/58 32/41/126 25/32/125
g default
v -0.334739 1.714003 0.877593
v -0.320868 1.705871 0.869349
v -0.324472 1.703688 0.887332
v 0.034414 1.703049 0.943264
v 0.036189 1.705819 0.925943
v 0.046850 1.713516 0.937991
v -0.265961 1.930389 0.716137
v -0.266100 1.913603 0.714299
v -0.279974 1.921182 0.721188
v 0.035520 1.921245 0.770920
v 0.024657 1.913793 0.760200
v 0.023574 1.930304 0.761874
v -0.345088 1.759641 0.942362
v -0.334590 1.749652 0.951213
v -0.334395 1.766841 0.954220
v 0.022773 1.766832 1.010797
v 0.024570 1.749852 1.008384
v 0.036642 1.759605 1.002867
v 0.012272 1.972172 0.840670
v 0.025828 1.964848 0.832769
v 0.013428 1.974545 0.823296
v -0.279129 1.971916 0.794727
v -0.275418 1.974545 0.777547
v -0.289800 1.964799 0.782805
v -0.090689 1.778831 1.052879
v -0.091822 1.795881 1.055490
v -0.080401 2.001133 0.888907
v -0.078393 2.003591 0.871598
v -0.068476 1.959378 0.810180
v -0.067801 1.942776 0.808452
v -0.078368 1.734882 0.970630
v -0.080753 1.732308 0.988172
v -0.210408 1.778765 1.033822
v -0.210878 1.795884 1.036631
v -0.177534 2.001047 0.873593
v -0.174675 2.003591 0.856348
v -0.164988 1.959406 0.794935
v -0.164720 1.942712 0.793151
v -0.197387 1.734900 0.951766
v -0.200382 1.732521 0.969528
vt 0.000000 0.669687
vt 0.000014 0.669555
vt 0.002630 0.669535
vt 0.064534 0.669520
vt 0.066654 0.730560
vt 0.002473 0.733333
vt 0.000000 0.730634
vt 0.002485 0.733215
vt 0.064521 0.730463
vt 0.064225 0.733333
vt 0.000000 0.730497
vt 0.002247 0.666667
vt 0.064479 0.666667
vt 0.066667 0.669491
vt 0.066667 0.730510
vt 0.064138 0.733333
vt 0.002529 0.733333
vt 0.002614 0.730485
vt 0.002614 0.669515
vt 0.064537 0.669513
vt 0.064592 0.730561
vt 0.002683 0.730407
vt 0.002247 0.666667
vt 0.064399 0.666667
vt 0.066667 0.669601
vt 0.066667 0.730677
vt 0.000000 0.669503
vt 0.002361 0.666667
vt 0.066653 0.669471
vt 0.000012 0.730515
vt 0.064237 0.733216
vt 0.043735 0.666667
vt 0.043896 0.669514
vt 0.043933 0.730535
vt 0.043602 0.733333
vt 0.043653 0.733216
vt 0.043641 0.733333
vt 0.043908 0.730444
vt 0.043899 0.669525
vt 0.043720 0.666667
vt 0.043682 0.666667
vt 0.022991 0.666667
vt 0.023255 0.669515
vt 0.023274 0.730510
vt 0.023065 0.733333
vt 0.023069 0.733216
vt 0.023057 0.733333
vt 0.023296 0.730426
vt 0.023265 0.669530
vt 0.023040 0.666667
vt 0.022965 0.666667
vn -0.785940 -0.555866 0.270761
vn -0.785940 -0.555866 0.270761
vn -0.785940 -0.555866 0.270761
vn -0.785940 -0.555866 0.270761
vn -0.598290 -0.374000 -0.708642
vn -0.598290 -0.374000 -0.708642
vn -0.598290 -0.374000 -0.708642
vn -0.598290 -0.374000 -0.708642
vn 0.272248 -0.959516 -0.072180
vn 0.272249 -0.959516 -0.072180
vn 0.171670 -0.980189 -0.098787
vn 0.141526 -0.984194 -0.106450
vn 0.671981 -0.549594 0.496375
vn 0.671981 -0.549594 0.496375
vn 0.671981 -0.549594 0.496375
vn 0.671981 -0.549594 0.496375
vn 0.785627 -0.359772 -0.503343
vn 0.785627 -0.359772 -0.503343
vn 0.785627 -0.359772 -0.503343
vn 0.785627 -0.359772 -0.503343
vn -0.595937 0.606612 -0.526194
vn -0.595937 0.606612 -0.526194
vn -0.595937 0.606612 -0.526194
vn -0.595937 0.606612 -0.526194
vn 0.596198 0.088625 -0.797931
vn 0.596198 0.088625 -0.797931
vn 0.394429 0.100903 -0.913370
vn 0.433438 0.099041 -0.895724
vn 0.719334 0.615197 -0.322632
vn 0.719334 0.615197 -0.322632
vn 0.719334 0.615197 -0.322632
vn 0.719334 0.615197 -0.322632
vn -0.770090 0.507822 0.386107
vn -0.770090 0.507822 0.386107
vn -0.770090 0.507822 0.386107
vn -0.770090 0.507822 0.386107
vn -0.524427 -0.146404 0.838774
vn -0.524427 -0.146404 0.838774
vn -0.378278 -0.155790 0.912489
vn -0.347679 -0.157171 0.924346
vn 0.616931 0.520897 0.589968
vn 0.616931 0.520897 0.589968
vn 0.616931 0.520897 0.589968
vn 0.616931 0.520897 0.589968
vn -0.170144 0.979000 0.112298
vn -0.213931 0.971360 0.103409
vn -0.331195 0.940328 0.078063
vn -0.331195 0.940328 0.078063
vn -0.567858 0.581040 0.583035
vn -0.380418 0.620976 0.685326
vn -0.389399 0.619787 0.681346
vn -0.567858 0.581040 0.583035
vn 0.571687 -0.567537 -0.592516
vn 0.571687 -0.567537 -0.592516
vn 0.392095 -0.605356 -0.692680
vn 0.384366 -0.606342 -0.696141
vn -0.179457 -0.811745 0.555757
vn -0.143212 -0.813934 0.563028
vn -0.129841 -0.814459 0.565507
vn -0.179457 -0.811745 0.555757
vn 0.990645 0.114158 0.074763
vn 0.990645 0.114158 0.074763
vn 0.990645 0.114158 0.074763
vn 0.990645 0.114158 0.074763
vn 0.156032 0.813250 -0.560605
vn 0.197944 0.810127 -0.551827
vn 0.197944 0.810127 -0.551827
vn 0.137001 0.814170 -0.564233
vn -0.971366 0.091126 -0.219417
vn -0.971366 0.091126 -0.219417
vn -0.971366 0.091126 -0.219417
vn -0.971366 0.091126 -0.219417
vn -0.585013 -0.782751 -0.212276
vn -0.585013 -0.782751 -0.212276
vn -0.585013 -0.782751 -0.212276
vn 0.627862 -0.776027 -0.059766
vn 0.627862 -0.776027 -0.059766
vn 0.627862 -0.776027 -0.059766
vn -0.396589 0.103184 -0.912179
vn -0.396589 0.103184 -0.912179
vn -0.396589 0.103184 -0.912179
vn 0.655001 0.118615 -0.746260
vn 0.655001 0.118615 -0.746260
vn 0.655001 0.118615 -0.746260
vn -0.701994 -0.115015 0.702834
vn -0.701994 -0.115015 0.702834
vn -0.701994 -0.115015 0.702834
vn 0.464720 -0.076216 0.882172
vn 0.464720 -0.076216 0.882172
vn 0.464720 -0.076216 0.882172
vn 0.535889 0.831008 0.149159
vn 0.535889 0.831008 0.149159
vn 0.535889 0.831008 0.149159
vn -0.559478 0.828824 0.005976
vn -0.559478 0.828823 0.005976
vn -0.559478 0.828824 0.005976
vn 0.055768 -0.143847 0.988027
vn 0.118570 -0.137167 0.983426
vn 0.335475 -0.109288 0.935688
vn 0.335475 -0.109288 0.935688
vn 0.195652 0.621591 0.758515
vn 0.187730 0.622583 0.759702
vn 0.464298 0.560995 0.685356
vn 0.464298 0.560995 0.685356
vn 0.371813 0.914195 0.161253
vn 0.371813 0.914195 0.161253
vn 0.200979 0.967256 0.154994
vn 0.137250 0.978884 0.151488
vn -0.054879 0.806012 -0.589350
vn 0.010295 0.812260 -0.583205
vn 0.043019 0.814074 -0.579166
vn -0.054879 0.806012 -0.589350
vn -0.190700 0.089781 -0.977534
vn -0.113830 0.094889 -0.988958
vn -0.445704 0.068046 -0.892591
vn -0.445704 0.068046 -0.892591
vn -0.188940 -0.608302 -0.770890
vn -0.194424 -0.607646 -0.770042
vn -0.465593 -0.548643 -0.694417
vn -0.465593 -0.548643 -0.694417
vn -0.113636 -0.981232 -0.155793
vn -0.159988 -0.973721 -0.162084
vn -0.307400 -0.934415 -0.179926
vn -0.307400 -0.934415 -0.179926
vn -0.049127 -0.814527 0.578042
vn -0.028635 -0.813705 0.580573
vn 0.022531 -0.810139 0.585805
vn 0.022531 -0.810139 0.585805
s off
g pSphere3
usemtl initialShadingGroup
f 41/52/129 43/74/130 54/63/131 53/78/132
f 42/54/133 41/53/134 49/81/135 48/73/136
s 1
f 43/79/137 42/54/138 79/100/139 80/101/140
s off
f 44/75/141 46/76/142 58/65/143 57/64/144
f 46/80/145 45/55/146 51/60/147 50/56/148
f 47/57/149 49/58/150 64/62/151 63/68/152
s 2
f 48/73/153 47/59/154 77/97/155 78/99/156
s off
f 50/77/157 52/61/158 61/67/159 60/66/160
f 53/78/161 55/70/162 62/69/163 64/62/164
s 3
f 55/70/165 54/63/166 73/93/167 74/94/168
s off
f 56/71/169 58/65/170 60/66/171 59/72/172
s 4
f 75/95/173 76/96/174 63/68/175 62/69/176
s 5
f 55/70/177 74/94/178 75/95/179 62/69/180
s 6
f 42/54/181 48/73/182 78/99/183 79/100/184
s 7
f 43/74/185 80/102/186 73/93/187 54/63/188
s off
f 46/76/189 50/77/190 60/66/191 58/65/192
s 8
f 77/98/193 47/57/194 63/68/195 76/96/196
s off
f 49/58/197 41/52/198 53/78/199 64/62/200
f 41/53/201 42/54/202 43/79/203
f 44/75/204 45/55/205 46/80/206
f 47/59/207 48/73/208 49/81/209
f 50/56/210 51/60/211 52/82/212
f 53/78/213 54/63/214 55/70/215
f 56/71/216 57/64/217 58/65/218
f 59/72/219 60/66/220 61/67/221
f 62/69/222 63/68/223 64/62/224
s 3
f 66/84/225 65/83/226 57/64/227 56/71/228
s 5
f 67/85/229 66/84/230 56/71/231 59/72/232
s 4
f 59/72/233 61/67/234 68/86/235 67/85/236
s 8
f 52/61/237 69/88/238 68/86/239 61/67/240
s 2
f 70/89/241 69/87/242 52/82/243 51/60/244
s 6
f 71/90/245 70/89/246 51/60/247 45/55/248
s 1
f 72/91/249 71/90/250 45/55/251 44/75/252
s 7
f 65/83/253 72/92/254 44/75/255 57/64/256
s 3
f 74/94/168 73/93/167 65/83/226 66/84/225
s 5
f 75/95/179 74/94/178 66/84/230 67/85/229
s 4
f 67/85/236 68/86/235 76/96/174 75/95/173
s 8
f 69/88/238 77/98/193 76/96/196 68/86/239
s 2
f 78/99/156 77/97/155 69/87/242 70/89/241
s 6
f 79/100/184 78/99/183 70/89/246 71/90/245
s 1
f 80/101/140 79/100/139 71/90/250 72/91/249
s 7
f 73/93/187 80/102/186 72/92/254 65/83/253
g default
v -0.592648 1.714003 -0.728689
v -0.592445 1.705871 -0.712554
v -0.606216 1.703688 -0.724667
v -0.834097 1.703049 -0.441828
v -0.819985 1.705819 -0.431631
v -0.835749 1.713516 -0.428422
v -0.487212 1.930389 -0.588398
v -0.485551 1.913603 -0.587599
v -0.484580 1.921182 -0.603058
v -0.685396 1.921245 -0.354698
v -0.670681 1.913793 -0.358747
v -0.671589 1.930304 -0.360522
v -0.643566 1.759641 -0.770036
v -0.656480 1.749652 -0.765370
v -0.659181 1.766841 -0.766705
v -0.886763 1.766832 -0.485677
v -0.885571 1.749852 -0.482914
v -0.886829 1.759605 -0.469700
v -0.734177 1.972172 -0.409708
v -0.734113 1.964848 -0.394017
v -0.719709 1.974545 -0.400019
v -0.548689 1.971916 -0.639096
v -0.535666 1.974545 -0.627293
v -0.533029 1.964799 -0.642376
v -0.866475 1.778831 -0.604978
v -0.868171 1.795881 -0.607265
v -0.729616 2.001133 -0.514083
v -0.715630 2.003591 -0.503689
v -0.667399 1.959378 -0.464393
v -0.666239 1.942776 -0.462943
v -0.801406 1.734882 -0.553184
v -0.815405 1.732308 -0.564020
v -0.790112 1.778765 -0.699130
v -0.792310 1.795884 -0.700941
v -0.667787 2.001047 -0.590546
v -0.654282 2.003591 -0.579447
v -0.605940 1.959406 -0.540351
v -0.604529 1.942712 -0.539227
v -0.725560 1.734900 -0.646825
v -0.739445 1.732521 -0.658300
vt 0.000000 0.669687
vt 0.000014 0.669555
vt 0.002630 0.669535
vt 0.064534 0.669520
vt 0.066654 0.730560
vt 0.002473 0.733333
vt 0.000000 0.730634
vt 0.002485 0.733215
vt 0.064521 0.730463
vt 0.064225 0.733333
vt 0.000000 0.730497
vt 0.002247 0.666667
vt 0.064479 0.666667
vt 0.066667 0.669491
vt 0.066667 0.730510
vt 0.064138 0.733333
vt 0.002529 0.733333
vt 0.002614 0.730485
vt 0.002614 0.669515
vt 0.064537 0.669513
vt 0.064592 0.730561
vt 0.002683 0.730407
vt 0.002247 0.666667
vt 0.064399 0.666667
vt 0.066667 0.669601
vt 0.066667 0.730677
vt 0.000000 0.669503
vt 0.002361 0.666667
vt 0.066653 0.669471
vt 0.000012 0.730515
vt 0.064237 0.733216
vt 0.043735 0.666667
vt 0.043896 0.669514
vt 0.043933 0.730535
vt 0.043602 0.733333
vt 0.043653 0.733216
vt 0.043641 0.733333
vt 0.043908 0.730444
vt 0.043899 0.669525
vt 0.043720 0.666667
vt 0.043682 0.666667
vt 0.022991 0.666667
vt 0.023255 0.669515
vt 0.023274 0.730510
vt 0.023065 0.733333
vt 0.023069 0.733216
vt 0.023057 0.733333
vt 0.023296 0.730426
vt 0.023265 0.669530
vt 0.023040 0.666667
vt 0.022965 0.666667
vn 0.158484 -0.555866 -0.816025
vn 0.158484 -0.555866 -0.816025
vn 0.158484 -0.555866 -0.816025
vn 0.158484 -0.555866 -0.816025
vn 0.912847 -0.374000 -0.163813
vn 0.912847 -0.374000 -0.163813
vn 0.912847 -0.374000 -0.163813
vn 0.912847 -0.374000 -0.163813
vn -0.073615 -0.959516 0.271864
vn -0.073615 -0.959516 0.271864
vn -0.000283 -0.980189 0.198064
vn 0.021425 -0.984194 0.175790
vn -0.765864 -0.549594 0.333765
vn -0.765864 -0.549594 0.333765
vn -0.765864 -0.549594 0.333765
vn -0.765864 -0.549594 0.333765
vn 0.043095 -0.359772 0.932045
vn 0.043095 -0.359772 0.932045
vn 0.043095 -0.359772 0.932045
vn 0.043095 -0.359772 0.932045
vn 0.753666 0.606612 -0.253000
vn 0.753666 0.606612 -0.253000
vn 0.753666 0.606612 -0.253000
vn 0.753666 0.606612 -0.253000
vn 0.392929 0.088625 0.915288
vn 0.392929 0.088625 0.915288
vn 0.593787 0.100903 0.798271
vn 0.559001 0.099041 0.823231
vn -0.080259 0.615197 0.784278
vn -0.080260 0.615197 0.784278
vn -0.080260 0.615197 0.784278
vn -0.080260 0.615197 0.784278
vn 0.050667 0.507822 -0.859971
vn 0.050667 0.507822 -0.859971
vn 0.050667 0.507822 -0.859971
vn 0.050667 0.507822 -0.859971
vn -0.464187 -0.146404 -0.873554
vn -0.464187 -0.146404 -0.873554
vn -0.601099 -0.155790 -0.783843
vn -0.626668 -0.157171 -0.763272
vn -0.819393 0.520897 0.239294
vn -0.819393 0.520897 0.239294
vn -0.819393 0.520897 0.239294
vn -0.819393 0.520897 0.239294
vn -0.012181 0.979000 -0.203498
vn 0.017411 0.971360 -0.236974
vn 0.097993 0.940327 -0.325855
vn 0.097993 0.940327 -0.325855
vn -0.220994 0.581040 -0.783297
vn -0.403300 0.620976 -0.672114
vn -0.395364 0.619787 -0.677902
vn -0.220994 0.581040 -0.783297
vn 0.227290 -0.567537 0.791354
vn 0.227290 -0.567537 0.791354
vn 0.403831 -0.605356 0.685904
vn 0.410693 -0.606342 0.680941
vn -0.391571 -0.811745 -0.433293
vn -0.415991 -0.813934 -0.405539
vn -0.424823 -0.814459 -0.395199
vn -0.391571 -0.811745 -0.433293
vn -0.560070 0.114158 0.820542
vn -0.560070 0.114158 0.820542
vn -0.560070 0.114158 0.820542
vn -0.560070 0.114158 0.820542
vn 0.407482 0.813250 0.415431
vn 0.378925 0.810127 0.447338
vn 0.378925 0.810127 0.447338
vn 0.420139 0.814170 0.400763
vn 0.675704 0.091126 -0.731519
vn 0.675704 0.091126 -0.731519
vn 0.675704 0.091126 -0.731519
vn 0.675704 0.091126 -0.731519
vn 0.476343 -0.782751 -0.400498
vn 0.476343 -0.782751 -0.400498
vn 0.476343 -0.782751 -0.400498
vn -0.262172 -0.776027 0.573627
vn -0.262172 -0.776027 0.573627
vn -0.262172 -0.776027 0.573627
vn 0.988265 0.103184 0.112633
vn 0.988265 0.103184 0.112633
vn 0.988265 0.103184 0.112633
vn 0.318779 0.118615 0.940378
vn 0.318779 0.118615 0.940378
vn 0.318779 0.118615 0.940378
vn -0.257676 -0.115015 -0.959362
vn -0.257675 -0.115015 -0.959362
vn -0.257675 -0.115015 -0.959362
vn -0.996343 -0.076216 -0.038627
vn -0.996343 -0.076216 -0.038627
vn -0.996343 -0.076216 -0.038627
vn -0.397120 0.831008 0.389514
vn -0.397120 0.831008 0.389514
vn -0.397120 0.831008 0.389514
vn 0.274563 0.828824 -0.487511
vn 0.274563 0.828823 -0.487511
vn 0.274563 0.828824 -0.487511
vn -0.883541 -0.143847 -0.445717
vn -0.910957 -0.137167 -0.389028
vn -0.978067 -0.109288 -0.177314
vn -0.978067 -0.109288 -0.177314
vn -0.754719 0.621591 -0.209817
vn -0.751787 0.622583 -0.217272
vn -0.825684 0.560995 0.059416
vn -0.825684 0.560995 0.059416
vn -0.325556 0.914195 0.241373
vn -0.325556 0.914195 0.241373
vn -0.234718 0.967256 0.096556
vn -0.199818 0.978884 0.043118
vn 0.537832 0.806012 0.247149
vn 0.499922 0.812260 0.300518
vn 0.480063 0.814074 0.326839
vn 0.537831 0.806012 0.247149
vn 0.941919 0.089781 0.323616
vn 0.913378 0.094889 0.395900
vn 0.995858 0.068046 0.060305
vn 0.995858 0.068046 0.060305
vn 0.762080 -0.608302 0.221818
vn 0.764088 -0.607646 0.216645
vn 0.834179 -0.548643 -0.056007
vn 0.834179 -0.548643 -0.056007
vn 0.191739 -0.981232 -0.020515
vn 0.220363 -0.973721 -0.057511
vn 0.309520 -0.934415 -0.176253
vn 0.309520 -0.934415 -0.176253
vn -0.476035 -0.814527 -0.331566
vn -0.488473 -0.813705 -0.315085
vn -0.518587 -0.810139 -0.273390
vn -0.518587 -0.810139 -0.273390
s off
g pSphere2
usemtl initialShadingGroup
f 81/103/257 83/125/258 94/114/259 93/129/260
f 82/105/261 81/104/262 89/132/263 88/124/264
s 1
f 83/130/265 82/105/266 119/151/267 120/152/268
s off
f 84/126/269 86/127/270 98/116/271 97/115/272
f 86/131/273 85/106/274 91/111/275 90/107/276
f 87/108/277 89/109/278 104/113/279 103/119/280
s 2
f 88/124/281 87/110/282 117/148/283 118/150/284
s off
f 90/128/285 92/112/286 101/118/287 100/117/288
f 93/129/289 95/121/290 102/120/291 104/113/292
s 3
f 95/121/293 94/114/294 113/144/295 114/145/296
s off
f 96/122/297 98/116/298 100/117/299 99/123/300
s 4
f 115/146/301 116/147/302 103/119/303 102/120/304
s 5
f 95/121/305 114/145/306 115/146/307 102/120/308
s 6
f 82/105/309 88/124/310 118/150/311 119/151/312
s 7
f 83/125/313 120/153/314 113/144/315 94/114/316
s off
f 86/127/317 90/128/318 100/117/319 98/116/320
s 8
f 117/149/321 87/108/322 103/119/323 116/147/324
s off
f 89/109/325 81/103/326 93/129/327 104/113/328
f 81/104/329 82/105/330 83/130/331
f 84/126/332 85/106/333 86/131/334
f 87/110/335 88/124/336 89/132/337
f 90/107/338 91/111/339 92/133/340
f 93/129/341 94/114/342 95/121/343
f 96/122/344 97/115/345 98/116/346
f 99/123/347 100/117/348 101/118/349
f 102/120/350 103/119/351 104/113/352
s 3
f 106/135/353 105/134/354 97/115/355 96/122/356
s 5
f 107/136/357 106/135/358 96/122/359 99/123/360
s 4
f 99/123/361 101/118/362 108/137/363 107/136/364
s 8
f 92/112/365 109/139/366 108/137/367 101/118/368
s 2
f 110/140/369 109/138/370 92/133/371 91/111/372
s 6
f 111/141/373 110/140/374 91/111/375 85/106/376
s 1
f 112/142/377 111/141/378 85/106/379 84/126/380
s 7
f 105/134/381 112/143/382 84/126/383 97/115/384
s 3
f 114/145/296 113/144/295 105/134/354 106/135/353
s 5
f 115/146/307 114/145/306 106/135/358 107/136/357
s 4
f 107/136/364 108/137/363 116/147/302 115/146/301
s 8
f 109/139/366 117/149/321 116/147/324 108/137/367
s 2
f 118/150/284 117/148/283 109/138/370 110/140/369
s 6
f 119/151/312 118/150/311 110/140/374 111/141/373
s 1
f 120/152/268 119/151/267 111/141/378 112/142/377
s 7
f 113/144/315 120/153/314 112/143/382 105/134/381
g default
v 0.866025 1.139583 -0.500000
v 0.500000 1.139583 -0.866025
v 0.000000 0.912621 -1.000000
v -0.500000 1.139583 -0.866025
v -0.866025 1.139583 -0.500000
v -1.000000 0.912621 0.000000
v -0.866025 1.139583 0.500000
v -0.500000 1.139583 0.866025
v 0.000000 0.912621 1.000000
v 0.500000 1.139583 0.866025
v 0.866025 1.139583 0.500000
v 1.000000 0.912621 0.000000
v 0.866025 1.504971 -0.500000
v 0.500000 1.504971 -0.866025
v 0.000000 1.504971 -1.000000
v -0.500000 1.504971 -0.866025
v -0.866025 1.504971 -0.500000
v -1.000000 1.504971 0.000000
v -0.866025 1.504971 0.500000
v -0.500000 1.504971 0.866025
v 0.000000 1.504971 1.000000
v 0.500000 1.504971 0.866025
v 0.866025 1.504971 0.500000
v 1.000000 1.504971 0.000000
v 0.000000 1.139583 0.000000
v 0.704447 1.504971 -0.406713
v 0.406713 1.504971 -0.704447
v 0.000000 1.504971 -0.813425
v -0.406713 1.504971 -0.704447
v -0.704447 1.504971 -0.406713
v -0.813425 1.504971 0.000000
v -0.704447 1.504971 0.406713
v -0.406713 1.504971 0.704447
v 0.000000 1.504971 0.813425
v 0.406713 1.504971 0.704447
v 0.704447 1.504971 0.406713
v 0.813425 1.504971 0.000000
v 0.000000 1.674969 0.000000
v 0.704447 1.632474 -0.406713
v 0.666347 1.674969 -0.384716
v 0.384716 1.674969 -0.666347
v 0.406713 1.632474 -0.704447
v -0.000000 1.674969 -0.769431
v 0.000000 1.632474 -0.813425
v -0.384716 1.674969 -0.666347
v -0.406713 1.632474 -0.704447
v -0.666347 1.674969 -0.384716
v -0.704447 1.632474 -0.406713
v -0.769431 1.674969 -0.000000
v -0.813425 1.632474 0.000000
v -0.666347 1.674969 0.384716
v -0.704447 1.632474 0.406713
v -0.384716 1.674969 0.666347
v -0.406713 1.632474 0.704447
v 0.000000 1.674969 0.769431
v 0.000000 1.632474 0.813425
v 0.384716 1.674969 0.666347
v 0.406713 1.632474 0.704447
v 0.666347 1.674969 0.384716
v 0.704447 1.632474 0.406713
v 0.769431 1.674969 0.000000
v 0.813425 1.632474 0.000000
vt 0.635316 0.078125
vt 0.578125 0.020934
vt 0.500000 0.000000
vt 0.421875 0.020934
vt 0.364684 0.078125
vt 0.343750 0.156250
vt 0.364684 0.234375
vt 0.421875 0.291566
vt 0.500000 0.312500
vt 0.578125 0.291566
vt 0.635316 0.234375
vt 0.656250 0.156250
vt 0.375000 0.312500
vt 0.395833 0.312500
vt 0.416667 0.312500
vt 0.437500 0.312500
vt 0.458333 0.312500
vt 0.479167 0.312500
vt 0.500000 0.312500
vt 0.520833 0.312500
vt 0.541667 0.312500
vt 0.562500 0.312500
vt 0.583333 0.312500
vt 0.604167 0.312500
vt 0.625000 0.312500
vt 0.375000 0.687500
vt 0.395833 0.687500
vt 0.416667 0.687500
vt 0.437500 0.687500
vt 0.458333 0.687500
vt 0.479167 0.687500
vt 0.500000 0.687500
vt 0.520833 0.687500
vt 0.541667 0.687500
vt 0.562500 0.687500
vt 0.583333 0.687500
vt 0.604167 0.687500
vt 0.625000 0.687500
vt 0.635316 0.765625
vt 0.578125 0.708434
vt 0.500000 0.687500
vt 0.421875 0.708434
vt 0.364684 0.765625
vt 0.343750 0.843750
vt 0.364684 0.921875
vt 0.421875 0.979066
vt 0.500000 1.000000
vt 0.578125 0.979066
vt 0.635316 0.921875
vt 0.656250 0.843750
vt 0.500000 0.156250
vt 0.573900 0.971748
vt 0.500000 0.991549
vt 0.426100 0.971748
vt 0.372002 0.917650
vt 0.352201 0.843750
vt 0.372002 0.769850
vt 0.426100 0.715752
vt 0.500000 0.695951
vt 0.573900 0.715752
vt 0.627998 0.769850
vt 0.647799 0.843750
vt 0.627998 0.917650
vt 0.500000 0.843750
vt 0.578125 0.979066
vt 0.635316 0.921875
vt 0.500000 1.000000
vt 0.578125 0.979066
vt 0.421875 0.979066
vt 0.500000 1.000000
vt 0.364684 0.921875
vt 0.421875 0.979066
vt 0.343750 0.843750
vt 0.364684 0.921875
vt 0.364684 0.765625
vt 0.343750 0.843750
vt 0.421875 0.708434
vt 0.364684 0.765625
vt 0.500000 0.687500
vt 0.421875 0.708434
vt 0.578125 0.708434
vt 0.500000 0.687500
vt 0.635316 0.765625
vt 0.578125 0.708434
vt 0.656250 0.843750
vt 0.635316 0.765625
vt 0.635316 0.921875
vt 0.656250 0.843750
vn 0.913563 0.000000 -0.406696
vn 0.406696 0.000000 -0.913563
vn 0.444408 0.316579 -0.838021
vn 0.838021 0.316579 -0.444408
vn 0.000000 0.000000 -1.000000
vn 0.000000 0.282408 -0.959294
vn -0.406696 0.000000 -0.913563
vn -0.444408 0.316579 -0.838021
vn -0.913563 0.000000 -0.406696
vn -0.838021 0.316579 -0.444408
vn -1.000000 0.000000 0.000000
vn -0.959294 0.282408 0.000000
vn -0.913563 0.000000 0.406696
vn -0.838021 0.316579 0.444408
vn -0.406696 0.000000 0.913563
vn -0.444408 0.316579 0.838021
vn 0.000000 0.000000 1.000000
vn 0.000000 0.282408 0.959294
vn 0.406696 0.000000 0.913563
vn 0.444408 0.316579 0.838021
vn 0.913563 0.000000 0.406696
vn 0.838021 0.316579 0.444408
vn 1.000000 0.000000 0.000000
vn 0.959294 0.282408 0.000000
vn 0.202261 -0.972345 0.116776
vn -0.116776 -0.972345 -0.202261
vn 0.000000 -1.000000 0.000000
vn 0.000000 -0.975198 0.221332
vn -0.202261 -0.972345 0.116776
vn 0.116776 -0.972345 -0.202261
vn 0.221332 -0.975198 -0.000000
vn 0.116776 -0.972345 0.202261
vn -0.202261 -0.972345 -0.116776
vn 0.000000 -0.975198 -0.221332
vn 0.202261 -0.972345 -0.116776
vn -0.116776 -0.972345 0.202261
vn -0.221332 -0.975198 0.000000
vn 0.000000 1.000000 0.000000
vn 0.000000 1.000000 0.000000
vn 0.000000 1.000000 0.000000
vn 0.000000 1.000000 0.000000
vn 0.000000 1.000000 0.000000
vn 0.000000 1.000000 0.000000
vn 0.000000 1.000000 0.000000
vn 0.000000 1.000000 0.000000
vn 0.000000 1.000000 0.000000
vn 0.000000 1.000000 0.000000
vn 0.000000 1.000000 0.000000
vn 0.000000 1.000000 0.000000
vn 0.000000 1.000000 0.000000
vn 0.000000 1.000000 0.000000
vn 0.000000 1.000000 0.000000
vn 0.000000 1.000000 0.000000
vn 0.000000 1.000000 0.000000
vn 0.000000 1.000000 0.000000
vn 0.000000 1.000000 0.000000
vn 0.000000 1.000000 0.000000
vn 0.000000 1.000000 0.000000
vn 0.000000 1.000000 0.000000
vn 0.000000 1.000000 0.000000
vn 0.000000 1.000000 0.000000
vn 0.840641 0.240342 -0.485344
vn 0.601668 0.719254 -0.347373
vn 0.694747 0.719254 -0.000000
vn 0.970688 0.240342 0.000000
vn 0.485344 0.240342 -0.840641
vn 0.347374 0.719254 -0.601669
vn 0.000000 0.240342 -0.970688
vn 0.000000 0.719254 -0.694747
vn -0.485344 0.240342 -0.840641
vn -0.347374 0.719254 -0.601669
vn -0.840641 0.240342 -0.485344
vn -0.601669 0.719254 -0.347374
vn -0.970688 0.240342 0.000000
vn -0.694747 0.719254 0.000000
vn -0.840641 0.240342 0.485344
vn -0.601668 0.719254 0.347373
vn -0.485344 0.240342 0.840641
vn -0.347374 0.719254 0.601669
vn -0.000000 0.240342 0.970688
vn -0.000000 0.719254 0.694747
vn 0.485344 0.240342 0.840641
vn 0.347374 0.719254 0.601669
vn 0.840641 0.240342 0.485344
vn 0.601669 0.719254 0.347374
vn 0.000000 1.000000 0.000000
vn 0.000000 1.000000 0.000000
vn 0.000000 1.000000 0.000000
vn 0.000000 1.000000 0.000000
vn 0.000000 1.000000 0.000000
vn 0.000000 1.000000 0.000000
vn 0.000000 1.000000 0.000000
vn 0.000000 1.000000 0.000000
vn 0.000000 1.000000 0.000000
vn 0.000000 1.000000 -0.000000
vn 0.000000 1.000000 -0.000000
vn 0.000000 1.000000 0.000000
vn 0.000000 1.000000 0.000000
vn 0.866025 0.000000 -0.500000
vn 0.500000 0.000000 -0.866025
vn 0.258819 0.000000 -0.965926
vn -0.258819 -0.000000 -0.965926
vn -0.500000 -0.000000 -0.866025
vn -0.866025 0.000000 -0.500000
vn -0.965926 0.000000 -0.258819
vn -0.965926 0.000000 0.258819
vn -0.866025 0.000000 0.500000
vn -0.500000 0.000000 0.866025
vn -0.258819 0.000000 0.965926
vn 0.258819 -0.000000 0.965926
vn 0.500000 -0.000000 0.866025
vn 0.866025 0.000000 0.500000
vn 0.965926 0.000000 0.258819
vn 0.965926 0.000000 -0.258819
s 1
g pCylinder1
usemtl initialShadingGroup
f 121/166/385 122/167/386 134/180/387 133/179/388
f 122/167/386 123/168/389 135/181/390 134/180/387
f 123/168/389 124/169/391 136/182/392 135/181/390
f 124/169/391 125/170/393 137/183/394 136/182/392
f 125/170/393 126/171/395 138/184/396 137/183/394
f 126/171/395 127/172/397 139/185/398 138/184/396
f 127/172/397 128/173/399 140/186/400 139/185/398
f 128/173/399 129/174/401 141/187/402 140/186/400
f 129/174/401 130/175/403 142/188/404 141/187/402
f 130/175/403 131/176/405 143/189/406 142/188/404
f 131/176/405 132/177/407 144/190/408 143/189/406
f 132/177/407 121/178/385 133/191/388 144/190/408
s 2
f 122/155/409 121/154/410 145/204/411
f 123/156/412 122/155/409 145/204/411
f 124/157/413 123/156/412 145/204/411
f 125/158/414 124/157/413 145/204/411
f 126/159/415 125/158/414 145/204/411
f 127/160/416 126/159/415 145/204/411
f 128/161/417 127/160/416 145/204/411
f 129/162/418 128/161/417 145/204/411
f 130/163/419 129/162/418 145/204/411
f 131/164/420 130/163/419 145/204/411
f 132/165/421 131/164/420 145/204/411
f 121/154/410 132/165/421 145/204/411
s 1
f 133/202/388 134/201/387 147/218/422 146/240/423
f 134/201/387 135/200/390 148/220/424 147/218/425
f 135/200/390 136/199/392 149/222/426 148/220/427
f 136/199/392 137/198/394 150/224/428 149/222/429
f 137/198/394 138/197/396 151/226/430 150/224/431
f 138/197/396 139/196/398 152/228/432 151/226/433
f 139/196/398 140/195/400 153/230/434 152/228/435
f 140/195/400 141/194/402 154/232/436 153/230/437
f 141/194/402 142/193/404 155/234/438 154/232/439
f 142/193/404 143/192/406 156/236/440 155/234/441
f 143/192/406 144/203/408 157/238/442 156/236/443
f 144/203/408 133/202/388 146/240/444 157/238/445
s 3
f 159/219/446 160/216/447 181/215/448 182/241/449
f 160/216/447 159/219/446 162/221/450 161/205/451
f 161/205/451 162/221/450 164/223/452 163/206/453
f 163/206/453 164/223/452 166/225/454 165/207/455
f 165/207/455 166/225/454 168/227/456 167/208/457
f 167/208/457 168/227/456 170/229/458 169/209/459
f 169/209/459 170/229/458 172/231/460 171/210/461
f 171/210/461 172/231/460 174/233/462 173/211/463
f 173/211/463 174/233/462 176/235/464 175/212/465
f 175/212/465 176/235/464 178/237/466 177/213/467
f 177/213/467 178/237/466 180/239/468 179/214/469
f 179/214/469 180/239/468 182/241/449 181/215/448
s 4
f 160/216/470 161/205/471 158/217/472
f 161/205/471 163/206/473 158/217/472
f 163/206/473 165/207/474 158/217/472
f 165/207/474 167/208/475 158/217/472
f 167/208/475 169/209/476 158/217/472
f 169/209/476 171/210/477 158/217/472
f 171/210/477 173/211/478 158/217/472
f 173/211/478 175/212/479 158/217/472
f 175/212/479 177/213/480 158/217/472
f 177/213/480 179/214/481 158/217/472
f 179/214/481 181/215/482 158/217/472
f 181/215/482 160/216/470 158/217/472
s 3
f 146/240/483 147/218/484 162/221/450 159/219/446
f 147/218/484 148/220/485 164/223/452 162/221/450
f 148/220/486 149/222/487 166/225/454 164/223/452
f 149/222/487 150/224/488 168/227/456 166/225/454
f 150/224/488 151/226/489 170/229/458 168/227/456
f 151/226/490 152/228/491 172/231/460 170/229/458
f 152/228/491 153/230/492 174/233/462 172/231/460
f 153/230/492 154/232/493 176/235/464 174/233/462
f 154/232/494 155/234/495 178/237/466 176/235/464
f 155/234/495 156/236/496 180/239/468 178/237/466
f 156/236/496 157/238/497 182/241/449 180/239/468
f 157/238/498 146/240/483 159/219/446 182/241/449
