# This file uses centimeters as units for non-parametric coordinates.

mtllib Pillar2.mtl
g default
v -0.470427 0.020934 0.426641
v -0.464779 0.077639 0.495045
v -0.545851 0.077639 0.421519
v 0.545851 0.077639 0.421519
v 0.467942 0.075566 0.495226
v 0.470427 0.020934 0.426641
v -0.307525 2.551301 0.210184
v -0.229574 2.549665 0.279044
v -0.226821 2.604297 0.205710
v 0.226821 2.604297 0.205710
v 0.231755 2.551301 0.278901
v 0.307525 2.551301 0.210184
v -0.307682 2.549665 -0.208206
v -0.226821 2.604297 -0.205710
v -0.229574 2.549665 -0.279044
v 0.229574 2.549665 -0.279044
v 0.226821 2.604297 -0.205710
v 0.307682 2.549665 -0.208206
v -0.545851 0.077639 -0.421519
v -0.467942 0.075566 -0.495226
v -0.470427 0.020934 -0.426641
v 0.470427 0.020934 -0.426641
v 0.464779 0.077639 -0.495045
v 0.545851 0.077639 -0.421519
vt 0.393340 0.981660
vt 0.376239 0.980380
vt 0.376239 0.769620
vt 0.392451 0.003939
vt 0.393382 0.005488
vt 0.623761 0.980380
vt 0.606660 0.981660
vt 0.623761 0.769620
vt 0.643382 0.005488
vt 0.375000 0.278963
vt 0.375000 0.467994
vt 0.402934 0.244713
vt 0.593682 0.244871
vt 0.625000 0.281056
vt 0.375000 0.501474
vt 0.375000 0.739011
vt 0.406247 0.468753
vt 0.593753 0.468753
vt 0.625000 0.502334
vt 0.625000 0.740598
vt 0.395096 0.744713
vt 0.606618 0.744512
vt 0.606660 0.768340
vt 0.604904 0.005287
vt 0.406247 0.281247
vt 0.593753 0.281247
vt 0.407285 0.505287
vt 0.597066 0.505287
vt 0.393340 0.768340
vt 0.854141 0.005488
vt 0.842715 0.244713
vt 0.143382 0.005488
vt 0.354141 0.005488
vt 0.343682 0.244871
vt 0.152934 0.244713
vt 0.605771 0.003939
vt 0.652097 0.244871
vt 0.625000 0.470151
vn -0.600927 -0.799304 0.000000
vn -0.600927 -0.799304 0.000000
vn -0.600927 -0.799304 0.000000
vn -0.600927 -0.799304 0.000000
vn -0.000920 -0.776012 0.630718
vn -0.000920 -0.776012 0.630718
vn -0.000920 -0.776012 0.630718
vn -0.000920 -0.776012 0.630718
vn -0.660918 0.127186 0.739602
vn -0.660918 0.127186 0.739602
vn -0.660918 0.127186 0.739602
vn -0.660918 0.127186 0.739602
vn 0.600927 -0.799304 0.000000
vn 0.600927 -0.799304 0.000000
vn 0.600927 -0.799304 0.000000
vn 0.600927 -0.799304 0.000000
vn 0.673270 0.127480 0.728324
vn 0.673270 0.127480 0.728324
vn 0.673270 0.127480 0.728324
vn 0.673270 0.127480 0.728324
vn -0.554424 0.832233 -0.001536
vn -0.554424 0.832233 -0.001536
vn -0.554424 0.832233 -0.001536
vn -0.554424 0.832233 -0.001536
vn -0.001349 0.805934 0.592004
vn -0.001349 0.805934 0.592004
vn -0.001349 0.805934 0.592004
vn -0.001349 0.805934 0.592004
vn 0.554424 0.832233 -0.001536
vn 0.554424 0.832233 -0.001536
vn 0.554424 0.832233 -0.001536
vn 0.554424 0.832233 -0.001536
vn -0.673109 0.128098 -0.728365
vn -0.673109 0.128098 -0.728365
vn -0.673109 0.128098 -0.728365
vn -0.673109 0.128098 -0.728365
vn 0.000000 0.801931 -0.597416
vn 0.000000 0.801931 -0.597417
vn 0.000000 0.801931 -0.597417
vn 0.000000 0.801931 -0.597416
vn 0.666303 0.127592 -0.734684
vn 0.666303 0.127592 -0.734684
vn 0.666303 0.127592 -0.734684
vn 0.666303 0.127592 -0.734684
vn 0.000920 -0.776012 -0.630718
vn 0.000920 -0.776012 -0.630718
vn 0.000920 -0.776012 -0.630718
vn 0.000920 -0.776012 -0.630718
vn 0.000000 0.087046 0.996204
vn 0.000000 0.087046 0.996204
vn 0.000000 0.087046 0.996204
vn 0.000000 0.087046 0.996204
vn 0.000000 1.000000 0.000000
vn 0.000000 1.000000 0.000000
vn 0.000000 1.000000 0.000000
vn 0.000000 1.000000 0.000000
vn 0.000000 0.087046 -0.996204
vn 0.000000 0.087046 -0.996204
vn 0.000000 0.087046 -0.996204
vn 0.000000 0.087046 -0.996204
vn 0.000000 -1.000000 0.000000
vn 0.000000 -1.000000 0.000000
vn 0.000000 -1.000000 0.000000
vn 0.000000 -1.000000 0.000000
vn 0.995391 0.095902 -0.000000
vn 0.995391 0.095902 -0.000000
vn 0.995391 0.095902 -0.000000
vn 0.995391 0.095902 -0.000000
vn -0.995391 0.095902 -0.000000
vn -0.995391 0.095902 -0.000000
vn -0.995391 0.095902 -0.000000
vn -0.995391 0.095902 -0.000000
vn -0.517782 -0.637142 0.570922
vn -0.517782 -0.637142 0.570922
vn -0.517782 -0.637142 0.570922
vn 0.528738 -0.654466 0.540472
vn 0.528739 -0.654466 0.540472
vn 0.528739 -0.654466 0.540472
vn -0.447218 0.725228 0.523489
vn -0.447218 0.725228 0.523489
vn -0.447218 0.725228 0.523489
vn 0.455160 0.735497 0.501870
vn 0.455160 0.735497 0.501870
vn 0.455160 0.735497 0.501870
vn -0.468390 0.716857 -0.516457
vn -0.468390 0.716857 -0.516457
vn -0.468390 0.716857 -0.516457
vn 0.468390 0.716857 -0.516457
vn 0.468390 0.716857 -0.516457
vn 0.468390 0.716857 -0.516457
vn -0.528738 -0.654466 -0.540472
vn -0.528739 -0.654466 -0.540472
vn -0.528739 -0.654466 -0.540472
vn 0.517782 -0.637142 -0.570922
vn 0.517782 -0.637142 -0.570922
vn 0.517782 -0.637142 -0.570922
s off
g pCube1
usemtl initialShadingGroup
f 1/1/1 3/2/2 19/3/3 21/29/4
f 2/5/5 1/4/6 6/36/7 5/24/8
f 3/33/9 2/5/10 8/12/11 7/34/12
f 4/6/13 6/7/14 22/23/15 24/8/16
f 5/24/17 4/9/18 12/37/19 11/13/20
f 7/10/21 9/25/22 14/17/23 13/11/24
f 9/25/25 8/12/26 11/13/27 10/26/28
f 10/26/29 12/14/30 18/38/31 17/18/32
f 13/15/33 15/27/34 20/21/35 19/16/36
f 15/27/37 14/17/38 17/18/39 16/28/40
f 16/28/41 18/19/42 24/20/43 23/22/44
f 21/29/45 20/21/46 23/22/47 22/23/48
f 2/5/49 5/24/50 11/13/51 8/12/52
f 9/25/53 10/26/54 17/18/55 14/17/56
f 15/27/57 16/28/58 23/22/59 20/21/60
f 21/29/61 22/23/62 6/7/63 1/1/64
f 4/9/65 24/30/66 18/31/67 12/37/68
f 19/32/69 3/33/70 7/34/71 13/35/72
f 1/4/73 2/5/74 3/33/75
f 4/9/76 5/24/77 6/36/78
f 7/34/79 8/12/80 9/25/81
f 10/26/82 11/13/83 12/37/84
f 13/11/85 14/17/86 15/27/87
f 16/28/88 17/18/89 18/38/90
f 19/16/91 20/21/92 21/29/93
f 22/23/94 23/22/95 24/20/96
