# This file uses centimeters as units for non-parametric coordinates.

mtllib rock1.mtl
g default
v -1.295844 -0.635574 1.295844
v -1.295844 -0.568089 1.363329
v -1.363329 -0.568089 1.295844
v 1.363329 -0.568089 1.295844
v 1.295844 -0.568089 1.363329
v 1.295844 -0.635574 1.295844
v -1.363329 2.049913 1.297953
v -1.295170 2.034127 1.363329
v -1.295170 2.115693 1.311962
v 1.295170 2.115693 1.311962
v 1.294495 2.033564 1.363329
v 1.363329 2.049913 1.297953
v -1.363329 3.283998 -1.291950
v -1.297251 3.359459 -1.284254
v -1.297251 3.309661 -1.363329
v 1.297251 3.309661 -1.363329
v 1.298657 3.360265 -1.285938
v 1.363329 3.283998 -1.291950
v -1.363329 -0.568089 -1.295844
v -1.295844 -0.568089 -1.363329
v -1.295844 -0.635574 -1.295844
v 1.295844 -0.635574 -1.295844
v 1.295844 -0.568089 -1.363329
v 1.363329 -0.568089 -1.295844
v 0.240831 -0.658610 2.649767
v 0.260166 -0.619940 2.683256
v 0.207342 -0.619940 2.669102
v 2.101954 -0.619940 1.575247
v 2.087800 -0.619940 1.628070
v 2.068465 -0.658610 1.594582
v 0.207515 0.863932 2.669400
v 0.260601 0.854540 2.683004
v 0.245355 0.899414 2.654689
v 2.072424 0.749504 1.599595
v 2.087356 0.704587 1.628327
v 2.102692 0.709235 1.576525
v -0.528089 1.351069 1.395297
v -0.492458 1.390091 1.378259
v -0.515241 1.358314 1.340944
v 1.324159 1.219072 0.271497
v 1.348435 1.251557 0.306636
v 1.380995 1.211284 0.281758
v -0.529078 -0.619940 1.393584
v -0.514924 -0.619940 1.340760
v -0.495589 -0.658610 1.374249
v 1.332045 -0.658610 0.319064
v 1.312710 -0.619940 0.285575
v 1.365533 -0.619940 0.299729
v -1.724255 -0.658610 -1.924101
v -1.757744 -0.619940 -1.943436
v -1.704920 -0.619940 -1.957590
v -1.836902 -0.619940 -0.805747
v -1.851056 -0.619940 -0.858570
v -1.817568 -0.658610 -0.839235
v -1.705219 0.863932 -1.957762
v -1.757995 0.854540 -1.943000
v -1.730634 0.899414 -1.926102
v -1.823503 0.749504 -0.841598
v -1.850800 0.704587 -0.859014
v -1.838181 0.709235 -0.806485
v -0.092136 1.351069 -1.357743
v -0.114474 1.390091 -1.325172
v -0.076086 1.358314 -1.304247
v -1.317981 1.922959 -0.110866
v -1.356133 1.954575 -0.130820
v -1.371329 1.911336 -0.097760
v -0.090423 -0.619940 -1.356753
v -0.076269 -0.619940 -1.303930
v -0.109757 -0.658610 -1.323265
v -1.351146 -0.658610 -0.130759
v -1.317658 -0.619940 -0.111425
v -1.370481 -0.619940 -0.097271
vt 0.381187 0.993813
vt 0.375000 0.993813
vt 0.375000 0.756187
vt 0.381187 0.000000
vt 0.381187 0.006188
vt 0.625000 0.993813
vt 0.618813 0.993813
vt 0.625000 0.756187
vt 0.631187 0.006188
vt 0.375000 0.253404
vt 0.375000 0.490628
vt 0.381249 0.244778
vt 0.618689 0.244726
vt 0.625000 0.253404
vt 0.375000 0.507026
vt 0.375000 0.745817
vt 0.381059 0.492750
vt 0.619070 0.492904
vt 0.625000 0.507026
vt 0.625000 0.745817
vt 0.381188 0.745817
vt 0.618813 0.745817
vt 0.618813 0.756187
vt 0.618813 0.006188
vt 0.381249 0.254710
vt 0.618751 0.254710
vt 0.381059 0.505435
vt 0.618941 0.505435
vt 0.381187 0.756187
vt 0.868813 0.006188
vt 0.868455 0.245094
vt 0.131188 0.006188
vt 0.368813 0.006188
vt 0.369006 0.245506
vt 0.131545 0.245094
vt 0.618813 0.000000
vt 0.630994 0.245506
vt 0.625000 0.490628
vt 0.379419 0.993764
vt 0.375000 0.993764
vt 0.375000 0.756236
vt 0.379419 0.756236
vt 0.379419 0.006680
vt 0.379419 0.000000
vt 0.620581 0.000000
vt 0.620581 0.006932
vt 0.368764 0.006236
vt 0.379476 0.244477
vt 0.368819 0.245112
vt 0.625000 0.993764
vt 0.620581 0.993764
vt 0.620581 0.756236
vt 0.625000 0.756236
vt 0.631236 0.006932
vt 0.630998 0.244871
vt 0.620522 0.244359
vt 0.375583 0.254247
vt 0.379585 0.255184
vt 0.379500 0.492951
vt 0.375618 0.491393
vt 0.620686 0.255217
vt 0.625000 0.254112
vt 0.625000 0.491024
vt 0.620860 0.493062
vt 0.375000 0.506821
vt 0.379377 0.505614
vt 0.379419 0.744988
vt 0.375000 0.745321
vt 0.620655 0.505673
vt 0.625000 0.507194
vt 0.625000 0.744940
vt 0.620581 0.744940
vt 0.868764 0.006744
vt 0.868606 0.244532
vt 0.131236 0.006236
vt 0.131555 0.244816
vt 0.379419 0.993764
vt 0.375000 0.993764
vt 0.375000 0.756236
vt 0.379419 0.756236
vt 0.379419 0.006680
vt 0.379419 0.000000
vt 0.620581 0.000000
vt 0.620581 0.006932
vt 0.368764 0.006236
vt 0.379476 0.244477
vt 0.368819 0.245112
vt 0.625000 0.993764
vt 0.620581 0.993764
vt 0.620581 0.756236
vt 0.625000 0.756236
vt 0.631236 0.006932
vt 0.630998 0.244871
vt 0.620522 0.244359
vt 0.375583 0.254247
vt 0.379585 0.255184
vt 0.379500 0.492951
vt 0.375618 0.491393
vt 0.620686 0.255217
vt 0.625000 0.254112
vt 0.625000 0.491024
vt 0.620860 0.493062
vt 0.375000 0.506821
vt 0.379377 0.505614
vt 0.379419 0.744988
vt 0.375000 0.745321
vt 0.620655 0.505673
vt 0.625000 0.507194
vt 0.625000 0.744940
vt 0.620581 0.744940
vt 0.868764 0.006744
vt 0.868606 0.244532
vt 0.131236 0.006236
vt 0.131555 0.244816
vn -0.707107 -0.707107 0.000000
vn -0.707107 -0.707107 0.000000
vn -0.707107 -0.707107 0.000000
vn -0.707107 -0.707107 0.000000
vn 0.000000 -0.707107 0.707107
vn 0.000000 -0.707107 0.707107
vn 0.000000 -0.707107 0.707107
vn 0.000000 -0.707107 0.707107
vn -0.699752 -0.000198 0.714386
vn -0.699752 -0.000198 0.714386
vn -0.699179 0.004012 0.714935
vn -0.762341 0.359666 0.538030
vn 0.707107 -0.707107 0.000000
vn 0.707107 -0.707107 0.000000
vn 0.707107 -0.707107 0.000000
vn 0.707107 -0.707107 0.000000
vn 0.697973 -0.000109 0.716124
vn 0.697973 -0.000109 0.716124
vn 0.763288 0.357045 0.538433
vn 0.697376 0.004043 0.716694
vn -0.713106 0.630806 0.305883
vn -0.713717 0.631891 0.302195
vn -0.713717 0.631891 0.302195
vn 0.000058 0.531577 0.847010
vn 0.000058 0.531577 0.847010
vn 0.000058 0.531577 0.847010
vn 0.000058 0.531577 0.847010
vn 0.716716 0.627346 0.304556
vn 0.717370 0.628439 0.300741
vn 0.717370 0.628439 0.300741
vn -0.720748 0.000218 -0.693197
vn -0.720749 0.000218 -0.693197
vn -0.720748 0.000218 -0.693197
vn -0.720749 0.000218 -0.693197
vn -0.000306 0.841629 -0.540056
vn -0.000306 0.841629 -0.540056
vn -0.000306 0.841629 -0.540056
vn -0.000306 0.841629 -0.540056
vn 0.720749 0.000218 -0.693197
vn 0.720748 0.000218 -0.693197
vn 0.720749 0.000218 -0.693197
vn 0.720748 0.000218 -0.693197
vn 0.000000 -0.707107 -0.707107
vn 0.000000 -0.707107 -0.707107
vn 0.000000 -0.707107 -0.707107
vn 0.000000 -0.707107 -0.707107
vn 0.000000 0.000000 1.000000
vn 0.000000 0.000000 1.000000
vn 0.000000 0.000000 1.000000
vn 0.000000 0.000000 1.000000
vn 0.000000 0.901851 0.432048
vn 0.000000 0.901851 0.432048
vn 0.000000 0.901851 0.432048
vn 0.000000 0.901851 0.432048
vn 0.000000 0.000000 -1.000000
vn 0.000000 0.000000 -1.000000
vn 0.000000 0.000000 -1.000000
vn 0.000000 0.000000 -1.000000
vn 0.000000 -1.000000 0.000000
vn 0.000000 -1.000000 0.000000
vn 0.000000 -1.000000 0.000000
vn 0.000000 -1.000000 0.000000
vn 1.000000 -0.000000 0.000000
vn 1.000000 -0.000000 0.000000
vn 1.000000 -0.000000 0.000000
vn 1.000000 -0.000000 0.000000
vn -1.000000 0.000000 0.000000
vn -1.000000 0.000000 0.000000
vn -1.000000 0.000000 0.000000
vn -1.000000 0.000000 0.000000
vn -0.577350 -0.577350 0.577351
vn -0.577350 -0.577350 0.577351
vn -0.577350 -0.577350 0.577351
vn 0.577350 -0.577350 0.577351
vn 0.577350 -0.577350 0.577351
vn 0.577350 -0.577350 0.577351
vn -0.670710 0.627632 -0.395254
vn -0.670710 0.627632 -0.395254
vn -0.670710 0.627632 -0.395254
vn 0.679381 0.608433 -0.410184
vn 0.679381 0.608433 -0.410184
vn 0.679381 0.608433 -0.410184
vn -0.577350 -0.577350 -0.577351
vn -0.577350 -0.577350 -0.577351
vn -0.577350 -0.577350 -0.577351
vn 0.577350 -0.577350 -0.577351
vn 0.577350 -0.577350 -0.577351
vn 0.577350 -0.577350 -0.577351
vn -0.612372 -0.707107 0.353553
vn -0.612372 -0.707107 0.353553
vn -0.612372 -0.707107 0.353553
vn -0.612372 -0.707107 0.353553
vn 0.353554 -0.707107 0.612372
vn 0.353554 -0.707107 0.612372
vn 0.353554 -0.707107 0.612372
vn 0.353554 -0.707107 0.612372
vn -0.253527 0.000037 0.967328
vn -0.253527 0.000037 0.967328
vn -0.253527 0.000037 0.967328
vn -0.253527 0.000037 0.967328
vn 0.612373 -0.707106 -0.353554
vn 0.612373 -0.707106 -0.353554
vn 0.612373 -0.707106 -0.353554
vn 0.612373 -0.707106 -0.353554
vn 0.962500 -0.000264 0.271280
vn 0.962501 -0.000264 0.271280
vn 0.918893 0.391485 0.048748
vn 0.962327 0.005071 0.271846
vn -0.469653 0.695088 0.544315
vn -0.469983 0.695220 0.543861
vn -0.472747 0.696315 0.540052
vn -0.472747 0.696315 0.540052
vn 0.441880 0.582144 0.682533
vn 0.441880 0.582144 0.682533
vn 0.441880 0.582144 0.682533
vn 0.441880 0.582144 0.682533
vn 0.734918 0.661649 -0.148717
vn 0.733201 0.662698 -0.152472
vn 0.733201 0.662698 -0.152472
vn -0.969704 0.000282 -0.244282
vn -0.969704 0.000282 -0.244282
vn -0.969704 0.000282 -0.244282
vn -0.969704 0.000282 -0.244282
vn -0.255670 0.799712 -0.543225
vn -0.255670 0.799712 -0.543225
vn -0.255670 0.799712 -0.543225
vn -0.255670 0.799712 -0.543225
vn 0.216632 -0.010113 -0.976201
vn 0.216632 -0.010113 -0.976201
vn 0.216632 -0.010113 -0.976201
vn 0.216632 -0.010113 -0.976201
vn -0.353553 -0.707107 -0.612372
vn -0.353553 -0.707107 -0.612372
vn -0.353553 -0.707107 -0.612372
vn -0.353553 -0.707107 -0.612372
vn 0.500000 -0.000000 0.866025
vn 0.500000 -0.000000 0.866025
vn 0.500000 -0.000000 0.866025
vn 0.500000 -0.000000 0.866026
vn 0.215260 0.945846 0.242977
vn 0.215260 0.945846 0.242977
vn 0.215260 0.945846 0.242977
vn 0.215260 0.945846 0.242977
vn -0.501368 -0.001687 -0.865232
vn -0.501368 -0.001687 -0.865232
vn -0.501368 -0.001687 -0.865232
vn -0.501368 -0.001687 -0.865232
vn 0.000000 -1.000000 0.000000
vn 0.000000 -1.000000 0.000000
vn 0.000000 -1.000000 0.000000
vn 0.000000 -1.000000 0.000000
vn 0.869172 -0.007067 -0.494460
vn 0.869172 -0.007067 -0.494460
vn 0.869172 -0.007067 -0.494460
vn 0.869172 -0.007067 -0.494460
vn -0.866026 0.000000 0.500000
vn -0.866025 0.000000 0.500000
vn -0.866026 0.000000 0.500000
vn -0.866026 0.000000 0.500000
vn -0.211324 -0.577355 0.788672
vn -0.211324 -0.577355 0.788672
vn -0.211324 -0.577355 0.788672
vn 0.788677 -0.577348 0.211325
vn 0.788677 -0.577348 0.211325
vn 0.788677 -0.577348 0.211325
vn -0.132021 0.496490 0.857944
vn -0.755007 0.649243 -0.091916
vn -0.755007 0.649243 -0.091916
vn -0.755007 0.649243 -0.091916
vn 0.220673 0.635472 -0.739918
vn 0.220673 0.635472 -0.739918
vn 0.220673 0.635472 -0.739918
vn -0.788676 -0.577350 -0.211324
vn -0.788676 -0.577350 -0.211324
vn -0.788676 -0.577350 -0.211324
vn 0.211325 -0.577351 -0.788675
vn 0.211325 -0.577351 -0.788675
vn 0.211325 -0.577351 -0.788675
vn 0.248353 -0.702118 -0.667346
vn 0.248353 -0.702118 -0.667346
vn 0.248353 -0.702118 -0.667346
vn 0.248353 -0.702118 -0.667346
vn -0.738469 -0.671289 -0.063518
vn -0.738469 -0.671289 -0.063518
vn -0.738469 -0.671289 -0.063518
vn -0.738469 -0.671289 -0.063518
vn -0.264102 0.000037 -0.964495
vn -0.264102 0.000037 -0.964495
vn -0.264102 0.000037 -0.964495
vn -0.264102 0.000037 -0.964495
vn -0.622738 -0.666420 0.409977
vn -0.622738 -0.666420 0.409977
vn -0.622738 -0.666421 0.409977
vn -0.622738 -0.666420 0.409977
vn -0.969190 -0.000263 0.246313
vn -0.969190 -0.000263 0.246313
vn -0.975184 0.165833 0.146683
vn -0.969323 0.005071 0.245736
vn 0.064861 0.675104 -0.734865
vn 0.064615 0.675027 -0.734958
vn 0.068108 0.676120 -0.733637
vn 0.068108 0.676120 -0.733637
vn -0.853985 0.520297 -0.001174
vn -0.853985 0.520297 -0.001174
vn -0.853985 0.520297 -0.001174
vn -0.853985 0.520297 -0.001174
vn -0.935593 0.352424 0.021550
vn -0.936025 0.351352 0.020215
vn -0.936025 0.351352 0.020215
vn 0.961929 0.000282 -0.273298
vn 0.961929 0.000282 -0.273298
vn 0.961929 0.000282 -0.273298
vn 0.961929 0.000282 -0.273298
vn 0.558958 0.804474 0.200965
vn 0.558958 0.804474 0.200965
vn 0.558958 0.804474 0.200965
vn 0.558958 0.804474 0.200965
vn 0.248679 0.000044 0.968586
vn 0.248679 0.000044 0.968586
vn 0.248679 0.000044 0.968586
vn 0.248679 0.000044 0.968586
vn 0.499617 -0.692734 0.520098
vn 0.499617 -0.692734 0.520098
vn 0.499618 -0.692734 0.520098
vn 0.499617 -0.692734 0.520098
vn -0.996338 0.000001 -0.085500
vn -0.996338 0.000001 -0.085500
vn -0.996338 0.000001 -0.085500
vn -0.996338 0.000001 -0.085500
vn -0.418237 0.818519 -0.393832
vn -0.418238 0.818519 -0.393832
vn -0.418237 0.818519 -0.393832
vn -0.418237 0.818519 -0.393832
vn 0.692822 -0.000017 0.721109
vn 0.692822 -0.000017 0.721109
vn 0.692822 -0.000017 0.721109
vn 0.692822 -0.000017 0.721109
vn 0.000000 -1.000000 -0.000000
vn 0.000000 -1.000000 -0.000000
vn 0.000000 -1.000000 -0.000000
vn 0.000000 -1.000000 -0.000000
vn -0.835061 -0.000285 0.550157
vn -0.835061 -0.000285 0.550157
vn -0.835061 -0.000285 0.550157
vn -0.835061 -0.000285 0.550157
vn 0.348722 -0.000112 -0.937226
vn 0.348722 -0.000112 -0.937226
vn 0.348722 -0.000112 -0.937226
vn 0.348722 -0.000112 -0.937226
vn -0.211328 -0.577351 -0.788673
vn -0.211328 -0.577351 -0.788673
vn -0.211328 -0.577351 -0.788673
vn -0.788675 -0.577350 0.211326
vn -0.788675 -0.577350 0.211326
vn -0.788675 -0.577350 0.211326
vn -0.314647 0.496488 -0.809010
vn 0.699813 0.649244 -0.297901
vn 0.699813 0.649243 -0.297901
vn 0.699813 0.649243 -0.297901
vn 0.068854 0.590553 0.804056
vn 0.068854 0.590554 0.804056
vn 0.068854 0.590553 0.804056
vn 0.788674 -0.577350 -0.211327
vn 0.788674 -0.577350 -0.211327
vn 0.788674 -0.577350 -0.211327
vn 0.211323 -0.577354 0.788673
vn 0.211323 -0.577354 0.788673
vn 0.211323 -0.577354 0.788673
s off
g pCube4
usemtl initialShadingGroup
f 1/1/1 3/2/2 19/3/3 21/29/4
f 2/5/5 1/4/6 6/36/7 5/24/8
s 1
f 3/33/9 2/5/10 8/12/11 7/34/12
s off
f 4/6/13 6/7/14 22/23/15 24/8/16
s 2
f 5/24/17 4/9/18 12/37/19 11/13/20
s 1
f 7/10/12 9/25/21 14/17/22 13/11/23
s off
f 9/25/24 8/12/25 11/13/26 10/26/27
s 2
f 10/26/28 12/14/19 18/38/29 17/18/30
s off
f 13/15/31 15/27/32 20/21/33 19/16/34
f 15/27/35 14/17/36 17/18/37 16/28/38
f 16/28/39 18/19/40 24/20/41 23/22/42
f 21/29/43 20/21/44 23/22/45 22/23/46
f 2/5/47 5/24/48 11/13/49 8/12/50
f 9/25/51 10/26/52 17/18/53 14/17/54
f 15/27/55 16/28/56 23/22/57 20/21/58
f 21/29/59 22/23/60 6/7/61 1/1/62
f 4/9/63 24/30/64 18/31/65 12/37/66
f 19/32/67 3/33/68 7/34/69 13/35/70
f 1/4/71 2/5/72 3/33/73
f 4/9/74 5/24/75 6/36/76
s 1
f 7/34/12 8/12/11 9/25/21
s 2
f 10/26/28 11/13/20 12/37/19
s off
f 13/11/77 14/17/78 15/27/79
f 16/28/80 17/18/81 18/38/82
f 19/16/83 20/21/84 21/29/85
f 22/23/86 23/22/87 24/20/88
f 25/39/89 27/40/90 43/41/91 45/42/92
f 26/43/93 25/44/94 30/45/95 29/46/96
f 27/47/97 26/43/98 32/48/99 31/49/100
f 28/50/101 30/51/102 46/52/103 48/53/104
s 3
f 29/46/105 28/54/106 36/55/107 35/56/108
s 4
f 31/57/109 33/58/110 38/59/111 37/60/112
s off
f 33/58/113 32/48/114 35/56/115 34/61/116
s 3
f 34/61/117 36/62/107 42/63/118 41/64/119
s off
f 37/65/120 39/66/121 44/67/122 43/68/123
f 39/66/124 38/59/125 41/64/126 40/69/127
f 40/69/128 42/70/129 48/71/130 47/72/131
f 45/42/132 44/67/133 47/72/134 46/52/135
f 26/43/136 29/46/137 35/56/138 32/48/139
f 33/58/140 34/61/141 41/64/142 38/59/143
f 39/66/144 40/69/145 47/72/146 44/67/147
f 45/42/148 46/52/149 30/51/150 25/39/151
f 28/54/152 48/73/153 42/74/154 36/55/155
f 43/75/156 27/47/157 31/49/158 37/76/159
f 25/44/160 26/43/161 27/47/162
f 28/54/163 29/46/164 30/45/165
s 4
f 31/49/109 32/48/166 33/58/110
s 3
f 34/61/117 35/56/108 36/55/107
s off
f 37/60/167 38/59/168 39/66/169
f 40/69/170 41/64/171 42/63/172
f 43/68/173 44/67/174 45/42/175
f 46/52/176 47/72/177 48/71/178
f 49/77/179 51/78/180 67/79/181 69/80/182
f 50/81/183 49/82/184 54/83/185 53/84/186
f 51/85/187 50/81/188 56/86/189 55/87/190
f 52/88/191 54/89/192 70/90/193 72/91/194
s 5
f 53/84/195 52/92/196 60/93/197 59/94/198
s 6
f 55/95/199 57/96/200 62/97/201 61/98/202
s off
f 57/96/203 56/86/204 59/94/205 58/99/206
s 5
f 58/99/207 60/100/197 66/101/208 65/102/209
s off
f 61/103/210 63/104/211 68/105/212 67/106/213
f 63/104/214 62/97/215 65/102/216 64/107/217
f 64/107/218 66/108/219 72/109/220 71/110/221
f 69/80/222 68/105/223 71/110/224 70/90/225
f 50/81/226 53/84/227 59/94/228 56/86/229
f 57/96/230 58/99/231 65/102/232 62/97/233
f 63/104/234 64/107/235 71/110/236 68/105/237
f 69/80/238 70/90/239 54/89/240 49/77/241
f 52/92/242 72/111/243 66/112/244 60/93/245
f 67/113/246 51/85/247 55/87/248 61/114/249
f 49/82/250 50/81/251 51/85/252
f 52/92/253 53/84/254 54/83/255
s 6
f 55/87/199 56/86/256 57/96/200
s 5
f 58/99/207 59/94/198 60/93/197
s off
f 61/98/257 62/97/258 63/104/259
f 64/107/260 65/102/261 66/101/262
f 67/106/263 68/105/264 69/80/265
f 70/90/266 71/110/267 72/109/268
