# This file uses centimeters as units for non-parametric coordinates.

mtllib Antenna3.mtl
v -2.313538 0.000000 2.313538
v 2.313522 0.000000 2.313538
v -2.313538 0.000000 -2.313522
v 2.313522 0.000000 -2.313522
v -2.313538 0.462752 2.313538
v -1.850880 0.925413 1.850880
v 1.850864 0.925413 1.850880
v 2.313522 0.462752 2.313538
v -1.850880 0.925413 -1.850864
v -2.313538 0.462752 -2.313522
v 1.850864 0.925413 -1.850864
v 2.313522 0.462752 -2.313522
v -0.925169 8.818329 0.770929
v -0.777157 8.946503 0.696924
v -0.925169 7.479462 -1.548065
v -0.777157 7.607651 -1.622070
v 0.777143 8.946503 0.696924
v 0.925156 8.818329 0.770929
v 0.925156 7.479462 -1.548065
v 0.777143 7.607651 -1.622070
v -0.777157 7.344086 1.622086
v -0.925169 7.472260 1.548080
v -0.925169 6.133392 -0.770916
v -0.777157 6.005219 -0.696911
v 0.925156 7.472260 1.548080
v 0.777143 7.344086 1.622086
v 0.777143 6.005219 -0.696911
v 0.925156 6.133392 -0.770916
v -0.491084 6.333984 -3.146996
v -0.584610 6.252991 -3.100235
v 0.491070 6.333984 -3.146996
v 0.584597 6.252991 -3.100235
v 0.584597 5.402420 -2.609154
v 0.491070 5.321411 -2.562393
v -0.491084 5.321411 -2.562393
v -0.584610 5.402420 -2.609154
v 0.636665 0.867571 -0.206861
v 0.541579 0.867571 -0.393478
v 0.393478 0.867571 -0.541579
v 0.206861 0.867571 -0.636665
v -0.000007 0.867571 -0.669430
v -0.206874 0.867571 -0.636665
v -0.393492 0.867571 -0.541578
v -0.541592 0.867571 -0.393478
v -0.636679 0.867571 -0.206861
v -0.669443 0.867571 0.000007
v -0.636679 0.867571 0.206874
v -0.541592 0.867571 0.393491
v -0.393491 0.867571 0.541592
v -0.206874 0.867571 0.636679
v -0.000007 0.867571 0.669443
v 0.206860 0.867571 0.636679
v 0.393478 0.867571 0.541592
v 0.541578 0.867571 0.393491
v 0.636665 0.867571 0.206874
v 0.669430 0.867571 0.000007
v 0.636665 7.561935 -0.206861
v 0.541579 7.561935 -0.393478
v 0.393478 7.561935 -0.541579
v 0.206861 7.561935 -0.636665
v -0.000007 7.561935 -0.669430
v -0.206874 7.561935 -0.636665
v -0.393492 7.561935 -0.541578
v -0.541592 7.561935 -0.393478
v -0.636679 7.561935 -0.206861
v -0.669443 7.561935 0.000007
v -0.636679 7.561935 0.206874
v -0.541592 7.561935 0.393491
v -0.393491 7.561935 0.541592
v -0.206874 7.561935 0.636679
v -0.000007 7.561935 0.669443
v 0.206860 7.561935 0.636679
v 0.393478 7.561935 0.541592
v 0.541578 7.561935 0.393491
v 0.636665 7.561935 0.206874
v 0.669430 7.561935 0.000007
v 4.596390 9.869904 1.985325
v 4.221260 10.762482 1.470005
v 3.618576 11.556030 1.011833
v 2.820801 12.207855 0.635504
v 1.870964 12.682770 0.361310
v 0.820257 12.955200 0.204029
v -0.274667 13.010437 0.172143
v -1.354786 12.845490 0.267370
v -2.361862 12.469269 0.484577
v -3.241615 11.902069 0.812054
v -3.946617 11.174438 1.232143
v -4.438843 10.325653 1.722202
v -4.691788 9.401398 2.255814
v -4.691788 8.451569 2.804199
v -4.438843 7.527328 3.337807
v -3.946617 6.678528 3.827873
v -3.241615 5.950897 4.247963
v -2.361862 5.383698 4.575439
v -1.354786 5.007492 4.792648
v -0.274666 4.842545 4.887863
v 0.820259 4.897781 4.855988
v 1.870964 5.170197 4.698700
v 2.820801 5.645111 4.424507
v 3.618568 6.296936 4.048180
v 4.221260 7.090515 3.590004
v 4.596390 7.983063 3.074692
v 4.723709 8.926483 2.530006
v 0.057576 8.263916 0.729280
v 0.131309 8.244736 0.740335
v 0.197763 8.211105 0.759628
v 0.253043 8.164810 0.786066
v 0.294828 8.109085 0.818092
v 0.320679 8.046616 0.854033
v 0.329576 7.980804 0.892036
v 0.320356 7.914993 0.929913
v 0.294097 7.852814 0.965767
v 0.252089 7.797531 0.997675
v 0.196397 7.752228 1.023767
v 0.130383 7.718964 1.043076
v 0.057150 7.700012 1.054003
v -0.019175 7.695801 1.056616
v -0.094544 7.707336 1.049938
v -0.164938 7.733444 1.034945
v -0.226318 7.773102 1.012028
v -0.275480 7.823914 0.982664
v -0.309638 7.883194 0.948366
v -0.327213 7.947662 0.911121
v -0.327271 8.013916 0.872889
v -0.309523 8.078339 0.835657
v -0.275383 8.137665 0.801483
v -0.226110 8.188339 0.772184
v -0.164871 8.228119 0.749300
v -0.094694 8.254791 0.734045
v -0.019250 8.267136 0.727198
v 0.288977 8.321182 1.344593
v 0.293333 8.261307 1.377888
v 0.285245 8.202744 1.411644
v 0.264682 8.146622 1.445099
v 0.222637 8.099106 1.470596
v 0.174594 8.058060 1.494904
v 0.114276 8.031143 1.509109
v 0.050422 8.013199 1.520123
v -0.016726 8.011841 1.519909
v -0.079839 8.028122 1.507324
v -0.137679 8.052109 1.492439
v -0.187607 8.086105 1.472118
v -0.230184 8.127533 1.448944
v -0.266977 8.175781 1.424072
v -0.284126 8.231461 1.392601
v -0.284554 8.289078 1.359478
v -0.269749 8.345398 1.327168
v -0.238086 8.395660 1.297417
v -0.198174 8.442535 1.271679
v -0.141254 8.471558 1.252747
v -0.079317 8.488205 1.241062
v -0.015689 8.490936 1.237122
v 0.047342 8.490753 1.238251
v 0.109475 8.478577 1.246586
v 0.167254 8.453888 1.262112
v 0.220279 8.420517 1.283966
v 0.262079 8.375290 1.312061
v 4.596390 9.726929 1.737659
v 4.522003 9.596863 1.547676
v 4.328262 9.487549 1.450165
v 4.221260 10.619476 1.222343
v 4.152954 10.474976 1.040695
v 3.975021 10.328033 0.964907
v 3.618576 11.413055 0.764170
v 3.560013 11.255737 0.589935
v 3.407486 11.075348 0.533460
v 2.820801 12.064880 0.387841
v 2.775154 11.897003 0.219697
v 2.656258 11.689148 0.179084
v 1.870964 12.539795 0.113645
v 1.840687 12.364227 -0.050061
v 1.761822 12.136353 -0.079118
v 0.820257 12.812225 -0.043634
v 0.806984 12.632233 -0.204795
v 0.772409 12.392883 -0.227222
v -0.274667 12.867432 -0.075521
v -0.270222 12.686584 -0.236166
v -0.258646 12.444885 -0.257249
v -1.354786 12.702484 0.019706
v -1.332863 12.524292 -0.142479
v -1.275757 12.289551 -0.167577
v -2.361862 12.326294 0.236914
v -2.323647 12.154175 0.071213
v -2.224091 11.935303 0.036960
v -3.241615 11.759064 0.564388
v -3.189163 11.596161 0.393389
v -3.052528 11.401184 0.345333
v -3.946617 11.031464 0.984480
v -3.882751 10.880310 0.806681
v -3.716400 10.716003 0.740919
v -4.438843 10.182648 1.474541
v -4.367020 10.045227 1.288811
v -4.179916 9.916718 1.202393
v -4.691788 9.258423 2.008148
v -4.615860 9.135956 1.813786
v -4.418098 9.046387 1.704872
v -4.691788 8.308578 2.556541
v -4.615860 8.201492 2.353302
v -4.418098 8.151947 2.221275
v -4.438843 7.384338 3.090149
v -4.367020 7.292206 2.878273
v -4.179916 7.281631 2.723755
v -3.946617 6.535538 3.580208
v -3.882751 6.457138 3.360405
v -3.716400 6.482330 3.185226
v -3.241615 5.807922 4.000298
v -3.189163 5.741287 3.773697
v -3.052521 5.797165 3.580811
v -2.361862 5.240707 4.327774
v -2.323647 5.183258 4.095871
v -2.224091 5.263046 3.889191
v -1.354786 4.864502 4.544983
v -1.332863 4.813141 4.309563
v -1.275757 4.908768 4.093727
v -0.274666 4.699554 4.640198
v -0.270221 4.650864 4.403252
v -0.258645 4.753464 4.183395
v 0.820259 4.754791 4.608322
v 0.806986 4.705200 4.371880
v 0.772409 4.805466 4.153366
v 1.870964 5.027206 4.451035
v 1.840687 4.973206 4.217140
v 1.761826 5.061981 4.005264
v 2.820801 5.502121 4.176842
v 2.775154 5.440445 3.947388
v 2.656258 5.509201 3.747063
v 3.618568 6.153946 3.800514
v 3.560013 6.081726 3.577148
v 3.407486 6.123001 3.392685
v 4.221260 6.947525 3.342346
v 4.152954 6.862457 3.126389
v 3.975021 6.870285 2.961243
v 4.596390 7.840088 2.827026
v 4.522003 7.740570 2.619408
v 4.328262 7.710785 2.475983
v 4.723709 8.783493 2.282341
v 4.647278 8.668716 2.083542
v 4.448166 8.599167 1.963074
v -0.264165 9.643188 4.299690
v 0.264151 9.643188 4.299690
v -0.264165 10.100739 4.035530
v 0.264151 10.100739 4.035530
v -0.264165 9.836578 3.577995
v 0.264151 9.836578 3.577995
v -0.264165 9.379028 3.842155
v 0.264151 9.379028 3.842155
v -0.000007 10.100739 4.035530
v -0.000007 9.836578 3.577995
v -0.000007 9.379028 3.842155
v -0.000007 9.643188 4.299690
v -0.264165 9.871979 4.167610
v -0.264165 9.607788 3.710075
v 0.264151 9.607788 3.710075
v 0.264151 9.871979 4.167610
v 0.264151 9.704437 4.071075
v 0.264151 9.788269 4.022675
v 0.264151 9.607635 3.903412
v 0.264151 9.691467 3.855011
v 0.264151 9.775299 3.806610
v 0.264151 9.872101 3.974274
v -0.264165 9.691467 3.855011
v -0.264165 9.607635 3.903412
v -0.264165 9.704437 4.071075
v -0.264165 9.788269 4.022675
v -0.264165 9.872101 3.974274
v -0.264165 9.775299 3.806610
v -0.096805 9.920258 3.722931
v -0.000007 9.920258 3.722931
v -0.096805 10.017059 3.890594
v -0.000007 10.017059 3.890594
v 0.096792 10.017059 3.890594
v 0.096792 9.920258 3.722931
v -0.096806 9.559509 4.154755
v -0.000007 9.559509 4.154755
v -0.096806 9.462708 3.987091
v -0.000007 9.462708 3.987091
v 0.096792 9.462708 3.987091
v 0.096792 9.559509 4.154755
v -0.096805 12.664398 -0.066040
v -0.000007 12.664398 -0.066040
v -0.096805 12.761200 0.101620
v -0.000007 12.761200 0.101620
v 0.096792 12.761200 0.101620
v 0.096792 12.664398 -0.066040
v -0.096806 4.906113 4.636841
v -0.000007 4.906113 4.636841
v -0.096806 4.809311 4.469177
v -0.000007 4.809311 4.469177
v 0.096792 4.809311 4.469177
v 0.096792 4.906113 4.636841
v 4.535156 8.749832 2.417625
v 4.535156 8.833664 2.369225
v 4.535156 8.653030 2.249962
v 4.535156 8.736862 2.201565
v 4.535156 8.820694 2.153164
v 4.535156 8.917480 2.320824
v -4.535172 8.736862 2.201561
v -4.535172 8.653030 2.249962
v -4.535172 8.749832 2.417625
v -4.535172 8.833664 2.369225
v -4.535172 8.917480 2.320824
v -4.535172 8.820694 2.153164
v 0.477319 9.723877 3.600967
v 0.406031 9.845062 3.531013
v 0.294997 9.941223 3.475494
v 0.155086 10.002960 3.439850
v -0.000007 10.024231 3.427574
v -0.155099 10.002960 3.439850
v -0.295010 9.941223 3.475494
v -0.406044 9.845062 3.531013
v -0.477332 9.723877 3.600967
v -0.501896 9.589569 3.678513
v -0.477332 9.455261 3.756058
v -0.406044 9.334106 3.826019
v -0.295010 9.237946 3.881531
v -0.155099 9.176208 3.917175
v -0.000007 9.154938 3.929459
v 0.155086 9.176208 3.917175
v 0.294996 9.237946 3.881531
v 0.406031 9.334106 3.826019
v 0.477319 9.455261 3.756058
v 0.501883 9.589569 3.678513
v 0.477319 10.026367 4.124870
v 0.406031 10.147522 4.054916
v 0.294997 10.243683 3.999397
v 0.155086 10.305420 3.963753
v -0.000007 10.326691 3.951469
v -0.155099 10.305420 3.963753
v -0.295010 10.243683 3.999397
v -0.406044 10.147522 4.054916
v -0.477332 10.026367 4.124870
v -0.501896 9.892059 4.202415
v -0.477332 9.757751 4.279961
v -0.406044 9.636566 4.349922
v -0.295010 9.540405 4.405434
v -0.155099 9.478668 4.441086
v -0.000007 9.457397 4.453369
v 0.155086 9.478668 4.441086
v 0.294996 9.540405 4.405434
v 0.406031 9.636566 4.349922
v 0.477319 9.757751 4.279961
v 0.501883 9.892059 4.202415
vt 0.229546 0.996447
vt 0.002018 0.996447
vt 0.002018 0.768921
vt 0.229546 0.768921
vt 0.964047 0.024774
vt 0.941296 0.056948
vt 0.759269 0.056947
vt 0.736520 0.024775
vt 0.973469 0.034201
vt 0.973470 0.261728
vt 0.941294 0.238974
vt 0.964044 0.271148
vt 0.736517 0.271149
vt 0.759267 0.238974
vt 0.727094 0.034195
vt 0.727094 0.261723
vt 0.996223 0.034202
vt 0.996225 0.261729
vt 0.704340 0.261722
vt 0.704339 0.034195
vt 0.964043 0.293906
vt 0.736516 0.293901
vt 0.736521 0.002018
vt 0.964048 0.002021
vt 0.677900 0.222367
vt 0.561779 0.284445
vt 0.525743 0.217046
vt 0.641866 0.154969
vt 0.443996 0.064048
vt 0.560144 0.002018
vt 0.596148 0.069433
vt 0.480004 0.131468
vt 0.484859 0.140553
vt 0.600994 0.078502
vt 0.637014 0.145899
vt 0.520887 0.207967
vt 0.718790 0.298826
vt 0.602680 0.360925
vt 0.566635 0.293521
vt 0.682752 0.231437
vt 0.821392 0.893600
vt 0.825992 0.889001
vt 0.874287 0.889001
vt 0.878886 0.893600
vt 0.878886 0.941896
vt 0.874287 0.946495
vt 0.825992 0.946495
vt 0.821392 0.941896
vt 0.777957 0.395560
vt 0.785235 0.402838
vt 0.785235 0.479268
vt 0.777957 0.486546
vt 0.701527 0.486546
vt 0.694249 0.479268
vt 0.694249 0.402838
vt 0.701527 0.395560
vt 0.607538 0.370006
vt 0.723643 0.307897
vt 0.835034 0.726382
vt 0.844514 0.730421
vt 0.804054 0.820455
vt 0.798080 0.817912
vt 0.909057 0.771376
vt 0.844823 0.846323
vt 0.916751 0.778227
vt 0.849671 0.850640
vt 0.964846 0.837637
vt 0.880054 0.888169
vt 0.969949 0.846585
vt 0.883272 0.893809
vt 0.996572 0.918234
vt 0.900090 0.939075
vt 0.750531 0.707366
vt 0.760797 0.708170
vt 0.751183 0.806408
vt 0.744703 0.805901
vt 0.954854 0.333003
vt 0.965150 0.333000
vt 0.965173 0.662182
vt 0.954872 0.662186
vt 0.975456 0.332997
vt 0.975466 0.662180
vt 0.985761 0.332997
vt 0.985761 0.662179
vt 0.996060 0.332997
vt 0.996060 0.662179
vt 0.790111 0.333074
vt 0.800416 0.333073
vt 0.800411 0.662256
vt 0.790117 0.662257
vt 0.810717 0.333072
vt 0.810710 0.662255
vt 0.821009 0.333070
vt 0.821014 0.662253
vt 0.831309 0.333067
vt 0.831309 0.662249
vt 0.841613 0.333063
vt 0.841599 0.662246
vt 0.851908 0.333058
vt 0.851897 0.662242
vt 0.862195 0.333052
vt 0.862199 0.662235
vt 0.872490 0.333045
vt 0.872496 0.662227
vt 0.882788 0.333037
vt 0.882789 0.662220
vt 0.893089 0.333031
vt 0.893078 0.662213
vt 0.903389 0.333025
vt 0.903368 0.662208
vt 0.913674 0.333021
vt 0.913673 0.662204
vt 0.923959 0.333016
vt 0.923981 0.662199
vt 0.934258 0.333011
vt 0.934276 0.662193
vt 0.944559 0.333007
vt 0.944570 0.662189
vt 0.266292 0.977074
vt 0.234295 0.977054
vt 0.235383 0.973428
vt 0.265216 0.973471
vt 0.699353 0.029375
vt 0.696290 0.003011
vt 0.699397 0.002018
vt 0.702451 0.029349
vt 0.234801 0.984541
vt 0.234107 0.980832
vt 0.266537 0.980830
vt 0.265881 0.984539
vt 0.263323 0.970222
vt 0.237288 0.970161
vt 0.239908 0.967441
vt 0.260751 0.967481
vt 0.257611 0.965416
vt 0.243067 0.965385
vt 0.246610 0.964112
vt 0.254081 0.964126
vt 0.250347 0.963673
vt 0.244811 0.995111
vt 0.255892 0.995119
vt 0.252231 0.995983
vt 0.248470 0.995985
vt 0.264400 0.988002
vt 0.236311 0.987993
vt 0.262147 0.991021
vt 0.238567 0.991006
vt 0.259260 0.993440
vt 0.241445 0.993430
vt 0.074723 0.425530
vt 0.039371 0.383315
vt 0.229832 0.258176
vt 0.231064 0.259991
vt 0.014695 0.334088
vt 0.228771 0.256257
vt 0.002018 0.280500
vt 0.228297 0.254098
vt 0.002018 0.225434
vt 0.228313 0.251893
vt 0.014698 0.171848
vt 0.228895 0.249789
vt 0.039380 0.122628
vt 0.230208 0.248093
vt 0.074742 0.080426
vt 0.231569 0.246595
vt 0.118883 0.047524
vt 0.233097 0.245299
vt 0.169425 0.025702
vt 0.234878 0.244347
vt 0.223639 0.016146
vt 0.236840 0.243523
vt 0.278596 0.019373
vt 0.238990 0.243513
vt 0.331322 0.035205
vt 0.241030 0.244248
vt 0.378974 0.062784
vt 0.243014 0.245202
vt 0.418982 0.100612
vt 0.244553 0.246820
vt 0.449199 0.146644
vt 0.246018 0.248576
vt 0.468001 0.198401
vt 0.246646 0.250796
vt 0.474383 0.253096
vt 0.246921 0.253070
vt 0.468002 0.307790
vt 0.246852 0.255383
vt 0.449196 0.359543
vt 0.245914 0.257479
vt 0.418971 0.405564
vt 0.244477 0.259189
vt 0.378949 0.443372
vt 0.242695 0.260387
vt 0.331285 0.470919
vt 0.240849 0.261261
vt 0.278549 0.486715
vt 0.238901 0.261657
vt 0.223592 0.489901
vt 0.236956 0.261616
vt 0.169383 0.480306
vt 0.234960 0.261602
vt 0.118851 0.458455
vt 0.232960 0.261042
vt 0.432591 0.465213
vt 0.379775 0.484439
vt 0.373633 0.472213
vt 0.429435 0.451899
vt 0.332816 0.515329
vt 0.324021 0.504848
vt 0.294248 0.556216
vt 0.283273 0.548046
vt 0.266146 0.604895
vt 0.253582 0.599476
vt 0.250026 0.658742
vt 0.236551 0.656367
vt 0.246757 0.714856
vt 0.233098 0.715651
vt 0.256517 0.770210
vt 0.243409 0.774134
vt 0.278779 0.821821
vt 0.266929 0.828662
vt 0.312341 0.866908
vt 0.302388 0.876297
vt 0.355394 0.903043
vt 0.347874 0.914474
vt 0.405620 0.928272
vt 0.400940 0.941129
vt 0.460312 0.941235
vt 0.458723 0.954825
vt 0.516519 0.941234
vt 0.518107 0.954824
vt 0.571212 0.928271
vt 0.575891 0.941128
vt 0.621440 0.903043
vt 0.628959 0.914474
vt 0.664495 0.866910
vt 0.674447 0.876299
vt 0.698057 0.821822
vt 0.709907 0.828663
vt 0.720319 0.770211
vt 0.733427 0.774135
vt 0.730081 0.714856
vt 0.743740 0.715653
vt 0.726812 0.658743
vt 0.740287 0.656367
vt 0.710693 0.604896
vt 0.723256 0.599477
vt 0.682590 0.556217
vt 0.693565 0.548047
vt 0.644021 0.515330
vt 0.652816 0.504849
vt 0.597061 0.484442
vt 0.603203 0.472215
vt 0.544245 0.465215
vt 0.547401 0.451901
vt 0.488419 0.458687
vt 0.488419 0.445005
vt 0.272434 0.662694
vt 0.287038 0.613906
vt 0.480922 0.697540
vt 0.480376 0.699360
vt 0.312499 0.569802
vt 0.481884 0.695905
vt 0.347443 0.532759
vt 0.483210 0.694559
vt 0.389987 0.504772
vt 0.484791 0.693541
vt 0.437839 0.487353
vt 0.486557 0.692915
vt 0.488418 0.481441
vt 0.488416 0.692696
vt 0.538996 0.487355
vt 0.490271 0.692932
vt 0.586848 0.504774
vt 0.492024 0.693579
vt 0.629394 0.532760
vt 0.493584 0.694608
vt 0.664338 0.569803
vt 0.494856 0.695975
vt 0.689799 0.613907
vt 0.495803 0.697588
vt 0.704403 0.662694
vt 0.496337 0.699383
vt 0.707364 0.713533
vt 0.496471 0.701253
vt 0.698521 0.763685
vt 0.496143 0.703101
vt 0.678353 0.810447
vt 0.495411 0.704830
vt 0.647944 0.851297
vt 0.494288 0.706335
vt 0.608936 0.884032
vt 0.492850 0.707540
vt 0.563429 0.906889
vt 0.491172 0.708371
vt 0.513878 0.918634
vt 0.489350 0.708800
vt 0.462953 0.918635
vt 0.487479 0.708804
vt 0.413403 0.906890
vt 0.485662 0.708365
vt 0.367898 0.884032
vt 0.483986 0.707534
vt 0.328891 0.851296
vt 0.482557 0.706323
vt 0.298484 0.810447
vt 0.481430 0.704825
vt 0.278315 0.763685
vt 0.480667 0.703108
vt 0.269473 0.713533
vt 0.480299 0.701256
vt 0.435195 0.476196
vt 0.384841 0.494526
vt 0.340072 0.523975
vt 0.303301 0.562956
vt 0.276509 0.609366
vt 0.261141 0.660702
vt 0.258025 0.714200
vt 0.267330 0.766974
vt 0.288554 0.816179
vt 0.320552 0.859164
vt 0.361596 0.893613
vt 0.409481 0.917666
vt 0.461622 0.930024
vt 0.515209 0.930024
vt 0.567351 0.917664
vt 0.615237 0.893613
vt 0.656285 0.859164
vt 0.688282 0.816179
vt 0.709506 0.766974
vt 0.718813 0.714200
vt 0.715697 0.660703
vt 0.700329 0.609366
vt 0.673536 0.562957
vt 0.636766 0.523976
vt 0.591995 0.494528
vt 0.541641 0.476198
vt 0.488418 0.469974
vt 0.713034 0.022649
vt 0.711144 0.006984
vt 0.713204 0.009640
vt 0.714367 0.019549
vt 0.714207 0.012855
vt 0.714594 0.016181
vt 0.708354 0.027211
vt 0.705831 0.003127
vt 0.708790 0.004631
vt 0.710970 0.025260
vt 0.702697 0.002081
vt 0.705508 0.028635
vt 0.693181 0.028144
vt 0.690985 0.006327
vt 0.693445 0.004389
vt 0.696224 0.029151
vt 0.688885 0.008653
vt 0.690387 0.026433
vt 0.688436 0.023797
vt 0.687065 0.011313
vt 0.686211 0.014454
vt 0.686890 0.020918
vt 0.686175 0.017723
vt 0.284432 0.970737
vt 0.297422 0.970737
vt 0.297422 0.983726
vt 0.297422 0.996716
vt 0.284432 0.996716
vt 0.271443 0.996716
vt 0.271443 0.983726
vt 0.271443 0.970737
vt 0.223904 0.502475
vt 0.225820 0.506833
vt 0.217094 0.510675
vt 0.215193 0.506312
vt 0.213290 0.501949
vt 0.221989 0.498118
vt 0.996716 0.015008
vt 0.996716 0.027997
vt 0.983726 0.027997
vt 0.970737 0.027997
vt 0.970737 0.015008
vt 0.970737 0.002018
vt 0.983726 0.002018
vt 0.996716 0.002018
vt 0.558935 0.354445
vt 0.563298 0.352543
vt 0.567135 0.361237
vt 0.562779 0.363156
vt 0.558423 0.365074
vt 0.554573 0.356350
vt 0.879948 0.982518
vt 0.881413 0.977989
vt 0.890467 0.980871
vt 0.889020 0.985405
vt 0.887572 0.989940
vt 0.878484 0.987047
vt 0.236104 0.883714
vt 0.238101 0.879392
vt 0.246763 0.883387
vt 0.244748 0.887702
vt 0.242735 0.892016
vt 0.234107 0.888034
vt 0.983567 0.967591
vt 0.996050 0.971184
vt 0.985865 0.976817
vt 0.981290 0.975499
vt 0.988864 0.996150
vt 0.983232 0.985964
vt 0.976382 0.992556
vt 0.978658 0.984648
vt 0.963900 0.988963
vt 0.974084 0.983331
vt 0.971084 0.963997
vt 0.976716 0.974182
vt 0.926456 0.978198
vt 0.913972 0.974618
vt 0.924151 0.968976
vt 0.928726 0.970288
vt 0.921138 0.949646
vt 0.926779 0.959827
vt 0.933626 0.953229
vt 0.931356 0.961139
vt 0.946114 0.956815
vt 0.935932 0.962452
vt 0.938938 0.981782
vt 0.933302 0.971601
vt 0.951419 0.985372
vt 0.949121 0.976148
vt 0.953694 0.977463
vt 0.951750 0.966998
vt 0.958599 0.960405
vt 0.956325 0.968315
vt 0.960900 0.969630
vt 0.958267 0.978779
vt 0.908650 0.946065
vt 0.910957 0.955288
vt 0.906381 0.953975
vt 0.908331 0.964439
vt 0.901487 0.971036
vt 0.903756 0.963126
vt 0.889001 0.967455
vt 0.899181 0.961813
vt 0.896164 0.942482
vt 0.901806 0.952662
vt 0.232065 0.006778
vt 0.232065 0.011538
vt 0.002018 0.011538
vt 0.002018 0.006778
vt 0.012819 0.608133
vt 0.005808 0.601689
vt 0.224099 0.517124
vt 0.003911 0.597321
vt 0.002018 0.592955
vt 0.002144 0.583440
vt 0.213424 0.492432
vt 0.232065 0.002018
vt 0.002018 0.002018
vt 0.467927 0.143167
vt 0.472292 0.141271
vt 0.481809 0.141397
vt 0.572814 0.352678
vt 0.608476 0.996402
vt 0.608476 0.991642
vt 0.838524 0.991642
vt 0.838524 0.996402
vt 0.608476 0.986882
vt 0.838524 0.986882
vt 0.457114 0.152075
vt 0.463559 0.145064
vt 0.548124 0.363355
vt 0.661413 0.910659
vt 0.662885 0.906133
vt 0.669284 0.899092
vt 0.887821 0.970950
vt 0.633144 0.439250
vt 0.630396 0.435363
vt 0.818251 0.302575
vt 0.820998 0.306462
vt 0.627649 0.431476
vt 0.815504 0.298688
vt 0.660920 0.924658
vt 0.659940 0.915186
vt 0.879456 0.996520
vt 0.051313 0.761742
vt 0.047427 0.758994
vt 0.180214 0.571140
vt 0.184101 0.573887
vt 0.454914 0.972266
vt 0.454714 0.981786
vt 0.246975 0.873865
vt 0.452692 0.986095
vt 0.450671 0.990402
vt 0.443448 0.996597
vt 0.235504 0.898205
vt 0.055200 0.764490
vt 0.187988 0.576635
vt 0.949648 0.328438
vt 0.941928 0.328437
vt 0.941931 0.298690
vt 0.949649 0.298691
vt 0.934209 0.328436
vt 0.934212 0.298689
vt 0.926491 0.328435
vt 0.926493 0.298688
vt 0.918773 0.328435
vt 0.918774 0.298688
vt 0.911055 0.328435
vt 0.911055 0.298688
vt 0.903336 0.328436
vt 0.903336 0.298689
vt 0.895617 0.328437
vt 0.895617 0.298690
vt 0.887896 0.328438
vt 0.887900 0.298690
vt 0.880177 0.328437
vt 0.880181 0.298690
vt 0.872456 0.328437
vt 0.872461 0.298690
vt 0.864737 0.328437
vt 0.864740 0.298690
vt 0.857016 0.328437
vt 0.857019 0.298690
vt 0.849295 0.328437
vt 0.849297 0.298690
vt 0.841574 0.328437
vt 0.841574 0.298690
vt 0.995971 0.328444
vt 0.988249 0.328443
vt 0.988253 0.298696
vt 0.995974 0.298697
vt 0.980528 0.328441
vt 0.980531 0.298694
vt 0.972809 0.328440
vt 0.972810 0.298693
vt 0.965088 0.328440
vt 0.965090 0.298693
vt 0.957368 0.328439
vt 0.957370 0.298691
vt 0.026702 0.016146
vt 0.026703 0.065505
vt 0.019075 0.064297
vt 0.019074 0.017354
vt 0.026700 0.715439
vt 0.026700 0.764798
vt 0.019076 0.763591
vt 0.019069 0.716648
vt 0.051384 0.740129
vt 0.050170 0.747755
vt 0.050181 0.732502
vt 0.012184 0.720155
vt 0.012199 0.760087
vt 0.006738 0.754630
vt 0.006724 0.725618
vt 0.003221 0.732500
vt 0.003230 0.747753
vt 0.002018 0.740127
vt 0.034332 0.716648
vt 0.034323 0.763592
vt 0.041216 0.720156
vt 0.041200 0.760088
vt 0.046678 0.725619
vt 0.046661 0.754632
vt 0.034332 0.017353
vt 0.034330 0.064296
vt 0.012193 0.020859
vt 0.012194 0.060791
vt 0.006733 0.055331
vt 0.006731 0.026319
vt 0.003226 0.033198
vt 0.003226 0.048451
vt 0.002018 0.040825
vt 0.046674 0.026317
vt 0.046675 0.055330
vt 0.041213 0.060790
vt 0.041213 0.020858
vt 0.050181 0.048450
vt 0.050181 0.033197
vt 0.051390 0.040823
vn 0.000000 -1.000000 0.000000
vn 0.000000 -1.000000 0.000000
vn 0.000000 -1.000000 0.000000
vn 0.000000 -1.000000 0.000000
vn -0.707107 0.707107 0.000000
vn -0.707107 0.707107 0.000000
vn -0.707107 0.707107 0.000000
vn -0.707107 0.707107 0.000000
vn 0.000000 0.707107 0.707107
vn 0.000000 0.707107 0.707107
vn 0.000000 0.707107 0.707107
vn 0.000000 0.707107 0.707107
vn 0.707107 0.707107 0.000000
vn 0.707107 0.707107 0.000000
vn 0.707107 0.707107 0.000000
vn 0.707107 0.707107 0.000000
vn 0.000000 0.707107 -0.707107
vn 0.000000 0.707107 -0.707107
vn 0.000000 0.707107 -0.707107
vn 0.000000 0.707107 -0.707107
vn 0.000000 0.000000 1.000000
vn 0.000000 0.000000 1.000000
vn 0.000000 0.000000 1.000000
vn 0.000000 0.000000 1.000000
vn 0.000000 1.000000 0.000000
vn 0.000000 1.000000 0.000000
vn 0.000000 1.000000 0.000000
vn 0.000000 1.000000 0.000000
vn 0.000000 0.000000 -1.000000
vn 0.000000 0.000000 -1.000000
vn 0.000000 0.000000 -1.000000
vn 0.000000 0.000000 -1.000000
vn 1.000000 0.000000 0.000000
vn 1.000000 0.000000 0.000000
vn 1.000000 0.000000 0.000000
vn 1.000000 0.000000 0.000000
vn -1.000000 0.000000 0.000000
vn -1.000000 0.000000 0.000000
vn -1.000000 0.000000 0.000000
vn -1.000000 0.000000 0.000000
vn 0.000000 0.833896 -0.551922
vn 0.000000 0.866022 -0.500006
vn 0.000000 0.866022 -0.500006
vn 0.000000 0.833896 -0.551922
vn 0.000000 -0.866009 0.500029
vn 0.000000 -0.894921 0.446224
vn 0.000000 -0.894921 0.446224
vn 0.000000 -0.866009 0.500029
vn 1.000000 0.000000 0.000000
vn 0.998138 -0.030491 -0.052832
vn 0.998138 -0.030491 -0.052832
vn 1.000000 0.000000 0.000000
vn -0.998138 -0.030491 -0.052832
vn -1.000000 0.000000 0.000000
vn -1.000000 0.000000 0.000000
vn -0.998138 -0.030491 -0.052832
vn 0.000000 -0.500029 -0.866009
vn 0.000000 -0.500029 -0.866009
vn 0.000000 -0.500029 -0.866009
vn 0.000000 -0.500029 -0.866009
vn 0.000000 -0.500029 -0.866009
vn 0.000000 -0.500029 -0.866009
vn 0.000000 -0.500029 -0.866009
vn 0.000000 -0.500029 -0.866009
vn 0.000000 0.500029 0.866009
vn 0.000000 0.500029 0.866009
vn 0.000000 0.500029 0.866009
vn 0.000000 0.500029 0.866009
vn 0.000000 0.500029 0.866009
vn 0.000000 0.500029 0.866009
vn 0.000000 0.500029 0.866009
vn 0.000000 0.500029 0.866009
vn -0.707100 0.612391 -0.353535
vn -0.707100 0.612391 -0.353535
vn -0.704645 0.568398 -0.424735
vn -0.704645 0.568398 -0.424735
vn 0.707100 0.612391 -0.353535
vn 0.707100 0.612391 -0.353535
vn 0.704645 0.568398 -0.424735
vn 0.704645 0.568398 -0.424735
vn -0.707087 -0.612410 0.353528
vn -0.707087 -0.612410 0.353528
vn -0.704633 -0.652045 0.279875
vn -0.704633 -0.652045 0.279875
vn 0.707087 -0.612410 0.353528
vn 0.707087 -0.612410 0.353528
vn 0.704633 -0.652045 0.279875
vn 0.704633 -0.652045 0.279875
vn -0.704645 0.568398 -0.424735
vn -0.704645 0.568398 -0.424735
vn -0.689658 0.486896 -0.536007
vn -0.689658 0.486896 -0.536007
vn 0.000000 0.833896 -0.551922
vn 0.000000 0.833896 -0.551922
vn 0.000000 0.767541 -0.641000
vn 0.000000 0.767541 -0.641000
vn 0.704645 0.568398 -0.424735
vn 0.704645 0.568398 -0.424735
vn 0.689658 0.486896 -0.536007
vn 0.689658 0.486896 -0.536007
vn 0.998138 -0.030491 -0.052832
vn 0.998138 -0.030491 -0.052832
vn 0.985205 -0.085674 -0.148426
vn 0.985205 -0.085674 -0.148426
vn 0.704633 -0.652045 0.279875
vn 0.704633 -0.652045 0.279875
vn 0.689666 -0.707644 0.153622
vn 0.689666 -0.707644 0.153622
vn 0.000000 -0.894921 0.446224
vn 0.000000 -0.894921 0.446224
vn 0.000000 -0.938937 0.344090
vn 0.000000 -0.938937 0.344090
vn -0.704633 -0.652045 0.279875
vn -0.704633 -0.652045 0.279875
vn -0.689666 -0.707644 0.153622
vn -0.689666 -0.707644 0.153622
vn -0.998138 -0.030491 -0.052832
vn -0.998138 -0.030491 -0.052832
vn -0.985205 -0.085674 -0.148426
vn -0.985205 -0.085674 -0.148426
vn 0.951076 0.000000 -0.308957
vn 0.808999 0.000000 -0.587811
vn 0.808999 0.000000 -0.587811
vn 0.951076 0.000000 -0.308957
vn 0.808999 0.000000 -0.587811
vn 0.587811 0.000000 -0.808999
vn 0.587811 0.000000 -0.808999
vn 0.808999 0.000000 -0.587811
vn 0.587811 0.000000 -0.808999
vn 0.308957 0.000000 -0.951076
vn 0.308957 0.000000 -0.951076
vn 0.587811 0.000000 -0.808999
vn 0.308957 0.000000 -0.951076
vn 0.000000 0.000000 -1.000000
vn 0.000000 0.000000 -1.000000
vn 0.308957 0.000000 -0.951076
vn 0.000000 0.000000 -1.000000
vn -0.308957 0.000000 -0.951076
vn -0.308957 0.000000 -0.951076
vn 0.000000 0.000000 -1.000000
vn -0.308957 0.000000 -0.951076
vn -0.587811 0.000000 -0.808999
vn -0.587811 0.000000 -0.808999
vn -0.308957 0.000000 -0.951076
vn -0.587811 0.000000 -0.808999
vn -0.808999 0.000000 -0.587811
vn -0.808999 0.000000 -0.587811
vn -0.587811 0.000000 -0.808999
vn -0.808999 0.000000 -0.587811
vn -0.951076 0.000000 -0.308957
vn -0.951076 0.000000 -0.308957
vn -0.808999 0.000000 -0.587811
vn -0.951076 0.000000 -0.308957
vn -1.000000 0.000000 0.000000
vn -1.000000 0.000000 0.000000
vn -0.951076 0.000000 -0.308957
vn -1.000000 0.000000 0.000000
vn -0.951076 0.000000 0.308957
vn -0.951076 0.000000 0.308957
vn -1.000000 0.000000 0.000000
vn -0.951076 0.000000 0.308957
vn -0.808999 0.000000 0.587811
vn -0.808999 0.000000 0.587811
vn -0.951076 0.000000 0.308957
vn -0.808999 0.000000 0.587811
vn -0.587811 0.000000 0.808999
vn -0.587811 0.000000 0.808999
vn -0.808999 0.000000 0.587811
vn -0.587811 0.000000 0.808999
vn -0.308957 0.000000 0.951076
vn -0.308957 0.000000 0.951076
vn -0.587811 0.000000 0.808999
vn -0.308957 0.000000 0.951076
vn 0.000000 0.000000 1.000000
vn 0.000000 0.000000 1.000000
vn -0.308957 0.000000 0.951076
vn 0.000000 0.000000 1.000000
vn 0.308957 0.000000 0.951076
vn 0.308957 0.000000 0.951076
vn 0.000000 0.000000 1.000000
vn 0.308957 0.000000 0.951076
vn 0.587811 0.000000 0.808999
vn 0.587811 0.000000 0.808999
vn 0.308957 0.000000 0.951076
vn 0.587811 0.000000 0.808999
vn 0.808999 0.000000 0.587811
vn 0.808999 0.000000 0.587811
vn 0.587811 0.000000 0.808999
vn 0.808999 0.000000 0.587811
vn 0.951076 0.000000 0.308957
vn 0.951076 0.000000 0.308957
vn 0.808999 0.000000 0.587811
vn 0.951076 0.000000 0.308957
vn 1.000000 0.000000 0.000000
vn 1.000000 0.000000 0.000000
vn 0.951076 0.000000 0.308957
vn 1.000000 0.000000 0.000000
vn 0.951076 0.000000 -0.308957
vn 0.951076 0.000000 -0.308957
vn 1.000000 0.000000 0.000000
vn 0.049169 -0.720750 -0.691449
vn 0.049015 -0.238271 -0.969961
vn 0.112255 -0.254143 -0.960630
vn 0.112223 -0.704803 -0.700470
vn 0.015718 0.233541 0.972220
vn 0.083233 0.714909 0.694246
vn 0.018100 0.725394 0.688096
vn -0.048556 0.236680 0.970374
vn -0.081275 -0.244741 -0.966176
vn -0.016572 -0.235185 -0.971809
vn -0.016329 -0.724062 -0.689542
vn -0.081062 -0.714358 -0.695069
vn -0.016329 -0.724062 -0.689542
vn -0.016572 -0.235185 -0.971809
vn 0.049015 -0.238271 -0.969961
vn 0.049169 -0.720750 -0.691449
vn 0.169609 -0.676725 -0.716433
vn 0.169793 -0.282052 -0.944255
vn 0.218526 -0.320526 -0.921688
vn 0.218386 -0.638034 -0.738391
vn 0.112223 -0.704803 -0.700470
vn 0.112255 -0.254143 -0.960630
vn 0.169793 -0.282052 -0.944255
vn 0.169609 -0.676725 -0.716433
vn 0.255741 -0.590290 -0.765607
vn 0.255786 -0.367916 -0.893986
vn 0.279293 -0.421672 -0.862663
vn 0.279263 -0.536337 -0.796464
vn 0.218386 -0.638034 -0.738391
vn 0.218526 -0.320526 -0.921688
vn 0.255786 -0.367916 -0.893986
vn 0.255741 -0.590290 -0.765607
vn 0.279263 -0.536337 -0.796464
vn 0.279293 -0.421672 -0.862663
vn 0.287480 -0.478878 -0.829476
vn -0.269339 -0.394135 -0.878700
vn -0.269373 -0.563894 -0.780680
vn -0.285322 -0.507828 -0.812836
vn -0.285321 -0.450049 -0.846196
vn -0.081275 -0.244741 -0.966176
vn -0.081062 -0.714358 -0.695069
vn -0.141779 -0.692261 -0.707583
vn -0.141929 -0.266675 -0.953279
vn -0.141929 -0.266675 -0.953279
vn -0.141779 -0.692261 -0.707583
vn -0.195315 -0.658619 -0.726686
vn -0.195312 -0.299973 -0.933739
vn -0.195312 -0.299973 -0.933739
vn -0.195315 -0.658619 -0.726686
vn -0.238700 -0.615108 -0.751442
vn -0.238715 -0.343162 -0.908435
vn -0.238715 -0.343162 -0.908435
vn -0.238700 -0.615108 -0.751442
vn -0.269373 -0.563894 -0.780680
vn -0.269339 -0.394135 -0.878700
vn 0.197297 0.297715 0.934045
vn 0.240245 0.341977 0.908479
vn 0.239657 0.342790 0.908328
vn 0.196194 0.298595 0.933996
vn 0.240245 0.341977 0.908479
vn 0.270236 0.393634 0.878650
vn 0.269779 0.393605 0.878803
vn 0.239657 0.342790 0.908328
vn 0.270236 0.393634 0.878650
vn 0.285596 0.449988 0.846136
vn 0.285563 0.450137 0.846067
vn 0.269779 0.393605 0.878803
vn 0.285596 0.449988 0.846136
vn 0.285594 0.507826 0.812742
vn 0.285209 0.508090 0.812712
vn 0.285563 0.450137 0.846067
vn 0.285594 0.507826 0.812742
vn 0.270240 0.564104 0.780229
vn 0.268881 0.565202 0.779904
vn 0.285209 0.508090 0.812712
vn 0.270240 0.564104 0.780229
vn 0.240245 0.615737 0.750434
vn 0.237951 0.616425 0.750600
vn 0.268881 0.565202 0.779904
vn 0.240245 0.615737 0.750434
vn 0.197294 0.660067 0.724835
vn 0.195797 0.658873 0.726326
vn 0.237951 0.616425 0.750600
vn 0.197294 0.660067 0.724835
vn 0.143722 0.694588 0.704905
vn 0.143171 0.692598 0.706972
vn 0.195797 0.658873 0.726326
vn 0.143722 0.694588 0.704905
vn 0.082474 0.717476 0.691684
vn 0.083233 0.714909 0.694246
vn 0.143171 0.692598 0.706972
vn 0.082474 0.717476 0.691684
vn 0.016696 0.727519 0.685885
vn 0.018100 0.725394 0.688096
vn 0.083233 0.714909 0.694246
vn 0.016696 0.727519 0.685885
vn -0.049902 0.724182 0.687801
vn -0.049383 0.722250 0.689867
vn 0.018100 0.725394 0.688096
vn -0.049902 0.724182 0.687801
vn -0.113910 0.707568 0.697404
vn -0.112566 0.705917 0.699293
vn -0.049383 0.722250 0.689867
vn -0.113910 0.707568 0.697404
vn -0.171743 0.678610 0.714137
vn -0.170431 0.677785 0.715235
vn -0.112566 0.705917 0.699293
vn -0.171743 0.678610 0.714137
vn -0.220257 0.638977 0.737018
vn -0.218841 0.638731 0.737653
vn -0.170431 0.677785 0.715235
vn -0.220257 0.638977 0.737018
vn -0.256935 0.590632 0.764943
vn -0.256235 0.590729 0.765103
vn -0.218841 0.638731 0.737653
vn -0.256935 0.590632 0.764943
vn -0.279843 0.536307 0.796281
vn -0.279698 0.535895 0.796609
vn -0.256235 0.590729 0.765103
vn -0.279843 0.536307 0.796281
vn -0.287544 0.478823 0.829486
vn -0.287322 0.479419 0.829218
vn -0.279698 0.535895 0.796609
vn -0.287544 0.478823 0.829486
vn -0.279844 0.421428 0.862604
vn -0.279229 0.421668 0.862686
vn -0.287322 0.479419 0.829218
vn -0.279844 0.421428 0.862604
vn -0.256926 0.367107 0.893992
vn -0.255204 0.366674 0.894663
vn -0.279229 0.421668 0.862686
vn -0.256926 0.367107 0.893992
vn -0.220242 0.318736 0.921901
vn -0.217649 0.318920 0.922453
vn -0.255204 0.366674 0.894663
vn -0.220242 0.318736 0.921901
vn -0.171738 0.279078 0.944787
vn -0.168808 0.280451 0.944908
vn -0.217649 0.318920 0.922453
vn -0.171738 0.279078 0.944787
vn -0.113910 0.250132 0.961488
vn -0.111741 0.252690 0.961073
vn -0.168808 0.280451 0.944908
vn -0.113910 0.250132 0.961488
vn -0.049903 0.233556 0.971062
vn -0.048556 0.236680 0.970374
vn -0.111741 0.252690 0.961073
vn -0.049903 0.233556 0.971062
vn 0.016695 0.230166 0.973008
vn 0.015718 0.233541 0.972220
vn -0.048556 0.236680 0.970374
vn 0.016695 0.230166 0.973008
vn 0.082470 0.240237 0.967205
vn 0.079816 0.242286 0.966916
vn 0.015718 0.233541 0.972220
vn 0.082470 0.240237 0.967205
vn 0.143732 0.263137 0.953992
vn 0.141104 0.264292 0.954065
vn 0.079816 0.242286 0.966916
vn 0.143732 0.263137 0.953992
vn 0.197297 0.297715 0.934045
vn 0.196194 0.298595 0.933996
vn 0.141104 0.264292 0.954065
vn 0.962903 0.125502 -0.238887
vn 0.884328 0.312509 -0.346846
vn 0.893634 0.388676 -0.224385
vn 0.973054 0.199708 -0.115252
vn 0.884328 0.312509 -0.346846
vn 0.758070 0.478753 -0.442859
vn 0.766049 0.556696 -0.321339
vn 0.893634 0.388676 -0.224385
vn 0.758070 0.478753 -0.442859
vn 0.590973 0.615299 -0.521687
vn 0.597152 0.694664 -0.401062
vn 0.766049 0.556696 -0.321339
vn 0.590973 0.615299 -0.521687
vn 0.391890 0.714833 -0.579167
vn 0.396091 0.795204 -0.459090
vn 0.597152 0.694664 -0.401062
vn 0.391890 0.714833 -0.579167
vn 0.171845 0.771899 -0.612080
vn 0.173634 0.852911 -0.492335
vn 0.396091 0.795204 -0.459090
vn 0.171845 0.771899 -0.612080
vn -0.057473 0.783440 -0.618804
vn -0.058081 0.864593 -0.499106
vn 0.173634 0.852911 -0.492335
vn -0.057473 0.783440 -0.618804
vn -0.283819 0.748874 -0.598861
vn -0.286804 0.829678 -0.478933
vn -0.058081 0.864593 -0.499106
vn -0.283819 0.748874 -0.598861
vn -0.494800 0.670090 -0.553311
vn -0.500019 0.750014 -0.432966
vn -0.286804 0.829678 -0.478933
vn -0.494800 0.670090 -0.553311
vn -0.679113 0.551256 -0.484688
vn -0.686224 0.629971 -0.363638
vn -0.500019 0.750014 -0.432966
vn -0.679113 0.551256 -0.484688
vn -0.826791 0.398821 -0.396684
vn -0.835537 0.475836 -0.274697
vn -0.686224 0.629971 -0.363638
vn -0.826791 0.398821 -0.396684
vn -0.929888 0.221042 -0.294020
vn -0.939712 0.296165 -0.170959
vn -0.835537 0.475836 -0.274697
vn -0.929888 0.221042 -0.294020
vn -0.982877 0.027379 -0.182218
vn -0.993244 0.100533 -0.057957
vn -0.939712 0.296165 -0.170959
vn -0.982877 0.027379 -0.182218
vn -0.982878 -0.171505 -0.067362
vn -0.993244 -0.100533 0.057957
vn -0.993244 0.100533 -0.057957
vn -0.982878 -0.171505 -0.067362
vn -0.929874 -0.365192 0.044378
vn -0.939712 -0.296165 0.170959
vn -0.993244 -0.100533 0.057957
vn -0.929874 -0.365192 0.044378
vn -0.826754 -0.543020 0.146995
vn -0.835524 -0.475860 0.274693
vn -0.939712 -0.296165 0.170959
vn -0.826754 -0.543020 0.146995
vn -0.679109 -0.695408 0.234987
vn -0.686224 -0.629971 0.363638
vn -0.835524 -0.475860 0.274693
vn -0.679109 -0.695408 0.234987
vn -0.494765 -0.814252 0.303647
vn -0.499996 -0.750026 0.432973
vn -0.686224 -0.629971 0.363638
vn -0.494765 -0.814252 0.303647
vn -0.283824 -0.893042 0.349171
vn -0.286804 -0.829678 0.478933
vn -0.499996 -0.750026 0.432973
vn -0.283824 -0.893042 0.349171
vn -0.057470 -0.927606 0.369113
vn -0.058081 -0.864593 0.499106
vn -0.286804 -0.829678 0.478933
vn -0.057470 -0.927606 0.369113
vn 0.171833 -0.916056 0.362375
vn 0.173632 -0.852898 0.492359
vn -0.058081 -0.864593 0.499106
vn 0.171833 -0.916056 0.362375
vn 0.391901 -0.859008 0.329422
vn 0.396091 -0.795204 0.459090
vn 0.173632 -0.852898 0.492359
vn 0.391901 -0.859008 0.329422
vn 0.590922 -0.759483 0.272023
vn 0.597152 -0.694664 0.401062
vn 0.396091 -0.795204 0.459090
vn 0.590922 -0.759483 0.272023
vn 0.758033 -0.622944 0.193201
vn 0.766049 -0.556696 0.321339
vn 0.597152 -0.694664 0.401062
vn 0.758033 -0.622944 0.193201
vn 0.884310 -0.456682 0.097147
vn 0.893634 -0.388676 0.224385
vn 0.766049 -0.556696 0.321339
vn 0.884310 -0.456682 0.097147
vn 0.962899 -0.269651 -0.010651
vn 0.973054 -0.199708 0.115252
vn 0.893634 -0.388676 0.224385
vn 0.962899 -0.269651 -0.010651
vn 0.989570 -0.071998 -0.124768
vn 1.000000 0.000000 0.000000
vn 0.973054 -0.199708 0.115252
vn 0.989570 -0.071998 -0.124768
vn 0.962903 0.125502 -0.238887
vn 0.973054 0.199708 -0.115252
vn 1.000000 0.000000 0.000000
vn 0.055607 -0.200365 -0.978142
vn 0.126881 -0.218876 -0.967468
vn 0.112255 -0.254143 -0.960630
vn 0.049015 -0.238271 -0.969961
vn 0.126881 -0.218876 -0.967468
vn 0.191272 -0.251063 -0.948885
vn 0.169793 -0.282052 -0.944255
vn 0.112255 -0.254143 -0.960630
vn 0.191272 -0.251063 -0.948885
vn 0.245385 -0.295256 -0.923369
vn 0.218526 -0.320526 -0.921688
vn 0.169793 -0.282052 -0.944255
vn 0.245385 -0.295256 -0.923369
vn 0.286190 -0.349153 -0.892294
vn 0.255786 -0.367916 -0.893986
vn 0.218526 -0.320526 -0.921688
vn 0.286190 -0.349153 -0.892294
vn 0.311651 -0.409624 -0.857369
vn 0.279293 -0.421672 -0.862663
vn 0.255786 -0.367916 -0.893986
vn 0.311651 -0.409624 -0.857369
vn 0.320324 -0.473663 -0.820388
vn 0.287480 -0.478878 -0.829476
vn 0.279293 -0.421672 -0.862663
vn 0.320324 -0.473663 -0.820388
vn 0.311675 -0.537610 -0.783476
vn 0.279263 -0.536337 -0.796464
vn 0.287480 -0.478878 -0.829476
vn 0.311675 -0.537610 -0.783476
vn 0.286216 -0.598162 -0.748520
vn 0.255741 -0.590290 -0.765607
vn 0.279263 -0.536337 -0.796464
vn 0.286216 -0.598162 -0.748520
vn 0.245393 -0.652002 -0.717409
vn 0.218386 -0.638034 -0.738391
vn 0.255741 -0.590290 -0.765607
vn 0.245393 -0.652002 -0.717409
vn 0.191287 -0.696167 -0.691925
vn 0.169609 -0.676725 -0.716433
vn 0.218386 -0.638034 -0.738391
vn 0.191287 -0.696167 -0.691925
vn 0.126870 -0.728381 -0.673324
vn 0.112223 -0.704803 -0.700470
vn 0.169609 -0.676725 -0.716433
vn 0.126870 -0.728381 -0.673324
vn 0.055612 -0.746862 -0.662650
vn 0.049169 -0.720750 -0.691449
vn 0.112223 -0.704803 -0.700470
vn 0.055612 -0.746862 -0.662650
vn -0.018588 -0.750614 -0.660480
vn -0.016329 -0.724062 -0.689542
vn 0.049169 -0.720750 -0.691449
vn -0.018588 -0.750614 -0.660480
vn -0.091808 -0.739446 -0.666927
vn -0.081062 -0.714358 -0.695069
vn -0.016329 -0.724062 -0.689542
vn -0.091808 -0.739446 -0.666927
vn -0.160150 -0.713879 -0.681710
vn -0.141779 -0.692261 -0.707583
vn -0.081062 -0.714358 -0.695069
vn -0.160150 -0.713879 -0.681710
vn -0.219758 -0.675482 -0.703868
vn -0.195315 -0.658619 -0.726686
vn -0.141779 -0.692261 -0.707583
vn -0.219758 -0.675482 -0.703868
vn -0.267573 -0.626096 -0.732399
vn -0.238700 -0.615108 -0.751442
vn -0.195315 -0.658619 -0.726686
vn -0.267573 -0.626096 -0.732399
vn -0.300978 -0.568505 -0.765647
vn -0.269373 -0.563894 -0.780680
vn -0.238700 -0.615108 -0.751442
vn -0.300978 -0.568505 -0.765647
vn -0.318191 -0.505870 -0.801780
vn -0.285322 -0.507828 -0.812836
vn -0.269373 -0.563894 -0.780680
vn -0.318191 -0.505870 -0.801780
vn -0.318173 -0.441414 -0.838999
vn -0.285321 -0.450049 -0.846196
vn -0.285322 -0.507828 -0.812836
vn -0.318173 -0.441414 -0.838999
vn -0.300983 -0.378785 -0.875175
vn -0.269339 -0.394135 -0.878700
vn -0.285321 -0.450049 -0.846196
vn -0.300983 -0.378785 -0.875175
vn -0.267591 -0.321220 -0.908412
vn -0.238715 -0.343162 -0.908435
vn -0.269339 -0.394135 -0.878700
vn -0.267591 -0.321220 -0.908412
vn -0.219751 -0.271789 -0.936931
vn -0.195312 -0.299973 -0.933739
vn -0.238715 -0.343162 -0.908435
vn -0.219751 -0.271789 -0.936931
vn -0.160151 -0.233404 -0.959101
vn -0.141929 -0.266675 -0.953279
vn -0.195312 -0.299973 -0.933739
vn -0.160151 -0.233404 -0.959101
vn -0.091804 -0.207873 -0.973838
vn -0.081275 -0.244741 -0.966176
vn -0.141929 -0.266675 -0.953279
vn -0.091804 -0.207873 -0.973838
vn -0.018586 -0.196699 -0.980288
vn -0.016572 -0.235185 -0.971809
vn -0.081275 -0.244741 -0.966176
vn -0.018586 -0.196699 -0.980288
vn 0.055607 -0.200365 -0.978142
vn 0.049015 -0.238271 -0.969961
vn -0.016572 -0.235185 -0.971809
vn 0.962903 0.125502 -0.238887
vn 0.923234 0.031468 -0.382948
vn 0.847876 0.210786 -0.486493
vn 0.884328 0.312509 -0.346846
vn 0.557251 -0.295520 -0.775977
vn 0.311651 -0.409624 -0.857369
vn 0.286190 -0.349153 -0.892294
vn 0.511773 -0.187287 -0.838458
vn 0.884328 0.312509 -0.346846
vn 0.847876 0.210786 -0.486493
vn 0.726824 0.370158 -0.578541
vn 0.758070 0.478753 -0.442859
vn 0.511773 -0.187287 -0.838458
vn 0.286190 -0.349153 -0.892294
vn 0.245385 -0.295256 -0.923369
vn 0.438678 -0.091044 -0.894020
vn 0.758070 0.478753 -0.442859
vn 0.726824 0.370158 -0.578541
vn 0.566530 0.501124 -0.654155
vn 0.590973 0.615299 -0.521687
vn 0.438678 -0.091044 -0.894020
vn 0.245385 -0.295256 -0.923369
vn 0.191272 -0.251063 -0.948885
vn 0.341974 -0.011965 -0.939633
vn 0.590973 0.615299 -0.521687
vn 0.566530 0.501124 -0.654155
vn 0.375829 0.596479 -0.709200
vn 0.391890 0.714833 -0.579167
vn 0.341974 -0.011965 -0.939633
vn 0.191272 -0.251063 -0.948885
vn 0.126881 -0.218876 -0.967468
vn 0.226841 0.045508 -0.972868
vn 0.391890 0.714833 -0.579167
vn 0.375829 0.596479 -0.709200
vn 0.164704 0.651217 -0.740803
vn 0.171845 0.771899 -0.612080
vn 0.226841 0.045508 -0.972868
vn 0.126881 -0.218876 -0.967468
vn 0.055607 -0.200365 -0.978142
vn 0.099374 0.078560 -0.991944
vn 0.171845 0.771899 -0.612080
vn 0.164704 0.651217 -0.740803
vn -0.055152 0.662281 -0.747223
vn -0.057473 0.783440 -0.618804
vn 0.099374 0.078560 -0.991944
vn 0.055607 -0.200365 -0.978142
vn -0.018586 -0.196699 -0.980288
vn -0.033298 0.085182 -0.995809
vn -0.057473 0.783440 -0.618804
vn -0.055152 0.662281 -0.747223
vn -0.272131 0.629144 -0.728095
vn -0.283819 0.748874 -0.598861
vn -0.033298 0.085182 -0.995809
vn -0.018586 -0.196699 -0.980288
vn -0.091804 -0.207873 -0.973838
vn -0.164198 0.065191 -0.984271
vn -0.283819 0.748874 -0.598861
vn -0.272131 0.629144 -0.728095
vn -0.474417 0.553593 -0.684444
vn -0.494800 0.670090 -0.553311
vn -0.164198 0.065191 -0.984271
vn -0.091804 -0.207873 -0.973838
vn -0.160151 -0.233404 -0.959101
vn -0.286298 0.019626 -0.957940
vn -0.494800 0.670090 -0.553311
vn -0.474417 0.553593 -0.684444
vn -0.651074 0.439645 -0.618721
vn -0.679113 0.551256 -0.484688
vn -0.286298 0.019626 -0.957940
vn -0.160151 -0.233404 -0.959101
vn -0.219751 -0.271789 -0.936931
vn -0.392977 -0.049050 -0.918239
vn -0.679113 0.551256 -0.484688
vn -0.651074 0.439645 -0.618721
vn -0.792699 0.293543 -0.534285
vn -0.826791 0.398821 -0.396684
vn -0.392977 -0.049050 -0.918239
vn -0.219751 -0.271789 -0.936931
vn -0.267591 -0.321220 -0.908412
vn -0.478523 -0.137257 -0.867281
vn -0.826791 0.398821 -0.396684
vn -0.792699 0.293543 -0.534285
vn -0.891576 0.123038 -0.435837
vn -0.929888 0.221042 -0.294020
vn -0.478523 -0.137257 -0.867281
vn -0.267591 -0.321220 -0.908412
vn -0.300983 -0.378785 -0.875175
vn -0.538168 -0.240227 -0.807878
vn -0.929888 0.221042 -0.294020
vn -0.891576 0.123038 -0.435837
vn -0.942366 -0.062509 -0.328691
vn -0.982877 0.027379 -0.182218
vn -0.538168 -0.240227 -0.807878
vn -0.300983 -0.378785 -0.875175
vn -0.318173 -0.441414 -0.838999
vn -0.568825 -0.352326 -0.743172
vn -0.982877 0.027379 -0.182218
vn -0.942366 -0.062509 -0.328691
vn -0.942378 -0.253305 -0.218540
vn -0.982878 -0.171505 -0.067362
vn -0.568825 -0.352326 -0.743172
vn -0.318173 -0.441414 -0.838999
vn -0.318191 -0.505870 -0.801780
vn -0.568819 -0.467484 -0.676686
vn -0.982878 -0.171505 -0.067362
vn -0.942378 -0.253305 -0.218540
vn -0.891550 -0.439030 -0.111314
vn -0.929874 -0.365192 0.044378
vn -0.568819 -0.467484 -0.676686
vn -0.318191 -0.505870 -0.801780
vn -0.300978 -0.568505 -0.765647
vn -0.538185 -0.579541 -0.611955
vn -0.929874 -0.365192 0.044378
vn -0.891550 -0.439030 -0.111314
vn -0.792724 -0.609445 -0.012850
vn -0.826754 -0.543020 0.146995
vn -0.538185 -0.579541 -0.611955
vn -0.300978 -0.568505 -0.765647
vn -0.267573 -0.626096 -0.732399
vn -0.478515 -0.682398 -0.552590
vn -0.826754 -0.543020 0.146995
vn -0.792724 -0.609445 -0.012850
vn -0.651059 -0.755657 0.071451
vn -0.679109 -0.695408 0.234987
vn -0.478515 -0.682398 -0.552590
vn -0.267573 -0.626096 -0.732399
vn -0.219758 -0.675482 -0.703868
vn -0.392964 -0.770666 -0.501651
vn -0.679109 -0.695408 0.234987
vn -0.651059 -0.755657 0.071451
vn -0.474408 -0.869548 0.137198
vn -0.494765 -0.814252 0.303647
vn -0.392964 -0.770666 -0.501651
vn -0.219758 -0.675482 -0.703868
vn -0.160150 -0.713879 -0.681710
vn -0.286284 -0.839441 -0.461931
vn -0.494765 -0.814252 0.303647
vn -0.474408 -0.869548 0.137198
vn -0.272121 -0.945130 0.180774
vn -0.283824 -0.893042 0.349171
vn -0.286284 -0.839441 -0.461931
vn -0.160150 -0.713879 -0.681710
vn -0.091808 -0.739446 -0.666927
vn -0.164213 -0.885039 -0.435591
vn -0.283824 -0.893042 0.349171
vn -0.272121 -0.945130 0.180774
vn -0.055150 -0.978250 0.199965
vn -0.057470 -0.927606 0.369113
vn -0.164213 -0.885039 -0.435591
vn -0.091808 -0.739446 -0.666927
vn -0.018588 -0.750614 -0.660480
vn -0.033300 -0.905043 -0.424014
vn -0.057470 -0.927606 0.369113
vn -0.055150 -0.978250 0.199965
vn 0.164701 -0.967174 0.193514
vn 0.171833 -0.916056 0.362375
vn -0.033300 -0.905043 -0.424014
vn -0.018588 -0.750614 -0.660480
vn 0.055612 -0.746862 -0.662650
vn 0.099376 -0.898358 -0.427875
vn 0.171833 -0.916056 0.362375
vn 0.164701 -0.967174 0.193514
vn 0.375818 -0.912427 0.161981
vn 0.391901 -0.859008 0.329422
vn 0.099376 -0.898358 -0.427875
vn 0.055612 -0.746862 -0.662650
vn 0.126870 -0.728381 -0.673324
vn 0.226830 -0.865294 -0.447007
vn 0.391901 -0.859008 0.329422
vn 0.375818 -0.912427 0.161981
vn 0.566560 -0.817059 0.106890
vn 0.590922 -0.759483 0.272023
vn 0.226830 -0.865294 -0.447007
vn 0.126870 -0.728381 -0.673324
vn 0.191287 -0.696167 -0.691925
vn 0.341955 -0.807733 -0.480244
vn 0.590922 -0.759483 0.272023
vn 0.566560 -0.817059 0.106890
vn 0.726810 -0.686124 0.031317
vn 0.758033 -0.622944 0.193201
vn 0.341955 -0.807733 -0.480244
vn 0.191287 -0.696167 -0.691925
vn 0.245393 -0.652002 -0.717409
vn 0.438708 -0.728708 -0.525852
vn 0.758033 -0.622944 0.193201
vn 0.726810 -0.686124 0.031317
vn 0.847859 -0.526742 -0.060646
vn 0.884310 -0.456682 0.097147
vn 0.438708 -0.728708 -0.525852
vn 0.245393 -0.652002 -0.717409
vn 0.286216 -0.598162 -0.748520
vn 0.511751 -0.632494 -0.581432
vn 0.884310 -0.456682 0.097147
vn 0.847859 -0.526742 -0.060646
vn 0.923222 -0.347448 -0.164141
vn 0.962899 -0.269651 -0.010651
vn 0.511751 -0.632494 -0.581432
vn 0.286216 -0.598162 -0.748520
vn 0.311675 -0.537610 -0.783476
vn 0.557253 -0.524227 -0.643938
vn 0.962899 -0.269651 -0.010651
vn 0.923222 -0.347448 -0.164141
vn 0.948794 -0.157975 -0.273557
vn 0.989570 -0.071998 -0.124768
vn 0.557253 -0.524227 -0.643938
vn 0.311675 -0.537610 -0.783476
vn 0.320324 -0.473663 -0.820388
vn 0.572693 -0.409917 -0.709923
vn 0.311651 -0.409624 -0.857369
vn 0.557251 -0.295520 -0.775977
vn 0.572693 -0.409917 -0.709923
vn 0.320324 -0.473663 -0.820388
vn 0.923234 0.031468 -0.382948
vn 0.962903 0.125502 -0.238887
vn 0.989570 -0.071998 -0.124768
vn 0.948794 -0.157975 -0.273557
vn -0.255204 0.366674 0.894663
vn -0.218841 0.638731 0.737653
vn -0.256235 0.590729 0.765103
vn -0.279229 0.421668 0.862686
vn -0.279229 0.421668 0.862686
vn -0.256235 0.590729 0.765103
vn -0.279698 0.535895 0.796609
vn -0.287322 0.479419 0.829218
vn -0.168808 0.280451 0.944908
vn -0.112566 0.705917 0.699293
vn -0.170431 0.677785 0.715235
vn -0.217649 0.318920 0.922453
vn -0.217649 0.318920 0.922453
vn -0.170431 0.677785 0.715235
vn -0.218841 0.638731 0.737653
vn -0.255204 0.366674 0.894663
vn -0.048556 0.236680 0.970374
vn 0.018100 0.725394 0.688096
vn -0.049383 0.722250 0.689867
vn -0.111741 0.252690 0.961073
vn -0.111741 0.252690 0.961073
vn -0.049383 0.722250 0.689867
vn -0.112566 0.705917 0.699293
vn -0.168808 0.280451 0.944908
vn 0.141104 0.264292 0.954065
vn 0.195797 0.658873 0.726326
vn 0.143171 0.692598 0.706972
vn 0.079816 0.242286 0.966916
vn 0.079816 0.242286 0.966916
vn 0.143171 0.692598 0.706972
vn 0.083233 0.714909 0.694246
vn 0.015718 0.233541 0.972220
vn 0.237951 0.616425 0.750600
vn 0.196194 0.298595 0.933996
vn 0.239657 0.342790 0.908328
vn 0.268881 0.565202 0.779904
vn 0.141104 0.264292 0.954065
vn 0.196194 0.298595 0.933996
vn 0.237951 0.616425 0.750600
vn 0.195797 0.658873 0.726326
vn 0.285209 0.508090 0.812712
vn 0.269779 0.393605 0.878803
vn 0.285563 0.450137 0.846067
vn 0.268881 0.565202 0.779904
vn 0.239657 0.342790 0.908328
vn 0.269779 0.393605 0.878803
vn 0.285209 0.508090 0.812712
vn 0.000000 0.500029 0.866009
vn 0.000000 0.500029 0.866009
vn 0.000000 0.500029 0.866009
vn 0.000000 0.500029 0.866009
vn 0.000000 0.500029 0.866009
vn 0.000000 0.500029 0.866009
vn 0.000000 0.500029 0.866009
vn 0.000000 0.500029 0.866009
vn 0.000000 0.866009 -0.500029
vn 0.000000 0.866009 -0.500029
vn 0.000000 0.866009 -0.500029
vn 0.000000 0.866009 -0.500029
vn 0.000000 0.866009 -0.500029
vn 0.000000 0.866009 -0.500029
vn 0.000000 -0.500006 -0.866022
vn 0.000000 -0.500006 -0.866022
vn 0.000000 -0.500006 -0.866022
vn 0.000000 -0.500006 -0.866022
vn 0.000000 -0.500006 -0.866022
vn 0.000000 -0.500006 -0.866022
vn 0.000000 -0.500006 -0.866022
vn 0.000000 -0.500006 -0.866022
vn 0.000000 -0.866009 0.500029
vn 0.000000 -0.866009 0.500029
vn 0.000000 -0.866009 0.500029
vn 0.000000 -0.866009 0.500029
vn 0.000000 -0.866009 0.500029
vn 0.000000 -0.866009 0.500029
vn 1.000000 0.000000 0.000000
vn 1.000000 0.000000 0.000000
vn 1.000000 0.000000 0.000000
vn 1.000000 0.000000 0.000000
vn 1.000000 0.000000 0.000000
vn 1.000000 0.000000 0.000000
vn -1.000000 0.000000 0.000000
vn -1.000000 0.000000 0.000000
vn -1.000000 0.000000 0.000000
vn -1.000000 0.000000 0.000000
vn -1.000000 0.000000 0.000000
vn -1.000000 0.000000 0.000000
vn 1.000000 0.000000 0.000000
vn 1.000000 0.000000 0.000000
vn 1.000000 0.000000 0.000000
vn 1.000000 0.000000 0.000000
vn 1.000000 0.000000 0.000000
vn 1.000000 0.000000 0.000000
vn 1.000000 0.000000 0.000000
vn 1.000000 0.000000 0.000000
vn 1.000000 0.000000 0.000000
vn 1.000000 0.000000 0.000000
vn 1.000000 0.000000 0.000000
vn 1.000000 0.000000 0.000000
vn 1.000000 0.000000 0.000000
vn 1.000000 0.000000 0.000000
vn 1.000000 0.000000 0.000000
vn 1.000000 0.000000 0.000000
vn 1.000000 0.000000 0.000000
vn 1.000000 0.000000 0.000000
vn 1.000000 0.000000 0.000000
vn 1.000000 0.000000 0.000000
vn 1.000000 0.000000 0.000000
vn 1.000000 0.000000 0.000000
vn 1.000000 0.000000 0.000000
vn 1.000000 0.000000 0.000000
vn -1.000000 0.000000 0.000000
vn -1.000000 0.000000 0.000000
vn -1.000000 0.000000 0.000000
vn -1.000000 0.000000 0.000000
vn -1.000000 0.000000 0.000000
vn -1.000000 0.000000 0.000000
vn -1.000000 0.000000 0.000000
vn -1.000000 0.000000 0.000000
vn -1.000000 0.000000 0.000000
vn -1.000000 0.000000 0.000000
vn -1.000000 0.000000 0.000000
vn -1.000000 0.000000 0.000000
vn -1.000000 0.000000 0.000000
vn -1.000000 0.000000 0.000000
vn -1.000000 0.000000 0.000000
vn -1.000000 0.000000 0.000000
vn -1.000000 0.000000 0.000000
vn -1.000000 0.000000 0.000000
vn -1.000000 0.000000 0.000000
vn -1.000000 0.000000 0.000000
vn -1.000000 0.000000 0.000000
vn -1.000000 0.000000 0.000000
vn -1.000000 0.000000 0.000000
vn -1.000000 0.000000 0.000000
vn 0.000000 0.866009 -0.500029
vn 0.000000 0.866009 -0.500029
vn 0.000000 0.866009 -0.500029
vn 0.000000 0.866009 -0.500029
vn 0.000000 0.866009 -0.500029
vn 0.000000 0.866022 -0.500006
vn 0.000000 0.866022 -0.500006
vn 0.000000 0.866009 -0.500029
vn 0.000000 0.866022 -0.500006
vn 0.000000 0.866022 -0.500006
vn 0.000000 0.866022 -0.500006
vn 0.000000 0.866022 -0.500006
vn 0.000000 0.866022 -0.500006
vn 0.000000 0.866022 -0.500006
vn 0.000000 0.866022 -0.500006
vn 0.000000 0.866022 -0.500006
vn 0.000000 0.866022 -0.500006
vn 0.000000 0.866009 -0.500029
vn 0.000000 0.866009 -0.500029
vn 0.000000 0.866022 -0.500006
vn 0.000000 0.866009 -0.500029
vn 0.000000 0.866009 -0.500029
vn 0.000000 0.866009 -0.500029
vn 0.000000 0.866009 -0.500029
vn 0.000000 -0.866022 0.500006
vn 0.000000 -0.866009 0.500029
vn 0.000000 -0.866009 0.500029
vn 0.000000 -0.866022 0.500006
vn 0.000000 -0.866009 0.500029
vn 0.000000 -0.866009 0.500029
vn 0.000000 -0.866009 0.500029
vn 0.000000 -0.866009 0.500029
vn 0.000000 -0.866009 0.500029
vn 0.000000 -0.866022 0.500006
vn 0.000000 -0.866022 0.500006
vn 0.000000 -0.866009 0.500029
vn 0.000000 -0.866022 0.500006
vn 0.000000 -0.866009 0.500029
vn 0.000000 -0.866009 0.500029
vn 0.000000 -0.866022 0.500006
vn 0.000000 -0.866009 0.500029
vn 0.000000 -0.866009 0.500029
vn 0.000000 -0.866009 0.500029
vn 0.000000 -0.866009 0.500029
vn 0.000000 -0.866009 0.500029
vn 0.000000 -0.866022 0.500006
vn 0.000000 -0.866022 0.500006
vn 0.000000 -0.866009 0.500029
vn 0.000000 -0.809934 -0.586521
vn 0.000000 -0.809934 -0.586521
vn 0.000000 -0.809934 -0.586521
vn 0.000000 -0.809934 -0.586521
vn -1.000000 0.000000 0.000000
vn -1.000000 0.000000 0.000000
vn -1.000000 0.000000 0.000000
vn -1.000000 0.000000 0.000000
vn 0.000000 0.809934 0.586521
vn 0.000000 0.809934 0.586521
vn 0.000000 0.809934 0.586521
vn 0.000000 0.809934 0.586521
vn 0.000000 0.809934 0.586521
vn 0.000000 0.809934 0.586521
vn 0.000000 0.809934 0.586521
vn 0.000000 0.809934 0.586521
vn 1.000000 0.000000 0.000000
vn 1.000000 0.000000 0.000000
vn 1.000000 0.000000 0.000000
vn 1.000000 0.000000 0.000000
vn 0.000000 -0.809934 -0.586521
vn 0.000000 -0.809934 -0.586521
vn 0.000000 -0.809934 -0.586521
vn 0.000000 -0.809934 -0.586521
vn 0.000000 0.103012 0.994680
vn 0.000000 0.103012 0.994680
vn 0.000000 0.103012 0.994680
vn 0.000000 0.103012 0.994680
vn -1.000000 0.000000 0.000000
vn -1.000000 0.000000 0.000000
vn -1.000000 0.000000 0.000000
vn -1.000000 0.000000 0.000000
vn 0.000000 -0.103012 -0.994680
vn 0.000000 -0.103012 -0.994680
vn 0.000000 -0.103012 -0.994680
vn 0.000000 -0.103012 -0.994680
vn 0.000000 -0.103012 -0.994680
vn 0.000000 -0.103012 -0.994680
vn 0.000000 -0.103012 -0.994680
vn 0.000000 -0.103012 -0.994680
vn 1.000000 0.000000 0.000000
vn 1.000000 0.000000 0.000000
vn 1.000000 0.000000 0.000000
vn 1.000000 0.000000 0.000000
vn 0.000000 0.103012 0.994680
vn 0.000000 0.103012 0.994680
vn 0.000000 0.103012 0.994680
vn 0.000000 0.103012 0.994680
vn 0.408101 0.456417 0.790656
vn 0.408101 0.456417 0.790656
vn 0.408101 0.456417 0.790656
vn 0.408101 0.456417 0.790656
vn 0.000000 -0.866022 0.500006
vn 0.000000 -0.866022 0.500006
vn 0.000000 -0.866022 0.500006
vn 0.000000 -0.866022 0.500006
vn -0.408127 -0.456411 -0.790646
vn -0.408101 -0.456417 -0.790656
vn -0.408101 -0.456417 -0.790656
vn -0.408127 -0.456411 -0.790646
vn -0.408101 -0.456417 -0.790656
vn -0.408101 -0.456417 -0.790656
vn -0.408101 -0.456417 -0.790656
vn -0.408101 -0.456417 -0.790656
vn 0.000000 0.866022 -0.500006
vn 0.000000 0.866022 -0.500006
vn 0.000000 0.866022 -0.500006
vn 0.000000 0.866022 -0.500006
vn 0.408127 0.456411 0.790646
vn 0.408101 0.456417 0.790656
vn 0.408101 0.456417 0.790656
vn 0.408127 0.456411 0.790646
vn 0.408101 -0.456417 -0.790656
vn 0.408127 -0.456411 -0.790646
vn 0.408127 -0.456411 -0.790646
vn 0.408101 -0.456417 -0.790656
vn 0.000000 -0.866022 0.500006
vn 0.000000 -0.866022 0.500006
vn 0.000000 -0.866022 0.500006
vn 0.000000 -0.866022 0.500006
vn -0.408101 0.456417 0.790656
vn -0.408101 0.456417 0.790656
vn -0.408101 0.456417 0.790656
vn -0.408101 0.456417 0.790656
vn -0.408101 0.456417 0.790656
vn -0.408101 0.456417 0.790656
vn -0.408101 0.456417 0.790656
vn -0.408101 0.456417 0.790656
vn 0.000000 0.866022 -0.500006
vn 0.000000 0.866022 -0.500006
vn 0.000000 0.866022 -0.500006
vn 0.000000 0.866022 -0.500006
vn 0.408101 -0.456417 -0.790656
vn 0.408101 -0.456417 -0.790656
vn 0.408101 -0.456417 -0.790656
vn 0.408101 -0.456417 -0.790656
vn 0.951081 0.267574 -0.154434
vn 0.808999 0.509066 -0.293891
vn 0.808999 0.509066 -0.293891
vn 0.951081 0.267574 -0.154434
vn 0.808999 0.509066 -0.293891
vn 0.587804 0.700639 -0.404464
vn 0.587804 0.700639 -0.404464
vn 0.808999 0.509066 -0.293891
vn 0.587804 0.700639 -0.404464
vn 0.308958 0.823655 -0.475539
vn 0.308958 0.823655 -0.475539
vn 0.587804 0.700639 -0.404464
vn 0.308958 0.823655 -0.475539
vn 0.000000 0.866009 -0.500029
vn 0.000000 0.866009 -0.500029
vn 0.308958 0.823655 -0.475539
vn 0.000000 0.866009 -0.500029
vn -0.308958 0.823655 -0.475539
vn -0.308958 0.823655 -0.475539
vn 0.000000 0.866009 -0.500029
vn -0.308958 0.823655 -0.475539
vn -0.587804 0.700639 -0.404464
vn -0.587804 0.700639 -0.404464
vn -0.308958 0.823655 -0.475539
vn -0.587804 0.700639 -0.404464
vn -0.808999 0.509066 -0.293891
vn -0.808999 0.509066 -0.293891
vn -0.587804 0.700639 -0.404464
vn -0.808999 0.509066 -0.293891
vn -0.951081 0.267574 -0.154434
vn -0.951081 0.267574 -0.154434
vn -0.808999 0.509066 -0.293891
vn -0.951081 0.267574 -0.154434
vn -1.000000 0.000000 0.000000
vn -1.000000 0.000000 0.000000
vn -0.951081 0.267574 -0.154434
vn -1.000000 0.000000 0.000000
vn -0.951081 -0.267574 0.154434
vn -0.951081 -0.267574 0.154434
vn -1.000000 0.000000 0.000000
vn -0.951081 -0.267574 0.154434
vn -0.808999 -0.509066 0.293891
vn -0.808999 -0.509066 0.293891
vn -0.951081 -0.267574 0.154434
vn -0.808999 -0.509066 0.293891
vn -0.587804 -0.700639 0.404464
vn -0.587804 -0.700639 0.404464
vn -0.808999 -0.509066 0.293891
vn -0.587804 -0.700639 0.404464
vn -0.308958 -0.823655 0.475539
vn -0.308958 -0.823655 0.475539
vn -0.587804 -0.700639 0.404464
vn -0.308958 -0.823655 0.475539
vn 0.000000 -0.866022 0.500006
vn 0.000000 -0.866022 0.500006
vn -0.308958 -0.823655 0.475539
vn 0.000000 -0.866022 0.500006
vn 0.308958 -0.823655 0.475539
vn 0.308958 -0.823655 0.475539
vn 0.000000 -0.866022 0.500006
vn 0.308958 -0.823655 0.475539
vn 0.587804 -0.700639 0.404464
vn 0.587804 -0.700639 0.404464
vn 0.308958 -0.823655 0.475539
vn 0.587804 -0.700639 0.404464
vn 0.808999 -0.509066 0.293891
vn 0.808999 -0.509066 0.293891
vn 0.587804 -0.700639 0.404464
vn 0.808999 -0.509066 0.293891
vn 0.951081 -0.267574 0.154434
vn 0.951081 -0.267574 0.154434
vn 0.808999 -0.509066 0.293891
vn 0.951081 -0.267574 0.154434
vn 1.000000 0.000000 0.000000
vn 1.000000 0.000000 0.000000
vn 0.951081 -0.267574 0.154434
vn 1.000000 0.000000 0.000000
vn 0.951081 0.267574 -0.154434
vn 0.951081 0.267574 -0.154434
vn 1.000000 0.000000 0.000000
vn 0.000000 -0.500029 -0.866009
vn 0.000000 -0.500029 -0.866009
vn 0.000000 -0.500029 -0.866009
vn 0.000000 -0.500029 -0.866009
vn 0.000000 0.500029 0.866009
vn 0.000000 0.500029 0.866009
vn 0.000000 0.500029 0.866009
vn 0.000000 0.500029 0.866009
vn 0.000000 0.500006 0.866022
vn 0.000000 0.500029 0.866009
vn 0.000000 0.500029 0.866009
vn 0.000000 0.500029 0.866009
vn 0.000000 0.500029 0.866009
vn 0.000000 0.500029 0.866009
vn 0.000000 0.500029 0.866009
vn 0.000000 0.500029 0.866009
vn 0.000000 0.500029 0.866009
vn 0.000000 0.500029 0.866009
vn 0.000000 0.500029 0.866009
vn 0.000000 0.500029 0.866009
vn 0.000000 0.500029 0.866009
vn 0.000000 0.500029 0.866009
vn 0.000000 0.500029 0.866009
vn 0.000000 0.500029 0.866009
vn 0.000000 0.500029 0.866009
vn 0.000000 0.500029 0.866009
vn 0.000000 0.500029 0.866009
vn 0.000000 0.500029 0.866009
vn 0.000000 0.500029 0.866009
vn 0.000000 0.500029 0.866009
vn 0.000000 0.500029 0.866009
vn 0.000000 0.500029 0.866009
vn 0.000000 0.500029 0.866009
vn 0.000000 0.500029 0.866009
vn 0.000000 0.500029 0.866009
vn 0.000000 0.500029 0.866009
vn 0.000000 0.500029 0.866009
vn 0.000000 0.500029 0.866009
vn 0.000000 0.500029 0.866009
vn 0.000000 0.500029 0.866009
vn 0.000000 0.500029 0.866009
vn 0.000000 0.500029 0.866009
vn 0.000000 -0.500029 -0.866009
vn 0.000000 -0.500029 -0.866009
vn 0.000000 -0.500029 -0.866009
vn 0.000000 -0.500029 -0.866009
vn 0.000000 -0.500029 -0.866009
vn 0.000000 -0.500029 -0.866009
vn 0.000000 -0.500029 -0.866009
vn 0.000000 -0.500029 -0.866009
vn 0.000000 -0.500029 -0.866009
vn 0.000000 -0.500029 -0.866009
vn 0.000000 -0.500029 -0.866009
vn 0.000000 -0.500029 -0.866009
vn 0.000000 -0.500029 -0.866009
vn 0.000000 -0.500029 -0.866009
vn 0.000000 -0.500029 -0.866009
vn 0.000000 -0.500029 -0.866009
vn 0.000000 -0.500029 -0.866009
vn 0.000000 -0.500029 -0.866009
vn 0.000000 -0.500029 -0.866009
vn 0.000000 -0.500029 -0.866009
vn 0.000000 -0.500029 -0.866009
vn 0.000000 -0.500029 -0.866009
vn 0.000000 -0.500029 -0.866009
vn 0.000000 -0.500029 -0.866009
vn 0.000000 -0.500029 -0.866009
vn 0.000000 -0.500029 -0.866009
vn 0.000000 -0.500029 -0.866009
vn 0.000000 -0.500029 -0.866009
vn 0.000000 -0.500029 -0.866009
vn 0.000000 -0.500029 -0.866009
vn 0.000000 -0.500029 -0.866009
vn 0.000000 -0.500029 -0.866009
vn 0.000000 -0.500029 -0.866009
vn 0.000000 -0.500029 -0.866009
s off
usemtl Antenna:initialShadingGroup
f 3/1/1 4/2/2 2/3/3 1/4/4
f 5/5/5 6/6/6 9/7/7 10/8/8
f 6/6/9 5/9/10 8/10/11 7/11/12
f 7/11/13 8/12/14 12/13/15 11/14/16
f 10/15/17 9/7/18 11/14/19 12/16/20
f 1/17/21 2/18/22 8/10/23 5/9/24
f 6/6/25 7/11/26 11/14/27 9/7/28
f 10/15/29 12/16/30 4/19/31 3/20/32
f 2/21/33 4/22/34 12/13/35 8/12/36
f 3/23/37 1/24/38 5/5/39 10/8/40
f 16/25/41 14/26/42 17/27/43 20/28/44
f 21/29/45 24/30/46 27/31/47 26/32/48
f 25/33/49 28/34/50 19/35/51 18/36/52
f 23/37/53 22/38/54 13/39/55 15/40/56
f 30/41/57 29/42/58 31/43/59 32/44/60 33/45/61 34/46/62 35/47/63 36/48/64
f 22/49/65 21/50/66 26/51/67 25/52/68 18/53/69 17/54/70 14/55/71 13/56/72
f 13/39/73 14/26/74 16/25/75 15/40/76
f 17/27/77 18/36/78 19/35/79 20/28/80
f 21/57/81 22/38/82 23/37/83 24/58/84
f 25/33/85 26/32/86 27/31/87 28/34/88
f 15/59/89 16/60/90 29/61/91 30/62/92
f 16/60/93 20/63/94 31/64/95 29/61/96
f 20/63/97 19/65/98 32/66/99 31/64/100
f 19/65/101 28/67/102 33/68/103 32/66/104
f 28/67/105 27/69/106 34/70/107 33/68/108
f 27/69/109 24/71/110 35/72/111 34/70/112
f 24/73/113 23/74/114 36/75/115 35/76/116
f 23/74/117 15/59/118 30/62/119 36/75/120
f 37/77/121 38/78/122 58/79/123 57/80/124
f 38/78/125 39/81/126 59/82/127 58/79/128
f 39/81/129 40/83/130 60/84/131 59/82/132
f 40/83/133 41/85/134 61/86/135 60/84/136
f 41/87/137 42/88/138 62/89/139 61/90/140
f 42/88/141 43/91/142 63/92/143 62/89/144
f 43/91/145 44/93/146 64/94/147 63/92/148
f 44/93/149 45/95/150 65/96/151 64/94/152
f 45/95/153 46/97/154 66/98/155 65/96/156
f 46/97/157 47/99/158 67/100/159 66/98/160
f 47/99/161 48/101/162 68/102/163 67/100/164
f 48/101/165 49/103/166 69/104/167 68/102/168
f 49/103/169 50/105/170 70/106/171 69/104/172
f 50/105/173 51/107/174 71/108/175 70/106/176
f 51/107/177 52/109/178 72/110/179 71/108/180
f 52/109/181 53/111/182 73/112/183 72/110/184
f 53/111/185 54/113/186 74/114/187 73/112/188
f 54/113/189 55/115/190 75/116/191 74/114/192
f 55/115/193 56/117/194 76/118/195 75/116/196
f 56/117/197 37/77/198 57/80/199 76/118/200
f 116/119/201 104/120/202 105/121/203 115/122/204
f 152/123/205 140/124/206 139/125/207 153/126/208
f 129/127/209 130/128/210 117/129/211 118/130/212
f 117/129/213 130/128/214 104/120/215 116/119/216
f 114/131/217 106/132/218 107/133/219 113/134/220
f 115/122/221 105/121/222 106/132/223 114/131/224
f 112/135/225 108/136/226 109/137/227 111/138/228
f 113/134/229 107/133/230 108/136/231 112/135/232
f 111/138/233 109/137/234 110/139/235
f 125/140/236 122/141/237 123/142/238 124/143/239
f 129/127/240 118/130/241 119/144/242 128/145/243
f 128/145/244 119/144/245 120/146/246 127/147/247
f 127/147/248 120/146/249 121/148/250 126/149/251
f 126/149/252 121/148/253 122/141/254 125/140/255
f 86/150/256 87/151/257 148/152/258 149/153/259
f 87/151/260 88/154/261 147/155/262 148/152/263
f 88/154/264 89/156/265 146/157/266 147/155/267
f 89/156/268 90/158/269 145/159/270 146/157/271
f 90/158/272 91/160/273 144/161/274 145/159/275
f 91/160/276 92/162/277 143/163/278 144/161/279
f 92/162/280 93/164/281 142/165/282 143/163/283
f 93/164/284 94/166/285 141/167/286 142/165/287
f 94/166/288 95/168/289 140/169/290 141/167/291
f 95/168/292 96/170/293 139/171/294 140/169/295
f 96/170/296 97/172/297 138/173/298 139/171/299
f 97/172/300 98/174/301 137/175/302 138/173/303
f 98/174/304 99/176/305 136/177/306 137/175/307
f 99/176/308 100/178/309 135/179/310 136/177/311
f 100/178/312 101/180/313 134/181/314 135/179/315
f 101/180/316 102/182/317 133/183/318 134/181/319
f 102/182/320 103/184/321 132/185/322 133/183/323
f 103/184/324 77/186/325 131/187/326 132/185/327
f 77/186/328 78/188/329 157/189/330 131/187/331
f 78/188/332 79/190/333 156/191/334 157/189/335
f 79/190/336 80/192/337 155/193/338 156/191/339
f 80/192/340 81/194/341 154/195/342 155/193/343
f 81/194/344 82/196/345 153/197/346 154/195/347
f 82/196/348 83/198/349 152/199/350 153/197/351
f 83/198/352 84/200/353 151/201/354 152/199/355
f 84/200/356 85/202/357 150/203/358 151/201/359
f 85/202/360 86/150/361 149/153/362 150/203/363
f 158/204/364 161/205/365 78/206/366 77/207/367
f 161/205/368 164/208/369 79/209/370 78/206/371
f 164/208/372 167/210/373 80/211/374 79/209/375
f 167/210/376 170/212/377 81/213/378 80/211/379
f 170/212/380 173/214/381 82/215/382 81/213/383
f 173/214/384 176/216/385 83/217/386 82/215/387
f 176/216/388 179/218/389 84/219/390 83/217/391
f 179/218/392 182/220/393 85/221/394 84/219/395
f 182/220/396 185/222/397 86/223/398 85/221/399
f 185/222/400 188/224/401 87/225/402 86/223/403
f 188/224/404 191/226/405 88/227/406 87/225/407
f 191/226/408 194/228/409 89/229/410 88/227/411
f 194/228/412 197/230/413 90/231/414 89/229/415
f 197/230/416 200/232/417 91/233/418 90/231/419
f 200/232/420 203/234/421 92/235/422 91/233/423
f 203/234/424 206/236/425 93/237/426 92/235/427
f 206/236/428 209/238/429 94/239/430 93/237/431
f 209/238/432 212/240/433 95/241/434 94/239/435
f 212/240/436 215/242/437 96/243/438 95/241/439
f 215/242/440 218/244/441 97/245/442 96/243/443
f 218/244/444 221/246/445 98/247/446 97/245/447
f 221/246/448 224/248/449 99/249/450 98/247/451
f 224/248/452 227/250/453 100/251/454 99/249/455
f 227/250/456 230/252/457 101/253/458 100/251/459
f 230/252/460 233/254/461 102/255/462 101/253/463
f 233/254/464 236/256/465 103/257/466 102/255/467
f 236/256/468 158/204/469 77/207/470 103/257/471
f 175/258/472 172/259/473 105/260/474 104/261/475
f 172/259/476 169/262/477 106/263/478 105/260/479
f 169/262/480 166/264/481 107/265/482 106/263/483
f 166/264/484 163/266/485 108/267/486 107/265/487
f 163/266/488 160/268/489 109/269/490 108/267/491
f 160/268/492 238/270/493 110/271/494 109/269/495
f 238/270/496 235/272/497 111/273/498 110/271/499
f 235/272/500 232/274/501 112/275/502 111/273/503
f 232/274/504 229/276/505 113/277/506 112/275/507
f 229/276/508 226/278/509 114/279/510 113/277/511
f 226/278/512 223/280/513 115/281/514 114/279/515
f 223/280/516 220/282/517 116/283/518 115/281/519
f 220/282/520 217/284/521 117/285/522 116/283/523
f 217/284/524 214/286/525 118/287/526 117/285/527
f 214/286/528 211/288/529 119/289/530 118/287/531
f 211/288/532 208/290/533 120/291/534 119/289/535
f 208/290/536 205/292/537 121/293/538 120/291/539
f 205/292/540 202/294/541 122/295/542 121/293/543
f 202/294/544 199/296/545 123/297/546 122/295/547
f 199/296/548 196/298/549 124/299/550 123/297/551
f 196/298/552 193/300/553 125/301/554 124/299/555
f 193/300/556 190/302/557 126/303/558 125/301/559
f 190/302/560 187/304/561 127/305/562 126/303/563
f 187/304/564 184/306/565 128/307/566 127/305/567
f 184/306/568 181/308/569 129/309/570 128/307/571
f 181/308/572 178/310/573 130/311/574 129/309/575
f 178/310/576 175/258/577 104/261/578 130/311/579
f 158/204/580 159/312/581 162/313/582 161/205/583
f 159/312/584 160/268/585 163/266/586 162/313/587
f 161/205/588 162/313/589 165/314/590 164/208/591
f 162/313/592 163/266/593 166/264/594 165/314/595
f 164/208/596 165/314/597 168/315/598 167/210/599
f 165/314/600 166/264/601 169/262/602 168/315/603
f 167/210/604 168/315/605 171/316/606 170/212/607
f 168/315/608 169/262/609 172/259/610 171/316/611
f 170/212/612 171/316/613 174/317/614 173/214/615
f 171/316/616 172/259/617 175/258/618 174/317/619
f 173/214/620 174/317/621 177/318/622 176/216/623
f 174/317/624 175/258/625 178/310/626 177/318/627
f 176/216/628 177/318/629 180/319/630 179/218/631
f 177/318/632 178/310/633 181/308/634 180/319/635
f 179/218/636 180/319/637 183/320/638 182/220/639
f 180/319/640 181/308/641 184/306/642 183/320/643
f 182/220/644 183/320/645 186/321/646 185/222/647
f 183/320/648 184/306/649 187/304/650 186/321/651
f 185/222/652 186/321/653 189/322/654 188/224/655
f 186/321/656 187/304/657 190/302/658 189/322/659
f 188/224/660 189/322/661 192/323/662 191/226/663
f 189/322/664 190/302/665 193/300/666 192/323/667
f 191/226/668 192/323/669 195/324/670 194/228/671
f 192/323/672 193/300/673 196/298/674 195/324/675
f 194/228/676 195/324/677 198/325/678 197/230/679
f 195/324/680 196/298/681 199/296/682 198/325/683
f 197/230/684 198/325/685 201/326/686 200/232/687
f 198/325/688 199/296/689 202/294/690 201/326/691
f 200/232/692 201/326/693 204/327/694 203/234/695
f 201/326/696 202/294/697 205/292/698 204/327/699
f 203/234/700 204/327/701 207/328/702 206/236/703
f 204/327/704 205/292/705 208/290/706 207/328/707
f 206/236/708 207/328/709 210/329/710 209/238/711
f 207/328/712 208/290/713 211/288/714 210/329/715
f 209/238/716 210/329/717 213/330/718 212/240/719
f 210/329/720 211/288/721 214/286/722 213/330/723
f 212/240/724 213/330/725 216/331/726 215/242/727
f 213/330/728 214/286/729 217/284/730 216/331/731
f 215/242/732 216/331/733 219/332/734 218/244/735
f 216/331/736 217/284/737 220/282/738 219/332/739
f 218/244/740 219/332/741 222/333/742 221/246/743
f 219/332/744 220/282/745 223/280/746 222/333/747
f 221/246/748 222/333/749 225/334/750 224/248/751
f 222/333/752 223/280/753 226/278/754 225/334/755
f 224/248/756 225/334/757 228/335/758 227/250/759
f 225/334/760 226/278/761 229/276/762 228/335/763
f 227/250/764 228/335/765 231/336/766 230/252/767
f 228/335/768 229/276/769 232/274/770 231/336/771
f 230/252/772 231/336/773 234/337/774 233/254/775
f 231/336/776 232/274/777 235/272/778 234/337/779
f 233/254/780 234/337/781 237/338/782 236/256/783
f 234/337/784 235/272/785 238/270/786 237/338/787
f 160/268/788 159/312/789 237/338/790 238/270/791
f 159/312/792 158/204/793 236/256/794 237/338/795
f 157/339/796 135/340/797 134/341/798 131/342/799
f 131/342/800 134/341/801 133/343/802 132/344/803
f 155/345/804 137/346/805 136/347/806 156/348/807
f 156/348/808 136/347/809 135/340/810 157/339/811
f 153/126/812 139/125/813 138/349/814 154/350/815
f 154/350/816 138/349/817 137/346/818 155/345/819
f 150/351/820 142/352/821 141/353/822 151/354/823
f 151/354/824 141/353/825 140/124/826 152/123/827
f 143/355/828 149/356/829 148/357/830 144/358/831
f 150/351/832 149/356/833 143/355/834 142/352/835
f 145/359/836 147/360/837 146/361/838
f 144/358/839 148/357/840 147/360/841 145/359/842
f 251/362/843 239/363/844 250/364/845 240/365/846 254/366/847 242/367/848 247/368/849 241/369/850
f 280/370/851 279/371/852 281/372/853 282/373/854 283/374/855 284/375/856
f 253/376/857 246/377/858 249/378/859 245/379/860 252/380/861 243/381/862 248/382/863 244/383/864
f 286/384/865 285/385/866 287/386/867 288/387/868 289/388/869 290/389/870
f 292/390/871 291/391/872 293/392/873 294/393/874 295/394/875 296/395/876
f 297/396/877 298/397/878 299/398/879 300/399/880 301/400/881 302/401/882
f 254/402/883 240/403/884 255/404/885 256/405/886
f 240/403/887 246/406/888 257/407/889 255/404/890
f 246/406/891 253/408/892 258/409/893 257/407/894
f 253/408/895 244/410/896 259/411/897 258/409/898
f 244/410/899 242/412/900 260/413/901 259/411/902
f 242/412/903 254/402/904 256/405/905 260/413/906
f 252/414/907 245/415/908 262/416/909 261/417/910
f 245/415/911 239/418/912 263/419/913 262/416/914
f 239/418/915 251/420/916 264/421/917 263/419/918
f 251/420/919 241/422/920 265/423/921 264/421/922
f 241/422/923 243/424/924 266/425/925 265/423/926
f 243/424/927 252/414/928 261/417/929 266/425/930
f 248/426/931 243/424/932 267/427/933 268/428/934
f 243/424/935 241/422/936 269/429/937 267/427/938
f 241/422/939 247/430/940 270/431/941 269/429/942
f 247/430/943 242/412/944 271/432/945 270/431/946
f 242/412/947 244/410/948 272/433/949 271/432/950
f 244/410/951 248/426/952 268/428/953 272/433/954
f 250/434/955 239/418/956 273/435/957 274/436/958
f 239/418/959 245/415/960 275/437/961 273/435/962
f 245/415/963 249/438/964 276/439/965 275/437/966
f 249/438/967 246/440/968 277/441/969 276/439/970
f 246/440/971 240/442/972 278/443/973 277/441/974
f 240/442/975 250/434/976 274/436/977 278/443/978
f 268/444/979 267/445/980 279/446/981 280/447/982
f 267/448/983 269/449/984 281/372/985 279/450/986
f 269/449/987 270/451/988 282/373/989 281/372/990
f 270/451/991 271/452/992 283/374/993 282/373/994
f 271/452/995 272/453/996 284/454/997 283/374/998
f 272/455/999 268/444/1000 280/447/1001 284/456/1002
f 274/457/1003 273/458/1004 285/385/1005 286/384/1006
f 273/458/1007 275/459/1008 287/460/1009 285/385/1010
f 275/461/1011 276/462/1012 288/463/1013 287/464/1014
f 276/462/1015 277/465/1016 289/466/1017 288/463/1018
f 277/467/1019 278/468/1020 290/389/1021 289/469/1022
f 278/468/1023 274/457/1024 286/384/1025 290/389/1026
f 256/470/1027 255/471/1028 291/391/1029 292/390/1030
f 255/471/1031 257/472/1032 293/473/1033 291/391/1034
f 257/474/1035 258/475/1036 294/476/1037 293/477/1038
f 258/475/1039 259/478/1040 295/479/1041 294/476/1042
f 259/480/1043 260/481/1044 296/395/1045 295/482/1046
f 260/481/1047 256/470/1048 292/390/1049 296/395/1050
f 261/483/1051 262/484/1052 298/485/1053 297/486/1054
f 262/487/1055 263/488/1056 299/398/1057 298/489/1058
f 263/488/1059 264/490/1060 300/399/1061 299/398/1062
f 264/490/1063 265/491/1064 301/400/1065 300/399/1066
f 265/491/1067 266/492/1068 302/493/1069 301/400/1070
f 266/494/1071 261/483/1072 297/486/1073 302/495/1074
f 303/496/1075 304/497/1076 324/498/1077 323/499/1078
f 304/497/1079 305/500/1080 325/501/1081 324/498/1082
f 305/500/1083 306/502/1084 326/503/1085 325/501/1086
f 306/502/1087 307/504/1088 327/505/1089 326/503/1090
f 307/504/1091 308/506/1092 328/507/1093 327/505/1094
f 308/506/1095 309/508/1096 329/509/1097 328/507/1098
f 309/508/1099 310/510/1100 330/511/1101 329/509/1102
f 310/510/1103 311/512/1104 331/513/1105 330/511/1106
f 311/512/1107 312/514/1108 332/515/1109 331/513/1110
f 312/514/1111 313/516/1112 333/517/1113 332/515/1114
f 313/516/1115 314/518/1116 334/519/1117 333/517/1118
f 314/518/1119 315/520/1120 335/521/1121 334/519/1122
f 315/520/1123 316/522/1124 336/523/1125 335/521/1126
f 316/522/1127 317/524/1128 337/525/1129 336/523/1130
f 317/526/1131 318/527/1132 338/528/1133 337/529/1134
f 318/527/1135 319/530/1136 339/531/1137 338/528/1138
f 319/530/1139 320/532/1140 340/533/1141 339/531/1142
f 320/532/1143 321/534/1144 341/535/1145 340/533/1146
f 321/534/1147 322/536/1148 342/537/1149 341/535/1150
f 322/536/1151 303/496/1152 323/499/1153 342/537/1154
f 307/538/1155 317/539/1156 316/540/1157 308/541/1158
f 337/542/1159 327/543/1160 328/544/1161 336/545/1162
f 342/546/1163 323/547/1164 341/548/1165
f 335/549/1166 329/550/1167 330/551/1168 334/552/1169
f 336/545/1170 328/544/1171 329/550/1172 335/549/1173
f 333/553/1174 331/554/1175 332/555/1176
f 334/552/1177 330/551/1178 331/554/1179 333/553/1180
f 338/556/1181 326/557/1182 327/543/1183 337/542/1184
f 339/558/1185 325/559/1186 326/557/1187 338/556/1188
f 340/560/1189 324/561/1190 325/559/1191 339/558/1192
f 341/548/1193 323/547/1194 324/561/1195 340/560/1196
f 306/562/1197 318/563/1198 317/539/1199 307/538/1200
f 309/564/1201 315/565/1202 314/566/1203 310/567/1204
f 308/541/1205 316/540/1206 315/565/1207 309/564/1208
f 311/568/1209 313/569/1210 312/570/1211
f 310/567/1212 314/566/1213 313/569/1214 311/568/1215
f 304/571/1216 320/572/1217 319/573/1218 305/574/1219
f 305/574/1220 319/573/1221 318/563/1222 306/562/1223
f 321/575/1224 303/576/1225 322/577/1226
f 321/575/1227 320/572/1228 304/571/1229 303/576/1230
